<?xml version="1.0" standalone="no"?>
 <!DOCTYPE svg PUBLIC "-//W3C//DTD SVG 1.1//EN" 
 "http://www.w3.org/Graphics/SVG/1.1/DTD/svg11.dtd"> 
<svg xmlns="http://www.w3.org/2000/svg" version="1.1" 
    width="13.7693cm" height="12.8727cm" viewBox="0 0 54210 50680 ">
<title>SVG Picture created as uno shield v1.0 project SMD with aux board-F_Paste.svg date 2020/03/27 07:07:37 </title>
  <desc>Picture generated by PCBNEW </desc>
<g style="fill:#000000; fill-opacity:1;stroke:#000000; stroke-opacity:1;
stroke-linecap:round; stroke-linejoin:round; "
 transform="translate(0 0) scale(1 1)">
</g>
<g style="fill:#000000; fill-opacity:0.0; 
stroke:#000000; stroke-width:-0.000393701; stroke-opacity:1; 
stroke-linecap:round; stroke-linejoin:round;">
</g>
<g style="fill:#26FF16; fill-opacity:0.0; 
stroke:#26FF16; stroke-width:-0.000393701; stroke-opacity:1; 
stroke-linecap:round; stroke-linejoin:round;">
</g>
<g style="fill:#26FF16; fill-opacity:0.0; 
stroke:#26FF16; stroke-width:0.393701; stroke-opacity:1; 
stroke-linecap:round; stroke-linejoin:round;">
<circle cx="32367.4" cy="11139" r="314.961" /> 
<circle cx="32367.4" cy="22139" r="314.961" /> 
<circle cx="12367.4" cy="5139.01" r="314.961" /> 
<circle cx="31367.3" cy="5139.02" r="196.85" /> 
<circle cx="9591.64" cy="4856.05" r="196.85" /> 
<circle cx="31367.4" cy="24139" r="196.85" /> 
<g >
</g>
<g >
</g>
<g >
</g>
<g >
</g>
<g >
</g>
<g >
</g>
<g >
</g>
<g >
</g>
<g >
</g>
<g >
</g>
<g >
</g>
<g >
</g>
<g >
</g>
<g >
</g>
<g >
</g>
<g >
</g>
<g >
</g>
<g >
</g>
<g >
</g>
<g >
</g>
<g >
</g>
<g >
</g>
<g >
</g>
<g >
</g>
<g >
</g>
<g >
</g>
<g >
</g>
<g >
</g>
<g >
</g>
<g >
</g>
<g >
</g>
<g >
</g>
<g >
</g>
<g >
</g>
<g >
</g>
<g >
</g>
<g >
</g>
<g >
</g>
<g >
</g>
<g >
</g>
<g >
</g>
<g >
</g>
<g >
</g>
<g >
</g>
<g >
</g>
<g >
</g>
<g >
</g>
<g >
</g>
<g >
</g>
<g >
</g>
<g >
</g>
<g >
</g>
<g >
</g>
<g >
</g>
<g >
</g>
<g >
</g>
<g >
</g>
<g >
</g>
<g >
</g>
<g >
</g>
<g >
</g>
<g >
</g>
<g >
</g>
<g >
</g>
<g >
</g>
<g >
</g>
<g >
</g>
<g >
</g>
<g >
</g>
<g >
</g>
<g >
</g>
<g >
</g>
<g >
</g>
<g >
</g>
<g >
</g>
<g >
</g>
<g >
</g>
<g >
</g>
<g >
</g>
<g >
</g>
<g >
</g>
<g >
</g>
<g >
</g>
<g >
</g>
<g >
</g>
<g >
</g>
<g >
</g>
<g >
</g>
<g >
</g>
<g style="fill:#FF080E; fill-opacity:0.0; 
stroke:#FF080E; stroke-width:0.393701; stroke-opacity:1; 
stroke-linecap:round; stroke-linejoin:round;">
</g>
<g style="fill:#FF080E; fill-opacity:0.0; 
stroke:#FF080E; stroke-width:0; stroke-opacity:1; 
stroke-linecap:round; stroke-linejoin:round;">
</g>
<g style="fill:#FF080E; fill-opacity:1.0; 
stroke:#FF080E; stroke-width:0; stroke-opacity:1; 
stroke-linecap:round; stroke-linejoin:round;">
<path style="fill:#FF080E; fill-opacity:1.0; 
stroke:#FF080E; stroke-width:0; stroke-opacity:1; 
stroke-linecap:round; stroke-linejoin:round;fill-rule:evenodd;"
d="M 29124,18870
29133,18871
29141,18873
29149,18876
29156,18879
29163,18883
29170,18888
29176,18894
29182,18900
29187,18907
29191,18914
29195,18922
29197,18929
29199,18938
29201,18946
29201,18954
29201,19124
29201,19132
29199,19141
29197,19149
29195,19157
29191,19164
29187,19171
29182,19178
29176,19184
29170,19190
29163,19195
29156,19199
29149,19203
29141,19205
29133,19207
29124,19209
29116,19209
28917,19209
28909,19209
28900,19207
28892,19205
28884,19203
28877,19199
28870,19195
28863,19190
28857,19184
28851,19178
28846,19171
28842,19164
28838,19157
28836,19149
28834,19141
28832,19132
28832,19124
28832,18954
28832,18946
28834,18938
28836,18929
28838,18922
28842,18914
28846,18907
28851,18900
28857,18894
28863,18888
28870,18883
28877,18879
28884,18876
28892,18873
28900,18871
28909,18870
28917,18869
29116,18869
29124,18870
Z" /> 
<path style="fill:#FF080E; fill-opacity:1.0; 
stroke:#FF080E; stroke-width:0; stroke-opacity:1; 
stroke-linecap:round; stroke-linejoin:round;fill-rule:evenodd;"
d="M 29124,18249
29133,18251
29141,18253
29149,18255
29156,18259
29163,18263
29170,18268
29176,18274
29182,18280
29187,18287
29191,18294
29195,18301
29197,18309
29199,18317
29201,18326
29201,18334
29201,18504
29201,18512
29199,18521
29197,18529
29195,18537
29191,18544
29187,18551
29182,18558
29176,18564
29170,18570
29163,18575
29156,18579
29149,18583
29141,18585
29133,18587
29124,18589
29116,18589
28917,18589
28909,18589
28900,18587
28892,18585
28884,18583
28877,18579
28870,18575
28863,18570
28857,18564
28851,18558
28846,18551
28842,18544
28838,18537
28836,18529
28834,18521
28832,18512
28832,18504
28832,18334
28832,18326
28834,18317
28836,18309
28838,18301
28842,18294
28846,18287
28851,18280
28857,18274
28863,18268
28870,18263
28877,18259
28884,18255
28892,18253
28900,18251
28909,18249
28917,18249
29116,18249
29124,18249
Z" /> 
</g>
<g >
</g>
<g >
</g>
<g >
</g>
<g >
</g>
<g >
</g>
<g >
</g>
<g >
</g>
<g >
</g>
<g >
</g>
<g >
</g>
<g >
</g>
<g >
</g>
<g >
</g>
<g >
</g>
<g style="fill:#FF080E; fill-opacity:1.0; 
stroke:#FF080E; stroke-width:0; stroke-opacity:1; 
stroke-linecap:round; stroke-linejoin:round;">
<path style="fill:#FF080E; fill-opacity:1.0; 
stroke:#FF080E; stroke-width:0; stroke-opacity:1; 
stroke-linecap:round; stroke-linejoin:round;fill-rule:evenodd;"
d="M 16652,18324
16660,18326
16668,18328
16676,18330
16684,18334
16691,18338
16698,18343
16704,18349
16709,18355
16714,18362
16719,18369
16722,18376
16725,18384
16727,18392
16728,18401
16729,18409
16729,18608
16728,18616
16727,18625
16725,18633
16722,18641
16719,18648
16714,18655
16709,18662
16704,18668
16698,18674
16691,18679
16684,18683
16676,18687
16668,18690
16660,18692
16652,18693
16644,18693
16474,18693
16465,18693
16457,18692
16449,18690
16441,18687
16434,18683
16427,18679
16420,18674
16414,18668
16408,18662
16403,18655
16399,18648
16395,18641
16392,18633
16390,18625
16389,18616
16389,18608
16389,18409
16389,18401
16390,18392
16392,18384
16395,18376
16399,18369
16403,18362
16408,18355
16414,18349
16420,18343
16427,18338
16434,18334
16441,18330
16449,18328
16457,18326
16465,18324
16474,18324
16644,18324
16652,18324
Z" /> 
<path style="fill:#FF080E; fill-opacity:1.0; 
stroke:#FF080E; stroke-width:0; stroke-opacity:1; 
stroke-linecap:round; stroke-linejoin:round;fill-rule:evenodd;"
d="M 16032,18324
16040,18326
16048,18328
16056,18330
16064,18334
16071,18338
16078,18343
16084,18349
16089,18355
16094,18362
16099,18369
16102,18376
16105,18384
16107,18392
16108,18401
16109,18409
16109,18608
16108,18616
16107,18625
16105,18633
16102,18641
16099,18648
16094,18655
16089,18662
16084,18668
16078,18674
16071,18679
16064,18683
16056,18687
16048,18690
16040,18692
16032,18693
16024,18693
15854,18693
15845,18693
15837,18692
15829,18690
15821,18687
15814,18683
15806,18679
15800,18674
15794,18668
15788,18662
15783,18655
15779,18648
15775,18641
15772,18633
15770,18625
15769,18616
15769,18608
15769,18409
15769,18401
15770,18392
15772,18384
15775,18376
15779,18369
15783,18362
15788,18355
15794,18349
15800,18343
15806,18338
15814,18334
15821,18330
15829,18328
15837,18326
15845,18324
15854,18324
16024,18324
16032,18324
Z" /> 
</g>
<g >
</g>
<g >
</g>
<g >
</g>
<g >
</g>
<g >
</g>
<g >
</g>
<g >
</g>
<g >
</g>
<g >
</g>
<g >
</g>
<g >
</g>
<g >
</g>
<g >
</g>
<g >
</g>
<g >
</g>
<g >
</g>
<g style="fill:#FF080E; fill-opacity:1.0; 
stroke:#FF080E; stroke-width:0; stroke-opacity:1; 
stroke-linecap:round; stroke-linejoin:round;">
<path style="fill:#FF080E; fill-opacity:1.0; 
stroke:#FF080E; stroke-width:0; stroke-opacity:1; 
stroke-linecap:round; stroke-linejoin:round;fill-rule:evenodd;"
d="M 18227,19622
18235,19624
18243,19626
18251,19629
18258,19632
18266,19636
18272,19641
18279,19647
18284,19653
18289,19660
18293,19667
18297,19675
18300,19682
18302,19690
18303,19699
18303,19707
18303,19877
18303,19885
18302,19894
18300,19902
18297,19910
18293,19917
18289,19924
18284,19931
18279,19937
18272,19943
18266,19948
18258,19952
18251,19956
18243,19958
18235,19960
18227,19962
18218,19962
18019,19962
18011,19962
18003,19960
17995,19958
17987,19956
17979,19952
17972,19948
17965,19943
17959,19937
17954,19931
17949,19924
17944,19917
17941,19910
17938,19902
17936,19894
17935,19885
17934,19877
17934,19707
17935,19699
17936,19690
17938,19682
17941,19675
17944,19667
17949,19660
17954,19653
17959,19647
17965,19641
17972,19636
17979,19632
17987,19629
17995,19626
18003,19624
18011,19622
18019,19622
18218,19622
18227,19622
Z" /> 
<path style="fill:#FF080E; fill-opacity:1.0; 
stroke:#FF080E; stroke-width:0; stroke-opacity:1; 
stroke-linecap:round; stroke-linejoin:round;fill-rule:evenodd;"
d="M 18227,19002
18235,19004
18243,19006
18251,19008
18258,19012
18266,19016
18272,19021
18279,19027
18284,19033
18289,19040
18293,19047
18297,19054
18300,19062
18302,19070
18303,19079
18303,19087
18303,19257
18303,19265
18302,19274
18300,19282
18297,19290
18293,19297
18289,19304
18284,19311
18279,19317
18272,19323
18266,19328
18258,19332
18251,19336
18243,19338
18235,19340
18227,19342
18218,19342
18019,19342
18011,19342
18003,19340
17995,19338
17987,19336
17979,19332
17972,19328
17965,19323
17959,19317
17954,19311
17949,19304
17944,19297
17941,19290
17938,19282
17936,19274
17935,19265
17934,19257
17934,19087
17935,19079
17936,19070
17938,19062
17941,19054
17944,19047
17949,19040
17954,19033
17959,19027
17965,19021
17972,19016
17979,19012
17987,19008
17995,19006
18003,19004
18011,19002
18019,19002
18218,19002
18227,19002
Z" /> 
</g>
<g >
</g>
<g >
</g>
<g >
</g>
<g >
</g>
<g >
</g>
<g >
</g>
<g >
</g>
<g >
</g>
<g style="fill:#FF080E; fill-opacity:1.0; 
stroke:#FF080E; stroke-width:0; stroke-opacity:1; 
stroke-linecap:round; stroke-linejoin:round;">
<path style="fill:#FF080E; fill-opacity:1.0; 
stroke:#FF080E; stroke-width:0; stroke-opacity:1; 
stroke-linecap:round; stroke-linejoin:round;fill-rule:evenodd;"
d="M 15805,19266
15805,18956
16543,18956
16543,19266
15805,19266
Z" /> 
<path style="fill:#FF080E; fill-opacity:1.0; 
stroke:#FF080E; stroke-width:0; stroke-opacity:1; 
stroke-linecap:round; stroke-linejoin:round;fill-rule:evenodd;"
d="M 15805,20014
15805,19704
16543,19704
16543,20014
15805,20014
Z" /> 
<path style="fill:#FF080E; fill-opacity:1.0; 
stroke:#FF080E; stroke-width:0; stroke-opacity:1; 
stroke-linecap:round; stroke-linejoin:round;fill-rule:evenodd;"
d="M 16986,19640
16986,19330
17724,19330
17724,19640
16986,19640
Z" /> 
</g>
<g >
</g>
<g >
</g>
<g >
</g>
<g >
</g>
<g >
</g>
<g >
</g>
<g >
</g>
<g >
</g>
<g >
</g>
<g >
</g>
<g >
</g>
<g >
</g>
<g style="fill:#FF080E; fill-opacity:1.0; 
stroke:#FF080E; stroke-width:0; stroke-opacity:1; 
stroke-linecap:round; stroke-linejoin:round;">
<path style="fill:#FF080E; fill-opacity:1.0; 
stroke:#FF080E; stroke-width:0; stroke-opacity:1; 
stroke-linecap:round; stroke-linejoin:round;fill-rule:evenodd;"
d="M 32405,15896
32414,15897
32423,15899
32431,15902
32440,15906
32447,15911
32455,15916
32461,15922
32467,15929
32473,15936
32478,15944
32481,15952
32484,15961
32487,15969
32488,15978
32488,15987
32488,16211
32488,16220
32487,16229
32484,16238
32481,16246
32478,16254
32473,16262
32467,16269
32461,16276
32455,16282
32447,16288
32440,16292
32431,16296
32423,16299
32414,16301
32405,16303
32396,16303
32212,16303
32203,16303
32194,16301
32185,16299
32176,16296
32168,16292
32160,16288
32153,16282
32146,16276
32140,16269
32135,16262
32130,16254
32126,16246
32123,16238
32121,16229
32120,16220
32119,16211
32119,15987
32120,15978
32121,15969
32123,15961
32126,15952
32130,15944
32135,15936
32140,15929
32146,15922
32153,15916
32160,15911
32168,15906
32176,15902
32185,15899
32194,15897
32203,15896
32212,15895
32396,15895
32405,15896
Z" /> 
<path style="fill:#FF080E; fill-opacity:1.0; 
stroke:#FF080E; stroke-width:0; stroke-opacity:1; 
stroke-linecap:round; stroke-linejoin:round;fill-rule:evenodd;"
d="M 32405,16585
32414,16586
32423,16588
32431,16591
32440,16595
32447,16600
32455,16605
32461,16611
32467,16618
32473,16625
32478,16633
32481,16641
32484,16650
32487,16658
32488,16667
32488,16676
32488,16900
32488,16909
32487,16918
32484,16927
32481,16935
32478,16943
32473,16951
32467,16958
32461,16965
32455,16971
32447,16977
32440,16981
32431,16985
32423,16988
32414,16990
32405,16992
32396,16992
32212,16992
32203,16992
32194,16990
32185,16988
32176,16985
32168,16981
32160,16977
32153,16971
32146,16965
32140,16958
32135,16951
32130,16943
32126,16935
32123,16927
32121,16918
32120,16909
32119,16900
32119,16676
32120,16667
32121,16658
32123,16650
32126,16641
32130,16633
32135,16625
32140,16618
32146,16611
32153,16605
32160,16600
32168,16595
32176,16591
32185,16588
32194,16586
32203,16585
32212,16584
32396,16584
32405,16585
Z" /> 
</g>
<g >
</g>
<g >
</g>
<g >
</g>
<g >
</g>
<g >
</g>
<g >
</g>
<g >
</g>
<g >
</g>
<g >
</g>
<g >
</g>
<g >
</g>
<g >
</g>
<g >
</g>
<g >
</g>
<g >
</g>
<g >
</g>
<g >
</g>
<g >
</g>
<g >
</g>
<g >
</g>
<g >
</g>
<g >
</g>
<g >
</g>
<g >
</g>
<g >
</g>
<g >
</g>
<g >
</g>
<g >
</g>
<g >
</g>
<g >
</g>
<g >
</g>
<g >
</g>
<g >
</g>
<g >
</g>
<g >
</g>
<g >
</g>
<g >
</g>
<g >
</g>
<g >
</g>
<g >
</g>
<g >
</g>
<g >
</g>
<g >
</g>
<g >
</g>
<g >
</g>
</g>
<g style="fill:#000000; fill-opacity:1.0; 
stroke:#000000; stroke-width:0; stroke-opacity:1; 
stroke-linecap:round; stroke-linejoin:round;">
</g>
<g style="fill:#C2C200; fill-opacity:1.0; 
stroke:#C2C200; stroke-width:0; stroke-opacity:1; 
stroke-linecap:round; stroke-linejoin:round;">
</g>
<g style="fill:#C2C200; fill-opacity:0.0; 
stroke:#C2C200; stroke-width:0.393701; stroke-opacity:1; 
stroke-linecap:round; stroke-linejoin:round;">
<path d="M33367.4 10238.3 A393.701 393.701 0.0 1 0 34154.8 10239 " />
<path d="M34154.8 23139 A393.701 393.701 0.0 1 0 33367.4 23139.7 " />
</g>
<g style="fill:#C2C200; fill-opacity:0.0; 
stroke:#C2C200; stroke-width:59.0551; stroke-opacity:1; 
stroke-linecap:round; stroke-linejoin:round;">
<path d="M33282 23224
L33367 23139
" />
<path d="M33292 10162
L33367 10239
" />
<path d="M5934 15359
L5934 25138
" />
<path d="M5934 4139
L5934 5471
" />
<path d="M5934 5471
L5934 15359
" />
<path d="M5934 25139
L32367 25139
" />
<path d="M33292 10162
L32367 9239
" />
<path d="M32367 4739
L31767 4139
" />
<path d="M32367 24139
L33282 23224
" />
<path d="M32367 25139
L32367 24139
" />
<path d="M32367 9239
L32367 4739
" />
<path d="M31767 4139
L5934 4139
" />
</g>
<g style="fill:#C2C200; fill-opacity:0.0; 
stroke:#C2C200; stroke-width:0.393701; stroke-opacity:1; 
stroke-linecap:round; stroke-linejoin:round;">
<path d="M34199.7 4002.92 A908.735 908.735 0.0 0 0 34864.3 3957.94 " />
<path d="M34154.8 4667.34 A908.798 908.798 0.0 0 0 34199.7 4002.71 " />
<path d="M43327 21465
L43327 24429
" />
<path d="M41387 19497
L41387 21465
" />
<path d="M41387 19497
L43327 19497
" />
<path d="M41387 21465
L43327 21465
" />
<path d="M34864 3957
L42618 3957
" />
<path d="M42618 25138
L34864 25138
" />
<path d="M34154 23138
L34154 24429
" />
<path d="M34154 4667
L34154 10239
" />
<path d="M43327 4667
L43327 19497
" />
<path d="M34199.8 25094.1 A908.735 908.735 0.0 0 0 34154.8 24429.5 " />
<path d="M34864.2 25139 A908.798 908.798 0.0 0 0 34199.6 25094 " />
<path d="M43328 24429.5 A908.798 908.798 0.0 0 0 43283 25094.2 " />
<path d="M43283.1 25094 A908.735 908.735 0.0 0 0 42618.5 25138.9 " />
<path d="M43283 4002.8 A908.735 908.735 0.0 0 0 43327.9 4667.39 " />
<path d="M42618.5 3957.89 A908.798 908.798 0.0 0 0 43283.2 4002.87 " />
<g >
</g>
<g >
</g>
<g >
</g>
<g >
</g>
<g >
</g>
<g >
</g>
<g >
</g>
<g >
</g>
<g >
</g>
<g >
</g>
<g >
</g>
<g >
</g>
<g >
</g>
<g >
</g>
<g >
</g>
<g >
</g>
<g >
</g>
<g >
</g>
<g >
</g>
<g >
</g>
<g >
</g>
<g >
</g>
<g >
</g>
<g >
</g>
<g >
</g>
<g >
</g>
<g >
</g>
<g >
</g>
<g >
</g>
<g >
</g>
<g >
</g>
<g >
</g>
<g >
</g>
<g >
</g>
<g >
</g>
<g >
</g>
<g >
</g>
<g >
</g>
<g >
</g>
<g >
</g>
<g >
</g>
<g >
</g>
<g >
</g>
<g >
</g>
<g >
</g>
<g >
</g>
<g >
</g>
<g >
</g>
<g >
</g>
<g >
</g>
<g >
</g>
<g >
</g>
<g >
</g>
<g >
</g>
<g >
</g>
<g >
</g>
<g >
</g>
<g >
</g>
<g >
</g>
<g >
</g>
<g >
</g>
<g >
</g>
<g >
</g>
<g >
</g>
<g >
</g>
<g >
</g>
<g >
</g>
<g >
</g>
<g >
</g>
<g >
</g>
<g >
</g>
<g >
</g>
<g >
</g>
<g >
</g>
<g >
</g>
<g >
</g>
<g >
</g>
<g >
</g>
<g >
</g>
<g >
</g>
<g >
</g>
<g >
</g>
<g >
</g>
<g >
</g>
<g >
</g>
<g >
</g>
<g >
</g>
<g >
</g>
<g >
</g>
<g >
</g>
<g >
</g>
<g >
</g>
<g >
</g>
<g >
</g>
<g >
</g>
<g >
</g>
<g >
</g>
<g >
</g>
<g >
</g>
<g >
</g>
<g >
</g>
<g >
</g>
<g >
</g>
<g >
</g>
<g >
</g>
<g >
</g>
<g >
</g>
<g >
</g>
<g >
</g>
<g >
</g>
<g >
</g>
<g >
</g>
<g >
</g>
<g >
</g>
<g >
</g>
<g >
</g>
<g >
</g>
<g >
</g>
<g >
</g>
<g >
</g>
<g >
</g>
<g >
</g>
<g >
</g>
<g >
</g>
<g >
</g>
<g >
</g>
<g >
</g>
<g >
</g>
<g >
</g>
<g >
</g>
<g >
</g>
<g >
</g>
<g >
</g>
<g >
</g>
<g >
</g>
<g >
</g>
<g >
</g>
<g >
</g>
<g >
</g>
<g >
</g>
<g >
</g>
<g >
</g>
<g >
</g>
<g >
</g>
<g >
</g>
<g >
</g>
<g >
</g>
<g >
</g>
<g >
</g>
<g >
</g>
<g >
</g>
<g >
</g>
<g >
</g>
<g >
</g>
<g >
</g>
<g >
</g>
<g >
</g>
<g >
</g>
<g >
</g>
<g >
</g>
<g >
</g>
<g >
</g>
<g >
</g>
<g >
</g>
<g >
</g>
<g >
</g>
<g >
</g>
<g >
</g>
<g >
</g>
<g >
</g>
<g >
</g>
<g >
</g>
<g >
</g>
<g >
</g>
<g >
</g>
<g >
</g>
<g >
</g>
<g >
</g>
<g >
</g>
<g >
</g>
<g >
</g>
<g >
</g>
</g> 
</svg>
