<?xml version="1.0" standalone="no"?>
 <!DOCTYPE svg PUBLIC "-//W3C//DTD SVG 1.1//EN" 
 "http://www.w3.org/Graphics/SVG/1.1/DTD/svg11.dtd"> 
<svg xmlns="http://www.w3.org/2000/svg" version="1.1" 
    width="13.7693cm" height="12.8727cm" viewBox="0 0 54210 50680 ">
<title>SVG Picture created as uno shield v1.0 project SMD-B_Paste.svg date 2020/03/27 07:04:23 </title>
  <desc>Picture generated by PCBNEW </desc>
<g style="fill:#000000; fill-opacity:1;stroke:#000000; stroke-opacity:1;
stroke-linecap:round; stroke-linejoin:round; "
 transform="translate(0 0) scale(1 1)">
</g>
<g style="fill:#000000; fill-opacity:0.0; 
stroke:#000000; stroke-width:-0.000393701; stroke-opacity:1; 
stroke-linecap:round; stroke-linejoin:round;">
</g>
<g style="fill:#0B00C2; fill-opacity:0.0; 
stroke:#0B00C2; stroke-width:-0.000393701; stroke-opacity:1; 
stroke-linecap:round; stroke-linejoin:round;">
</g>
<g style="fill:#0B00C2; fill-opacity:0.0; 
stroke:#0B00C2; stroke-width:393.701; stroke-opacity:1; 
stroke-linecap:round; stroke-linejoin:round;">
</g>
<g style="fill:#0B00C2; fill-opacity:1.0; 
stroke:#0B00C2; stroke-width:0; stroke-opacity:1; 
stroke-linecap:round; stroke-linejoin:round;">
<circle cx="12737.4" cy="8985.47" r="247.869" /> 
</g>
<g style="fill:#0B00C2; fill-opacity:0.0; 
stroke:#0B00C2; stroke-width:393.701; stroke-opacity:1; 
stroke-linecap:round; stroke-linejoin:round;">
</g>
<g style="fill:#0B00C2; fill-opacity:1.0; 
stroke:#0B00C2; stroke-width:0; stroke-opacity:1; 
stroke-linecap:round; stroke-linejoin:round;">
<circle cx="13410.7" cy="9639.01" r="247.869" /> 
</g>
<g style="fill:#0B00C2; fill-opacity:0.0; 
stroke:#0B00C2; stroke-width:393.701; stroke-opacity:1; 
stroke-linecap:round; stroke-linejoin:round;">
</g>
<g style="fill:#0B00C2; fill-opacity:1.0; 
stroke:#0B00C2; stroke-width:0; stroke-opacity:1; 
stroke-linecap:round; stroke-linejoin:round;">
<circle cx="13119.3" cy="9674.45" r="247.869" /> 
</g>
<g style="fill:#0B00C2; fill-opacity:0.0; 
stroke:#0B00C2; stroke-width:393.701; stroke-opacity:1; 
stroke-linecap:round; stroke-linejoin:round;">
</g>
<g style="fill:#0B00C2; fill-opacity:1.0; 
stroke:#0B00C2; stroke-width:0; stroke-opacity:1; 
stroke-linecap:round; stroke-linejoin:round;">
<circle cx="12749.2" cy="9308.31" r="247.869" /> 
</g>
<g style="fill:#0B00C2; fill-opacity:0.0; 
stroke:#0B00C2; stroke-width:393.701; stroke-opacity:1; 
stroke-linecap:round; stroke-linejoin:round;">
</g>
<g style="fill:#0B00C2; fill-opacity:1.0; 
stroke:#0B00C2; stroke-width:0; stroke-opacity:1; 
stroke-linecap:round; stroke-linejoin:round;">
<circle cx="11599.6" cy="8969.72" r="247.869" /> 
</g>
<g style="fill:#0B00C2; fill-opacity:0.0; 
stroke:#0B00C2; stroke-width:393.701; stroke-opacity:1; 
stroke-linecap:round; stroke-linejoin:round;">
</g>
<g style="fill:#0B00C2; fill-opacity:1.0; 
stroke:#0B00C2; stroke-width:0; stroke-opacity:1; 
stroke-linecap:round; stroke-linejoin:round;">
<circle cx="18583.9" cy="13457.5" r="247.869" /> 
</g>
<g style="fill:#0B00C2; fill-opacity:0.0; 
stroke:#0B00C2; stroke-width:393.701; stroke-opacity:1; 
stroke-linecap:round; stroke-linejoin:round;">
</g>
<g style="fill:#0B00C2; fill-opacity:1.0; 
stroke:#0B00C2; stroke-width:0; stroke-opacity:1; 
stroke-linecap:round; stroke-linejoin:round;">
<circle cx="16296.5" cy="9076.02" r="247.869" /> 
</g>
<g style="fill:#0B00C2; fill-opacity:0.0; 
stroke:#0B00C2; stroke-width:0.393701; stroke-opacity:1; 
stroke-linecap:round; stroke-linejoin:round;">
<circle cx="32367.4" cy="11139" r="314.961" /> 
<circle cx="32367.4" cy="22139" r="314.961" /> 
<circle cx="12367.4" cy="5139.01" r="314.961" /> 
<circle cx="31367.3" cy="5139.02" r="196.85" /> 
<circle cx="31367.4" cy="24139" r="196.85" /> 
<circle cx="9591.64" cy="4856.05" r="196.85" /> 
</g>
<g style="fill:#0B00C2; fill-opacity:0.0; 
stroke:#0B00C2; stroke-width:393.701; stroke-opacity:1; 
stroke-linecap:round; stroke-linejoin:round;">
</g>
<g style="fill:#0B00C2; fill-opacity:1.0; 
stroke:#0B00C2; stroke-width:0; stroke-opacity:1; 
stroke-linecap:round; stroke-linejoin:round;">
<circle cx="15247.9" cy="9694.75" r="247.869" /> 
</g>
<g style="fill:#0B00C2; fill-opacity:0.0; 
stroke:#0B00C2; stroke-width:393.701; stroke-opacity:1; 
stroke-linecap:round; stroke-linejoin:round;">
</g>
<g style="fill:#0B00C2; fill-opacity:1.0; 
stroke:#0B00C2; stroke-width:0; stroke-opacity:1; 
stroke-linecap:round; stroke-linejoin:round;">
<circle cx="15737.4" cy="9013.03" r="247.869" /> 
</g>
<g style="fill:#0B00C2; fill-opacity:0.0; 
stroke:#0B00C2; stroke-width:393.701; stroke-opacity:1; 
stroke-linecap:round; stroke-linejoin:round;">
</g>
<g style="fill:#0B00C2; fill-opacity:1.0; 
stroke:#0B00C2; stroke-width:0; stroke-opacity:1; 
stroke-linecap:round; stroke-linejoin:round;">
<circle cx="18801.1" cy="13017" r="247.869" /> 
</g>
<g style="fill:#0B00C2; fill-opacity:0.0; 
stroke:#0B00C2; stroke-width:393.701; stroke-opacity:1; 
stroke-linecap:round; stroke-linejoin:round;">
</g>
<g style="fill:#0B00C2; fill-opacity:1.0; 
stroke:#0B00C2; stroke-width:0; stroke-opacity:1; 
stroke-linecap:round; stroke-linejoin:round;">
<circle cx="28987.8" cy="17922" r="247.869" /> 
</g>
<g style="fill:#0B00C2; fill-opacity:0.0; 
stroke:#0B00C2; stroke-width:393.701; stroke-opacity:1; 
stroke-linecap:round; stroke-linejoin:round;">
</g>
<g style="fill:#0B00C2; fill-opacity:1.0; 
stroke:#0B00C2; stroke-width:0; stroke-opacity:1; 
stroke-linecap:round; stroke-linejoin:round;">
<circle cx="28602.4" cy="17920.6" r="247.869" /> 
</g>
<g style="fill:#0B00C2; fill-opacity:0.0; 
stroke:#0B00C2; stroke-width:393.701; stroke-opacity:1; 
stroke-linecap:round; stroke-linejoin:round;">
</g>
<g style="fill:#0B00C2; fill-opacity:1.0; 
stroke:#0B00C2; stroke-width:0; stroke-opacity:1; 
stroke-linecap:round; stroke-linejoin:round;">
<circle cx="27897.2" cy="17922.6" r="247.869" /> 
</g>
<g style="fill:#0B00C2; fill-opacity:0.0; 
stroke:#0B00C2; stroke-width:393.701; stroke-opacity:1; 
stroke-linecap:round; stroke-linejoin:round;">
</g>
<g style="fill:#0B00C2; fill-opacity:1.0; 
stroke:#0B00C2; stroke-width:0; stroke-opacity:1; 
stroke-linecap:round; stroke-linejoin:round;">
<circle cx="24725.3" cy="17924.8" r="247.869" /> 
</g>
<g style="fill:#0B00C2; fill-opacity:0.0; 
stroke:#0B00C2; stroke-width:393.701; stroke-opacity:1; 
stroke-linecap:round; stroke-linejoin:round;">
</g>
<g style="fill:#0B00C2; fill-opacity:1.0; 
stroke:#0B00C2; stroke-width:0; stroke-opacity:1; 
stroke-linecap:round; stroke-linejoin:round;">
<circle cx="23129.3" cy="17926.9" r="247.869" /> 
</g>
<g style="fill:#0B00C2; fill-opacity:0.0; 
stroke:#0B00C2; stroke-width:393.701; stroke-opacity:1; 
stroke-linecap:round; stroke-linejoin:round;">
</g>
<g style="fill:#0B00C2; fill-opacity:1.0; 
stroke:#0B00C2; stroke-width:0; stroke-opacity:1; 
stroke-linecap:round; stroke-linejoin:round;">
<circle cx="22541.1" cy="17925.4" r="247.869" /> 
</g>
<g style="fill:#0B00C2; fill-opacity:0.0; 
stroke:#0B00C2; stroke-width:393.701; stroke-opacity:1; 
stroke-linecap:round; stroke-linejoin:round;">
</g>
<g style="fill:#0B00C2; fill-opacity:1.0; 
stroke:#0B00C2; stroke-width:0; stroke-opacity:1; 
stroke-linecap:round; stroke-linejoin:round;">
<circle cx="22208.9" cy="17925.5" r="247.869" /> 
</g>
<g style="fill:#0B00C2; fill-opacity:0.0; 
stroke:#0B00C2; stroke-width:393.701; stroke-opacity:1; 
stroke-linecap:round; stroke-linejoin:round;">
</g>
<g style="fill:#0B00C2; fill-opacity:1.0; 
stroke:#0B00C2; stroke-width:0; stroke-opacity:1; 
stroke-linecap:round; stroke-linejoin:round;">
<circle cx="21636.4" cy="17922.8" r="247.869" /> 
</g>
<g style="fill:#0B00C2; fill-opacity:0.0; 
stroke:#0B00C2; stroke-width:393.701; stroke-opacity:1; 
stroke-linecap:round; stroke-linejoin:round;">
</g>
<g style="fill:#0B00C2; fill-opacity:1.0; 
stroke:#0B00C2; stroke-width:0; stroke-opacity:1; 
stroke-linecap:round; stroke-linejoin:round;">
<circle cx="21135.1" cy="17922.7" r="247.869" /> 
</g>
<g style="fill:#0B00C2; fill-opacity:0.0; 
stroke:#0B00C2; stroke-width:393.701; stroke-opacity:1; 
stroke-linecap:round; stroke-linejoin:round;">
</g>
<g style="fill:#0B00C2; fill-opacity:1.0; 
stroke:#0B00C2; stroke-width:0; stroke-opacity:1; 
stroke-linecap:round; stroke-linejoin:round;">
<circle cx="12849.3" cy="18156" r="247.869" /> 
</g>
<g style="fill:#0B00C2; fill-opacity:0.0; 
stroke:#0B00C2; stroke-width:393.701; stroke-opacity:1; 
stroke-linecap:round; stroke-linejoin:round;">
</g>
<g style="fill:#0B00C2; fill-opacity:1.0; 
stroke:#0B00C2; stroke-width:0; stroke-opacity:1; 
stroke-linecap:round; stroke-linejoin:round;">
<circle cx="13906.5" cy="18656.9" r="247.869" /> 
</g>
<g style="fill:#0B00C2; fill-opacity:0.0; 
stroke:#0B00C2; stroke-width:393.701; stroke-opacity:1; 
stroke-linecap:round; stroke-linejoin:round;">
</g>
<g style="fill:#0B00C2; fill-opacity:1.0; 
stroke:#0B00C2; stroke-width:0; stroke-opacity:1; 
stroke-linecap:round; stroke-linejoin:round;">
<circle cx="13868.1" cy="19183.3" r="247.869" /> 
</g>
<g style="fill:#0B00C2; fill-opacity:0.0; 
stroke:#0B00C2; stroke-width:393.701; stroke-opacity:1; 
stroke-linecap:round; stroke-linejoin:round;">
</g>
<g style="fill:#0B00C2; fill-opacity:1.0; 
stroke:#0B00C2; stroke-width:0; stroke-opacity:1; 
stroke-linecap:round; stroke-linejoin:round;">
<circle cx="13638.9" cy="19401.8" r="247.869" /> 
</g>
<g style="fill:#0B00C2; fill-opacity:0.0; 
stroke:#0B00C2; stroke-width:393.701; stroke-opacity:1; 
stroke-linecap:round; stroke-linejoin:round;">
</g>
<g style="fill:#0B00C2; fill-opacity:1.0; 
stroke:#0B00C2; stroke-width:0; stroke-opacity:1; 
stroke-linecap:round; stroke-linejoin:round;">
<circle cx="14390.1" cy="17966.4" r="247.869" /> 
</g>
<g style="fill:#0B00C2; fill-opacity:0.0; 
stroke:#0B00C2; stroke-width:393.701; stroke-opacity:1; 
stroke-linecap:round; stroke-linejoin:round;">
</g>
<g style="fill:#0B00C2; fill-opacity:1.0; 
stroke:#0B00C2; stroke-width:0; stroke-opacity:1; 
stroke-linecap:round; stroke-linejoin:round;">
<circle cx="16011.6" cy="18320.2" r="247.869" /> 
</g>
<g style="fill:#0B00C2; fill-opacity:0.0; 
stroke:#0B00C2; stroke-width:393.701; stroke-opacity:1; 
stroke-linecap:round; stroke-linejoin:round;">
</g>
<g style="fill:#0B00C2; fill-opacity:1.0; 
stroke:#0B00C2; stroke-width:0; stroke-opacity:1; 
stroke-linecap:round; stroke-linejoin:round;">
<circle cx="17397.9" cy="18821.9" r="247.869" /> 
</g>
<g style="fill:#0B00C2; fill-opacity:0.0; 
stroke:#0B00C2; stroke-width:393.701; stroke-opacity:1; 
stroke-linecap:round; stroke-linejoin:round;">
</g>
<g style="fill:#0B00C2; fill-opacity:1.0; 
stroke:#0B00C2; stroke-width:0; stroke-opacity:1; 
stroke-linecap:round; stroke-linejoin:round;">
<circle cx="15854" cy="19952.8" r="247.869" /> 
</g>
<g style="fill:#0B00C2; fill-opacity:0.0; 
stroke:#0B00C2; stroke-width:393.701; stroke-opacity:1; 
stroke-linecap:round; stroke-linejoin:round;">
</g>
<g style="fill:#0B00C2; fill-opacity:1.0; 
stroke:#0B00C2; stroke-width:0; stroke-opacity:1; 
stroke-linecap:round; stroke-linejoin:round;">
<circle cx="16966" cy="19873" r="247.869" /> 
</g>
<g style="fill:#0B00C2; fill-opacity:0.0; 
stroke:#0B00C2; stroke-width:393.701; stroke-opacity:1; 
stroke-linecap:round; stroke-linejoin:round;">
</g>
<g style="fill:#0B00C2; fill-opacity:1.0; 
stroke:#0B00C2; stroke-width:0; stroke-opacity:1; 
stroke-linecap:round; stroke-linejoin:round;">
<circle cx="15631.5" cy="20634.3" r="247.869" /> 
</g>
<g style="fill:#0B00C2; fill-opacity:0.0; 
stroke:#0B00C2; stroke-width:393.701; stroke-opacity:1; 
stroke-linecap:round; stroke-linejoin:round;">
</g>
<g style="fill:#0B00C2; fill-opacity:1.0; 
stroke:#0B00C2; stroke-width:0; stroke-opacity:1; 
stroke-linecap:round; stroke-linejoin:round;">
<circle cx="16073.3" cy="20843.3" r="247.869" /> 
</g>
<g style="fill:#0B00C2; fill-opacity:0.0; 
stroke:#0B00C2; stroke-width:393.701; stroke-opacity:1; 
stroke-linecap:round; stroke-linejoin:round;">
</g>
<g style="fill:#0B00C2; fill-opacity:1.0; 
stroke:#0B00C2; stroke-width:0; stroke-opacity:1; 
stroke-linecap:round; stroke-linejoin:round;">
<circle cx="14789.7" cy="20867.2" r="247.869" /> 
</g>
<g style="fill:#0B00C2; fill-opacity:0.0; 
stroke:#0B00C2; stroke-width:393.701; stroke-opacity:1; 
stroke-linecap:round; stroke-linejoin:round;">
</g>
<g style="fill:#0B00C2; fill-opacity:1.0; 
stroke:#0B00C2; stroke-width:0; stroke-opacity:1; 
stroke-linecap:round; stroke-linejoin:round;">
<circle cx="12690.1" cy="20790.4" r="247.869" /> 
</g>
<g style="fill:#0B00C2; fill-opacity:0.0; 
stroke:#0B00C2; stroke-width:393.701; stroke-opacity:1; 
stroke-linecap:round; stroke-linejoin:round;">
</g>
<g style="fill:#0B00C2; fill-opacity:1.0; 
stroke:#0B00C2; stroke-width:0; stroke-opacity:1; 
stroke-linecap:round; stroke-linejoin:round;">
<circle cx="10084.3" cy="18180.3" r="247.869" /> 
</g>
<g style="fill:#0B00C2; fill-opacity:0.0; 
stroke:#0B00C2; stroke-width:393.701; stroke-opacity:1; 
stroke-linecap:round; stroke-linejoin:round;">
</g>
<g style="fill:#0B00C2; fill-opacity:1.0; 
stroke:#0B00C2; stroke-width:0; stroke-opacity:1; 
stroke-linecap:round; stroke-linejoin:round;">
<circle cx="10509.1" cy="9603.58" r="247.869" /> 
</g>
<g style="fill:#0B00C2; fill-opacity:0.0; 
stroke:#0B00C2; stroke-width:393.701; stroke-opacity:1; 
stroke-linecap:round; stroke-linejoin:round;">
</g>
<g style="fill:#0B00C2; fill-opacity:1.0; 
stroke:#0B00C2; stroke-width:0; stroke-opacity:1; 
stroke-linecap:round; stroke-linejoin:round;">
<circle cx="11385" cy="8635.58" r="247.869" /> 
</g>
<g style="fill:#0B00C2; fill-opacity:0.0; 
stroke:#0B00C2; stroke-width:393.701; stroke-opacity:1; 
stroke-linecap:round; stroke-linejoin:round;">
</g>
<g style="fill:#0B00C2; fill-opacity:1.0; 
stroke:#0B00C2; stroke-width:0; stroke-opacity:1; 
stroke-linecap:round; stroke-linejoin:round;">
<circle cx="12261.1" cy="8473.66" r="247.869" /> 
</g>
<g style="fill:#0B00C2; fill-opacity:0.0; 
stroke:#0B00C2; stroke-width:393.701; stroke-opacity:1; 
stroke-linecap:round; stroke-linejoin:round;">
</g>
<g style="fill:#0B00C2; fill-opacity:1.0; 
stroke:#0B00C2; stroke-width:0; stroke-opacity:1; 
stroke-linecap:round; stroke-linejoin:round;">
<circle cx="16480.2" cy="8769.55" r="247.869" /> 
</g>
<g style="fill:#0B00C2; fill-opacity:0.0; 
stroke:#0B00C2; stroke-width:393.701; stroke-opacity:1; 
stroke-linecap:round; stroke-linejoin:round;">
</g>
<g style="fill:#0B00C2; fill-opacity:1.0; 
stroke:#0B00C2; stroke-width:0; stroke-opacity:1; 
stroke-linecap:round; stroke-linejoin:round;">
<circle cx="14672" cy="9018.08" r="247.869" /> 
</g>
<g style="fill:#0B00C2; fill-opacity:0.0; 
stroke:#0B00C2; stroke-width:393.701; stroke-opacity:1; 
stroke-linecap:round; stroke-linejoin:round;">
</g>
<g style="fill:#0B00C2; fill-opacity:1.0; 
stroke:#0B00C2; stroke-width:0; stroke-opacity:1; 
stroke-linecap:round; stroke-linejoin:round;">
<circle cx="18851.8" cy="11085.7" r="247.869" /> 
</g>
<g style="fill:#0B00C2; fill-opacity:0.0; 
stroke:#0B00C2; stroke-width:393.701; stroke-opacity:1; 
stroke-linecap:round; stroke-linejoin:round;">
</g>
<g style="fill:#0B00C2; fill-opacity:1.0; 
stroke:#0B00C2; stroke-width:0; stroke-opacity:1; 
stroke-linecap:round; stroke-linejoin:round;">
<circle cx="19146.9" cy="10658.7" r="247.869" /> 
</g>
<g style="fill:#0B00C2; fill-opacity:0.0; 
stroke:#0B00C2; stroke-width:393.701; stroke-opacity:1; 
stroke-linecap:round; stroke-linejoin:round;">
</g>
<g style="fill:#0B00C2; fill-opacity:1.0; 
stroke:#0B00C2; stroke-width:0; stroke-opacity:1; 
stroke-linecap:round; stroke-linejoin:round;">
<circle cx="22633.1" cy="9516.61" r="247.869" /> 
</g>
<g style="fill:#0B00C2; fill-opacity:0.0; 
stroke:#0B00C2; stroke-width:393.701; stroke-opacity:1; 
stroke-linecap:round; stroke-linejoin:round;">
</g>
<g style="fill:#0B00C2; fill-opacity:1.0; 
stroke:#0B00C2; stroke-width:0; stroke-opacity:1; 
stroke-linecap:round; stroke-linejoin:round;">
<circle cx="23568.3" cy="8583.53" r="247.869" /> 
</g>
<g style="fill:#0B00C2; fill-opacity:0.0; 
stroke:#0B00C2; stroke-width:393.701; stroke-opacity:1; 
stroke-linecap:round; stroke-linejoin:round;">
</g>
<g style="fill:#0B00C2; fill-opacity:1.0; 
stroke:#0B00C2; stroke-width:0; stroke-opacity:1; 
stroke-linecap:round; stroke-linejoin:round;">
<circle cx="24371.7" cy="8687.78" r="247.869" /> 
</g>
<g style="fill:#0B00C2; fill-opacity:0.0; 
stroke:#0B00C2; stroke-width:393.701; stroke-opacity:1; 
stroke-linecap:round; stroke-linejoin:round;">
</g>
<g style="fill:#0B00C2; fill-opacity:1.0; 
stroke:#0B00C2; stroke-width:0; stroke-opacity:1; 
stroke-linecap:round; stroke-linejoin:round;">
<circle cx="23687.6" cy="9545.14" r="247.869" /> 
</g>
<g style="fill:#0B00C2; fill-opacity:0.0; 
stroke:#0B00C2; stroke-width:393.701; stroke-opacity:1; 
stroke-linecap:round; stroke-linejoin:round;">
</g>
<g style="fill:#0B00C2; fill-opacity:1.0; 
stroke:#0B00C2; stroke-width:0; stroke-opacity:1; 
stroke-linecap:round; stroke-linejoin:round;">
<circle cx="27084.9" cy="9398.87" r="247.869" /> 
</g>
<g style="fill:#0B00C2; fill-opacity:0.0; 
stroke:#0B00C2; stroke-width:393.701; stroke-opacity:1; 
stroke-linecap:round; stroke-linejoin:round;">
</g>
<g style="fill:#0B00C2; fill-opacity:1.0; 
stroke:#0B00C2; stroke-width:0; stroke-opacity:1; 
stroke-linecap:round; stroke-linejoin:round;">
<circle cx="25804.4" cy="9162.64" r="247.869" /> 
</g>
<g style="fill:#0B00C2; fill-opacity:0.0; 
stroke:#0B00C2; stroke-width:393.701; stroke-opacity:1; 
stroke-linecap:round; stroke-linejoin:round;">
</g>
<g style="fill:#0B00C2; fill-opacity:1.0; 
stroke:#0B00C2; stroke-width:0; stroke-opacity:1; 
stroke-linecap:round; stroke-linejoin:round;">
<circle cx="29854.9" cy="9531.07" r="247.869" /> 
</g>
<g style="fill:#0B00C2; fill-opacity:0.0; 
stroke:#0B00C2; stroke-width:393.701; stroke-opacity:1; 
stroke-linecap:round; stroke-linejoin:round;">
</g>
<g style="fill:#0B00C2; fill-opacity:1.0; 
stroke:#0B00C2; stroke-width:0; stroke-opacity:1; 
stroke-linecap:round; stroke-linejoin:round;">
<circle cx="29809.6" cy="8877.29" r="247.869" /> 
</g>
<g style="fill:#0B00C2; fill-opacity:1.0; 
stroke:#0B00C2; stroke-width:0.393701; stroke-opacity:1; 
stroke-linecap:round; stroke-linejoin:round;">
<path style="fill:#0B00C2; fill-opacity:1.0; 
stroke:#0B00C2; stroke-width:0.393701; stroke-opacity:1; 
stroke-linecap:round; stroke-linejoin:round;fill-rule:evenodd;"
d="M 12702,17705
12700,17153
12861,17154
12863,17705
Z" /> 
<g >
</g>
<g style="fill:#008400; fill-opacity:1.0; 
stroke:#008400; stroke-width:0.393701; stroke-opacity:1; 
stroke-linecap:round; stroke-linejoin:round;">
</g>
<g style="fill:#008400; fill-opacity:1.0; 
stroke:#008400; stroke-width:0; stroke-opacity:1; 
stroke-linecap:round; stroke-linejoin:round;">
<path style="fill:#008400; fill-opacity:1.0; 
stroke:#008400; stroke-width:0; stroke-opacity:1; 
stroke-linecap:round; stroke-linejoin:round;fill-rule:evenodd;"
d="M 13005,17894
13005,17776
13345,17776
13345,17894
13005,17894
Z" /> 
<path style="fill:#008400; fill-opacity:1.0; 
stroke:#008400; stroke-width:0; stroke-opacity:1; 
stroke-linecap:round; stroke-linejoin:round;fill-rule:evenodd;"
d="M 13020,17698
13020,17579
13360,17579
13360,17698
13020,17698
Z" /> 
<path style="fill:#008400; fill-opacity:1.0; 
stroke:#008400; stroke-width:0; stroke-opacity:1; 
stroke-linecap:round; stroke-linejoin:round;fill-rule:evenodd;"
d="M 13020,17501
13020,17383
13360,17383
13360,17501
13020,17501
Z" /> 
<path style="fill:#008400; fill-opacity:1.0; 
stroke:#008400; stroke-width:0; stroke-opacity:1; 
stroke-linecap:round; stroke-linejoin:round;fill-rule:evenodd;"
d="M 13005,17304
13005,17186
13345,17186
13345,17304
13005,17304
Z" /> 
<path style="fill:#008400; fill-opacity:1.0; 
stroke:#008400; stroke-width:0; stroke-opacity:1; 
stroke-linecap:round; stroke-linejoin:round;fill-rule:evenodd;"
d="M 12215,17304
12215,17186
12555,17186
12555,17304
12215,17304
Z" /> 
<path style="fill:#008400; fill-opacity:1.0; 
stroke:#008400; stroke-width:0; stroke-opacity:1; 
stroke-linecap:round; stroke-linejoin:round;fill-rule:evenodd;"
d="M 12201,17501
12201,17383
12541,17383
12541,17501
12201,17501
Z" /> 
<path style="fill:#008400; fill-opacity:1.0; 
stroke:#008400; stroke-width:0; stroke-opacity:1; 
stroke-linecap:round; stroke-linejoin:round;fill-rule:evenodd;"
d="M 12201,17698
12201,17579
12541,17579
12541,17698
12201,17698
Z" /> 
<path style="fill:#008400; fill-opacity:1.0; 
stroke:#008400; stroke-width:0; stroke-opacity:1; 
stroke-linecap:round; stroke-linejoin:round;fill-rule:evenodd;"
d="M 12215,17894
12215,17776
12555,17776
12555,17894
12215,17894
Z" /> 
</g>
<g >
</g>
<g style="fill:#008400; fill-opacity:1.0; 
stroke:#008400; stroke-width:0; stroke-opacity:1; 
stroke-linecap:round; stroke-linejoin:round;">
<path style="fill:#008400; fill-opacity:1.0; 
stroke:#008400; stroke-width:0; stroke-opacity:1; 
stroke-linecap:round; stroke-linejoin:round;fill-rule:evenodd;"
d="M 13363,14546
13934,14546
13934,14723
13363,14723
13363,14546
Z" /> 
<path style="fill:#008400; fill-opacity:1.0; 
stroke:#008400; stroke-width:0; stroke-opacity:1; 
stroke-linecap:round; stroke-linejoin:round;fill-rule:evenodd;"
d="M 13363,14802
13934,14802
13934,14979
13363,14979
13363,14802
Z" /> 
<path style="fill:#008400; fill-opacity:1.0; 
stroke:#008400; stroke-width:0; stroke-opacity:1; 
stroke-linecap:round; stroke-linejoin:round;fill-rule:evenodd;"
d="M 13363,15058
13934,15058
13934,15235
13363,15235
13363,15058
Z" /> 
<path style="fill:#008400; fill-opacity:1.0; 
stroke:#008400; stroke-width:0; stroke-opacity:1; 
stroke-linecap:round; stroke-linejoin:round;fill-rule:evenodd;"
d="M 13363,15314
13934,15314
13934,15491
13363,15491
13363,15314
Z" /> 
<path style="fill:#008400; fill-opacity:1.0; 
stroke:#008400; stroke-width:0; stroke-opacity:1; 
stroke-linecap:round; stroke-linejoin:round;fill-rule:evenodd;"
d="M 11631,15314
12202,15314
12202,15491
11631,15491
11631,15314
Z" /> 
<path style="fill:#008400; fill-opacity:1.0; 
stroke:#008400; stroke-width:0; stroke-opacity:1; 
stroke-linecap:round; stroke-linejoin:round;fill-rule:evenodd;"
d="M 11631,15058
12202,15058
12202,15235
11631,15235
11631,15058
Z" /> 
<path style="fill:#008400; fill-opacity:1.0; 
stroke:#008400; stroke-width:0; stroke-opacity:1; 
stroke-linecap:round; stroke-linejoin:round;fill-rule:evenodd;"
d="M 11631,14802
12202,14802
12202,14979
11631,14979
11631,14802
Z" /> 
<path style="fill:#008400; fill-opacity:1.0; 
stroke:#008400; stroke-width:0; stroke-opacity:1; 
stroke-linecap:round; stroke-linejoin:round;fill-rule:evenodd;"
d="M 11631,14546
12202,14546
12202,14723
11631,14723
11631,14546
Z" /> 
</g>
<g >
</g>
<g >
</g>
<g >
</g>
<g >
</g>
<g >
</g>
<g >
</g>
<g >
</g>
<g >
</g>
<g >
</g>
<g >
</g>
<g >
</g>
<g >
</g>
<g >
</g>
<g style="fill:#008400; fill-opacity:1.0; 
stroke:#008400; stroke-width:0; stroke-opacity:1; 
stroke-linecap:round; stroke-linejoin:round;">
<path style="fill:#008400; fill-opacity:1.0; 
stroke:#008400; stroke-width:0; stroke-opacity:1; 
stroke-linecap:round; stroke-linejoin:round;fill-rule:evenodd;"
d="M 16857,11995
17427,11995
17427,12172
16857,12172
16857,11995
Z" /> 
<path style="fill:#008400; fill-opacity:1.0; 
stroke:#008400; stroke-width:0; stroke-opacity:1; 
stroke-linecap:round; stroke-linejoin:round;fill-rule:evenodd;"
d="M 16857,12251
17427,12251
17427,12428
16857,12428
16857,12251
Z" /> 
<path style="fill:#008400; fill-opacity:1.0; 
stroke:#008400; stroke-width:0; stroke-opacity:1; 
stroke-linecap:round; stroke-linejoin:round;fill-rule:evenodd;"
d="M 16857,12507
17427,12507
17427,12684
16857,12684
16857,12507
Z" /> 
<path style="fill:#008400; fill-opacity:1.0; 
stroke:#008400; stroke-width:0; stroke-opacity:1; 
stroke-linecap:round; stroke-linejoin:round;fill-rule:evenodd;"
d="M 16857,12763
17427,12763
17427,12940
16857,12940
16857,12763
Z" /> 
<path style="fill:#008400; fill-opacity:1.0; 
stroke:#008400; stroke-width:0; stroke-opacity:1; 
stroke-linecap:round; stroke-linejoin:round;fill-rule:evenodd;"
d="M 15124,12763
15695,12763
15695,12940
15124,12940
15124,12763
Z" /> 
<path style="fill:#008400; fill-opacity:1.0; 
stroke:#008400; stroke-width:0; stroke-opacity:1; 
stroke-linecap:round; stroke-linejoin:round;fill-rule:evenodd;"
d="M 15124,12507
15695,12507
15695,12684
15124,12684
15124,12507
Z" /> 
<path style="fill:#008400; fill-opacity:1.0; 
stroke:#008400; stroke-width:0; stroke-opacity:1; 
stroke-linecap:round; stroke-linejoin:round;fill-rule:evenodd;"
d="M 15124,12251
15695,12251
15695,12428
15124,12428
15124,12251
Z" /> 
<path style="fill:#008400; fill-opacity:1.0; 
stroke:#008400; stroke-width:0; stroke-opacity:1; 
stroke-linecap:round; stroke-linejoin:round;fill-rule:evenodd;"
d="M 15124,11995
15695,11995
15695,12172
15124,12172
15124,11995
Z" /> 
</g>
<g >
</g>
<g >
</g>
<g >
</g>
<g >
</g>
<g >
</g>
<g >
</g>
<g style="fill:#008400; fill-opacity:1.0; 
stroke:#008400; stroke-width:0; stroke-opacity:1; 
stroke-linecap:round; stroke-linejoin:round;">
<path style="fill:#008400; fill-opacity:1.0; 
stroke:#008400; stroke-width:0; stroke-opacity:1; 
stroke-linecap:round; stroke-linejoin:round;fill-rule:evenodd;"
d="M 17196,11184
17205,11186
17214,11188
17223,11191
17231,11195
17239,11200
17246,11205
17253,11211
17259,11218
17264,11225
17269,11233
17273,11242
17276,11250
17278,11259
17280,11268
17280,11277
17280,11464
17280,11473
17278,11483
17276,11491
17273,11500
17269,11508
17264,11516
17259,11524
17253,11530
17246,11537
17239,11542
17231,11547
17223,11551
17214,11554
17205,11556
17196,11557
17187,11558
16960,11558
16951,11557
16942,11556
16933,11554
16925,11551
16916,11547
16908,11542
16901,11537
16894,11530
16888,11524
16883,11516
16878,11508
16874,11500
16871,11491
16869,11483
16867,11473
16867,11464
16867,11277
16867,11268
16869,11259
16871,11250
16874,11242
16878,11233
16883,11225
16888,11218
16894,11211
16901,11205
16908,11200
16916,11195
16925,11191
16933,11188
16942,11186
16951,11184
16960,11184
17187,11184
17196,11184
Z" /> 
<path style="fill:#008400; fill-opacity:1.0; 
stroke:#008400; stroke-width:0; stroke-opacity:1; 
stroke-linecap:round; stroke-linejoin:round;fill-rule:evenodd;"
d="M 16507,11184
16516,11186
16525,11188
16534,11191
16542,11195
16550,11200
16557,11205
16564,11211
16570,11218
16576,11225
16580,11233
16584,11242
16587,11250
16589,11259
16591,11268
16591,11277
16591,11464
16591,11473
16589,11483
16587,11491
16584,11500
16580,11508
16576,11516
16570,11524
16564,11530
16557,11537
16550,11542
16542,11547
16534,11551
16525,11554
16516,11556
16507,11557
16498,11558
16271,11558
16262,11557
16253,11556
16244,11554
16236,11551
16227,11547
16219,11542
16212,11537
16205,11530
16199,11524
16194,11516
16189,11508
16185,11500
16182,11491
16180,11483
16178,11473
16178,11464
16178,11277
16178,11268
16180,11259
16182,11250
16185,11242
16189,11233
16194,11225
16199,11218
16205,11211
16212,11205
16219,11200
16227,11195
16236,11191
16244,11188
16253,11186
16262,11184
16271,11184
16498,11184
16507,11184
Z" /> 
</g>
<g >
</g>
<g style="fill:#008400; fill-opacity:1.0; 
stroke:#008400; stroke-width:0; stroke-opacity:1; 
stroke-linecap:round; stroke-linejoin:round;">
<path style="fill:#008400; fill-opacity:1.0; 
stroke:#008400; stroke-width:0; stroke-opacity:1; 
stroke-linecap:round; stroke-linejoin:round;fill-rule:evenodd;"
d="M 16601,13302
16610,13304
16619,13306
16628,13309
16636,13313
16644,13318
16652,13323
16658,13329
16665,13336
16670,13343
16675,13351
16679,13360
16682,13368
16684,13377
16685,13386
16686,13395
16686,13582
16685,13592
16684,13601
16682,13610
16679,13618
16675,13626
16670,13634
16665,13642
16658,13649
16652,13655
16644,13660
16636,13665
16628,13669
16619,13672
16610,13674
16601,13675
16592,13676
16366,13676
16357,13675
16348,13674
16339,13672
16330,13669
16322,13665
16314,13660
16307,13655
16300,13649
16294,13642
16288,13634
16283,13626
16279,13618
16276,13610
16274,13601
16273,13592
16272,13582
16272,13395
16273,13386
16274,13377
16276,13368
16279,13360
16283,13351
16288,13343
16294,13336
16300,13329
16307,13323
16314,13318
16322,13313
16330,13309
16339,13306
16348,13304
16357,13302
16366,13302
16592,13302
16601,13302
Z" /> 
<path style="fill:#008400; fill-opacity:1.0; 
stroke:#008400; stroke-width:0; stroke-opacity:1; 
stroke-linecap:round; stroke-linejoin:round;fill-rule:evenodd;"
d="M 17290,13302
17299,13304
17308,13306
17317,13309
17325,13313
17333,13318
17341,13323
17347,13329
17354,13336
17359,13343
17364,13351
17368,13360
17371,13368
17373,13377
17374,13386
17375,13395
17375,13582
17374,13592
17373,13601
17371,13610
17368,13618
17364,13626
17359,13634
17354,13642
17347,13649
17341,13655
17333,13660
17325,13665
17317,13669
17308,13672
17299,13674
17290,13675
17281,13676
17055,13676
17046,13675
17037,13674
17028,13672
17019,13669
17011,13665
17003,13660
16996,13655
16989,13649
16983,13642
16977,13634
16972,13626
16968,13618
16965,13610
16963,13601
16962,13592
16961,13582
16961,13395
16962,13386
16963,13377
16965,13368
16968,13360
16972,13351
16977,13343
16983,13336
16989,13329
16996,13323
17003,13318
17011,13313
17019,13309
17028,13306
17037,13304
17046,13302
17055,13302
17281,13302
17290,13302
Z" /> 
</g>
<g >
</g>
<g style="fill:#008400; fill-opacity:1.0; 
stroke:#008400; stroke-width:0; stroke-opacity:1; 
stroke-linecap:round; stroke-linejoin:round;">
</g>
<g style="fill:#008400; fill-opacity:1.0; 
stroke:#008400; stroke-width:590.551; stroke-opacity:1; 
stroke-linecap:round; stroke-linejoin:round;">
</g>
<g style="fill:#008400; fill-opacity:0.0; 
stroke:#008400; stroke-width:590.551; stroke-opacity:1; 
stroke-linecap:round; stroke-linejoin:round;">
<path d="M29639 14879
L28654 14879
" />
</g>
<g style="fill:#008400; fill-opacity:0.0; 
stroke:#008400; stroke-width:0; stroke-opacity:1; 
stroke-linecap:round; stroke-linejoin:round;">
</g>
<g style="fill:#008400; fill-opacity:1.0; 
stroke:#008400; stroke-width:0; stroke-opacity:1; 
stroke-linecap:round; stroke-linejoin:round;">
<path style="fill:#008400; fill-opacity:1.0; 
stroke:#008400; stroke-width:0; stroke-opacity:1; 
stroke-linecap:round; stroke-linejoin:round;fill-rule:evenodd;"
d="M 27851,16174
26473,16174
26473,15583
27851,15583
27851,16174
Z" /> 
</g>
<g style="fill:#008400; fill-opacity:1.0; 
stroke:#008400; stroke-width:590.551; stroke-opacity:1; 
stroke-linecap:round; stroke-linejoin:round;">
</g>
<g style="fill:#008400; fill-opacity:0.0; 
stroke:#008400; stroke-width:590.551; stroke-opacity:1; 
stroke-linecap:round; stroke-linejoin:round;">
<path d="M26631 13879
L27615 13879
" />
</g>
<g >
</g>
<g style="fill:#008400; fill-opacity:0.0; 
stroke:#008400; stroke-width:590.551; stroke-opacity:1; 
stroke-linecap:round; stroke-linejoin:round;">
<path d="M10379 12509
L11363 12509
" />
</g>
<g style="fill:#008400; fill-opacity:0.0; 
stroke:#008400; stroke-width:0; stroke-opacity:1; 
stroke-linecap:round; stroke-linejoin:round;">
</g>
<g style="fill:#008400; fill-opacity:1.0; 
stroke:#008400; stroke-width:0; stroke-opacity:1; 
stroke-linecap:round; stroke-linejoin:round;">
<path style="fill:#008400; fill-opacity:1.0; 
stroke:#008400; stroke-width:0; stroke-opacity:1; 
stroke-linecap:round; stroke-linejoin:round;fill-rule:evenodd;"
d="M 12166,11213
13544,11213
13544,11804
12166,11804
12166,11213
Z" /> 
</g>
<g style="fill:#008400; fill-opacity:1.0; 
stroke:#008400; stroke-width:590.551; stroke-opacity:1; 
stroke-linecap:round; stroke-linejoin:round;">
</g>
<g style="fill:#008400; fill-opacity:0.0; 
stroke:#008400; stroke-width:590.551; stroke-opacity:1; 
stroke-linecap:round; stroke-linejoin:round;">
<path d="M13387 13509
L12402 13509
" />
</g>
<g >
</g>
<g >
</g>
<g >
</g>
<g >
</g>
<g >
</g>
<g >
</g>
<g >
</g>
<g >
</g>
<g >
</g>
<g >
</g>
<g >
</g>
<g >
</g>
<g >
</g>
<g >
</g>
<g >
</g>
<g >
</g>
<g >
</g>
<g >
</g>
<g >
</g>
<g >
</g>
<g >
</g>
<g >
</g>
<g >
</g>
<g >
</g>
<g >
</g>
<g >
</g>
<g >
</g>
<g >
</g>
<g >
</g>
<g >
</g>
<g >
</g>
<g style="fill:#008400; fill-opacity:0.0; 
stroke:#008400; stroke-width:590.551; stroke-opacity:1; 
stroke-linecap:round; stroke-linejoin:round;">
</g>
<g style="fill:#008400; fill-opacity:0.0; 
stroke:#008400; stroke-width:0; stroke-opacity:1; 
stroke-linecap:round; stroke-linejoin:round;">
</g>
<g style="fill:#008400; fill-opacity:1.0; 
stroke:#008400; stroke-width:0; stroke-opacity:1; 
stroke-linecap:round; stroke-linejoin:round;">
<path style="fill:#008400; fill-opacity:1.0; 
stroke:#008400; stroke-width:0; stroke-opacity:1; 
stroke-linecap:round; stroke-linejoin:round;fill-rule:evenodd;"
d="M 15928,6909
15937,6910
15946,6912
15955,6915
15963,6919
15971,6924
15978,6929
15985,6936
15991,6942
15997,6950
16001,6958
16005,6966
16009,6975
16011,6983
16012,6993
16013,7002
16013,7189
16012,7198
16011,7207
16009,7216
16005,7224
16001,7233
15997,7241
15991,7248
15985,7255
15978,7261
15971,7266
15963,7271
15955,7275
15946,7278
15937,7280
15928,7282
15919,7282
15693,7282
15683,7282
15674,7280
15666,7278
15657,7275
15649,7271
15641,7266
15633,7261
15627,7255
15620,7248
15615,7241
15610,7233
15606,7224
15603,7216
15601,7207
15600,7198
15599,7189
15599,7002
15600,6993
15601,6983
15603,6975
15606,6966
15610,6958
15615,6950
15620,6942
15627,6936
15633,6929
15641,6924
15649,6919
15657,6915
15666,6912
15674,6910
15683,6909
15693,6908
15919,6908
15928,6909
Z" /> 
<path style="fill:#008400; fill-opacity:1.0; 
stroke:#008400; stroke-width:0; stroke-opacity:1; 
stroke-linecap:round; stroke-linejoin:round;fill-rule:evenodd;"
d="M 16617,6909
16626,6910
16635,6912
16644,6915
16652,6919
16660,6924
16667,6929
16674,6936
16680,6942
16686,6950
16690,6958
16694,6966
16697,6975
16700,6983
16701,6993
16702,7002
16702,7189
16701,7198
16700,7207
16697,7216
16694,7224
16690,7233
16686,7241
16680,7248
16674,7255
16667,7261
16660,7266
16652,7271
16644,7275
16635,7278
16626,7280
16617,7282
16608,7282
16382,7282
16372,7282
16363,7280
16354,7278
16346,7275
16338,7271
16330,7266
16322,7261
16316,7255
16309,7248
16304,7241
16299,7233
16295,7224
16292,7216
16290,7207
16289,7198
16288,7189
16288,7002
16289,6993
16290,6983
16292,6975
16295,6966
16299,6958
16304,6950
16309,6942
16316,6936
16322,6929
16330,6924
16338,6919
16346,6915
16354,6912
16363,6910
16372,6909
16382,6908
16608,6908
16617,6909
Z" /> 
</g>
<g >
</g>
<g style="fill:#008400; fill-opacity:1.0; 
stroke:#008400; stroke-width:0; stroke-opacity:1; 
stroke-linecap:round; stroke-linejoin:round;">
<path style="fill:#008400; fill-opacity:1.0; 
stroke:#008400; stroke-width:0; stroke-opacity:1; 
stroke-linecap:round; stroke-linejoin:round;fill-rule:evenodd;"
d="M 21544,11800
21426,11800
21426,11249
21544,11249
21544,11800
Z" /> 
<path style="fill:#008400; fill-opacity:1.0; 
stroke:#008400; stroke-width:0; stroke-opacity:1; 
stroke-linecap:round; stroke-linejoin:round;fill-rule:evenodd;"
d="M 21347,11800
21229,11800
21229,11249
21347,11249
21347,11800
Z" /> 
<path style="fill:#008400; fill-opacity:1.0; 
stroke:#008400; stroke-width:0; stroke-opacity:1; 
stroke-linecap:round; stroke-linejoin:round;fill-rule:evenodd;"
d="M 21150,11800
21032,11800
21032,11249
21150,11249
21150,11800
Z" /> 
<path style="fill:#008400; fill-opacity:1.0; 
stroke:#008400; stroke-width:0; stroke-opacity:1; 
stroke-linecap:round; stroke-linejoin:round;fill-rule:evenodd;"
d="M 20953,11800
20835,11800
20835,11249
20953,11249
20953,11800
Z" /> 
<path style="fill:#008400; fill-opacity:1.0; 
stroke:#008400; stroke-width:0; stroke-opacity:1; 
stroke-linecap:round; stroke-linejoin:round;fill-rule:evenodd;"
d="M 20757,11800
20639,11800
20639,11249
20757,11249
20757,11800
Z" /> 
<path style="fill:#008400; fill-opacity:1.0; 
stroke:#008400; stroke-width:0; stroke-opacity:1; 
stroke-linecap:round; stroke-linejoin:round;fill-rule:evenodd;"
d="M 20757,13532
20639,13532
20639,12981
20757,12981
20757,13532
Z" /> 
<path style="fill:#008400; fill-opacity:1.0; 
stroke:#008400; stroke-width:0; stroke-opacity:1; 
stroke-linecap:round; stroke-linejoin:round;fill-rule:evenodd;"
d="M 20953,13532
20835,13532
20835,12981
20953,12981
20953,13532
Z" /> 
<path style="fill:#008400; fill-opacity:1.0; 
stroke:#008400; stroke-width:0; stroke-opacity:1; 
stroke-linecap:round; stroke-linejoin:round;fill-rule:evenodd;"
d="M 21150,13532
21032,13532
21032,12981
21150,12981
21150,13532
Z" /> 
<path style="fill:#008400; fill-opacity:1.0; 
stroke:#008400; stroke-width:0; stroke-opacity:1; 
stroke-linecap:round; stroke-linejoin:round;fill-rule:evenodd;"
d="M 21347,13532
21229,13532
21229,12981
21347,12981
21347,13532
Z" /> 
<path style="fill:#008400; fill-opacity:1.0; 
stroke:#008400; stroke-width:0; stroke-opacity:1; 
stroke-linecap:round; stroke-linejoin:round;fill-rule:evenodd;"
d="M 21544,13532
21426,13532
21426,12981
21544,12981
21544,13532
Z" /> 
</g>
<g >
</g>
<g style="fill:#008400; fill-opacity:1.0; 
stroke:#008400; stroke-width:0; stroke-opacity:1; 
stroke-linecap:round; stroke-linejoin:round;">
<path style="fill:#008400; fill-opacity:1.0; 
stroke:#008400; stroke-width:0; stroke-opacity:1; 
stroke-linecap:round; stroke-linejoin:round;fill-rule:evenodd;"
d="M 15967,14273
15977,14274
15986,14277
15995,14280
16004,14284
16012,14289
16020,14295
16027,14301
16033,14308
16039,14316
16044,14324
16048,14333
16052,14342
16054,14352
16055,14361
16056,14371
16056,14627
16055,14636
16054,14646
16052,14655
16048,14664
16044,14673
16039,14681
16033,14689
16027,14696
16020,14703
16012,14709
16004,14714
15995,14718
15986,14721
15977,14723
15967,14725
15957,14725
15603,14725
15593,14725
15584,14723
15575,14721
15565,14718
15557,14714
15548,14709
15541,14703
15533,14696
15527,14689
15521,14681
15516,14673
15512,14664
15509,14655
15507,14646
15505,14636
15505,14627
15505,14371
15505,14361
15507,14352
15509,14342
15512,14333
15516,14324
15521,14316
15527,14308
15533,14301
15541,14295
15548,14289
15557,14284
15565,14280
15575,14277
15584,14274
15593,14273
15603,14272
15957,14272
15967,14273
Z" /> 
<path style="fill:#008400; fill-opacity:1.0; 
stroke:#008400; stroke-width:0; stroke-opacity:1; 
stroke-linecap:round; stroke-linejoin:round;fill-rule:evenodd;"
d="M 15967,13466
15977,13467
15986,13470
15995,13473
16004,13477
16012,13482
16020,13488
16027,13494
16033,13501
16039,13509
16044,13517
16048,13526
16052,13535
16054,13545
16055,13554
16056,13564
16056,13820
16055,13829
16054,13839
16052,13848
16048,13857
16044,13866
16039,13874
16033,13882
16027,13889
16020,13896
16012,13901
16004,13906
15995,13911
15986,13914
15977,13916
15967,13918
15957,13918
15603,13918
15593,13918
15584,13916
15575,13914
15565,13911
15557,13906
15548,13901
15541,13896
15533,13889
15527,13882
15521,13874
15516,13866
15512,13857
15509,13848
15507,13839
15505,13829
15505,13820
15505,13564
15505,13554
15507,13545
15509,13535
15512,13526
15516,13517
15521,13509
15527,13501
15533,13494
15541,13488
15548,13482
15557,13477
15565,13473
15575,13470
15584,13467
15593,13466
15603,13465
15957,13465
15967,13466
Z" /> 
</g>
<g >
</g>
<g >
</g>
<g style="fill:#008400; fill-opacity:1.0; 
stroke:#008400; stroke-width:0; stroke-opacity:1; 
stroke-linecap:round; stroke-linejoin:round;">
<path style="fill:#008400; fill-opacity:1.0; 
stroke:#008400; stroke-width:0; stroke-opacity:1; 
stroke-linecap:round; stroke-linejoin:round;fill-rule:evenodd;"
d="M 16783,17871
16792,17872
16800,17875
16808,17877
16815,17881
16823,17885
16829,17890
16836,17896
16841,17902
16846,17909
16851,17916
16854,17924
16857,17932
16859,17940
16861,17948
16861,17957
16861,18129
16861,18138
16859,18146
16857,18154
16854,18162
16851,18170
16846,18177
16841,18184
16836,18190
16829,18196
16823,18201
16815,18205
16808,18209
16800,18212
16792,18214
16783,18215
16775,18215
16573,18215
16565,18215
16556,18214
16548,18212
16540,18209
16532,18205
16525,18201
16518,18196
16512,18190
16506,18184
16501,18177
16497,18170
16493,18162
16491,18154
16489,18146
16487,18138
16487,18129
16487,17957
16487,17948
16489,17940
16491,17932
16493,17924
16497,17916
16501,17909
16506,17902
16512,17896
16518,17890
16525,17885
16532,17881
16540,17877
16548,17875
16556,17872
16565,17871
16573,17871
16775,17871
16783,17871
Z" /> 
<path style="fill:#008400; fill-opacity:1.0; 
stroke:#008400; stroke-width:0; stroke-opacity:1; 
stroke-linecap:round; stroke-linejoin:round;fill-rule:evenodd;"
d="M 16783,17251
16792,17252
16800,17254
16808,17257
16815,17261
16823,17265
16829,17270
16836,17276
16841,17282
16846,17289
16851,17296
16854,17304
16857,17312
16859,17320
16861,17328
16861,17337
16861,17509
16861,17518
16859,17526
16857,17534
16854,17542
16851,17550
16846,17557
16841,17564
16836,17570
16829,17576
16823,17581
16815,17585
16808,17589
16800,17591
16792,17594
16783,17595
16775,17595
16573,17595
16565,17595
16556,17594
16548,17591
16540,17589
16532,17585
16525,17581
16518,17576
16512,17570
16506,17564
16501,17557
16497,17550
16493,17542
16491,17534
16489,17526
16487,17518
16487,17509
16487,17337
16487,17328
16489,17320
16491,17312
16493,17304
16497,17296
16501,17289
16506,17282
16512,17276
16518,17270
16525,17265
16532,17261
16540,17257
16548,17254
16556,17252
16565,17251
16573,17251
16775,17251
16783,17251
Z" /> 
</g>
<g >
</g>
<g >
</g>
<g >
</g>
<g >
</g>
<g >
</g>
<g style="fill:#008400; fill-opacity:1.0; 
stroke:#008400; stroke-width:0; stroke-opacity:1; 
stroke-linecap:round; stroke-linejoin:round;">
<path style="fill:#008400; fill-opacity:1.0; 
stroke:#008400; stroke-width:0; stroke-opacity:1; 
stroke-linecap:round; stroke-linejoin:round;fill-rule:evenodd;"
d="M 24850,16263
24859,16264
24867,16266
24875,16269
24882,16273
24890,16277
24896,16282
24903,16288
24908,16294
24913,16301
24918,16308
24921,16316
24924,16324
24926,16332
24927,16340
24928,16349
24928,16550
24927,16559
24926,16567
24924,16575
24921,16583
24918,16591
24913,16598
24908,16605
24903,16611
24896,16617
24890,16622
24882,16626
24875,16630
24867,16633
24859,16635
24850,16636
24842,16637
24670,16637
24661,16636
24653,16635
24645,16633
24637,16630
24629,16626
24622,16622
24615,16617
24609,16611
24603,16605
24598,16598
24594,16591
24590,16583
24587,16575
24585,16567
24584,16559
24583,16550
24583,16349
24584,16340
24585,16332
24587,16324
24590,16316
24594,16308
24598,16301
24603,16294
24609,16288
24615,16282
24622,16277
24629,16273
24637,16269
24645,16266
24653,16264
24661,16263
24670,16263
24842,16263
24850,16263
Z" /> 
<path style="fill:#008400; fill-opacity:1.0; 
stroke:#008400; stroke-width:0; stroke-opacity:1; 
stroke-linecap:round; stroke-linejoin:round;fill-rule:evenodd;"
d="M 24230,16263
24238,16264
24247,16266
24255,16269
24262,16273
24270,16277
24276,16282
24283,16288
24288,16294
24293,16301
24298,16308
24301,16316
24304,16324
24306,16332
24307,16340
24308,16349
24308,16550
24307,16559
24306,16567
24304,16575
24301,16583
24298,16591
24293,16598
24288,16605
24283,16611
24276,16617
24270,16622
24262,16626
24255,16630
24247,16633
24238,16635
24230,16636
24222,16637
24049,16637
24041,16636
24033,16635
24024,16633
24016,16630
24009,16626
24002,16622
23995,16617
23989,16611
23983,16605
23978,16598
23973,16591
23970,16583
23967,16575
23965,16567
23964,16559
23963,16550
23963,16349
23964,16340
23965,16332
23967,16324
23970,16316
23973,16308
23978,16301
23983,16294
23989,16288
23995,16282
24002,16277
24009,16273
24016,16269
24024,16266
24033,16264
24041,16263
24049,16263
24222,16263
24230,16263
Z" /> 
</g>
<g >
</g>
<g style="fill:#008400; fill-opacity:1.0; 
stroke:#008400; stroke-width:0; stroke-opacity:1; 
stroke-linecap:round; stroke-linejoin:round;">
<path style="fill:#008400; fill-opacity:1.0; 
stroke:#008400; stroke-width:0; stroke-opacity:1; 
stroke-linecap:round; stroke-linejoin:round;fill-rule:evenodd;"
d="M 26789,12976
26798,12977
26806,12979
26814,12982
26821,12985
26829,12990
26835,12995
26842,13000
26847,13007
26852,13013
26857,13021
26860,13028
26863,13036
26865,13044
26866,13053
26867,13061
26867,13263
26866,13271
26865,13280
26863,13288
26860,13296
26857,13304
26852,13311
26847,13318
26842,13324
26835,13330
26829,13335
26821,13339
26814,13343
26806,13345
26798,13347
26789,13349
26781,13349
26608,13349
26600,13349
26592,13347
26583,13345
26576,13343
26568,13339
26561,13335
26554,13330
26548,13324
26542,13318
26537,13311
26533,13304
26529,13296
26526,13288
26524,13280
26523,13271
26522,13263
26522,13061
26523,13053
26524,13044
26526,13036
26529,13028
26533,13021
26537,13013
26542,13007
26548,13000
26554,12995
26561,12990
26568,12985
26576,12982
26583,12979
26592,12977
26600,12976
26608,12975
26781,12975
26789,12976
Z" /> 
<path style="fill:#008400; fill-opacity:1.0; 
stroke:#008400; stroke-width:0; stroke-opacity:1; 
stroke-linecap:round; stroke-linejoin:round;fill-rule:evenodd;"
d="M 27409,12976
27418,12977
27426,12979
27434,12982
27441,12985
27449,12990
27455,12995
27462,13000
27467,13007
27472,13013
27477,13021
27480,13028
27483,13036
27485,13044
27487,13053
27487,13061
27487,13263
27487,13271
27485,13280
27483,13288
27480,13296
27477,13304
27472,13311
27467,13318
27462,13324
27455,13330
27449,13335
27441,13339
27434,13343
27426,13345
27418,13347
27409,13349
27401,13349
27229,13349
27220,13349
27212,13347
27204,13345
27196,13343
27188,13339
27181,13335
27174,13330
27168,13324
27162,13318
27157,13311
27153,13304
27149,13296
27146,13288
27144,13280
27143,13271
27142,13263
27142,13061
27143,13053
27144,13044
27146,13036
27149,13028
27153,13021
27157,13013
27162,13007
27168,13000
27174,12995
27181,12990
27188,12985
27196,12982
27204,12979
27212,12977
27220,12976
27229,12975
27401,12975
27409,12976
Z" /> 
</g>
<g >
</g>
<g style="fill:#008400; fill-opacity:1.0; 
stroke:#008400; stroke-width:0; stroke-opacity:1; 
stroke-linecap:round; stroke-linejoin:round;">
<path style="fill:#008400; fill-opacity:1.0; 
stroke:#008400; stroke-width:0; stroke-opacity:1; 
stroke-linecap:round; stroke-linejoin:round;fill-rule:evenodd;"
d="M 21991,13975
21991,14211
21381,14211
21381,13975
21991,13975
Z" /> 
<path style="fill:#008400; fill-opacity:1.0; 
stroke:#008400; stroke-width:0; stroke-opacity:1; 
stroke-linecap:round; stroke-linejoin:round;fill-rule:evenodd;"
d="M 21991,14475
21991,14711
21381,14711
21381,14475
21991,14475
Z" /> 
<path style="fill:#008400; fill-opacity:1.0; 
stroke:#008400; stroke-width:0; stroke-opacity:1; 
stroke-linecap:round; stroke-linejoin:round;fill-rule:evenodd;"
d="M 21991,14975
21991,15211
21381,15211
21381,14975
21991,14975
Z" /> 
<path style="fill:#008400; fill-opacity:1.0; 
stroke:#008400; stroke-width:0; stroke-opacity:1; 
stroke-linecap:round; stroke-linejoin:round;fill-rule:evenodd;"
d="M 21991,15475
21991,15711
21381,15711
21381,15475
21991,15475
Z" /> 
<path style="fill:#008400; fill-opacity:1.0; 
stroke:#008400; stroke-width:0; stroke-opacity:1; 
stroke-linecap:round; stroke-linejoin:round;fill-rule:evenodd;"
d="M 24117,15475
24117,15711
23507,15711
23507,15475
24117,15475
Z" /> 
<path style="fill:#008400; fill-opacity:1.0; 
stroke:#008400; stroke-width:0; stroke-opacity:1; 
stroke-linecap:round; stroke-linejoin:round;fill-rule:evenodd;"
d="M 24117,14975
24117,15211
23507,15211
23507,14975
24117,14975
Z" /> 
<path style="fill:#008400; fill-opacity:1.0; 
stroke:#008400; stroke-width:0; stroke-opacity:1; 
stroke-linecap:round; stroke-linejoin:round;fill-rule:evenodd;"
d="M 24117,14475
24117,14711
23507,14711
23507,14475
24117,14475
Z" /> 
<path style="fill:#008400; fill-opacity:1.0; 
stroke:#008400; stroke-width:0; stroke-opacity:1; 
stroke-linecap:round; stroke-linejoin:round;fill-rule:evenodd;"
d="M 24117,13975
24117,14211
23507,14211
23507,13975
24117,13975
Z" /> 
</g>
<g >
</g>
<g >
</g>
<g >
</g>
<g >
</g>
<g >
</g>
<g >
</g>
<g >
</g>
<g >
</g>
<g >
</g>
<g >
</g>
<g >
</g>
<g >
</g>
<g >
</g>
<g >
</g>
<g style="fill:#008400; fill-opacity:1.0; 
stroke:#008400; stroke-width:0; stroke-opacity:1; 
stroke-linecap:round; stroke-linejoin:round;">
<path style="fill:#008400; fill-opacity:1.0; 
stroke:#008400; stroke-width:0; stroke-opacity:1; 
stroke-linecap:round; stroke-linejoin:round;fill-rule:evenodd;"
d="M 13163,20314
13172,20315
13180,20317
13188,20320
13195,20324
13203,20328
13209,20333
13216,20339
13221,20345
13226,20352
13231,20359
13234,20367
13237,20375
13239,20383
13240,20391
13241,20400
13241,20602
13240,20610
13239,20618
13237,20627
13234,20635
13231,20642
13226,20649
13221,20656
13216,20663
13209,20668
13203,20673
13195,20678
13188,20681
13180,20684
13172,20686
13163,20687
13155,20688
12983,20688
12974,20687
12966,20686
12958,20684
12950,20681
12942,20678
12935,20673
12928,20668
12922,20663
12916,20656
12911,20649
12907,20642
12903,20635
12900,20627
12898,20618
12897,20610
12896,20602
12896,20400
12897,20391
12898,20383
12900,20375
12903,20367
12907,20359
12911,20352
12916,20345
12922,20339
12928,20333
12935,20328
12942,20324
12950,20320
12958,20317
12966,20315
12974,20314
12983,20314
13155,20314
13163,20314
Z" /> 
<path style="fill:#008400; fill-opacity:1.0; 
stroke:#008400; stroke-width:0; stroke-opacity:1; 
stroke-linecap:round; stroke-linejoin:round;fill-rule:evenodd;"
d="M 13783,20314
13792,20315
13800,20317
13808,20320
13815,20324
13823,20328
13829,20333
13836,20339
13841,20345
13846,20352
13851,20359
13854,20367
13857,20375
13859,20383
13861,20391
13861,20400
13861,20602
13861,20610
13859,20618
13857,20627
13854,20635
13851,20642
13846,20649
13841,20656
13836,20663
13829,20668
13823,20673
13815,20678
13808,20681
13800,20684
13792,20686
13783,20687
13775,20688
13603,20688
13594,20687
13586,20686
13578,20684
13570,20681
13562,20678
13555,20673
13548,20668
13542,20663
13536,20656
13531,20649
13527,20642
13523,20635
13520,20627
13518,20618
13517,20610
13516,20602
13516,20400
13517,20391
13518,20383
13520,20375
13523,20367
13527,20359
13531,20352
13536,20345
13542,20339
13548,20333
13555,20328
13562,20324
13570,20320
13578,20317
13586,20315
13594,20314
13603,20314
13775,20314
13783,20314
Z" /> 
</g>
<g >
</g>
<g >
</g>
<g style="fill:#008400; fill-opacity:1.0; 
stroke:#008400; stroke-width:0; stroke-opacity:1; 
stroke-linecap:round; stroke-linejoin:round;">
<path style="fill:#008400; fill-opacity:1.0; 
stroke:#008400; stroke-width:0; stroke-opacity:1; 
stroke-linecap:round; stroke-linejoin:round;fill-rule:evenodd;"
d="M 11096,17668
11105,17670
11113,17672
11121,17675
11128,17678
11136,17683
11142,17688
11149,17693
11154,17700
11159,17706
11164,17714
11167,17721
11170,17729
11172,17737
11174,17746
11174,17754
11174,17956
11174,17964
11172,17973
11170,17981
11167,17989
11164,17997
11159,18004
11154,18011
11149,18017
11142,18023
11136,18028
11128,18032
11121,18036
11113,18038
11105,18040
11096,18042
11088,18042
10916,18042
10907,18042
10899,18040
10891,18038
10883,18036
10875,18032
10868,18028
10861,18023
10855,18017
10849,18011
10844,18004
10840,17997
10836,17989
10833,17981
10831,17973
10830,17964
10829,17956
10829,17754
10830,17746
10831,17737
10833,17729
10836,17721
10840,17714
10844,17706
10849,17700
10855,17693
10861,17688
10868,17683
10875,17678
10883,17675
10891,17672
10899,17670
10907,17668
10916,17668
11088,17668
11096,17668
Z" /> 
<path style="fill:#008400; fill-opacity:1.0; 
stroke:#008400; stroke-width:0; stroke-opacity:1; 
stroke-linecap:round; stroke-linejoin:round;fill-rule:evenodd;"
d="M 11716,17668
11725,17670
11733,17672
11741,17675
11749,17678
11756,17683
11763,17688
11769,17693
11774,17700
11780,17706
11784,17714
11787,17721
11790,17729
11792,17737
11794,17746
11794,17754
11794,17956
11794,17964
11792,17973
11790,17981
11787,17989
11784,17997
11780,18004
11774,18011
11769,18017
11763,18023
11756,18028
11749,18032
11741,18036
11733,18038
11725,18040
11716,18042
11708,18042
11536,18042
11527,18042
11519,18040
11511,18038
11503,18036
11495,18032
11488,18028
11481,18023
11475,18017
11469,18011
11464,18004
11460,17997
11456,17989
11453,17981
11451,17973
11450,17964
11450,17956
11450,17754
11450,17746
11451,17737
11453,17729
11456,17721
11460,17714
11464,17706
11469,17700
11475,17693
11481,17688
11488,17683
11495,17678
11503,17675
11511,17672
11519,17670
11527,17668
11536,17668
11708,17668
11716,17668
Z" /> 
</g>
<g >
</g>
<g style="fill:#008400; fill-opacity:1.0; 
stroke:#008400; stroke-width:0; stroke-opacity:1; 
stroke-linecap:round; stroke-linejoin:round;">
<path style="fill:#008400; fill-opacity:1.0; 
stroke:#008400; stroke-width:0; stroke-opacity:1; 
stroke-linecap:round; stroke-linejoin:round;fill-rule:evenodd;"
d="M 13353,22671
13361,22673
13370,22675
13378,22677
13385,22681
13392,22685
13399,22690
13405,22696
13527,22818
13533,22824
13538,22831
13542,22838
13546,22846
13549,22854
13551,22862
13552,22870
13552,22879
13552,22887
13551,22896
13549,22904
13546,22912
13542,22919
13538,22927
13533,22933
13527,22940
13385,23082
13378,23088
13372,23093
13364,23097
13357,23101
13349,23104
13340,23106
13332,23107
13324,23108
13315,23107
13307,23106
13299,23104
13291,23101
13283,23097
13276,23093
13269,23088
13263,23082
13141,22961
13135,22954
13130,22948
13126,22940
13122,22933
13119,22925
13117,22916
13116,22908
13116,22900
13116,22891
13117,22883
13119,22875
13122,22867
13126,22859
13130,22852
13135,22845
13141,22839
13284,22696
13290,22690
13297,22685
13304,22681
13312,22677
13320,22675
13328,22673
13336,22671
13345,22671
13353,22671
Z" /> 
<path style="fill:#008400; fill-opacity:1.0; 
stroke:#008400; stroke-width:0; stroke-opacity:1; 
stroke-linecap:round; stroke-linejoin:round;fill-rule:evenodd;"
d="M 12915,22233
12923,22234
12931,22236
12939,22239
12947,22243
12954,22247
12961,22252
12967,22258
13089,22379
13094,22386
13100,22392
13104,22400
13107,22407
13110,22415
13112,22424
13114,22432
13114,22440
13114,22449
13112,22457
13110,22465
13107,22473
13104,22481
13100,22488
13094,22495
13089,22501
12946,22644
12940,22650
12933,22655
12926,22659
12918,22663
12910,22665
12902,22667
12894,22669
12885,22669
12877,22669
12868,22667
12860,22665
12852,22663
12845,22659
12837,22655
12831,22650
12824,22644
12703,22522
12697,22516
12692,22509
12687,22502
12684,22494
12681,22486
12679,22478
12678,22470
12677,22461
12678,22453
12679,22444
12681,22436
12684,22428
12687,22421
12692,22413
12697,22407
12703,22400
12845,22258
12851,22252
12858,22247
12866,22243
12873,22239
12881,22236
12889,22234
12898,22233
12906,22232
12915,22233
Z" /> 
</g>
<g >
</g>
<g style="fill:#008400; fill-opacity:1.0; 
stroke:#008400; stroke-width:0; stroke-opacity:1; 
stroke-linecap:round; stroke-linejoin:round;">
<path style="fill:#008400; fill-opacity:1.0; 
stroke:#008400; stroke-width:0; stroke-opacity:1; 
stroke-linecap:round; stroke-linejoin:round;fill-rule:evenodd;"
d="M 10518,18251
10526,18252
10534,18254
10542,18257
10550,18261
10557,18265
10564,18270
10570,18276
10576,18282
10581,18289
10585,18296
10589,18304
10591,18312
10594,18320
10595,18328
10595,18337
10595,18539
10595,18547
10594,18555
10591,18564
10589,18572
10585,18579
10581,18586
10576,18593
10570,18600
10564,18605
10557,18610
10550,18615
10542,18618
10534,18621
10526,18623
10518,18624
10509,18625
10337,18625
10328,18624
10320,18623
10312,18621
10304,18618
10296,18615
10289,18610
10282,18605
10276,18600
10270,18593
10265,18586
10261,18579
10257,18572
10254,18564
10252,18555
10251,18547
10251,18539
10251,18337
10251,18328
10252,18320
10254,18312
10257,18304
10261,18296
10265,18289
10270,18282
10276,18276
10282,18270
10289,18265
10296,18261
10304,18257
10312,18254
10320,18252
10328,18251
10337,18251
10509,18251
10518,18251
Z" /> 
<path style="fill:#008400; fill-opacity:1.0; 
stroke:#008400; stroke-width:0; stroke-opacity:1; 
stroke-linecap:round; stroke-linejoin:round;fill-rule:evenodd;"
d="M 11138,18251
11146,18252
11154,18254
11162,18257
11170,18261
11177,18265
11184,18270
11190,18276
11196,18282
11201,18289
11205,18296
11209,18304
11212,18312
11214,18320
11215,18328
11215,18337
11215,18539
11215,18547
11214,18555
11212,18564
11209,18572
11205,18579
11201,18586
11196,18593
11190,18600
11184,18605
11177,18610
11170,18615
11162,18618
11154,18621
11146,18623
11138,18624
11129,18625
10957,18625
10948,18624
10940,18623
10932,18621
10924,18618
10916,18615
10909,18610
10902,18605
10896,18600
10890,18593
10885,18586
10881,18579
10877,18572
10875,18564
10872,18555
10871,18547
10871,18539
10871,18337
10871,18328
10872,18320
10875,18312
10877,18304
10881,18296
10885,18289
10890,18282
10896,18276
10902,18270
10909,18265
10916,18261
10924,18257
10932,18254
10940,18252
10948,18251
10957,18251
11129,18251
11138,18251
Z" /> 
</g>
<g >
</g>
<g style="fill:#008400; fill-opacity:1.0; 
stroke:#008400; stroke-width:0; stroke-opacity:1; 
stroke-linecap:round; stroke-linejoin:round;">
<path style="fill:#008400; fill-opacity:1.0; 
stroke:#008400; stroke-width:0; stroke-opacity:1; 
stroke-linecap:round; stroke-linejoin:round;fill-rule:evenodd;"
d="M 12251,19065
12260,19066
12269,19068
12278,19071
12286,19075
12294,19079
12302,19084
12309,19090
12315,19097
12321,19104
12326,19112
12439,19308
12443,19316
12446,19325
12449,19333
12450,19342
12451,19352
12451,19361
12450,19370
12448,19379
12445,19388
12442,19396
12437,19404
12432,19412
12426,19419
12419,19425
12412,19431
12405,19436
12243,19529
12234,19533
12226,19537
12217,19539
12208,19541
12199,19542
12190,19541
12181,19540
12172,19538
12163,19536
12154,19532
12146,19528
12139,19522
12132,19516
12126,19510
12120,19503
12115,19495
12002,19299
11997,19291
11994,19282
11992,19273
11990,19264
11989,19255
11989,19246
11990,19237
11992,19228
11995,19219
11999,19211
12003,19203
12008,19195
12014,19188
12021,19182
12028,19176
12036,19171
12198,19078
12206,19073
12215,19070
12223,19068
12232,19066
12242,19065
12251,19065
Z" /> 
<path style="fill:#008400; fill-opacity:1.0; 
stroke:#008400; stroke-width:0; stroke-opacity:1; 
stroke-linecap:round; stroke-linejoin:round;fill-rule:evenodd;"
d="M 11906,18469
11915,18470
11924,18472
11933,18474
11941,18478
11949,18483
11957,18488
11964,18494
11970,18500
11976,18507
11981,18515
12094,18711
12098,18719
12102,18728
12104,18737
12106,18746
12107,18755
12107,18764
12106,18773
12104,18782
12101,18791
12097,18799
12093,18807
12087,18815
12082,18822
12075,18828
12068,18834
12060,18839
11898,18932
11890,18937
11881,18940
11873,18943
11864,18944
11854,18945
11845,18945
11836,18944
11827,18942
11818,18939
11810,18935
11802,18931
11794,18926
11787,18920
11781,18913
11775,18906
11770,18898
11657,18702
11653,18694
11650,18685
11647,18677
11645,18668
11645,18659
11645,18649
11646,18640
11648,18631
11651,18623
11654,18614
11659,18606
11664,18599
11670,18592
11676,18585
11684,18579
11691,18574
11853,18481
11862,18477
11870,18473
11879,18471
11888,18469
11897,18468
11906,18469
Z" /> 
</g>
<g >
</g>
<g style="fill:#008400; fill-opacity:1.0; 
stroke:#008400; stroke-width:0; stroke-opacity:1; 
stroke-linecap:round; stroke-linejoin:round;">
<path style="fill:#008400; fill-opacity:1.0; 
stroke:#008400; stroke-width:0; stroke-opacity:1; 
stroke-linecap:round; stroke-linejoin:round;fill-rule:evenodd;"
d="M 11836,15836
11845,15837
11854,15839
11862,15842
11871,15846
11878,15851
11886,15857
11893,15863
11899,15870
11904,15877
11909,15885
11913,15893
11916,15902
11918,15911
11920,15920
11920,15929
11920,16155
11920,16164
11918,16173
11916,16182
11913,16191
11909,16199
11904,16207
11899,16215
11893,16221
11886,16228
11878,16233
11871,16238
11862,16242
11854,16245
11845,16247
11836,16248
11827,16249
11639,16249
11630,16248
11621,16247
11612,16245
11604,16242
11595,16238
11588,16233
11580,16228
11573,16221
11567,16215
11562,16207
11557,16199
11553,16191
11550,16182
11548,16173
11546,16164
11546,16155
11546,15929
11546,15920
11548,15911
11550,15902
11553,15893
11557,15885
11562,15877
11567,15870
11573,15863
11580,15857
11588,15851
11595,15846
11604,15842
11612,15839
11621,15837
11630,15836
11639,15835
11827,15835
11836,15836
Z" /> 
<path style="fill:#008400; fill-opacity:1.0; 
stroke:#008400; stroke-width:0; stroke-opacity:1; 
stroke-linecap:round; stroke-linejoin:round;fill-rule:evenodd;"
d="M 11836,16525
11845,16526
11854,16528
11862,16531
11871,16535
11878,16540
11886,16546
11893,16552
11899,16559
11904,16566
11909,16574
11913,16582
11916,16591
11918,16600
11920,16609
11920,16618
11920,16844
11920,16853
11918,16862
11916,16871
11913,16880
11909,16888
11904,16896
11899,16904
11893,16910
11886,16917
11878,16922
11871,16927
11862,16931
11854,16934
11845,16936
11836,16937
11827,16938
11639,16938
11630,16937
11621,16936
11612,16934
11604,16931
11595,16927
11588,16922
11580,16917
11573,16910
11567,16904
11562,16896
11557,16888
11553,16880
11550,16871
11548,16862
11546,16853
11546,16844
11546,16618
11546,16609
11548,16600
11550,16591
11553,16582
11557,16574
11562,16566
11567,16559
11573,16552
11580,16546
11588,16540
11595,16535
11604,16531
11612,16528
11621,16526
11630,16525
11639,16524
11827,16524
11836,16525
Z" /> 
</g>
<g >
</g>
<g >
</g>
<g style="fill:#008400; fill-opacity:1.0; 
stroke:#008400; stroke-width:0; stroke-opacity:1; 
stroke-linecap:round; stroke-linejoin:round;">
<path style="fill:#008400; fill-opacity:1.0; 
stroke:#008400; stroke-width:0; stroke-opacity:1; 
stroke-linecap:round; stroke-linejoin:round;fill-rule:evenodd;"
d="M 10757,14127
10766,14128
10775,14131
10784,14134
10792,14138
10800,14142
10807,14148
10814,14154
10820,14161
10826,14168
10830,14176
10834,14184
10837,14193
10840,14202
10841,14211
10841,14220
10841,14447
10841,14456
10840,14465
10837,14474
10834,14482
10830,14491
10826,14499
10820,14506
10814,14513
10807,14519
10800,14524
10792,14529
10784,14533
10775,14536
10766,14538
10757,14540
10748,14540
10561,14540
10552,14540
10543,14538
10534,14536
10525,14533
10517,14529
10509,14524
10502,14519
10495,14513
10489,14506
10483,14499
10478,14491
10475,14482
10471,14474
10469,14465
10468,14456
10467,14447
10467,14220
10468,14211
10469,14202
10471,14193
10475,14184
10478,14176
10483,14168
10489,14161
10495,14154
10502,14148
10509,14142
10517,14138
10525,14134
10534,14131
10543,14128
10552,14127
10561,14127
10748,14127
10757,14127
Z" /> 
<path style="fill:#008400; fill-opacity:1.0; 
stroke:#008400; stroke-width:0; stroke-opacity:1; 
stroke-linecap:round; stroke-linejoin:round;fill-rule:evenodd;"
d="M 10757,13438
10766,13440
10775,13442
10784,13445
10792,13449
10800,13453
10807,13459
10814,13465
10820,13472
10826,13479
10830,13487
10834,13495
10837,13504
10840,13513
10841,13522
10841,13531
10841,13758
10841,13767
10840,13776
10837,13785
10834,13793
10830,13802
10826,13810
10820,13817
10814,13824
10807,13830
10800,13835
10792,13840
10784,13844
10775,13847
10766,13849
10757,13851
10748,13851
10561,13851
10552,13851
10543,13849
10534,13847
10525,13844
10517,13840
10509,13835
10502,13830
10495,13824
10489,13817
10483,13810
10478,13802
10475,13793
10471,13785
10469,13776
10468,13767
10467,13758
10467,13531
10468,13522
10469,13513
10471,13504
10475,13495
10478,13487
10483,13479
10489,13472
10495,13465
10502,13459
10509,13453
10517,13449
10525,13445
10534,13442
10543,13440
10552,13438
10561,13438
10748,13438
10757,13438
Z" /> 
</g>
<g >
</g>
<g style="fill:#008400; fill-opacity:1.0; 
stroke:#008400; stroke-width:0; stroke-opacity:1; 
stroke-linecap:round; stroke-linejoin:round;">
<path style="fill:#008400; fill-opacity:1.0; 
stroke:#008400; stroke-width:0; stroke-opacity:1; 
stroke-linecap:round; stroke-linejoin:round;fill-rule:evenodd;"
d="M 27796,11831
27796,11713
28347,11713
28347,11831
27796,11831
Z" /> 
<path style="fill:#008400; fill-opacity:1.0; 
stroke:#008400; stroke-width:0; stroke-opacity:1; 
stroke-linecap:round; stroke-linejoin:round;fill-rule:evenodd;"
d="M 27796,11635
27796,11516
28347,11516
28347,11635
27796,11635
Z" /> 
<path style="fill:#008400; fill-opacity:1.0; 
stroke:#008400; stroke-width:0; stroke-opacity:1; 
stroke-linecap:round; stroke-linejoin:round;fill-rule:evenodd;"
d="M 27796,11438
27796,11320
28347,11320
28347,11438
27796,11438
Z" /> 
<path style="fill:#008400; fill-opacity:1.0; 
stroke:#008400; stroke-width:0; stroke-opacity:1; 
stroke-linecap:round; stroke-linejoin:round;fill-rule:evenodd;"
d="M 27796,11241
27796,11123
28347,11123
28347,11241
27796,11241
Z" /> 
<path style="fill:#008400; fill-opacity:1.0; 
stroke:#008400; stroke-width:0; stroke-opacity:1; 
stroke-linecap:round; stroke-linejoin:round;fill-rule:evenodd;"
d="M 27796,11044
27796,10926
28347,10926
28347,11044
27796,11044
Z" /> 
<path style="fill:#008400; fill-opacity:1.0; 
stroke:#008400; stroke-width:0; stroke-opacity:1; 
stroke-linecap:round; stroke-linejoin:round;fill-rule:evenodd;"
d="M 26064,11044
26064,10926
26615,10926
26615,11044
26064,11044
Z" /> 
<path style="fill:#008400; fill-opacity:1.0; 
stroke:#008400; stroke-width:0; stroke-opacity:1; 
stroke-linecap:round; stroke-linejoin:round;fill-rule:evenodd;"
d="M 26064,11241
26064,11123
26615,11123
26615,11241
26064,11241
Z" /> 
<path style="fill:#008400; fill-opacity:1.0; 
stroke:#008400; stroke-width:0; stroke-opacity:1; 
stroke-linecap:round; stroke-linejoin:round;fill-rule:evenodd;"
d="M 26064,11438
26064,11320
26615,11320
26615,11438
26064,11438
Z" /> 
<path style="fill:#008400; fill-opacity:1.0; 
stroke:#008400; stroke-width:0; stroke-opacity:1; 
stroke-linecap:round; stroke-linejoin:round;fill-rule:evenodd;"
d="M 26064,11635
26064,11516
26615,11516
26615,11635
26064,11635
Z" /> 
<path style="fill:#008400; fill-opacity:1.0; 
stroke:#008400; stroke-width:0; stroke-opacity:1; 
stroke-linecap:round; stroke-linejoin:round;fill-rule:evenodd;"
d="M 26064,11831
26064,11713
26615,11713
26615,11831
26064,11831
Z" /> 
</g>
<g >
</g>
<g style="fill:#008400; fill-opacity:1.0; 
stroke:#008400; stroke-width:0; stroke-opacity:1; 
stroke-linecap:round; stroke-linejoin:round;">
<path style="fill:#008400; fill-opacity:1.0; 
stroke:#008400; stroke-width:0; stroke-opacity:1; 
stroke-linecap:round; stroke-linejoin:round;fill-rule:evenodd;"
d="M 23944,11121
23707,11121
23707,10511
23944,10511
23944,11121
Z" /> 
<path style="fill:#008400; fill-opacity:1.0; 
stroke:#008400; stroke-width:0; stroke-opacity:1; 
stroke-linecap:round; stroke-linejoin:round;fill-rule:evenodd;"
d="M 23444,11121
23207,11121
23207,10511
23444,10511
23444,11121
Z" /> 
<path style="fill:#008400; fill-opacity:1.0; 
stroke:#008400; stroke-width:0; stroke-opacity:1; 
stroke-linecap:round; stroke-linejoin:round;fill-rule:evenodd;"
d="M 22944,11121
22707,11121
22707,10511
22944,10511
22944,11121
Z" /> 
<path style="fill:#008400; fill-opacity:1.0; 
stroke:#008400; stroke-width:0; stroke-opacity:1; 
stroke-linecap:round; stroke-linejoin:round;fill-rule:evenodd;"
d="M 22444,11121
22207,11121
22207,10511
22444,10511
22444,11121
Z" /> 
<path style="fill:#008400; fill-opacity:1.0; 
stroke:#008400; stroke-width:0; stroke-opacity:1; 
stroke-linecap:round; stroke-linejoin:round;fill-rule:evenodd;"
d="M 22444,13247
22207,13247
22207,12637
22444,12637
22444,13247
Z" /> 
<path style="fill:#008400; fill-opacity:1.0; 
stroke:#008400; stroke-width:0; stroke-opacity:1; 
stroke-linecap:round; stroke-linejoin:round;fill-rule:evenodd;"
d="M 22944,13247
22707,13247
22707,12637
22944,12637
22944,13247
Z" /> 
<path style="fill:#008400; fill-opacity:1.0; 
stroke:#008400; stroke-width:0; stroke-opacity:1; 
stroke-linecap:round; stroke-linejoin:round;fill-rule:evenodd;"
d="M 23444,13247
23207,13247
23207,12637
23444,12637
23444,13247
Z" /> 
<path style="fill:#008400; fill-opacity:1.0; 
stroke:#008400; stroke-width:0; stroke-opacity:1; 
stroke-linecap:round; stroke-linejoin:round;fill-rule:evenodd;"
d="M 23944,13247
23707,13247
23707,12637
23944,12637
23944,13247
Z" /> 
</g>
<g >
</g>
<g style="fill:#008400; fill-opacity:1.0; 
stroke:#008400; stroke-width:0; stroke-opacity:1; 
stroke-linecap:round; stroke-linejoin:round;">
<path style="fill:#008400; fill-opacity:1.0; 
stroke:#008400; stroke-width:0; stroke-opacity:1; 
stroke-linecap:round; stroke-linejoin:round;fill-rule:evenodd;"
d="M 14557,14971
14789,15012
14683,15613
14451,15572
14557,14971
Z" /> 
<path style="fill:#008400; fill-opacity:1.0; 
stroke:#008400; stroke-width:0; stroke-opacity:1; 
stroke-linecap:round; stroke-linejoin:round;fill-rule:evenodd;"
d="M 15049,15058
15282,15099
15176,15700
14943,15659
15049,15058
Z" /> 
<path style="fill:#008400; fill-opacity:1.0; 
stroke:#008400; stroke-width:0; stroke-opacity:1; 
stroke-linecap:round; stroke-linejoin:round;fill-rule:evenodd;"
d="M 15541,15145
15774,15186
15668,15787
15435,15746
15541,15145
Z" /> 
<path style="fill:#008400; fill-opacity:1.0; 
stroke:#008400; stroke-width:0; stroke-opacity:1; 
stroke-linecap:round; stroke-linejoin:round;fill-rule:evenodd;"
d="M 16034,15232
16266,15273
16160,15874
15928,15833
16034,15232
Z" /> 
<path style="fill:#008400; fill-opacity:1.0; 
stroke:#008400; stroke-width:0; stroke-opacity:1; 
stroke-linecap:round; stroke-linejoin:round;fill-rule:evenodd;"
d="M 15665,17325
15897,17366
15791,17967
15559,17926
15665,17325
Z" /> 
<path style="fill:#008400; fill-opacity:1.0; 
stroke:#008400; stroke-width:0; stroke-opacity:1; 
stroke-linecap:round; stroke-linejoin:round;fill-rule:evenodd;"
d="M 15172,17238
15405,17280
15299,17880
15066,17839
15172,17238
Z" /> 
<path style="fill:#008400; fill-opacity:1.0; 
stroke:#008400; stroke-width:0; stroke-opacity:1; 
stroke-linecap:round; stroke-linejoin:round;fill-rule:evenodd;"
d="M 14680,17152
14912,17193
14806,17794
14574,17753
14680,17152
Z" /> 
<path style="fill:#008400; fill-opacity:1.0; 
stroke:#008400; stroke-width:0; stroke-opacity:1; 
stroke-linecap:round; stroke-linejoin:round;fill-rule:evenodd;"
d="M 14187,17065
14420,17106
14314,17707
14081,17666
14187,17065
Z" /> 
</g>
<g >
</g>
<g style="fill:#008400; fill-opacity:1.0; 
stroke:#008400; stroke-width:0; stroke-opacity:1; 
stroke-linecap:round; stroke-linejoin:round;">
<path style="fill:#008400; fill-opacity:1.0; 
stroke:#008400; stroke-width:0; stroke-opacity:1; 
stroke-linecap:round; stroke-linejoin:round;fill-rule:evenodd;"
d="M 19914,22906
20229,22906
20229,23261
19914,23261
19914,22906
Z" /> 
<path style="fill:#008400; fill-opacity:1.0; 
stroke:#008400; stroke-width:0; stroke-opacity:1; 
stroke-linecap:round; stroke-linejoin:round;fill-rule:evenodd;"
d="M 20288,22119
20603,22119
20603,22473
20288,22473
20288,22119
Z" /> 
<path style="fill:#008400; fill-opacity:1.0; 
stroke:#008400; stroke-width:0; stroke-opacity:1; 
stroke-linecap:round; stroke-linejoin:round;fill-rule:evenodd;"
d="M 19540,22119
19855,22119
19855,22473
19540,22473
19540,22119
Z" /> 
</g>
<g >
</g>
<g style="fill:#008400; fill-opacity:1.0; 
stroke:#008400; stroke-width:0; stroke-opacity:1; 
stroke-linecap:round; stroke-linejoin:round;">
<path style="fill:#008400; fill-opacity:1.0; 
stroke:#008400; stroke-width:0; stroke-opacity:1; 
stroke-linecap:round; stroke-linejoin:round;fill-rule:evenodd;"
d="M 8866,23021
8874,23022
8883,23024
8890,23027
8898,23031
8905,23035
8912,23040
8918,23046
8924,23052
8929,23059
8933,23066
8937,23074
8940,23082
8942,23090
8943,23098
8944,23107
8944,23279
8943,23287
8942,23296
8940,23304
8937,23312
8933,23319
8929,23327
8924,23333
8918,23340
8912,23345
8905,23350
8898,23355
8890,23358
8883,23361
8874,23363
8866,23364
8858,23365
8656,23365
8647,23364
8639,23363
8631,23361
8623,23358
8615,23355
8608,23350
8601,23345
8595,23340
8589,23333
8584,23327
8580,23319
8576,23312
8573,23304
8571,23296
8570,23287
8570,23279
8570,23107
8570,23098
8571,23090
8573,23082
8576,23074
8580,23066
8584,23059
8589,23052
8595,23046
8601,23040
8608,23035
8615,23031
8623,23027
8631,23024
8639,23022
8647,23021
8656,23020
8858,23020
8866,23021
Z" /> 
<path style="fill:#008400; fill-opacity:1.0; 
stroke:#008400; stroke-width:0; stroke-opacity:1; 
stroke-linecap:round; stroke-linejoin:round;fill-rule:evenodd;"
d="M 8866,22401
8874,22402
8883,22404
8890,22407
8898,22410
8905,22415
8912,22420
8918,22426
8924,22432
8929,22439
8933,22446
8937,22453
8940,22461
8942,22470
8943,22478
8944,22486
8944,22659
8943,22667
8942,22675
8940,22684
8937,22692
8933,22699
8929,22707
8924,22713
8918,22720
8912,22725
8905,22730
8898,22735
8890,22738
8883,22741
8874,22743
8866,22744
8858,22745
8656,22745
8647,22744
8639,22743
8631,22741
8623,22738
8615,22735
8608,22730
8601,22725
8595,22720
8589,22713
8584,22707
8580,22699
8576,22692
8573,22684
8571,22675
8570,22667
8570,22659
8570,22486
8570,22478
8571,22470
8573,22461
8576,22453
8580,22446
8584,22439
8589,22432
8595,22426
8601,22420
8608,22415
8615,22410
8623,22407
8631,22404
8639,22402
8647,22401
8656,22400
8858,22400
8866,22401
Z" /> 
</g>
<g >
</g>
<g style="fill:#008400; fill-opacity:1.0; 
stroke:#008400; stroke-width:0; stroke-opacity:1; 
stroke-linecap:round; stroke-linejoin:round;">
<path style="fill:#008400; fill-opacity:1.0; 
stroke:#008400; stroke-width:0; stroke-opacity:1; 
stroke-linecap:round; stroke-linejoin:round;fill-rule:evenodd;"
d="M 18622,22885
18630,22886
18638,22888
18646,22891
18654,22895
18661,22899
18668,22904
18674,22910
18680,22916
18685,22923
18689,22930
18693,22938
18696,22946
18698,22954
18699,22962
18700,22971
18700,23172
18699,23181
18698,23189
18696,23197
18693,23205
18689,23213
18685,23220
18680,23227
18674,23233
18668,23239
18661,23244
18654,23248
18646,23252
18638,23255
18630,23257
18622,23258
18613,23259
18441,23259
18433,23258
18424,23257
18416,23255
18408,23252
18401,23248
18393,23244
18387,23239
18380,23233
18375,23227
18370,23220
18365,23213
18362,23205
18359,23197
18357,23189
18355,23181
18355,23172
18355,22971
18355,22962
18357,22954
18359,22946
18362,22938
18365,22930
18370,22923
18375,22916
18380,22910
18387,22904
18393,22899
18401,22895
18408,22891
18416,22888
18424,22886
18433,22885
18441,22885
18613,22885
18622,22885
Z" /> 
<path style="fill:#008400; fill-opacity:1.0; 
stroke:#008400; stroke-width:0; stroke-opacity:1; 
stroke-linecap:round; stroke-linejoin:round;fill-rule:evenodd;"
d="M 18002,22885
18010,22886
18018,22888
18026,22891
18034,22895
18041,22899
18048,22904
18054,22910
18060,22916
18065,22923
18069,22930
18073,22938
18076,22946
18078,22954
18079,22962
18079,22971
18079,23172
18079,23181
18078,23189
18076,23197
18073,23205
18069,23213
18065,23220
18060,23227
18054,23233
18048,23239
18041,23244
18034,23248
18026,23252
18018,23255
18010,23257
18002,23258
17993,23259
17821,23259
17813,23258
17804,23257
17796,23255
17788,23252
17780,23248
17773,23244
17766,23239
17760,23233
17755,23227
17749,23220
17745,23213
17742,23205
17739,23197
17737,23189
17735,23181
17735,23172
17735,22971
17735,22962
17737,22954
17739,22946
17742,22938
17745,22930
17749,22923
17755,22916
17760,22910
17766,22904
17773,22899
17780,22895
17788,22891
17796,22888
17804,22886
17813,22885
17821,22885
17993,22885
18002,22885
Z" /> 
</g>
<g >
</g>
<g style="fill:#008400; fill-opacity:1.0; 
stroke:#008400; stroke-width:0; stroke-opacity:1; 
stroke-linecap:round; stroke-linejoin:round;">
<path style="fill:#008400; fill-opacity:1.0; 
stroke:#008400; stroke-width:0; stroke-opacity:1; 
stroke-linecap:round; stroke-linejoin:round;fill-rule:evenodd;"
d="M 19161,20176
19170,20178
19178,20180
19186,20182
19193,20186
19201,20190
19207,20195
19214,20201
19219,20207
19224,20214
19229,20221
19232,20229
19235,20237
19237,20245
19238,20254
19239,20262
19239,20464
19238,20472
19237,20481
19235,20489
19232,20497
19229,20504
19224,20512
19219,20518
19214,20525
19207,20530
19201,20535
19193,20540
19186,20543
19178,20546
19170,20548
19161,20550
19153,20550
18981,20550
18972,20550
18964,20548
18956,20546
18948,20543
18940,20540
18933,20535
18926,20530
18920,20525
18914,20518
18909,20512
18905,20504
18901,20497
18898,20489
18896,20481
18895,20472
18894,20464
18894,20262
18895,20254
18896,20245
18898,20237
18901,20229
18905,20221
18909,20214
18914,20207
18920,20201
18926,20195
18933,20190
18940,20186
18948,20182
18956,20180
18964,20178
18972,20176
18981,20176
19153,20176
19161,20176
Z" /> 
<path style="fill:#008400; fill-opacity:1.0; 
stroke:#008400; stroke-width:0; stroke-opacity:1; 
stroke-linecap:round; stroke-linejoin:round;fill-rule:evenodd;"
d="M 18541,20176
18550,20178
18558,20180
18566,20182
18573,20186
18581,20190
18587,20195
18594,20201
18599,20207
18604,20214
18609,20221
18612,20229
18615,20237
18617,20245
18618,20254
18619,20262
18619,20464
18618,20472
18617,20481
18615,20489
18612,20497
18609,20504
18604,20512
18599,20518
18594,20525
18587,20530
18581,20535
18573,20540
18566,20543
18558,20546
18550,20548
18541,20550
18533,20550
18360,20550
18352,20550
18344,20548
18335,20546
18328,20543
18320,20540
18313,20535
18306,20530
18300,20525
18294,20518
18289,20512
18285,20504
18281,20497
18278,20489
18276,20481
18275,20472
18274,20464
18274,20262
18275,20254
18276,20245
18278,20237
18281,20229
18285,20221
18289,20214
18294,20207
18300,20201
18306,20195
18313,20190
18320,20186
18328,20182
18335,20180
18344,20178
18352,20176
18360,20176
18533,20176
18541,20176
Z" /> 
</g>
<g >
</g>
<g style="fill:#008400; fill-opacity:1.0; 
stroke:#008400; stroke-width:0; stroke-opacity:1; 
stroke-linecap:round; stroke-linejoin:round;">
<path style="fill:#008400; fill-opacity:1.0; 
stroke:#008400; stroke-width:0; stroke-opacity:1; 
stroke-linecap:round; stroke-linejoin:round;fill-rule:evenodd;"
d="M 16480,24013
16488,24014
16497,24016
16505,24019
16512,24023
16519,24027
16526,24032
16533,24038
16538,24044
16543,24051
16548,24058
16551,24066
16554,24074
16556,24082
16557,24090
16558,24099
16558,24271
16557,24279
16556,24288
16554,24296
16551,24304
16548,24311
16543,24319
16538,24326
16533,24332
16526,24337
16519,24343
16512,24347
16505,24350
16497,24353
16488,24355
16480,24357
16472,24357
16270,24357
16261,24357
16253,24355
16245,24353
16237,24350
16229,24347
16222,24343
16215,24337
16209,24332
16203,24326
16198,24319
16194,24311
16190,24304
16187,24296
16185,24288
16184,24279
16184,24271
16184,24099
16184,24090
16185,24082
16187,24074
16190,24066
16194,24058
16198,24051
16203,24044
16209,24038
16215,24032
16222,24027
16229,24023
16237,24019
16245,24016
16253,24014
16261,24013
16270,24013
16472,24013
16480,24013
Z" /> 
<path style="fill:#008400; fill-opacity:1.0; 
stroke:#008400; stroke-width:0; stroke-opacity:1; 
stroke-linecap:round; stroke-linejoin:round;fill-rule:evenodd;"
d="M 16480,23393
16488,23394
16497,23396
16505,23399
16512,23403
16519,23407
16526,23412
16533,23418
16538,23424
16543,23431
16548,23438
16551,23446
16554,23454
16556,23462
16557,23470
16558,23479
16558,23651
16557,23659
16556,23668
16554,23676
16551,23684
16548,23691
16543,23699
16538,23705
16533,23712
16526,23717
16519,23722
16512,23727
16505,23730
16497,23733
16488,23735
16480,23737
16472,23737
16270,23737
16261,23737
16253,23735
16245,23733
16237,23730
16229,23727
16222,23722
16215,23717
16209,23712
16203,23705
16198,23699
16194,23691
16190,23684
16187,23676
16185,23668
16184,23659
16184,23651
16184,23479
16184,23470
16185,23462
16187,23454
16190,23446
16194,23438
16198,23431
16203,23424
16209,23418
16215,23412
16222,23407
16229,23403
16237,23399
16245,23396
16253,23394
16261,23393
16270,23392
16472,23392
16480,23393
Z" /> 
</g>
<g >
</g>
<g >
</g>
<g style="fill:#008400; fill-opacity:1.0; 
stroke:#008400; stroke-width:0; stroke-opacity:1; 
stroke-linecap:round; stroke-linejoin:round;">
<path style="fill:#008400; fill-opacity:1.0; 
stroke:#008400; stroke-width:0; stroke-opacity:1; 
stroke-linecap:round; stroke-linejoin:round;fill-rule:evenodd;"
d="M 10472,15563
10481,15565
10491,15567
10500,15570
10508,15574
10517,15579
10524,15585
10532,15591
10538,15599
10544,15606
10549,15615
10553,15623
10556,15632
10559,15642
10560,15651
10560,15661
10560,15917
10560,15927
10559,15936
10556,15946
10553,15955
10549,15963
10544,15972
10538,15979
10532,15987
10524,15993
10517,15999
10508,16004
10500,16008
10491,16011
10481,16013
10472,16015
10462,16015
10108,16015
10098,16015
10088,16013
10079,16011
10070,16008
10061,16004
10053,15999
10045,15993
10038,15987
10032,15979
10026,15972
10021,15963
10017,15955
10013,15946
10011,15936
10010,15927
10009,15917
10009,15661
10010,15651
10011,15642
10013,15632
10017,15623
10021,15615
10026,15606
10032,15599
10038,15591
10045,15585
10053,15579
10061,15574
10070,15570
10079,15567
10088,15565
10098,15563
10108,15563
10462,15563
10472,15563
Z" /> 
<path style="fill:#008400; fill-opacity:1.0; 
stroke:#008400; stroke-width:0; stroke-opacity:1; 
stroke-linecap:round; stroke-linejoin:round;fill-rule:evenodd;"
d="M 10472,14756
10481,14757
10491,14760
10500,14763
10508,14767
10517,14772
10524,14778
10532,14784
10538,14792
10544,14799
10549,14808
10553,14816
10556,14825
10559,14835
10560,14844
10560,14854
10560,15110
10560,15120
10559,15129
10556,15138
10553,15148
10549,15156
10544,15165
10538,15172
10532,15179
10524,15186
10517,15192
10508,15197
10500,15201
10491,15204
10481,15206
10472,15208
10462,15208
10108,15208
10098,15208
10088,15206
10079,15204
10070,15201
10061,15197
10053,15192
10045,15186
10038,15179
10032,15172
10026,15165
10021,15156
10017,15148
10013,15138
10011,15129
10010,15120
10009,15110
10009,14854
10010,14844
10011,14835
10013,14825
10017,14816
10021,14808
10026,14799
10032,14792
10038,14784
10045,14778
10053,14772
10061,14767
10070,14763
10079,14760
10088,14757
10098,14756
10108,14756
10462,14756
10472,14756
Z" /> 
</g>
<g >
</g>
<g style="fill:#008400; fill-opacity:1.0; 
stroke:#008400; stroke-width:0; stroke-opacity:1; 
stroke-linecap:round; stroke-linejoin:round;">
<path style="fill:#008400; fill-opacity:1.0; 
stroke:#008400; stroke-width:0; stroke-opacity:1; 
stroke-linecap:round; stroke-linejoin:round;fill-rule:evenodd;"
d="M 11223,15544
11233,15546
11242,15548
11251,15552
11260,15556
11268,15561
11276,15566
11283,15573
11289,15580
11295,15588
11300,15596
11304,15605
11308,15614
11310,15623
11311,15633
11312,15642
11312,15898
11311,15908
11310,15918
11308,15927
11304,15936
11300,15945
11295,15953
11289,15961
11283,15968
11276,15974
11268,15980
11260,15985
11251,15989
11242,15993
11233,15995
11223,15996
11213,15997
10859,15997
10849,15996
10840,15995
10830,15993
10821,15989
10813,15985
10804,15980
10797,15974
10789,15968
10783,15961
10777,15953
10772,15945
10768,15936
10765,15927
10762,15918
10761,15908
10761,15898
10761,15642
10761,15633
10762,15623
10765,15614
10768,15605
10772,15596
10777,15588
10783,15580
10789,15573
10797,15566
10804,15561
10813,15556
10821,15552
10830,15548
10840,15546
10849,15544
10859,15544
11213,15544
11223,15544
Z" /> 
<path style="fill:#008400; fill-opacity:1.0; 
stroke:#008400; stroke-width:0; stroke-opacity:1; 
stroke-linecap:round; stroke-linejoin:round;fill-rule:evenodd;"
d="M 11223,14737
11233,14739
11242,14741
11251,14744
11260,14749
11268,14754
11276,14759
11283,14766
11289,14773
11295,14781
11300,14789
11304,14798
11308,14807
11310,14816
11311,14826
11312,14835
11312,15091
11311,15101
11310,15110
11308,15120
11304,15129
11300,15138
11295,15146
11289,15154
11283,15161
11276,15167
11268,15173
11260,15178
11251,15182
11242,15185
11233,15188
11223,15189
11213,15190
10859,15190
10849,15189
10840,15188
10830,15185
10821,15182
10813,15178
10804,15173
10797,15167
10789,15161
10783,15154
10777,15146
10772,15138
10768,15129
10765,15120
10762,15110
10761,15101
10761,15091
10761,14835
10761,14826
10762,14816
10765,14807
10768,14798
10772,14789
10777,14781
10783,14773
10789,14766
10797,14759
10804,14754
10813,14749
10821,14744
10830,14741
10840,14739
10849,14737
10859,14737
11213,14737
11223,14737
Z" /> 
</g>
<g >
</g>
<g style="fill:#008400; fill-opacity:1.0; 
stroke:#008400; stroke-width:0; stroke-opacity:1; 
stroke-linecap:round; stroke-linejoin:round;">
<path style="fill:#008400; fill-opacity:1.0; 
stroke:#008400; stroke-width:0; stroke-opacity:1; 
stroke-linecap:round; stroke-linejoin:round;fill-rule:evenodd;"
d="M 13167,16314
13175,16315
13184,16317
13192,16320
13199,16324
13207,16328
13213,16333
13220,16339
13225,16345
13230,16352
13235,16359
13238,16367
13241,16375
13243,16383
13244,16391
13245,16400
13245,16602
13244,16610
13243,16618
13241,16627
13238,16635
13235,16642
13230,16649
13225,16656
13220,16663
13213,16668
13207,16673
13199,16678
13192,16681
13184,16684
13175,16686
13167,16687
13159,16688
12986,16688
12978,16687
12970,16686
12961,16684
12953,16681
12946,16678
12939,16673
12932,16668
12926,16663
12920,16656
12915,16649
12910,16642
12907,16635
12904,16627
12902,16618
12901,16610
12900,16602
12900,16400
12901,16391
12902,16383
12904,16375
12907,16367
12910,16359
12915,16352
12920,16345
12926,16339
12932,16333
12939,16328
12946,16324
12953,16320
12961,16317
12970,16315
12978,16314
12986,16314
13159,16314
13167,16314
Z" /> 
<path style="fill:#008400; fill-opacity:1.0; 
stroke:#008400; stroke-width:0; stroke-opacity:1; 
stroke-linecap:round; stroke-linejoin:round;fill-rule:evenodd;"
d="M 13787,16314
13796,16315
13804,16317
13812,16320
13819,16324
13827,16328
13833,16333
13840,16339
13845,16345
13850,16352
13855,16359
13858,16367
13861,16375
13863,16383
13864,16391
13865,16400
13865,16602
13864,16610
13863,16618
13861,16627
13858,16635
13855,16642
13850,16649
13845,16656
13840,16663
13833,16668
13827,16673
13819,16678
13812,16681
13804,16684
13796,16686
13787,16687
13779,16688
13607,16688
13598,16687
13590,16686
13582,16684
13574,16681
13566,16678
13559,16673
13552,16668
13546,16663
13540,16656
13535,16649
13531,16642
13527,16635
13524,16627
13522,16618
13521,16610
13520,16602
13520,16400
13521,16391
13522,16383
13524,16375
13527,16367
13531,16359
13535,16352
13540,16345
13546,16339
13552,16333
13559,16328
13566,16324
13574,16320
13582,16317
13590,16315
13598,16314
13607,16314
13779,16314
13787,16314
Z" /> 
</g>
<g >
</g>
<g style="fill:#008400; fill-opacity:1.0; 
stroke:#008400; stroke-width:0; stroke-opacity:1; 
stroke-linecap:round; stroke-linejoin:round;">
<path style="fill:#008400; fill-opacity:1.0; 
stroke:#008400; stroke-width:0; stroke-opacity:1; 
stroke-linecap:round; stroke-linejoin:round;fill-rule:evenodd;"
d="M 18040,20749
18355,20749
18355,21497
18040,21497
18040,20749
Z" /> 
<path style="fill:#008400; fill-opacity:1.0; 
stroke:#008400; stroke-width:0; stroke-opacity:1; 
stroke-linecap:round; stroke-linejoin:round;fill-rule:evenodd;"
d="M 18788,20749
19103,20749
19103,21497
18788,21497
18788,20749
Z" /> 
<path style="fill:#008400; fill-opacity:1.0; 
stroke:#008400; stroke-width:0; stroke-opacity:1; 
stroke-linecap:round; stroke-linejoin:round;fill-rule:evenodd;"
d="M 18414,21930
18729,21930
18729,22678
18414,22678
18414,21930
Z" /> 
</g>
<g >
</g>
<g style="fill:#008400; fill-opacity:1.0; 
stroke:#008400; stroke-width:0; stroke-opacity:1; 
stroke-linecap:round; stroke-linejoin:round;">
<path style="fill:#008400; fill-opacity:1.0; 
stroke:#008400; stroke-width:0; stroke-opacity:1; 
stroke-linecap:round; stroke-linejoin:round;fill-rule:evenodd;"
d="M 18296,17812
18611,17812
18611,18560
18296,18560
18296,17812
Z" /> 
<path style="fill:#008400; fill-opacity:1.0; 
stroke:#008400; stroke-width:0; stroke-opacity:1; 
stroke-linecap:round; stroke-linejoin:round;fill-rule:evenodd;"
d="M 19044,17812
19359,17812
19359,18560
19044,18560
19044,17812
Z" /> 
<path style="fill:#008400; fill-opacity:1.0; 
stroke:#008400; stroke-width:0; stroke-opacity:1; 
stroke-linecap:round; stroke-linejoin:round;fill-rule:evenodd;"
d="M 18670,18993
18985,18993
18985,19741
18670,19741
18670,18993
Z" /> 
</g>
<g >
</g>
<g style="fill:#008400; fill-opacity:1.0; 
stroke:#008400; stroke-width:0; stroke-opacity:1; 
stroke-linecap:round; stroke-linejoin:round;">
<path style="fill:#008400; fill-opacity:1.0; 
stroke:#008400; stroke-width:0; stroke-opacity:1; 
stroke-linecap:round; stroke-linejoin:round;fill-rule:evenodd;"
d="M 26473,6013
26473,6327
25725,6327
25725,6013
26473,6013
Z" /> 
<path style="fill:#008400; fill-opacity:1.0; 
stroke:#008400; stroke-width:0; stroke-opacity:1; 
stroke-linecap:round; stroke-linejoin:round;fill-rule:evenodd;"
d="M 26473,6761
26473,7076
25725,7076
25725,6761
26473,6761
Z" /> 
<path style="fill:#008400; fill-opacity:1.0; 
stroke:#008400; stroke-width:0; stroke-opacity:1; 
stroke-linecap:round; stroke-linejoin:round;fill-rule:evenodd;"
d="M 25292,6387
25292,6702
24544,6702
24544,6387
25292,6387
Z" /> 
</g>
<g >
</g>
<g style="fill:#008400; fill-opacity:1.0; 
stroke:#008400; stroke-width:0; stroke-opacity:1; 
stroke-linecap:round; stroke-linejoin:round;">
<path style="fill:#008400; fill-opacity:1.0; 
stroke:#008400; stroke-width:0; stroke-opacity:1; 
stroke-linecap:round; stroke-linejoin:round;fill-rule:evenodd;"
d="M 19619,19698
19619,19383
20367,19383
20367,19698
19619,19698
Z" /> 
<path style="fill:#008400; fill-opacity:1.0; 
stroke:#008400; stroke-width:0; stroke-opacity:1; 
stroke-linecap:round; stroke-linejoin:round;fill-rule:evenodd;"
d="M 19619,18950
19619,18635
20367,18635
20367,18950
19619,18950
Z" /> 
<path style="fill:#008400; fill-opacity:1.0; 
stroke:#008400; stroke-width:0; stroke-opacity:1; 
stroke-linecap:round; stroke-linejoin:round;fill-rule:evenodd;"
d="M 20800,19324
20800,19009
21548,19009
21548,19324
20800,19324
Z" /> 
</g>
<g >
</g>
<g >
</g>
<g style="fill:#008400; fill-opacity:1.0; 
stroke:#008400; stroke-width:0; stroke-opacity:1; 
stroke-linecap:round; stroke-linejoin:round;">
<path style="fill:#008400; fill-opacity:1.0; 
stroke:#008400; stroke-width:0; stroke-opacity:1; 
stroke-linecap:round; stroke-linejoin:round;fill-rule:evenodd;"
d="M 25371,12442
25056,12442
25056,11694
25371,11694
25371,12442
Z" /> 
<path style="fill:#008400; fill-opacity:1.0; 
stroke:#008400; stroke-width:0; stroke-opacity:1; 
stroke-linecap:round; stroke-linejoin:round;fill-rule:evenodd;"
d="M 24623,12442
24308,12442
24308,11694
24623,11694
24623,12442
Z" /> 
<path style="fill:#008400; fill-opacity:1.0; 
stroke:#008400; stroke-width:0; stroke-opacity:1; 
stroke-linecap:round; stroke-linejoin:round;fill-rule:evenodd;"
d="M 24997,11261
24682,11261
24682,10513
24997,10513
24997,11261
Z" /> 
</g>
<g >
</g>
<g style="fill:#008400; fill-opacity:1.0; 
stroke:#008400; stroke-width:0; stroke-opacity:1; 
stroke-linecap:round; stroke-linejoin:round;">
<path style="fill:#008400; fill-opacity:1.0; 
stroke:#008400; stroke-width:0; stroke-opacity:1; 
stroke-linecap:round; stroke-linejoin:round;fill-rule:evenodd;"
d="M 16327,19942
16642,19942
16642,20690
16327,20690
16327,19942
Z" /> 
<path style="fill:#008400; fill-opacity:1.0; 
stroke:#008400; stroke-width:0; stroke-opacity:1; 
stroke-linecap:round; stroke-linejoin:round;fill-rule:evenodd;"
d="M 16702,18761
17016,18761
17016,19509
16702,19509
16702,18761
Z" /> 
<path style="fill:#008400; fill-opacity:1.0; 
stroke:#008400; stroke-width:0; stroke-opacity:1; 
stroke-linecap:round; stroke-linejoin:round;fill-rule:evenodd;"
d="M 15953,18761
16268,18761
16268,19509
15953,19509
15953,18761
Z" /> 
</g>
<g >
</g>
<g >
</g>
<g >
</g>
<g >
</g>
<g >
</g>
<g >
</g>
<g >
</g>
<g style="fill:#008400; fill-opacity:1.0; 
stroke:#008400; stroke-width:0; stroke-opacity:1; 
stroke-linecap:round; stroke-linejoin:round;">
<path style="fill:#008400; fill-opacity:1.0; 
stroke:#008400; stroke-width:0; stroke-opacity:1; 
stroke-linecap:round; stroke-linejoin:round;fill-rule:evenodd;"
d="M 13948,11066
13957,11067
13966,11070
13974,11073
13983,11077
13991,11081
13998,11087
14005,11093
14011,11100
14016,11107
14021,11115
14025,11123
14028,11132
14030,11141
14032,11150
14032,11159
14032,11346
14032,11355
14030,11364
14028,11373
14025,11382
14021,11390
14016,11398
14011,11406
14005,11412
13998,11418
13991,11424
13983,11429
13974,11433
13966,11436
13957,11438
13948,11439
13939,11440
13712,11440
13703,11439
13694,11438
13685,11436
13677,11433
13668,11429
13660,11424
13653,11418
13646,11412
13640,11406
13635,11398
13630,11390
13626,11382
13623,11373
13621,11364
13619,11355
13619,11346
13619,11159
13619,11150
13621,11141
13623,11132
13626,11123
13630,11115
13635,11107
13640,11100
13646,11093
13653,11087
13660,11081
13668,11077
13677,11073
13685,11070
13694,11067
13703,11066
13712,11066
13939,11066
13948,11066
Z" /> 
<path style="fill:#008400; fill-opacity:1.0; 
stroke:#008400; stroke-width:0; stroke-opacity:1; 
stroke-linecap:round; stroke-linejoin:round;fill-rule:evenodd;"
d="M 14637,11066
14646,11067
14655,11070
14663,11073
14672,11077
14680,11081
14687,11087
14694,11093
14700,11100
14705,11107
14710,11115
14714,11123
14717,11132
14719,11141
14721,11150
14721,11159
14721,11346
14721,11355
14719,11364
14717,11373
14714,11382
14710,11390
14705,11398
14700,11406
14694,11412
14687,11418
14680,11424
14672,11429
14663,11433
14655,11436
14646,11438
14637,11439
14628,11440
14401,11440
14392,11439
14383,11438
14374,11436
14366,11433
14357,11429
14349,11424
14342,11418
14335,11412
14329,11406
14324,11398
14319,11390
14315,11382
14312,11373
14310,11364
14308,11355
14308,11346
14308,11159
14308,11150
14310,11141
14312,11132
14315,11123
14319,11115
14324,11107
14329,11100
14335,11093
14342,11087
14349,11081
14357,11077
14366,11073
14374,11070
14383,11067
14392,11066
14401,11066
14628,11066
14637,11066
Z" /> 
</g>
<g >
</g>
<g style="fill:#008400; fill-opacity:1.0; 
stroke:#008400; stroke-width:0; stroke-opacity:1; 
stroke-linecap:round; stroke-linejoin:round;">
<path style="fill:#008400; fill-opacity:1.0; 
stroke:#008400; stroke-width:0; stroke-opacity:1; 
stroke-linecap:round; stroke-linejoin:round;fill-rule:evenodd;"
d="M 14401,13692
14410,13693
14419,13696
14427,13699
14436,13703
14443,13707
14451,13713
14458,13719
14464,13726
14469,13733
14474,13741
14478,13749
14481,13758
14483,13767
14485,13776
14485,13785
14485,13972
14485,13981
14483,13990
14481,13999
14478,14008
14474,14016
14469,14024
14464,14031
14458,14038
14451,14044
14443,14050
14436,14055
14427,14059
14419,14062
14410,14064
14401,14065
14391,14066
14165,14066
14156,14065
14147,14064
14138,14062
14129,14059
14121,14055
14113,14050
14106,14044
14099,14038
14093,14031
14087,14024
14083,14016
14079,14008
14076,13999
14073,13990
14072,13981
14072,13972
14072,13785
14072,13776
14073,13767
14076,13758
14079,13749
14083,13741
14087,13733
14093,13726
14099,13719
14106,13713
14113,13707
14121,13703
14129,13699
14138,13696
14147,13693
14156,13692
14165,13692
14391,13692
14401,13692
Z" /> 
<path style="fill:#008400; fill-opacity:1.0; 
stroke:#008400; stroke-width:0; stroke-opacity:1; 
stroke-linecap:round; stroke-linejoin:round;fill-rule:evenodd;"
d="M 15090,13692
15099,13693
15108,13696
15116,13699
15125,13703
15132,13707
15140,13713
15147,13719
15153,13726
15158,13733
15163,13741
15167,13749
15170,13758
15172,13767
15173,13776
15174,13785
15174,13972
15173,13981
15172,13990
15170,13999
15167,14008
15163,14016
15158,14024
15153,14031
15147,14038
15140,14044
15132,14050
15125,14055
15116,14059
15108,14062
15099,14064
15090,14065
15080,14066
14854,14066
14845,14065
14836,14064
14827,14062
14818,14059
14810,14055
14802,14050
14795,14044
14788,14038
14782,14031
14776,14024
14772,14016
14768,14008
14765,13999
14762,13990
14761,13981
14761,13972
14761,13785
14761,13776
14762,13767
14765,13758
14768,13749
14772,13741
14776,13733
14782,13726
14788,13719
14795,13713
14802,13707
14810,13703
14818,13699
14827,13696
14836,13693
14845,13692
14854,13692
15080,13692
15090,13692
Z" /> 
</g>
<g >
</g>
<g style="fill:#008400; fill-opacity:1.0; 
stroke:#008400; stroke-width:0; stroke-opacity:1; 
stroke-linecap:round; stroke-linejoin:round;">
<path style="fill:#008400; fill-opacity:1.0; 
stroke:#008400; stroke-width:0; stroke-opacity:1; 
stroke-linecap:round; stroke-linejoin:round;fill-rule:evenodd;"
d="M 19999,21539
20008,21540
20017,21542
20026,21545
20034,21549
20042,21554
20049,21559
20056,21566
20062,21572
20068,21580
20072,21588
20076,21596
20079,21604
20082,21613
20083,21622
20083,21632
20083,21819
20083,21828
20082,21837
20079,21846
20076,21854
20072,21863
20068,21871
20062,21878
20056,21885
20049,21891
20042,21896
20034,21901
20026,21905
20017,21908
20008,21910
19999,21912
19990,21912
19764,21912
19754,21912
19745,21910
19736,21908
19728,21905
19719,21901
19712,21896
19704,21891
19697,21885
19691,21878
19686,21871
19681,21863
19677,21854
19674,21846
19672,21837
19670,21828
19670,21819
19670,21632
19670,21622
19672,21613
19674,21604
19677,21596
19681,21588
19686,21580
19691,21572
19697,21566
19704,21559
19712,21554
19719,21549
19728,21545
19736,21542
19745,21540
19754,21539
19764,21538
19990,21538
19999,21539
Z" /> 
<path style="fill:#008400; fill-opacity:1.0; 
stroke:#008400; stroke-width:0; stroke-opacity:1; 
stroke-linecap:round; stroke-linejoin:round;fill-rule:evenodd;"
d="M 20688,21539
20697,21540
20706,21542
20715,21545
20723,21549
20731,21554
20738,21559
20745,21566
20751,21572
20757,21580
20761,21588
20765,21596
20768,21604
20771,21613
20772,21622
20772,21632
20772,21819
20772,21828
20771,21837
20768,21846
20765,21854
20761,21863
20757,21871
20751,21878
20745,21885
20738,21891
20731,21896
20723,21901
20715,21905
20706,21908
20697,21910
20688,21912
20679,21912
20452,21912
20443,21912
20434,21910
20425,21908
20417,21905
20408,21901
20401,21896
20393,21891
20386,21885
20380,21878
20375,21871
20370,21863
20366,21854
20363,21846
20361,21837
20359,21828
20359,21819
20359,21632
20359,21622
20361,21613
20363,21604
20366,21596
20370,21588
20375,21580
20380,21572
20386,21566
20393,21559
20401,21554
20408,21549
20417,21545
20425,21542
20434,21540
20443,21539
20452,21538
20679,21538
20688,21539
Z" /> 
</g>
<g >
</g>
<g >
</g>
<g >
</g>
<g >
</g>
<g >
</g>
<g >
</g>
<g >
</g>
<g >
</g>
<g >
</g>
<g >
</g>
<g >
</g>
<g >
</g>
</g>
<g style="fill:#000000; fill-opacity:1.0; 
stroke:#000000; stroke-width:0; stroke-opacity:1; 
stroke-linecap:round; stroke-linejoin:round;">
</g>
<g style="fill:#C2C200; fill-opacity:1.0; 
stroke:#C2C200; stroke-width:0; stroke-opacity:1; 
stroke-linecap:round; stroke-linejoin:round;">
</g>
<g style="fill:#C2C200; fill-opacity:1.0; 
stroke:#C2C200; stroke-width:59.0551; stroke-opacity:1; 
stroke-linecap:round; stroke-linejoin:round;">
</g>
<g style="fill:#C2C200; fill-opacity:0.0; 
stroke:#C2C200; stroke-width:59.0551; stroke-opacity:1; 
stroke-linecap:round; stroke-linejoin:round;">
<path d="M33367 10239
L33367 23139
" />
<path d="M33282 23224
L33367 23139
" />
<path d="M33292 10162
L33367 10239
" />
<path d="M5934 15359
L5934 25138
" />
<path d="M5934 4139
L5934 5471
" />
<path d="M5934 5471
L5934 15359
" />
<path d="M5934 25139
L32367 25139
" />
<path d="M33292 10162
L32367 9239
" />
<path d="M32367 4739
L31767 4139
" />
<path d="M32367 24139
L33282 23224
" />
<path d="M32367 25139
L32367 24139
" />
<path d="M32367 9239
L32367 4739
" />
<path d="M31767 4139
L5934 4139
" />
<g >
</g>
<g >
</g>
<g >
</g>
<g >
</g>
<g >
</g>
<g >
</g>
<g >
</g>
<g >
</g>
<g >
</g>
<g >
</g>
<g >
</g>
<g >
</g>
<g >
</g>
<g >
</g>
<g >
</g>
<g >
</g>
<g >
</g>
<g >
</g>
<g >
</g>
<g >
</g>
<g >
</g>
<g >
</g>
<g >
</g>
<g >
</g>
<g >
</g>
<g >
</g>
<g >
</g>
<g >
</g>
<g >
</g>
<g >
</g>
<g >
</g>
<g >
</g>
<g >
</g>
<g >
</g>
<g >
</g>
<g >
</g>
<g >
</g>
<g >
</g>
<g >
</g>
<g >
</g>
<g >
</g>
<g >
</g>
<g >
</g>
<g >
</g>
<g >
</g>
<g >
</g>
<g >
</g>
<g >
</g>
<g >
</g>
<g >
</g>
<g >
</g>
<g >
</g>
<g >
</g>
<g >
</g>
<g >
</g>
<g >
</g>
<g >
</g>
<g >
</g>
<g >
</g>
<g >
</g>
<g >
</g>
<g >
</g>
<g >
</g>
<g >
</g>
<g >
</g>
<g >
</g>
<g >
</g>
<g >
</g>
<g >
</g>
<g >
</g>
<g >
</g>
<g >
</g>
<g >
</g>
<g >
</g>
<g >
</g>
<g >
</g>
<g >
</g>
<g >
</g>
<g >
</g>
<g >
</g>
<g >
</g>
<g >
</g>
<g >
</g>
<g >
</g>
<g >
</g>
<g >
</g>
<g >
</g>
<g >
</g>
<g >
</g>
<g >
</g>
<g >
</g>
<g >
</g>
<g >
</g>
<g >
</g>
<g >
</g>
<g >
</g>
<g >
</g>
<g >
</g>
<g >
</g>
<g >
</g>
<g >
</g>
<g >
</g>
<g >
</g>
<g >
</g>
<g >
</g>
<g >
</g>
<g >
</g>
<g >
</g>
<g >
</g>
<g >
</g>
<g >
</g>
<g >
</g>
<g >
</g>
<g >
</g>
<g >
</g>
<g >
</g>
<g >
</g>
<g >
</g>
<g >
</g>
<g >
</g>
<g >
</g>
<g >
</g>
<g >
</g>
<g >
</g>
<g >
</g>
<g >
</g>
</g> 
</svg>
