<?xml version="1.0" standalone="no"?>
 <!DOCTYPE svg PUBLIC "-//W3C//DTD SVG 1.1//EN" 
 "http://www.w3.org/Graphics/SVG/1.1/DTD/svg11.dtd"> 
<svg xmlns="http://www.w3.org/2000/svg" version="1.1" 
    width="13.7693cm" height="12.8727cm" viewBox="0 0 54210 50680 ">
<title>SVG Picture created as uno shield v1.0 project SMD-F_Paste.svg date 2020/03/27 07:04:23 </title>
  <desc>Picture generated by PCBNEW </desc>
<g style="fill:#000000; fill-opacity:1;stroke:#000000; stroke-opacity:1;
stroke-linecap:round; stroke-linejoin:round; "
 transform="translate(0 0) scale(1 1)">
</g>
<g style="fill:#000000; fill-opacity:0.0; 
stroke:#000000; stroke-width:-0.000393701; stroke-opacity:1; 
stroke-linecap:round; stroke-linejoin:round;">
</g>
<g style="fill:#26FF16; fill-opacity:0.0; 
stroke:#26FF16; stroke-width:-0.000393701; stroke-opacity:1; 
stroke-linecap:round; stroke-linejoin:round;">
</g>
<g style="fill:#26FF16; fill-opacity:0.0; 
stroke:#26FF16; stroke-width:0.393701; stroke-opacity:1; 
stroke-linecap:round; stroke-linejoin:round;">
<circle cx="32367.4" cy="11139" r="314.961" /> 
<circle cx="32367.4" cy="22139" r="314.961" /> 
<circle cx="12367.4" cy="5139.01" r="314.961" /> 
<circle cx="31367.3" cy="5139.02" r="196.85" /> 
<circle cx="9591.64" cy="4856.05" r="196.85" /> 
<circle cx="31367.4" cy="24139" r="196.85" /> 
<g >
</g>
<g >
</g>
<g >
</g>
<g >
</g>
<g >
</g>
<g >
</g>
<g >
</g>
<g >
</g>
<g >
</g>
<g >
</g>
<g >
</g>
<g >
</g>
<g >
</g>
<g >
</g>
<g >
</g>
<g >
</g>
<g >
</g>
<g >
</g>
<g >
</g>
<g >
</g>
<g >
</g>
<g >
</g>
<g >
</g>
<g >
</g>
<g >
</g>
<g >
</g>
<g >
</g>
<g >
</g>
<g >
</g>
<g >
</g>
<g >
</g>
<g >
</g>
<g >
</g>
<g >
</g>
<g >
</g>
<g >
</g>
<g >
</g>
<g >
</g>
<g >
</g>
<g >
</g>
<g >
</g>
<g >
</g>
<g >
</g>
<g >
</g>
<g >
</g>
<g >
</g>
<g >
</g>
<g >
</g>
<g >
</g>
<g >
</g>
<g >
</g>
<g >
</g>
<g >
</g>
<g >
</g>
<g >
</g>
<g >
</g>
<g >
</g>
<g >
</g>
<g >
</g>
<g >
</g>
<g >
</g>
<g >
</g>
<g >
</g>
<g >
</g>
<g >
</g>
<g >
</g>
<g >
</g>
<g style="fill:#FF080E; fill-opacity:0.0; 
stroke:#FF080E; stroke-width:0.393701; stroke-opacity:1; 
stroke-linecap:round; stroke-linejoin:round;">
</g>
<g style="fill:#FF080E; fill-opacity:0.0; 
stroke:#FF080E; stroke-width:0; stroke-opacity:1; 
stroke-linecap:round; stroke-linejoin:round;">
</g>
<g style="fill:#FF080E; fill-opacity:1.0; 
stroke:#FF080E; stroke-width:0; stroke-opacity:1; 
stroke-linecap:round; stroke-linejoin:round;">
<path style="fill:#FF080E; fill-opacity:1.0; 
stroke:#FF080E; stroke-width:0; stroke-opacity:1; 
stroke-linecap:round; stroke-linejoin:round;fill-rule:evenodd;"
d="M 29126,18867
29134,18869
29142,18871
29150,18873
29158,18877
29165,18881
29172,18886
29178,18892
29184,18898
29189,18905
29193,18912
29197,18920
29200,18928
29202,18936
29203,18945
29203,18953
29203,19125
29203,19134
29202,19142
29200,19150
29197,19158
29193,19166
29189,19173
29184,19180
29178,19186
29172,19192
29165,19197
29158,19201
29150,19205
29142,19208
29134,19210
29126,19211
29117,19211
28916,19211
28907,19211
28899,19210
28891,19208
28883,19205
28875,19201
28868,19197
28861,19192
28855,19186
28849,19180
28844,19173
28840,19166
28836,19158
28833,19150
28831,19142
28830,19134
28829,19125
28829,18953
28830,18945
28831,18936
28833,18928
28836,18920
28840,18912
28844,18905
28849,18898
28855,18892
28861,18886
28868,18881
28875,18877
28883,18873
28891,18871
28899,18869
28907,18867
28916,18867
29117,18867
29126,18867
Z" /> 
<path style="fill:#FF080E; fill-opacity:1.0; 
stroke:#FF080E; stroke-width:0; stroke-opacity:1; 
stroke-linecap:round; stroke-linejoin:round;fill-rule:evenodd;"
d="M 29126,18247
29134,18248
29142,18250
29150,18253
29158,18257
29165,18261
29172,18266
29178,18272
29184,18278
29189,18285
29193,18292
29197,18300
29200,18308
29202,18316
29203,18324
29203,18333
29203,18505
29203,18514
29202,18522
29200,18530
29197,18538
29193,18546
29189,18553
29184,18560
29178,18566
29172,18572
29165,18577
29158,18581
29150,18585
29142,18588
29134,18590
29126,18591
29117,18591
28916,18591
28907,18591
28899,18590
28891,18588
28883,18585
28875,18581
28868,18577
28861,18572
28855,18566
28849,18560
28844,18553
28840,18546
28836,18538
28833,18530
28831,18522
28830,18514
28829,18505
28829,18333
28830,18324
28831,18316
28833,18308
28836,18300
28840,18292
28844,18285
28849,18278
28855,18272
28861,18266
28868,18261
28875,18257
28883,18253
28891,18250
28899,18248
28907,18247
28916,18247
29117,18247
29126,18247
Z" /> 
</g>
<g >
</g>
<g >
</g>
<g >
</g>
<g >
</g>
<g >
</g>
<g >
</g>
<g >
</g>
<g >
</g>
<g >
</g>
<g >
</g>
<g >
</g>
<g >
</g>
<g >
</g>
<g >
</g>
<g style="fill:#FF080E; fill-opacity:1.0; 
stroke:#FF080E; stroke-width:0; stroke-opacity:1; 
stroke-linecap:round; stroke-linejoin:round;">
<path style="fill:#FF080E; fill-opacity:1.0; 
stroke:#FF080E; stroke-width:0; stroke-opacity:1; 
stroke-linecap:round; stroke-linejoin:round;fill-rule:evenodd;"
d="M 16653,18322
16662,18323
16670,18325
16678,18328
16686,18332
16693,18336
16700,18341
16706,18347
16711,18353
16717,18360
16721,18367
16724,18375
16727,18383
16729,18391
16731,18399
16731,18408
16731,18609
16731,18618
16729,18626
16727,18634
16724,18642
16721,18650
16717,18657
16711,18664
16706,18670
16700,18676
16693,18681
16686,18685
16678,18689
16670,18692
16662,18694
16653,18695
16645,18696
16473,18696
16464,18695
16456,18694
16448,18692
16440,18689
16432,18685
16425,18681
16418,18676
16412,18670
16406,18664
16401,18657
16397,18650
16393,18642
16390,18634
16388,18626
16387,18618
16387,18609
16387,18408
16387,18399
16388,18391
16390,18383
16393,18375
16397,18367
16401,18360
16406,18353
16412,18347
16418,18341
16425,18336
16432,18332
16440,18328
16448,18325
16456,18323
16464,18322
16473,18322
16645,18322
16653,18322
Z" /> 
<path style="fill:#FF080E; fill-opacity:1.0; 
stroke:#FF080E; stroke-width:0; stroke-opacity:1; 
stroke-linecap:round; stroke-linejoin:round;fill-rule:evenodd;"
d="M 16033,18322
16042,18323
16050,18325
16058,18328
16065,18332
16073,18336
16079,18341
16086,18347
16091,18353
16096,18360
16101,18367
16104,18375
16107,18383
16109,18391
16111,18399
16111,18408
16111,18609
16111,18618
16109,18626
16107,18634
16104,18642
16101,18650
16096,18657
16091,18664
16086,18670
16079,18676
16073,18681
16065,18685
16058,18689
16050,18692
16042,18694
16033,18695
16025,18696
15853,18696
15844,18695
15836,18694
15828,18692
15820,18689
15812,18685
15805,18681
15798,18676
15792,18670
15786,18664
15781,18657
15777,18650
15773,18642
15770,18634
15768,18626
15767,18618
15766,18609
15766,18408
15767,18399
15768,18391
15770,18383
15773,18375
15777,18367
15781,18360
15786,18353
15792,18347
15798,18341
15805,18336
15812,18332
15820,18328
15828,18325
15836,18323
15844,18322
15853,18322
16025,18322
16033,18322
Z" /> 
</g>
<g >
</g>
<g >
</g>
<g >
</g>
<g >
</g>
<g >
</g>
<g >
</g>
<g >
</g>
<g >
</g>
<g >
</g>
<g >
</g>
<g >
</g>
<g >
</g>
<g >
</g>
<g >
</g>
<g >
</g>
<g >
</g>
<g style="fill:#FF080E; fill-opacity:1.0; 
stroke:#FF080E; stroke-width:0; stroke-opacity:1; 
stroke-linecap:round; stroke-linejoin:round;">
<path style="fill:#FF080E; fill-opacity:1.0; 
stroke:#FF080E; stroke-width:0; stroke-opacity:1; 
stroke-linecap:round; stroke-linejoin:round;fill-rule:evenodd;"
d="M 18228,19620
18237,19621
18245,19624
18253,19626
18260,19630
18268,19634
18274,19639
18281,19645
18286,19651
18291,19658
18296,19665
18299,19673
18302,19681
18304,19689
18305,19697
18306,19706
18306,19878
18305,19887
18304,19895
18302,19903
18299,19911
18296,19919
18291,19926
18286,19933
18281,19939
18274,19945
18268,19950
18260,19954
18253,19958
18245,19961
18237,19963
18228,19964
18220,19964
18018,19964
18010,19964
18001,19963
17993,19961
17985,19958
17977,19954
17970,19950
17963,19945
17957,19939
17951,19933
17946,19926
17942,19919
17938,19911
17936,19903
17933,19895
17932,19887
17932,19878
17932,19706
17932,19697
17933,19689
17936,19681
17938,19673
17942,19665
17946,19658
17951,19651
17957,19645
17963,19639
17970,19634
17977,19630
17985,19626
17993,19624
18001,19621
18010,19620
18018,19620
18220,19620
18228,19620
Z" /> 
<path style="fill:#FF080E; fill-opacity:1.0; 
stroke:#FF080E; stroke-width:0; stroke-opacity:1; 
stroke-linecap:round; stroke-linejoin:round;fill-rule:evenodd;"
d="M 18228,19000
18237,19001
18245,19003
18253,19006
18260,19010
18268,19014
18274,19019
18281,19025
18286,19031
18291,19038
18296,19045
18299,19053
18302,19061
18304,19069
18305,19077
18306,19086
18306,19258
18305,19267
18304,19275
18302,19283
18299,19291
18296,19299
18291,19306
18286,19313
18281,19319
18274,19325
18268,19330
18260,19334
18253,19338
18245,19341
18237,19343
18228,19344
18220,19344
18018,19344
18010,19344
18001,19343
17993,19341
17985,19338
17977,19334
17970,19330
17963,19325
17957,19319
17951,19313
17946,19306
17942,19299
17938,19291
17936,19283
17933,19275
17932,19267
17932,19258
17932,19086
17932,19077
17933,19069
17936,19061
17938,19053
17942,19045
17946,19038
17951,19031
17957,19025
17963,19019
17970,19014
17977,19010
17985,19006
17993,19003
18001,19001
18010,19000
18018,19000
18220,19000
18228,19000
Z" /> 
</g>
<g >
</g>
<g >
</g>
<g >
</g>
<g >
</g>
<g >
</g>
<g >
</g>
<g >
</g>
<g >
</g>
<g style="fill:#FF080E; fill-opacity:1.0; 
stroke:#FF080E; stroke-width:0; stroke-opacity:1; 
stroke-linecap:round; stroke-linejoin:round;">
<path style="fill:#FF080E; fill-opacity:1.0; 
stroke:#FF080E; stroke-width:0; stroke-opacity:1; 
stroke-linecap:round; stroke-linejoin:round;fill-rule:evenodd;"
d="M 15800,19268
15800,18953
16548,18953
16548,19268
15800,19268
Z" /> 
<path style="fill:#FF080E; fill-opacity:1.0; 
stroke:#FF080E; stroke-width:0; stroke-opacity:1; 
stroke-linecap:round; stroke-linejoin:round;fill-rule:evenodd;"
d="M 15800,20016
15800,19702
16548,19702
16548,20016
15800,20016
Z" /> 
<path style="fill:#FF080E; fill-opacity:1.0; 
stroke:#FF080E; stroke-width:0; stroke-opacity:1; 
stroke-linecap:round; stroke-linejoin:round;fill-rule:evenodd;"
d="M 16981,19642
16981,19327
17729,19327
17729,19642
16981,19642
Z" /> 
</g>
<g >
</g>
<g >
</g>
<g >
</g>
<g >
</g>
<g >
</g>
<g >
</g>
<g >
</g>
<g >
</g>
<g >
</g>
<g >
</g>
<g >
</g>
<g >
</g>
<g style="fill:#FF080E; fill-opacity:1.0; 
stroke:#FF080E; stroke-width:0; stroke-opacity:1; 
stroke-linecap:round; stroke-linejoin:round;">
<path style="fill:#FF080E; fill-opacity:1.0; 
stroke:#FF080E; stroke-width:0; stroke-opacity:1; 
stroke-linecap:round; stroke-linejoin:round;fill-rule:evenodd;"
d="M 32407,15893
32416,15894
32425,15896
32433,15900
32441,15903
32449,15908
32457,15914
32463,15920
32470,15927
32475,15934
32480,15942
32484,15950
32487,15959
32489,15968
32490,15977
32491,15986
32491,16212
32490,16221
32489,16231
32487,16239
32484,16248
32480,16256
32475,16264
32470,16272
32463,16278
32457,16285
32449,16290
32441,16295
32433,16299
32425,16302
32416,16304
32407,16305
32397,16306
32210,16306
32201,16305
32192,16304
32183,16302
32175,16299
32166,16295
32158,16290
32151,16285
32144,16278
32138,16272
32133,16264
32128,16256
32124,16248
32121,16239
32119,16231
32117,16221
32117,16212
32117,15986
32117,15977
32119,15968
32121,15959
32124,15950
32128,15942
32133,15934
32138,15927
32144,15920
32151,15914
32158,15908
32166,15903
32175,15900
32183,15896
32192,15894
32201,15893
32210,15892
32397,15892
32407,15893
Z" /> 
<path style="fill:#FF080E; fill-opacity:1.0; 
stroke:#FF080E; stroke-width:0; stroke-opacity:1; 
stroke-linecap:round; stroke-linejoin:round;fill-rule:evenodd;"
d="M 32407,16582
32416,16583
32425,16585
32433,16589
32441,16592
32449,16597
32457,16603
32463,16609
32470,16616
32475,16623
32480,16631
32484,16639
32487,16648
32489,16657
32490,16666
32491,16675
32491,16901
32490,16910
32489,16920
32487,16928
32484,16937
32480,16945
32475,16953
32470,16961
32463,16967
32457,16974
32449,16979
32441,16984
32433,16988
32425,16991
32416,16993
32407,16994
32397,16995
32210,16995
32201,16994
32192,16993
32183,16991
32175,16988
32166,16984
32158,16979
32151,16974
32144,16967
32138,16961
32133,16953
32128,16945
32124,16937
32121,16928
32119,16920
32117,16910
32117,16901
32117,16675
32117,16666
32119,16657
32121,16648
32124,16639
32128,16631
32133,16623
32138,16616
32144,16609
32151,16603
32158,16597
32166,16592
32175,16589
32183,16585
32192,16583
32201,16582
32210,16581
32397,16581
32407,16582
Z" /> 
</g>
<g >
</g>
<g >
</g>
<g >
</g>
<g >
</g>
<g >
</g>
<g >
</g>
<g >
</g>
<g >
</g>
<g >
</g>
<g >
</g>
<g >
</g>
</g>
<g style="fill:#000000; fill-opacity:1.0; 
stroke:#000000; stroke-width:0; stroke-opacity:1; 
stroke-linecap:round; stroke-linejoin:round;">
</g>
<g style="fill:#C2C200; fill-opacity:1.0; 
stroke:#C2C200; stroke-width:0; stroke-opacity:1; 
stroke-linecap:round; stroke-linejoin:round;">
</g>
<g style="fill:#C2C200; fill-opacity:1.0; 
stroke:#C2C200; stroke-width:59.0551; stroke-opacity:1; 
stroke-linecap:round; stroke-linejoin:round;">
</g>
<g style="fill:#C2C200; fill-opacity:0.0; 
stroke:#C2C200; stroke-width:59.0551; stroke-opacity:1; 
stroke-linecap:round; stroke-linejoin:round;">
<path d="M33367 10239
L33367 23139
" />
<path d="M33282 23224
L33367 23139
" />
<path d="M33292 10162
L33367 10239
" />
<path d="M5934 15359
L5934 25138
" />
<path d="M5934 4139
L5934 5471
" />
<path d="M5934 5471
L5934 15359
" />
<path d="M5934 25139
L32367 25139
" />
<path d="M33292 10162
L32367 9239
" />
<path d="M32367 4739
L31767 4139
" />
<path d="M32367 24139
L33282 23224
" />
<path d="M32367 25139
L32367 24139
" />
<path d="M32367 9239
L32367 4739
" />
<path d="M31767 4139
L5934 4139
" />
<g >
</g>
<g >
</g>
<g >
</g>
<g >
</g>
<g >
</g>
<g >
</g>
<g >
</g>
<g >
</g>
<g >
</g>
<g >
</g>
<g >
</g>
<g >
</g>
<g >
</g>
<g >
</g>
<g >
</g>
<g >
</g>
<g >
</g>
<g >
</g>
<g >
</g>
<g >
</g>
<g >
</g>
<g >
</g>
<g >
</g>
<g >
</g>
<g >
</g>
<g >
</g>
<g >
</g>
<g >
</g>
<g >
</g>
<g >
</g>
<g >
</g>
<g >
</g>
<g >
</g>
<g >
</g>
<g >
</g>
<g >
</g>
<g >
</g>
<g >
</g>
<g >
</g>
<g >
</g>
<g >
</g>
<g >
</g>
<g >
</g>
<g >
</g>
<g >
</g>
<g >
</g>
<g >
</g>
<g >
</g>
<g >
</g>
<g >
</g>
<g >
</g>
<g >
</g>
<g >
</g>
<g >
</g>
<g >
</g>
<g >
</g>
<g >
</g>
<g >
</g>
<g >
</g>
<g >
</g>
<g >
</g>
<g >
</g>
<g >
</g>
<g >
</g>
<g >
</g>
<g >
</g>
<g >
</g>
<g >
</g>
<g >
</g>
<g >
</g>
<g >
</g>
<g >
</g>
<g >
</g>
<g >
</g>
<g >
</g>
<g >
</g>
<g >
</g>
<g >
</g>
<g >
</g>
<g >
</g>
<g >
</g>
<g >
</g>
<g >
</g>
<g >
</g>
<g >
</g>
<g >
</g>
<g >
</g>
<g >
</g>
<g >
</g>
<g >
</g>
<g >
</g>
<g >
</g>
<g >
</g>
<g >
</g>
<g >
</g>
<g >
</g>
<g >
</g>
<g >
</g>
<g >
</g>
<g >
</g>
<g >
</g>
<g >
</g>
<g >
</g>
<g >
</g>
<g >
</g>
<g >
</g>
<g >
</g>
<g >
</g>
<g >
</g>
<g >
</g>
<g >
</g>
<g >
</g>
<g >
</g>
<g >
</g>
<g >
</g>
<g >
</g>
<g >
</g>
<g >
</g>
<g >
</g>
<g >
</g>
<g >
</g>
<g >
</g>
<g >
</g>
<g >
</g>
<g >
</g>
<g >
</g>
</g> 
</svg>
