<?xml version="1.0" standalone="no"?>
 <!DOCTYPE svg PUBLIC "-//W3C//DTD SVG 1.1//EN" 
 "http://www.w3.org/Graphics/SVG/1.1/DTD/svg11.dtd"> 
<svg xmlns="http://www.w3.org/2000/svg" version="1.1" 
    width="13.8303cm" height="6.22046cm" viewBox="0 0 54450 24490 ">
<title>SVG Picture created as uno shield-B_Paste.svg date 2019/06/13 13:46:26 </title>
  <desc>Picture generated by PCBNEW </desc>
<g style="fill:#000000; fill-opacity:1;stroke:#000000; stroke-opacity:1;
stroke-linecap:round; stroke-linejoin:round; "
 transform="translate(0 0) scale(1 1)">
</g>
<g style="fill:#000000; fill-opacity:0.0; 
stroke:#000000; stroke-width:-0.000393701; stroke-opacity:1; 
stroke-linecap:round; stroke-linejoin:round;">
</g>
<g style="fill:#0B00C2; fill-opacity:0.0; 
stroke:#0B00C2; stroke-width:-0.000393701; stroke-opacity:1; 
stroke-linecap:round; stroke-linejoin:round;">
</g>
<g style="fill:#0B00C2; fill-opacity:0.0; 
stroke:#0B00C2; stroke-width:31.4961; stroke-opacity:1; 
stroke-linecap:round; stroke-linejoin:round;">
<circle cx="39963.8" cy="12267.2" r="124.128" /> 
<circle cx="40889" cy="12174" r="124.128" /> 
<circle cx="41304.2" cy="12113.3" r="124.128" /> 
<circle cx="41947" cy="11357.5" r="124.128" /> 
<circle cx="42467.6" cy="11442.7" r="124.128" /> 
<circle cx="42883.8" cy="11491.6" r="124.128" /> 
<circle cx="43136.7" cy="11872.7" r="124.128" /> 
<circle cx="42063.6" cy="12541.4" r="124.128" /> 
<circle cx="41619.8" cy="12826.8" r="124.128" /> 
<circle cx="41275.7" cy="13065.2" r="124.128" /> 
<circle cx="43324.7" cy="12482.8" r="124.128" /> 
<circle cx="43283.9" cy="12890.8" r="124.128" /> 
<circle cx="43260.9" cy="13216.8" r="124.128" /> 
<circle cx="43058.4" cy="13463.9" r="124.128" /> 
<circle cx="42559.8" cy="13751" r="124.128" /> 
<circle cx="42055.8" cy="13753.1" r="124.128" /> 
<circle cx="39056.9" cy="13696.5" r="124.128" /> 
<circle cx="40467.3" cy="13714" r="124.128" /> 
<circle cx="40970.4" cy="13928.1" r="124.128" /> 
<circle cx="40657.8" cy="14181.9" r="124.128" /> 
<circle cx="40637.4" cy="14888.9" r="124.128" /> 
<circle cx="41554.3" cy="14758.3" r="124.128" /> 
<circle cx="41294.7" cy="15058" r="124.128" /> 
<circle cx="43156.6" cy="15684.3" r="124.128" /> 
<circle cx="42945.4" cy="16153.9" r="124.128" /> 
<circle cx="43177" cy="16729.6" r="124.128" /> 
<circle cx="42055.3" cy="17810.9" r="124.128" /> 
<circle cx="41176.9" cy="17858.5" r="124.128" /> 
<circle cx="40269.7" cy="18603.6" r="124.128" /> 
<circle cx="39754.8" cy="18094.7" r="124.128" /> 
<circle cx="39289.1" cy="18208.4" r="124.128" /> 
<circle cx="40067.3" cy="15160.2" r="124.128" /> 
<circle cx="39710.3" cy="14749.8" r="124.128" /> 
<circle cx="39570.4" cy="16842.5" r="124.128" /> 
<circle cx="38902.1" cy="16757" r="124.128" /> 
<circle cx="38416.6" cy="16712" r="124.128" /> 
<circle cx="38304.7" cy="16294.1" r="124.128" /> 
<circle cx="37910.8" cy="16333.6" r="124.128" /> 
<circle cx="37709.4" cy="15805" r="124.128" /> 
<circle cx="37614.6" cy="14508.5" r="124.128" /> 
<circle cx="38001.7" cy="12972.4" r="124.128" /> 
<circle cx="38404.6" cy="12312.8" r="124.128" /> 
<circle cx="37997.9" cy="12266.2" r="124.128" /> 
<circle cx="37995.8" cy="11040.5" r="124.128" /> 
<circle cx="35842" cy="11650.2" r="124.128" /> 
<circle cx="34923.4" cy="11134" r="124.128" /> 
<circle cx="33863.3" cy="12784.2" r="124.128" /> 
<circle cx="34445.7" cy="12767" r="124.128" /> 
<circle cx="34564.6" cy="13103.1" r="124.128" /> 
<circle cx="34906.1" cy="13201" r="124.128" /> 
<circle cx="35875.2" cy="13534.4" r="124.128" /> 
<circle cx="34948.1" cy="13892.5" r="124.128" /> 
<circle cx="34552.5" cy="14045.9" r="124.128" /> 
<circle cx="36014.8" cy="15112.7" r="124.128" /> 
<circle cx="37022.8" cy="15805" r="124.128" /> 
<circle cx="37577.6" cy="16882.1" r="124.128" /> 
<circle cx="37588.2" cy="17555.2" r="124.128" /> 
<circle cx="37244.6" cy="17258.4" r="124.128" /> 
<circle cx="37724.1" cy="18218.5" r="124.128" /> 
<circle cx="34714.3" cy="15141.8" r="124.128" /> 
<circle cx="33915.6" cy="15757.2" r="124.128" /> 
<circle cx="36462.8" cy="18059.7" r="124.128" /> 
<circle cx="35570" cy="17463.6" r="124.128" /> 
<circle cx="36673.4" cy="17425.8" r="124.128" /> 
<circle cx="40354.2" cy="11040.6" r="124.128" /> 
<g >
</g>
<g >
</g>
<g >
</g>
<g >
</g>
<g >
</g>
<g >
</g>
<g >
</g>
<g >
</g>
<g >
</g>
<g style="fill:#008400; fill-opacity:0.0; 
stroke:#008400; stroke-width:31.4961; stroke-opacity:1; 
stroke-linecap:round; stroke-linejoin:round;">
</g>
<g style="fill:#008400; fill-opacity:0.0; 
stroke:#008400; stroke-width:0; stroke-opacity:1; 
stroke-linecap:round; stroke-linejoin:round;">
</g>
<g style="fill:#008400; fill-opacity:1.0; 
stroke:#008400; stroke-width:0; stroke-opacity:1; 
stroke-linecap:round; stroke-linejoin:round;">
<path style="fill:#008400; fill-opacity:1.0; 
stroke:#008400; stroke-width:0; stroke-opacity:1; 
stroke-linecap:round; stroke-linejoin:round;fill-rule:evenodd;"
d="M 37935,12513
37941,12514
37946,12515
37952,12517
37957,12520
37962,12523
37966,12526
37970,12530
37974,12534
37978,12539
37981,12544
37983,12549
37985,12554
37986,12560
37987,12565
37987,12571
37987,12707
37987,12712
37986,12718
37985,12724
37983,12729
37981,12734
37978,12739
37974,12744
37970,12748
37966,12752
37962,12755
37957,12758
37952,12760
37946,12762
37941,12764
37935,12765
37929,12765
37813,12765
37808,12765
37802,12764
37796,12762
37791,12760
37786,12758
37781,12755
37776,12752
37772,12748
37768,12744
37765,12739
37762,12734
37760,12729
37758,12724
37756,12718
37755,12712
37755,12707
37755,12571
37755,12565
37756,12560
37758,12554
37760,12549
37762,12544
37765,12539
37768,12534
37772,12530
37776,12526
37781,12523
37786,12520
37791,12517
37796,12515
37802,12514
37808,12513
37813,12513
37929,12513
37935,12513
Z" /> 
<path style="fill:#008400; fill-opacity:1.0; 
stroke:#008400; stroke-width:0; stroke-opacity:1; 
stroke-linecap:round; stroke-linejoin:round;fill-rule:evenodd;"
d="M 38317,12513
38323,12514
38328,12515
38333,12517
38339,12520
38343,12523
38348,12526
38352,12530
38356,12534
38360,12539
38362,12544
38365,12549
38367,12554
38368,12560
38369,12565
38369,12571
38369,12707
38369,12712
38368,12718
38367,12724
38365,12729
38362,12734
38360,12739
38356,12744
38352,12748
38348,12752
38343,12755
38339,12758
38333,12760
38328,12762
38323,12764
38317,12765
38311,12765
38195,12765
38189,12765
38184,12764
38178,12762
38173,12760
38168,12758
38163,12755
38158,12752
38154,12748
38150,12744
38147,12739
38144,12734
38141,12729
38140,12724
38138,12718
38137,12712
38137,12707
38137,12571
38137,12565
38138,12560
38140,12554
38141,12549
38144,12544
38147,12539
38150,12534
38154,12530
38158,12526
38163,12523
38168,12520
38173,12517
38178,12515
38184,12514
38189,12513
38195,12513
38311,12513
38317,12513
Z" /> 
</g>
<g >
</g>
<g >
<path style="fill:#008400; fill-opacity:1.0; 
stroke:#008400; stroke-width:0; stroke-opacity:1; 
stroke-linecap:round; stroke-linejoin:round;fill-rule:evenodd;"
d="M 37798,15108
37808,15109
37817,15112
37826,15115
37834,15119
37842,15124
37850,15129
37857,15136
37863,15142
37869,15150
37874,15158
37878,15167
37881,15176
37883,15185
37885,15194
37885,15203
37885,15563
37885,15572
37883,15581
37881,15590
37878,15599
37874,15608
37869,15616
37863,15623
37857,15630
37850,15637
37842,15642
37834,15647
37826,15651
37817,15654
37808,15657
37798,15658
37789,15659
37597,15659
37588,15658
37578,15657
37569,15654
37560,15651
37552,15647
37544,15642
37536,15637
37529,15630
37523,15623
37517,15616
37513,15608
37508,15599
37505,15590
37503,15581
37502,15572
37501,15563
37501,15203
37502,15194
37503,15185
37505,15176
37508,15167
37513,15158
37517,15150
37523,15142
37529,15136
37536,15129
37544,15124
37552,15119
37560,15115
37569,15112
37578,15109
37588,15108
37597,15107
37789,15107
37798,15108
Z" /> 
<path style="fill:#008400; fill-opacity:1.0; 
stroke:#008400; stroke-width:0; stroke-opacity:1; 
stroke-linecap:round; stroke-linejoin:round;fill-rule:evenodd;"
d="M 38537,15108
38546,15109
38555,15112
38564,15115
38573,15119
38581,15124
38588,15129
38595,15136
38601,15142
38607,15150
38612,15158
38616,15167
38619,15176
38621,15185
38623,15194
38623,15203
38623,15563
38623,15572
38621,15581
38619,15590
38616,15599
38612,15608
38607,15616
38601,15623
38595,15630
38588,15637
38581,15642
38573,15647
38564,15651
38555,15654
38546,15657
38537,15658
38527,15659
38335,15659
38326,15658
38317,15657
38307,15654
38299,15651
38290,15647
38282,15642
38274,15637
38267,15630
38261,15623
38256,15616
38251,15608
38247,15599
38244,15590
38241,15581
38240,15572
38239,15563
38239,15203
38240,15194
38241,15185
38244,15176
38247,15167
38251,15158
38256,15150
38261,15142
38267,15136
38274,15129
38282,15124
38290,15119
38299,15115
38307,15112
38317,15109
38326,15108
38335,15107
38527,15107
38537,15108
Z" /> 
</g>
<g >
<path style="fill:#008400; fill-opacity:1.0; 
stroke:#008400; stroke-width:0; stroke-opacity:1; 
stroke-linecap:round; stroke-linejoin:round;fill-rule:evenodd;"
d="M 27424,2618
27432,2619
27440,2621
27448,2624
27456,2627
27463,2632
27470,2637
27476,2642
27482,2649
27487,2656
27491,2663
27495,2670
27497,2678
27500,2687
27501,2695
27501,2703
27501,2905
27501,2914
27500,2922
27497,2930
27495,2938
27491,2946
27487,2953
27482,2960
27476,2966
27470,2972
27463,2977
27456,2981
27448,2985
27440,2988
27432,2990
27424,2991
27415,2991
27243,2991
27234,2991
27226,2990
27218,2988
27210,2985
27202,2981
27195,2977
27188,2972
27182,2966
27176,2960
27171,2953
27167,2946
27163,2938
27160,2930
27158,2922
27157,2914
27157,2905
27157,2703
27157,2695
27158,2687
27160,2678
27163,2670
27167,2663
27171,2656
27176,2649
27182,2642
27188,2637
27195,2632
27202,2627
27210,2624
27218,2621
27226,2619
27234,2618
27243,2617
27415,2617
27424,2618
Z" /> 
<path style="fill:#008400; fill-opacity:1.0; 
stroke:#008400; stroke-width:0; stroke-opacity:1; 
stroke-linecap:round; stroke-linejoin:round;fill-rule:evenodd;"
d="M 26803,2618
26812,2619
26820,2621
26828,2624
26836,2627
26843,2632
26850,2637
26856,2642
26862,2649
26867,2656
26871,2663
26875,2670
26877,2678
26879,2687
26881,2695
26881,2703
26881,2905
26881,2914
26879,2922
26877,2930
26875,2938
26871,2946
26867,2953
26862,2960
26856,2966
26850,2972
26843,2977
26836,2981
26828,2985
26820,2988
26812,2990
26803,2991
26795,2991
26623,2991
26614,2991
26606,2990
26598,2988
26590,2985
26582,2981
26575,2977
26568,2972
26562,2966
26556,2960
26551,2953
26547,2946
26543,2938
26540,2930
26538,2922
26537,2914
26537,2905
26537,2703
26537,2695
26538,2687
26540,2678
26543,2670
26547,2663
26551,2656
26556,2649
26562,2642
26568,2637
26575,2632
26582,2627
26590,2624
26598,2621
26606,2619
26614,2618
26623,2617
26795,2617
26803,2618
Z" /> 
</g>
<g >
</g>
<g >
</g>
<g >
<path style="fill:#008400; fill-opacity:1.0; 
stroke:#008400; stroke-width:0; stroke-opacity:1; 
stroke-linecap:round; stroke-linejoin:round;fill-rule:evenodd;"
d="M 28154,2393
28162,2394
28170,2397
28178,2399
28186,2403
28193,2407
28200,2412
28206,2418
28212,2424
28217,2431
28221,2438
28225,2446
28228,2454
28230,2462
28231,2471
28232,2479
28232,2681
28231,2689
28230,2698
28228,2706
28225,2714
28221,2721
28217,2729
28212,2735
28206,2742
28200,2747
28193,2752
28186,2757
28178,2760
28170,2763
28162,2765
28154,2766
28145,2767
27973,2767
27965,2766
27956,2765
27948,2763
27940,2760
27933,2757
27925,2752
27919,2747
27912,2742
27907,2735
27902,2729
27897,2721
27894,2714
27891,2706
27889,2698
27887,2689
27887,2681
27887,2479
27887,2471
27889,2462
27891,2454
27894,2446
27897,2438
27902,2431
27907,2424
27912,2418
27919,2412
27925,2407
27933,2403
27940,2399
27948,2397
27956,2394
27965,2393
27973,2393
28145,2393
28154,2393
Z" /> 
<path style="fill:#008400; fill-opacity:1.0; 
stroke:#008400; stroke-width:0; stroke-opacity:1; 
stroke-linecap:round; stroke-linejoin:round;fill-rule:evenodd;"
d="M 28774,2393
28782,2394
28790,2397
28798,2399
28806,2403
28813,2407
28820,2412
28826,2418
28832,2424
28837,2431
28841,2438
28845,2446
28848,2454
28850,2462
28851,2471
28852,2479
28852,2681
28851,2689
28850,2698
28848,2706
28845,2714
28841,2721
28837,2729
28832,2735
28826,2742
28820,2747
28813,2752
28806,2757
28798,2760
28790,2763
28782,2765
28774,2766
28765,2767
28593,2767
28585,2766
28576,2765
28568,2763
28560,2760
28553,2757
28545,2752
28539,2747
28532,2742
28527,2735
28522,2729
28517,2721
28514,2714
28511,2706
28509,2698
28508,2689
28507,2681
28507,2479
28508,2471
28509,2462
28511,2454
28514,2446
28517,2438
28522,2431
28527,2424
28532,2418
28539,2412
28545,2407
28553,2403
28560,2399
28568,2397
28576,2394
28585,2393
28593,2393
28765,2393
28774,2393
Z" /> 
</g>
<g >
<path style="fill:#008400; fill-opacity:1.0; 
stroke:#008400; stroke-width:0; stroke-opacity:1; 
stroke-linecap:round; stroke-linejoin:round;fill-rule:evenodd;"
d="M 27112,5137
27121,5139
27129,5141
27137,5143
27145,5147
27152,5151
27159,5156
27165,5162
27171,5168
27176,5175
27180,5182
27184,5190
27186,5198
27189,5206
27190,5215
27190,5223
27190,5425
27190,5433
27189,5442
27186,5450
27184,5458
27180,5465
27176,5473
27171,5479
27165,5486
27159,5491
27152,5496
27145,5501
27137,5504
27129,5507
27121,5509
27112,5511
27104,5511
26932,5511
26923,5511
26915,5509
26907,5507
26899,5504
26891,5501
26884,5496
26877,5491
26871,5486
26865,5479
26860,5473
26856,5465
26852,5458
26849,5450
26847,5442
26846,5433
26846,5425
26846,5223
26846,5215
26847,5206
26849,5198
26852,5190
26856,5182
26860,5175
26865,5168
26871,5162
26877,5156
26884,5151
26891,5147
26899,5143
26907,5141
26915,5139
26923,5137
26932,5137
27104,5137
27112,5137
Z" /> 
<path style="fill:#008400; fill-opacity:1.0; 
stroke:#008400; stroke-width:0; stroke-opacity:1; 
stroke-linecap:round; stroke-linejoin:round;fill-rule:evenodd;"
d="M 26492,5137
26501,5139
26509,5141
26517,5143
26525,5147
26532,5151
26539,5156
26545,5162
26551,5168
26556,5175
26560,5182
26564,5190
26566,5198
26568,5206
26570,5215
26570,5223
26570,5425
26570,5433
26568,5442
26566,5450
26564,5458
26560,5465
26556,5473
26551,5479
26545,5486
26539,5491
26532,5496
26525,5501
26517,5504
26509,5507
26501,5509
26492,5511
26484,5511
26312,5511
26303,5511
26295,5509
26287,5507
26279,5504
26271,5501
26264,5496
26257,5491
26251,5486
26245,5479
26240,5473
26236,5465
26232,5458
26229,5450
26227,5442
26226,5433
26226,5425
26226,5223
26226,5215
26227,5206
26229,5198
26232,5190
26236,5182
26240,5175
26245,5168
26251,5162
26257,5156
26264,5151
26271,5147
26279,5143
26287,5141
26295,5139
26303,5137
26312,5137
26484,5137
26492,5137
Z" /> 
</g>
<g >
</g>
<g >
<path style="fill:#008400; fill-opacity:1.0; 
stroke:#008400; stroke-width:0; stroke-opacity:1; 
stroke-linecap:round; stroke-linejoin:round;fill-rule:evenodd;"
d="M 45286,11610
45294,11611
45302,11613
45310,11616
45318,11620
45325,11624
45332,11629
45338,11635
45344,11641
45349,11648
45353,11655
45357,11663
45360,11670
45362,11679
45363,11687
45363,11695
45363,11897
45363,11906
45362,11914
45360,11922
45357,11930
45353,11938
45349,11945
45344,11952
45338,11958
45332,11964
45325,11969
45318,11973
45310,11977
45302,11980
45294,11982
45286,11983
45277,11983
45105,11983
45097,11983
45088,11982
45080,11980
45072,11977
45064,11973
45057,11969
45050,11964
45044,11958
45038,11952
45033,11945
45029,11938
45025,11930
45023,11922
45021,11914
45019,11906
45019,11897
45019,11695
45019,11687
45021,11679
45023,11670
45025,11663
45029,11655
45033,11648
45038,11641
45044,11635
45050,11629
45057,11624
45064,11620
45072,11616
45080,11613
45088,11611
45097,11610
45105,11609
45277,11609
45286,11610
Z" /> 
<path style="fill:#008400; fill-opacity:1.0; 
stroke:#008400; stroke-width:0; stroke-opacity:1; 
stroke-linecap:round; stroke-linejoin:round;fill-rule:evenodd;"
d="M 44666,11610
44674,11611
44682,11613
44690,11616
44698,11620
44705,11624
44712,11629
44718,11635
44724,11641
44729,11648
44733,11655
44737,11663
44740,11670
44742,11679
44743,11687
44743,11695
44743,11897
44743,11906
44742,11914
44740,11922
44737,11930
44733,11938
44729,11945
44724,11952
44718,11958
44712,11964
44705,11969
44698,11973
44690,11977
44682,11980
44674,11982
44666,11983
44657,11983
44485,11983
44477,11983
44468,11982
44460,11980
44452,11977
44444,11973
44437,11969
44430,11964
44424,11958
44418,11952
44413,11945
44409,11938
44405,11930
44403,11922
44400,11914
44399,11906
44399,11897
44399,11695
44399,11687
44400,11679
44403,11670
44405,11663
44409,11655
44413,11648
44418,11641
44424,11635
44430,11629
44437,11624
44444,11620
44452,11616
44460,11613
44468,11611
44477,11610
44485,11609
44657,11609
44666,11610
Z" /> 
</g>
<g >
<path style="fill:#008400; fill-opacity:1.0; 
stroke:#008400; stroke-width:0; stroke-opacity:1; 
stroke-linecap:round; stroke-linejoin:round;fill-rule:evenodd;"
d="M 43511,19039
43519,19040
43528,19042
43536,19045
43543,19049
43551,19053
43557,19058
43564,19064
43569,19070
43574,19077
43579,19084
43582,19092
43585,19100
43587,19108
43588,19116
43589,19125
43589,19326
43588,19335
43587,19343
43585,19351
43582,19359
43579,19367
43574,19374
43569,19381
43564,19387
43557,19393
43551,19398
43543,19402
43536,19406
43528,19409
43519,19411
43511,19412
43503,19413
43330,19413
43322,19412
43314,19411
43305,19409
43297,19406
43290,19402
43283,19398
43276,19393
43270,19387
43264,19381
43259,19374
43254,19367
43251,19359
43248,19351
43246,19343
43245,19335
43244,19326
43244,19125
43245,19116
43246,19108
43248,19100
43251,19092
43254,19084
43259,19077
43264,19070
43270,19064
43276,19058
43283,19053
43290,19049
43297,19045
43305,19042
43314,19040
43322,19039
43330,19038
43503,19038
43511,19039
Z" /> 
<path style="fill:#008400; fill-opacity:1.0; 
stroke:#008400; stroke-width:0; stroke-opacity:1; 
stroke-linecap:round; stroke-linejoin:round;fill-rule:evenodd;"
d="M 42891,19039
42899,19040
42908,19042
42916,19045
42923,19049
42930,19053
42937,19058
42943,19064
42949,19070
42954,19077
42959,19084
42962,19092
42965,19100
42967,19108
42968,19116
42969,19125
42969,19326
42968,19335
42967,19343
42965,19351
42962,19359
42959,19367
42954,19374
42949,19381
42943,19387
42937,19393
42930,19398
42923,19402
42916,19406
42908,19409
42899,19411
42891,19412
42883,19413
42710,19413
42702,19412
42694,19411
42685,19409
42677,19406
42670,19402
42662,19398
42656,19393
42649,19387
42644,19381
42639,19374
42634,19367
42631,19359
42628,19351
42626,19343
42625,19335
42624,19326
42624,19125
42625,19116
42626,19108
42628,19100
42631,19092
42634,19084
42639,19077
42644,19070
42649,19064
42656,19058
42662,19053
42670,19049
42677,19045
42685,19042
42694,19040
42702,19039
42710,19038
42883,19038
42891,19039
Z" /> 
</g>
<g >
</g>
<g >
</g>
<g >
</g>
<g >
</g>
<g >
</g>
<g >
</g>
<g >
</g>
<g >
</g>
<g >
</g>
<g >
</g>
<g >
</g>
<g >
</g>
<g >
<path style="fill:#008400; fill-opacity:1.0; 
stroke:#008400; stroke-width:0; stroke-opacity:1; 
stroke-linecap:round; stroke-linejoin:round;fill-rule:evenodd;"
d="M 28220,4907
27905,4907
27905,4159
28220,4159
28220,4907
Z" /> 
<path style="fill:#008400; fill-opacity:1.0; 
stroke:#008400; stroke-width:0; stroke-opacity:1; 
stroke-linecap:round; stroke-linejoin:round;fill-rule:evenodd;"
d="M 27846,6088
27531,6088
27531,5340
27846,5340
27846,6088
Z" /> 
<path style="fill:#008400; fill-opacity:1.0; 
stroke:#008400; stroke-width:0; stroke-opacity:1; 
stroke-linecap:round; stroke-linejoin:round;fill-rule:evenodd;"
d="M 28594,6088
28279,6088
28279,5340
28594,5340
28594,6088
Z" /> 
</g>
<g >
<path style="fill:#008400; fill-opacity:1.0; 
stroke:#008400; stroke-width:0; stroke-opacity:1; 
stroke-linecap:round; stroke-linejoin:round;fill-rule:evenodd;"
d="M 28846,6722
28846,7037
28098,7037
28098,6722
28846,6722
Z" /> 
<path style="fill:#008400; fill-opacity:1.0; 
stroke:#008400; stroke-width:0; stroke-opacity:1; 
stroke-linecap:round; stroke-linejoin:round;fill-rule:evenodd;"
d="M 30027,7096
30027,7411
29279,7411
29279,7096
30027,7096
Z" /> 
<path style="fill:#008400; fill-opacity:1.0; 
stroke:#008400; stroke-width:0; stroke-opacity:1; 
stroke-linecap:round; stroke-linejoin:round;fill-rule:evenodd;"
d="M 30027,6348
30027,6663
29279,6663
29279,6348
30027,6348
Z" /> 
</g>
<g >
<path style="fill:#008400; fill-opacity:1.0; 
stroke:#008400; stroke-width:0; stroke-opacity:1; 
stroke-linecap:round; stroke-linejoin:round;fill-rule:evenodd;"
d="M 25401,1631
25086,1631
25086,883
25401,883
25401,1631
Z" /> 
<path style="fill:#008400; fill-opacity:1.0; 
stroke:#008400; stroke-width:0; stroke-opacity:1; 
stroke-linecap:round; stroke-linejoin:round;fill-rule:evenodd;"
d="M 25027,2812
24712,2812
24712,2064
25027,2064
25027,2812
Z" /> 
<path style="fill:#008400; fill-opacity:1.0; 
stroke:#008400; stroke-width:0; stroke-opacity:1; 
stroke-linecap:round; stroke-linejoin:round;fill-rule:evenodd;"
d="M 25775,2812
25460,2812
25460,2064
25775,2064
25775,2812
Z" /> 
</g>
<g >
<path style="fill:#008400; fill-opacity:1.0; 
stroke:#008400; stroke-width:0; stroke-opacity:1; 
stroke-linecap:round; stroke-linejoin:round;fill-rule:evenodd;"
d="M 24802,4202
25117,4202
25117,4950
24802,4950
24802,4202
Z" /> 
<path style="fill:#008400; fill-opacity:1.0; 
stroke:#008400; stroke-width:0; stroke-opacity:1; 
stroke-linecap:round; stroke-linejoin:round;fill-rule:evenodd;"
d="M 25176,3021
25491,3021
25491,3769
25176,3769
25176,3021
Z" /> 
<path style="fill:#008400; fill-opacity:1.0; 
stroke:#008400; stroke-width:0; stroke-opacity:1; 
stroke-linecap:round; stroke-linejoin:round;fill-rule:evenodd;"
d="M 24428,3021
24743,3021
24743,3769
24428,3769
24428,3021
Z" /> 
</g>
<g >
<path style="fill:#008400; fill-opacity:1.0; 
stroke:#008400; stroke-width:0; stroke-opacity:1; 
stroke-linecap:round; stroke-linejoin:round;fill-rule:evenodd;"
d="M 24791,6474
25106,6474
25106,7222
24791,7222
24791,6474
Z" /> 
<path style="fill:#008400; fill-opacity:1.0; 
stroke:#008400; stroke-width:0; stroke-opacity:1; 
stroke-linecap:round; stroke-linejoin:round;fill-rule:evenodd;"
d="M 25165,5292
25480,5292
25480,6040
25165,6040
25165,5292
Z" /> 
<path style="fill:#008400; fill-opacity:1.0; 
stroke:#008400; stroke-width:0; stroke-opacity:1; 
stroke-linecap:round; stroke-linejoin:round;fill-rule:evenodd;"
d="M 24417,5292
24732,5292
24732,6040
24417,6040
24417,5292
Z" /> 
</g>
<g >
</g>
<g >
</g>
<g >
</g>
<g >
</g>
<g >
</g>
<g >
</g>
<g >
</g>
<g >
</g>
<g >
</g>
<g >
</g>
<g >
</g>
<g >
</g>
<g >
</g>
<g >
</g>
<g >
</g>
<g >
<path style="fill:#008400; fill-opacity:1.0; 
stroke:#008400; stroke-width:0; stroke-opacity:1; 
stroke-linecap:round; stroke-linejoin:round;fill-rule:evenodd;"
d="M 44826,10052
44826,10170
44275,10170
44275,10052
44826,10052
Z" /> 
<path style="fill:#008400; fill-opacity:1.0; 
stroke:#008400; stroke-width:0; stroke-opacity:1; 
stroke-linecap:round; stroke-linejoin:round;fill-rule:evenodd;"
d="M 44826,10249
44826,10367
44275,10367
44275,10249
44826,10249
Z" /> 
<path style="fill:#008400; fill-opacity:1.0; 
stroke:#008400; stroke-width:0; stroke-opacity:1; 
stroke-linecap:round; stroke-linejoin:round;fill-rule:evenodd;"
d="M 44826,10446
44826,10564
44275,10564
44275,10446
44826,10446
Z" /> 
<path style="fill:#008400; fill-opacity:1.0; 
stroke:#008400; stroke-width:0; stroke-opacity:1; 
stroke-linecap:round; stroke-linejoin:round;fill-rule:evenodd;"
d="M 44826,10643
44826,10761
44275,10761
44275,10643
44826,10643
Z" /> 
<path style="fill:#008400; fill-opacity:1.0; 
stroke:#008400; stroke-width:0; stroke-opacity:1; 
stroke-linecap:round; stroke-linejoin:round;fill-rule:evenodd;"
d="M 44826,10840
44826,10958
44275,10958
44275,10840
44826,10840
Z" /> 
<path style="fill:#008400; fill-opacity:1.0; 
stroke:#008400; stroke-width:0; stroke-opacity:1; 
stroke-linecap:round; stroke-linejoin:round;fill-rule:evenodd;"
d="M 46558,10840
46558,10958
46007,10958
46007,10840
46558,10840
Z" /> 
<path style="fill:#008400; fill-opacity:1.0; 
stroke:#008400; stroke-width:0; stroke-opacity:1; 
stroke-linecap:round; stroke-linejoin:round;fill-rule:evenodd;"
d="M 46558,10643
46558,10761
46007,10761
46007,10643
46558,10643
Z" /> 
<path style="fill:#008400; fill-opacity:1.0; 
stroke:#008400; stroke-width:0; stroke-opacity:1; 
stroke-linecap:round; stroke-linejoin:round;fill-rule:evenodd;"
d="M 46558,10446
46558,10564
46007,10564
46007,10446
46558,10446
Z" /> 
<path style="fill:#008400; fill-opacity:1.0; 
stroke:#008400; stroke-width:0; stroke-opacity:1; 
stroke-linecap:round; stroke-linejoin:round;fill-rule:evenodd;"
d="M 46558,10249
46558,10367
46007,10367
46007,10249
46558,10249
Z" /> 
<path style="fill:#008400; fill-opacity:1.0; 
stroke:#008400; stroke-width:0; stroke-opacity:1; 
stroke-linecap:round; stroke-linejoin:round;fill-rule:evenodd;"
d="M 46558,10052
46558,10170
46007,10170
46007,10052
46558,10052
Z" /> 
</g>
<g >
</g>
<g >
</g>
<g >
</g>
<g >
</g>
<g >
</g>
<g >
</g>
<g >
</g>
<g >
</g>
<g >
</g>
<g >
</g>
</g>
<g style="fill:#000000; fill-opacity:1.0; 
stroke:#000000; stroke-width:0; stroke-opacity:1; 
stroke-linecap:round; stroke-linejoin:round;">
</g>
<g style="fill:#C2C200; fill-opacity:1.0; 
stroke:#C2C200; stroke-width:0; stroke-opacity:1; 
stroke-linecap:round; stroke-linejoin:round;">
</g>
<g style="fill:#C2C200; fill-opacity:1.0; 
stroke:#C2C200; stroke-width:59.0551; stroke-opacity:1; 
stroke-linecap:round; stroke-linejoin:round;">
</g>
<g style="fill:#C2C200; fill-opacity:0.0; 
stroke:#C2C200; stroke-width:59.0551; stroke-opacity:1; 
stroke-linecap:round; stroke-linejoin:round;">
<path d="M24070 21568
L50070 21568
" />
<path d="M51070 6668
L50070 5668
" />
<path d="M51070 19568
L51070 6668
" />
<path d="M50070 1168
L49470 568
" />
<path d="M50070 20568
L51070 19568
" />
<path d="M50070 21568
L50070 20568
" />
<path d="M50070 5668
L50070 1168
" />
<path d="M24070 568
L24070 21568
" />
<path d="M49470 568
L24070 568
" />
<g >
</g>
<g >
</g>
<g >
</g>
<g >
</g>
<g >
</g>
<g >
</g>
<g >
</g>
<g >
</g>
<g >
</g>
<g >
</g>
<g >
</g>
<g >
</g>
<g >
</g>
<g >
</g>
<g >
</g>
<g >
</g>
<g >
</g>
<g >
</g>
<g >
</g>
<g >
</g>
<g >
</g>
<g >
</g>
<g >
</g>
<g >
</g>
<g >
</g>
<g >
</g>
<g >
</g>
<g >
</g>
<g >
</g>
<g >
</g>
<g >
</g>
<g >
</g>
<g >
</g>
<g >
</g>
<g >
</g>
<g >
</g>
<g >
</g>
<g >
</g>
<g >
</g>
<g >
</g>
<g >
</g>
<g >
</g>
<g >
</g>
<g >
</g>
<g >
</g>
<g >
</g>
<g >
</g>
<g >
</g>
<g >
</g>
<g >
</g>
<g >
</g>
<g >
</g>
<g >
</g>
<g >
</g>
<g >
</g>
<g >
</g>
<g >
</g>
<g >
</g>
<g >
</g>
<g >
</g>
</g> 
</svg>
