<?xml version="1.0" standalone="no"?>
 <!DOCTYPE svg PUBLIC "-//W3C//DTD SVG 1.1//EN" 
 "http://www.w3.org/Graphics/SVG/1.1/DTD/svg11.dtd"> 
<svg xmlns="http://www.w3.org/2000/svg" version="1.1" 
    width="13.8303cm" height="6.10108cm" viewBox="0 0 54450 24020 ">
<title>SVG Picture created as uno shield-F_Paste.svg date 2019/06/30 23:46:44 </title>
  <desc>Picture generated by PCBNEW </desc>
<g style="fill:#000000; fill-opacity:1;stroke:#000000; stroke-opacity:1;
stroke-linecap:round; stroke-linejoin:round; "
 transform="translate(0 0) scale(1 1)">
</g>
<g style="fill:#000000; fill-opacity:0.0; 
stroke:#000000; stroke-width:-0.000393701; stroke-opacity:1; 
stroke-linecap:round; stroke-linejoin:round;">
</g>
<g style="fill:#26FF16; fill-opacity:0.0; 
stroke:#26FF16; stroke-width:-0.000393701; stroke-opacity:1; 
stroke-linecap:round; stroke-linejoin:round;">
</g>
<g style="fill:#26FF16; fill-opacity:0.0; 
stroke:#26FF16; stroke-width:0.393701; stroke-opacity:1; 
stroke-linecap:round; stroke-linejoin:round;">
<path d="M40964 15535
L40905 15535
" />
<path d="M40905 15535
L40905 15448
" />
<path d="M40964 15448
L40964 15535
" />
<path d="M40905 15448
L40964 15448
" />
</g>
<g style="fill:#26FF16; fill-opacity:1.0; 
stroke:#26FF16; stroke-width:0.393701; stroke-opacity:1; 
stroke-linecap:round; stroke-linejoin:round;">
<path style="fill:#26FF16; fill-opacity:1.0; 
stroke:#26FF16; stroke-width:0.393701; stroke-opacity:1; 
stroke-linecap:round; stroke-linejoin:round;fill-rule:evenodd;"
d="M 39279,16809
39279,16624
39216,16624
39216,16809
Z" /> 
<g >
</g>
<g style="fill:#FF080E; fill-opacity:1.0; 
stroke:#FF080E; stroke-width:0.393701; stroke-opacity:1; 
stroke-linecap:round; stroke-linejoin:round;">
</g>
<g style="fill:#FF080E; fill-opacity:1.0; 
stroke:#FF080E; stroke-width:0; stroke-opacity:1; 
stroke-linecap:round; stroke-linejoin:round;">
<path style="fill:#FF080E; fill-opacity:1.0; 
stroke:#FF080E; stroke-width:0; stroke-opacity:1; 
stroke-linecap:round; stroke-linejoin:round;fill-rule:evenodd;"
d="M 39022,16950
39022,17068
38682,17068
38682,16950
39022,16950
Z" /> 
<path style="fill:#FF080E; fill-opacity:1.0; 
stroke:#FF080E; stroke-width:0; stroke-opacity:1; 
stroke-linecap:round; stroke-linejoin:round;fill-rule:evenodd;"
d="M 39022,16753
39022,16872
38682,16872
38682,16753
39022,16753
Z" /> 
<path style="fill:#FF080E; fill-opacity:1.0; 
stroke:#FF080E; stroke-width:0; stroke-opacity:1; 
stroke-linecap:round; stroke-linejoin:round;fill-rule:evenodd;"
d="M 39022,16557
39022,16675
38682,16675
38682,16557
39022,16557
Z" /> 
<path style="fill:#FF080E; fill-opacity:1.0; 
stroke:#FF080E; stroke-width:0; stroke-opacity:1; 
stroke-linecap:round; stroke-linejoin:round;fill-rule:evenodd;"
d="M 39022,16360
39022,16478
38682,16478
38682,16360
39022,16360
Z" /> 
<path style="fill:#FF080E; fill-opacity:1.0; 
stroke:#FF080E; stroke-width:0; stroke-opacity:1; 
stroke-linecap:round; stroke-linejoin:round;fill-rule:evenodd;"
d="M 39812,16360
39812,16478
39472,16478
39472,16360
39812,16360
Z" /> 
<path style="fill:#FF080E; fill-opacity:1.0; 
stroke:#FF080E; stroke-width:0; stroke-opacity:1; 
stroke-linecap:round; stroke-linejoin:round;fill-rule:evenodd;"
d="M 39812,16557
39812,16675
39472,16675
39472,16557
39812,16557
Z" /> 
<path style="fill:#FF080E; fill-opacity:1.0; 
stroke:#FF080E; stroke-width:0; stroke-opacity:1; 
stroke-linecap:round; stroke-linejoin:round;fill-rule:evenodd;"
d="M 39812,16753
39812,16872
39472,16872
39472,16753
39812,16753
Z" /> 
<path style="fill:#FF080E; fill-opacity:1.0; 
stroke:#FF080E; stroke-width:0; stroke-opacity:1; 
stroke-linecap:round; stroke-linejoin:round;fill-rule:evenodd;"
d="M 39812,16950
39812,17068
39472,17068
39472,16950
39812,16950
Z" /> 
</g>
<g >
</g>
<g >
</g>
<g >
</g>
<g >
</g>
<g >
</g>
<g >
</g>
<g >
</g>
<g >
</g>
<g >
<path style="fill:#FF080E; fill-opacity:1.0; 
stroke:#FF080E; stroke-width:0; stroke-opacity:1; 
stroke-linecap:round; stroke-linejoin:round;fill-rule:evenodd;"
d="M 40716,15327
40725,15328
40734,15330
40743,15333
40751,15337
40759,15342
40766,15347
40773,15354
40779,15360
40785,15368
40789,15376
40793,15384
40796,15393
40799,15402
40800,15411
40800,15420
40800,15646
40800,15655
40799,15664
40796,15673
40793,15682
40789,15690
40785,15698
40779,15705
40773,15712
40766,15718
40759,15724
40751,15729
40743,15733
40734,15736
40725,15738
40716,15739
40707,15740
40520,15740
40511,15739
40502,15738
40493,15736
40484,15733
40476,15729
40468,15724
40461,15718
40454,15712
40448,15705
40442,15698
40437,15690
40434,15682
40430,15673
40428,15664
40427,15655
40426,15646
40426,15420
40427,15411
40428,15402
40430,15393
40434,15384
40437,15376
40442,15368
40448,15360
40454,15354
40461,15347
40468,15342
40476,15337
40484,15333
40493,15330
40502,15328
40511,15327
40520,15326
40707,15326
40716,15327
Z" /> 
<path style="fill:#FF080E; fill-opacity:1.0; 
stroke:#FF080E; stroke-width:0; stroke-opacity:1; 
stroke-linecap:round; stroke-linejoin:round;fill-rule:evenodd;"
d="M 40716,16016
40725,16017
40734,16019
40743,16022
40751,16026
40759,16031
40766,16036
40773,16043
40779,16049
40785,16057
40789,16065
40793,16073
40796,16082
40799,16091
40800,16100
40800,16109
40800,16335
40800,16344
40799,16353
40796,16362
40793,16371
40789,16379
40785,16387
40779,16394
40773,16401
40766,16407
40759,16413
40751,16418
40743,16422
40734,16425
40725,16427
40716,16428
40707,16429
40520,16429
40511,16428
40502,16427
40493,16425
40484,16422
40476,16418
40468,16413
40461,16407
40454,16401
40448,16394
40442,16387
40437,16379
40434,16371
40430,16362
40428,16353
40427,16344
40426,16335
40426,16109
40427,16100
40428,16091
40430,16082
40434,16073
40437,16065
40442,16057
40448,16049
40454,16043
40461,16036
40468,16031
40476,16026
40484,16022
40493,16019
40502,16017
40511,16016
40520,16015
40707,16015
40716,16016
Z" /> 
</g>
<g >
</g>
<g >
<path style="fill:#FF080E; fill-opacity:1.0; 
stroke:#FF080E; stroke-width:0; stroke-opacity:1; 
stroke-linecap:round; stroke-linejoin:round;fill-rule:evenodd;"
d="M 29035,2622
29035,2937
28287,2937
28287,2622
29035,2622
Z" /> 
<path style="fill:#FF080E; fill-opacity:1.0; 
stroke:#FF080E; stroke-width:0; stroke-opacity:1; 
stroke-linecap:round; stroke-linejoin:round;fill-rule:evenodd;"
d="M 30216,2248
30216,2562
29468,2562
29468,2248
30216,2248
Z" /> 
<path style="fill:#FF080E; fill-opacity:1.0; 
stroke:#FF080E; stroke-width:0; stroke-opacity:1; 
stroke-linecap:round; stroke-linejoin:round;fill-rule:evenodd;"
d="M 30216,2996
30216,3311
29468,3311
29468,2996
30216,2996
Z" /> 
</g>
<g >
<path style="fill:#FF080E; fill-opacity:1.0; 
stroke:#FF080E; stroke-width:0; stroke-opacity:1; 
stroke-linecap:round; stroke-linejoin:round;fill-rule:evenodd;"
d="M 29035,4011
29035,4326
28287,4326
28287,4011
29035,4011
Z" /> 
<path style="fill:#FF080E; fill-opacity:1.0; 
stroke:#FF080E; stroke-width:0; stroke-opacity:1; 
stroke-linecap:round; stroke-linejoin:round;fill-rule:evenodd;"
d="M 30216,3637
30216,3952
29468,3952
29468,3637
30216,3637
Z" /> 
<path style="fill:#FF080E; fill-opacity:1.0; 
stroke:#FF080E; stroke-width:0; stroke-opacity:1; 
stroke-linecap:round; stroke-linejoin:round;fill-rule:evenodd;"
d="M 30216,4385
30216,4700
29468,4700
29468,4385
30216,4385
Z" /> 
</g>
<g >
<path style="fill:#FF080E; fill-opacity:1.0; 
stroke:#FF080E; stroke-width:0; stroke-opacity:1; 
stroke-linecap:round; stroke-linejoin:round;fill-rule:evenodd;"
d="M 29468,5704
29468,5389
30216,5389
30216,5704
29468,5704
Z" /> 
<path style="fill:#FF080E; fill-opacity:1.0; 
stroke:#FF080E; stroke-width:0; stroke-opacity:1; 
stroke-linecap:round; stroke-linejoin:round;fill-rule:evenodd;"
d="M 28287,6078
28287,5763
29035,5763
29035,6078
28287,6078
Z" /> 
<path style="fill:#FF080E; fill-opacity:1.0; 
stroke:#FF080E; stroke-width:0; stroke-opacity:1; 
stroke-linecap:round; stroke-linejoin:round;fill-rule:evenodd;"
d="M 28287,5330
28287,5015
29035,5015
29035,5330
28287,5330
Z" /> 
</g>
<g >
<path style="fill:#FF080E; fill-opacity:1.0; 
stroke:#FF080E; stroke-width:0; stroke-opacity:1; 
stroke-linecap:round; stroke-linejoin:round;fill-rule:evenodd;"
d="M 32834,3460
32834,3775
32086,3775
32086,3460
32834,3460
Z" /> 
<path style="fill:#FF080E; fill-opacity:1.0; 
stroke:#FF080E; stroke-width:0; stroke-opacity:1; 
stroke-linecap:round; stroke-linejoin:round;fill-rule:evenodd;"
d="M 34015,3086
34015,3401
33267,3401
33267,3086
34015,3086
Z" /> 
<path style="fill:#FF080E; fill-opacity:1.0; 
stroke:#FF080E; stroke-width:0; stroke-opacity:1; 
stroke-linecap:round; stroke-linejoin:round;fill-rule:evenodd;"
d="M 34015,3834
34015,4149
33267,4149
33267,3834
34015,3834
Z" /> 
</g>
<g >
<path style="fill:#FF080E; fill-opacity:1.0; 
stroke:#FF080E; stroke-width:0; stroke-opacity:1; 
stroke-linecap:round; stroke-linejoin:round;fill-rule:evenodd;"
d="M 32846,4870
32846,5185
32098,5185
32098,4870
32846,4870
Z" /> 
<path style="fill:#FF080E; fill-opacity:1.0; 
stroke:#FF080E; stroke-width:0; stroke-opacity:1; 
stroke-linecap:round; stroke-linejoin:round;fill-rule:evenodd;"
d="M 34027,4496
34027,4811
33279,4811
33279,4496
34027,4496
Z" /> 
<path style="fill:#FF080E; fill-opacity:1.0; 
stroke:#FF080E; stroke-width:0; stroke-opacity:1; 
stroke-linecap:round; stroke-linejoin:round;fill-rule:evenodd;"
d="M 34027,5244
34027,5559
33279,5559
33279,5244
34027,5244
Z" /> 
</g>
<g >
</g>
<g >
</g>
<g >
</g>
<g >
<path style="fill:#FF080E; fill-opacity:1.0; 
stroke:#FF080E; stroke-width:0; stroke-opacity:1; 
stroke-linecap:round; stroke-linejoin:round;fill-rule:evenodd;"
d="M 41683,8480
41689,8481
41694,8482
41700,8484
41705,8487
41710,8490
41714,8493
41718,8497
41722,8501
41726,8506
41729,8511
41731,8516
41733,8521
41734,8527
41735,8532
41735,8538
41735,8654
41735,8660
41734,8665
41733,8671
41731,8676
41729,8681
41726,8686
41722,8691
41718,8695
41714,8699
41710,8702
41705,8705
41700,8708
41694,8710
41689,8711
41683,8712
41677,8712
41542,8712
41536,8712
41530,8711
41525,8710
41519,8708
41514,8705
41509,8702
41505,8699
41500,8695
41497,8691
41493,8686
41490,8681
41488,8676
41486,8671
41485,8665
41484,8660
41483,8654
41483,8538
41484,8532
41485,8527
41486,8521
41488,8516
41490,8511
41493,8506
41497,8501
41500,8497
41505,8493
41509,8490
41514,8487
41519,8484
41525,8482
41530,8481
41536,8480
41542,8480
41677,8480
41683,8480
Z" /> 
<path style="fill:#FF080E; fill-opacity:1.0; 
stroke:#FF080E; stroke-width:0; stroke-opacity:1; 
stroke-linecap:round; stroke-linejoin:round;fill-rule:evenodd;"
d="M 41683,8098
41689,8099
41694,8100
41700,8102
41705,8105
41710,8108
41714,8111
41718,8115
41722,8119
41726,8124
41729,8129
41731,8134
41733,8139
41734,8145
41735,8150
41735,8156
41735,8272
41735,8278
41734,8283
41733,8289
41731,8294
41729,8300
41726,8304
41722,8309
41718,8313
41714,8317
41710,8320
41705,8323
41700,8326
41694,8328
41689,8329
41683,8330
41677,8330
41542,8330
41536,8330
41530,8329
41525,8328
41519,8326
41514,8323
41509,8320
41505,8317
41500,8313
41497,8309
41493,8304
41490,8300
41488,8294
41486,8289
41485,8283
41484,8278
41483,8272
41483,8156
41484,8150
41485,8145
41486,8139
41488,8134
41490,8129
41493,8124
41497,8119
41500,8115
41505,8111
41509,8108
41514,8105
41519,8102
41525,8100
41530,8099
41536,8098
41542,8098
41677,8098
41683,8098
Z" /> 
</g>
<g >
</g>
<g >
<path style="fill:#FF080E; fill-opacity:1.0; 
stroke:#FF080E; stroke-width:0; stroke-opacity:1; 
stroke-linecap:round; stroke-linejoin:round;fill-rule:evenodd;"
d="M 43905,6982
43914,6984
43923,6986
43932,6989
43941,6993
43949,6998
43956,7004
43963,7010
43970,7017
43975,7024
43980,7033
43984,7041
43987,7050
43990,7059
43991,7068
43991,7078
43991,7270
43991,7279
43990,7288
43987,7298
43984,7306
43980,7315
43975,7323
43970,7331
43963,7338
43956,7344
43949,7349
43941,7354
43932,7358
43923,7362
43914,7364
43905,7365
43895,7366
43536,7366
43527,7365
43517,7364
43508,7362
43499,7358
43491,7354
43483,7349
43475,7344
43468,7338
43462,7331
43456,7323
43451,7315
43447,7306
43444,7298
43442,7288
43441,7279
43440,7270
43440,7078
43441,7068
43442,7059
43444,7050
43447,7041
43451,7033
43456,7024
43462,7017
43468,7010
43475,7004
43483,6998
43491,6993
43499,6989
43508,6986
43517,6984
43527,6982
43536,6982
43895,6982
43905,6982
Z" /> 
<path style="fill:#FF080E; fill-opacity:1.0; 
stroke:#FF080E; stroke-width:0; stroke-opacity:1; 
stroke-linecap:round; stroke-linejoin:round;fill-rule:evenodd;"
d="M 43905,7720
43914,7722
43923,7724
43932,7727
43941,7731
43949,7736
43956,7742
43963,7748
43970,7755
43975,7763
43980,7771
43984,7779
43987,7788
43990,7797
43991,7807
43991,7816
43991,8008
43991,8017
43990,8027
43987,8036
43984,8045
43980,8053
43975,8061
43970,8069
43963,8076
43956,8082
43949,8088
43941,8092
43932,8097
43923,8100
43914,8102
43905,8103
43895,8104
43536,8104
43527,8103
43517,8102
43508,8100
43499,8097
43491,8092
43483,8088
43475,8082
43468,8076
43462,8069
43456,8061
43451,8053
43447,8045
43444,8036
43442,8027
43441,8017
43440,8008
43440,7816
43441,7807
43442,7797
43444,7788
43447,7779
43451,7771
43456,7763
43462,7755
43468,7748
43475,7742
43483,7736
43491,7731
43499,7727
43508,7724
43517,7722
43527,7720
43536,7720
43895,7720
43905,7720
Z" /> 
</g>
<g >
</g>
<g >
</g>
<g >
<path style="fill:#FF080E; fill-opacity:1.0; 
stroke:#FF080E; stroke-width:0; stroke-opacity:1; 
stroke-linecap:round; stroke-linejoin:round;fill-rule:evenodd;"
d="M 27136,5104
27144,5105
27153,5108
27161,5110
27168,5114
27176,5118
27182,5123
27189,5129
27194,5135
27199,5142
27204,5149
27207,5157
27210,5165
27212,5173
27213,5182
27214,5190
27214,5392
27213,5400
27212,5409
27210,5417
27207,5425
27204,5432
27199,5440
27194,5446
27189,5453
27182,5458
27176,5463
27168,5468
27161,5471
27153,5474
27144,5476
27136,5477
27128,5478
26955,5478
26947,5477
26939,5476
26930,5474
26922,5471
26915,5468
26908,5463
26901,5458
26895,5453
26889,5446
26884,5440
26879,5432
26876,5425
26873,5417
26871,5409
26870,5400
26869,5392
26869,5190
26870,5182
26871,5173
26873,5165
26876,5157
26879,5149
26884,5142
26889,5135
26895,5129
26901,5123
26908,5118
26915,5114
26922,5110
26930,5108
26939,5105
26947,5104
26955,5104
27128,5104
27136,5104
Z" /> 
<path style="fill:#FF080E; fill-opacity:1.0; 
stroke:#FF080E; stroke-width:0; stroke-opacity:1; 
stroke-linecap:round; stroke-linejoin:round;fill-rule:evenodd;"
d="M 26516,5104
26524,5105
26533,5108
26541,5110
26548,5114
26555,5118
26562,5123
26568,5129
26574,5135
26579,5142
26584,5149
26587,5157
26590,5165
26592,5173
26593,5182
26594,5190
26594,5392
26593,5400
26592,5409
26590,5417
26587,5425
26584,5432
26579,5440
26574,5446
26568,5453
26562,5458
26555,5463
26548,5468
26541,5471
26533,5474
26524,5476
26516,5477
26508,5478
26335,5478
26327,5477
26319,5476
26310,5474
26302,5471
26295,5468
26287,5463
26281,5458
26274,5453
26269,5446
26264,5440
26259,5432
26256,5425
26253,5417
26251,5409
26250,5400
26249,5392
26249,5190
26250,5182
26251,5173
26253,5165
26256,5157
26259,5149
26264,5142
26269,5135
26274,5129
26281,5123
26287,5118
26295,5114
26302,5110
26310,5108
26319,5105
26327,5104
26335,5104
26508,5104
26516,5104
Z" /> 
</g>
<g >
<path style="fill:#FF080E; fill-opacity:1.0; 
stroke:#FF080E; stroke-width:0; stroke-opacity:1; 
stroke-linecap:round; stroke-linejoin:round;fill-rule:evenodd;"
d="M 27069,2492
27078,2493
27086,2495
27094,2498
27101,2502
27109,2506
27115,2511
27122,2517
27127,2523
27132,2530
27137,2537
27140,2545
27143,2553
27145,2561
27146,2569
27147,2578
27147,2750
27146,2758
27145,2767
27143,2775
27140,2783
27137,2791
27132,2798
27127,2805
27122,2811
27115,2817
27109,2822
27101,2826
27094,2830
27086,2832
27078,2834
27069,2836
27061,2836
26859,2836
26851,2836
26842,2834
26834,2832
26826,2830
26818,2826
26811,2822
26804,2817
26798,2811
26792,2805
26787,2798
26783,2791
26779,2783
26777,2775
26774,2767
26773,2758
26773,2750
26773,2578
26773,2569
26774,2561
26777,2553
26779,2545
26783,2537
26787,2530
26792,2523
26798,2517
26804,2511
26811,2506
26818,2502
26826,2498
26834,2495
26842,2493
26851,2492
26859,2492
27061,2492
27069,2492
Z" /> 
<path style="fill:#FF080E; fill-opacity:1.0; 
stroke:#FF080E; stroke-width:0; stroke-opacity:1; 
stroke-linecap:round; stroke-linejoin:round;fill-rule:evenodd;"
d="M 27069,1872
27078,1873
27086,1875
27094,1878
27101,1882
27109,1886
27115,1891
27122,1897
27127,1903
27132,1910
27137,1917
27140,1925
27143,1933
27145,1941
27146,1949
27147,1958
27147,2130
27146,2138
27145,2147
27143,2155
27140,2163
27137,2171
27132,2178
27127,2185
27122,2191
27115,2196
27109,2202
27101,2206
27094,2209
27086,2212
27078,2214
27069,2216
27061,2216
26859,2216
26851,2216
26842,2214
26834,2212
26826,2209
26818,2206
26811,2202
26804,2196
26798,2191
26792,2185
26787,2178
26783,2171
26779,2163
26777,2155
26774,2147
26773,2138
26773,2130
26773,1958
26773,1949
26774,1941
26777,1933
26779,1925
26783,1917
26787,1910
26792,1903
26798,1897
26804,1891
26811,1886
26818,1882
26826,1878
26834,1875
26842,1873
26851,1872
26859,1872
27061,1872
27069,1872
Z" /> 
</g>
<g >
</g>
<g >
</g>
<g >
<path style="fill:#FF080E; fill-opacity:1.0; 
stroke:#FF080E; stroke-width:0; stroke-opacity:1; 
stroke-linecap:round; stroke-linejoin:round;fill-rule:evenodd;"
d="M 34101,13232
34109,13233
34117,13235
34125,13238
34133,13242
34140,13246
34147,13251
34153,13257
34159,13263
34164,13270
34168,13277
34172,13285
34175,13293
34177,13301
34178,13309
34178,13318
34178,13490
34178,13499
34177,13507
34175,13515
34172,13523
34168,13531
34164,13538
34159,13545
34153,13551
34147,13557
34140,13562
34133,13566
34125,13570
34117,13573
34109,13575
34101,13576
34092,13576
33890,13576
33882,13576
33874,13575
33865,13573
33858,13570
33850,13566
33843,13562
33836,13557
33830,13551
33824,13545
33819,13538
33815,13531
33811,13523
33808,13515
33806,13507
33805,13499
33804,13490
33804,13318
33805,13309
33806,13301
33808,13293
33811,13285
33815,13277
33819,13270
33824,13263
33830,13257
33836,13251
33843,13246
33850,13242
33858,13238
33865,13235
33874,13233
33882,13232
33890,13232
34092,13232
34101,13232
Z" /> 
<path style="fill:#FF080E; fill-opacity:1.0; 
stroke:#FF080E; stroke-width:0; stroke-opacity:1; 
stroke-linecap:round; stroke-linejoin:round;fill-rule:evenodd;"
d="M 34101,12612
34109,12613
34117,12615
34125,12618
34133,12622
34140,12626
34147,12631
34153,12637
34159,12643
34164,12650
34168,12657
34172,12665
34175,12673
34177,12681
34178,12689
34178,12698
34178,12870
34178,12879
34177,12887
34175,12895
34172,12903
34168,12911
34164,12918
34159,12925
34153,12931
34147,12937
34140,12942
34133,12946
34125,12950
34117,12952
34109,12955
34101,12956
34092,12956
33890,12956
33882,12956
33874,12955
33865,12952
33858,12950
33850,12946
33843,12942
33836,12937
33830,12931
33824,12925
33819,12918
33815,12911
33811,12903
33808,12895
33806,12887
33805,12879
33804,12870
33804,12698
33805,12689
33806,12681
33808,12673
33811,12665
33815,12657
33819,12650
33824,12643
33830,12637
33836,12631
33843,12626
33850,12622
33858,12618
33865,12615
33874,12613
33882,12612
33890,12612
34092,12612
34101,12612
Z" /> 
</g>
<g >
</g>
<g >
</g>
<g >
</g>
<g >
</g>
<g >
</g>
<g >
<path style="fill:#FF080E; fill-opacity:1.0; 
stroke:#FF080E; stroke-width:0; stroke-opacity:1; 
stroke-linecap:round; stroke-linejoin:round;fill-rule:evenodd;"
d="M 39656,12258
39664,12259
39672,12261
39680,12264
39688,12268
39695,12272
39702,12277
39708,12283
39714,12289
39719,12296
39723,12303
39727,12311
39730,12318
39732,12327
39733,12335
39733,12343
39733,12545
39733,12554
39732,12562
39730,12570
39727,12578
39723,12586
39719,12593
39714,12600
39708,12606
39702,12612
39695,12617
39688,12621
39680,12625
39672,12628
39664,12630
39656,12631
39647,12631
39475,12631
39467,12631
39458,12630
39450,12628
39442,12625
39435,12621
39427,12617
39420,12612
39414,12606
39409,12600
39403,12593
39399,12586
39396,12578
39393,12570
39391,12562
39389,12554
39389,12545
39389,12343
39389,12335
39391,12327
39393,12318
39396,12311
39399,12303
39403,12296
39409,12289
39414,12283
39420,12277
39427,12272
39435,12268
39442,12264
39450,12261
39458,12259
39467,12258
39475,12257
39647,12257
39656,12258
Z" /> 
<path style="fill:#FF080E; fill-opacity:1.0; 
stroke:#FF080E; stroke-width:0; stroke-opacity:1; 
stroke-linecap:round; stroke-linejoin:round;fill-rule:evenodd;"
d="M 39036,12258
39044,12259
39052,12261
39060,12264
39068,12268
39075,12272
39082,12277
39088,12283
39094,12289
39099,12296
39103,12303
39107,12311
39110,12318
39112,12327
39113,12335
39113,12343
39113,12545
39113,12554
39112,12562
39110,12570
39107,12578
39103,12586
39099,12593
39094,12600
39088,12606
39082,12612
39075,12617
39068,12621
39060,12625
39052,12628
39044,12630
39036,12631
39027,12631
38855,12631
38847,12631
38838,12630
38830,12628
38822,12625
38814,12621
38807,12617
38800,12612
38794,12606
38788,12600
38783,12593
38779,12586
38775,12578
38773,12570
38771,12562
38769,12554
38769,12545
38769,12343
38769,12335
38771,12327
38773,12318
38775,12311
38779,12303
38783,12296
38788,12289
38794,12283
38800,12277
38807,12272
38814,12268
38822,12264
38830,12261
38838,12259
38847,12258
38855,12257
39027,12257
39036,12258
Z" /> 
</g>
<g >
</g>
<g >
<path style="fill:#FF080E; fill-opacity:1.0; 
stroke:#FF080E; stroke-width:0; stroke-opacity:1; 
stroke-linecap:round; stroke-linejoin:round;fill-rule:evenodd;"
d="M 43013,16588
43249,16588
43249,17198
43013,17198
43013,16588
Z" /> 
<path style="fill:#FF080E; fill-opacity:1.0; 
stroke:#FF080E; stroke-width:0; stroke-opacity:1; 
stroke-linecap:round; stroke-linejoin:round;fill-rule:evenodd;"
d="M 42513,16588
42749,16588
42749,17198
42513,17198
42513,16588
Z" /> 
<path style="fill:#FF080E; fill-opacity:1.0; 
stroke:#FF080E; stroke-width:0; stroke-opacity:1; 
stroke-linecap:round; stroke-linejoin:round;fill-rule:evenodd;"
d="M 42013,16588
42249,16588
42249,17198
42013,17198
42013,16588
Z" /> 
<path style="fill:#FF080E; fill-opacity:1.0; 
stroke:#FF080E; stroke-width:0; stroke-opacity:1; 
stroke-linecap:round; stroke-linejoin:round;fill-rule:evenodd;"
d="M 41513,16588
41749,16588
41749,17198
41513,17198
41513,16588
Z" /> 
<path style="fill:#FF080E; fill-opacity:1.0; 
stroke:#FF080E; stroke-width:0; stroke-opacity:1; 
stroke-linecap:round; stroke-linejoin:round;fill-rule:evenodd;"
d="M 41513,14462
41749,14462
41749,15072
41513,15072
41513,14462
Z" /> 
<path style="fill:#FF080E; fill-opacity:1.0; 
stroke:#FF080E; stroke-width:0; stroke-opacity:1; 
stroke-linecap:round; stroke-linejoin:round;fill-rule:evenodd;"
d="M 42013,14462
42249,14462
42249,15072
42013,15072
42013,14462
Z" /> 
<path style="fill:#FF080E; fill-opacity:1.0; 
stroke:#FF080E; stroke-width:0; stroke-opacity:1; 
stroke-linecap:round; stroke-linejoin:round;fill-rule:evenodd;"
d="M 42513,14462
42749,14462
42749,15072
42513,15072
42513,14462
Z" /> 
<path style="fill:#FF080E; fill-opacity:1.0; 
stroke:#FF080E; stroke-width:0; stroke-opacity:1; 
stroke-linecap:round; stroke-linejoin:round;fill-rule:evenodd;"
d="M 43013,14462
43249,14462
43249,15072
43013,15072
43013,14462
Z" /> 
</g>
<g >
<path style="fill:#FF080E; fill-opacity:1.0; 
stroke:#FF080E; stroke-width:0; stroke-opacity:1; 
stroke-linecap:round; stroke-linejoin:round;fill-rule:evenodd;"
d="M 42694,13431
42930,13431
42930,14041
42694,14041
42694,13431
Z" /> 
<path style="fill:#FF080E; fill-opacity:1.0; 
stroke:#FF080E; stroke-width:0; stroke-opacity:1; 
stroke-linecap:round; stroke-linejoin:round;fill-rule:evenodd;"
d="M 42194,13431
42430,13431
42430,14041
42194,14041
42194,13431
Z" /> 
<path style="fill:#FF080E; fill-opacity:1.0; 
stroke:#FF080E; stroke-width:0; stroke-opacity:1; 
stroke-linecap:round; stroke-linejoin:round;fill-rule:evenodd;"
d="M 41694,13431
41930,13431
41930,14041
41694,14041
41694,13431
Z" /> 
<path style="fill:#FF080E; fill-opacity:1.0; 
stroke:#FF080E; stroke-width:0; stroke-opacity:1; 
stroke-linecap:round; stroke-linejoin:round;fill-rule:evenodd;"
d="M 41194,13431
41430,13431
41430,14041
41194,14041
41194,13431
Z" /> 
<path style="fill:#FF080E; fill-opacity:1.0; 
stroke:#FF080E; stroke-width:0; stroke-opacity:1; 
stroke-linecap:round; stroke-linejoin:round;fill-rule:evenodd;"
d="M 41194,11305
41430,11305
41430,11915
41194,11915
41194,11305
Z" /> 
<path style="fill:#FF080E; fill-opacity:1.0; 
stroke:#FF080E; stroke-width:0; stroke-opacity:1; 
stroke-linecap:round; stroke-linejoin:round;fill-rule:evenodd;"
d="M 41694,11305
41930,11305
41930,11915
41694,11915
41694,11305
Z" /> 
<path style="fill:#FF080E; fill-opacity:1.0; 
stroke:#FF080E; stroke-width:0; stroke-opacity:1; 
stroke-linecap:round; stroke-linejoin:round;fill-rule:evenodd;"
d="M 42194,11305
42430,11305
42430,11915
42194,11915
42194,11305
Z" /> 
<path style="fill:#FF080E; fill-opacity:1.0; 
stroke:#FF080E; stroke-width:0; stroke-opacity:1; 
stroke-linecap:round; stroke-linejoin:round;fill-rule:evenodd;"
d="M 42694,11305
42930,11305
42930,11915
42694,11915
42694,11305
Z" /> 
</g>
<g >
</g>
<g >
<path style="fill:#FF080E; fill-opacity:1.0; 
stroke:#FF080E; stroke-width:0; stroke-opacity:1; 
stroke-linecap:round; stroke-linejoin:round;fill-rule:evenodd;"
d="M 36544,15517
36544,15753
35934,15753
35934,15517
36544,15517
Z" /> 
<path style="fill:#FF080E; fill-opacity:1.0; 
stroke:#FF080E; stroke-width:0; stroke-opacity:1; 
stroke-linecap:round; stroke-linejoin:round;fill-rule:evenodd;"
d="M 36544,15017
36544,15253
35934,15253
35934,15017
36544,15017
Z" /> 
<path style="fill:#FF080E; fill-opacity:1.0; 
stroke:#FF080E; stroke-width:0; stroke-opacity:1; 
stroke-linecap:round; stroke-linejoin:round;fill-rule:evenodd;"
d="M 36544,14517
36544,14753
35934,14753
35934,14517
36544,14517
Z" /> 
<path style="fill:#FF080E; fill-opacity:1.0; 
stroke:#FF080E; stroke-width:0; stroke-opacity:1; 
stroke-linecap:round; stroke-linejoin:round;fill-rule:evenodd;"
d="M 36544,14017
36544,14253
35934,14253
35934,14017
36544,14017
Z" /> 
<path style="fill:#FF080E; fill-opacity:1.0; 
stroke:#FF080E; stroke-width:0; stroke-opacity:1; 
stroke-linecap:round; stroke-linejoin:round;fill-rule:evenodd;"
d="M 34419,14017
34419,14253
33808,14253
33808,14017
34419,14017
Z" /> 
<path style="fill:#FF080E; fill-opacity:1.0; 
stroke:#FF080E; stroke-width:0; stroke-opacity:1; 
stroke-linecap:round; stroke-linejoin:round;fill-rule:evenodd;"
d="M 34419,14517
34419,14753
33808,14753
33808,14517
34419,14517
Z" /> 
<path style="fill:#FF080E; fill-opacity:1.0; 
stroke:#FF080E; stroke-width:0; stroke-opacity:1; 
stroke-linecap:round; stroke-linejoin:round;fill-rule:evenodd;"
d="M 34419,15017
34419,15253
33808,15253
33808,15017
34419,15017
Z" /> 
<path style="fill:#FF080E; fill-opacity:1.0; 
stroke:#FF080E; stroke-width:0; stroke-opacity:1; 
stroke-linecap:round; stroke-linejoin:round;fill-rule:evenodd;"
d="M 34419,15517
34419,15753
33808,15753
33808,15517
34419,15517
Z" /> 
</g>
<g >
</g>
<g >
</g>
<g >
<path style="fill:#FF080E; fill-opacity:1.0; 
stroke:#FF080E; stroke-width:0; stroke-opacity:1; 
stroke-linecap:round; stroke-linejoin:round;fill-rule:evenodd;"
d="M 44826,10307
44826,10425
44275,10425
44275,10307
44826,10307
Z" /> 
<path style="fill:#FF080E; fill-opacity:1.0; 
stroke:#FF080E; stroke-width:0; stroke-opacity:1; 
stroke-linecap:round; stroke-linejoin:round;fill-rule:evenodd;"
d="M 44826,10110
44826,10228
44275,10228
44275,10110
44826,10110
Z" /> 
<path style="fill:#FF080E; fill-opacity:1.0; 
stroke:#FF080E; stroke-width:0; stroke-opacity:1; 
stroke-linecap:round; stroke-linejoin:round;fill-rule:evenodd;"
d="M 44826,9913
44826,10031
44275,10031
44275,9913
44826,9913
Z" /> 
<path style="fill:#FF080E; fill-opacity:1.0; 
stroke:#FF080E; stroke-width:0; stroke-opacity:1; 
stroke-linecap:round; stroke-linejoin:round;fill-rule:evenodd;"
d="M 44826,9716
44826,9834
44275,9834
44275,9716
44826,9716
Z" /> 
<path style="fill:#FF080E; fill-opacity:1.0; 
stroke:#FF080E; stroke-width:0; stroke-opacity:1; 
stroke-linecap:round; stroke-linejoin:round;fill-rule:evenodd;"
d="M 44826,9519
44826,9637
44275,9637
44275,9519
44826,9519
Z" /> 
<path style="fill:#FF080E; fill-opacity:1.0; 
stroke:#FF080E; stroke-width:0; stroke-opacity:1; 
stroke-linecap:round; stroke-linejoin:round;fill-rule:evenodd;"
d="M 46558,9519
46558,9637
46007,9637
46007,9519
46558,9519
Z" /> 
<path style="fill:#FF080E; fill-opacity:1.0; 
stroke:#FF080E; stroke-width:0; stroke-opacity:1; 
stroke-linecap:round; stroke-linejoin:round;fill-rule:evenodd;"
d="M 46558,9716
46558,9834
46007,9834
46007,9716
46558,9716
Z" /> 
<path style="fill:#FF080E; fill-opacity:1.0; 
stroke:#FF080E; stroke-width:0; stroke-opacity:1; 
stroke-linecap:round; stroke-linejoin:round;fill-rule:evenodd;"
d="M 46558,9913
46558,10031
46007,10031
46007,9913
46558,9913
Z" /> 
<path style="fill:#FF080E; fill-opacity:1.0; 
stroke:#FF080E; stroke-width:0; stroke-opacity:1; 
stroke-linecap:round; stroke-linejoin:round;fill-rule:evenodd;"
d="M 46558,10110
46558,10228
46007,10228
46007,10110
46558,10110
Z" /> 
<path style="fill:#FF080E; fill-opacity:1.0; 
stroke:#FF080E; stroke-width:0; stroke-opacity:1; 
stroke-linecap:round; stroke-linejoin:round;fill-rule:evenodd;"
d="M 46558,10307
46558,10425
46007,10425
46007,10307
46558,10307
Z" /> 
</g>
<g >
<path style="fill:#FF080E; fill-opacity:1.0; 
stroke:#FF080E; stroke-width:0; stroke-opacity:1; 
stroke-linecap:round; stroke-linejoin:round;fill-rule:evenodd;"
d="M 35861,16827
35869,16828
35877,16830
35885,16833
35893,16836
35900,16841
35907,16846
35913,16851
35919,16858
35924,16865
35928,16872
35932,16879
35934,16887
35937,16896
35938,16904
35938,16912
35938,17085
35938,17093
35937,17101
35934,17110
35932,17118
35928,17125
35924,17132
35919,17139
35913,17146
35907,17151
35900,17156
35893,17161
35885,17164
35877,17167
35869,17169
35861,17170
35852,17171
35650,17171
35642,17170
35633,17169
35625,17167
35617,17164
35610,17161
35602,17156
35596,17151
35589,17146
35584,17139
35579,17132
35574,17125
35571,17118
35568,17110
35566,17101
35565,17093
35564,17085
35564,16912
35565,16904
35566,16896
35568,16887
35571,16879
35574,16872
35579,16865
35584,16858
35589,16851
35596,16846
35602,16841
35610,16836
35617,16833
35625,16830
35633,16828
35642,16827
35650,16826
35852,16826
35861,16827
Z" /> 
<path style="fill:#FF080E; fill-opacity:1.0; 
stroke:#FF080E; stroke-width:0; stroke-opacity:1; 
stroke-linecap:round; stroke-linejoin:round;fill-rule:evenodd;"
d="M 35861,16207
35869,16208
35877,16210
35885,16213
35893,16216
35900,16221
35907,16226
35913,16231
35919,16238
35924,16244
35928,16252
35932,16259
35934,16267
35937,16276
35938,16284
35938,16292
35938,16465
35938,16473
35937,16481
35934,16490
35932,16498
35928,16505
35924,16512
35919,16519
35913,16525
35907,16531
35900,16536
35893,16541
35885,16544
35877,16547
35869,16549
35861,16550
35852,16551
35650,16551
35642,16550
35633,16549
35625,16547
35617,16544
35610,16541
35602,16536
35596,16531
35589,16525
35584,16519
35579,16512
35574,16505
35571,16498
35568,16490
35566,16481
35565,16473
35564,16465
35564,16292
35565,16284
35566,16276
35568,16267
35571,16259
35574,16252
35579,16244
35584,16238
35589,16231
35596,16226
35602,16221
35610,16216
35617,16213
35625,16210
35633,16208
35642,16207
35650,16206
35852,16206
35861,16207
Z" /> 
</g>
<g >
<path style="fill:#FF080E; fill-opacity:1.0; 
stroke:#FF080E; stroke-width:0; stroke-opacity:1; 
stroke-linecap:round; stroke-linejoin:round;fill-rule:evenodd;"
d="M 40288,16655
40296,16657
40304,16659
40312,16662
40320,16665
40327,16670
40334,16675
40340,16680
40346,16686
40351,16693
40355,16701
40359,16708
40362,16716
40364,16724
40365,16733
40365,16741
40365,16943
40365,16951
40364,16960
40362,16968
40359,16976
40355,16984
40351,16991
40346,16998
40340,17004
40334,17009
40327,17015
40320,17019
40312,17022
40304,17025
40296,17027
40288,17029
40279,17029
40107,17029
40099,17029
40090,17027
40082,17025
40074,17022
40066,17019
40059,17015
40052,17009
40046,17004
40040,16998
40035,16991
40031,16984
40027,16976
40025,16968
40023,16960
40021,16951
40021,16943
40021,16741
40021,16733
40023,16724
40025,16716
40027,16708
40031,16701
40035,16693
40040,16686
40046,16680
40052,16675
40059,16670
40066,16665
40074,16662
40082,16659
40090,16657
40099,16655
40107,16655
40279,16655
40288,16655
Z" /> 
<path style="fill:#FF080E; fill-opacity:1.0; 
stroke:#FF080E; stroke-width:0; stroke-opacity:1; 
stroke-linecap:round; stroke-linejoin:round;fill-rule:evenodd;"
d="M 40908,16655
40916,16657
40924,16659
40932,16662
40940,16665
40947,16670
40954,16675
40960,16680
40966,16686
40971,16693
40975,16701
40979,16708
40982,16716
40984,16724
40985,16733
40985,16741
40985,16943
40985,16951
40984,16960
40982,16968
40979,16976
40975,16984
40971,16991
40966,16998
40960,17004
40954,17009
40947,17015
40940,17019
40932,17022
40924,17025
40916,17027
40908,17029
40899,17029
40727,17029
40719,17029
40710,17027
40702,17025
40694,17022
40686,17019
40679,17015
40672,17009
40666,17004
40660,16998
40655,16991
40651,16984
40648,16976
40645,16968
40643,16960
40641,16951
40641,16943
40641,16741
40641,16733
40643,16724
40645,16716
40648,16708
40651,16701
40655,16693
40660,16686
40666,16680
40672,16675
40679,16670
40686,16665
40694,16662
40702,16659
40710,16657
40719,16655
40727,16655
40899,16655
40908,16655
Z" /> 
</g>
<g >
<path style="fill:#FF080E; fill-opacity:1.0; 
stroke:#FF080E; stroke-width:0; stroke-opacity:1; 
stroke-linecap:round; stroke-linejoin:round;fill-rule:evenodd;"
d="M 39520,15277
39528,15279
39537,15281
39544,15284
39552,15287
39559,15292
39566,15297
39572,15302
39578,15309
39583,15315
39587,15323
39591,15330
39594,15338
39596,15346
39597,15355
39598,15363
39598,15565
39597,15573
39596,15582
39594,15590
39591,15598
39587,15606
39583,15613
39578,15620
39572,15626
39566,15632
39559,15637
39552,15641
39544,15645
39537,15647
39528,15649
39520,15651
39512,15651
39339,15651
39331,15651
39322,15649
39314,15647
39306,15645
39299,15641
39291,15637
39285,15632
39278,15626
39273,15620
39268,15613
39263,15606
39260,15598
39257,15590
39255,15582
39254,15573
39253,15565
39253,15363
39254,15355
39255,15346
39257,15338
39260,15330
39263,15323
39268,15315
39273,15309
39278,15302
39285,15297
39291,15292
39299,15287
39306,15284
39314,15281
39322,15279
39331,15277
39339,15277
39512,15277
39520,15277
Z" /> 
<path style="fill:#FF080E; fill-opacity:1.0; 
stroke:#FF080E; stroke-width:0; stroke-opacity:1; 
stroke-linecap:round; stroke-linejoin:round;fill-rule:evenodd;"
d="M 40140,15277
40148,15279
40157,15281
40165,15284
40172,15287
40179,15292
40186,15297
40192,15302
40198,15309
40203,15315
40208,15323
40211,15330
40214,15338
40216,15346
40217,15355
40218,15363
40218,15565
40217,15573
40216,15582
40214,15590
40211,15598
40208,15606
40203,15613
40198,15620
40192,15626
40186,15632
40179,15637
40172,15641
40165,15645
40157,15647
40148,15649
40140,15651
40132,15651
39959,15651
39951,15651
39943,15649
39934,15647
39926,15645
39919,15641
39912,15637
39905,15632
39898,15626
39893,15620
39888,15613
39883,15606
39880,15598
39877,15590
39875,15582
39874,15573
39873,15565
39873,15363
39874,15355
39875,15346
39877,15338
39880,15330
39883,15323
39888,15315
39893,15309
39898,15302
39905,15297
39912,15292
39919,15287
39926,15284
39934,15281
39943,15279
39951,15277
39959,15277
40132,15277
40140,15277
Z" /> 
</g>
<g >
</g>
<g >
</g>
<g >
</g>
<g >
</g>
<g >
</g>
<g >
</g>
<g >
</g>
<g >
</g>
<g >
</g>
<g >
</g>
<g >
</g>
<g >
</g>
<g >
<path style="fill:#FF080E; fill-opacity:1.0; 
stroke:#FF080E; stroke-width:0; stroke-opacity:1; 
stroke-linecap:round; stroke-linejoin:round;fill-rule:evenodd;"
d="M 38019,13129
38019,13011
38570,13011
38570,13129
38019,13129
Z" /> 
<path style="fill:#FF080E; fill-opacity:1.0; 
stroke:#FF080E; stroke-width:0; stroke-opacity:1; 
stroke-linecap:round; stroke-linejoin:round;fill-rule:evenodd;"
d="M 38019,13326
38019,13208
38570,13208
38570,13326
38019,13326
Z" /> 
<path style="fill:#FF080E; fill-opacity:1.0; 
stroke:#FF080E; stroke-width:0; stroke-opacity:1; 
stroke-linecap:round; stroke-linejoin:round;fill-rule:evenodd;"
d="M 38019,13523
38019,13405
38570,13405
38570,13523
38019,13523
Z" /> 
<path style="fill:#FF080E; fill-opacity:1.0; 
stroke:#FF080E; stroke-width:0; stroke-opacity:1; 
stroke-linecap:round; stroke-linejoin:round;fill-rule:evenodd;"
d="M 38019,13720
38019,13602
38570,13602
38570,13720
38019,13720
Z" /> 
<path style="fill:#FF080E; fill-opacity:1.0; 
stroke:#FF080E; stroke-width:0; stroke-opacity:1; 
stroke-linecap:round; stroke-linejoin:round;fill-rule:evenodd;"
d="M 38019,13917
38019,13799
38570,13799
38570,13917
38019,13917
Z" /> 
<path style="fill:#FF080E; fill-opacity:1.0; 
stroke:#FF080E; stroke-width:0; stroke-opacity:1; 
stroke-linecap:round; stroke-linejoin:round;fill-rule:evenodd;"
d="M 39751,13917
39751,13799
40302,13799
40302,13917
39751,13917
Z" /> 
<path style="fill:#FF080E; fill-opacity:1.0; 
stroke:#FF080E; stroke-width:0; stroke-opacity:1; 
stroke-linecap:round; stroke-linejoin:round;fill-rule:evenodd;"
d="M 39751,13720
39751,13602
40302,13602
40302,13720
39751,13720
Z" /> 
<path style="fill:#FF080E; fill-opacity:1.0; 
stroke:#FF080E; stroke-width:0; stroke-opacity:1; 
stroke-linecap:round; stroke-linejoin:round;fill-rule:evenodd;"
d="M 39751,13523
39751,13405
40302,13405
40302,13523
39751,13523
Z" /> 
<path style="fill:#FF080E; fill-opacity:1.0; 
stroke:#FF080E; stroke-width:0; stroke-opacity:1; 
stroke-linecap:round; stroke-linejoin:round;fill-rule:evenodd;"
d="M 39751,13326
39751,13208
40302,13208
40302,13326
39751,13326
Z" /> 
<path style="fill:#FF080E; fill-opacity:1.0; 
stroke:#FF080E; stroke-width:0; stroke-opacity:1; 
stroke-linecap:round; stroke-linejoin:round;fill-rule:evenodd;"
d="M 39751,13129
39751,13011
40302,13011
40302,13129
39751,13129
Z" /> 
</g>
<g >
<path style="fill:#FF080E; fill-opacity:1.0; 
stroke:#FF080E; stroke-width:0; stroke-opacity:1; 
stroke-linecap:round; stroke-linejoin:round;fill-rule:evenodd;"
d="M 37958,15102
37967,15104
37977,15106
37986,15109
37994,15113
38003,15118
38010,15124
38018,15131
38024,15138
38030,15146
38035,15154
38039,15163
38042,15172
38045,15181
38046,15191
38046,15200
38046,15456
38046,15466
38045,15475
38042,15485
38039,15494
38035,15503
38030,15511
38024,15519
38018,15526
38010,15532
38003,15538
37994,15543
37986,15547
37977,15550
37967,15553
37958,15554
37948,15555
37594,15555
37584,15554
37575,15553
37565,15550
37556,15547
37547,15543
37539,15538
37531,15532
37524,15526
37518,15519
37512,15511
37507,15503
37503,15494
37500,15485
37497,15475
37496,15466
37495,15456
37495,15200
37496,15191
37497,15181
37500,15172
37503,15163
37507,15154
37512,15146
37518,15138
37524,15131
37531,15124
37539,15118
37547,15113
37556,15109
37565,15106
37575,15104
37584,15102
37594,15102
37948,15102
37958,15102
Z" /> 
<path style="fill:#FF080E; fill-opacity:1.0; 
stroke:#FF080E; stroke-width:0; stroke-opacity:1; 
stroke-linecap:round; stroke-linejoin:round;fill-rule:evenodd;"
d="M 37958,14295
37967,14297
37977,14299
37986,14302
37994,14306
38003,14311
38010,14317
38018,14324
38024,14331
38030,14339
38035,14347
38039,14356
38042,14365
38045,14374
38046,14384
38046,14393
38046,14649
38046,14659
38045,14668
38042,14678
38039,14687
38035,14696
38030,14704
38024,14712
38018,14719
38010,14725
38003,14731
37994,14736
37986,14740
37977,14743
37967,14746
37958,14747
37948,14748
37594,14748
37584,14747
37575,14746
37565,14743
37556,14740
37547,14736
37539,14731
37531,14725
37524,14719
37518,14712
37512,14704
37507,14696
37503,14687
37500,14678
37497,14668
37496,14659
37495,14649
37495,14393
37496,14384
37497,14374
37500,14365
37503,14356
37507,14347
37512,14339
37518,14331
37524,14324
37531,14317
37539,14311
37547,14306
37556,14302
37565,14299
37575,14297
37584,14295
37594,14295
37948,14295
37958,14295
Z" /> 
</g>
<g >
<path style="fill:#FF080E; fill-opacity:1.0; 
stroke:#FF080E; stroke-width:0; stroke-opacity:1; 
stroke-linecap:round; stroke-linejoin:round;fill-rule:evenodd;"
d="M 37206,15248
37215,15249
37225,15252
37234,15255
37242,15259
37251,15264
37259,15270
37266,15276
37272,15284
37278,15291
37283,15300
37287,15308
37290,15317
37293,15327
37294,15336
37294,15346
37294,15602
37294,15612
37293,15621
37290,15630
37287,15640
37283,15648
37278,15657
37272,15664
37266,15671
37259,15678
37251,15684
37242,15689
37234,15693
37225,15696
37215,15698
37206,15700
37196,15700
36842,15700
36832,15700
36823,15698
36813,15696
36804,15693
36795,15689
36787,15684
36779,15678
36772,15671
36766,15664
36760,15657
36755,15648
36751,15640
36748,15630
36745,15621
36744,15612
36743,15602
36743,15346
36744,15336
36745,15327
36748,15317
36751,15308
36755,15300
36760,15291
36766,15284
36772,15276
36779,15270
36787,15264
36795,15259
36804,15255
36813,15252
36823,15249
36832,15248
36842,15248
37196,15248
37206,15248
Z" /> 
<path style="fill:#FF080E; fill-opacity:1.0; 
stroke:#FF080E; stroke-width:0; stroke-opacity:1; 
stroke-linecap:round; stroke-linejoin:round;fill-rule:evenodd;"
d="M 37206,14441
37215,14442
37225,14445
37234,14448
37242,14452
37251,14457
37259,14463
37266,14469
37272,14476
37278,14484
37283,14492
37287,14501
37290,14510
37293,14520
37294,14529
37294,14539
37294,14795
37294,14804
37293,14814
37290,14823
37287,14832
37283,14841
37278,14849
37272,14857
37266,14864
37259,14871
37251,14877
37242,14882
37234,14886
37225,14889
37215,14891
37206,14893
37196,14893
36842,14893
36832,14893
36823,14891
36813,14889
36804,14886
36795,14882
36787,14877
36779,14871
36772,14864
36766,14857
36760,14849
36755,14841
36751,14832
36748,14823
36745,14814
36744,14804
36743,14795
36743,14539
36744,14529
36745,14520
36748,14510
36751,14501
36755,14492
36760,14484
36766,14476
36772,14469
36779,14463
36787,14457
36795,14452
36804,14448
36813,14445
36823,14442
36832,14441
36842,14440
37196,14440
37206,14441
Z" /> 
</g>
<g >
<path style="fill:#FF080E; fill-opacity:1.0; 
stroke:#FF080E; stroke-width:0; stroke-opacity:1; 
stroke-linecap:round; stroke-linejoin:round;fill-rule:evenodd;"
d="M 35944,11000
35944,11314
35196,11314
35196,11000
35944,11000
Z" /> 
<path style="fill:#FF080E; fill-opacity:1.0; 
stroke:#FF080E; stroke-width:0; stroke-opacity:1; 
stroke-linecap:round; stroke-linejoin:round;fill-rule:evenodd;"
d="M 37125,10625
37125,10940
36377,10940
36377,10625
37125,10625
Z" /> 
<path style="fill:#FF080E; fill-opacity:1.0; 
stroke:#FF080E; stroke-width:0; stroke-opacity:1; 
stroke-linecap:round; stroke-linejoin:round;fill-rule:evenodd;"
d="M 37125,11374
37125,11688
36377,11688
36377,11374
37125,11374
Z" /> 
</g>
<g >
<path style="fill:#FF080E; fill-opacity:1.0; 
stroke:#FF080E; stroke-width:0; stroke-opacity:1; 
stroke-linecap:round; stroke-linejoin:round;fill-rule:evenodd;"
d="M 36220,12897
36220,13212
35472,13212
35472,12897
36220,12897
Z" /> 
<path style="fill:#FF080E; fill-opacity:1.0; 
stroke:#FF080E; stroke-width:0; stroke-opacity:1; 
stroke-linecap:round; stroke-linejoin:round;fill-rule:evenodd;"
d="M 37401,12523
37401,12838
36653,12838
36653,12523
37401,12523
Z" /> 
<path style="fill:#FF080E; fill-opacity:1.0; 
stroke:#FF080E; stroke-width:0; stroke-opacity:1; 
stroke-linecap:round; stroke-linejoin:round;fill-rule:evenodd;"
d="M 37401,13271
37401,13586
36653,13586
36653,13271
37401,13271
Z" /> 
</g>
<g >
</g>
<g >
<path style="fill:#FF080E; fill-opacity:1.0; 
stroke:#FF080E; stroke-width:0; stroke-opacity:1; 
stroke-linecap:round; stroke-linejoin:round;fill-rule:evenodd;"
d="M 38574,15449
38583,15450
38592,15452
38601,15455
38609,15459
38617,15464
38624,15470
38631,15476
38637,15483
38643,15490
38648,15498
38652,15506
38655,15515
38657,15524
38658,15533
38659,15542
38659,15768
38658,15777
38657,15786
38655,15795
38652,15804
38648,15812
38643,15820
38637,15828
38631,15834
38624,15840
38617,15846
38609,15851
38601,15855
38592,15858
38583,15860
38574,15861
38565,15862
38378,15862
38369,15861
38360,15860
38351,15858
38342,15855
38334,15851
38326,15846
38319,15840
38312,15834
38306,15828
38300,15820
38296,15812
38292,15804
38289,15795
38286,15786
38285,15777
38285,15768
38285,15542
38285,15533
38286,15524
38289,15515
38292,15506
38296,15498
38300,15490
38306,15483
38312,15476
38319,15470
38326,15464
38334,15459
38342,15455
38351,15452
38360,15450
38369,15449
38378,15448
38565,15448
38574,15449
Z" /> 
<path style="fill:#FF080E; fill-opacity:1.0; 
stroke:#FF080E; stroke-width:0; stroke-opacity:1; 
stroke-linecap:round; stroke-linejoin:round;fill-rule:evenodd;"
d="M 38574,14760
38583,14761
38592,14763
38601,14766
38609,14770
38617,14775
38624,14781
38631,14787
38637,14794
38643,14801
38648,14809
38652,14817
38655,14826
38657,14835
38658,14844
38659,14853
38659,15079
38658,15088
38657,15097
38655,15106
38652,15115
38648,15123
38643,15131
38637,15139
38631,15145
38624,15152
38617,15157
38609,15162
38601,15166
38592,15169
38583,15171
38574,15172
38565,15173
38378,15173
38369,15172
38360,15171
38351,15169
38342,15166
38334,15162
38326,15157
38319,15152
38312,15145
38306,15139
38300,15131
38296,15123
38292,15115
38289,15106
38286,15097
38285,15088
38285,15079
38285,14853
38285,14844
38286,14835
38289,14826
38292,14817
38296,14809
38300,14801
38306,14794
38312,14787
38319,14781
38326,14775
38334,14770
38342,14766
38351,14763
38360,14761
38369,14760
38378,14759
38565,14759
38574,14760
Z" /> 
</g>
<g >
</g>
<g >
</g>
<g >
</g>
</g>
<g style="fill:#000000; fill-opacity:1.0; 
stroke:#000000; stroke-width:0; stroke-opacity:1; 
stroke-linecap:round; stroke-linejoin:round;">
</g>
<g style="fill:#C2C200; fill-opacity:1.0; 
stroke:#C2C200; stroke-width:0; stroke-opacity:1; 
stroke-linecap:round; stroke-linejoin:round;">
</g>
<g style="fill:#C2C200; fill-opacity:1.0; 
stroke:#C2C200; stroke-width:59.0551; stroke-opacity:1; 
stroke-linecap:round; stroke-linejoin:round;">
</g>
<g style="fill:#C2C200; fill-opacity:0.0; 
stroke:#C2C200; stroke-width:59.0551; stroke-opacity:1; 
stroke-linecap:round; stroke-linejoin:round;">
<path d="M24070 21094
L50070 21094
" />
<path d="M51070 6194
L50070 5194
" />
<path d="M51070 19094
L51070 6194
" />
<path d="M50070 694
L49470 94
" />
<path d="M50070 20094
L51070 19094
" />
<path d="M50070 21094
L50070 20094
" />
<path d="M50070 5194
L50070 694
" />
<path d="M24070 94
L24070 21094
" />
<path d="M49470 94
L24070 94
" />
<g >
</g>
<g >
</g>
<g >
</g>
<g >
</g>
<g >
</g>
<g >
</g>
<g >
</g>
<g >
</g>
<g >
</g>
<g >
</g>
<g >
</g>
<g >
</g>
<g >
</g>
<g >
</g>
<g >
</g>
<g >
</g>
<g >
</g>
<g >
</g>
<g >
</g>
<g >
</g>
<g >
</g>
<g >
</g>
<g >
</g>
<g >
</g>
<g >
</g>
<g >
</g>
<g >
</g>
<g >
</g>
<g >
</g>
<g >
</g>
<g >
</g>
<g >
</g>
<g >
</g>
<g >
</g>
<g >
</g>
<g >
</g>
<g >
</g>
<g >
</g>
<g >
</g>
<g >
</g>
<g >
</g>
<g >
</g>
<g >
</g>
<g >
</g>
<g >
</g>
<g >
</g>
<g >
</g>
<g >
</g>
<g >
</g>
<g >
</g>
<g >
</g>
<g >
</g>
<g >
</g>
<g >
</g>
<g >
</g>
<g >
</g>
<g >
</g>
<g >
</g>
<g >
</g>
<g >
</g>
<g >
</g>
<g >
</g>
<g >
</g>
<g >
</g>
<g >
</g>
<g >
</g>
</g> 
</svg>
