<?xml version="1.0" standalone="no"?>
 <!DOCTYPE svg PUBLIC "-//W3C//DTD SVG 1.1//EN" 
 "http://www.w3.org/Graphics/SVG/1.1/DTD/svg11.dtd"> 
<svg xmlns="http://www.w3.org/2000/svg" version="1.1" 
    width="13.8303cm" height="6.10108cm" viewBox="0 0 54450 24020 ">
<title>SVG Picture created as uno shield-B_Paste.svg date 2019/06/21 18:17:21 </title>
  <desc>Picture generated by PCBNEW </desc>
<g style="fill:#000000; fill-opacity:1;stroke:#000000; stroke-opacity:1;
stroke-linecap:round; stroke-linejoin:round; "
 transform="translate(0 0) scale(1 1)">
</g>
<g style="fill:#000000; fill-opacity:0.0; 
stroke:#000000; stroke-width:-0.000393701; stroke-opacity:1; 
stroke-linecap:round; stroke-linejoin:round;">
</g>
<g style="fill:#0B00C2; fill-opacity:0.0; 
stroke:#0B00C2; stroke-width:-0.000393701; stroke-opacity:1; 
stroke-linecap:round; stroke-linejoin:round;">
</g>
<g style="fill:#0B00C2; fill-opacity:0.0; 
stroke:#0B00C2; stroke-width:31.4961; stroke-opacity:1; 
stroke-linecap:round; stroke-linejoin:round;">
<circle cx="37012" cy="17667.2" r="124.128" /> 
<circle cx="37304.9" cy="17672.4" r="124.128" /> 
<circle cx="39908.3" cy="18359" r="124.128" /> 
<circle cx="40625.3" cy="18363" r="124.128" /> 
<circle cx="40660.1" cy="13703" r="124.128" /> 
<circle cx="39572.8" cy="12837" r="124.128" /> 
<circle cx="39963.8" cy="11793.2" r="124.128" /> 
<circle cx="40889" cy="11700" r="124.128" /> 
<circle cx="41091.6" cy="11647.2" r="124.128" /> 
<circle cx="41947" cy="10883.5" r="124.128" /> 
<circle cx="42467.6" cy="10968.7" r="124.128" /> 
<circle cx="42883.8" cy="11017.5" r="124.128" /> 
<circle cx="43136.7" cy="11398.7" r="124.128" /> 
<circle cx="42063.6" cy="12067.4" r="124.128" /> 
<circle cx="41619.8" cy="12352.7" r="124.128" /> 
<circle cx="41235.7" cy="12429.9" r="124.128" /> 
<circle cx="43324.7" cy="12008.8" r="124.128" /> 
<circle cx="43283.9" cy="12416.8" r="124.128" /> 
<circle cx="43260.9" cy="12742.8" r="124.128" /> 
<circle cx="43058.4" cy="12989.9" r="124.128" /> 
<circle cx="42559.8" cy="13277" r="124.128" /> 
<circle cx="42055.8" cy="13279.1" r="124.128" /> 
<circle cx="39056.9" cy="13222.5" r="124.128" /> 
<circle cx="40467.3" cy="13240" r="124.128" /> 
<circle cx="40970.4" cy="13454.1" r="124.128" /> 
<circle cx="40657.8" cy="13707.8" r="124.128" /> 
<circle cx="40637.4" cy="14414.9" r="124.128" /> 
<circle cx="41688.1" cy="14248.9" r="124.128" /> 
<circle cx="41255.3" cy="14316.2" r="124.128" /> 
<circle cx="43156.6" cy="15210.3" r="124.128" /> 
<circle cx="42945.4" cy="15679.8" r="124.128" /> 
<circle cx="43177" cy="16255.6" r="124.128" /> 
<circle cx="42055.3" cy="17336.9" r="124.128" /> 
<circle cx="41176.9" cy="17384.5" r="124.128" /> 
<circle cx="40304.8" cy="18234.8" r="124.128" /> 
<circle cx="39754.8" cy="17620.7" r="124.128" /> 
<circle cx="39289.1" cy="17734.4" r="124.128" /> 
<circle cx="40067.3" cy="14686.2" r="124.128" /> 
<circle cx="39710.3" cy="14275.8" r="124.128" /> 
<circle cx="39334.4" cy="16412.4" r="124.128" /> 
<circle cx="38902.1" cy="16283" r="124.128" /> 
<circle cx="38416.6" cy="16238" r="124.128" /> 
<circle cx="38304.7" cy="15820" r="124.128" /> 
<circle cx="37910.8" cy="15859.6" r="124.128" /> 
<circle cx="37398.4" cy="15366.4" r="124.128" /> 
<circle cx="37614.6" cy="14034.5" r="124.128" /> 
<circle cx="38001.7" cy="12498.4" r="124.128" /> 
<circle cx="38404.6" cy="11838.8" r="124.128" /> 
<circle cx="37997.9" cy="11792.2" r="124.128" /> 
<circle cx="37995.8" cy="10566.5" r="124.128" /> 
<circle cx="35857.7" cy="11467.5" r="124.128" /> 
<circle cx="34923.4" cy="10660" r="124.128" /> 
<circle cx="33863.3" cy="12310.1" r="124.128" /> 
<circle cx="34445.7" cy="12293" r="124.128" /> 
<circle cx="34564.6" cy="12629.1" r="124.128" /> 
<circle cx="34906.1" cy="12726.9" r="124.128" /> 
<circle cx="35851.6" cy="12765" r="124.128" /> 
<circle cx="34948.1" cy="13418.5" r="124.128" /> 
<circle cx="34552.5" cy="13571.9" r="124.128" /> 
<circle cx="35817.9" cy="14642.6" r="124.128" /> 
<circle cx="37577.6" cy="16408.1" r="124.128" /> 
<circle cx="37588.2" cy="17081.1" r="124.128" /> 
<circle cx="37244.6" cy="16784.4" r="124.128" /> 
<circle cx="37700.6" cy="17688.6" r="124.128" /> 
<circle cx="34714.3" cy="14667.8" r="124.128" /> 
<circle cx="33888" cy="15385.5" r="124.128" /> 
<circle cx="36344.7" cy="16636.9" r="124.128" /> 
<circle cx="35940.4" cy="17194.3" r="124.128" /> 
<circle cx="36673.4" cy="16951.8" r="124.128" /> 
<circle cx="40354.2" cy="10566.6" r="124.128" /> 
<g >
</g>
<g >
</g>
<g >
</g>
<g >
</g>
<g >
</g>
<g >
</g>
<g >
</g>
<g >
</g>
<g >
</g>
<g >
</g>
<g >
</g>
<g >
</g>
<g >
</g>
<g >
</g>
<g style="fill:#008400; fill-opacity:0.0; 
stroke:#008400; stroke-width:31.4961; stroke-opacity:1; 
stroke-linecap:round; stroke-linejoin:round;">
</g>
<g style="fill:#008400; fill-opacity:0.0; 
stroke:#008400; stroke-width:0; stroke-opacity:1; 
stroke-linecap:round; stroke-linejoin:round;">
</g>
<g style="fill:#008400; fill-opacity:1.0; 
stroke:#008400; stroke-width:0; stroke-opacity:1; 
stroke-linecap:round; stroke-linejoin:round;">
<path style="fill:#008400; fill-opacity:1.0; 
stroke:#008400; stroke-width:0; stroke-opacity:1; 
stroke-linecap:round; stroke-linejoin:round;fill-rule:evenodd;"
d="M 37935,12039
37941,12040
37946,12041
37952,12043
37957,12046
37962,12049
37966,12052
37970,12056
37974,12060
37978,12065
37981,12070
37983,12075
37985,12080
37986,12086
37987,12091
37987,12097
37987,12233
37987,12238
37986,12244
37985,12250
37983,12255
37981,12260
37978,12265
37974,12270
37970,12274
37966,12278
37962,12281
37957,12284
37952,12286
37946,12288
37941,12290
37935,12291
37929,12291
37813,12291
37808,12291
37802,12290
37796,12288
37791,12286
37786,12284
37781,12281
37776,12278
37772,12274
37768,12270
37765,12265
37762,12260
37760,12255
37758,12250
37756,12244
37755,12238
37755,12233
37755,12097
37755,12091
37756,12086
37758,12080
37760,12075
37762,12070
37765,12065
37768,12060
37772,12056
37776,12052
37781,12049
37786,12046
37791,12043
37796,12041
37802,12040
37808,12039
37813,12039
37929,12039
37935,12039
Z" /> 
<path style="fill:#008400; fill-opacity:1.0; 
stroke:#008400; stroke-width:0; stroke-opacity:1; 
stroke-linecap:round; stroke-linejoin:round;fill-rule:evenodd;"
d="M 38317,12039
38323,12040
38328,12041
38333,12043
38339,12046
38343,12049
38348,12052
38352,12056
38356,12060
38360,12065
38362,12070
38365,12075
38367,12080
38368,12086
38369,12091
38369,12097
38369,12233
38369,12238
38368,12244
38367,12250
38365,12255
38362,12260
38360,12265
38356,12270
38352,12274
38348,12278
38343,12281
38339,12284
38333,12286
38328,12288
38323,12290
38317,12291
38311,12291
38195,12291
38189,12291
38184,12290
38178,12288
38173,12286
38168,12284
38163,12281
38158,12278
38154,12274
38150,12270
38147,12265
38144,12260
38141,12255
38140,12250
38138,12244
38137,12238
38137,12233
38137,12097
38137,12091
38138,12086
38140,12080
38141,12075
38144,12070
38147,12065
38150,12060
38154,12056
38158,12052
38163,12049
38168,12046
38173,12043
38178,12041
38184,12040
38189,12039
38195,12039
38311,12039
38317,12039
Z" /> 
</g>
<g >
</g>
<g >
<path style="fill:#008400; fill-opacity:1.0; 
stroke:#008400; stroke-width:0; stroke-opacity:1; 
stroke-linecap:round; stroke-linejoin:round;fill-rule:evenodd;"
d="M 37798,14634
37808,14635
37817,14637
37826,14641
37834,14645
37842,14650
37850,14655
37857,14661
37863,14668
37869,14676
37874,14684
37878,14693
37881,14701
37883,14711
37885,14720
37885,14729
37885,15089
37885,15098
37883,15107
37881,15116
37878,15125
37874,15134
37869,15142
37863,15149
37857,15156
37850,15163
37842,15168
37834,15173
37826,15177
37817,15180
37808,15183
37798,15184
37789,15185
37597,15185
37588,15184
37578,15183
37569,15180
37560,15177
37552,15173
37544,15168
37536,15163
37529,15156
37523,15149
37517,15142
37513,15134
37508,15125
37505,15116
37503,15107
37502,15098
37501,15089
37501,14729
37502,14720
37503,14711
37505,14701
37508,14693
37513,14684
37517,14676
37523,14668
37529,14661
37536,14655
37544,14650
37552,14645
37560,14641
37569,14637
37578,14635
37588,14634
37597,14633
37789,14633
37798,14634
Z" /> 
<path style="fill:#008400; fill-opacity:1.0; 
stroke:#008400; stroke-width:0; stroke-opacity:1; 
stroke-linecap:round; stroke-linejoin:round;fill-rule:evenodd;"
d="M 38537,14634
38546,14635
38555,14637
38564,14641
38573,14645
38581,14650
38588,14655
38595,14661
38601,14668
38607,14676
38612,14684
38616,14693
38619,14701
38621,14711
38623,14720
38623,14729
38623,15089
38623,15098
38621,15107
38619,15116
38616,15125
38612,15134
38607,15142
38601,15149
38595,15156
38588,15163
38581,15168
38573,15173
38564,15177
38555,15180
38546,15183
38537,15184
38527,15185
38335,15185
38326,15184
38317,15183
38307,15180
38299,15177
38290,15173
38282,15168
38274,15163
38267,15156
38261,15149
38256,15142
38251,15134
38247,15125
38244,15116
38241,15107
38240,15098
38239,15089
38239,14729
38240,14720
38241,14711
38244,14701
38247,14693
38251,14684
38256,14676
38261,14668
38267,14661
38274,14655
38282,14650
38290,14645
38299,14641
38307,14637
38317,14635
38326,14634
38335,14633
38527,14633
38537,14634
Z" /> 
</g>
<g >
<path style="fill:#008400; fill-opacity:1.0; 
stroke:#008400; stroke-width:0; stroke-opacity:1; 
stroke-linecap:round; stroke-linejoin:round;fill-rule:evenodd;"
d="M 27424,2144
27432,2145
27440,2147
27448,2150
27456,2153
27463,2158
27470,2163
27476,2168
27482,2175
27487,2181
27491,2189
27495,2196
27497,2204
27500,2213
27501,2221
27501,2229
27501,2431
27501,2440
27500,2448
27497,2456
27495,2464
27491,2472
27487,2479
27482,2486
27476,2492
27470,2498
27463,2503
27456,2507
27448,2511
27440,2514
27432,2516
27424,2517
27415,2517
27243,2517
27234,2517
27226,2516
27218,2514
27210,2511
27202,2507
27195,2503
27188,2498
27182,2492
27176,2486
27171,2479
27167,2472
27163,2464
27160,2456
27158,2448
27157,2440
27157,2431
27157,2229
27157,2221
27158,2213
27160,2204
27163,2196
27167,2189
27171,2181
27176,2175
27182,2168
27188,2163
27195,2158
27202,2153
27210,2150
27218,2147
27226,2145
27234,2144
27243,2143
27415,2143
27424,2144
Z" /> 
<path style="fill:#008400; fill-opacity:1.0; 
stroke:#008400; stroke-width:0; stroke-opacity:1; 
stroke-linecap:round; stroke-linejoin:round;fill-rule:evenodd;"
d="M 26803,2144
26812,2145
26820,2147
26828,2150
26836,2153
26843,2158
26850,2163
26856,2168
26862,2175
26867,2181
26871,2189
26875,2196
26877,2204
26879,2213
26881,2221
26881,2229
26881,2431
26881,2440
26879,2448
26877,2456
26875,2464
26871,2472
26867,2479
26862,2486
26856,2492
26850,2498
26843,2503
26836,2507
26828,2511
26820,2514
26812,2516
26803,2517
26795,2517
26623,2517
26614,2517
26606,2516
26598,2514
26590,2511
26582,2507
26575,2503
26568,2498
26562,2492
26556,2486
26551,2479
26547,2472
26543,2464
26540,2456
26538,2448
26537,2440
26537,2431
26537,2229
26537,2221
26538,2213
26540,2204
26543,2196
26547,2189
26551,2181
26556,2175
26562,2168
26568,2163
26575,2158
26582,2153
26590,2150
26598,2147
26606,2145
26614,2144
26623,2143
26795,2143
26803,2144
Z" /> 
</g>
<g >
</g>
<g >
</g>
<g >
<path style="fill:#008400; fill-opacity:1.0; 
stroke:#008400; stroke-width:0; stroke-opacity:1; 
stroke-linecap:round; stroke-linejoin:round;fill-rule:evenodd;"
d="M 28158,1817
28166,1818
28174,1820
28182,1823
28190,1827
28197,1831
28204,1836
28210,1842
28216,1848
28221,1855
28225,1862
28229,1870
28232,1878
28234,1886
28235,1894
28235,1903
28235,2104
28235,2113
28234,2121
28232,2129
28229,2137
28225,2145
28221,2152
28216,2159
28210,2165
28204,2171
28197,2176
28190,2180
28182,2184
28174,2187
28166,2189
28158,2190
28149,2190
27977,2190
27969,2190
27960,2189
27952,2187
27944,2184
27936,2180
27929,2176
27922,2171
27916,2165
27910,2159
27905,2152
27901,2145
27898,2137
27895,2129
27893,2121
27891,2113
27891,2104
27891,1903
27891,1894
27893,1886
27895,1878
27898,1870
27901,1862
27905,1855
27910,1848
27916,1842
27922,1836
27929,1831
27936,1827
27944,1823
27952,1820
27960,1818
27969,1817
27977,1816
28149,1816
28158,1817
Z" /> 
<path style="fill:#008400; fill-opacity:1.0; 
stroke:#008400; stroke-width:0; stroke-opacity:1; 
stroke-linecap:round; stroke-linejoin:round;fill-rule:evenodd;"
d="M 28778,1817
28786,1818
28794,1820
28802,1823
28810,1827
28817,1831
28824,1836
28830,1842
28836,1848
28841,1855
28845,1862
28849,1870
28852,1878
28854,1886
28855,1894
28856,1903
28856,2104
28855,2113
28854,2121
28852,2129
28849,2137
28845,2145
28841,2152
28836,2159
28830,2165
28824,2171
28817,2176
28810,2180
28802,2184
28794,2187
28786,2189
28778,2190
28769,2190
28597,2190
28589,2190
28580,2189
28572,2187
28564,2184
28557,2180
28549,2176
28543,2171
28536,2165
28531,2159
28526,2152
28521,2145
28518,2137
28515,2129
28513,2121
28511,2113
28511,2104
28511,1903
28511,1894
28513,1886
28515,1878
28518,1870
28521,1862
28526,1855
28531,1848
28536,1842
28543,1836
28549,1831
28557,1827
28564,1823
28572,1820
28580,1818
28589,1817
28597,1816
28769,1816
28778,1817
Z" /> 
</g>
<g >
<path style="fill:#008400; fill-opacity:1.0; 
stroke:#008400; stroke-width:0; stroke-opacity:1; 
stroke-linecap:round; stroke-linejoin:round;fill-rule:evenodd;"
d="M 27112,4663
27121,4665
27129,4667
27137,4669
27145,4673
27152,4677
27159,4682
27165,4688
27171,4694
27176,4701
27180,4708
27184,4716
27186,4724
27189,4732
27190,4741
27190,4749
27190,4951
27190,4959
27189,4968
27186,4976
27184,4984
27180,4991
27176,4999
27171,5005
27165,5012
27159,5017
27152,5022
27145,5027
27137,5030
27129,5033
27121,5035
27112,5036
27104,5037
26932,5037
26923,5036
26915,5035
26907,5033
26899,5030
26891,5027
26884,5022
26877,5017
26871,5012
26865,5005
26860,4999
26856,4991
26852,4984
26849,4976
26847,4968
26846,4959
26846,4951
26846,4749
26846,4741
26847,4732
26849,4724
26852,4716
26856,4708
26860,4701
26865,4694
26871,4688
26877,4682
26884,4677
26891,4673
26899,4669
26907,4667
26915,4665
26923,4663
26932,4663
27104,4663
27112,4663
Z" /> 
<path style="fill:#008400; fill-opacity:1.0; 
stroke:#008400; stroke-width:0; stroke-opacity:1; 
stroke-linecap:round; stroke-linejoin:round;fill-rule:evenodd;"
d="M 26492,4663
26501,4665
26509,4667
26517,4669
26525,4673
26532,4677
26539,4682
26545,4688
26551,4694
26556,4701
26560,4708
26564,4716
26566,4724
26568,4732
26570,4741
26570,4749
26570,4951
26570,4959
26568,4968
26566,4976
26564,4984
26560,4991
26556,4999
26551,5005
26545,5012
26539,5017
26532,5022
26525,5027
26517,5030
26509,5033
26501,5035
26492,5036
26484,5037
26312,5037
26303,5036
26295,5035
26287,5033
26279,5030
26271,5027
26264,5022
26257,5017
26251,5012
26245,5005
26240,4999
26236,4991
26232,4984
26229,4976
26227,4968
26226,4959
26226,4951
26226,4749
26226,4741
26227,4732
26229,4724
26232,4716
26236,4708
26240,4701
26245,4694
26251,4688
26257,4682
26264,4677
26271,4673
26279,4669
26287,4667
26295,4665
26303,4663
26312,4663
26484,4663
26492,4663
Z" /> 
</g>
<g >
</g>
<g >
<path style="fill:#008400; fill-opacity:1.0; 
stroke:#008400; stroke-width:0; stroke-opacity:1; 
stroke-linecap:round; stroke-linejoin:round;fill-rule:evenodd;"
d="M 45286,11136
45294,11137
45302,11139
45310,11142
45318,11145
45325,11150
45332,11155
45338,11161
45344,11167
45349,11174
45353,11181
45357,11188
45360,11196
45362,11205
45363,11213
45363,11221
45363,11423
45363,11432
45362,11440
45360,11448
45357,11456
45353,11464
45349,11471
45344,11478
45338,11484
45332,11490
45325,11495
45318,11499
45310,11503
45302,11506
45294,11508
45286,11509
45277,11509
45105,11509
45097,11509
45088,11508
45080,11506
45072,11503
45064,11499
45057,11495
45050,11490
45044,11484
45038,11478
45033,11471
45029,11464
45025,11456
45023,11448
45021,11440
45019,11432
45019,11423
45019,11221
45019,11213
45021,11205
45023,11196
45025,11188
45029,11181
45033,11174
45038,11167
45044,11161
45050,11155
45057,11150
45064,11145
45072,11142
45080,11139
45088,11137
45097,11136
45105,11135
45277,11135
45286,11136
Z" /> 
<path style="fill:#008400; fill-opacity:1.0; 
stroke:#008400; stroke-width:0; stroke-opacity:1; 
stroke-linecap:round; stroke-linejoin:round;fill-rule:evenodd;"
d="M 44666,11136
44674,11137
44682,11139
44690,11142
44698,11145
44705,11150
44712,11155
44718,11161
44724,11167
44729,11174
44733,11181
44737,11188
44740,11196
44742,11205
44743,11213
44743,11221
44743,11423
44743,11432
44742,11440
44740,11448
44737,11456
44733,11464
44729,11471
44724,11478
44718,11484
44712,11490
44705,11495
44698,11499
44690,11503
44682,11506
44674,11508
44666,11509
44657,11509
44485,11509
44477,11509
44468,11508
44460,11506
44452,11503
44444,11499
44437,11495
44430,11490
44424,11484
44418,11478
44413,11471
44409,11464
44405,11456
44403,11448
44400,11440
44399,11432
44399,11423
44399,11221
44399,11213
44400,11205
44403,11196
44405,11188
44409,11181
44413,11174
44418,11167
44424,11161
44430,11155
44437,11150
44444,11145
44452,11142
44460,11139
44468,11137
44477,11136
44485,11135
44657,11135
44666,11136
Z" /> 
</g>
<g >
<path style="fill:#008400; fill-opacity:1.0; 
stroke:#008400; stroke-width:0; stroke-opacity:1; 
stroke-linecap:round; stroke-linejoin:round;fill-rule:evenodd;"
d="M 43511,18565
43519,18566
43528,18568
43536,18571
43543,18575
43551,18579
43557,18584
43564,18590
43569,18596
43574,18603
43579,18610
43582,18618
43585,18626
43587,18634
43588,18642
43589,18651
43589,18852
43588,18861
43587,18869
43585,18877
43582,18885
43579,18893
43574,18900
43569,18907
43564,18913
43557,18919
43551,18924
43543,18928
43536,18932
43528,18935
43519,18937
43511,18938
43503,18938
43330,18938
43322,18938
43314,18937
43305,18935
43297,18932
43290,18928
43283,18924
43276,18919
43270,18913
43264,18907
43259,18900
43254,18893
43251,18885
43248,18877
43246,18869
43245,18861
43244,18852
43244,18651
43245,18642
43246,18634
43248,18626
43251,18618
43254,18610
43259,18603
43264,18596
43270,18590
43276,18584
43283,18579
43290,18575
43297,18571
43305,18568
43314,18566
43322,18565
43330,18564
43503,18564
43511,18565
Z" /> 
<path style="fill:#008400; fill-opacity:1.0; 
stroke:#008400; stroke-width:0; stroke-opacity:1; 
stroke-linecap:round; stroke-linejoin:round;fill-rule:evenodd;"
d="M 42891,18565
42899,18566
42908,18568
42916,18571
42923,18575
42930,18579
42937,18584
42943,18590
42949,18596
42954,18603
42959,18610
42962,18618
42965,18626
42967,18634
42968,18642
42969,18651
42969,18852
42968,18861
42967,18869
42965,18877
42962,18885
42959,18893
42954,18900
42949,18907
42943,18913
42937,18919
42930,18924
42923,18928
42916,18932
42908,18935
42899,18937
42891,18938
42883,18938
42710,18938
42702,18938
42694,18937
42685,18935
42677,18932
42670,18928
42662,18924
42656,18919
42649,18913
42644,18907
42639,18900
42634,18893
42631,18885
42628,18877
42626,18869
42625,18861
42624,18852
42624,18651
42625,18642
42626,18634
42628,18626
42631,18618
42634,18610
42639,18603
42644,18596
42649,18590
42656,18584
42662,18579
42670,18575
42677,18571
42685,18568
42694,18566
42702,18565
42710,18564
42883,18564
42891,18565
Z" /> 
</g>
<g >
</g>
<g >
</g>
<g >
</g>
<g >
</g>
<g >
</g>
<g >
</g>
<g >
</g>
<g >
</g>
<g >
</g>
<g >
</g>
<g >
</g>
<g >
</g>
<g >
</g>
<g >
</g>
<g >
</g>
<g >
</g>
<g >
</g>
<g >
</g>
<g >
</g>
<g >
</g>
<g >
</g>
<g >
</g>
<g >
</g>
<g >
</g>
<g >
</g>
<g >
</g>
<g >
</g>
<g >
<path style="fill:#008400; fill-opacity:1.0; 
stroke:#008400; stroke-width:0; stroke-opacity:1; 
stroke-linecap:round; stroke-linejoin:round;fill-rule:evenodd;"
d="M 44826,9578
44826,9696
44275,9696
44275,9578
44826,9578
Z" /> 
<path style="fill:#008400; fill-opacity:1.0; 
stroke:#008400; stroke-width:0; stroke-opacity:1; 
stroke-linecap:round; stroke-linejoin:round;fill-rule:evenodd;"
d="M 44826,9775
44826,9893
44275,9893
44275,9775
44826,9775
Z" /> 
<path style="fill:#008400; fill-opacity:1.0; 
stroke:#008400; stroke-width:0; stroke-opacity:1; 
stroke-linecap:round; stroke-linejoin:round;fill-rule:evenodd;"
d="M 44826,9972
44826,10090
44275,10090
44275,9972
44826,9972
Z" /> 
<path style="fill:#008400; fill-opacity:1.0; 
stroke:#008400; stroke-width:0; stroke-opacity:1; 
stroke-linecap:round; stroke-linejoin:round;fill-rule:evenodd;"
d="M 44826,10169
44826,10287
44275,10287
44275,10169
44826,10169
Z" /> 
<path style="fill:#008400; fill-opacity:1.0; 
stroke:#008400; stroke-width:0; stroke-opacity:1; 
stroke-linecap:round; stroke-linejoin:round;fill-rule:evenodd;"
d="M 44826,10366
44826,10484
44275,10484
44275,10366
44826,10366
Z" /> 
<path style="fill:#008400; fill-opacity:1.0; 
stroke:#008400; stroke-width:0; stroke-opacity:1; 
stroke-linecap:round; stroke-linejoin:round;fill-rule:evenodd;"
d="M 46558,10366
46558,10484
46007,10484
46007,10366
46558,10366
Z" /> 
<path style="fill:#008400; fill-opacity:1.0; 
stroke:#008400; stroke-width:0; stroke-opacity:1; 
stroke-linecap:round; stroke-linejoin:round;fill-rule:evenodd;"
d="M 46558,10169
46558,10287
46007,10287
46007,10169
46558,10169
Z" /> 
<path style="fill:#008400; fill-opacity:1.0; 
stroke:#008400; stroke-width:0; stroke-opacity:1; 
stroke-linecap:round; stroke-linejoin:round;fill-rule:evenodd;"
d="M 46558,9972
46558,10090
46007,10090
46007,9972
46558,9972
Z" /> 
<path style="fill:#008400; fill-opacity:1.0; 
stroke:#008400; stroke-width:0; stroke-opacity:1; 
stroke-linecap:round; stroke-linejoin:round;fill-rule:evenodd;"
d="M 46558,9775
46558,9893
46007,9893
46007,9775
46558,9775
Z" /> 
<path style="fill:#008400; fill-opacity:1.0; 
stroke:#008400; stroke-width:0; stroke-opacity:1; 
stroke-linecap:round; stroke-linejoin:round;fill-rule:evenodd;"
d="M 46558,9578
46558,9696
46007,9696
46007,9578
46558,9578
Z" /> 
</g>
<g >
</g>
<g >
</g>
<g >
</g>
<g >
</g>
<g >
</g>
<g >
</g>
<g >
</g>
<g >
</g>
<g >
</g>
<g >
</g>
</g>
<g style="fill:#000000; fill-opacity:1.0; 
stroke:#000000; stroke-width:0; stroke-opacity:1; 
stroke-linecap:round; stroke-linejoin:round;">
</g>
<g style="fill:#C2C200; fill-opacity:1.0; 
stroke:#C2C200; stroke-width:0; stroke-opacity:1; 
stroke-linecap:round; stroke-linejoin:round;">
</g>
<g style="fill:#C2C200; fill-opacity:1.0; 
stroke:#C2C200; stroke-width:59.0551; stroke-opacity:1; 
stroke-linecap:round; stroke-linejoin:round;">
</g>
<g style="fill:#C2C200; fill-opacity:0.0; 
stroke:#C2C200; stroke-width:59.0551; stroke-opacity:1; 
stroke-linecap:round; stroke-linejoin:round;">
<path d="M24070 21094
L50070 21094
" />
<path d="M51070 6194
L50070 5194
" />
<path d="M51070 19094
L51070 6194
" />
<path d="M50070 694
L49470 94
" />
<path d="M50070 20094
L51070 19094
" />
<path d="M50070 21094
L50070 20094
" />
<path d="M50070 5194
L50070 694
" />
<path d="M24070 94
L24070 21094
" />
<path d="M49470 94
L24070 94
" />
<g >
</g>
<g >
</g>
<g >
</g>
<g >
</g>
<g >
</g>
<g >
</g>
<g >
</g>
<g >
</g>
<g >
</g>
<g >
</g>
<g >
</g>
<g >
</g>
<g >
</g>
<g >
</g>
<g >
</g>
<g >
</g>
<g >
</g>
<g >
</g>
<g >
</g>
<g >
</g>
<g >
</g>
<g >
</g>
<g >
</g>
<g >
</g>
<g >
</g>
<g >
</g>
<g >
</g>
<g >
</g>
<g >
</g>
<g >
</g>
<g >
</g>
<g >
</g>
<g >
</g>
<g >
</g>
<g >
</g>
<g >
</g>
<g >
</g>
<g >
</g>
<g >
</g>
<g >
</g>
<g >
</g>
<g >
</g>
<g >
</g>
<g >
</g>
<g >
</g>
<g >
</g>
<g >
</g>
<g >
</g>
<g >
</g>
<g >
</g>
<g >
</g>
<g >
</g>
<g >
</g>
<g >
</g>
<g >
</g>
<g >
</g>
<g >
</g>
<g >
</g>
<g >
</g>
<g >
</g>
</g> 
</svg>
