<?xml version="1.0" standalone="no"?>
 <!DOCTYPE svg PUBLIC "-//W3C//DTD SVG 1.1//EN" 
 "http://www.w3.org/Graphics/SVG/1.1/DTD/svg11.dtd"> 
<svg xmlns="http://www.w3.org/2000/svg" version="1.1" 
    width="13.8303cm" height="6.04774cm" viewBox="0 0 54450 23810 ">
<title>SVG Picture created as uno shield v.6 project SMD-B_Paste.svg date 2019/07/21 00:09:44 </title>
  <desc>Picture generated by PCBNEW </desc>
<g style="fill:#000000; fill-opacity:1;stroke:#000000; stroke-opacity:1;
stroke-linecap:round; stroke-linejoin:round; "
 transform="translate(0 0) scale(1 1)">
</g>
<g style="fill:#000000; fill-opacity:0.0; 
stroke:#000000; stroke-width:-0.000393701; stroke-opacity:1; 
stroke-linecap:round; stroke-linejoin:round;">
</g>
<g style="fill:#0B00C2; fill-opacity:0.0; 
stroke:#0B00C2; stroke-width:-0.000393701; stroke-opacity:1; 
stroke-linecap:round; stroke-linejoin:round;">
</g>
<g style="fill:#0B00C2; fill-opacity:0.0; 
stroke:#0B00C2; stroke-width:31.4961; stroke-opacity:1; 
stroke-linecap:round; stroke-linejoin:round;">
<circle cx="34891.9" cy="12569.5" r="124.128" /> 
<circle cx="40147.6" cy="13482.8" r="124.128" /> 
<circle cx="41287.3" cy="11367.5" r="124.128" /> 
<circle cx="41809.1" cy="14531" r="124.128" /> 
<circle cx="41091.6" cy="11918.9" r="124.128" /> 
<circle cx="41326" cy="13492.1" r="124.128" /> 
<circle cx="41228.9" cy="13016.7" r="124.128" /> 
<circle cx="42052.1" cy="16477.4" r="124.128" /> 
<circle cx="41463.9" cy="16473" r="124.128" /> 
<circle cx="37012" cy="17939" r="124.128" /> 
<circle cx="37304.9" cy="17944.1" r="124.128" /> 
<circle cx="39908.3" cy="18630.7" r="124.128" /> 
<circle cx="40625.3" cy="18634.7" r="124.128" /> 
<circle cx="40660.1" cy="13974.8" r="124.128" /> 
<circle cx="40316.9" cy="13010.3" r="124.128" /> 
<circle cx="40889" cy="11971.7" r="124.128" /> 
<circle cx="42451.6" cy="10976.3" r="124.128" /> 
<circle cx="42864.4" cy="10978.1" r="124.128" /> 
<circle cx="43254.8" cy="11019.6" r="124.128" /> 
<circle cx="43272.4" cy="11485.5" r="124.128" /> 
<circle cx="42063.6" cy="12339.2" r="124.128" /> 
<circle cx="41619.8" cy="12624.5" r="124.128" /> 
<circle cx="41236.2" cy="12698.2" r="124.128" /> 
<circle cx="43324.7" cy="12280.5" r="124.128" /> 
<circle cx="43283.9" cy="12688.5" r="124.128" /> 
<circle cx="43257.2" cy="13009.2" r="124.128" /> 
<circle cx="42931.9" cy="13138.1" r="124.128" /> 
<circle cx="42559.8" cy="13548.7" r="124.128" /> 
<circle cx="42055.8" cy="13550.8" r="124.128" /> 
<circle cx="38238" cy="13201.8" r="124.128" /> 
<circle cx="40467.3" cy="13511.7" r="124.128" /> 
<circle cx="40970.4" cy="13725.8" r="124.128" /> 
<circle cx="40657.8" cy="13979.6" r="124.128" /> 
<circle cx="40641.3" cy="14687.3" r="124.128" /> 
<circle cx="43387.3" cy="15595.5" r="124.128" /> 
<circle cx="43271" cy="15944.4" r="124.128" /> 
<circle cx="43265.8" cy="16303.3" r="124.128" /> 
<circle cx="40304.8" cy="18506.5" r="124.128" /> 
<circle cx="39754.8" cy="17892.4" r="124.128" /> 
<circle cx="39297.9" cy="17988.4" r="124.128" /> 
<circle cx="40060.4" cy="14594.3" r="124.128" /> 
<circle cx="39720.2" cy="14541.1" r="124.128" /> 
<circle cx="39247.8" cy="16991.2" r="124.128" /> 
<circle cx="38851" cy="16444.5" r="124.128" /> 
<circle cx="38416.6" cy="16509.7" r="124.128" /> 
<circle cx="38300.8" cy="16009.1" r="124.128" /> 
<circle cx="37910.8" cy="16131.4" r="124.128" /> 
<circle cx="37398.4" cy="15638.2" r="124.128" /> 
<circle cx="37622.2" cy="13916.8" r="124.128" /> 
<circle cx="34923.4" cy="10931.7" r="124.128" /> 
<circle cx="33699.5" cy="12409" r="124.128" /> 
<circle cx="34174" cy="13037.2" r="124.128" /> 
<circle cx="34450.4" cy="13274.8" r="124.128" /> 
<circle cx="34791.9" cy="13372.7" r="124.128" /> 
<circle cx="34952" cy="14072.1" r="124.128" /> 
<circle cx="34556.5" cy="14225.5" r="124.128" /> 
<circle cx="35585.5" cy="15334.4" r="124.128" /> 
<circle cx="37577.6" cy="16679.9" r="124.128" /> 
<circle cx="37588.2" cy="17352.9" r="124.128" /> 
<circle cx="37244.6" cy="17056.1" r="124.128" /> 
<circle cx="37700.6" cy="17960.3" r="124.128" /> 
<circle cx="34714.3" cy="14939.5" r="124.128" /> 
<circle cx="33665.2" cy="16639.5" r="124.128" /> 
<circle cx="36217.3" cy="16982.2" r="124.128" /> 
<circle cx="35428.6" cy="17446.4" r="124.128" /> 
<circle cx="36673.4" cy="17223.5" r="124.128" /> 
<g >
</g>
<g >
</g>
<g >
</g>
<g >
</g>
<g >
</g>
<g >
</g>
<g >
</g>
<g >
</g>
<g >
</g>
<g style="fill:#008400; fill-opacity:0.0; 
stroke:#008400; stroke-width:31.4961; stroke-opacity:1; 
stroke-linecap:round; stroke-linejoin:round;">
</g>
<g style="fill:#008400; fill-opacity:0.0; 
stroke:#008400; stroke-width:0; stroke-opacity:1; 
stroke-linecap:round; stroke-linejoin:round;">
</g>
<g style="fill:#008400; fill-opacity:1.0; 
stroke:#008400; stroke-width:0; stroke-opacity:1; 
stroke-linecap:round; stroke-linejoin:round;">
<path style="fill:#008400; fill-opacity:1.0; 
stroke:#008400; stroke-width:0; stroke-opacity:1; 
stroke-linecap:round; stroke-linejoin:round;fill-rule:evenodd;"
d="M 38805,11616
38814,11618
38823,11620
38831,11623
38840,11627
38847,11631
38855,11637
38862,11643
38868,11650
38873,11657
38878,11665
38882,11673
38885,11682
38887,11691
38889,11700
38889,11709
38889,11896
38889,11905
38887,11914
38885,11923
38882,11932
38878,11940
38873,11948
38868,11956
38862,11962
38855,11969
38847,11974
38840,11979
38831,11983
38823,11986
38814,11988
38805,11989
38795,11990
38569,11990
38560,11989
38551,11988
38542,11986
38533,11983
38525,11979
38517,11974
38510,11969
38503,11962
38497,11956
38491,11948
38487,11940
38483,11932
38480,11923
38477,11914
38476,11905
38476,11896
38476,11709
38476,11700
38477,11691
38480,11682
38483,11673
38487,11665
38491,11657
38497,11650
38503,11643
38510,11637
38517,11631
38525,11627
38533,11623
38542,11620
38551,11618
38560,11616
38569,11616
38795,11616
38805,11616
Z" /> 
<path style="fill:#008400; fill-opacity:1.0; 
stroke:#008400; stroke-width:0; stroke-opacity:1; 
stroke-linecap:round; stroke-linejoin:round;fill-rule:evenodd;"
d="M 38116,11616
38125,11618
38134,11620
38142,11623
38151,11627
38158,11631
38166,11637
38173,11643
38179,11650
38184,11657
38189,11665
38193,11673
38196,11682
38198,11691
38200,11700
38200,11709
38200,11896
38200,11905
38198,11914
38196,11923
38193,11932
38189,11940
38184,11948
38179,11956
38173,11962
38166,11969
38158,11974
38151,11979
38142,11983
38134,11986
38125,11988
38116,11989
38107,11990
37880,11990
37871,11989
37862,11988
37853,11986
37844,11983
37836,11979
37828,11974
37821,11969
37814,11962
37808,11956
37802,11948
37798,11940
37794,11932
37791,11923
37788,11914
37787,11905
37787,11896
37787,11709
37787,11700
37788,11691
37791,11682
37794,11673
37798,11665
37802,11657
37808,11650
37814,11643
37821,11637
37828,11631
37836,11627
37844,11623
37853,11620
37862,11618
37871,11616
37880,11616
38107,11616
38116,11616
Z" /> 
</g>
<g >
</g>
<g >
<path style="fill:#008400; fill-opacity:1.0; 
stroke:#008400; stroke-width:0; stroke-opacity:1; 
stroke-linecap:round; stroke-linejoin:round;fill-rule:evenodd;"
d="M 38529,14994
38538,14995
38547,14998
38556,15001
38564,15005
38572,15009
38579,15015
38586,15021
38592,15028
38598,15035
38602,15043
38606,15051
38609,15060
38612,15069
38613,15078
38613,15087
38613,15274
38613,15283
38612,15292
38609,15301
38606,15310
38602,15318
38598,15326
38592,15334
38586,15340
38579,15346
38572,15352
38564,15357
38556,15361
38547,15364
38538,15366
38529,15367
38520,15368
38294,15368
38284,15367
38275,15366
38266,15364
38258,15361
38249,15357
38242,15352
38234,15346
38227,15340
38221,15334
38216,15326
38211,15318
38207,15310
38204,15301
38202,15292
38200,15283
38200,15274
38200,15087
38200,15078
38202,15069
38204,15060
38207,15051
38211,15043
38216,15035
38221,15028
38227,15021
38234,15015
38242,15009
38249,15005
38258,15001
38266,14998
38275,14995
38284,14994
38294,14994
38520,14994
38529,14994
Z" /> 
<path style="fill:#008400; fill-opacity:1.0; 
stroke:#008400; stroke-width:0; stroke-opacity:1; 
stroke-linecap:round; stroke-linejoin:round;fill-rule:evenodd;"
d="M 37840,14994
37849,14995
37858,14998
37867,15001
37875,15005
37883,15009
37890,15015
37897,15021
37903,15028
37909,15035
37913,15043
37917,15051
37920,15060
37923,15069
37924,15078
37924,15087
37924,15274
37924,15283
37923,15292
37920,15301
37917,15310
37913,15318
37909,15326
37903,15334
37897,15340
37890,15346
37883,15352
37875,15357
37867,15361
37858,15364
37849,15366
37840,15367
37831,15368
37605,15368
37595,15367
37586,15366
37577,15364
37569,15361
37560,15357
37553,15352
37545,15346
37538,15340
37532,15334
37527,15326
37522,15318
37518,15310
37515,15301
37513,15292
37511,15283
37511,15274
37511,15087
37511,15078
37513,15069
37515,15060
37518,15051
37522,15043
37527,15035
37532,15028
37538,15021
37545,15015
37553,15009
37560,15005
37569,15001
37577,14998
37586,14995
37595,14994
37605,14994
37831,14994
37840,14994
Z" /> 
</g>
<g >
</g>
<g >
</g>
<g >
</g>
<g >
</g>
<g >
</g>
<g >
</g>
<g >
</g>
<g >
</g>
<g >
</g>
<g >
</g>
<g >
</g>
<g >
</g>
<g >
</g>
<g >
</g>
<g >
</g>
<g >
</g>
<g >
</g>
<g >
</g>
<g >
<path style="fill:#008400; fill-opacity:1.0; 
stroke:#008400; stroke-width:0; stroke-opacity:1; 
stroke-linecap:round; stroke-linejoin:round;fill-rule:evenodd;"
d="M 26803,2415
26812,2417
26820,2419
26828,2422
26836,2425
26843,2429
26850,2434
26856,2440
26862,2446
26867,2453
26871,2460
26875,2468
26877,2476
26879,2484
26881,2493
26881,2501
26881,2703
26881,2711
26879,2720
26877,2728
26875,2736
26871,2743
26867,2751
26862,2757
26856,2764
26850,2769
26843,2774
26836,2779
26828,2782
26820,2785
26812,2787
26803,2789
26795,2789
26623,2789
26614,2789
26606,2787
26598,2785
26590,2782
26582,2779
26575,2774
26568,2769
26562,2764
26556,2757
26551,2751
26547,2743
26543,2736
26540,2728
26538,2720
26537,2711
26537,2703
26537,2501
26537,2493
26538,2484
26540,2476
26543,2468
26547,2460
26551,2453
26556,2446
26562,2440
26568,2434
26575,2429
26582,2425
26590,2422
26598,2419
26606,2417
26614,2415
26623,2415
26795,2415
26803,2415
Z" /> 
<path style="fill:#008400; fill-opacity:1.0; 
stroke:#008400; stroke-width:0; stroke-opacity:1; 
stroke-linecap:round; stroke-linejoin:round;fill-rule:evenodd;"
d="M 27424,2415
27432,2417
27440,2419
27448,2422
27456,2425
27463,2429
27470,2434
27476,2440
27482,2446
27487,2453
27491,2460
27495,2468
27497,2476
27500,2484
27501,2493
27501,2501
27501,2703
27501,2711
27500,2720
27497,2728
27495,2736
27491,2743
27487,2751
27482,2757
27476,2764
27470,2769
27463,2774
27456,2779
27448,2782
27440,2785
27432,2787
27424,2789
27415,2789
27243,2789
27234,2789
27226,2787
27218,2785
27210,2782
27202,2779
27195,2774
27188,2769
27182,2764
27176,2757
27171,2751
27167,2743
27163,2736
27160,2728
27158,2720
27157,2711
27157,2703
27157,2501
27157,2493
27158,2484
27160,2476
27163,2468
27167,2460
27171,2453
27176,2446
27182,2440
27188,2434
27195,2429
27202,2425
27210,2422
27218,2419
27226,2417
27234,2415
27243,2415
27415,2415
27424,2415
Z" /> 
</g>
<g >
</g>
<g >
</g>
<g >
<path style="fill:#008400; fill-opacity:1.0; 
stroke:#008400; stroke-width:0; stroke-opacity:1; 
stroke-linecap:round; stroke-linejoin:round;fill-rule:evenodd;"
d="M 28778,2089
28786,2090
28794,2092
28802,2095
28810,2098
28817,2103
28824,2108
28830,2113
28836,2120
28841,2126
28845,2134
28849,2141
28852,2149
28854,2157
28855,2166
28856,2174
28856,2376
28855,2385
28854,2393
28852,2401
28849,2409
28845,2417
28841,2424
28836,2431
28830,2437
28824,2443
28817,2448
28810,2452
28802,2456
28794,2458
28786,2461
28778,2462
28769,2462
28597,2462
28589,2462
28580,2461
28572,2458
28564,2456
28557,2452
28549,2448
28543,2443
28536,2437
28531,2431
28526,2424
28521,2417
28518,2409
28515,2401
28513,2393
28511,2385
28511,2376
28511,2174
28511,2166
28513,2157
28515,2149
28518,2141
28521,2134
28526,2126
28531,2120
28536,2113
28543,2108
28549,2103
28557,2098
28564,2095
28572,2092
28580,2090
28589,2089
28597,2088
28769,2088
28778,2089
Z" /> 
<path style="fill:#008400; fill-opacity:1.0; 
stroke:#008400; stroke-width:0; stroke-opacity:1; 
stroke-linecap:round; stroke-linejoin:round;fill-rule:evenodd;"
d="M 28158,2089
28166,2090
28174,2092
28182,2095
28190,2098
28197,2103
28204,2108
28210,2113
28216,2120
28221,2126
28225,2134
28229,2141
28232,2149
28234,2157
28235,2166
28235,2174
28235,2376
28235,2385
28234,2393
28232,2401
28229,2409
28225,2417
28221,2424
28216,2431
28210,2437
28204,2443
28197,2448
28190,2452
28182,2456
28174,2458
28166,2461
28158,2462
28149,2462
27977,2462
27969,2462
27960,2461
27952,2458
27944,2456
27936,2452
27929,2448
27922,2443
27916,2437
27910,2431
27905,2424
27901,2417
27898,2409
27895,2401
27893,2393
27891,2385
27891,2376
27891,2174
27891,2166
27893,2157
27895,2149
27898,2141
27901,2134
27905,2126
27910,2120
27916,2113
27922,2108
27929,2103
27936,2098
27944,2095
27952,2092
27960,2090
27969,2089
27977,2088
28149,2088
28158,2089
Z" /> 
</g>
<g >
<path style="fill:#008400; fill-opacity:1.0; 
stroke:#008400; stroke-width:0; stroke-opacity:1; 
stroke-linecap:round; stroke-linejoin:round;fill-rule:evenodd;"
d="M 26492,4935
26501,4936
26509,4938
26517,4941
26525,4945
26532,4949
26539,4954
26545,4960
26551,4966
26556,4973
26560,4980
26564,4988
26566,4996
26568,5004
26570,5012
26570,5021
26570,5223
26570,5231
26568,5239
26566,5248
26564,5255
26560,5263
26556,5270
26551,5277
26545,5283
26539,5289
26532,5294
26525,5298
26517,5302
26509,5305
26501,5307
26492,5308
26484,5309
26312,5309
26303,5308
26295,5307
26287,5305
26279,5302
26271,5298
26264,5294
26257,5289
26251,5283
26245,5277
26240,5270
26236,5263
26232,5255
26229,5248
26227,5239
26226,5231
26226,5223
26226,5021
26226,5012
26227,5004
26229,4996
26232,4988
26236,4980
26240,4973
26245,4966
26251,4960
26257,4954
26264,4949
26271,4945
26279,4941
26287,4938
26295,4936
26303,4935
26312,4935
26484,4935
26492,4935
Z" /> 
<path style="fill:#008400; fill-opacity:1.0; 
stroke:#008400; stroke-width:0; stroke-opacity:1; 
stroke-linecap:round; stroke-linejoin:round;fill-rule:evenodd;"
d="M 27112,4935
27121,4936
27129,4938
27137,4941
27145,4945
27152,4949
27159,4954
27165,4960
27171,4966
27176,4973
27180,4980
27184,4988
27186,4996
27189,5004
27190,5012
27190,5021
27190,5223
27190,5231
27189,5239
27186,5248
27184,5255
27180,5263
27176,5270
27171,5277
27165,5283
27159,5289
27152,5294
27145,5298
27137,5302
27129,5305
27121,5307
27112,5308
27104,5309
26932,5309
26923,5308
26915,5307
26907,5305
26899,5302
26891,5298
26884,5294
26877,5289
26871,5283
26865,5277
26860,5270
26856,5263
26852,5255
26849,5248
26847,5239
26846,5231
26846,5223
26846,5021
26846,5012
26847,5004
26849,4996
26852,4988
26856,4980
26860,4973
26865,4966
26871,4960
26877,4954
26884,4949
26891,4945
26899,4941
26907,4938
26915,4936
26923,4935
26932,4935
27104,4935
27112,4935
Z" /> 
</g>
<g >
</g>
<g >
<path style="fill:#008400; fill-opacity:1.0; 
stroke:#008400; stroke-width:0; stroke-opacity:1; 
stroke-linecap:round; stroke-linejoin:round;fill-rule:evenodd;"
d="M 44666,11407
44674,11409
44682,11411
44690,11414
44698,11417
44705,11422
44712,11427
44718,11432
44724,11439
44729,11445
44733,11453
44737,11460
44740,11468
44742,11476
44743,11485
44743,11493
44743,11695
44743,11703
44742,11712
44740,11720
44737,11728
44733,11736
44729,11743
44724,11750
44718,11756
44712,11762
44705,11767
44698,11771
44690,11775
44682,11777
44674,11779
44666,11781
44657,11781
44485,11781
44477,11781
44468,11779
44460,11777
44452,11775
44444,11771
44437,11767
44430,11762
44424,11756
44418,11750
44413,11743
44409,11736
44405,11728
44403,11720
44400,11712
44399,11703
44399,11695
44399,11493
44399,11485
44400,11476
44403,11468
44405,11460
44409,11453
44413,11445
44418,11439
44424,11432
44430,11427
44437,11422
44444,11417
44452,11414
44460,11411
44468,11409
44477,11407
44485,11407
44657,11407
44666,11407
Z" /> 
<path style="fill:#008400; fill-opacity:1.0; 
stroke:#008400; stroke-width:0; stroke-opacity:1; 
stroke-linecap:round; stroke-linejoin:round;fill-rule:evenodd;"
d="M 45286,11407
45294,11409
45302,11411
45310,11414
45318,11417
45325,11422
45332,11427
45338,11432
45344,11439
45349,11445
45353,11453
45357,11460
45360,11468
45362,11476
45363,11485
45363,11493
45363,11695
45363,11703
45362,11712
45360,11720
45357,11728
45353,11736
45349,11743
45344,11750
45338,11756
45332,11762
45325,11767
45318,11771
45310,11775
45302,11777
45294,11779
45286,11781
45277,11781
45105,11781
45097,11781
45088,11779
45080,11777
45072,11775
45064,11771
45057,11767
45050,11762
45044,11756
45038,11750
45033,11743
45029,11736
45025,11728
45023,11720
45021,11712
45019,11703
45019,11695
45019,11493
45019,11485
45021,11476
45023,11468
45025,11460
45029,11453
45033,11445
45038,11439
45044,11432
45050,11427
45057,11422
45064,11417
45072,11414
45080,11411
45088,11409
45097,11407
45105,11407
45277,11407
45286,11407
Z" /> 
</g>
<g >
<path style="fill:#008400; fill-opacity:1.0; 
stroke:#008400; stroke-width:0; stroke-opacity:1; 
stroke-linecap:round; stroke-linejoin:round;fill-rule:evenodd;"
d="M 42891,18837
42899,18838
42908,18840
42916,18843
42923,18846
42930,18851
42937,18856
42943,18861
42949,18868
42954,18874
42959,18882
42962,18889
42965,18897
42967,18906
42968,18914
42969,18922
42969,19124
42968,19133
42967,19141
42965,19149
42962,19157
42959,19165
42954,19172
42949,19179
42943,19185
42937,19191
42930,19196
42923,19200
42916,19204
42908,19207
42899,19209
42891,19210
42883,19210
42710,19210
42702,19210
42694,19209
42685,19207
42677,19204
42670,19200
42662,19196
42656,19191
42649,19185
42644,19179
42639,19172
42634,19165
42631,19157
42628,19149
42626,19141
42625,19133
42624,19124
42624,18922
42625,18914
42626,18906
42628,18897
42631,18889
42634,18882
42639,18874
42644,18868
42649,18861
42656,18856
42662,18851
42670,18846
42677,18843
42685,18840
42694,18838
42702,18837
42710,18836
42883,18836
42891,18837
Z" /> 
<path style="fill:#008400; fill-opacity:1.0; 
stroke:#008400; stroke-width:0; stroke-opacity:1; 
stroke-linecap:round; stroke-linejoin:round;fill-rule:evenodd;"
d="M 43511,18837
43519,18838
43528,18840
43536,18843
43543,18846
43551,18851
43557,18856
43564,18861
43569,18868
43574,18874
43579,18882
43582,18889
43585,18897
43587,18906
43588,18914
43589,18922
43589,19124
43588,19133
43587,19141
43585,19149
43582,19157
43579,19165
43574,19172
43569,19179
43564,19185
43557,19191
43551,19196
43543,19200
43536,19204
43528,19207
43519,19209
43511,19210
43503,19210
43330,19210
43322,19210
43314,19209
43305,19207
43297,19204
43290,19200
43283,19196
43276,19191
43270,19185
43264,19179
43259,19172
43254,19165
43251,19157
43248,19149
43246,19141
43245,19133
43244,19124
43244,18922
43245,18914
43246,18906
43248,18897
43251,18889
43254,18882
43259,18874
43264,18868
43270,18861
43276,18856
43283,18851
43290,18846
43297,18843
43305,18840
43314,18838
43322,18837
43330,18836
43503,18836
43511,18837
Z" /> 
</g>
<g >
</g>
<g >
</g>
<g >
</g>
<g >
</g>
<g >
</g>
<g >
</g>
<g >
</g>
<g >
</g>
<g >
</g>
<g >
</g>
<g >
</g>
<g >
</g>
<g >
</g>
<g >
</g>
<g >
</g>
<g >
</g>
<g >
</g>
<g >
</g>
<g >
</g>
<g >
</g>
<g >
</g>
<g >
</g>
<g >
</g>
<g >
</g>
<g >
</g>
<g >
<path style="fill:#008400; fill-opacity:1.0; 
stroke:#008400; stroke-width:0; stroke-opacity:1; 
stroke-linecap:round; stroke-linejoin:round;fill-rule:evenodd;"
d="M 46558,9850
46558,9968
46007,9968
46007,9850
46558,9850
Z" /> 
<path style="fill:#008400; fill-opacity:1.0; 
stroke:#008400; stroke-width:0; stroke-opacity:1; 
stroke-linecap:round; stroke-linejoin:round;fill-rule:evenodd;"
d="M 46558,10047
46558,10165
46007,10165
46007,10047
46558,10047
Z" /> 
<path style="fill:#008400; fill-opacity:1.0; 
stroke:#008400; stroke-width:0; stroke-opacity:1; 
stroke-linecap:round; stroke-linejoin:round;fill-rule:evenodd;"
d="M 46558,10244
46558,10362
46007,10362
46007,10244
46558,10244
Z" /> 
<path style="fill:#008400; fill-opacity:1.0; 
stroke:#008400; stroke-width:0; stroke-opacity:1; 
stroke-linecap:round; stroke-linejoin:round;fill-rule:evenodd;"
d="M 46558,10441
46558,10559
46007,10559
46007,10441
46558,10441
Z" /> 
<path style="fill:#008400; fill-opacity:1.0; 
stroke:#008400; stroke-width:0; stroke-opacity:1; 
stroke-linecap:round; stroke-linejoin:round;fill-rule:evenodd;"
d="M 46558,10637
46558,10755
46007,10755
46007,10637
46558,10637
Z" /> 
<path style="fill:#008400; fill-opacity:1.0; 
stroke:#008400; stroke-width:0; stroke-opacity:1; 
stroke-linecap:round; stroke-linejoin:round;fill-rule:evenodd;"
d="M 44826,10637
44826,10755
44275,10755
44275,10637
44826,10637
Z" /> 
<path style="fill:#008400; fill-opacity:1.0; 
stroke:#008400; stroke-width:0; stroke-opacity:1; 
stroke-linecap:round; stroke-linejoin:round;fill-rule:evenodd;"
d="M 44826,10441
44826,10559
44275,10559
44275,10441
44826,10441
Z" /> 
<path style="fill:#008400; fill-opacity:1.0; 
stroke:#008400; stroke-width:0; stroke-opacity:1; 
stroke-linecap:round; stroke-linejoin:round;fill-rule:evenodd;"
d="M 44826,10244
44826,10362
44275,10362
44275,10244
44826,10244
Z" /> 
<path style="fill:#008400; fill-opacity:1.0; 
stroke:#008400; stroke-width:0; stroke-opacity:1; 
stroke-linecap:round; stroke-linejoin:round;fill-rule:evenodd;"
d="M 44826,10047
44826,10165
44275,10165
44275,10047
44826,10047
Z" /> 
<path style="fill:#008400; fill-opacity:1.0; 
stroke:#008400; stroke-width:0; stroke-opacity:1; 
stroke-linecap:round; stroke-linejoin:round;fill-rule:evenodd;"
d="M 44826,9850
44826,9968
44275,9968
44275,9850
44826,9850
Z" /> 
</g>
<g >
</g>
<g >
</g>
<g >
</g>
<g >
</g>
<g >
</g>
<g >
</g>
<g >
</g>
<g >
</g>
<g >
</g>
</g>
<g style="fill:#000000; fill-opacity:1.0; 
stroke:#000000; stroke-width:0; stroke-opacity:1; 
stroke-linecap:round; stroke-linejoin:round;">
</g>
<g style="fill:#C2C200; fill-opacity:1.0; 
stroke:#C2C200; stroke-width:0; stroke-opacity:1; 
stroke-linecap:round; stroke-linejoin:round;">
</g>
<g style="fill:#C2C200; fill-opacity:1.0; 
stroke:#C2C200; stroke-width:59.0551; stroke-opacity:1; 
stroke-linecap:round; stroke-linejoin:round;">
</g>
<g style="fill:#C2C200; fill-opacity:0.0; 
stroke:#C2C200; stroke-width:59.0551; stroke-opacity:1; 
stroke-linecap:round; stroke-linejoin:round;">
<path d="M24070 21366
L50070 21366
" />
<path d="M51070 6466
L50070 5466
" />
<path d="M51070 19366
L51070 6466
" />
<path d="M50070 966
L49470 366
" />
<path d="M50070 20366
L51070 19366
" />
<path d="M50070 21366
L50070 20366
" />
<path d="M50070 5466
L50070 966
" />
<path d="M24070 366
L24070 21366
" />
<path d="M49470 366
L24070 366
" />
<g >
</g>
<g >
</g>
<g >
</g>
<g >
</g>
<g >
</g>
<g >
</g>
<g >
</g>
<g >
</g>
<g >
</g>
<g >
</g>
<g >
</g>
<g >
</g>
<g >
</g>
<g >
</g>
<g >
</g>
<g >
</g>
<g >
</g>
<g >
</g>
<g >
</g>
<g >
</g>
<g >
</g>
<g >
</g>
<g >
</g>
<g >
</g>
<g >
</g>
<g >
</g>
<g >
</g>
<g >
</g>
<g >
</g>
<g >
</g>
<g >
</g>
<g >
</g>
<g >
</g>
<g >
</g>
<g >
</g>
<g >
</g>
<g >
</g>
<g >
</g>
<g >
</g>
<g >
</g>
<g >
</g>
<g >
</g>
<g >
</g>
<g >
</g>
<g >
</g>
<g >
</g>
<g >
</g>
<g >
</g>
<g >
</g>
<g >
</g>
<g >
</g>
<g >
</g>
<g >
</g>
<g >
</g>
<g >
</g>
<g >
</g>
<g >
</g>
<g >
</g>
<g >
</g>
<g >
</g>
<g >
</g>
<g >
</g>
<g >
</g>
<g >
</g>
<g >
</g>
<g >
</g>
<g >
</g>
<g >
</g>
<g >
</g>
<g >
</g>
</g> 
</svg>
