<?xml version="1.0" standalone="no"?>
 <!DOCTYPE svg PUBLIC "-//W3C//DTD SVG 1.1//EN" 
 "http://www.w3.org/Graphics/SVG/1.1/DTD/svg11.dtd"> 
<svg xmlns="http://www.w3.org/2000/svg" version="1.1" 
    width="13.8303cm" height="6.16966cm" viewBox="0 0 54450 24290 ">
<title>SVG Picture created as uno shield-F_Paste.svg date 2019/07/11 04:33:27 </title>
  <desc>Picture generated by PCBNEW </desc>
<g style="fill:#000000; fill-opacity:1;stroke:#000000; stroke-opacity:1;
stroke-linecap:round; stroke-linejoin:round; "
 transform="translate(0 0) scale(1 1)">
</g>
<g style="fill:#000000; fill-opacity:0.0; 
stroke:#000000; stroke-width:-0.000393701; stroke-opacity:1; 
stroke-linecap:round; stroke-linejoin:round;">
</g>
<g style="fill:#26FF16; fill-opacity:0.0; 
stroke:#26FF16; stroke-width:-0.000393701; stroke-opacity:1; 
stroke-linecap:round; stroke-linejoin:round;">
</g>
<g style="fill:#26FF16; fill-opacity:0.0; 
stroke:#26FF16; stroke-width:0.393701; stroke-opacity:1; 
stroke-linecap:round; stroke-linejoin:round;">
<path d="M40964 15807
L40905 15807
" />
<path d="M40905 15806
L40905 15720
" />
<path d="M40964 15720
L40964 15807
" />
<path d="M40905 15720
L40964 15720
" />
</g>
<g style="fill:#26FF16; fill-opacity:1.0; 
stroke:#26FF16; stroke-width:0.393701; stroke-opacity:1; 
stroke-linecap:round; stroke-linejoin:round;">
<path style="fill:#26FF16; fill-opacity:1.0; 
stroke:#26FF16; stroke-width:0.393701; stroke-opacity:1; 
stroke-linecap:round; stroke-linejoin:round;fill-rule:evenodd;"
d="M 39279,17080
39279,16895
39216,16895
39216,17080
Z" /> 
<g >
</g>
<g >
</g>
<g >
</g>
<g >
</g>
<g style="fill:#FF080E; fill-opacity:1.0; 
stroke:#FF080E; stroke-width:0.393701; stroke-opacity:1; 
stroke-linecap:round; stroke-linejoin:round;">
</g>
<g style="fill:#FF080E; fill-opacity:1.0; 
stroke:#FF080E; stroke-width:0; stroke-opacity:1; 
stroke-linecap:round; stroke-linejoin:round;">
<path style="fill:#FF080E; fill-opacity:1.0; 
stroke:#FF080E; stroke-width:0; stroke-opacity:1; 
stroke-linecap:round; stroke-linejoin:round;fill-rule:evenodd;"
d="M 41783,8124
41792,8125
41801,8128
41810,8131
41818,8135
41826,8139
41833,8145
41840,8151
41846,8158
41852,8165
41856,8173
41860,8181
41863,8190
41866,8199
41867,8208
41867,8217
41867,8443
41867,8453
41866,8462
41863,8471
41860,8479
41856,8488
41852,8495
41846,8503
41840,8510
41833,8516
41826,8521
41818,8526
41810,8530
41801,8533
41792,8535
41783,8537
41774,8537
41587,8537
41578,8537
41569,8535
41560,8533
41551,8530
41543,8526
41535,8521
41527,8516
41521,8510
41515,8503
41509,8495
41504,8488
41500,8479
41497,8471
41495,8462
41494,8453
41493,8443
41493,8217
41494,8208
41495,8199
41497,8190
41500,8181
41504,8173
41509,8165
41515,8158
41521,8151
41527,8145
41535,8139
41543,8135
41551,8131
41560,8128
41569,8125
41578,8124
41587,8124
41774,8124
41783,8124
Z" /> 
<path style="fill:#FF080E; fill-opacity:1.0; 
stroke:#FF080E; stroke-width:0; stroke-opacity:1; 
stroke-linecap:round; stroke-linejoin:round;fill-rule:evenodd;"
d="M 41783,8813
41792,8814
41801,8817
41810,8820
41818,8824
41826,8828
41833,8834
41840,8840
41846,8847
41852,8854
41856,8862
41860,8870
41863,8879
41866,8888
41867,8897
41867,8906
41867,9132
41867,9142
41866,9151
41863,9160
41860,9168
41856,9177
41852,9184
41846,9192
41840,9199
41833,9205
41826,9210
41818,9215
41810,9219
41801,9222
41792,9224
41783,9226
41774,9226
41587,9226
41578,9226
41569,9224
41560,9222
41551,9219
41543,9215
41535,9210
41527,9205
41521,9199
41515,9192
41509,9184
41504,9177
41500,9168
41497,9160
41495,9151
41494,9142
41493,9132
41493,8906
41494,8897
41495,8888
41497,8879
41500,8870
41504,8862
41509,8854
41515,8847
41521,8840
41527,8834
41535,8828
41543,8824
41551,8820
41560,8817
41569,8814
41578,8813
41587,8813
41774,8813
41783,8813
Z" /> 
</g>
<g >
</g>
<g >
<path style="fill:#FF080E; fill-opacity:1.0; 
stroke:#FF080E; stroke-width:0; stroke-opacity:1; 
stroke-linecap:round; stroke-linejoin:round;fill-rule:evenodd;"
d="M 43818,7953
43827,7954
43836,7956
43845,7959
43853,7963
43861,7968
43869,7974
43875,7980
43882,7987
43887,7994
43892,8002
43896,8010
43899,8019
43901,8028
43902,8037
43903,8046
43903,8272
43902,8281
43901,8290
43899,8299
43896,8308
43892,8316
43887,8324
43882,8332
43875,8338
43869,8345
43861,8350
43853,8355
43845,8359
43836,8362
43827,8364
43818,8365
43809,8366
43622,8366
43613,8365
43604,8364
43595,8362
43586,8359
43578,8355
43570,8350
43563,8345
43556,8338
43550,8332
43545,8324
43540,8316
43536,8308
43533,8299
43531,8290
43529,8281
43529,8272
43529,8046
43529,8037
43531,8028
43533,8019
43536,8010
43540,8002
43545,7994
43550,7987
43556,7980
43563,7974
43570,7968
43578,7963
43586,7959
43595,7956
43604,7954
43613,7953
43622,7952
43809,7952
43818,7953
Z" /> 
<path style="fill:#FF080E; fill-opacity:1.0; 
stroke:#FF080E; stroke-width:0; stroke-opacity:1; 
stroke-linecap:round; stroke-linejoin:round;fill-rule:evenodd;"
d="M 43818,7264
43827,7265
43836,7267
43845,7270
43853,7274
43861,7279
43869,7285
43875,7291
43882,7298
43887,7305
43892,7313
43896,7321
43899,7330
43901,7339
43902,7348
43903,7357
43903,7583
43902,7592
43901,7601
43899,7610
43896,7619
43892,7627
43887,7635
43882,7643
43875,7649
43869,7656
43861,7661
43853,7666
43845,7670
43836,7673
43827,7675
43818,7676
43809,7677
43622,7677
43613,7676
43604,7675
43595,7673
43586,7670
43578,7666
43570,7661
43563,7656
43556,7649
43550,7643
43545,7635
43540,7627
43536,7619
43533,7610
43531,7601
43529,7592
43529,7583
43529,7357
43529,7348
43531,7339
43533,7330
43536,7321
43540,7313
43545,7305
43550,7298
43556,7291
43563,7285
43570,7279
43578,7274
43586,7270
43595,7267
43604,7265
43613,7264
43622,7263
43809,7263
43818,7264
Z" /> 
</g>
<g >
</g>
<g >
<path style="fill:#FF080E; fill-opacity:1.0; 
stroke:#FF080E; stroke-width:0; stroke-opacity:1; 
stroke-linecap:round; stroke-linejoin:round;fill-rule:evenodd;"
d="M 44027,11047
44027,17818
43633,17818
43633,11047
44027,11047
Z" /> 
<path style="fill:#FF080E; fill-opacity:1.0; 
stroke:#FF080E; stroke-width:0; stroke-opacity:1; 
stroke-linecap:round; stroke-linejoin:round;fill-rule:evenodd;"
d="M 33436,11047
33436,17818
33043,17818
33043,11047
33436,11047
Z" /> 
<path style="fill:#FF080E; fill-opacity:1.0; 
stroke:#FF080E; stroke-width:0; stroke-opacity:1; 
stroke-linecap:round; stroke-linejoin:round;fill-rule:evenodd;"
d="M 33263,17623
33282,17626
33301,17631
33318,17638
33336,17647
33352,17657
33367,17669
33381,17682
33394,17696
33405,17712
33415,17729
33423,17746
33429,17765
33433,17783
33436,17802
33436,17815
33436,17816
33438,17866
33443,17907
33453,17947
33466,17986
33483,18023
33504,18059
33528,18092
33555,18123
33585,18152
33618,18177
33653,18198
33690,18217
33728,18231
33768,18242
33808,18249
33852,18252
43203,18252
43248,18250
43289,18244
43329,18235
43368,18222
43405,18205
43441,18184
43474,18160
43505,18133
43533,18103
43558,18070
43580,18035
43598,17998
43613,17960
43623,17920
43630,17879
43634,17829
43634,17826
43636,17807
43641,17788
43647,17770
43655,17752
43664,17736
43675,17720
43688,17706
43702,17692
43717,17681
43734,17670
43751,17662
43769,17655
43787,17650
43806,17647
43825,17645
43845,17646
43864,17648
43883,17652
43901,17658
43918,17666
43935,17676
43951,17687
43965,17699
43979,17713
43991,17728
44001,17745
44010,17762
44017,17780
44022,17798
44025,17817
44027,17836
44026,17855
44022,17916
44022,17916
44022,17916
44022,17918
44021,17927
44020,17935
44010,17994
44010,17997
44008,18005
44006,18013
43990,18072
43989,18074
43987,18082
43984,18090
43963,18146
43963,18146
43963,18146
43962,18149
43959,18156
43955,18164
43929,18218
43927,18221
43923,18228
43919,18235
43887,18286
43886,18289
43881,18295
43876,18302
43840,18350
43838,18352
43832,18358
43827,18365
43786,18409
43784,18411
43778,18416
43772,18422
43727,18462
43727,18462
43727,18462
43725,18464
43718,18469
43712,18474
43663,18509
43660,18511
43653,18515
43646,18520
43594,18550
43592,18551
43584,18555
43577,18559
43522,18584
43522,18584
43522,18584
43520,18585
43512,18588
43504,18591
43447,18610
43447,18610
43447,18610
43444,18611
43437,18614
43429,18616
43370,18630
43370,18630
43367,18630
43359,18632
43351,18633
43291,18641
43291,18641
43291,18641
43288,18642
43280,18642
43272,18643
43220,18645
43220,18645
43209,18645
43209,18645
43208,18645
43203,18645
43201,18645
43198,18645
33850,18645
33850,18645
33832,18645
33772,18641
33772,18641
33772,18641
33769,18641
33761,18639
33753,18638
33693,18629
33691,18628
33683,18626
33675,18624
33616,18609
33616,18609
33616,18609
33614,18608
33606,18605
33598,18603
33541,18581
33541,18581
33541,18581
33539,18580
33531,18577
33524,18574
33470,18547
33467,18546
33460,18542
33453,18538
33402,18506
33399,18504
33393,18499
33386,18495
33338,18458
33336,18456
33329,18451
33323,18446
33279,18404
33277,18402
33271,18396
33266,18391
33226,18345
33226,18345
33226,18345
33224,18343
33219,18337
33214,18330
33179,18281
33177,18279
33173,18272
33168,18265
33138,18213
33136,18210
33133,18203
33129,18196
33104,18141
33103,18138
33100,18130
33097,18123
33077,18066
33076,18063
33074,18055
33072,18047
33058,17988
33057,17986
33056,17978
33055,17969
33046,17910
33046,17910
33046,17910
33046,17907
33046,17899
33045,17890
33043,17830
33043,17827
33043,17824
33042,17820
33043,17815
33043,17813
33044,17794
33047,17775
33053,17756
33060,17738
33068,17721
33079,17705
33091,17690
33104,17676
33118,17663
33134,17652
33151,17643
33168,17635
33187,17629
33206,17625
33225,17622
33244,17622
33263,17623
Z" /> 
<path style="fill:#FF080E; fill-opacity:1.0; 
stroke:#FF080E; stroke-width:0; stroke-opacity:1; 
stroke-linecap:round; stroke-linejoin:round;fill-rule:evenodd;"
d="M 33871,10220
43220,10220
43220,10220
43237,10221
43297,10225
43297,10225
43300,10225
43308,10226
43316,10227
43376,10237
43376,10237
43376,10237
43379,10237
43387,10239
43395,10241
43453,10257
43453,10257
43453,10257
43456,10257
43463,10260
43471,10263
43528,10284
43528,10284
43528,10284
43530,10285
43538,10288
43545,10292
43600,10318
43600,10318
43600,10318
43602,10320
43609,10324
43616,10328
43668,10360
43668,10360
43668,10360
43670,10361
43677,10366
43684,10371
43731,10407
43734,10409
43740,10414
43746,10420
43790,10461
43792,10463
43798,10469
43804,10475
43843,10520
43845,10522
43850,10529
43855,10535
43891,10584
43892,10587
43897,10594
43901,10600
43931,10653
43931,10653
43931,10653
43933,10655
43936,10662
43940,10670
43965,10725
43966,10727
43969,10735
43972,10743
43992,10800
43993,10802
43995,10810
43997,10818
44011,10877
44012,10880
44013,10888
44015,10896
44023,10956
44023,10956
44023,10956
44023,10958
44024,10967
44024,10975
44027,11035
44027,11038
44027,11042
44027,11046
44027,11050
44027,11053
44025,11072
44022,11091
44017,11109
44010,11127
44001,11144
43991,11161
43979,11176
43965,11190
43951,11202
43935,11213
43918,11223
43901,11230
43883,11237
43864,11241
43845,11243
43825,11244
43806,11242
43787,11239
43769,11234
43751,11227
43734,11219
43717,11208
43702,11197
43688,11183
43675,11169
43664,11153
43655,11137
43647,11119
43641,11101
43636,11082
43634,11063
43633,11050
43633,11050
43631,10999
43626,10958
43616,10918
43603,10879
43586,10842
43565,10806
43541,10773
43514,10742
43484,10714
43452,10689
43417,10667
43380,10649
43341,10634
43301,10624
43261,10617
43217,10614
33867,10614
33821,10615
33781,10621
33741,10630
33702,10644
33664,10661
33629,10681
33595,10705
33564,10733
33536,10763
33511,10795
33489,10830
33471,10867
33457,10906
33446,10945
33439,10986
33436,11037
33436,11039
33433,11058
33429,11077
33423,11095
33415,11113
33405,11130
33394,11145
33381,11160
33367,11173
33352,11185
33336,11195
33319,11203
33301,11210
33282,11215
33263,11219
33244,11220
33225,11220
33206,11217
33187,11213
33169,11207
33151,11199
33134,11190
33118,11179
33104,11166
33091,11152
33079,11137
33068,11121
33060,11104
33053,11086
33047,11067
33044,11048
33043,11029
33043,11010
33047,10950
33047,10947
33048,10939
33049,10930
33059,10871
33059,10871
33059,10871
33060,10868
33062,10860
33063,10852
33079,10794
33079,10794
33079,10794
33080,10791
33082,10783
33085,10776
33106,10719
33106,10719
33106,10719
33107,10716
33111,10709
33114,10701
33141,10647
33141,10647
33141,10647
33142,10645
33146,10638
33150,10630
33182,10579
33184,10577
33188,10570
33193,10563
33230,10515
33231,10513
33237,10507
33242,10501
33283,10457
33285,10455
33291,10449
33297,10443
33343,10403
33345,10402
33351,10397
33358,10391
33407,10356
33407,10356
33407,10356
33409,10355
33416,10350
33423,10346
33475,10315
33475,10315
33475,10315
33478,10314
33485,10310
33492,10307
33547,10282
33547,10282
33547,10282
33550,10280
33557,10277
33565,10274
33622,10255
33622,10255
33622,10255
33625,10254
33633,10252
33641,10250
33699,10236
33699,10236
33702,10235
33710,10234
33718,10232
33778,10224
33778,10224
33778,10224
33781,10224
33789,10223
33797,10222
33850,10220
33850,10220
33860,10220
33860,10220
33861,10220
33867,10220
33868,10220
33871,10220
Z" /> 
</g>
<g >
<path style="fill:#FF080E; fill-opacity:1.0; 
stroke:#FF080E; stroke-width:0; stroke-opacity:1; 
stroke-linecap:round; stroke-linejoin:round;fill-rule:evenodd;"
d="M 39812,17222
39812,17340
39472,17340
39472,17222
39812,17222
Z" /> 
<path style="fill:#FF080E; fill-opacity:1.0; 
stroke:#FF080E; stroke-width:0; stroke-opacity:1; 
stroke-linecap:round; stroke-linejoin:round;fill-rule:evenodd;"
d="M 39812,17025
39812,17143
39472,17143
39472,17025
39812,17025
Z" /> 
<path style="fill:#FF080E; fill-opacity:1.0; 
stroke:#FF080E; stroke-width:0; stroke-opacity:1; 
stroke-linecap:round; stroke-linejoin:round;fill-rule:evenodd;"
d="M 39812,16828
39812,16946
39472,16946
39472,16828
39812,16828
Z" /> 
<path style="fill:#FF080E; fill-opacity:1.0; 
stroke:#FF080E; stroke-width:0; stroke-opacity:1; 
stroke-linecap:round; stroke-linejoin:round;fill-rule:evenodd;"
d="M 39812,16631
39812,16750
39472,16750
39472,16631
39812,16631
Z" /> 
<path style="fill:#FF080E; fill-opacity:1.0; 
stroke:#FF080E; stroke-width:0; stroke-opacity:1; 
stroke-linecap:round; stroke-linejoin:round;fill-rule:evenodd;"
d="M 39022,16631
39022,16750
38682,16750
38682,16631
39022,16631
Z" /> 
<path style="fill:#FF080E; fill-opacity:1.0; 
stroke:#FF080E; stroke-width:0; stroke-opacity:1; 
stroke-linecap:round; stroke-linejoin:round;fill-rule:evenodd;"
d="M 39022,16828
39022,16946
38682,16946
38682,16828
39022,16828
Z" /> 
<path style="fill:#FF080E; fill-opacity:1.0; 
stroke:#FF080E; stroke-width:0; stroke-opacity:1; 
stroke-linecap:round; stroke-linejoin:round;fill-rule:evenodd;"
d="M 39022,17025
39022,17143
38682,17143
38682,17025
39022,17025
Z" /> 
<path style="fill:#FF080E; fill-opacity:1.0; 
stroke:#FF080E; stroke-width:0; stroke-opacity:1; 
stroke-linecap:round; stroke-linejoin:round;fill-rule:evenodd;"
d="M 39022,17222
39022,17340
38682,17340
38682,17222
39022,17222
Z" /> 
</g>
<g >
</g>
<g >
</g>
<g >
</g>
<g >
</g>
<g >
</g>
<g >
</g>
<g >
</g>
<g >
</g>
<g >
<path style="fill:#FF080E; fill-opacity:1.0; 
stroke:#FF080E; stroke-width:0; stroke-opacity:1; 
stroke-linecap:round; stroke-linejoin:round;fill-rule:evenodd;"
d="M 40716,16287
40725,16289
40734,16291
40743,16294
40751,16298
40759,16303
40766,16308
40773,16314
40779,16321
40785,16329
40789,16336
40793,16345
40796,16353
40799,16362
40800,16371
40800,16380
40800,16607
40800,16616
40799,16625
40796,16634
40793,16643
40789,16651
40785,16659
40779,16666
40773,16673
40766,16679
40759,16685
40751,16689
40743,16693
40734,16696
40725,16699
40716,16700
40707,16700
40520,16700
40511,16700
40502,16699
40493,16696
40484,16693
40476,16689
40468,16685
40461,16679
40454,16673
40448,16666
40442,16659
40437,16651
40434,16643
40430,16634
40428,16625
40427,16616
40426,16607
40426,16380
40427,16371
40428,16362
40430,16353
40434,16345
40437,16336
40442,16329
40448,16321
40454,16314
40461,16308
40468,16303
40476,16298
40484,16294
40493,16291
40502,16289
40511,16287
40520,16287
40707,16287
40716,16287
Z" /> 
<path style="fill:#FF080E; fill-opacity:1.0; 
stroke:#FF080E; stroke-width:0; stroke-opacity:1; 
stroke-linecap:round; stroke-linejoin:round;fill-rule:evenodd;"
d="M 40716,15598
40725,15600
40734,15602
40743,15605
40751,15609
40759,15614
40766,15619
40773,15625
40779,15632
40785,15640
40789,15647
40793,15656
40796,15664
40799,15673
40800,15682
40800,15692
40800,15918
40800,15927
40799,15936
40796,15945
40793,15954
40789,15962
40785,15970
40779,15977
40773,15984
40766,15990
40759,15996
40751,16000
40743,16004
40734,16007
40725,16010
40716,16011
40707,16011
40520,16011
40511,16011
40502,16010
40493,16007
40484,16004
40476,16000
40468,15996
40461,15990
40454,15984
40448,15977
40442,15970
40437,15962
40434,15954
40430,15945
40428,15936
40427,15927
40426,15918
40426,15692
40427,15682
40428,15673
40430,15664
40434,15656
40437,15647
40442,15640
40448,15632
40454,15625
40461,15619
40468,15614
40476,15609
40484,15605
40493,15602
40502,15600
40511,15598
40520,15598
40707,15598
40716,15598
Z" /> 
</g>
<g >
<path style="fill:#FF080E; fill-opacity:1.0; 
stroke:#FF080E; stroke-width:0; stroke-opacity:1; 
stroke-linecap:round; stroke-linejoin:round;fill-rule:evenodd;"
d="M 30216,3267
30216,3582
29468,3582
29468,3267
30216,3267
Z" /> 
<path style="fill:#FF080E; fill-opacity:1.0; 
stroke:#FF080E; stroke-width:0; stroke-opacity:1; 
stroke-linecap:round; stroke-linejoin:round;fill-rule:evenodd;"
d="M 30216,2519
30216,2834
29468,2834
29468,2519
30216,2519
Z" /> 
<path style="fill:#FF080E; fill-opacity:1.0; 
stroke:#FF080E; stroke-width:0; stroke-opacity:1; 
stroke-linecap:round; stroke-linejoin:round;fill-rule:evenodd;"
d="M 29035,2893
29035,3208
28287,3208
28287,2893
29035,2893
Z" /> 
</g>
<g >
<path style="fill:#FF080E; fill-opacity:1.0; 
stroke:#FF080E; stroke-width:0; stroke-opacity:1; 
stroke-linecap:round; stroke-linejoin:round;fill-rule:evenodd;"
d="M 30216,4657
30216,4972
29468,4972
29468,4657
30216,4657
Z" /> 
<path style="fill:#FF080E; fill-opacity:1.0; 
stroke:#FF080E; stroke-width:0; stroke-opacity:1; 
stroke-linecap:round; stroke-linejoin:round;fill-rule:evenodd;"
d="M 30216,3909
30216,4224
29468,4224
29468,3909
30216,3909
Z" /> 
<path style="fill:#FF080E; fill-opacity:1.0; 
stroke:#FF080E; stroke-width:0; stroke-opacity:1; 
stroke-linecap:round; stroke-linejoin:round;fill-rule:evenodd;"
d="M 29035,4283
29035,4598
28287,4598
28287,4283
29035,4283
Z" /> 
</g>
<g >
<path style="fill:#FF080E; fill-opacity:1.0; 
stroke:#FF080E; stroke-width:0; stroke-opacity:1; 
stroke-linecap:round; stroke-linejoin:round;fill-rule:evenodd;"
d="M 28287,5602
28287,5287
29035,5287
29035,5602
28287,5602
Z" /> 
<path style="fill:#FF080E; fill-opacity:1.0; 
stroke:#FF080E; stroke-width:0; stroke-opacity:1; 
stroke-linecap:round; stroke-linejoin:round;fill-rule:evenodd;"
d="M 28287,6350
28287,6035
29035,6035
29035,6350
28287,6350
Z" /> 
<path style="fill:#FF080E; fill-opacity:1.0; 
stroke:#FF080E; stroke-width:0; stroke-opacity:1; 
stroke-linecap:round; stroke-linejoin:round;fill-rule:evenodd;"
d="M 29468,5976
29468,5661
30216,5661
30216,5976
29468,5976
Z" /> 
</g>
<g >
<path style="fill:#FF080E; fill-opacity:1.0; 
stroke:#FF080E; stroke-width:0; stroke-opacity:1; 
stroke-linecap:round; stroke-linejoin:round;fill-rule:evenodd;"
d="M 34015,4106
34015,4421
33267,4421
33267,4106
34015,4106
Z" /> 
<path style="fill:#FF080E; fill-opacity:1.0; 
stroke:#FF080E; stroke-width:0; stroke-opacity:1; 
stroke-linecap:round; stroke-linejoin:round;fill-rule:evenodd;"
d="M 34015,3358
34015,3673
33267,3673
33267,3358
34015,3358
Z" /> 
<path style="fill:#FF080E; fill-opacity:1.0; 
stroke:#FF080E; stroke-width:0; stroke-opacity:1; 
stroke-linecap:round; stroke-linejoin:round;fill-rule:evenodd;"
d="M 32834,3732
32834,4047
32086,4047
32086,3732
32834,3732
Z" /> 
</g>
<g >
<path style="fill:#FF080E; fill-opacity:1.0; 
stroke:#FF080E; stroke-width:0; stroke-opacity:1; 
stroke-linecap:round; stroke-linejoin:round;fill-rule:evenodd;"
d="M 34027,5515
34027,5830
33279,5830
33279,5515
34027,5515
Z" /> 
<path style="fill:#FF080E; fill-opacity:1.0; 
stroke:#FF080E; stroke-width:0; stroke-opacity:1; 
stroke-linecap:round; stroke-linejoin:round;fill-rule:evenodd;"
d="M 34027,4767
34027,5082
33279,5082
33279,4767
34027,4767
Z" /> 
<path style="fill:#FF080E; fill-opacity:1.0; 
stroke:#FF080E; stroke-width:0; stroke-opacity:1; 
stroke-linecap:round; stroke-linejoin:round;fill-rule:evenodd;"
d="M 32846,5141
32846,5456
32098,5456
32098,5141
32846,5141
Z" /> 
</g>
<g >
</g>
<g >
</g>
<g >
</g>
<g >
</g>
<g >
<path style="fill:#FF080E; fill-opacity:1.0; 
stroke:#FF080E; stroke-width:0; stroke-opacity:1; 
stroke-linecap:round; stroke-linejoin:round;fill-rule:evenodd;"
d="M 26516,5376
26524,5377
26533,5379
26541,5382
26548,5386
26555,5390
26562,5395
26568,5401
26574,5407
26579,5414
26584,5421
26587,5429
26590,5437
26592,5445
26593,5453
26594,5462
26594,5663
26593,5672
26592,5680
26590,5688
26587,5696
26584,5704
26579,5711
26574,5718
26568,5724
26562,5730
26555,5735
26548,5739
26541,5743
26533,5746
26524,5748
26516,5749
26508,5750
26335,5750
26327,5749
26319,5748
26310,5746
26302,5743
26295,5739
26287,5735
26281,5730
26274,5724
26269,5718
26264,5711
26259,5704
26256,5696
26253,5688
26251,5680
26250,5672
26249,5663
26249,5462
26250,5453
26251,5445
26253,5437
26256,5429
26259,5421
26264,5414
26269,5407
26274,5401
26281,5395
26287,5390
26295,5386
26302,5382
26310,5379
26319,5377
26327,5376
26335,5376
26508,5376
26516,5376
Z" /> 
<path style="fill:#FF080E; fill-opacity:1.0; 
stroke:#FF080E; stroke-width:0; stroke-opacity:1; 
stroke-linecap:round; stroke-linejoin:round;fill-rule:evenodd;"
d="M 27136,5376
27144,5377
27153,5379
27161,5382
27168,5386
27176,5390
27182,5395
27189,5401
27194,5407
27199,5414
27204,5421
27207,5429
27210,5437
27212,5445
27213,5453
27214,5462
27214,5663
27213,5672
27212,5680
27210,5688
27207,5696
27204,5704
27199,5711
27194,5718
27189,5724
27182,5730
27176,5735
27168,5739
27161,5743
27153,5746
27144,5748
27136,5749
27128,5750
26955,5750
26947,5749
26939,5748
26930,5746
26922,5743
26915,5739
26908,5735
26901,5730
26895,5724
26889,5718
26884,5711
26879,5704
26876,5696
26873,5688
26871,5680
26870,5672
26869,5663
26869,5462
26870,5453
26871,5445
26873,5437
26876,5429
26879,5421
26884,5414
26889,5407
26895,5401
26901,5395
26908,5390
26915,5386
26922,5382
26930,5379
26939,5377
26947,5376
26955,5376
27128,5376
27136,5376
Z" /> 
</g>
<g >
<path style="fill:#FF080E; fill-opacity:1.0; 
stroke:#FF080E; stroke-width:0; stroke-opacity:1; 
stroke-linecap:round; stroke-linejoin:round;fill-rule:evenodd;"
d="M 27069,2144
27078,2145
27086,2147
27094,2150
27101,2153
27109,2158
27115,2163
27122,2169
27127,2175
27132,2182
27137,2189
27140,2196
27143,2204
27145,2213
27146,2221
27147,2229
27147,2402
27146,2410
27145,2418
27143,2427
27140,2435
27137,2442
27132,2450
27127,2456
27122,2463
27115,2468
27109,2473
27101,2478
27094,2481
27086,2484
27078,2486
27069,2487
27061,2488
26859,2488
26851,2487
26842,2486
26834,2484
26826,2481
26818,2478
26811,2473
26804,2468
26798,2463
26792,2456
26787,2450
26783,2442
26779,2435
26777,2427
26774,2418
26773,2410
26773,2402
26773,2229
26773,2221
26774,2213
26777,2204
26779,2196
26783,2189
26787,2182
26792,2175
26798,2169
26804,2163
26811,2158
26818,2153
26826,2150
26834,2147
26842,2145
26851,2144
26859,2143
27061,2143
27069,2144
Z" /> 
<path style="fill:#FF080E; fill-opacity:1.0; 
stroke:#FF080E; stroke-width:0; stroke-opacity:1; 
stroke-linecap:round; stroke-linejoin:round;fill-rule:evenodd;"
d="M 27069,2764
27078,2765
27086,2767
27094,2770
27101,2774
27109,2778
27115,2783
27122,2789
27127,2795
27132,2802
27137,2809
27140,2817
27143,2824
27145,2833
27146,2841
27147,2849
27147,3022
27146,3030
27145,3039
27143,3047
27140,3055
27137,3062
27132,3070
27127,3076
27122,3083
27115,3088
27109,3093
27101,3098
27094,3101
27086,3104
27078,3106
27069,3107
27061,3108
26859,3108
26851,3107
26842,3106
26834,3104
26826,3101
26818,3098
26811,3093
26804,3088
26798,3083
26792,3076
26787,3070
26783,3062
26779,3055
26777,3047
26774,3039
26773,3030
26773,3022
26773,2849
26773,2841
26774,2833
26777,2824
26779,2817
26783,2809
26787,2802
26792,2795
26798,2789
26804,2783
26811,2778
26818,2774
26826,2770
26834,2767
26842,2765
26851,2764
26859,2763
27061,2763
27069,2764
Z" /> 
</g>
<g >
</g>
<g >
</g>
<g >
<path style="fill:#FF080E; fill-opacity:1.0; 
stroke:#FF080E; stroke-width:0; stroke-opacity:1; 
stroke-linecap:round; stroke-linejoin:round;fill-rule:evenodd;"
d="M 34101,12884
34109,12885
34117,12887
34125,12890
34133,12894
34140,12898
34147,12903
34153,12909
34159,12915
34164,12922
34168,12929
34172,12937
34175,12945
34177,12953
34178,12961
34178,12970
34178,13142
34178,13150
34177,13159
34175,13167
34172,13175
34168,13182
34164,13190
34159,13196
34153,13203
34147,13208
34140,13213
34133,13218
34125,13221
34117,13224
34109,13226
34101,13228
34092,13228
33890,13228
33882,13228
33874,13226
33865,13224
33858,13221
33850,13218
33843,13213
33836,13208
33830,13203
33824,13196
33819,13190
33815,13182
33811,13175
33808,13167
33806,13159
33805,13150
33804,13142
33804,12970
33805,12961
33806,12953
33808,12945
33811,12937
33815,12929
33819,12922
33824,12915
33830,12909
33836,12903
33843,12898
33850,12894
33858,12890
33865,12887
33874,12885
33882,12884
33890,12883
34092,12883
34101,12884
Z" /> 
<path style="fill:#FF080E; fill-opacity:1.0; 
stroke:#FF080E; stroke-width:0; stroke-opacity:1; 
stroke-linecap:round; stroke-linejoin:round;fill-rule:evenodd;"
d="M 34101,13504
34109,13505
34117,13507
34125,13510
34133,13514
34140,13518
34147,13523
34153,13529
34159,13535
34164,13542
34168,13549
34172,13557
34175,13565
34177,13573
34178,13581
34178,13590
34178,13762
34178,13770
34177,13779
34175,13787
34172,13795
34168,13802
34164,13810
34159,13817
34153,13823
34147,13828
34140,13834
34133,13838
34125,13841
34117,13844
34109,13846
34101,13848
34092,13848
33890,13848
33882,13848
33874,13846
33865,13844
33858,13841
33850,13838
33843,13834
33836,13828
33830,13823
33824,13817
33819,13810
33815,13802
33811,13795
33808,13787
33806,13779
33805,13770
33804,13762
33804,13590
33805,13581
33806,13573
33808,13565
33811,13557
33815,13549
33819,13542
33824,13535
33830,13529
33836,13523
33843,13518
33850,13514
33858,13510
33865,13507
33874,13505
33882,13504
33890,13504
34092,13504
34101,13504
Z" /> 
</g>
<g >
</g>
<g >
</g>
<g >
</g>
<g >
</g>
<g >
</g>
<g >
<path style="fill:#FF080E; fill-opacity:1.0; 
stroke:#FF080E; stroke-width:0; stroke-opacity:1; 
stroke-linecap:round; stroke-linejoin:round;fill-rule:evenodd;"
d="M 39036,12530
39044,12531
39052,12533
39060,12536
39068,12539
39075,12544
39082,12549
39088,12554
39094,12561
39099,12567
39103,12575
39107,12582
39110,12590
39112,12598
39113,12607
39113,12615
39113,12817
39113,12825
39112,12834
39110,12842
39107,12850
39103,12858
39099,12865
39094,12872
39088,12878
39082,12884
39075,12889
39068,12893
39060,12897
39052,12899
39044,12901
39036,12903
39027,12903
38855,12903
38847,12903
38838,12901
38830,12899
38822,12897
38814,12893
38807,12889
38800,12884
38794,12878
38788,12872
38783,12865
38779,12858
38775,12850
38773,12842
38771,12834
38769,12825
38769,12817
38769,12615
38769,12607
38771,12598
38773,12590
38775,12582
38779,12575
38783,12567
38788,12561
38794,12554
38800,12549
38807,12544
38814,12539
38822,12536
38830,12533
38838,12531
38847,12530
38855,12529
39027,12529
39036,12530
Z" /> 
<path style="fill:#FF080E; fill-opacity:1.0; 
stroke:#FF080E; stroke-width:0; stroke-opacity:1; 
stroke-linecap:round; stroke-linejoin:round;fill-rule:evenodd;"
d="M 39656,12530
39664,12531
39672,12533
39680,12536
39688,12539
39695,12544
39702,12549
39708,12554
39714,12561
39719,12567
39723,12575
39727,12582
39730,12590
39732,12598
39733,12607
39733,12615
39733,12817
39733,12825
39732,12834
39730,12842
39727,12850
39723,12858
39719,12865
39714,12872
39708,12878
39702,12884
39695,12889
39688,12893
39680,12897
39672,12899
39664,12901
39656,12903
39647,12903
39475,12903
39467,12903
39458,12901
39450,12899
39442,12897
39435,12893
39427,12889
39420,12884
39414,12878
39409,12872
39403,12865
39399,12858
39396,12850
39393,12842
39391,12834
39389,12825
39389,12817
39389,12615
39389,12607
39391,12598
39393,12590
39396,12582
39399,12575
39403,12567
39409,12561
39414,12554
39420,12549
39427,12544
39435,12539
39442,12536
39450,12533
39458,12531
39467,12530
39475,12529
39647,12529
39656,12530
Z" /> 
</g>
<g >
</g>
<g >
<path style="fill:#FF080E; fill-opacity:1.0; 
stroke:#FF080E; stroke-width:0; stroke-opacity:1; 
stroke-linecap:round; stroke-linejoin:round;fill-rule:evenodd;"
d="M 43013,14734
43249,14734
43249,15344
43013,15344
43013,14734
Z" /> 
<path style="fill:#FF080E; fill-opacity:1.0; 
stroke:#FF080E; stroke-width:0; stroke-opacity:1; 
stroke-linecap:round; stroke-linejoin:round;fill-rule:evenodd;"
d="M 42513,14734
42749,14734
42749,15344
42513,15344
42513,14734
Z" /> 
<path style="fill:#FF080E; fill-opacity:1.0; 
stroke:#FF080E; stroke-width:0; stroke-opacity:1; 
stroke-linecap:round; stroke-linejoin:round;fill-rule:evenodd;"
d="M 42013,14734
42249,14734
42249,15344
42013,15344
42013,14734
Z" /> 
<path style="fill:#FF080E; fill-opacity:1.0; 
stroke:#FF080E; stroke-width:0; stroke-opacity:1; 
stroke-linecap:round; stroke-linejoin:round;fill-rule:evenodd;"
d="M 41513,14734
41749,14734
41749,15344
41513,15344
41513,14734
Z" /> 
<path style="fill:#FF080E; fill-opacity:1.0; 
stroke:#FF080E; stroke-width:0; stroke-opacity:1; 
stroke-linecap:round; stroke-linejoin:round;fill-rule:evenodd;"
d="M 41513,16860
41749,16860
41749,17470
41513,17470
41513,16860
Z" /> 
<path style="fill:#FF080E; fill-opacity:1.0; 
stroke:#FF080E; stroke-width:0; stroke-opacity:1; 
stroke-linecap:round; stroke-linejoin:round;fill-rule:evenodd;"
d="M 42013,16860
42249,16860
42249,17470
42013,17470
42013,16860
Z" /> 
<path style="fill:#FF080E; fill-opacity:1.0; 
stroke:#FF080E; stroke-width:0; stroke-opacity:1; 
stroke-linecap:round; stroke-linejoin:round;fill-rule:evenodd;"
d="M 42513,16860
42749,16860
42749,17470
42513,17470
42513,16860
Z" /> 
<path style="fill:#FF080E; fill-opacity:1.0; 
stroke:#FF080E; stroke-width:0; stroke-opacity:1; 
stroke-linecap:round; stroke-linejoin:round;fill-rule:evenodd;"
d="M 43013,16860
43249,16860
43249,17470
43013,17470
43013,16860
Z" /> 
</g>
<g >
<path style="fill:#FF080E; fill-opacity:1.0; 
stroke:#FF080E; stroke-width:0; stroke-opacity:1; 
stroke-linecap:round; stroke-linejoin:round;fill-rule:evenodd;"
d="M 42694,11576
42930,11576
42930,12187
42694,12187
42694,11576
Z" /> 
<path style="fill:#FF080E; fill-opacity:1.0; 
stroke:#FF080E; stroke-width:0; stroke-opacity:1; 
stroke-linecap:round; stroke-linejoin:round;fill-rule:evenodd;"
d="M 42194,11576
42430,11576
42430,12187
42194,12187
42194,11576
Z" /> 
<path style="fill:#FF080E; fill-opacity:1.0; 
stroke:#FF080E; stroke-width:0; stroke-opacity:1; 
stroke-linecap:round; stroke-linejoin:round;fill-rule:evenodd;"
d="M 41694,11576
41930,11576
41930,12187
41694,12187
41694,11576
Z" /> 
<path style="fill:#FF080E; fill-opacity:1.0; 
stroke:#FF080E; stroke-width:0; stroke-opacity:1; 
stroke-linecap:round; stroke-linejoin:round;fill-rule:evenodd;"
d="M 41194,11576
41430,11576
41430,12187
41194,12187
41194,11576
Z" /> 
<path style="fill:#FF080E; fill-opacity:1.0; 
stroke:#FF080E; stroke-width:0; stroke-opacity:1; 
stroke-linecap:round; stroke-linejoin:round;fill-rule:evenodd;"
d="M 41194,13702
41430,13702
41430,14313
41194,14313
41194,13702
Z" /> 
<path style="fill:#FF080E; fill-opacity:1.0; 
stroke:#FF080E; stroke-width:0; stroke-opacity:1; 
stroke-linecap:round; stroke-linejoin:round;fill-rule:evenodd;"
d="M 41694,13702
41930,13702
41930,14313
41694,14313
41694,13702
Z" /> 
<path style="fill:#FF080E; fill-opacity:1.0; 
stroke:#FF080E; stroke-width:0; stroke-opacity:1; 
stroke-linecap:round; stroke-linejoin:round;fill-rule:evenodd;"
d="M 42194,13702
42430,13702
42430,14313
42194,14313
42194,13702
Z" /> 
<path style="fill:#FF080E; fill-opacity:1.0; 
stroke:#FF080E; stroke-width:0; stroke-opacity:1; 
stroke-linecap:round; stroke-linejoin:round;fill-rule:evenodd;"
d="M 42694,13702
42930,13702
42930,14313
42694,14313
42694,13702
Z" /> 
</g>
<g >
</g>
<g >
<path style="fill:#FF080E; fill-opacity:1.0; 
stroke:#FF080E; stroke-width:0; stroke-opacity:1; 
stroke-linecap:round; stroke-linejoin:round;fill-rule:evenodd;"
d="M 34419,15789
34419,16025
33808,16025
33808,15789
34419,15789
Z" /> 
<path style="fill:#FF080E; fill-opacity:1.0; 
stroke:#FF080E; stroke-width:0; stroke-opacity:1; 
stroke-linecap:round; stroke-linejoin:round;fill-rule:evenodd;"
d="M 34419,15289
34419,15525
33808,15525
33808,15289
34419,15289
Z" /> 
<path style="fill:#FF080E; fill-opacity:1.0; 
stroke:#FF080E; stroke-width:0; stroke-opacity:1; 
stroke-linecap:round; stroke-linejoin:round;fill-rule:evenodd;"
d="M 34419,14789
34419,15025
33808,15025
33808,14789
34419,14789
Z" /> 
<path style="fill:#FF080E; fill-opacity:1.0; 
stroke:#FF080E; stroke-width:0; stroke-opacity:1; 
stroke-linecap:round; stroke-linejoin:round;fill-rule:evenodd;"
d="M 34419,14289
34419,14525
33808,14525
33808,14289
34419,14289
Z" /> 
<path style="fill:#FF080E; fill-opacity:1.0; 
stroke:#FF080E; stroke-width:0; stroke-opacity:1; 
stroke-linecap:round; stroke-linejoin:round;fill-rule:evenodd;"
d="M 36544,14289
36544,14525
35934,14525
35934,14289
36544,14289
Z" /> 
<path style="fill:#FF080E; fill-opacity:1.0; 
stroke:#FF080E; stroke-width:0; stroke-opacity:1; 
stroke-linecap:round; stroke-linejoin:round;fill-rule:evenodd;"
d="M 36544,14789
36544,15025
35934,15025
35934,14789
36544,14789
Z" /> 
<path style="fill:#FF080E; fill-opacity:1.0; 
stroke:#FF080E; stroke-width:0; stroke-opacity:1; 
stroke-linecap:round; stroke-linejoin:round;fill-rule:evenodd;"
d="M 36544,15289
36544,15525
35934,15525
35934,15289
36544,15289
Z" /> 
<path style="fill:#FF080E; fill-opacity:1.0; 
stroke:#FF080E; stroke-width:0; stroke-opacity:1; 
stroke-linecap:round; stroke-linejoin:round;fill-rule:evenodd;"
d="M 36544,15789
36544,16025
35934,16025
35934,15789
36544,15789
Z" /> 
</g>
<g >
</g>
<g >
</g>
<g >
<path style="fill:#FF080E; fill-opacity:1.0; 
stroke:#FF080E; stroke-width:0; stroke-opacity:1; 
stroke-linecap:round; stroke-linejoin:round;fill-rule:evenodd;"
d="M 46558,10578
46558,10696
46007,10696
46007,10578
46558,10578
Z" /> 
<path style="fill:#FF080E; fill-opacity:1.0; 
stroke:#FF080E; stroke-width:0; stroke-opacity:1; 
stroke-linecap:round; stroke-linejoin:round;fill-rule:evenodd;"
d="M 46558,10381
46558,10500
46007,10500
46007,10381
46558,10381
Z" /> 
<path style="fill:#FF080E; fill-opacity:1.0; 
stroke:#FF080E; stroke-width:0; stroke-opacity:1; 
stroke-linecap:round; stroke-linejoin:round;fill-rule:evenodd;"
d="M 46558,10185
46558,10303
46007,10303
46007,10185
46558,10185
Z" /> 
<path style="fill:#FF080E; fill-opacity:1.0; 
stroke:#FF080E; stroke-width:0; stroke-opacity:1; 
stroke-linecap:round; stroke-linejoin:round;fill-rule:evenodd;"
d="M 46558,9988
46558,10106
46007,10106
46007,9988
46558,9988
Z" /> 
<path style="fill:#FF080E; fill-opacity:1.0; 
stroke:#FF080E; stroke-width:0; stroke-opacity:1; 
stroke-linecap:round; stroke-linejoin:round;fill-rule:evenodd;"
d="M 46558,9791
46558,9909
46007,9909
46007,9791
46558,9791
Z" /> 
<path style="fill:#FF080E; fill-opacity:1.0; 
stroke:#FF080E; stroke-width:0; stroke-opacity:1; 
stroke-linecap:round; stroke-linejoin:round;fill-rule:evenodd;"
d="M 44826,9791
44826,9909
44275,9909
44275,9791
44826,9791
Z" /> 
<path style="fill:#FF080E; fill-opacity:1.0; 
stroke:#FF080E; stroke-width:0; stroke-opacity:1; 
stroke-linecap:round; stroke-linejoin:round;fill-rule:evenodd;"
d="M 44826,9988
44826,10106
44275,10106
44275,9988
44826,9988
Z" /> 
<path style="fill:#FF080E; fill-opacity:1.0; 
stroke:#FF080E; stroke-width:0; stroke-opacity:1; 
stroke-linecap:round; stroke-linejoin:round;fill-rule:evenodd;"
d="M 44826,10185
44826,10303
44275,10303
44275,10185
44826,10185
Z" /> 
<path style="fill:#FF080E; fill-opacity:1.0; 
stroke:#FF080E; stroke-width:0; stroke-opacity:1; 
stroke-linecap:round; stroke-linejoin:round;fill-rule:evenodd;"
d="M 44826,10381
44826,10500
44275,10500
44275,10381
44826,10381
Z" /> 
<path style="fill:#FF080E; fill-opacity:1.0; 
stroke:#FF080E; stroke-width:0; stroke-opacity:1; 
stroke-linecap:round; stroke-linejoin:round;fill-rule:evenodd;"
d="M 44826,10578
44826,10696
44275,10696
44275,10578
44826,10578
Z" /> 
</g>
<g >
<path style="fill:#FF080E; fill-opacity:1.0; 
stroke:#FF080E; stroke-width:0; stroke-opacity:1; 
stroke-linecap:round; stroke-linejoin:round;fill-rule:evenodd;"
d="M 35861,16478
35869,16480
35877,16482
35885,16484
35893,16488
35900,16492
35907,16497
35913,16503
35919,16509
35924,16516
35928,16523
35932,16531
35934,16539
35937,16547
35938,16556
35938,16564
35938,16736
35938,16745
35937,16753
35934,16761
35932,16769
35928,16777
35924,16784
35919,16791
35913,16797
35907,16803
35900,16808
35893,16812
35885,16816
35877,16819
35869,16821
35861,16822
35852,16822
35650,16822
35642,16822
35633,16821
35625,16819
35617,16816
35610,16812
35602,16808
35596,16803
35589,16797
35584,16791
35579,16784
35574,16777
35571,16769
35568,16761
35566,16753
35565,16745
35564,16736
35564,16564
35565,16556
35566,16547
35568,16539
35571,16531
35574,16523
35579,16516
35584,16509
35589,16503
35596,16497
35602,16492
35610,16488
35617,16484
35625,16482
35633,16480
35642,16478
35650,16478
35852,16478
35861,16478
Z" /> 
<path style="fill:#FF080E; fill-opacity:1.0; 
stroke:#FF080E; stroke-width:0; stroke-opacity:1; 
stroke-linecap:round; stroke-linejoin:round;fill-rule:evenodd;"
d="M 35861,17098
35869,17100
35877,17102
35885,17105
35893,17108
35900,17113
35907,17118
35913,17123
35919,17130
35924,17136
35928,17144
35932,17151
35934,17159
35937,17167
35938,17176
35938,17184
35938,17356
35938,17365
35937,17373
35934,17381
35932,17389
35928,17397
35924,17404
35919,17411
35913,17417
35907,17423
35900,17428
35893,17432
35885,17436
35877,17439
35869,17441
35861,17442
35852,17443
35650,17443
35642,17442
35633,17441
35625,17439
35617,17436
35610,17432
35602,17428
35596,17423
35589,17417
35584,17411
35579,17404
35574,17397
35571,17389
35568,17381
35566,17373
35565,17365
35564,17356
35564,17184
35565,17176
35566,17167
35568,17159
35571,17151
35574,17144
35579,17136
35584,17130
35589,17123
35596,17118
35602,17113
35610,17108
35617,17105
35625,17102
35633,17100
35642,17098
35650,17098
35852,17098
35861,17098
Z" /> 
</g>
<g >
<path style="fill:#FF080E; fill-opacity:1.0; 
stroke:#FF080E; stroke-width:0; stroke-opacity:1; 
stroke-linecap:round; stroke-linejoin:round;fill-rule:evenodd;"
d="M 40908,16927
40916,16928
40924,16930
40932,16933
40940,16937
40947,16941
40954,16946
40960,16952
40966,16958
40971,16965
40975,16972
40979,16980
40982,16988
40984,16996
40985,17004
40985,17013
40985,17215
40985,17223
40984,17231
40982,17240
40979,17248
40975,17255
40971,17262
40966,17269
40960,17276
40954,17281
40947,17286
40940,17291
40932,17294
40924,17297
40916,17299
40908,17300
40899,17301
40727,17301
40719,17300
40710,17299
40702,17297
40694,17294
40686,17291
40679,17286
40672,17281
40666,17276
40660,17269
40655,17262
40651,17255
40648,17248
40645,17240
40643,17231
40641,17223
40641,17215
40641,17013
40641,17004
40643,16996
40645,16988
40648,16980
40651,16972
40655,16965
40660,16958
40666,16952
40672,16946
40679,16941
40686,16937
40694,16933
40702,16930
40710,16928
40719,16927
40727,16927
40899,16927
40908,16927
Z" /> 
<path style="fill:#FF080E; fill-opacity:1.0; 
stroke:#FF080E; stroke-width:0; stroke-opacity:1; 
stroke-linecap:round; stroke-linejoin:round;fill-rule:evenodd;"
d="M 40288,16927
40296,16928
40304,16930
40312,16933
40320,16937
40327,16941
40334,16946
40340,16952
40346,16958
40351,16965
40355,16972
40359,16980
40362,16988
40364,16996
40365,17004
40365,17013
40365,17215
40365,17223
40364,17231
40362,17240
40359,17248
40355,17255
40351,17262
40346,17269
40340,17276
40334,17281
40327,17286
40320,17291
40312,17294
40304,17297
40296,17299
40288,17300
40279,17301
40107,17301
40099,17300
40090,17299
40082,17297
40074,17294
40066,17291
40059,17286
40052,17281
40046,17276
40040,17269
40035,17262
40031,17255
40027,17248
40025,17240
40023,17231
40021,17223
40021,17215
40021,17013
40021,17004
40023,16996
40025,16988
40027,16980
40031,16972
40035,16965
40040,16958
40046,16952
40052,16946
40059,16941
40066,16937
40074,16933
40082,16930
40090,16928
40099,16927
40107,16927
40279,16927
40288,16927
Z" /> 
</g>
<g >
<path style="fill:#FF080E; fill-opacity:1.0; 
stroke:#FF080E; stroke-width:0; stroke-opacity:1; 
stroke-linecap:round; stroke-linejoin:round;fill-rule:evenodd;"
d="M 40140,15549
40148,15550
40157,15553
40165,15555
40172,15559
40179,15563
40186,15568
40192,15574
40198,15580
40203,15587
40208,15594
40211,15602
40214,15610
40216,15618
40217,15626
40218,15635
40218,15837
40217,15845
40216,15854
40214,15862
40211,15870
40208,15877
40203,15885
40198,15891
40192,15898
40186,15903
40179,15908
40172,15913
40165,15916
40157,15919
40148,15921
40140,15922
40132,15923
39959,15923
39951,15922
39943,15921
39934,15919
39926,15916
39919,15913
39912,15908
39905,15903
39898,15898
39893,15891
39888,15885
39883,15877
39880,15870
39877,15862
39875,15854
39874,15845
39873,15837
39873,15635
39874,15626
39875,15618
39877,15610
39880,15602
39883,15594
39888,15587
39893,15580
39898,15574
39905,15568
39912,15563
39919,15559
39926,15555
39934,15553
39943,15550
39951,15549
39959,15549
40132,15549
40140,15549
Z" /> 
<path style="fill:#FF080E; fill-opacity:1.0; 
stroke:#FF080E; stroke-width:0; stroke-opacity:1; 
stroke-linecap:round; stroke-linejoin:round;fill-rule:evenodd;"
d="M 39520,15549
39528,15550
39537,15553
39544,15555
39552,15559
39559,15563
39566,15568
39572,15574
39578,15580
39583,15587
39587,15594
39591,15602
39594,15610
39596,15618
39597,15626
39598,15635
39598,15837
39597,15845
39596,15854
39594,15862
39591,15870
39587,15877
39583,15885
39578,15891
39572,15898
39566,15903
39559,15908
39552,15913
39544,15916
39537,15919
39528,15921
39520,15922
39512,15923
39339,15923
39331,15922
39322,15921
39314,15919
39306,15916
39299,15913
39291,15908
39285,15903
39278,15898
39273,15891
39268,15885
39263,15877
39260,15870
39257,15862
39255,15854
39254,15845
39253,15837
39253,15635
39254,15626
39255,15618
39257,15610
39260,15602
39263,15594
39268,15587
39273,15580
39278,15574
39285,15568
39291,15563
39299,15559
39306,15555
39314,15553
39322,15550
39331,15549
39339,15549
39512,15549
39520,15549
Z" /> 
</g>
<g >
</g>
<g >
</g>
<g >
</g>
<g >
</g>
<g >
</g>
<g >
</g>
<g >
</g>
<g >
</g>
<g >
</g>
<g >
</g>
<g >
</g>
<g >
</g>
<g >
<path style="fill:#FF080E; fill-opacity:1.0; 
stroke:#FF080E; stroke-width:0; stroke-opacity:1; 
stroke-linecap:round; stroke-linejoin:round;fill-rule:evenodd;"
d="M 39751,13401
39751,13283
40302,13283
40302,13401
39751,13401
Z" /> 
<path style="fill:#FF080E; fill-opacity:1.0; 
stroke:#FF080E; stroke-width:0; stroke-opacity:1; 
stroke-linecap:round; stroke-linejoin:round;fill-rule:evenodd;"
d="M 39751,13598
39751,13480
40302,13480
40302,13598
39751,13598
Z" /> 
<path style="fill:#FF080E; fill-opacity:1.0; 
stroke:#FF080E; stroke-width:0; stroke-opacity:1; 
stroke-linecap:round; stroke-linejoin:round;fill-rule:evenodd;"
d="M 39751,13795
39751,13677
40302,13677
40302,13795
39751,13795
Z" /> 
<path style="fill:#FF080E; fill-opacity:1.0; 
stroke:#FF080E; stroke-width:0; stroke-opacity:1; 
stroke-linecap:round; stroke-linejoin:round;fill-rule:evenodd;"
d="M 39751,13992
39751,13874
40302,13874
40302,13992
39751,13992
Z" /> 
<path style="fill:#FF080E; fill-opacity:1.0; 
stroke:#FF080E; stroke-width:0; stroke-opacity:1; 
stroke-linecap:round; stroke-linejoin:round;fill-rule:evenodd;"
d="M 39751,14189
39751,14070
40302,14070
40302,14189
39751,14189
Z" /> 
<path style="fill:#FF080E; fill-opacity:1.0; 
stroke:#FF080E; stroke-width:0; stroke-opacity:1; 
stroke-linecap:round; stroke-linejoin:round;fill-rule:evenodd;"
d="M 38019,14189
38019,14070
38570,14070
38570,14189
38019,14189
Z" /> 
<path style="fill:#FF080E; fill-opacity:1.0; 
stroke:#FF080E; stroke-width:0; stroke-opacity:1; 
stroke-linecap:round; stroke-linejoin:round;fill-rule:evenodd;"
d="M 38019,13992
38019,13874
38570,13874
38570,13992
38019,13992
Z" /> 
<path style="fill:#FF080E; fill-opacity:1.0; 
stroke:#FF080E; stroke-width:0; stroke-opacity:1; 
stroke-linecap:round; stroke-linejoin:round;fill-rule:evenodd;"
d="M 38019,13795
38019,13677
38570,13677
38570,13795
38019,13795
Z" /> 
<path style="fill:#FF080E; fill-opacity:1.0; 
stroke:#FF080E; stroke-width:0; stroke-opacity:1; 
stroke-linecap:round; stroke-linejoin:round;fill-rule:evenodd;"
d="M 38019,13598
38019,13480
38570,13480
38570,13598
38019,13598
Z" /> 
<path style="fill:#FF080E; fill-opacity:1.0; 
stroke:#FF080E; stroke-width:0; stroke-opacity:1; 
stroke-linecap:round; stroke-linejoin:round;fill-rule:evenodd;"
d="M 38019,13401
38019,13283
38570,13283
38570,13401
38019,13401
Z" /> 
</g>
<g >
<path style="fill:#FF080E; fill-opacity:1.0; 
stroke:#FF080E; stroke-width:0; stroke-opacity:1; 
stroke-linecap:round; stroke-linejoin:round;fill-rule:evenodd;"
d="M 37958,14567
37967,14568
37977,14571
37986,14574
37994,14578
38003,14583
38010,14589
38018,14595
38024,14603
38030,14610
38035,14619
38039,14627
38042,14636
38045,14646
38046,14655
38046,14665
38046,14921
38046,14931
38045,14940
38042,14949
38039,14959
38035,14967
38030,14976
38024,14983
38018,14990
38010,14997
38003,15003
37994,15008
37986,15012
37977,15015
37967,15017
37958,15019
37948,15019
37594,15019
37584,15019
37575,15017
37565,15015
37556,15012
37547,15008
37539,15003
37531,14997
37524,14990
37518,14983
37512,14976
37507,14967
37503,14959
37500,14949
37497,14940
37496,14931
37495,14921
37495,14665
37496,14655
37497,14646
37500,14636
37503,14627
37507,14619
37512,14610
37518,14603
37524,14595
37531,14589
37539,14583
37547,14578
37556,14574
37565,14571
37575,14568
37584,14567
37594,14567
37948,14567
37958,14567
Z" /> 
<path style="fill:#FF080E; fill-opacity:1.0; 
stroke:#FF080E; stroke-width:0; stroke-opacity:1; 
stroke-linecap:round; stroke-linejoin:round;fill-rule:evenodd;"
d="M 37958,15374
37967,15376
37977,15378
37986,15381
37994,15385
38003,15390
38010,15396
38018,15402
38024,15410
38030,15417
38035,15426
38039,15434
38042,15443
38045,15453
38046,15462
38046,15472
38046,15728
38046,15738
38045,15747
38042,15757
38039,15766
38035,15774
38030,15783
38024,15790
38018,15798
38010,15804
38003,15810
37994,15815
37986,15819
37977,15822
37967,15824
37958,15826
37948,15826
37594,15826
37584,15826
37575,15824
37565,15822
37556,15819
37547,15815
37539,15810
37531,15804
37524,15798
37518,15790
37512,15783
37507,15774
37503,15766
37500,15757
37497,15747
37496,15738
37495,15728
37495,15472
37496,15462
37497,15453
37500,15443
37503,15434
37507,15426
37512,15417
37518,15410
37524,15402
37531,15396
37539,15390
37547,15385
37556,15381
37565,15378
37575,15376
37584,15374
37594,15374
37948,15374
37958,15374
Z" /> 
</g>
<g >
<path style="fill:#FF080E; fill-opacity:1.0; 
stroke:#FF080E; stroke-width:0; stroke-opacity:1; 
stroke-linecap:round; stroke-linejoin:round;fill-rule:evenodd;"
d="M 37206,14713
37215,14714
37225,14716
37234,14720
37242,14724
37251,14729
37259,14735
37266,14741
37272,14748
37278,14756
37283,14764
37287,14773
37290,14782
37293,14791
37294,14801
37294,14811
37294,15067
37294,15076
37293,15086
37290,15095
37287,15104
37283,15113
37278,15121
37272,15129
37266,15136
37259,15143
37251,15148
37242,15153
37234,15157
37225,15161
37215,15163
37206,15164
37196,15165
36842,15165
36832,15164
36823,15163
36813,15161
36804,15157
36795,15153
36787,15148
36779,15143
36772,15136
36766,15129
36760,15121
36755,15113
36751,15104
36748,15095
36745,15086
36744,15076
36743,15067
36743,14811
36744,14801
36745,14791
36748,14782
36751,14773
36755,14764
36760,14756
36766,14748
36772,14741
36779,14735
36787,14729
36795,14724
36804,14720
36813,14716
36823,14714
36832,14713
36842,14712
37196,14712
37206,14713
Z" /> 
<path style="fill:#FF080E; fill-opacity:1.0; 
stroke:#FF080E; stroke-width:0; stroke-opacity:1; 
stroke-linecap:round; stroke-linejoin:round;fill-rule:evenodd;"
d="M 37206,15520
37215,15521
37225,15524
37234,15527
37242,15531
37251,15536
37259,15542
37266,15548
37272,15555
37278,15563
37283,15571
37287,15580
37290,15589
37293,15599
37294,15608
37294,15618
37294,15874
37294,15883
37293,15893
37290,15902
37287,15911
37283,15920
37278,15928
37272,15936
37266,15943
37259,15950
37251,15955
37242,15960
37234,15965
37225,15968
37215,15970
37206,15972
37196,15972
36842,15972
36832,15972
36823,15970
36813,15968
36804,15965
36795,15960
36787,15955
36779,15950
36772,15943
36766,15936
36760,15928
36755,15920
36751,15911
36748,15902
36745,15893
36744,15883
36743,15874
36743,15618
36744,15608
36745,15599
36748,15589
36751,15580
36755,15571
36760,15563
36766,15555
36772,15548
36779,15542
36787,15536
36795,15531
36804,15527
36813,15524
36823,15521
36832,15520
36842,15519
37196,15519
37206,15520
Z" /> 
</g>
<g >
<path style="fill:#FF080E; fill-opacity:1.0; 
stroke:#FF080E; stroke-width:0; stroke-opacity:1; 
stroke-linecap:round; stroke-linejoin:round;fill-rule:evenodd;"
d="M 37125,11645
37125,11960
36377,11960
36377,11645
37125,11645
Z" /> 
<path style="fill:#FF080E; fill-opacity:1.0; 
stroke:#FF080E; stroke-width:0; stroke-opacity:1; 
stroke-linecap:round; stroke-linejoin:round;fill-rule:evenodd;"
d="M 37125,10897
37125,11212
36377,11212
36377,10897
37125,10897
Z" /> 
<path style="fill:#FF080E; fill-opacity:1.0; 
stroke:#FF080E; stroke-width:0; stroke-opacity:1; 
stroke-linecap:round; stroke-linejoin:round;fill-rule:evenodd;"
d="M 35944,11271
35944,11586
35196,11586
35196,11271
35944,11271
Z" /> 
</g>
<g >
<path style="fill:#FF080E; fill-opacity:1.0; 
stroke:#FF080E; stroke-width:0; stroke-opacity:1; 
stroke-linecap:round; stroke-linejoin:round;fill-rule:evenodd;"
d="M 37401,13543
37401,13858
36653,13858
36653,13543
37401,13543
Z" /> 
<path style="fill:#FF080E; fill-opacity:1.0; 
stroke:#FF080E; stroke-width:0; stroke-opacity:1; 
stroke-linecap:round; stroke-linejoin:round;fill-rule:evenodd;"
d="M 37401,12795
37401,13110
36653,13110
36653,12795
37401,12795
Z" /> 
<path style="fill:#FF080E; fill-opacity:1.0; 
stroke:#FF080E; stroke-width:0; stroke-opacity:1; 
stroke-linecap:round; stroke-linejoin:round;fill-rule:evenodd;"
d="M 36220,13169
36220,13484
35472,13484
35472,13169
36220,13169
Z" /> 
</g>
<g >
</g>
<g >
<path style="fill:#FF080E; fill-opacity:1.0; 
stroke:#FF080E; stroke-width:0; stroke-opacity:1; 
stroke-linecap:round; stroke-linejoin:round;fill-rule:evenodd;"
d="M 38574,15032
38583,15033
38592,15035
38601,15038
38609,15042
38617,15047
38624,15052
38631,15058
38637,15065
38643,15073
38648,15081
38652,15089
38655,15097
38657,15106
38658,15115
38659,15125
38659,15351
38658,15360
38657,15369
38655,15378
38652,15387
38648,15395
38643,15403
38637,15410
38631,15417
38624,15423
38617,15429
38609,15433
38601,15437
38592,15440
38583,15443
38574,15444
38565,15444
38378,15444
38369,15444
38360,15443
38351,15440
38342,15437
38334,15433
38326,15429
38319,15423
38312,15417
38306,15410
38300,15403
38296,15395
38292,15387
38289,15378
38286,15369
38285,15360
38285,15351
38285,15125
38285,15115
38286,15106
38289,15097
38292,15089
38296,15081
38300,15073
38306,15065
38312,15058
38319,15052
38326,15047
38334,15042
38342,15038
38351,15035
38360,15033
38369,15032
38378,15031
38565,15031
38574,15032
Z" /> 
<path style="fill:#FF080E; fill-opacity:1.0; 
stroke:#FF080E; stroke-width:0; stroke-opacity:1; 
stroke-linecap:round; stroke-linejoin:round;fill-rule:evenodd;"
d="M 38574,15721
38583,15722
38592,15724
38601,15727
38609,15731
38617,15736
38624,15741
38631,15747
38637,15754
38643,15762
38648,15769
38652,15778
38655,15786
38657,15795
38658,15804
38659,15814
38659,16040
38658,16049
38657,16058
38655,16067
38652,16076
38648,16084
38643,16092
38637,16099
38631,16106
38624,16112
38617,16118
38609,16122
38601,16126
38592,16129
38583,16132
38574,16133
38565,16133
38378,16133
38369,16133
38360,16132
38351,16129
38342,16126
38334,16122
38326,16118
38319,16112
38312,16106
38306,16099
38300,16092
38296,16084
38292,16076
38289,16067
38286,16058
38285,16049
38285,16040
38285,15814
38285,15804
38286,15795
38289,15786
38292,15778
38296,15769
38300,15762
38306,15754
38312,15747
38319,15741
38326,15736
38334,15731
38342,15727
38351,15724
38360,15722
38369,15721
38378,15720
38565,15720
38574,15721
Z" /> 
</g>
<g >
</g>
<g >
</g>
<g >
</g>
</g>
<g style="fill:#000000; fill-opacity:1.0; 
stroke:#000000; stroke-width:0; stroke-opacity:1; 
stroke-linecap:round; stroke-linejoin:round;">
</g>
<g style="fill:#C2C200; fill-opacity:1.0; 
stroke:#C2C200; stroke-width:0; stroke-opacity:1; 
stroke-linecap:round; stroke-linejoin:round;">
</g>
<g style="fill:#C2C200; fill-opacity:1.0; 
stroke:#C2C200; stroke-width:59.0551; stroke-opacity:1; 
stroke-linecap:round; stroke-linejoin:round;">
</g>
<g style="fill:#C2C200; fill-opacity:0.0; 
stroke:#C2C200; stroke-width:59.0551; stroke-opacity:1; 
stroke-linecap:round; stroke-linejoin:round;">
<path d="M24070 21366
L50070 21366
" />
<path d="M51070 6466
L50070 5466
" />
<path d="M51070 19366
L51070 6466
" />
<path d="M50070 966
L49470 366
" />
<path d="M50070 20366
L51070 19366
" />
<path d="M50070 21366
L50070 20366
" />
<path d="M50070 5466
L50070 966
" />
<path d="M24070 366
L24070 21366
" />
<path d="M49470 366
L24070 366
" />
<g >
</g>
<g >
</g>
<g >
</g>
<g >
</g>
<g >
</g>
<g >
</g>
<g >
</g>
<g >
</g>
<g >
</g>
<g >
</g>
<g >
</g>
<g >
</g>
<g >
</g>
<g >
</g>
<g >
</g>
<g >
</g>
<g >
</g>
<g >
</g>
<g >
</g>
<g >
</g>
<g >
</g>
<g >
</g>
<g >
</g>
<g >
</g>
<g >
</g>
<g >
</g>
<g >
</g>
<g >
</g>
<g >
</g>
<g >
</g>
<g >
</g>
<g >
</g>
<g >
</g>
<g >
</g>
<g >
</g>
<g >
</g>
<g >
</g>
<g >
</g>
<g >
</g>
<g >
</g>
<g >
</g>
<g >
</g>
<g >
</g>
<g >
</g>
<g >
</g>
<g >
</g>
<g >
</g>
<g >
</g>
<g >
</g>
<g >
</g>
<g >
</g>
<g >
</g>
<g >
</g>
<g >
</g>
<g >
</g>
<g >
</g>
<g >
</g>
<g >
</g>
<g >
</g>
<g >
</g>
<g >
</g>
<g >
</g>
<g >
</g>
<g >
</g>
<g >
</g>
<g >
</g>
<g >
</g>
<g >
</g>
<g >
</g>
</g> 
</svg>
