<?xml version="1.0" standalone="no"?>
 <!DOCTYPE svg PUBLIC "-//W3C//DTD SVG 1.1//EN" 
 "http://www.w3.org/Graphics/SVG/1.1/DTD/svg11.dtd"> 
<svg xmlns="http://www.w3.org/2000/svg" version="1.1" 
    width="13.8303cm" height="6.04774cm" viewBox="0 0 54450 23810 ">
<title>SVG Picture created as uno shield v.6 project SMD-F_Paste.svg date 2019/07/21 14:03:06 </title>
  <desc>Picture generated by PCBNEW </desc>
<g style="fill:#000000; fill-opacity:1;stroke:#000000; stroke-opacity:1;
stroke-linecap:round; stroke-linejoin:round; "
 transform="translate(0 0) scale(1 1)">
</g>
<g style="fill:#000000; fill-opacity:0.0; 
stroke:#000000; stroke-width:-0.000393701; stroke-opacity:1; 
stroke-linecap:round; stroke-linejoin:round;">
</g>
<g style="fill:#26FF16; fill-opacity:0.0; 
stroke:#26FF16; stroke-width:-0.000393701; stroke-opacity:1; 
stroke-linecap:round; stroke-linejoin:round;">
</g>
<g style="fill:#26FF16; fill-opacity:0.0; 
stroke:#26FF16; stroke-width:0.393701; stroke-opacity:1; 
stroke-linecap:round; stroke-linejoin:round;">
<path d="M41011 15157
L40906 15157
" />
<path d="M40906 15157
L40906 15070
" />
<path d="M41011 15070
L41011 15157
" />
<path d="M40906 15070
L41011 15070
" />
</g>
<g style="fill:#26FF16; fill-opacity:1.0; 
stroke:#26FF16; stroke-width:0.393701; stroke-opacity:1; 
stroke-linecap:round; stroke-linejoin:round;">
<path style="fill:#26FF16; fill-opacity:1.0; 
stroke:#26FF16; stroke-width:0.393701; stroke-opacity:1; 
stroke-linecap:round; stroke-linejoin:round;fill-rule:evenodd;"
d="M 39361,17230
39361,16734
39133,16734
39133,17230
Z" /> 
<g >
</g>
<g style="fill:#FF080E; fill-opacity:1.0; 
stroke:#FF080E; stroke-width:0.393701; stroke-opacity:1; 
stroke-linecap:round; stroke-linejoin:round;">
</g>
<g style="fill:#FF080E; fill-opacity:1.0; 
stroke:#FF080E; stroke-width:0; stroke-opacity:1; 
stroke-linecap:round; stroke-linejoin:round;">
<path style="fill:#FF080E; fill-opacity:1.0; 
stroke:#FF080E; stroke-width:0; stroke-opacity:1; 
stroke-linecap:round; stroke-linejoin:round;fill-rule:evenodd;"
d="M 39022,17222
39022,17340
38682,17340
38682,17222
39022,17222
Z" /> 
<path style="fill:#FF080E; fill-opacity:1.0; 
stroke:#FF080E; stroke-width:0; stroke-opacity:1; 
stroke-linecap:round; stroke-linejoin:round;fill-rule:evenodd;"
d="M 39008,17025
39008,17143
38668,17143
38668,17025
39008,17025
Z" /> 
<path style="fill:#FF080E; fill-opacity:1.0; 
stroke:#FF080E; stroke-width:0; stroke-opacity:1; 
stroke-linecap:round; stroke-linejoin:round;fill-rule:evenodd;"
d="M 39008,16828
39008,16946
38668,16946
38668,16828
39008,16828
Z" /> 
<path style="fill:#FF080E; fill-opacity:1.0; 
stroke:#FF080E; stroke-width:0; stroke-opacity:1; 
stroke-linecap:round; stroke-linejoin:round;fill-rule:evenodd;"
d="M 39022,16631
39022,16750
38682,16750
38682,16631
39022,16631
Z" /> 
<path style="fill:#FF080E; fill-opacity:1.0; 
stroke:#FF080E; stroke-width:0; stroke-opacity:1; 
stroke-linecap:round; stroke-linejoin:round;fill-rule:evenodd;"
d="M 39812,16631
39812,16750
39472,16750
39472,16631
39812,16631
Z" /> 
<path style="fill:#FF080E; fill-opacity:1.0; 
stroke:#FF080E; stroke-width:0; stroke-opacity:1; 
stroke-linecap:round; stroke-linejoin:round;fill-rule:evenodd;"
d="M 39827,16828
39827,16946
39487,16946
39487,16828
39827,16828
Z" /> 
<path style="fill:#FF080E; fill-opacity:1.0; 
stroke:#FF080E; stroke-width:0; stroke-opacity:1; 
stroke-linecap:round; stroke-linejoin:round;fill-rule:evenodd;"
d="M 39827,17025
39827,17143
39487,17143
39487,17025
39827,17025
Z" /> 
<path style="fill:#FF080E; fill-opacity:1.0; 
stroke:#FF080E; stroke-width:0; stroke-opacity:1; 
stroke-linecap:round; stroke-linejoin:round;fill-rule:evenodd;"
d="M 39812,17222
39812,17340
39472,17340
39472,17222
39812,17222
Z" /> 
</g>
<g >
<path style="fill:#FF080E; fill-opacity:1.0; 
stroke:#FF080E; stroke-width:0; stroke-opacity:1; 
stroke-linecap:round; stroke-linejoin:round;fill-rule:evenodd;"
d="M 39109,12885
39109,12767
39661,12767
39661,12885
39109,12885
Z" /> 
<path style="fill:#FF080E; fill-opacity:1.0; 
stroke:#FF080E; stroke-width:0; stroke-opacity:1; 
stroke-linecap:round; stroke-linejoin:round;fill-rule:evenodd;"
d="M 39109,13082
39109,12964
39661,12964
39661,13082
39109,13082
Z" /> 
<path style="fill:#FF080E; fill-opacity:1.0; 
stroke:#FF080E; stroke-width:0; stroke-opacity:1; 
stroke-linecap:round; stroke-linejoin:round;fill-rule:evenodd;"
d="M 39109,13279
39109,13161
39661,13161
39661,13279
39109,13279
Z" /> 
<path style="fill:#FF080E; fill-opacity:1.0; 
stroke:#FF080E; stroke-width:0; stroke-opacity:1; 
stroke-linecap:round; stroke-linejoin:round;fill-rule:evenodd;"
d="M 39109,13476
39109,13358
39661,13358
39661,13476
39109,13476
Z" /> 
<path style="fill:#FF080E; fill-opacity:1.0; 
stroke:#FF080E; stroke-width:0; stroke-opacity:1; 
stroke-linecap:round; stroke-linejoin:round;fill-rule:evenodd;"
d="M 39109,13673
39109,13555
39661,13555
39661,13673
39109,13673
Z" /> 
<path style="fill:#FF080E; fill-opacity:1.0; 
stroke:#FF080E; stroke-width:0; stroke-opacity:1; 
stroke-linecap:round; stroke-linejoin:round;fill-rule:evenodd;"
d="M 37377,13673
37377,13555
37928,13555
37928,13673
37377,13673
Z" /> 
<path style="fill:#FF080E; fill-opacity:1.0; 
stroke:#FF080E; stroke-width:0; stroke-opacity:1; 
stroke-linecap:round; stroke-linejoin:round;fill-rule:evenodd;"
d="M 37377,13476
37377,13358
37928,13358
37928,13476
37377,13476
Z" /> 
<path style="fill:#FF080E; fill-opacity:1.0; 
stroke:#FF080E; stroke-width:0; stroke-opacity:1; 
stroke-linecap:round; stroke-linejoin:round;fill-rule:evenodd;"
d="M 37377,13279
37377,13161
37928,13161
37928,13279
37377,13279
Z" /> 
<path style="fill:#FF080E; fill-opacity:1.0; 
stroke:#FF080E; stroke-width:0; stroke-opacity:1; 
stroke-linecap:round; stroke-linejoin:round;fill-rule:evenodd;"
d="M 37377,13082
37377,12964
37928,12964
37928,13082
37377,13082
Z" /> 
<path style="fill:#FF080E; fill-opacity:1.0; 
stroke:#FF080E; stroke-width:0; stroke-opacity:1; 
stroke-linecap:round; stroke-linejoin:round;fill-rule:evenodd;"
d="M 37377,12885
37377,12767
37928,12767
37928,12885
37377,12885
Z" /> 
</g>
<g >
<path style="fill:#FF080E; fill-opacity:1.0; 
stroke:#FF080E; stroke-width:0; stroke-opacity:1; 
stroke-linecap:round; stroke-linejoin:round;fill-rule:evenodd;"
d="M 44826,10578
44826,10696
44275,10696
44275,10578
44826,10578
Z" /> 
<path style="fill:#FF080E; fill-opacity:1.0; 
stroke:#FF080E; stroke-width:0; stroke-opacity:1; 
stroke-linecap:round; stroke-linejoin:round;fill-rule:evenodd;"
d="M 44826,10381
44826,10500
44275,10500
44275,10381
44826,10381
Z" /> 
<path style="fill:#FF080E; fill-opacity:1.0; 
stroke:#FF080E; stroke-width:0; stroke-opacity:1; 
stroke-linecap:round; stroke-linejoin:round;fill-rule:evenodd;"
d="M 44826,10185
44826,10303
44275,10303
44275,10185
44826,10185
Z" /> 
<path style="fill:#FF080E; fill-opacity:1.0; 
stroke:#FF080E; stroke-width:0; stroke-opacity:1; 
stroke-linecap:round; stroke-linejoin:round;fill-rule:evenodd;"
d="M 44826,9988
44826,10106
44275,10106
44275,9988
44826,9988
Z" /> 
<path style="fill:#FF080E; fill-opacity:1.0; 
stroke:#FF080E; stroke-width:0; stroke-opacity:1; 
stroke-linecap:round; stroke-linejoin:round;fill-rule:evenodd;"
d="M 44826,9791
44826,9909
44275,9909
44275,9791
44826,9791
Z" /> 
<path style="fill:#FF080E; fill-opacity:1.0; 
stroke:#FF080E; stroke-width:0; stroke-opacity:1; 
stroke-linecap:round; stroke-linejoin:round;fill-rule:evenodd;"
d="M 46558,9791
46558,9909
46007,9909
46007,9791
46558,9791
Z" /> 
<path style="fill:#FF080E; fill-opacity:1.0; 
stroke:#FF080E; stroke-width:0; stroke-opacity:1; 
stroke-linecap:round; stroke-linejoin:round;fill-rule:evenodd;"
d="M 46558,9988
46558,10106
46007,10106
46007,9988
46558,9988
Z" /> 
<path style="fill:#FF080E; fill-opacity:1.0; 
stroke:#FF080E; stroke-width:0; stroke-opacity:1; 
stroke-linecap:round; stroke-linejoin:round;fill-rule:evenodd;"
d="M 46558,10185
46558,10303
46007,10303
46007,10185
46558,10185
Z" /> 
<path style="fill:#FF080E; fill-opacity:1.0; 
stroke:#FF080E; stroke-width:0; stroke-opacity:1; 
stroke-linecap:round; stroke-linejoin:round;fill-rule:evenodd;"
d="M 46558,10381
46558,10500
46007,10500
46007,10381
46558,10381
Z" /> 
<path style="fill:#FF080E; fill-opacity:1.0; 
stroke:#FF080E; stroke-width:0; stroke-opacity:1; 
stroke-linecap:round; stroke-linejoin:round;fill-rule:evenodd;"
d="M 46558,10578
46558,10696
46007,10696
46007,10578
46558,10578
Z" /> 
</g>
<g >
</g>
<g >
</g>
<g >
</g>
<g >
</g>
<g >
<path style="fill:#FF080E; fill-opacity:1.0; 
stroke:#FF080E; stroke-width:0; stroke-opacity:1; 
stroke-linecap:round; stroke-linejoin:round;fill-rule:evenodd;"
d="M 41791,8154
41800,8155
41809,8157
41817,8160
41826,8164
41834,8169
41841,8174
41848,8181
41854,8187
41859,8195
41864,8203
41868,8211
41871,8219
41873,8228
41875,8237
41875,8247
41875,8473
41875,8482
41873,8491
41871,8500
41868,8509
41864,8517
41859,8525
41854,8532
41848,8539
41841,8545
41834,8551
41826,8555
41817,8559
41809,8562
41800,8565
41791,8566
41782,8567
41595,8567
41586,8566
41576,8565
41568,8562
41559,8559
41551,8555
41543,8551
41535,8545
41529,8539
41522,8532
41517,8525
41512,8517
41508,8509
41505,8500
41503,8491
41502,8482
41501,8473
41501,8247
41502,8237
41503,8228
41505,8219
41508,8211
41512,8203
41517,8195
41522,8187
41529,8181
41535,8174
41543,8169
41551,8164
41559,8160
41568,8157
41576,8155
41586,8154
41595,8153
41782,8153
41791,8154
Z" /> 
<path style="fill:#FF080E; fill-opacity:1.0; 
stroke:#FF080E; stroke-width:0; stroke-opacity:1; 
stroke-linecap:round; stroke-linejoin:round;fill-rule:evenodd;"
d="M 41791,8843
41800,8844
41809,8846
41817,8849
41826,8853
41834,8858
41841,8863
41848,8870
41854,8876
41859,8884
41864,8892
41868,8900
41871,8908
41873,8917
41875,8926
41875,8936
41875,9162
41875,9171
41873,9180
41871,9189
41868,9198
41864,9206
41859,9214
41854,9221
41848,9228
41841,9234
41834,9240
41826,9244
41817,9248
41809,9251
41800,9254
41791,9255
41782,9255
41595,9255
41586,9255
41576,9254
41568,9251
41559,9248
41551,9244
41543,9240
41535,9234
41529,9228
41522,9221
41517,9214
41512,9206
41508,9198
41505,9189
41503,9180
41502,9171
41501,9162
41501,8936
41502,8926
41503,8917
41505,8908
41508,8900
41512,8892
41517,8884
41522,8876
41529,8870
41535,8863
41543,8858
41551,8853
41559,8849
41568,8846
41576,8844
41586,8843
41595,8842
41782,8842
41791,8843
Z" /> 
</g>
<g >
</g>
<g >
<path style="fill:#FF080E; fill-opacity:1.0; 
stroke:#FF080E; stroke-width:0; stroke-opacity:1; 
stroke-linecap:round; stroke-linejoin:round;fill-rule:evenodd;"
d="M 43818,7953
43827,7954
43836,7956
43845,7959
43853,7963
43861,7968
43869,7974
43875,7980
43882,7987
43887,7994
43892,8002
43896,8010
43899,8019
43901,8028
43902,8037
43903,8046
43903,8272
43902,8281
43901,8290
43899,8299
43896,8308
43892,8316
43887,8324
43882,8332
43875,8338
43869,8345
43861,8350
43853,8355
43845,8359
43836,8362
43827,8364
43818,8365
43809,8366
43622,8366
43613,8365
43604,8364
43595,8362
43586,8359
43578,8355
43570,8350
43563,8345
43556,8338
43550,8332
43545,8324
43540,8316
43536,8308
43533,8299
43531,8290
43529,8281
43529,8272
43529,8046
43529,8037
43531,8028
43533,8019
43536,8010
43540,8002
43545,7994
43550,7987
43556,7980
43563,7974
43570,7968
43578,7963
43586,7959
43595,7956
43604,7954
43613,7953
43622,7952
43809,7952
43818,7953
Z" /> 
<path style="fill:#FF080E; fill-opacity:1.0; 
stroke:#FF080E; stroke-width:0; stroke-opacity:1; 
stroke-linecap:round; stroke-linejoin:round;fill-rule:evenodd;"
d="M 43818,7264
43827,7265
43836,7267
43845,7270
43853,7274
43861,7279
43869,7285
43875,7291
43882,7298
43887,7305
43892,7313
43896,7321
43899,7330
43901,7339
43902,7348
43903,7357
43903,7583
43902,7592
43901,7601
43899,7610
43896,7619
43892,7627
43887,7635
43882,7643
43875,7649
43869,7656
43861,7661
43853,7666
43845,7670
43836,7673
43827,7675
43818,7676
43809,7677
43622,7677
43613,7676
43604,7675
43595,7673
43586,7670
43578,7666
43570,7661
43563,7656
43556,7649
43550,7643
43545,7635
43540,7627
43536,7619
43533,7610
43531,7601
43529,7592
43529,7583
43529,7357
43529,7348
43531,7339
43533,7330
43536,7321
43540,7313
43545,7305
43550,7298
43556,7291
43563,7285
43570,7279
43578,7274
43586,7270
43595,7267
43604,7265
43613,7264
43622,7263
43809,7263
43818,7264
Z" /> 
</g>
<g >
</g>
<g >
<path style="fill:#FF080E; fill-opacity:1.0; 
stroke:#FF080E; stroke-width:0; stroke-opacity:1; 
stroke-linecap:round; stroke-linejoin:round;fill-rule:evenodd;"
d="M 44027,11047
44027,17818
43633,17818
43633,11047
44027,11047
Z" /> 
<path style="fill:#FF080E; fill-opacity:1.0; 
stroke:#FF080E; stroke-width:0; stroke-opacity:1; 
stroke-linecap:round; stroke-linejoin:round;fill-rule:evenodd;"
d="M 33436,11047
33436,17818
33043,17818
33043,11047
33436,11047
Z" /> 
<path style="fill:#FF080E; fill-opacity:1.0; 
stroke:#FF080E; stroke-width:0; stroke-opacity:1; 
stroke-linecap:round; stroke-linejoin:round;fill-rule:evenodd;"
d="M 33263,17623
33282,17626
33301,17631
33318,17638
33336,17647
33352,17657
33367,17669
33381,17682
33394,17696
33405,17712
33415,17729
33423,17746
33429,17765
33433,17783
33436,17802
33436,17815
33436,17816
33438,17866
33443,17907
33453,17947
33466,17986
33483,18023
33504,18059
33528,18092
33555,18123
33585,18152
33618,18177
33653,18198
33690,18217
33728,18231
33768,18242
33808,18249
33852,18252
43203,18252
43248,18250
43289,18244
43329,18235
43368,18222
43405,18205
43441,18184
43474,18160
43505,18133
43533,18103
43558,18070
43580,18035
43598,17998
43613,17960
43623,17920
43630,17879
43634,17829
43634,17826
43636,17807
43641,17788
43647,17770
43655,17752
43664,17736
43675,17720
43688,17706
43702,17692
43717,17681
43734,17670
43751,17662
43769,17655
43787,17650
43806,17647
43825,17645
43845,17646
43864,17648
43883,17652
43901,17658
43918,17666
43935,17676
43951,17687
43965,17699
43979,17713
43991,17728
44001,17745
44010,17762
44017,17780
44022,17798
44025,17817
44027,17836
44026,17855
44022,17916
44022,17916
44022,17916
44022,17918
44021,17927
44020,17935
44010,17994
44010,17997
44008,18005
44006,18013
43990,18072
43989,18074
43987,18082
43984,18090
43963,18146
43963,18146
43963,18146
43962,18149
43959,18156
43955,18164
43929,18218
43927,18221
43923,18228
43919,18235
43887,18286
43886,18289
43881,18295
43876,18302
43840,18350
43838,18352
43832,18358
43827,18365
43786,18409
43784,18411
43778,18416
43772,18422
43727,18462
43727,18462
43727,18462
43725,18464
43718,18469
43712,18474
43663,18509
43660,18511
43653,18515
43646,18520
43594,18550
43592,18551
43584,18555
43577,18559
43522,18584
43522,18584
43522,18584
43520,18585
43512,18588
43504,18591
43447,18610
43447,18610
43447,18610
43444,18611
43437,18614
43429,18616
43370,18630
43370,18630
43367,18630
43359,18632
43351,18633
43291,18641
43291,18641
43291,18641
43288,18642
43280,18642
43272,18643
43220,18645
43220,18645
43209,18645
43209,18645
43208,18645
43203,18645
43201,18645
43198,18645
33850,18645
33850,18645
33832,18645
33772,18641
33772,18641
33772,18641
33769,18641
33761,18639
33753,18638
33693,18629
33691,18628
33683,18626
33675,18624
33616,18609
33616,18609
33616,18609
33614,18608
33606,18605
33598,18603
33541,18581
33541,18581
33541,18581
33539,18580
33531,18577
33524,18574
33470,18547
33467,18546
33460,18542
33453,18538
33402,18506
33399,18504
33393,18499
33386,18495
33338,18458
33336,18456
33329,18451
33323,18446
33279,18404
33277,18402
33271,18396
33266,18391
33226,18345
33226,18345
33226,18345
33224,18343
33219,18337
33214,18330
33179,18281
33177,18279
33173,18272
33168,18265
33138,18213
33136,18210
33133,18203
33129,18196
33104,18141
33103,18138
33100,18130
33097,18123
33077,18066
33076,18063
33074,18055
33072,18047
33058,17988
33057,17986
33056,17978
33055,17969
33046,17910
33046,17910
33046,17910
33046,17907
33046,17899
33045,17890
33043,17830
33043,17827
33043,17824
33042,17820
33043,17815
33043,17813
33044,17794
33047,17775
33053,17756
33060,17738
33068,17721
33079,17705
33091,17690
33104,17676
33118,17663
33134,17652
33151,17643
33168,17635
33187,17629
33206,17625
33225,17622
33244,17622
33263,17623
Z" /> 
<path style="fill:#FF080E; fill-opacity:1.0; 
stroke:#FF080E; stroke-width:0; stroke-opacity:1; 
stroke-linecap:round; stroke-linejoin:round;fill-rule:evenodd;"
d="M 33871,10220
43220,10220
43220,10220
43237,10221
43297,10225
43297,10225
43300,10225
43308,10226
43316,10227
43376,10237
43376,10237
43376,10237
43379,10237
43387,10239
43395,10241
43453,10257
43453,10257
43453,10257
43456,10257
43463,10260
43471,10263
43528,10284
43528,10284
43528,10284
43530,10285
43538,10288
43545,10292
43600,10318
43600,10318
43600,10318
43602,10320
43609,10324
43616,10328
43668,10360
43668,10360
43668,10360
43670,10361
43677,10366
43684,10371
43731,10407
43734,10409
43740,10414
43746,10420
43790,10461
43792,10463
43798,10469
43804,10475
43843,10520
43845,10522
43850,10529
43855,10535
43891,10584
43892,10587
43897,10594
43901,10600
43931,10653
43931,10653
43931,10653
43933,10655
43936,10662
43940,10670
43965,10725
43966,10727
43969,10735
43972,10743
43992,10800
43993,10802
43995,10810
43997,10818
44011,10877
44012,10880
44013,10888
44015,10896
44023,10956
44023,10956
44023,10956
44023,10958
44024,10967
44024,10975
44027,11035
44027,11038
44027,11042
44027,11046
44027,11050
44027,11053
44025,11072
44022,11091
44017,11109
44010,11127
44001,11144
43991,11161
43979,11176
43965,11190
43951,11202
43935,11213
43918,11223
43901,11230
43883,11237
43864,11241
43845,11243
43825,11244
43806,11242
43787,11239
43769,11234
43751,11227
43734,11219
43717,11208
43702,11197
43688,11183
43675,11169
43664,11153
43655,11137
43647,11119
43641,11101
43636,11082
43634,11063
43633,11050
43633,11050
43631,10999
43626,10958
43616,10918
43603,10879
43586,10842
43565,10806
43541,10773
43514,10742
43484,10714
43452,10689
43417,10667
43380,10649
43341,10634
43301,10624
43261,10617
43217,10614
33867,10614
33821,10615
33781,10621
33741,10630
33702,10644
33664,10661
33629,10681
33595,10705
33564,10733
33536,10763
33511,10795
33489,10830
33471,10867
33457,10906
33446,10945
33439,10986
33436,11037
33436,11039
33433,11058
33429,11077
33423,11095
33415,11113
33405,11130
33394,11145
33381,11160
33367,11173
33352,11185
33336,11195
33319,11203
33301,11210
33282,11215
33263,11219
33244,11220
33225,11220
33206,11217
33187,11213
33169,11207
33151,11199
33134,11190
33118,11179
33104,11166
33091,11152
33079,11137
33068,11121
33060,11104
33053,11086
33047,11067
33044,11048
33043,11029
33043,11010
33047,10950
33047,10947
33048,10939
33049,10930
33059,10871
33059,10871
33059,10871
33060,10868
33062,10860
33063,10852
33079,10794
33079,10794
33079,10794
33080,10791
33082,10783
33085,10776
33106,10719
33106,10719
33106,10719
33107,10716
33111,10709
33114,10701
33141,10647
33141,10647
33141,10647
33142,10645
33146,10638
33150,10630
33182,10579
33184,10577
33188,10570
33193,10563
33230,10515
33231,10513
33237,10507
33242,10501
33283,10457
33285,10455
33291,10449
33297,10443
33343,10403
33345,10402
33351,10397
33358,10391
33407,10356
33407,10356
33407,10356
33409,10355
33416,10350
33423,10346
33475,10315
33475,10315
33475,10315
33478,10314
33485,10310
33492,10307
33547,10282
33547,10282
33547,10282
33550,10280
33557,10277
33565,10274
33622,10255
33622,10255
33622,10255
33625,10254
33633,10252
33641,10250
33699,10236
33699,10236
33702,10235
33710,10234
33718,10232
33778,10224
33778,10224
33778,10224
33781,10224
33789,10223
33797,10222
33850,10220
33850,10220
33860,10220
33860,10220
33861,10220
33867,10220
33868,10220
33871,10220
Z" /> 
</g>
<g >
</g>
<g >
</g>
<g >
</g>
<g >
</g>
<g >
</g>
<g >
</g>
<g >
</g>
<g >
</g>
<g >
<path style="fill:#FF080E; fill-opacity:1.0; 
stroke:#FF080E; stroke-width:0; stroke-opacity:1; 
stroke-linecap:round; stroke-linejoin:round;fill-rule:evenodd;"
d="M 40728,15638
40737,15639
40746,15641
40754,15645
40763,15648
40771,15653
40778,15659
40785,15665
40791,15672
40796,15679
40801,15687
40805,15695
40808,15704
40810,15713
40812,15722
40812,15731
40812,15957
40812,15966
40810,15976
40808,15984
40805,15993
40801,16001
40796,16009
40791,16017
40785,16023
40778,16030
40771,16035
40763,16040
40754,16044
40746,16047
40737,16049
40728,16050
40719,16051
40532,16051
40523,16050
40513,16049
40505,16047
40496,16044
40488,16040
40480,16035
40472,16030
40466,16023
40459,16017
40454,16009
40449,16001
40445,15993
40442,15984
40440,15976
40439,15966
40438,15957
40438,15731
40439,15722
40440,15713
40442,15704
40445,15695
40449,15687
40454,15679
40459,15672
40466,15665
40472,15659
40480,15653
40488,15648
40496,15645
40505,15641
40513,15639
40523,15638
40532,15637
40719,15637
40728,15638
Z" /> 
<path style="fill:#FF080E; fill-opacity:1.0; 
stroke:#FF080E; stroke-width:0; stroke-opacity:1; 
stroke-linecap:round; stroke-linejoin:round;fill-rule:evenodd;"
d="M 40728,14949
40737,14950
40746,14952
40754,14956
40763,14959
40771,14964
40778,14970
40785,14976
40791,14983
40796,14990
40801,14998
40805,15006
40808,15015
40810,15024
40812,15033
40812,15042
40812,15268
40812,15277
40810,15287
40808,15295
40805,15304
40801,15312
40796,15320
40791,15328
40785,15334
40778,15341
40771,15346
40763,15351
40754,15355
40746,15358
40737,15360
40728,15361
40719,15362
40532,15362
40523,15361
40513,15360
40505,15358
40496,15355
40488,15351
40480,15346
40472,15341
40466,15334
40459,15328
40454,15320
40449,15312
40445,15304
40442,15295
40440,15287
40439,15277
40438,15268
40438,15042
40439,15033
40440,15024
40442,15015
40445,15006
40449,14998
40454,14990
40459,14983
40466,14976
40472,14970
40480,14964
40488,14959
40496,14956
40505,14952
40513,14950
40523,14949
40532,14948
40719,14948
40728,14949
Z" /> 
</g>
<g >
<path style="fill:#FF080E; fill-opacity:1.0; 
stroke:#FF080E; stroke-width:0; stroke-opacity:1; 
stroke-linecap:round; stroke-linejoin:round;fill-rule:evenodd;"
d="M 30216,3267
30216,3582
29468,3582
29468,3267
30216,3267
Z" /> 
<path style="fill:#FF080E; fill-opacity:1.0; 
stroke:#FF080E; stroke-width:0; stroke-opacity:1; 
stroke-linecap:round; stroke-linejoin:round;fill-rule:evenodd;"
d="M 30216,2519
30216,2834
29468,2834
29468,2519
30216,2519
Z" /> 
<path style="fill:#FF080E; fill-opacity:1.0; 
stroke:#FF080E; stroke-width:0; stroke-opacity:1; 
stroke-linecap:round; stroke-linejoin:round;fill-rule:evenodd;"
d="M 29035,2893
29035,3208
28287,3208
28287,2893
29035,2893
Z" /> 
</g>
<g >
<path style="fill:#FF080E; fill-opacity:1.0; 
stroke:#FF080E; stroke-width:0; stroke-opacity:1; 
stroke-linecap:round; stroke-linejoin:round;fill-rule:evenodd;"
d="M 30216,4657
30216,4972
29468,4972
29468,4657
30216,4657
Z" /> 
<path style="fill:#FF080E; fill-opacity:1.0; 
stroke:#FF080E; stroke-width:0; stroke-opacity:1; 
stroke-linecap:round; stroke-linejoin:round;fill-rule:evenodd;"
d="M 30216,3909
30216,4224
29468,4224
29468,3909
30216,3909
Z" /> 
<path style="fill:#FF080E; fill-opacity:1.0; 
stroke:#FF080E; stroke-width:0; stroke-opacity:1; 
stroke-linecap:round; stroke-linejoin:round;fill-rule:evenodd;"
d="M 29035,4283
29035,4598
28287,4598
28287,4283
29035,4283
Z" /> 
</g>
<g >
<path style="fill:#FF080E; fill-opacity:1.0; 
stroke:#FF080E; stroke-width:0; stroke-opacity:1; 
stroke-linecap:round; stroke-linejoin:round;fill-rule:evenodd;"
d="M 28287,5602
28287,5287
29035,5287
29035,5602
28287,5602
Z" /> 
<path style="fill:#FF080E; fill-opacity:1.0; 
stroke:#FF080E; stroke-width:0; stroke-opacity:1; 
stroke-linecap:round; stroke-linejoin:round;fill-rule:evenodd;"
d="M 28287,6350
28287,6035
29035,6035
29035,6350
28287,6350
Z" /> 
<path style="fill:#FF080E; fill-opacity:1.0; 
stroke:#FF080E; stroke-width:0; stroke-opacity:1; 
stroke-linecap:round; stroke-linejoin:round;fill-rule:evenodd;"
d="M 29468,5976
29468,5661
30216,5661
30216,5976
29468,5976
Z" /> 
</g>
<g >
<path style="fill:#FF080E; fill-opacity:1.0; 
stroke:#FF080E; stroke-width:0; stroke-opacity:1; 
stroke-linecap:round; stroke-linejoin:round;fill-rule:evenodd;"
d="M 34015,4106
34015,4421
33267,4421
33267,4106
34015,4106
Z" /> 
<path style="fill:#FF080E; fill-opacity:1.0; 
stroke:#FF080E; stroke-width:0; stroke-opacity:1; 
stroke-linecap:round; stroke-linejoin:round;fill-rule:evenodd;"
d="M 34015,3358
34015,3673
33267,3673
33267,3358
34015,3358
Z" /> 
<path style="fill:#FF080E; fill-opacity:1.0; 
stroke:#FF080E; stroke-width:0; stroke-opacity:1; 
stroke-linecap:round; stroke-linejoin:round;fill-rule:evenodd;"
d="M 32834,3732
32834,4047
32086,4047
32086,3732
32834,3732
Z" /> 
</g>
<g >
<path style="fill:#FF080E; fill-opacity:1.0; 
stroke:#FF080E; stroke-width:0; stroke-opacity:1; 
stroke-linecap:round; stroke-linejoin:round;fill-rule:evenodd;"
d="M 34027,5515
34027,5830
33279,5830
33279,5515
34027,5515
Z" /> 
<path style="fill:#FF080E; fill-opacity:1.0; 
stroke:#FF080E; stroke-width:0; stroke-opacity:1; 
stroke-linecap:round; stroke-linejoin:round;fill-rule:evenodd;"
d="M 34027,4767
34027,5082
33279,5082
33279,4767
34027,4767
Z" /> 
<path style="fill:#FF080E; fill-opacity:1.0; 
stroke:#FF080E; stroke-width:0; stroke-opacity:1; 
stroke-linecap:round; stroke-linejoin:round;fill-rule:evenodd;"
d="M 32846,5141
32846,5456
32098,5456
32098,5141
32846,5141
Z" /> 
</g>
<g >
</g>
<g >
</g>
<g >
</g>
<g >
</g>
<g >
<path style="fill:#FF080E; fill-opacity:1.0; 
stroke:#FF080E; stroke-width:0; stroke-opacity:1; 
stroke-linecap:round; stroke-linejoin:round;fill-rule:evenodd;"
d="M 26516,5376
26524,5377
26533,5379
26541,5382
26548,5386
26555,5390
26562,5395
26568,5401
26574,5407
26579,5414
26584,5421
26587,5429
26590,5437
26592,5445
26593,5453
26594,5462
26594,5663
26593,5672
26592,5680
26590,5688
26587,5696
26584,5704
26579,5711
26574,5718
26568,5724
26562,5730
26555,5735
26548,5739
26541,5743
26533,5746
26524,5748
26516,5749
26508,5750
26335,5750
26327,5749
26319,5748
26310,5746
26302,5743
26295,5739
26287,5735
26281,5730
26274,5724
26269,5718
26264,5711
26259,5704
26256,5696
26253,5688
26251,5680
26250,5672
26249,5663
26249,5462
26250,5453
26251,5445
26253,5437
26256,5429
26259,5421
26264,5414
26269,5407
26274,5401
26281,5395
26287,5390
26295,5386
26302,5382
26310,5379
26319,5377
26327,5376
26335,5376
26508,5376
26516,5376
Z" /> 
<path style="fill:#FF080E; fill-opacity:1.0; 
stroke:#FF080E; stroke-width:0; stroke-opacity:1; 
stroke-linecap:round; stroke-linejoin:round;fill-rule:evenodd;"
d="M 27136,5376
27144,5377
27153,5379
27161,5382
27168,5386
27176,5390
27182,5395
27189,5401
27194,5407
27199,5414
27204,5421
27207,5429
27210,5437
27212,5445
27213,5453
27214,5462
27214,5663
27213,5672
27212,5680
27210,5688
27207,5696
27204,5704
27199,5711
27194,5718
27189,5724
27182,5730
27176,5735
27168,5739
27161,5743
27153,5746
27144,5748
27136,5749
27128,5750
26955,5750
26947,5749
26939,5748
26930,5746
26922,5743
26915,5739
26908,5735
26901,5730
26895,5724
26889,5718
26884,5711
26879,5704
26876,5696
26873,5688
26871,5680
26870,5672
26869,5663
26869,5462
26870,5453
26871,5445
26873,5437
26876,5429
26879,5421
26884,5414
26889,5407
26895,5401
26901,5395
26908,5390
26915,5386
26922,5382
26930,5379
26939,5377
26947,5376
26955,5376
27128,5376
27136,5376
Z" /> 
</g>
<g >
<path style="fill:#FF080E; fill-opacity:1.0; 
stroke:#FF080E; stroke-width:0; stroke-opacity:1; 
stroke-linecap:round; stroke-linejoin:round;fill-rule:evenodd;"
d="M 27069,2144
27078,2145
27086,2147
27094,2150
27101,2153
27109,2158
27115,2163
27122,2169
27127,2175
27132,2182
27137,2189
27140,2196
27143,2204
27145,2213
27146,2221
27147,2229
27147,2402
27146,2410
27145,2418
27143,2427
27140,2435
27137,2442
27132,2450
27127,2456
27122,2463
27115,2468
27109,2473
27101,2478
27094,2481
27086,2484
27078,2486
27069,2487
27061,2488
26859,2488
26851,2487
26842,2486
26834,2484
26826,2481
26818,2478
26811,2473
26804,2468
26798,2463
26792,2456
26787,2450
26783,2442
26779,2435
26777,2427
26774,2418
26773,2410
26773,2402
26773,2229
26773,2221
26774,2213
26777,2204
26779,2196
26783,2189
26787,2182
26792,2175
26798,2169
26804,2163
26811,2158
26818,2153
26826,2150
26834,2147
26842,2145
26851,2144
26859,2143
27061,2143
27069,2144
Z" /> 
<path style="fill:#FF080E; fill-opacity:1.0; 
stroke:#FF080E; stroke-width:0; stroke-opacity:1; 
stroke-linecap:round; stroke-linejoin:round;fill-rule:evenodd;"
d="M 27069,2764
27078,2765
27086,2767
27094,2770
27101,2774
27109,2778
27115,2783
27122,2789
27127,2795
27132,2802
27137,2809
27140,2817
27143,2824
27145,2833
27146,2841
27147,2849
27147,3022
27146,3030
27145,3039
27143,3047
27140,3055
27137,3062
27132,3070
27127,3076
27122,3083
27115,3088
27109,3093
27101,3098
27094,3101
27086,3104
27078,3106
27069,3107
27061,3108
26859,3108
26851,3107
26842,3106
26834,3104
26826,3101
26818,3098
26811,3093
26804,3088
26798,3083
26792,3076
26787,3070
26783,3062
26779,3055
26777,3047
26774,3039
26773,3030
26773,3022
26773,2849
26773,2841
26774,2833
26777,2824
26779,2817
26783,2809
26787,2802
26792,2795
26798,2789
26804,2783
26811,2778
26818,2774
26826,2770
26834,2767
26842,2765
26851,2764
26859,2763
27061,2763
27069,2764
Z" /> 
</g>
<g >
</g>
<g >
</g>
<g >
<path style="fill:#FF080E; fill-opacity:1.0; 
stroke:#FF080E; stroke-width:0; stroke-opacity:1; 
stroke-linecap:round; stroke-linejoin:round;fill-rule:evenodd;"
d="M 33927,13251
33936,13252
33944,13254
33952,13257
33960,13261
33967,13265
33974,13270
33980,13276
33986,13282
33991,13289
33995,13296
33999,13304
34001,13312
34003,13320
34005,13328
34005,13337
34005,13509
34005,13517
34003,13526
34001,13534
33999,13542
33995,13550
33991,13557
33986,13564
33980,13570
33974,13576
33967,13581
33960,13585
33952,13589
33944,13591
33936,13593
33927,13595
33919,13595
33717,13595
33709,13595
33700,13593
33692,13591
33684,13589
33677,13585
33669,13581
33663,13576
33656,13570
33651,13564
33646,13557
33641,13550
33638,13542
33635,13534
33633,13526
33632,13517
33631,13509
33631,13337
33632,13328
33633,13320
33635,13312
33638,13304
33641,13296
33646,13289
33651,13282
33656,13276
33663,13270
33669,13265
33677,13261
33684,13257
33692,13254
33700,13252
33709,13251
33717,13251
33919,13251
33927,13251
Z" /> 
<path style="fill:#FF080E; fill-opacity:1.0; 
stroke:#FF080E; stroke-width:0; stroke-opacity:1; 
stroke-linecap:round; stroke-linejoin:round;fill-rule:evenodd;"
d="M 33927,13871
33936,13872
33944,13874
33952,13877
33960,13881
33967,13885
33974,13890
33980,13896
33986,13902
33991,13909
33995,13916
33999,13924
34001,13932
34003,13940
34005,13948
34005,13957
34005,14129
34005,14137
34003,14146
34001,14154
33999,14162
33995,14170
33991,14177
33986,14184
33980,14190
33974,14196
33967,14201
33960,14205
33952,14209
33944,14211
33936,14213
33927,14215
33919,14215
33717,14215
33709,14215
33700,14213
33692,14211
33684,14209
33677,14205
33669,14201
33663,14196
33656,14190
33651,14184
33646,14177
33641,14170
33638,14162
33635,14154
33633,14146
33632,14137
33631,14129
33631,13957
33632,13948
33633,13940
33635,13932
33638,13924
33641,13916
33646,13909
33651,13902
33656,13896
33663,13890
33669,13885
33677,13881
33684,13877
33692,13874
33700,13872
33709,13871
33717,13871
33919,13871
33927,13871
Z" /> 
</g>
<g >
</g>
<g >
</g>
<g >
</g>
<g >
</g>
<g >
</g>
<g >
<path style="fill:#FF080E; fill-opacity:1.0; 
stroke:#FF080E; stroke-width:0; stroke-opacity:1; 
stroke-linecap:round; stroke-linejoin:round;fill-rule:evenodd;"
d="M 39244,11537
39253,11539
39261,11541
39269,11544
39277,11547
39284,11552
39291,11557
39297,11562
39303,11568
39308,11575
39312,11583
39315,11590
39318,11598
39320,11606
39322,11615
39322,11623
39322,11825
39322,11833
39320,11842
39318,11850
39315,11858
39312,11865
39308,11873
39303,11880
39297,11886
39291,11891
39284,11896
39277,11901
39269,11904
39261,11907
39253,11909
39244,11911
39236,11911
39064,11911
39055,11911
39047,11909
39039,11907
39031,11904
39023,11901
39016,11896
39009,11891
39003,11886
38997,11880
38992,11873
38988,11865
38984,11858
38981,11850
38979,11842
38978,11833
38978,11825
38978,11623
38978,11615
38979,11606
38981,11598
38984,11590
38988,11583
38992,11575
38997,11568
39003,11562
39009,11557
39016,11552
39023,11547
39031,11544
39039,11541
39047,11539
39055,11537
39064,11537
39236,11537
39244,11537
Z" /> 
<path style="fill:#FF080E; fill-opacity:1.0; 
stroke:#FF080E; stroke-width:0; stroke-opacity:1; 
stroke-linecap:round; stroke-linejoin:round;fill-rule:evenodd;"
d="M 39864,11537
39873,11539
39881,11541
39889,11544
39897,11547
39904,11552
39911,11557
39917,11562
39923,11568
39928,11575
39932,11583
39936,11590
39938,11598
39940,11606
39942,11615
39942,11623
39942,11825
39942,11833
39940,11842
39938,11850
39936,11858
39932,11865
39928,11873
39923,11880
39917,11886
39911,11891
39904,11896
39897,11901
39889,11904
39881,11907
39873,11909
39864,11911
39856,11911
39684,11911
39675,11911
39667,11909
39659,11907
39651,11904
39643,11901
39636,11896
39629,11891
39623,11886
39617,11880
39612,11873
39608,11865
39604,11858
39601,11850
39599,11842
39598,11833
39598,11825
39598,11623
39598,11615
39599,11606
39601,11598
39604,11590
39608,11583
39612,11575
39617,11568
39623,11562
39629,11557
39636,11552
39643,11547
39651,11544
39659,11541
39667,11539
39675,11537
39684,11537
39856,11537
39864,11537
Z" /> 
</g>
<g >
</g>
<g >
<path style="fill:#FF080E; fill-opacity:1.0; 
stroke:#FF080E; stroke-width:0; stroke-opacity:1; 
stroke-linecap:round; stroke-linejoin:round;fill-rule:evenodd;"
d="M 43013,14734
43249,14734
43249,15344
43013,15344
43013,14734
Z" /> 
<path style="fill:#FF080E; fill-opacity:1.0; 
stroke:#FF080E; stroke-width:0; stroke-opacity:1; 
stroke-linecap:round; stroke-linejoin:round;fill-rule:evenodd;"
d="M 42513,14734
42749,14734
42749,15344
42513,15344
42513,14734
Z" /> 
<path style="fill:#FF080E; fill-opacity:1.0; 
stroke:#FF080E; stroke-width:0; stroke-opacity:1; 
stroke-linecap:round; stroke-linejoin:round;fill-rule:evenodd;"
d="M 42013,14734
42249,14734
42249,15344
42013,15344
42013,14734
Z" /> 
<path style="fill:#FF080E; fill-opacity:1.0; 
stroke:#FF080E; stroke-width:0; stroke-opacity:1; 
stroke-linecap:round; stroke-linejoin:round;fill-rule:evenodd;"
d="M 41513,14734
41749,14734
41749,15344
41513,15344
41513,14734
Z" /> 
<path style="fill:#FF080E; fill-opacity:1.0; 
stroke:#FF080E; stroke-width:0; stroke-opacity:1; 
stroke-linecap:round; stroke-linejoin:round;fill-rule:evenodd;"
d="M 41513,16860
41749,16860
41749,17470
41513,17470
41513,16860
Z" /> 
<path style="fill:#FF080E; fill-opacity:1.0; 
stroke:#FF080E; stroke-width:0; stroke-opacity:1; 
stroke-linecap:round; stroke-linejoin:round;fill-rule:evenodd;"
d="M 42013,16860
42249,16860
42249,17470
42013,17470
42013,16860
Z" /> 
<path style="fill:#FF080E; fill-opacity:1.0; 
stroke:#FF080E; stroke-width:0; stroke-opacity:1; 
stroke-linecap:round; stroke-linejoin:round;fill-rule:evenodd;"
d="M 42513,16860
42749,16860
42749,17470
42513,17470
42513,16860
Z" /> 
<path style="fill:#FF080E; fill-opacity:1.0; 
stroke:#FF080E; stroke-width:0; stroke-opacity:1; 
stroke-linecap:round; stroke-linejoin:round;fill-rule:evenodd;"
d="M 43013,16860
43249,16860
43249,17470
43013,17470
43013,16860
Z" /> 
</g>
<g >
<path style="fill:#FF080E; fill-opacity:1.0; 
stroke:#FF080E; stroke-width:0; stroke-opacity:1; 
stroke-linecap:round; stroke-linejoin:round;fill-rule:evenodd;"
d="M 42694,11576
42930,11576
42930,12187
42694,12187
42694,11576
Z" /> 
<path style="fill:#FF080E; fill-opacity:1.0; 
stroke:#FF080E; stroke-width:0; stroke-opacity:1; 
stroke-linecap:round; stroke-linejoin:round;fill-rule:evenodd;"
d="M 42194,11576
42430,11576
42430,12187
42194,12187
42194,11576
Z" /> 
<path style="fill:#FF080E; fill-opacity:1.0; 
stroke:#FF080E; stroke-width:0; stroke-opacity:1; 
stroke-linecap:round; stroke-linejoin:round;fill-rule:evenodd;"
d="M 41694,11576
41930,11576
41930,12187
41694,12187
41694,11576
Z" /> 
<path style="fill:#FF080E; fill-opacity:1.0; 
stroke:#FF080E; stroke-width:0; stroke-opacity:1; 
stroke-linecap:round; stroke-linejoin:round;fill-rule:evenodd;"
d="M 41194,11576
41430,11576
41430,12187
41194,12187
41194,11576
Z" /> 
<path style="fill:#FF080E; fill-opacity:1.0; 
stroke:#FF080E; stroke-width:0; stroke-opacity:1; 
stroke-linecap:round; stroke-linejoin:round;fill-rule:evenodd;"
d="M 41194,13702
41430,13702
41430,14313
41194,14313
41194,13702
Z" /> 
<path style="fill:#FF080E; fill-opacity:1.0; 
stroke:#FF080E; stroke-width:0; stroke-opacity:1; 
stroke-linecap:round; stroke-linejoin:round;fill-rule:evenodd;"
d="M 41694,13702
41930,13702
41930,14313
41694,14313
41694,13702
Z" /> 
<path style="fill:#FF080E; fill-opacity:1.0; 
stroke:#FF080E; stroke-width:0; stroke-opacity:1; 
stroke-linecap:round; stroke-linejoin:round;fill-rule:evenodd;"
d="M 42194,13702
42430,13702
42430,14313
42194,14313
42194,13702
Z" /> 
<path style="fill:#FF080E; fill-opacity:1.0; 
stroke:#FF080E; stroke-width:0; stroke-opacity:1; 
stroke-linecap:round; stroke-linejoin:round;fill-rule:evenodd;"
d="M 42694,13702
42930,13702
42930,14313
42694,14313
42694,13702
Z" /> 
</g>
<g >
</g>
<g >
<path style="fill:#FF080E; fill-opacity:1.0; 
stroke:#FF080E; stroke-width:0; stroke-opacity:1; 
stroke-linecap:round; stroke-linejoin:round;fill-rule:evenodd;"
d="M 34285,16232
34285,16468
33674,16468
33674,16232
34285,16232
Z" /> 
<path style="fill:#FF080E; fill-opacity:1.0; 
stroke:#FF080E; stroke-width:0; stroke-opacity:1; 
stroke-linecap:round; stroke-linejoin:round;fill-rule:evenodd;"
d="M 34285,15732
34285,15968
33674,15968
33674,15732
34285,15732
Z" /> 
<path style="fill:#FF080E; fill-opacity:1.0; 
stroke:#FF080E; stroke-width:0; stroke-opacity:1; 
stroke-linecap:round; stroke-linejoin:round;fill-rule:evenodd;"
d="M 34285,15232
34285,15468
33674,15468
33674,15232
34285,15232
Z" /> 
<path style="fill:#FF080E; fill-opacity:1.0; 
stroke:#FF080E; stroke-width:0; stroke-opacity:1; 
stroke-linecap:round; stroke-linejoin:round;fill-rule:evenodd;"
d="M 34285,14732
34285,14968
33674,14968
33674,14732
34285,14732
Z" /> 
<path style="fill:#FF080E; fill-opacity:1.0; 
stroke:#FF080E; stroke-width:0; stroke-opacity:1; 
stroke-linecap:round; stroke-linejoin:round;fill-rule:evenodd;"
d="M 36411,14732
36411,14968
35800,14968
35800,14732
36411,14732
Z" /> 
<path style="fill:#FF080E; fill-opacity:1.0; 
stroke:#FF080E; stroke-width:0; stroke-opacity:1; 
stroke-linecap:round; stroke-linejoin:round;fill-rule:evenodd;"
d="M 36411,15232
36411,15468
35800,15468
35800,15232
36411,15232
Z" /> 
<path style="fill:#FF080E; fill-opacity:1.0; 
stroke:#FF080E; stroke-width:0; stroke-opacity:1; 
stroke-linecap:round; stroke-linejoin:round;fill-rule:evenodd;"
d="M 36411,15732
36411,15968
35800,15968
35800,15732
36411,15732
Z" /> 
<path style="fill:#FF080E; fill-opacity:1.0; 
stroke:#FF080E; stroke-width:0; stroke-opacity:1; 
stroke-linecap:round; stroke-linejoin:round;fill-rule:evenodd;"
d="M 36411,16232
36411,16468
35800,16468
35800,16232
36411,16232
Z" /> 
</g>
<g >
</g>
<g >
</g>
<g >
<path style="fill:#FF080E; fill-opacity:1.0; 
stroke:#FF080E; stroke-width:0; stroke-opacity:1; 
stroke-linecap:round; stroke-linejoin:round;fill-rule:evenodd;"
d="M 35059,17549
35068,17550
35076,17553
35084,17555
35091,17559
35099,17563
35106,17568
35112,17574
35117,17580
35122,17587
35127,17594
35130,17602
35133,17610
35135,17618
35137,17626
35137,17635
35137,17837
35137,17845
35135,17854
35133,17862
35130,17870
35127,17877
35122,17885
35117,17891
35112,17898
35106,17903
35099,17908
35091,17913
35084,17916
35076,17919
35068,17921
35059,17922
35051,17923
34879,17923
34870,17922
34862,17921
34854,17919
34846,17916
34838,17913
34831,17908
34824,17903
34818,17898
34812,17891
34807,17885
34803,17877
34799,17870
34796,17862
34794,17854
34793,17845
34793,17837
34793,17635
34793,17626
34794,17618
34796,17610
34799,17602
34803,17594
34807,17587
34812,17580
34818,17574
34824,17568
34831,17563
34838,17559
34846,17555
34854,17553
34862,17550
34870,17549
34879,17549
35051,17549
35059,17549
Z" /> 
<path style="fill:#FF080E; fill-opacity:1.0; 
stroke:#FF080E; stroke-width:0; stroke-opacity:1; 
stroke-linecap:round; stroke-linejoin:round;fill-rule:evenodd;"
d="M 35679,17549
35688,17550
35696,17553
35704,17555
35712,17559
35719,17563
35726,17568
35732,17574
35738,17580
35743,17587
35747,17594
35751,17602
35753,17610
35755,17618
35757,17626
35757,17635
35757,17837
35757,17845
35755,17854
35753,17862
35751,17870
35747,17877
35743,17885
35738,17891
35732,17898
35726,17903
35719,17908
35712,17913
35704,17916
35696,17919
35688,17921
35679,17922
35671,17923
35499,17923
35490,17922
35482,17921
35474,17919
35466,17916
35458,17913
35451,17908
35444,17903
35438,17898
35432,17891
35427,17885
35423,17877
35419,17870
35416,17862
35414,17854
35413,17845
35413,17837
35413,17635
35413,17626
35414,17618
35416,17610
35419,17602
35423,17594
35427,17587
35432,17580
35438,17574
35444,17568
35451,17563
35458,17559
35466,17555
35474,17553
35482,17550
35490,17549
35499,17549
35671,17549
35679,17549
Z" /> 
</g>
<g >
<path style="fill:#FF080E; fill-opacity:1.0; 
stroke:#FF080E; stroke-width:0; stroke-opacity:1; 
stroke-linecap:round; stroke-linejoin:round;fill-rule:evenodd;"
d="M 40809,16254
40818,16255
40826,16257
40834,16260
40841,16264
40849,16268
40856,16273
40862,16279
40867,16285
40872,16292
40877,16299
40880,16307
40883,16315
40885,16323
40887,16331
40887,16340
40887,16512
40887,16520
40885,16529
40883,16537
40880,16545
40877,16552
40872,16560
40867,16567
40862,16573
40856,16578
40849,16584
40841,16588
40834,16591
40826,16594
40818,16596
40809,16598
40801,16598
40599,16598
40591,16598
40582,16596
40574,16594
40566,16591
40559,16588
40551,16584
40544,16578
40538,16573
40533,16567
40528,16560
40523,16552
40520,16545
40517,16537
40515,16529
40513,16520
40513,16512
40513,16340
40513,16331
40515,16323
40517,16315
40520,16307
40523,16299
40528,16292
40533,16285
40538,16279
40544,16273
40551,16268
40559,16264
40566,16260
40574,16257
40582,16255
40591,16254
40599,16254
40801,16254
40809,16254
Z" /> 
<path style="fill:#FF080E; fill-opacity:1.0; 
stroke:#FF080E; stroke-width:0; stroke-opacity:1; 
stroke-linecap:round; stroke-linejoin:round;fill-rule:evenodd;"
d="M 40809,16874
40818,16875
40826,16877
40834,16880
40841,16884
40849,16888
40856,16893
40862,16899
40867,16905
40872,16912
40877,16919
40880,16927
40883,16935
40885,16943
40887,16951
40887,16960
40887,17132
40887,17140
40885,17149
40883,17157
40880,17165
40877,17173
40872,17180
40867,17187
40862,17193
40856,17199
40849,17204
40841,17208
40834,17212
40826,17214
40818,17216
40809,17218
40801,17218
40599,17218
40591,17218
40582,17216
40574,17214
40566,17212
40559,17208
40551,17204
40544,17199
40538,17193
40533,17187
40528,17180
40523,17173
40520,17165
40517,17157
40515,17149
40513,17140
40513,17132
40513,16960
40513,16951
40515,16943
40517,16935
40520,16927
40523,16919
40528,16912
40533,16905
40538,16899
40544,16893
40551,16888
40559,16884
40566,16880
40574,16877
40582,16875
40591,16874
40599,16874
40801,16874
40809,16874
Z" /> 
</g>
<g >
<path style="fill:#FF080E; fill-opacity:1.0; 
stroke:#FF080E; stroke-width:0; stroke-opacity:1; 
stroke-linecap:round; stroke-linejoin:round;fill-rule:evenodd;"
d="M 39924,15362
39932,15363
39940,15366
39948,15368
39956,15372
39963,15376
39970,15381
39976,15387
39982,15393
39987,15400
39991,15407
39995,15415
39997,15423
40000,15431
40001,15439
40001,15448
40001,15620
40001,15629
40000,15637
39997,15645
39995,15653
39991,15661
39987,15668
39982,15675
39976,15681
39970,15687
39963,15692
39956,15696
39948,15700
39940,15703
39932,15705
39924,15706
39915,15706
39713,15706
39705,15706
39696,15705
39688,15703
39680,15700
39673,15696
39665,15692
39659,15687
39652,15681
39647,15675
39642,15668
39637,15661
39634,15653
39631,15645
39629,15637
39628,15629
39627,15620
39627,15448
39628,15439
39629,15431
39631,15423
39634,15415
39637,15407
39642,15400
39647,15393
39652,15387
39659,15381
39665,15376
39673,15372
39680,15368
39688,15366
39696,15363
39705,15362
39713,15362
39915,15362
39924,15362
Z" /> 
<path style="fill:#FF080E; fill-opacity:1.0; 
stroke:#FF080E; stroke-width:0; stroke-opacity:1; 
stroke-linecap:round; stroke-linejoin:round;fill-rule:evenodd;"
d="M 39924,14742
39932,14743
39940,14745
39948,14748
39956,14752
39963,14756
39970,14761
39976,14767
39982,14773
39987,14780
39991,14787
39995,14795
39997,14803
40000,14811
40001,14819
40001,14828
40001,15000
40001,15009
40000,15017
39997,15025
39995,15033
39991,15041
39987,15048
39982,15055
39976,15061
39970,15067
39963,15072
39956,15076
39948,15080
39940,15082
39932,15085
39924,15086
39915,15086
39713,15086
39705,15086
39696,15085
39688,15082
39680,15080
39673,15076
39665,15072
39659,15067
39652,15061
39647,15055
39642,15048
39637,15041
39634,15033
39631,15025
39629,15017
39628,15009
39627,15000
39627,14828
39628,14819
39629,14811
39631,14803
39634,14795
39637,14787
39642,14780
39647,14773
39652,14767
39659,14761
39665,14756
39673,14752
39680,14748
39688,14745
39696,14743
39705,14742
39713,14742
39915,14742
39924,14742
Z" /> 
</g>
<g >
</g>
<g >
</g>
<g >
</g>
<g >
</g>
<g >
</g>
<g >
</g>
<g >
</g>
<g >
</g>
<g >
</g>
<g >
</g>
<g >
</g>
<g >
</g>
<g >
<path style="fill:#FF080E; fill-opacity:1.0; 
stroke:#FF080E; stroke-width:0; stroke-opacity:1; 
stroke-linecap:round; stroke-linejoin:round;fill-rule:evenodd;"
d="M 38143,14602
38152,14604
38162,14606
38171,14609
38179,14614
38188,14619
38196,14624
38203,14631
38209,14638
38215,14646
38220,14654
38224,14663
38227,14672
38230,14681
38231,14691
38232,14700
38232,14956
38231,14966
38230,14975
38227,14985
38224,14994
38220,15003
38215,15011
38209,15019
38203,15026
38196,15032
38188,15038
38179,15043
38171,15047
38162,15050
38152,15053
38143,15054
38133,15055
37779,15055
37769,15054
37760,15053
37750,15050
37741,15047
37732,15043
37724,15038
37716,15032
37709,15026
37703,15019
37697,15011
37692,15003
37688,14994
37685,14985
37682,14975
37681,14966
37680,14956
37680,14700
37681,14691
37682,14681
37685,14672
37688,14663
37692,14654
37697,14646
37703,14638
37709,14631
37716,14624
37724,14619
37732,14614
37741,14609
37750,14606
37760,14604
37769,14602
37779,14602
38133,14602
38143,14602
Z" /> 
<path style="fill:#FF080E; fill-opacity:1.0; 
stroke:#FF080E; stroke-width:0; stroke-opacity:1; 
stroke-linecap:round; stroke-linejoin:round;fill-rule:evenodd;"
d="M 38143,15410
38152,15411
38162,15413
38171,15417
38179,15421
38188,15426
38196,15431
38203,15438
38209,15445
38215,15453
38220,15461
38224,15470
38227,15479
38230,15488
38231,15498
38232,15507
38232,15763
38231,15773
38230,15783
38227,15792
38224,15801
38220,15810
38215,15818
38209,15826
38203,15833
38196,15839
38188,15845
38179,15850
38171,15854
38162,15858
38152,15860
38143,15861
38133,15862
37779,15862
37769,15861
37760,15860
37750,15858
37741,15854
37732,15850
37724,15845
37716,15839
37709,15833
37703,15826
37697,15818
37692,15810
37688,15801
37685,15792
37682,15783
37681,15773
37680,15763
37680,15507
37681,15498
37682,15488
37685,15479
37688,15470
37692,15461
37697,15453
37703,15445
37709,15438
37716,15431
37724,15426
37732,15421
37741,15417
37750,15413
37760,15411
37769,15410
37779,15409
38133,15409
38143,15410
Z" /> 
</g>
<g >
<path style="fill:#FF080E; fill-opacity:1.0; 
stroke:#FF080E; stroke-width:0; stroke-opacity:1; 
stroke-linecap:round; stroke-linejoin:round;fill-rule:evenodd;"
d="M 37387,14236
37396,14238
37406,14240
37415,14243
37424,14247
37432,14252
37440,14258
37447,14265
37453,14272
37459,14280
37464,14288
37468,14297
37471,14306
37474,14315
37475,14325
37476,14334
37476,14590
37475,14600
37474,14609
37471,14619
37468,14628
37464,14637
37459,14645
37453,14653
37447,14660
37440,14666
37432,14672
37424,14677
37415,14681
37406,14684
37396,14687
37387,14688
37377,14689
37023,14689
37013,14688
37004,14687
36994,14684
36985,14681
36976,14677
36968,14672
36960,14666
36953,14660
36947,14653
36941,14645
36936,14637
36932,14628
36929,14619
36926,14609
36925,14600
36924,14590
36924,14334
36925,14325
36926,14315
36929,14306
36932,14297
36936,14288
36941,14280
36947,14272
36953,14265
36960,14258
36968,14252
36976,14247
36985,14243
36994,14240
37004,14238
37013,14236
37023,14236
37377,14236
37387,14236
Z" /> 
<path style="fill:#FF080E; fill-opacity:1.0; 
stroke:#FF080E; stroke-width:0; stroke-opacity:1; 
stroke-linecap:round; stroke-linejoin:round;fill-rule:evenodd;"
d="M 37395,15056
37405,15057
37414,15060
37423,15063
37431,15067
37440,15072
37447,15078
37454,15084
37461,15091
37466,15099
37471,15107
37475,15115
37479,15124
37481,15134
37482,15143
37483,15153
37483,15406
37482,15415
37481,15425
37479,15434
37475,15443
37471,15451
37466,15460
37461,15467
37454,15474
37447,15481
37440,15486
37431,15491
37423,15495
37414,15499
37405,15501
37395,15502
37386,15503
37029,15503
37019,15502
37010,15501
37000,15499
36991,15495
36983,15491
36975,15486
36967,15481
36960,15474
36954,15467
36948,15460
36943,15451
36939,15443
36936,15434
36933,15425
36932,15415
36932,15406
36932,15153
36932,15143
36933,15134
36936,15124
36939,15115
36943,15107
36948,15099
36954,15091
36960,15084
36967,15078
36975,15072
36983,15067
36991,15063
37000,15060
37010,15057
37019,15056
37029,15056
37386,15056
37395,15056
Z" /> 
</g>
<g >
<path style="fill:#FF080E; fill-opacity:1.0; 
stroke:#FF080E; stroke-width:0; stroke-opacity:1; 
stroke-linecap:round; stroke-linejoin:round;fill-rule:evenodd;"
d="M 36783,11645
36783,11960
36035,11960
36035,11645
36783,11645
Z" /> 
<path style="fill:#FF080E; fill-opacity:1.0; 
stroke:#FF080E; stroke-width:0; stroke-opacity:1; 
stroke-linecap:round; stroke-linejoin:round;fill-rule:evenodd;"
d="M 36783,10897
36783,11212
36035,11212
36035,10897
36783,10897
Z" /> 
<path style="fill:#FF080E; fill-opacity:1.0; 
stroke:#FF080E; stroke-width:0; stroke-opacity:1; 
stroke-linecap:round; stroke-linejoin:round;fill-rule:evenodd;"
d="M 35602,11271
35602,11586
34854,11586
34854,11271
35602,11271
Z" /> 
</g>
<g >
<path style="fill:#FF080E; fill-opacity:1.0; 
stroke:#FF080E; stroke-width:0; stroke-opacity:1; 
stroke-linecap:round; stroke-linejoin:round;fill-rule:evenodd;"
d="M 36720,13106
36720,13421
35972,13421
35972,13106
36720,13106
Z" /> 
<path style="fill:#FF080E; fill-opacity:1.0; 
stroke:#FF080E; stroke-width:0; stroke-opacity:1; 
stroke-linecap:round; stroke-linejoin:round;fill-rule:evenodd;"
d="M 36720,12358
36720,12673
35972,12673
35972,12358
36720,12358
Z" /> 
<path style="fill:#FF080E; fill-opacity:1.0; 
stroke:#FF080E; stroke-width:0; stroke-opacity:1; 
stroke-linecap:round; stroke-linejoin:round;fill-rule:evenodd;"
d="M 35539,12732
35539,13047
34791,13047
34791,12732
35539,12732
Z" /> 
</g>
<g >
</g>
<g >
<path style="fill:#FF080E; fill-opacity:1.0; 
stroke:#FF080E; stroke-width:0; stroke-opacity:1; 
stroke-linecap:round; stroke-linejoin:round;fill-rule:evenodd;"
d="M 38763,14606
38772,14608
38781,14610
38790,14613
38798,14617
38806,14622
38813,14627
38820,14633
38826,14640
38832,14647
38837,14655
38841,14664
38844,14672
38846,14681
38847,14690
38848,14699
38848,14926
38847,14935
38846,14944
38844,14953
38841,14962
38837,14970
38832,14978
38826,14985
38820,14992
38813,14998
38806,15004
38798,15008
38790,15012
38781,15015
38772,15017
38763,15019
38754,15019
38567,15019
38558,15019
38549,15017
38540,15015
38531,15012
38523,15008
38515,15004
38508,14998
38501,14992
38495,14985
38489,14978
38485,14970
38481,14962
38478,14953
38475,14944
38474,14935
38474,14926
38474,14699
38474,14690
38475,14681
38478,14672
38481,14664
38485,14655
38489,14647
38495,14640
38501,14633
38508,14627
38515,14622
38523,14617
38531,14613
38540,14610
38549,14608
38558,14606
38567,14606
38754,14606
38763,14606
Z" /> 
<path style="fill:#FF080E; fill-opacity:1.0; 
stroke:#FF080E; stroke-width:0; stroke-opacity:1; 
stroke-linecap:round; stroke-linejoin:round;fill-rule:evenodd;"
d="M 38763,15295
38772,15297
38781,15299
38790,15302
38798,15306
38806,15311
38813,15316
38820,15322
38826,15329
38832,15336
38837,15344
38841,15353
38844,15361
38846,15370
38847,15379
38848,15388
38848,15615
38847,15624
38846,15633
38844,15642
38841,15651
38837,15659
38832,15667
38826,15674
38820,15681
38813,15687
38806,15692
38798,15697
38790,15701
38781,15704
38772,15706
38763,15708
38754,15708
38567,15708
38558,15708
38549,15706
38540,15704
38531,15701
38523,15697
38515,15692
38508,15687
38501,15681
38495,15674
38489,15667
38485,15659
38481,15651
38478,15642
38475,15633
38474,15624
38474,15615
38474,15388
38474,15379
38475,15370
38478,15361
38481,15353
38485,15344
38489,15336
38495,15329
38501,15322
38508,15316
38515,15311
38523,15306
38531,15302
38540,15299
38549,15297
38558,15295
38567,15295
38754,15295
38763,15295
Z" /> 
</g>
<g >
</g>
<g >
</g>
<g >
</g>
</g>
<g style="fill:#000000; fill-opacity:1.0; 
stroke:#000000; stroke-width:0; stroke-opacity:1; 
stroke-linecap:round; stroke-linejoin:round;">
</g>
<g style="fill:#C2C200; fill-opacity:1.0; 
stroke:#C2C200; stroke-width:0; stroke-opacity:1; 
stroke-linecap:round; stroke-linejoin:round;">
</g>
<g style="fill:#C2C200; fill-opacity:1.0; 
stroke:#C2C200; stroke-width:59.0551; stroke-opacity:1; 
stroke-linecap:round; stroke-linejoin:round;">
</g>
<g style="fill:#C2C200; fill-opacity:0.0; 
stroke:#C2C200; stroke-width:59.0551; stroke-opacity:1; 
stroke-linecap:round; stroke-linejoin:round;">
<path d="M24070 21366
L50070 21366
" />
<path d="M51070 6466
L50070 5466
" />
<path d="M51070 19366
L51070 6466
" />
<path d="M50070 966
L49470 366
" />
<path d="M50070 20366
L51070 19366
" />
<path d="M50070 21366
L50070 20366
" />
<path d="M50070 5466
L50070 966
" />
<path d="M24070 366
L24070 21366
" />
<path d="M49470 366
L24070 366
" />
<g >
</g>
<g >
</g>
<g >
</g>
<g >
</g>
<g >
</g>
<g >
</g>
<g >
</g>
<g >
</g>
<g >
</g>
<g >
</g>
<g >
</g>
<g >
</g>
<g >
</g>
<g >
</g>
<g >
</g>
<g >
</g>
<g >
</g>
<g >
</g>
<g >
</g>
<g >
</g>
<g >
</g>
<g >
</g>
<g >
</g>
<g >
</g>
<g >
</g>
<g >
</g>
<g >
</g>
<g >
</g>
<g >
</g>
<g >
</g>
<g >
</g>
<g >
</g>
<g >
</g>
<g >
</g>
<g >
</g>
<g >
</g>
<g >
</g>
<g >
</g>
<g >
</g>
<g >
</g>
<g >
</g>
<g >
</g>
<g >
</g>
<g >
</g>
<g >
</g>
<g >
</g>
<g >
</g>
<g >
</g>
<g >
</g>
<g >
</g>
<g >
</g>
<g >
</g>
<g >
</g>
<g >
</g>
<g >
</g>
<g >
</g>
<g >
</g>
<g >
</g>
<g >
</g>
<g >
</g>
<g >
</g>
<g >
</g>
<g >
</g>
<g >
</g>
<g >
</g>
<g >
</g>
<g >
</g>
<g >
</g>
<g >
</g>
<g >
</g>
</g> 
</svg>
