<?xml version="1.0" standalone="no"?>
 <!DOCTYPE svg PUBLIC "-//W3C//DTD SVG 1.1//EN" 
 "http://www.w3.org/Graphics/SVG/1.1/DTD/svg11.dtd"> 
<svg xmlns="http://www.w3.org/2000/svg" version="1.1" 
    width="13.8303cm" height="6.22046cm" viewBox="0 0 54450 24490 ">
<title>SVG Picture created as uno shield-F_Paste.svg date 2019/06/17 08:11:24 </title>
  <desc>Picture generated by PCBNEW </desc>
<g style="fill:#000000; fill-opacity:1;stroke:#000000; stroke-opacity:1;
stroke-linecap:round; stroke-linejoin:round; "
 transform="translate(0 0) scale(1 1)">
</g>
<g style="fill:#000000; fill-opacity:0.0; 
stroke:#000000; stroke-width:-0.000393701; stroke-opacity:1; 
stroke-linecap:round; stroke-linejoin:round;">
</g>
<g style="fill:#26FF16; fill-opacity:0.0; 
stroke:#26FF16; stroke-width:-0.000393701; stroke-opacity:1; 
stroke-linecap:round; stroke-linejoin:round;">
</g>
<g style="fill:#26FF16; fill-opacity:0.0; 
stroke:#26FF16; stroke-width:0.393701; stroke-opacity:1; 
stroke-linecap:round; stroke-linejoin:round;">
<path d="M39287 17472
L39208 17472
" />
<path d="M39208 17472
L39208 16924
" />
<path d="M39208 16924
L39287 16924
" />
<path d="M39287 16924
L39287 17472
" />
<g >
</g>
<g style="fill:#FF080E; fill-opacity:0.0; 
stroke:#FF080E; stroke-width:0.393701; stroke-opacity:1; 
stroke-linecap:round; stroke-linejoin:round;">
</g>
<g style="fill:#FF080E; fill-opacity:0.0; 
stroke:#FF080E; stroke-width:0; stroke-opacity:1; 
stroke-linecap:round; stroke-linejoin:round;">
</g>
<g style="fill:#FF080E; fill-opacity:1.0; 
stroke:#FF080E; stroke-width:0; stroke-opacity:1; 
stroke-linecap:round; stroke-linejoin:round;">
<path style="fill:#FF080E; fill-opacity:1.0; 
stroke:#FF080E; stroke-width:0; stroke-opacity:1; 
stroke-linecap:round; stroke-linejoin:round;fill-rule:evenodd;"
d="M 39022,17443
39022,17523
38682,17523
38682,17443
39022,17443
Z" /> 
<path style="fill:#FF080E; fill-opacity:1.0; 
stroke:#FF080E; stroke-width:0; stroke-opacity:1; 
stroke-linecap:round; stroke-linejoin:round;fill-rule:evenodd;"
d="M 39022,17247
39022,17327
38682,17327
38682,17247
39022,17247
Z" /> 
<path style="fill:#FF080E; fill-opacity:1.0; 
stroke:#FF080E; stroke-width:0; stroke-opacity:1; 
stroke-linecap:round; stroke-linejoin:round;fill-rule:evenodd;"
d="M 39022,17050
39022,17130
38682,17130
38682,17050
39022,17050
Z" /> 
<path style="fill:#FF080E; fill-opacity:1.0; 
stroke:#FF080E; stroke-width:0; stroke-opacity:1; 
stroke-linecap:round; stroke-linejoin:round;fill-rule:evenodd;"
d="M 39022,16853
39022,16933
38682,16933
38682,16853
39022,16853
Z" /> 
<path style="fill:#FF080E; fill-opacity:1.0; 
stroke:#FF080E; stroke-width:0; stroke-opacity:1; 
stroke-linecap:round; stroke-linejoin:round;fill-rule:evenodd;"
d="M 39812,16853
39812,16933
39472,16933
39472,16853
39812,16853
Z" /> 
<path style="fill:#FF080E; fill-opacity:1.0; 
stroke:#FF080E; stroke-width:0; stroke-opacity:1; 
stroke-linecap:round; stroke-linejoin:round;fill-rule:evenodd;"
d="M 39812,17050
39812,17130
39472,17130
39472,17050
39812,17050
Z" /> 
<path style="fill:#FF080E; fill-opacity:1.0; 
stroke:#FF080E; stroke-width:0; stroke-opacity:1; 
stroke-linecap:round; stroke-linejoin:round;fill-rule:evenodd;"
d="M 39812,17247
39812,17327
39472,17327
39472,17247
39812,17247
Z" /> 
<path style="fill:#FF080E; fill-opacity:1.0; 
stroke:#FF080E; stroke-width:0; stroke-opacity:1; 
stroke-linecap:round; stroke-linejoin:round;fill-rule:evenodd;"
d="M 39812,17443
39812,17523
39472,17523
39472,17443
39812,17443
Z" /> 
</g>
<g >
</g>
<g >
</g>
<g >
</g>
<g >
</g>
<g >
</g>
<g >
</g>
<g >
<path style="fill:#FF080E; fill-opacity:1.0; 
stroke:#FF080E; stroke-width:0; stroke-opacity:1; 
stroke-linecap:round; stroke-linejoin:round;fill-rule:evenodd;"
d="M 41683,8954
41689,8955
41694,8956
41700,8958
41705,8961
41710,8964
41714,8967
41718,8971
41722,8975
41726,8980
41729,8985
41731,8990
41733,8995
41734,9001
41735,9006
41735,9012
41735,9128
41735,9134
41734,9139
41733,9145
41731,9150
41729,9155
41726,9160
41722,9165
41718,9169
41714,9173
41710,9176
41705,9179
41700,9182
41694,9184
41689,9185
41683,9186
41677,9186
41542,9186
41536,9186
41530,9185
41525,9184
41519,9182
41514,9179
41509,9176
41505,9173
41500,9169
41497,9165
41493,9160
41490,9155
41488,9150
41486,9145
41485,9139
41484,9134
41483,9128
41483,9012
41484,9006
41485,9001
41486,8995
41488,8990
41490,8985
41493,8980
41497,8975
41500,8971
41505,8967
41509,8964
41514,8961
41519,8958
41525,8956
41530,8955
41536,8954
41542,8954
41677,8954
41683,8954
Z" /> 
<path style="fill:#FF080E; fill-opacity:1.0; 
stroke:#FF080E; stroke-width:0; stroke-opacity:1; 
stroke-linecap:round; stroke-linejoin:round;fill-rule:evenodd;"
d="M 41683,8572
41689,8573
41694,8574
41700,8576
41705,8579
41710,8582
41714,8585
41718,8589
41722,8593
41726,8598
41729,8603
41731,8608
41733,8613
41734,8619
41735,8624
41735,8630
41735,8746
41735,8752
41734,8758
41733,8763
41731,8768
41729,8774
41726,8778
41722,8783
41718,8787
41714,8791
41710,8794
41705,8797
41700,8800
41694,8802
41689,8803
41683,8804
41677,8804
41542,8804
41536,8804
41530,8803
41525,8802
41519,8800
41514,8797
41509,8794
41505,8791
41500,8787
41497,8783
41493,8778
41490,8774
41488,8768
41486,8763
41485,8758
41484,8752
41483,8746
41483,8630
41484,8624
41485,8619
41486,8613
41488,8608
41490,8603
41493,8598
41497,8593
41500,8589
41505,8585
41509,8582
41514,8579
41519,8576
41525,8574
41530,8573
41536,8572
41542,8572
41677,8572
41683,8572
Z" /> 
</g>
<g >
</g>
<g >
<path style="fill:#FF080E; fill-opacity:1.0; 
stroke:#FF080E; stroke-width:0; stroke-opacity:1; 
stroke-linecap:round; stroke-linejoin:round;fill-rule:evenodd;"
d="M 43905,7456
43914,7458
43923,7460
43932,7463
43941,7467
43949,7472
43956,7478
43963,7484
43970,7491
43975,7498
43980,7507
43984,7515
43987,7524
43990,7533
43991,7542
43991,7552
43991,7744
43991,7753
43990,7762
43987,7772
43984,7780
43980,7789
43975,7797
43970,7805
43963,7812
43956,7818
43949,7824
43941,7828
43932,7832
43923,7836
43914,7838
43905,7839
43895,7840
43536,7840
43527,7839
43517,7838
43508,7836
43499,7832
43491,7828
43483,7824
43475,7818
43468,7812
43462,7805
43456,7797
43451,7789
43447,7780
43444,7772
43442,7762
43441,7753
43440,7744
43440,7552
43441,7542
43442,7533
43444,7524
43447,7515
43451,7507
43456,7498
43462,7491
43468,7484
43475,7478
43483,7472
43491,7467
43499,7463
43508,7460
43517,7458
43527,7456
43536,7456
43895,7456
43905,7456
Z" /> 
<path style="fill:#FF080E; fill-opacity:1.0; 
stroke:#FF080E; stroke-width:0; stroke-opacity:1; 
stroke-linecap:round; stroke-linejoin:round;fill-rule:evenodd;"
d="M 43905,8194
43914,8196
43923,8198
43932,8201
43941,8205
43949,8210
43956,8216
43963,8222
43970,8229
43975,8237
43980,8245
43984,8253
43987,8262
43990,8271
43991,8281
43991,8290
43991,8482
43991,8491
43990,8501
43987,8510
43984,8519
43980,8527
43975,8535
43970,8543
43963,8550
43956,8556
43949,8562
43941,8567
43932,8571
43923,8574
43914,8576
43905,8577
43895,8578
43536,8578
43527,8577
43517,8576
43508,8574
43499,8571
43491,8567
43483,8562
43475,8556
43468,8550
43462,8543
43456,8535
43451,8527
43447,8519
43444,8510
43442,8501
43441,8491
43440,8482
43440,8290
43441,8281
43442,8271
43444,8262
43447,8253
43451,8245
43456,8237
43462,8229
43468,8222
43475,8216
43483,8210
43491,8205
43499,8201
43508,8198
43517,8196
43527,8194
43536,8194
43895,8194
43905,8194
Z" /> 
</g>
<g >
</g>
<g >
</g>
<g >
<path style="fill:#FF080E; fill-opacity:1.0; 
stroke:#FF080E; stroke-width:0; stroke-opacity:1; 
stroke-linecap:round; stroke-linejoin:round;fill-rule:evenodd;"
d="M 27136,5578
27144,5580
27153,5582
27161,5584
27168,5588
27176,5592
27182,5597
27189,5603
27194,5609
27199,5616
27204,5623
27207,5631
27210,5639
27212,5647
27213,5656
27214,5664
27214,5866
27213,5874
27212,5883
27210,5891
27207,5899
27204,5906
27199,5914
27194,5920
27189,5927
27182,5932
27176,5937
27168,5942
27161,5945
27153,5948
27144,5950
27136,5951
27128,5952
26955,5952
26947,5951
26939,5950
26930,5948
26922,5945
26915,5942
26908,5937
26901,5932
26895,5927
26889,5920
26884,5914
26879,5906
26876,5899
26873,5891
26871,5883
26870,5874
26869,5866
26869,5664
26870,5656
26871,5647
26873,5639
26876,5631
26879,5623
26884,5616
26889,5609
26895,5603
26901,5597
26908,5592
26915,5588
26922,5584
26930,5582
26939,5580
26947,5578
26955,5578
27128,5578
27136,5578
Z" /> 
<path style="fill:#FF080E; fill-opacity:1.0; 
stroke:#FF080E; stroke-width:0; stroke-opacity:1; 
stroke-linecap:round; stroke-linejoin:round;fill-rule:evenodd;"
d="M 26516,5578
26524,5580
26533,5582
26541,5584
26548,5588
26555,5592
26562,5597
26568,5603
26574,5609
26579,5616
26584,5623
26587,5631
26590,5639
26592,5647
26593,5656
26594,5664
26594,5866
26593,5874
26592,5883
26590,5891
26587,5899
26584,5906
26579,5914
26574,5920
26568,5927
26562,5932
26555,5937
26548,5942
26541,5945
26533,5948
26524,5950
26516,5951
26508,5952
26335,5952
26327,5951
26319,5950
26310,5948
26302,5945
26295,5942
26287,5937
26281,5932
26274,5927
26269,5920
26264,5914
26259,5906
26256,5899
26253,5891
26251,5883
26250,5874
26249,5866
26249,5664
26250,5656
26251,5647
26253,5639
26256,5631
26259,5623
26264,5616
26269,5609
26274,5603
26281,5597
26287,5592
26295,5588
26302,5584
26310,5582
26319,5580
26327,5578
26335,5578
26508,5578
26516,5578
Z" /> 
</g>
<g >
<path style="fill:#FF080E; fill-opacity:1.0; 
stroke:#FF080E; stroke-width:0; stroke-opacity:1; 
stroke-linecap:round; stroke-linejoin:round;fill-rule:evenodd;"
d="M 27069,2966
27078,2967
27086,2969
27094,2972
27101,2976
27109,2980
27115,2985
27122,2991
27127,2997
27132,3004
27137,3011
27140,3019
27143,3027
27145,3035
27146,3043
27147,3052
27147,3224
27146,3232
27145,3241
27143,3249
27140,3257
27137,3265
27132,3272
27127,3279
27122,3285
27115,3291
27109,3296
27101,3300
27094,3304
27086,3306
27078,3308
27069,3310
27061,3310
26859,3310
26851,3310
26842,3308
26834,3306
26826,3304
26818,3300
26811,3296
26804,3291
26798,3285
26792,3279
26787,3272
26783,3265
26779,3257
26777,3249
26774,3241
26773,3232
26773,3224
26773,3052
26773,3043
26774,3035
26777,3027
26779,3019
26783,3011
26787,3004
26792,2997
26798,2991
26804,2985
26811,2980
26818,2976
26826,2972
26834,2969
26842,2967
26851,2966
26859,2966
27061,2966
27069,2966
Z" /> 
<path style="fill:#FF080E; fill-opacity:1.0; 
stroke:#FF080E; stroke-width:0; stroke-opacity:1; 
stroke-linecap:round; stroke-linejoin:round;fill-rule:evenodd;"
d="M 27069,2346
27078,2347
27086,2349
27094,2352
27101,2356
27109,2360
27115,2365
27122,2371
27127,2377
27132,2384
27137,2391
27140,2399
27143,2407
27145,2415
27146,2423
27147,2432
27147,2604
27146,2612
27145,2621
27143,2629
27140,2637
27137,2645
27132,2652
27127,2659
27122,2665
27115,2671
27109,2676
27101,2680
27094,2684
27086,2686
27078,2688
27069,2690
27061,2690
26859,2690
26851,2690
26842,2688
26834,2686
26826,2684
26818,2680
26811,2676
26804,2671
26798,2665
26792,2659
26787,2652
26783,2645
26779,2637
26777,2629
26774,2621
26773,2612
26773,2604
26773,2432
26773,2423
26774,2415
26777,2407
26779,2399
26783,2391
26787,2384
26792,2377
26798,2371
26804,2365
26811,2360
26818,2356
26826,2352
26834,2349
26842,2347
26851,2346
26859,2346
27061,2346
27069,2346
Z" /> 
</g>
<g >
</g>
<g >
</g>
<g >
<path style="fill:#FF080E; fill-opacity:1.0; 
stroke:#FF080E; stroke-width:0; stroke-opacity:1; 
stroke-linecap:round; stroke-linejoin:round;fill-rule:evenodd;"
d="M 34101,13706
34109,13707
34117,13710
34125,13712
34133,13716
34140,13720
34147,13725
34153,13731
34159,13737
34164,13744
34168,13751
34172,13759
34175,13767
34177,13775
34178,13783
34178,13792
34178,13964
34178,13973
34177,13981
34175,13989
34172,13997
34168,14005
34164,14012
34159,14019
34153,14025
34147,14031
34140,14036
34133,14040
34125,14044
34117,14047
34109,14049
34101,14050
34092,14050
33890,14050
33882,14050
33874,14049
33865,14047
33858,14044
33850,14040
33843,14036
33836,14031
33830,14025
33824,14019
33819,14012
33815,14005
33811,13997
33808,13989
33806,13981
33805,13973
33804,13964
33804,13792
33805,13783
33806,13775
33808,13767
33811,13759
33815,13751
33819,13744
33824,13737
33830,13731
33836,13725
33843,13720
33850,13716
33858,13712
33865,13710
33874,13707
33882,13706
33890,13706
34092,13706
34101,13706
Z" /> 
<path style="fill:#FF080E; fill-opacity:1.0; 
stroke:#FF080E; stroke-width:0; stroke-opacity:1; 
stroke-linecap:round; stroke-linejoin:round;fill-rule:evenodd;"
d="M 34101,13086
34109,13087
34117,13089
34125,13092
34133,13096
34140,13100
34147,13105
34153,13111
34159,13117
34164,13124
34168,13131
34172,13139
34175,13147
34177,13155
34178,13163
34178,13172
34178,13344
34178,13353
34177,13361
34175,13369
34172,13377
34168,13385
34164,13392
34159,13399
34153,13405
34147,13411
34140,13416
34133,13420
34125,13424
34117,13427
34109,13429
34101,13430
34092,13430
33890,13430
33882,13430
33874,13429
33865,13427
33858,13424
33850,13420
33843,13416
33836,13411
33830,13405
33824,13399
33819,13392
33815,13385
33811,13377
33808,13369
33806,13361
33805,13353
33804,13344
33804,13172
33805,13163
33806,13155
33808,13147
33811,13139
33815,13131
33819,13124
33824,13117
33830,13111
33836,13105
33843,13100
33850,13096
33858,13092
33865,13089
33874,13087
33882,13086
33890,13086
34092,13086
34101,13086
Z" /> 
</g>
<g >
</g>
<g >
</g>
<g >
</g>
<g >
</g>
<g >
</g>
<g >
<path style="fill:#FF080E; fill-opacity:1.0; 
stroke:#FF080E; stroke-width:0; stroke-opacity:1; 
stroke-linecap:round; stroke-linejoin:round;fill-rule:evenodd;"
d="M 39656,12732
39664,12733
39672,12735
39680,12738
39688,12742
39695,12746
39702,12751
39708,12757
39714,12763
39719,12770
39723,12777
39727,12785
39730,12793
39732,12801
39733,12809
39733,12818
39733,13019
39733,13028
39732,13036
39730,13044
39727,13052
39723,13060
39719,13067
39714,13074
39708,13080
39702,13086
39695,13091
39688,13095
39680,13099
39672,13102
39664,13104
39656,13105
39647,13105
39475,13105
39467,13105
39458,13104
39450,13102
39442,13099
39435,13095
39427,13091
39420,13086
39414,13080
39409,13074
39403,13067
39399,13060
39396,13052
39393,13044
39391,13036
39389,13028
39389,13019
39389,12818
39389,12809
39391,12801
39393,12793
39396,12785
39399,12777
39403,12770
39409,12763
39414,12757
39420,12751
39427,12746
39435,12742
39442,12738
39450,12735
39458,12733
39467,12732
39475,12731
39647,12731
39656,12732
Z" /> 
<path style="fill:#FF080E; fill-opacity:1.0; 
stroke:#FF080E; stroke-width:0; stroke-opacity:1; 
stroke-linecap:round; stroke-linejoin:round;fill-rule:evenodd;"
d="M 39036,12732
39044,12733
39052,12735
39060,12738
39068,12742
39075,12746
39082,12751
39088,12757
39094,12763
39099,12770
39103,12777
39107,12785
39110,12793
39112,12801
39113,12809
39113,12818
39113,13019
39113,13028
39112,13036
39110,13044
39107,13052
39103,13060
39099,13067
39094,13074
39088,13080
39082,13086
39075,13091
39068,13095
39060,13099
39052,13102
39044,13104
39036,13105
39027,13105
38855,13105
38847,13105
38838,13104
38830,13102
38822,13099
38814,13095
38807,13091
38800,13086
38794,13080
38788,13074
38783,13067
38779,13060
38775,13052
38773,13044
38771,13036
38769,13028
38769,13019
38769,12818
38769,12809
38771,12801
38773,12793
38775,12785
38779,12777
38783,12770
38788,12763
38794,12757
38800,12751
38807,12746
38814,12742
38822,12738
38830,12735
38838,12733
38847,12732
38855,12731
39027,12731
39036,12732
Z" /> 
</g>
<g >
</g>
<g >
<path style="fill:#FF080E; fill-opacity:1.0; 
stroke:#FF080E; stroke-width:0; stroke-opacity:1; 
stroke-linecap:round; stroke-linejoin:round;fill-rule:evenodd;"
d="M 42690,17046
42926,17046
42926,17657
42690,17657
42690,17046
Z" /> 
<path style="fill:#FF080E; fill-opacity:1.0; 
stroke:#FF080E; stroke-width:0; stroke-opacity:1; 
stroke-linecap:round; stroke-linejoin:round;fill-rule:evenodd;"
d="M 42190,17046
42426,17046
42426,17657
42190,17657
42190,17046
Z" /> 
<path style="fill:#FF080E; fill-opacity:1.0; 
stroke:#FF080E; stroke-width:0; stroke-opacity:1; 
stroke-linecap:round; stroke-linejoin:round;fill-rule:evenodd;"
d="M 41690,17046
41926,17046
41926,17657
41690,17657
41690,17046
Z" /> 
<path style="fill:#FF080E; fill-opacity:1.0; 
stroke:#FF080E; stroke-width:0; stroke-opacity:1; 
stroke-linecap:round; stroke-linejoin:round;fill-rule:evenodd;"
d="M 41190,17046
41426,17046
41426,17657
41190,17657
41190,17046
Z" /> 
<path style="fill:#FF080E; fill-opacity:1.0; 
stroke:#FF080E; stroke-width:0; stroke-opacity:1; 
stroke-linecap:round; stroke-linejoin:round;fill-rule:evenodd;"
d="M 41190,14920
41426,14920
41426,15531
41190,15531
41190,14920
Z" /> 
<path style="fill:#FF080E; fill-opacity:1.0; 
stroke:#FF080E; stroke-width:0; stroke-opacity:1; 
stroke-linecap:round; stroke-linejoin:round;fill-rule:evenodd;"
d="M 41690,14920
41926,14920
41926,15531
41690,15531
41690,14920
Z" /> 
<path style="fill:#FF080E; fill-opacity:1.0; 
stroke:#FF080E; stroke-width:0; stroke-opacity:1; 
stroke-linecap:round; stroke-linejoin:round;fill-rule:evenodd;"
d="M 42190,14920
42426,14920
42426,15531
42190,15531
42190,14920
Z" /> 
<path style="fill:#FF080E; fill-opacity:1.0; 
stroke:#FF080E; stroke-width:0; stroke-opacity:1; 
stroke-linecap:round; stroke-linejoin:round;fill-rule:evenodd;"
d="M 42690,14920
42926,14920
42926,15531
42690,15531
42690,14920
Z" /> 
</g>
<g >
<path style="fill:#FF080E; fill-opacity:1.0; 
stroke:#FF080E; stroke-width:0; stroke-opacity:1; 
stroke-linecap:round; stroke-linejoin:round;fill-rule:evenodd;"
d="M 42694,13905
42930,13905
42930,14515
42694,14515
42694,13905
Z" /> 
<path style="fill:#FF080E; fill-opacity:1.0; 
stroke:#FF080E; stroke-width:0; stroke-opacity:1; 
stroke-linecap:round; stroke-linejoin:round;fill-rule:evenodd;"
d="M 42194,13905
42430,13905
42430,14515
42194,14515
42194,13905
Z" /> 
<path style="fill:#FF080E; fill-opacity:1.0; 
stroke:#FF080E; stroke-width:0; stroke-opacity:1; 
stroke-linecap:round; stroke-linejoin:round;fill-rule:evenodd;"
d="M 41694,13905
41930,13905
41930,14515
41694,14515
41694,13905
Z" /> 
<path style="fill:#FF080E; fill-opacity:1.0; 
stroke:#FF080E; stroke-width:0; stroke-opacity:1; 
stroke-linecap:round; stroke-linejoin:round;fill-rule:evenodd;"
d="M 41194,13905
41430,13905
41430,14515
41194,14515
41194,13905
Z" /> 
<path style="fill:#FF080E; fill-opacity:1.0; 
stroke:#FF080E; stroke-width:0; stroke-opacity:1; 
stroke-linecap:round; stroke-linejoin:round;fill-rule:evenodd;"
d="M 41194,11779
41430,11779
41430,12389
41194,12389
41194,11779
Z" /> 
<path style="fill:#FF080E; fill-opacity:1.0; 
stroke:#FF080E; stroke-width:0; stroke-opacity:1; 
stroke-linecap:round; stroke-linejoin:round;fill-rule:evenodd;"
d="M 41694,11779
41930,11779
41930,12389
41694,12389
41694,11779
Z" /> 
<path style="fill:#FF080E; fill-opacity:1.0; 
stroke:#FF080E; stroke-width:0; stroke-opacity:1; 
stroke-linecap:round; stroke-linejoin:round;fill-rule:evenodd;"
d="M 42194,11779
42430,11779
42430,12389
42194,12389
42194,11779
Z" /> 
<path style="fill:#FF080E; fill-opacity:1.0; 
stroke:#FF080E; stroke-width:0; stroke-opacity:1; 
stroke-linecap:round; stroke-linejoin:round;fill-rule:evenodd;"
d="M 42694,11779
42930,11779
42930,12389
42694,12389
42694,11779
Z" /> 
</g>
<g >
</g>
<g >
<path style="fill:#FF080E; fill-opacity:1.0; 
stroke:#FF080E; stroke-width:0; stroke-opacity:1; 
stroke-linecap:round; stroke-linejoin:round;fill-rule:evenodd;"
d="M 36544,15991
36544,16227
35934,16227
35934,15991
36544,15991
Z" /> 
<path style="fill:#FF080E; fill-opacity:1.0; 
stroke:#FF080E; stroke-width:0; stroke-opacity:1; 
stroke-linecap:round; stroke-linejoin:round;fill-rule:evenodd;"
d="M 36544,15491
36544,15727
35934,15727
35934,15491
36544,15491
Z" /> 
<path style="fill:#FF080E; fill-opacity:1.0; 
stroke:#FF080E; stroke-width:0; stroke-opacity:1; 
stroke-linecap:round; stroke-linejoin:round;fill-rule:evenodd;"
d="M 36544,14991
36544,15227
35934,15227
35934,14991
36544,14991
Z" /> 
<path style="fill:#FF080E; fill-opacity:1.0; 
stroke:#FF080E; stroke-width:0; stroke-opacity:1; 
stroke-linecap:round; stroke-linejoin:round;fill-rule:evenodd;"
d="M 36544,14491
36544,14727
35934,14727
35934,14491
36544,14491
Z" /> 
<path style="fill:#FF080E; fill-opacity:1.0; 
stroke:#FF080E; stroke-width:0; stroke-opacity:1; 
stroke-linecap:round; stroke-linejoin:round;fill-rule:evenodd;"
d="M 34419,14491
34419,14727
33808,14727
33808,14491
34419,14491
Z" /> 
<path style="fill:#FF080E; fill-opacity:1.0; 
stroke:#FF080E; stroke-width:0; stroke-opacity:1; 
stroke-linecap:round; stroke-linejoin:round;fill-rule:evenodd;"
d="M 34419,14991
34419,15227
33808,15227
33808,14991
34419,14991
Z" /> 
<path style="fill:#FF080E; fill-opacity:1.0; 
stroke:#FF080E; stroke-width:0; stroke-opacity:1; 
stroke-linecap:round; stroke-linejoin:round;fill-rule:evenodd;"
d="M 34419,15491
34419,15727
33808,15727
33808,15491
34419,15491
Z" /> 
<path style="fill:#FF080E; fill-opacity:1.0; 
stroke:#FF080E; stroke-width:0; stroke-opacity:1; 
stroke-linecap:round; stroke-linejoin:round;fill-rule:evenodd;"
d="M 34419,15991
34419,16227
33808,16227
33808,15991
34419,15991
Z" /> 
</g>
<g >
</g>
<g >
</g>
<g >
<path style="fill:#FF080E; fill-opacity:1.0; 
stroke:#FF080E; stroke-width:0; stroke-opacity:1; 
stroke-linecap:round; stroke-linejoin:round;fill-rule:evenodd;"
d="M 44826,10781
44826,10899
44275,10899
44275,10781
44826,10781
Z" /> 
<path style="fill:#FF080E; fill-opacity:1.0; 
stroke:#FF080E; stroke-width:0; stroke-opacity:1; 
stroke-linecap:round; stroke-linejoin:round;fill-rule:evenodd;"
d="M 44826,10584
44826,10702
44275,10702
44275,10584
44826,10584
Z" /> 
<path style="fill:#FF080E; fill-opacity:1.0; 
stroke:#FF080E; stroke-width:0; stroke-opacity:1; 
stroke-linecap:round; stroke-linejoin:round;fill-rule:evenodd;"
d="M 44826,10387
44826,10505
44275,10505
44275,10387
44826,10387
Z" /> 
<path style="fill:#FF080E; fill-opacity:1.0; 
stroke:#FF080E; stroke-width:0; stroke-opacity:1; 
stroke-linecap:round; stroke-linejoin:round;fill-rule:evenodd;"
d="M 44826,10190
44826,10308
44275,10308
44275,10190
44826,10190
Z" /> 
<path style="fill:#FF080E; fill-opacity:1.0; 
stroke:#FF080E; stroke-width:0; stroke-opacity:1; 
stroke-linecap:round; stroke-linejoin:round;fill-rule:evenodd;"
d="M 44826,9993
44826,10111
44275,10111
44275,9993
44826,9993
Z" /> 
<path style="fill:#FF080E; fill-opacity:1.0; 
stroke:#FF080E; stroke-width:0; stroke-opacity:1; 
stroke-linecap:round; stroke-linejoin:round;fill-rule:evenodd;"
d="M 46558,9993
46558,10111
46007,10111
46007,9993
46558,9993
Z" /> 
<path style="fill:#FF080E; fill-opacity:1.0; 
stroke:#FF080E; stroke-width:0; stroke-opacity:1; 
stroke-linecap:round; stroke-linejoin:round;fill-rule:evenodd;"
d="M 46558,10190
46558,10308
46007,10308
46007,10190
46558,10190
Z" /> 
<path style="fill:#FF080E; fill-opacity:1.0; 
stroke:#FF080E; stroke-width:0; stroke-opacity:1; 
stroke-linecap:round; stroke-linejoin:round;fill-rule:evenodd;"
d="M 46558,10387
46558,10505
46007,10505
46007,10387
46558,10387
Z" /> 
<path style="fill:#FF080E; fill-opacity:1.0; 
stroke:#FF080E; stroke-width:0; stroke-opacity:1; 
stroke-linecap:round; stroke-linejoin:round;fill-rule:evenodd;"
d="M 46558,10584
46558,10702
46007,10702
46007,10584
46558,10584
Z" /> 
<path style="fill:#FF080E; fill-opacity:1.0; 
stroke:#FF080E; stroke-width:0; stroke-opacity:1; 
stroke-linecap:round; stroke-linejoin:round;fill-rule:evenodd;"
d="M 46558,10781
46558,10899
46007,10899
46007,10781
46558,10781
Z" /> 
</g>
<g >
</g>
<g >
</g>
<g >
</g>
<g >
</g>
<g >
</g>
<g >
<path style="fill:#FF080E; fill-opacity:1.0; 
stroke:#FF080E; stroke-width:0; stroke-opacity:1; 
stroke-linecap:round; stroke-linejoin:round;fill-rule:evenodd;"
d="M 35861,17301
35869,17302
35877,17304
35885,17307
35893,17310
35900,17315
35907,17320
35913,17326
35919,17332
35924,17339
35928,17346
35932,17353
35934,17361
35937,17370
35938,17378
35938,17386
35938,17559
35938,17567
35937,17575
35934,17584
35932,17592
35928,17599
35924,17607
35919,17613
35913,17620
35907,17625
35900,17630
35893,17635
35885,17638
35877,17641
35869,17643
35861,17644
35852,17645
35650,17645
35642,17644
35633,17643
35625,17641
35617,17638
35610,17635
35602,17630
35596,17625
35589,17620
35584,17613
35579,17607
35574,17599
35571,17592
35568,17584
35566,17575
35565,17567
35564,17559
35564,17386
35565,17378
35566,17370
35568,17361
35571,17353
35574,17346
35579,17339
35584,17332
35589,17326
35596,17320
35602,17315
35610,17310
35617,17307
35625,17304
35633,17302
35642,17301
35650,17300
35852,17300
35861,17301
Z" /> 
<path style="fill:#FF080E; fill-opacity:1.0; 
stroke:#FF080E; stroke-width:0; stroke-opacity:1; 
stroke-linecap:round; stroke-linejoin:round;fill-rule:evenodd;"
d="M 35861,16681
35869,16682
35877,16684
35885,16687
35893,16690
35900,16695
35907,16700
35913,16705
35919,16712
35924,16719
35928,16726
35932,16733
35934,16741
35937,16750
35938,16758
35938,16766
35938,16939
35938,16947
35937,16955
35934,16964
35932,16972
35928,16979
35924,16986
35919,16993
35913,16999
35907,17005
35900,17010
35893,17015
35885,17018
35877,17021
35869,17023
35861,17024
35852,17025
35650,17025
35642,17024
35633,17023
35625,17021
35617,17018
35610,17015
35602,17010
35596,17005
35589,16999
35584,16993
35579,16986
35574,16979
35571,16972
35568,16964
35566,16955
35565,16947
35564,16939
35564,16766
35565,16758
35566,16750
35568,16741
35571,16733
35574,16726
35579,16719
35584,16712
35589,16705
35596,16700
35602,16695
35610,16690
35617,16687
35625,16684
35633,16682
35642,16681
35650,16680
35852,16680
35861,16681
Z" /> 
</g>
<g >
<path style="fill:#FF080E; fill-opacity:1.0; 
stroke:#FF080E; stroke-width:0; stroke-opacity:1; 
stroke-linecap:round; stroke-linejoin:round;fill-rule:evenodd;"
d="M 40754,16647
40763,16648
40771,16650
40779,16653
40786,16657
40794,16661
40800,16666
40807,16672
40812,16678
40817,16685
40822,16692
40825,16700
40828,16708
40830,16716
40831,16724
40832,16733
40832,16905
40831,16914
40830,16922
40828,16930
40825,16938
40822,16946
40817,16953
40812,16960
40807,16966
40800,16972
40794,16977
40786,16981
40779,16985
40771,16988
40763,16990
40754,16991
40746,16991
40544,16991
40536,16991
40527,16990
40519,16988
40511,16985
40503,16981
40496,16977
40489,16972
40483,16966
40477,16960
40472,16953
40468,16946
40464,16938
40462,16930
40460,16922
40458,16914
40458,16905
40458,16733
40458,16724
40460,16716
40462,16708
40464,16700
40468,16692
40472,16685
40477,16678
40483,16672
40489,16666
40496,16661
40503,16657
40511,16653
40519,16650
40527,16648
40536,16647
40544,16647
40746,16647
40754,16647
Z" /> 
<path style="fill:#FF080E; fill-opacity:1.0; 
stroke:#FF080E; stroke-width:0; stroke-opacity:1; 
stroke-linecap:round; stroke-linejoin:round;fill-rule:evenodd;"
d="M 40754,16027
40763,16028
40771,16030
40779,16033
40786,16037
40794,16041
40800,16046
40807,16052
40812,16058
40817,16065
40822,16072
40825,16080
40828,16088
40830,16096
40831,16104
40832,16113
40832,16285
40831,16293
40830,16302
40828,16310
40825,16318
40822,16326
40817,16333
40812,16340
40807,16346
40800,16352
40794,16357
40786,16361
40779,16365
40771,16367
40763,16370
40754,16371
40746,16371
40544,16371
40536,16371
40527,16370
40519,16367
40511,16365
40503,16361
40496,16357
40489,16352
40483,16346
40477,16340
40472,16333
40468,16326
40464,16318
40462,16310
40460,16302
40458,16293
40458,16285
40458,16113
40458,16104
40460,16096
40462,16088
40464,16080
40468,16072
40472,16065
40477,16058
40483,16052
40489,16046
40496,16041
40503,16037
40511,16033
40519,16030
40527,16028
40536,16027
40544,16027
40746,16027
40754,16027
Z" /> 
</g>
<g >
<path style="fill:#FF080E; fill-opacity:1.0; 
stroke:#FF080E; stroke-width:0; stroke-opacity:1; 
stroke-linecap:round; stroke-linejoin:round;fill-rule:evenodd;"
d="M 39520,15752
39528,15753
39537,15755
39544,15758
39552,15761
39559,15766
39566,15771
39572,15776
39578,15783
39583,15789
39587,15797
39591,15804
39594,15812
39596,15820
39597,15829
39598,15837
39598,16039
39597,16047
39596,16056
39594,16064
39591,16072
39587,16080
39583,16087
39578,16094
39572,16100
39566,16106
39559,16111
39552,16115
39544,16119
39537,16121
39528,16123
39520,16125
39512,16125
39339,16125
39331,16125
39322,16123
39314,16121
39306,16119
39299,16115
39291,16111
39285,16106
39278,16100
39273,16094
39268,16087
39263,16080
39260,16072
39257,16064
39255,16056
39254,16047
39253,16039
39253,15837
39254,15829
39255,15820
39257,15812
39260,15804
39263,15797
39268,15789
39273,15783
39278,15776
39285,15771
39291,15766
39299,15761
39306,15758
39314,15755
39322,15753
39331,15752
39339,15751
39512,15751
39520,15752
Z" /> 
<path style="fill:#FF080E; fill-opacity:1.0; 
stroke:#FF080E; stroke-width:0; stroke-opacity:1; 
stroke-linecap:round; stroke-linejoin:round;fill-rule:evenodd;"
d="M 40140,15752
40148,15753
40157,15755
40165,15758
40172,15761
40179,15766
40186,15771
40192,15776
40198,15783
40203,15789
40208,15797
40211,15804
40214,15812
40216,15820
40217,15829
40218,15837
40218,16039
40217,16047
40216,16056
40214,16064
40211,16072
40208,16080
40203,16087
40198,16094
40192,16100
40186,16106
40179,16111
40172,16115
40165,16119
40157,16121
40148,16123
40140,16125
40132,16125
39959,16125
39951,16125
39943,16123
39934,16121
39926,16119
39919,16115
39912,16111
39905,16106
39898,16100
39893,16094
39888,16087
39883,16080
39880,16072
39877,16064
39875,16056
39874,16047
39873,16039
39873,15837
39874,15829
39875,15820
39877,15812
39880,15804
39883,15797
39888,15789
39893,15783
39898,15776
39905,15771
39912,15766
39919,15761
39926,15758
39934,15755
39943,15753
39951,15752
39959,15751
40132,15751
40140,15752
Z" /> 
</g>
<g >
</g>
<g >
</g>
<g >
</g>
<g >
</g>
<g >
</g>
<g >
</g>
<g >
</g>
<g >
</g>
<g >
</g>
<g >
</g>
<g >
</g>
<g >
</g>
<g style="fill:#000000; fill-opacity:1.0; 
stroke:#000000; stroke-width:0; stroke-opacity:1; 
stroke-linecap:round; stroke-linejoin:round;">
<path style="fill:#000000; fill-opacity:1.0; 
stroke:#000000; stroke-width:0; stroke-opacity:1; 
stroke-linecap:round; stroke-linejoin:round;fill-rule:evenodd;"
d="M 40820,15718
40823,15718
40826,15719
40830,15720
40833,15722
40836,15724
40839,15726
40841,15728
40844,15731
40846,15733
40847,15736
40849,15740
40850,15743
40851,15746
40851,15750
40852,15753
40852,15824
40851,15827
40851,15831
40850,15834
40849,15837
40847,15841
40846,15844
40844,15846
40841,15849
40839,15851
40836,15853
40833,15855
40830,15857
40826,15858
40823,15859
40820,15859
40816,15859
40670,15859
40667,15859
40664,15859
40660,15858
40657,15857
40654,15855
40651,15853
40648,15851
40645,15849
40643,15846
40641,15844
40639,15841
40638,15837
40637,15834
40636,15831
40635,15827
40635,15824
40635,15753
40635,15750
40636,15746
40637,15743
40638,15740
40639,15736
40641,15733
40643,15731
40645,15728
40648,15726
40651,15724
40654,15722
40657,15720
40660,15719
40664,15718
40667,15718
40670,15718
40816,15718
40820,15718
Z" /> 
<path style="fill:#000000; fill-opacity:1.0; 
stroke:#000000; stroke-width:0; stroke-opacity:1; 
stroke-linecap:round; stroke-linejoin:round;fill-rule:evenodd;"
d="M 40520,15718
40524,15718
40527,15719
40530,15720
40534,15722
40537,15724
40539,15726
40542,15728
40544,15731
40546,15733
40548,15736
40550,15740
40551,15743
40552,15746
40552,15750
40552,15753
40552,15824
40552,15827
40552,15831
40551,15834
40550,15837
40548,15841
40546,15844
40544,15846
40542,15849
40539,15851
40537,15853
40534,15855
40530,15857
40527,15858
40524,15859
40520,15859
40517,15859
40371,15859
40368,15859
40364,15859
40361,15858
40358,15857
40355,15855
40352,15853
40349,15851
40346,15849
40344,15846
40342,15844
40340,15841
40339,15837
40337,15834
40337,15831
40336,15827
40336,15824
40336,15753
40336,15750
40337,15746
40337,15743
40339,15740
40340,15736
40342,15733
40344,15731
40346,15728
40349,15726
40352,15724
40355,15722
40358,15720
40361,15719
40364,15718
40368,15718
40371,15718
40517,15718
40520,15718
Z" /> 
</g>
<g >
</g>
<g >
</g>
<g style="fill:#FF080E; fill-opacity:1.0; 
stroke:#FF080E; stroke-width:0; stroke-opacity:1; 
stroke-linecap:round; stroke-linejoin:round;">
<path style="fill:#FF080E; fill-opacity:1.0; 
stroke:#FF080E; stroke-width:0; stroke-opacity:1; 
stroke-linecap:round; stroke-linejoin:round;fill-rule:evenodd;"
d="M 38019,13603
38019,13485
38570,13485
38570,13603
38019,13603
Z" /> 
<path style="fill:#FF080E; fill-opacity:1.0; 
stroke:#FF080E; stroke-width:0; stroke-opacity:1; 
stroke-linecap:round; stroke-linejoin:round;fill-rule:evenodd;"
d="M 38019,13800
38019,13682
38570,13682
38570,13800
38019,13800
Z" /> 
<path style="fill:#FF080E; fill-opacity:1.0; 
stroke:#FF080E; stroke-width:0; stroke-opacity:1; 
stroke-linecap:round; stroke-linejoin:round;fill-rule:evenodd;"
d="M 38019,13997
38019,13879
38570,13879
38570,13997
38019,13997
Z" /> 
<path style="fill:#FF080E; fill-opacity:1.0; 
stroke:#FF080E; stroke-width:0; stroke-opacity:1; 
stroke-linecap:round; stroke-linejoin:round;fill-rule:evenodd;"
d="M 38019,14194
38019,14076
38570,14076
38570,14194
38019,14194
Z" /> 
<path style="fill:#FF080E; fill-opacity:1.0; 
stroke:#FF080E; stroke-width:0; stroke-opacity:1; 
stroke-linecap:round; stroke-linejoin:round;fill-rule:evenodd;"
d="M 38019,14391
38019,14273
38570,14273
38570,14391
38019,14391
Z" /> 
<path style="fill:#FF080E; fill-opacity:1.0; 
stroke:#FF080E; stroke-width:0; stroke-opacity:1; 
stroke-linecap:round; stroke-linejoin:round;fill-rule:evenodd;"
d="M 39751,14391
39751,14273
40302,14273
40302,14391
39751,14391
Z" /> 
<path style="fill:#FF080E; fill-opacity:1.0; 
stroke:#FF080E; stroke-width:0; stroke-opacity:1; 
stroke-linecap:round; stroke-linejoin:round;fill-rule:evenodd;"
d="M 39751,14194
39751,14076
40302,14076
40302,14194
39751,14194
Z" /> 
<path style="fill:#FF080E; fill-opacity:1.0; 
stroke:#FF080E; stroke-width:0; stroke-opacity:1; 
stroke-linecap:round; stroke-linejoin:round;fill-rule:evenodd;"
d="M 39751,13997
39751,13879
40302,13879
40302,13997
39751,13997
Z" /> 
<path style="fill:#FF080E; fill-opacity:1.0; 
stroke:#FF080E; stroke-width:0; stroke-opacity:1; 
stroke-linecap:round; stroke-linejoin:round;fill-rule:evenodd;"
d="M 39751,13800
39751,13682
40302,13682
40302,13800
39751,13800
Z" /> 
<path style="fill:#FF080E; fill-opacity:1.0; 
stroke:#FF080E; stroke-width:0; stroke-opacity:1; 
stroke-linecap:round; stroke-linejoin:round;fill-rule:evenodd;"
d="M 39751,13603
39751,13485
40302,13485
40302,13603
39751,13603
Z" /> 
</g>
<g >
<path style="fill:#FF080E; fill-opacity:1.0; 
stroke:#FF080E; stroke-width:0; stroke-opacity:1; 
stroke-linecap:round; stroke-linejoin:round;fill-rule:evenodd;"
d="M 37958,15576
37967,15578
37977,15580
37986,15583
37994,15588
38003,15592
38010,15598
38018,15605
38024,15612
38030,15620
38035,15628
38039,15637
38042,15646
38045,15655
38046,15665
38046,15674
38046,15930
38046,15940
38045,15949
38042,15959
38039,15968
38035,15977
38030,15985
38024,15993
38018,16000
38010,16006
38003,16012
37994,16017
37986,16021
37977,16024
37967,16027
37958,16028
37948,16029
37594,16029
37584,16028
37575,16027
37565,16024
37556,16021
37547,16017
37539,16012
37531,16006
37524,16000
37518,15993
37512,15985
37507,15977
37503,15968
37500,15959
37497,15949
37496,15940
37495,15930
37495,15674
37496,15665
37497,15655
37500,15646
37503,15637
37507,15628
37512,15620
37518,15612
37524,15605
37531,15598
37539,15592
37547,15588
37556,15583
37565,15580
37575,15578
37584,15576
37594,15576
37948,15576
37958,15576
Z" /> 
<path style="fill:#FF080E; fill-opacity:1.0; 
stroke:#FF080E; stroke-width:0; stroke-opacity:1; 
stroke-linecap:round; stroke-linejoin:round;fill-rule:evenodd;"
d="M 37958,14769
37967,14771
37977,14773
37986,14776
37994,14780
38003,14785
38010,14791
38018,14798
38024,14805
38030,14813
38035,14821
38039,14830
38042,14839
38045,14848
38046,14858
38046,14867
38046,15123
38046,15133
38045,15142
38042,15152
38039,15161
38035,15170
38030,15178
38024,15186
38018,15193
38010,15199
38003,15205
37994,15210
37986,15214
37977,15217
37967,15220
37958,15221
37948,15222
37594,15222
37584,15221
37575,15220
37565,15217
37556,15214
37547,15210
37539,15205
37531,15199
37524,15193
37518,15186
37512,15178
37507,15170
37503,15161
37500,15152
37497,15142
37496,15133
37495,15123
37495,14867
37496,14858
37497,14848
37500,14839
37503,14830
37507,14821
37512,14813
37518,14805
37524,14798
37531,14791
37539,14785
37547,14780
37556,14776
37565,14773
37575,14771
37584,14769
37594,14769
37948,14769
37958,14769
Z" /> 
</g>
<g >
<path style="fill:#FF080E; fill-opacity:1.0; 
stroke:#FF080E; stroke-width:0; stroke-opacity:1; 
stroke-linecap:round; stroke-linejoin:round;fill-rule:evenodd;"
d="M 37206,15722
37215,15723
37225,15726
37234,15729
37242,15733
37251,15738
37259,15744
37266,15750
37272,15758
37278,15765
37283,15774
37287,15782
37290,15791
37293,15801
37294,15810
37294,15820
37294,16076
37294,16086
37293,16095
37290,16104
37287,16114
37283,16122
37278,16131
37272,16138
37266,16145
37259,16152
37251,16158
37242,16163
37234,16167
37225,16170
37215,16172
37206,16174
37196,16174
36842,16174
36832,16174
36823,16172
36813,16170
36804,16167
36795,16163
36787,16158
36779,16152
36772,16145
36766,16138
36760,16131
36755,16122
36751,16114
36748,16104
36745,16095
36744,16086
36743,16076
36743,15820
36744,15810
36745,15801
36748,15791
36751,15782
36755,15774
36760,15765
36766,15758
36772,15750
36779,15744
36787,15738
36795,15733
36804,15729
36813,15726
36823,15723
36832,15722
36842,15722
37196,15722
37206,15722
Z" /> 
<path style="fill:#FF080E; fill-opacity:1.0; 
stroke:#FF080E; stroke-width:0; stroke-opacity:1; 
stroke-linecap:round; stroke-linejoin:round;fill-rule:evenodd;"
d="M 37206,14915
37215,14916
37225,14919
37234,14922
37242,14926
37251,14931
37259,14937
37266,14943
37272,14950
37278,14958
37283,14967
37287,14975
37290,14984
37293,14994
37294,15003
37294,15013
37294,15269
37294,15278
37293,15288
37290,15297
37287,15306
37283,15315
37278,15323
37272,15331
37266,15338
37259,15345
37251,15351
37242,15356
37234,15360
37225,15363
37215,15365
37206,15367
37196,15367
36842,15367
36832,15367
36823,15365
36813,15363
36804,15360
36795,15356
36787,15351
36779,15345
36772,15338
36766,15331
36760,15323
36755,15315
36751,15306
36748,15297
36745,15288
36744,15278
36743,15269
36743,15013
36744,15003
36745,14994
36748,14984
36751,14975
36755,14967
36760,14958
36766,14950
36772,14943
36779,14937
36787,14931
36795,14926
36804,14922
36813,14919
36823,14916
36832,14915
36842,14914
37196,14914
37206,14915
Z" /> 
</g>
<g >
<path style="fill:#FF080E; fill-opacity:1.0; 
stroke:#FF080E; stroke-width:0; stroke-opacity:1; 
stroke-linecap:round; stroke-linejoin:round;fill-rule:evenodd;"
d="M 35944,11474
35944,11788
35196,11788
35196,11474
35944,11474
Z" /> 
<path style="fill:#FF080E; fill-opacity:1.0; 
stroke:#FF080E; stroke-width:0; stroke-opacity:1; 
stroke-linecap:round; stroke-linejoin:round;fill-rule:evenodd;"
d="M 37125,11100
37125,11414
36377,11414
36377,11100
37125,11100
Z" /> 
<path style="fill:#FF080E; fill-opacity:1.0; 
stroke:#FF080E; stroke-width:0; stroke-opacity:1; 
stroke-linecap:round; stroke-linejoin:round;fill-rule:evenodd;"
d="M 37125,11848
37125,12163
36377,12163
36377,11848
37125,11848
Z" /> 
</g>
<g >
<path style="fill:#FF080E; fill-opacity:1.0; 
stroke:#FF080E; stroke-width:0; stroke-opacity:1; 
stroke-linecap:round; stroke-linejoin:round;fill-rule:evenodd;"
d="M 36220,13371
36220,13686
35472,13686
35472,13371
36220,13371
Z" /> 
<path style="fill:#FF080E; fill-opacity:1.0; 
stroke:#FF080E; stroke-width:0; stroke-opacity:1; 
stroke-linecap:round; stroke-linejoin:round;fill-rule:evenodd;"
d="M 37401,12997
37401,13312
36653,13312
36653,12997
37401,12997
Z" /> 
<path style="fill:#FF080E; fill-opacity:1.0; 
stroke:#FF080E; stroke-width:0; stroke-opacity:1; 
stroke-linecap:round; stroke-linejoin:round;fill-rule:evenodd;"
d="M 37401,13745
37401,14060
36653,14060
36653,13745
37401,13745
Z" /> 
</g>
<g >
</g>
<g >
<path style="fill:#FF080E; fill-opacity:1.0; 
stroke:#FF080E; stroke-width:0; stroke-opacity:1; 
stroke-linecap:round; stroke-linejoin:round;fill-rule:evenodd;"
d="M 38574,15923
38583,15924
38592,15926
38601,15929
38609,15933
38617,15938
38624,15944
38631,15950
38637,15957
38643,15964
38648,15972
38652,15980
38655,15989
38657,15998
38658,16007
38659,16016
38659,16242
38658,16251
38657,16260
38655,16269
38652,16278
38648,16286
38643,16294
38637,16302
38631,16308
38624,16315
38617,16320
38609,16325
38601,16329
38592,16332
38583,16334
38574,16335
38565,16336
38378,16336
38369,16335
38360,16334
38351,16332
38342,16329
38334,16325
38326,16320
38319,16315
38312,16308
38306,16302
38300,16294
38296,16286
38292,16278
38289,16269
38286,16260
38285,16251
38285,16242
38285,16016
38285,16007
38286,15998
38289,15989
38292,15980
38296,15972
38300,15964
38306,15957
38312,15950
38319,15944
38326,15938
38334,15933
38342,15929
38351,15926
38360,15924
38369,15923
38378,15922
38565,15922
38574,15923
Z" /> 
<path style="fill:#FF080E; fill-opacity:1.0; 
stroke:#FF080E; stroke-width:0; stroke-opacity:1; 
stroke-linecap:round; stroke-linejoin:round;fill-rule:evenodd;"
d="M 38574,15234
38583,15235
38592,15237
38601,15240
38609,15244
38617,15249
38624,15255
38631,15261
38637,15268
38643,15275
38648,15283
38652,15291
38655,15300
38657,15309
38658,15318
38659,15327
38659,15553
38658,15562
38657,15572
38655,15580
38652,15589
38648,15597
38643,15605
38637,15613
38631,15619
38624,15626
38617,15631
38609,15636
38601,15640
38592,15643
38583,15645
38574,15646
38565,15647
38378,15647
38369,15646
38360,15645
38351,15643
38342,15640
38334,15636
38326,15631
38319,15626
38312,15619
38306,15613
38300,15605
38296,15597
38292,15589
38289,15580
38286,15572
38285,15562
38285,15553
38285,15327
38285,15318
38286,15309
38289,15300
38292,15291
38296,15283
38300,15275
38306,15268
38312,15261
38319,15255
38326,15249
38334,15244
38342,15240
38351,15237
38360,15235
38369,15234
38378,15233
38565,15233
38574,15234
Z" /> 
</g>
<g >
</g>
<g >
</g>
<g >
</g>
</g>
<g style="fill:#000000; fill-opacity:1.0; 
stroke:#000000; stroke-width:0; stroke-opacity:1; 
stroke-linecap:round; stroke-linejoin:round;">
</g>
<g style="fill:#C2C200; fill-opacity:1.0; 
stroke:#C2C200; stroke-width:0; stroke-opacity:1; 
stroke-linecap:round; stroke-linejoin:round;">
</g>
<g style="fill:#C2C200; fill-opacity:1.0; 
stroke:#C2C200; stroke-width:59.0551; stroke-opacity:1; 
stroke-linecap:round; stroke-linejoin:round;">
</g>
<g style="fill:#C2C200; fill-opacity:0.0; 
stroke:#C2C200; stroke-width:59.0551; stroke-opacity:1; 
stroke-linecap:round; stroke-linejoin:round;">
<path d="M24070 21568
L50070 21568
" />
<path d="M51070 6668
L50070 5668
" />
<path d="M51070 19568
L51070 6668
" />
<path d="M50070 1168
L49470 568
" />
<path d="M50070 20568
L51070 19568
" />
<path d="M50070 21568
L50070 20568
" />
<path d="M50070 5668
L50070 1168
" />
<path d="M24070 568
L24070 21568
" />
<path d="M49470 568
L24070 568
" />
<g >
</g>
<g >
</g>
<g >
</g>
<g >
</g>
<g >
</g>
<g >
</g>
<g >
</g>
<g >
</g>
<g >
</g>
<g >
</g>
<g >
</g>
<g >
</g>
<g >
</g>
<g >
</g>
<g >
</g>
<g >
</g>
<g >
</g>
<g >
</g>
<g >
</g>
<g >
</g>
<g >
</g>
<g >
</g>
<g >
</g>
<g >
</g>
<g >
</g>
<g >
</g>
<g >
</g>
<g >
</g>
<g >
</g>
<g >
</g>
<g >
</g>
<g >
</g>
<g >
</g>
<g >
</g>
<g >
</g>
<g >
</g>
<g >
</g>
<g >
</g>
<g >
</g>
<g >
</g>
<g >
</g>
<g >
</g>
<g >
</g>
<g >
</g>
<g >
</g>
<g >
</g>
<g >
</g>
<g >
</g>
<g >
</g>
<g >
</g>
<g >
</g>
<g >
</g>
<g >
</g>
<g >
</g>
<g >
</g>
<g >
</g>
<g >
</g>
<g >
</g>
<g >
</g>
<g >
</g>
</g> 
</svg>
