%FSLAX45Y45*%
G04 Gerber Fmt 4.5, Leading zero omitted, Abs format (unit mm)*
G04 Created by KiCad (PCBNEW 5.1.4-e60b266~84~ubuntu16.04.1) date 2019-10-09 19:06:28*
%MOMM*%
%LPD*%
G04 APERTURE LIST*
%ADD10C,0.010000*%
%ADD11C,0.200000*%
%ADD12C,0.300000*%
G04 APERTURE END LIST*
D10*
X7952232Y-10117836D02*
X9284462Y-10117582D01*
X7749032Y-9990074D02*
X7952232Y-10117836D01*
X7555992Y-10117836D02*
X7749032Y-9990074D01*
X7262876Y-11041380D02*
X7262876Y-11010742D01*
X7461511Y-11040364D02*
X7262876Y-11041380D01*
X7308850Y-11280140D02*
X7262876Y-11280394D01*
X7461593Y-11040437D02*
G75*
G02X7308850Y-11280140I-153759J-70539D01*
G01*
X9284551Y-10117582D02*
X9284551Y-10440670D01*
X10200894Y-10440924D02*
X9284462Y-10440670D01*
X14383766Y-10417556D02*
X13282676Y-10416794D01*
X14383766Y-10210038D02*
X14383766Y-10417556D01*
X16777208Y-10211054D02*
X14383766Y-10210038D01*
X16778224Y-12077954D02*
X16777208Y-10211054D01*
X11681460Y-12077954D02*
X16778224Y-12077954D01*
X7263892Y-10117836D02*
X7555992Y-10117836D01*
X7263638Y-10440924D02*
X7263892Y-10117836D01*
X7132548Y-10460365D02*
G75*
G03X7112508Y-10480405I0J-20040D01*
G01*
X7112574Y-10989637D02*
G75*
G03X7131558Y-11010653I20000J-1016D01*
G01*
X7263638Y-10440924D02*
X7263638Y-10460482D01*
X10201148Y-9782810D02*
X10200894Y-10440924D01*
X13282168Y-9784588D02*
X10201148Y-9782810D01*
X13282676Y-10416794D02*
X13282168Y-9784588D01*
X7262876Y-12077954D02*
X11681460Y-12077954D01*
X7262876Y-11280394D02*
X7262876Y-12077954D01*
X7131558Y-11010742D02*
X7262876Y-11010742D01*
X7112508Y-10480294D02*
X7112508Y-10989564D01*
X7263638Y-10460468D02*
X7132574Y-10460228D01*
D11*
X7302820Y-11382314D02*
X7342820Y-11422314D01*
X7342820Y-11382314D02*
X7302820Y-11422314D01*
X7344476Y-11455212D02*
X7384476Y-11495212D01*
X7384476Y-11455212D02*
X7344476Y-11495212D01*
X7352716Y-11311844D02*
X7392716Y-11351844D01*
X7392716Y-11311844D02*
X7352716Y-11351844D01*
X7421692Y-11534206D02*
X7461692Y-11574206D01*
X7461692Y-11534206D02*
X7421692Y-11574206D01*
X7494844Y-11829862D02*
X7534844Y-11869862D01*
X7534844Y-11829862D02*
X7494844Y-11869862D01*
X7525324Y-11754932D02*
X7565324Y-11794932D01*
X7565324Y-11754932D02*
X7525324Y-11794932D01*
X7528681Y-11910435D02*
X7568681Y-11950435D01*
X7568681Y-11910435D02*
X7528681Y-11950435D01*
X7539802Y-11991406D02*
X7579802Y-12031406D01*
X7579802Y-11991406D02*
X7539802Y-12031406D01*
X7852476Y-11382060D02*
X7892476Y-11422060D01*
X7892476Y-11382060D02*
X7852476Y-11422060D01*
X7885750Y-11599484D02*
X7925750Y-11639484D01*
X7925750Y-11599484D02*
X7885750Y-11639484D01*
X7894132Y-11454958D02*
X7934132Y-11494958D01*
X7934132Y-11454958D02*
X7894132Y-11494958D01*
X7902372Y-11311590D02*
X7942372Y-11351590D01*
X7942372Y-11311590D02*
X7902372Y-11351590D01*
X7971348Y-11533952D02*
X8011348Y-11573952D01*
X8011348Y-11533952D02*
X7971348Y-11573952D01*
X8044500Y-11829608D02*
X8084500Y-11869608D01*
X8084500Y-11829608D02*
X8044500Y-11869608D01*
X8074980Y-11754678D02*
X8114980Y-11794678D01*
X8114980Y-11754678D02*
X8074980Y-11794678D01*
X8078337Y-11910181D02*
X8118337Y-11950181D01*
X8118337Y-11910181D02*
X8078337Y-11950181D01*
X8089458Y-11991152D02*
X8129458Y-12031152D01*
X8129458Y-11991152D02*
X8089458Y-12031152D01*
X8105714Y-10827324D02*
X8145714Y-10867324D01*
X8145714Y-10827324D02*
X8105714Y-10867324D01*
X8113334Y-11134410D02*
X8153334Y-11174410D01*
X8153334Y-11134410D02*
X8113334Y-11174410D01*
X8121970Y-10979470D02*
X8161970Y-11019470D01*
X8161970Y-10979470D02*
X8121970Y-11019470D01*
X8166674Y-10737916D02*
X8206674Y-10777916D01*
X8206674Y-10737916D02*
X8166674Y-10777916D01*
X8168706Y-10906572D02*
X8208706Y-10946572D01*
X8208706Y-10906572D02*
X8168706Y-10946572D01*
X8168706Y-11060750D02*
X8208706Y-11100750D01*
X8208706Y-11060750D02*
X8168706Y-11100750D01*
X8228650Y-10527604D02*
X8268650Y-10567604D01*
X8268650Y-10527604D02*
X8228650Y-10567604D01*
X8270306Y-10600502D02*
X8310306Y-10640502D01*
X8310306Y-10600502D02*
X8270306Y-10640502D01*
X8278546Y-10457134D02*
X8318546Y-10497134D01*
X8318546Y-10457134D02*
X8278546Y-10497134D01*
X8347522Y-10679496D02*
X8387522Y-10719496D01*
X8387522Y-10679496D02*
X8347522Y-10719496D01*
X8367588Y-11226612D02*
X8407588Y-11266612D01*
X8407588Y-11226612D02*
X8367588Y-11266612D01*
X8401370Y-11381298D02*
X8441370Y-11421298D01*
X8441370Y-11381298D02*
X8401370Y-11421298D01*
X8420674Y-10975152D02*
X8460674Y-11015152D01*
X8460674Y-10975152D02*
X8420674Y-11015152D01*
X8435406Y-11599230D02*
X8475406Y-11639230D01*
X8475406Y-11599230D02*
X8435406Y-11639230D01*
X8443026Y-11454196D02*
X8483026Y-11494196D01*
X8483026Y-11454196D02*
X8443026Y-11494196D01*
X8451154Y-10900222D02*
X8491154Y-10940222D01*
X8491154Y-10900222D02*
X8451154Y-10940222D01*
X8451266Y-11310828D02*
X8491266Y-11350828D01*
X8491266Y-11310828D02*
X8451266Y-11350828D01*
X8454511Y-11055725D02*
X8494511Y-11095725D01*
X8494511Y-11055725D02*
X8454511Y-11095725D01*
X8465632Y-11136696D02*
X8505632Y-11176696D01*
X8505632Y-11136696D02*
X8465632Y-11176696D01*
X8520242Y-11533190D02*
X8560242Y-11573190D01*
X8560242Y-11533190D02*
X8520242Y-11573190D01*
X8593394Y-11828846D02*
X8633394Y-11868846D01*
X8633394Y-11828846D02*
X8593394Y-11868846D01*
X8623874Y-11753916D02*
X8663874Y-11793916D01*
X8663874Y-11753916D02*
X8623874Y-11793916D01*
X8627231Y-11909419D02*
X8667231Y-11949419D01*
X8667231Y-11909419D02*
X8627231Y-11949419D01*
X8638352Y-11990390D02*
X8678352Y-12030390D01*
X8678352Y-11990390D02*
X8638352Y-12030390D01*
X8778306Y-10527350D02*
X8818306Y-10567350D01*
X8818306Y-10527350D02*
X8778306Y-10567350D01*
X8811580Y-10744774D02*
X8851580Y-10784774D01*
X8851580Y-10744774D02*
X8811580Y-10784774D01*
X8819962Y-10600248D02*
X8859962Y-10640248D01*
X8859962Y-10600248D02*
X8819962Y-10640248D01*
X8828202Y-10456880D02*
X8868202Y-10496880D01*
X8868202Y-10456880D02*
X8828202Y-10496880D01*
X8897178Y-10679242D02*
X8937178Y-10719242D01*
X8937178Y-10679242D02*
X8897178Y-10719242D01*
X8951026Y-11381044D02*
X8991026Y-11421044D01*
X8991026Y-11381044D02*
X8951026Y-11421044D01*
X8970330Y-10974898D02*
X9010330Y-11014898D01*
X9010330Y-10974898D02*
X8970330Y-11014898D01*
X8984300Y-11598468D02*
X9024300Y-11638468D01*
X9024300Y-11598468D02*
X8984300Y-11638468D01*
X8992682Y-11453942D02*
X9032682Y-11493942D01*
X9032682Y-11453942D02*
X8992682Y-11493942D01*
X9000810Y-10899968D02*
X9040810Y-10939968D01*
X9040810Y-10899968D02*
X9000810Y-10939968D01*
X9000922Y-11310574D02*
X9040922Y-11350574D01*
X9040922Y-11310574D02*
X9000922Y-11350574D01*
X9004167Y-11055471D02*
X9044167Y-11095471D01*
X9044167Y-11055471D02*
X9004167Y-11095471D01*
X9015288Y-11136442D02*
X9055288Y-11176442D01*
X9055288Y-11136442D02*
X9015288Y-11176442D01*
X9069898Y-11532936D02*
X9109898Y-11572936D01*
X9109898Y-11532936D02*
X9069898Y-11572936D01*
X9143050Y-11828592D02*
X9183050Y-11868592D01*
X9183050Y-11828592D02*
X9143050Y-11868592D01*
X9173530Y-11753662D02*
X9213530Y-11793662D01*
X9213530Y-11753662D02*
X9173530Y-11793662D01*
X9176887Y-11909165D02*
X9216887Y-11949165D01*
X9216887Y-11909165D02*
X9176887Y-11949165D01*
X9188008Y-11990136D02*
X9228008Y-12030136D01*
X9228008Y-11990136D02*
X9188008Y-12030136D01*
X9361236Y-10744520D02*
X9401236Y-10784520D01*
X9401236Y-10744520D02*
X9361236Y-10784520D01*
X9499920Y-11380028D02*
X9539920Y-11420028D01*
X9539920Y-11380028D02*
X9499920Y-11420028D01*
X9533956Y-11598214D02*
X9573956Y-11638214D01*
X9573956Y-11598214D02*
X9533956Y-11638214D01*
X9541576Y-11452926D02*
X9581576Y-11492926D01*
X9581576Y-11452926D02*
X9541576Y-11492926D01*
X9549816Y-11309558D02*
X9589816Y-11349558D01*
X9589816Y-11309558D02*
X9549816Y-11349558D01*
X9618792Y-11531920D02*
X9658792Y-11571920D01*
X9658792Y-11531920D02*
X9618792Y-11571920D01*
X9691944Y-11827576D02*
X9731944Y-11867576D01*
X9731944Y-11827576D02*
X9691944Y-11867576D01*
X9722424Y-11752646D02*
X9762424Y-11792646D01*
X9762424Y-11752646D02*
X9722424Y-11792646D01*
X9725781Y-11908149D02*
X9765781Y-11948149D01*
X9765781Y-11908149D02*
X9725781Y-11948149D01*
X9736902Y-11989120D02*
X9776902Y-12029120D01*
X9776902Y-11989120D02*
X9736902Y-12029120D01*
X10049576Y-11379774D02*
X10089576Y-11419774D01*
X10089576Y-11379774D02*
X10049576Y-11419774D01*
X10082850Y-11597198D02*
X10122850Y-11637198D01*
X10122850Y-11597198D02*
X10082850Y-11637198D01*
X10091232Y-11452672D02*
X10131232Y-11492672D01*
X10131232Y-11452672D02*
X10091232Y-11492672D01*
X10099472Y-11309304D02*
X10139472Y-11349304D01*
X10139472Y-11309304D02*
X10099472Y-11349304D01*
X10129840Y-10522270D02*
X10169840Y-10562270D01*
X10169840Y-10522270D02*
X10129840Y-10562270D01*
X10168448Y-11531666D02*
X10208448Y-11571666D01*
X10208448Y-11531666D02*
X10168448Y-11571666D01*
X10216200Y-10460040D02*
X10256200Y-10500040D01*
X10256200Y-10460040D02*
X10216200Y-10500040D01*
X10241600Y-11827322D02*
X10281600Y-11867322D01*
X10281600Y-11827322D02*
X10241600Y-11867322D01*
X10260142Y-10595930D02*
X10300142Y-10635930D01*
X10300142Y-10595930D02*
X10260142Y-10635930D01*
X10272080Y-11752392D02*
X10312080Y-11792392D01*
X10312080Y-11752392D02*
X10272080Y-11792392D01*
X10275437Y-11907895D02*
X10315437Y-11947895D01*
X10315437Y-11907895D02*
X10275437Y-11947895D01*
X10286558Y-11988866D02*
X10326558Y-12028866D01*
X10326558Y-11988866D02*
X10286558Y-12028866D01*
X10289860Y-10672892D02*
X10329860Y-10712892D01*
X10329860Y-10672892D02*
X10289860Y-10712892D01*
X10321864Y-10969818D02*
X10361864Y-11009818D01*
X10361864Y-10969818D02*
X10321864Y-11009818D01*
X10352344Y-10894888D02*
X10392344Y-10934888D01*
X10392344Y-10894888D02*
X10352344Y-10934888D01*
X10355701Y-11050391D02*
X10395701Y-11090391D01*
X10395701Y-11050391D02*
X10355701Y-11090391D01*
X10366822Y-11131362D02*
X10406822Y-11171362D01*
X10406822Y-11131362D02*
X10366822Y-11171362D01*
X10599486Y-11380536D02*
X10639486Y-11420536D01*
X10639486Y-11380536D02*
X10599486Y-11420536D01*
X10632506Y-11596944D02*
X10672506Y-11636944D01*
X10672506Y-11596944D02*
X10632506Y-11636944D01*
X10641142Y-11453434D02*
X10681142Y-11493434D01*
X10681142Y-11453434D02*
X10641142Y-11493434D01*
X10649382Y-11310066D02*
X10689382Y-11350066D01*
X10689382Y-11310066D02*
X10649382Y-11350066D01*
X10679496Y-10522016D02*
X10719496Y-10562016D01*
X10719496Y-10522016D02*
X10679496Y-10562016D01*
X10712770Y-10739440D02*
X10752770Y-10779440D01*
X10752770Y-10739440D02*
X10712770Y-10779440D01*
X10718358Y-11532428D02*
X10758358Y-11572428D01*
X10758358Y-11532428D02*
X10718358Y-11572428D01*
X10721152Y-10594914D02*
X10761152Y-10634914D01*
X10761152Y-10594914D02*
X10721152Y-10634914D01*
X10729392Y-10451546D02*
X10769392Y-10491546D01*
X10769392Y-10451546D02*
X10729392Y-10491546D01*
X10791510Y-11828084D02*
X10831510Y-11868084D01*
X10831510Y-11828084D02*
X10791510Y-11868084D01*
X10798368Y-10673908D02*
X10838368Y-10713908D01*
X10838368Y-10673908D02*
X10798368Y-10713908D01*
X10821990Y-11753154D02*
X10861990Y-11793154D01*
X10861990Y-11753154D02*
X10821990Y-11793154D01*
X10825347Y-11908657D02*
X10865347Y-11948657D01*
X10865347Y-11908657D02*
X10825347Y-11948657D01*
X10836468Y-11989628D02*
X10876468Y-12029628D01*
X10876468Y-11989628D02*
X10836468Y-12029628D01*
X10871520Y-10969564D02*
X10911520Y-11009564D01*
X10911520Y-10969564D02*
X10871520Y-11009564D01*
X10902000Y-10894634D02*
X10942000Y-10934634D01*
X10942000Y-10894634D02*
X10902000Y-10934634D01*
X10905357Y-11050137D02*
X10945357Y-11090137D01*
X10945357Y-11050137D02*
X10905357Y-11090137D01*
X10916478Y-11131108D02*
X10956478Y-11171108D01*
X10956478Y-11131108D02*
X10916478Y-11171108D01*
X11089452Y-11311956D02*
X11129452Y-11351956D01*
X11129452Y-11311956D02*
X11089452Y-11351956D01*
X11129838Y-10778810D02*
X11169838Y-10818810D01*
X11169838Y-10778810D02*
X11129838Y-10818810D01*
X11150412Y-11384346D02*
X11190412Y-11424346D01*
X11190412Y-11384346D02*
X11150412Y-11424346D01*
X11199180Y-11452926D02*
X11239180Y-11492926D01*
X11239180Y-11452926D02*
X11199180Y-11492926D01*
X11225342Y-11831386D02*
X11265342Y-11871386D01*
X11265342Y-11831386D02*
X11225342Y-11871386D01*
X11227628Y-10526842D02*
X11267628Y-10566842D01*
X11267628Y-10526842D02*
X11227628Y-10566842D01*
X11228898Y-11599738D02*
X11268898Y-11639738D01*
X11268898Y-11599738D02*
X11228898Y-11639738D01*
X11249726Y-11517696D02*
X11289726Y-11557696D01*
X11289726Y-11517696D02*
X11249726Y-11557696D01*
X11255568Y-11909618D02*
X11295568Y-11949618D01*
X11295568Y-11909618D02*
X11255568Y-11949618D01*
X11256330Y-11751376D02*
X11296330Y-11791376D01*
X11296330Y-11751376D02*
X11256330Y-11791376D01*
X11280968Y-11990136D02*
X11320968Y-12030136D01*
X11320968Y-11990136D02*
X11280968Y-12030136D01*
X11284778Y-11660952D02*
X11324778Y-11700952D01*
X11324778Y-11660952D02*
X11284778Y-11700952D01*
X11317290Y-10511856D02*
X11357290Y-10551856D01*
X11357290Y-10511856D02*
X11317290Y-10551856D01*
X11377488Y-10569514D02*
X11417488Y-10609514D01*
X11417488Y-10569514D02*
X11377488Y-10609514D01*
X11467658Y-10618790D02*
X11507658Y-10658790D01*
X11507658Y-10618790D02*
X11467658Y-10658790D01*
X11520236Y-10722422D02*
X11560236Y-10762422D01*
X11560236Y-10722422D02*
X11520236Y-10762422D01*
X11553510Y-10976422D02*
X11593510Y-11016422D01*
X11593510Y-10976422D02*
X11553510Y-11016422D01*
X11558336Y-10860344D02*
X11598336Y-10900344D01*
X11598336Y-10860344D02*
X11558336Y-10900344D01*
X11580688Y-11111042D02*
X11620688Y-11151042D01*
X11620688Y-11111042D02*
X11580688Y-11151042D01*
X11612946Y-11210356D02*
X11652946Y-11250356D01*
X11652946Y-11210356D02*
X11612946Y-11250356D01*
X11801160Y-10834182D02*
X11841160Y-10874182D01*
X11841160Y-10834182D02*
X11801160Y-10874182D01*
X11869994Y-10752902D02*
X11909994Y-10792902D01*
X11909994Y-10752902D02*
X11869994Y-10792902D01*
X11909872Y-11716324D02*
X11949872Y-11756324D01*
X11949872Y-11716324D02*
X11909872Y-11756324D01*
X11937558Y-10704134D02*
X11977558Y-10744134D01*
X11977558Y-10704134D02*
X11937558Y-10744134D01*
X11958132Y-11643172D02*
X11998132Y-11683172D01*
X11998132Y-11643172D02*
X11958132Y-11683172D01*
X12014520Y-10649270D02*
X12054520Y-10689270D01*
X12054520Y-10649270D02*
X12014520Y-10689270D01*
X12039412Y-11640378D02*
X12079412Y-11680378D01*
X12079412Y-11640378D02*
X12039412Y-11680378D01*
X12056684Y-10379776D02*
X12096684Y-10419776D01*
X12096684Y-10379776D02*
X12056684Y-10419776D01*
X12084878Y-10571038D02*
X12124878Y-10611038D01*
X12124878Y-10571038D02*
X12084878Y-10611038D01*
X12101388Y-11570274D02*
X12141388Y-11610274D01*
X12141388Y-11570274D02*
X12101388Y-11610274D01*
X12139488Y-10337612D02*
X12179488Y-10377612D01*
X12179488Y-10337612D02*
X12139488Y-10377612D01*
X12199940Y-11602278D02*
X12239940Y-11642278D01*
X12239940Y-11602278D02*
X12199940Y-11642278D01*
X12241342Y-10313736D02*
X12281342Y-10353736D01*
X12281342Y-10313736D02*
X12241342Y-10353736D01*
X12250740Y-11454704D02*
X12290740Y-11494704D01*
X12290740Y-11454704D02*
X12250740Y-11494704D01*
X12304080Y-11527348D02*
X12344080Y-11567348D01*
X12344080Y-11527348D02*
X12304080Y-11567348D01*
X12321606Y-11343960D02*
X12361606Y-11383960D01*
X12361606Y-11343960D02*
X12321606Y-11383960D01*
X12365548Y-10395270D02*
X12405548Y-10435270D01*
X12405548Y-10395270D02*
X12365548Y-10435270D01*
X12365548Y-10395270D02*
X12405548Y-10435270D01*
X12405548Y-10395270D02*
X12365548Y-10435270D01*
X12373422Y-11278682D02*
X12413422Y-11318682D01*
X12413422Y-11278682D02*
X12373422Y-11318682D01*
X12409490Y-10498902D02*
X12449490Y-10538902D01*
X12449490Y-10498902D02*
X12409490Y-10538902D01*
X12409490Y-10498902D02*
X12449490Y-10538902D01*
X12449490Y-10498902D02*
X12409490Y-10538902D01*
X12432858Y-10978708D02*
X12472858Y-11018708D01*
X12472858Y-10978708D02*
X12432858Y-11018708D01*
X12450892Y-10376982D02*
X12490892Y-10416982D01*
X12490892Y-10376982D02*
X12450892Y-10416982D01*
X12463338Y-10903778D02*
X12503338Y-10943778D01*
X12503338Y-10903778D02*
X12463338Y-10943778D01*
X12466695Y-11059281D02*
X12506695Y-11099281D01*
X12506695Y-11059281D02*
X12466695Y-11099281D01*
X12470450Y-10271572D02*
X12510450Y-10311572D01*
X12510450Y-10271572D02*
X12470450Y-10311572D01*
X12477816Y-11140252D02*
X12517816Y-11180252D01*
X12517816Y-11140252D02*
X12477816Y-11180252D01*
X12519726Y-11989120D02*
X12559726Y-12029120D01*
X12559726Y-11989120D02*
X12519726Y-12029120D01*
X12574590Y-11819956D02*
X12614590Y-11859956D01*
X12614590Y-11819956D02*
X12574590Y-11859956D01*
X12688128Y-11775252D02*
X12728128Y-11815252D01*
X12728128Y-11775252D02*
X12688128Y-11815252D01*
X12790490Y-10530906D02*
X12830490Y-10570906D01*
X12830490Y-10530906D02*
X12790490Y-10570906D01*
X12823764Y-10748330D02*
X12863764Y-10788330D01*
X12863764Y-10748330D02*
X12823764Y-10788330D01*
X12832146Y-10603804D02*
X12872146Y-10643804D01*
X12872146Y-10603804D02*
X12832146Y-10643804D01*
X12840386Y-10460436D02*
X12880386Y-10500436D01*
X12880386Y-10460436D02*
X12840386Y-10500436D01*
X12842306Y-11382060D02*
X12882306Y-11422060D01*
X12882306Y-11382060D02*
X12842306Y-11422060D01*
X12875580Y-11599484D02*
X12915580Y-11639484D01*
X12915580Y-11599484D02*
X12875580Y-11639484D01*
X12883962Y-11454958D02*
X12923962Y-11494958D01*
X12923962Y-11454958D02*
X12883962Y-11494958D01*
X12892202Y-11311590D02*
X12932202Y-11351590D01*
X12932202Y-11311590D02*
X12892202Y-11351590D01*
X12909362Y-10682798D02*
X12949362Y-10722798D01*
X12949362Y-10682798D02*
X12909362Y-10722798D01*
X12961178Y-11533952D02*
X13001178Y-11573952D01*
X13001178Y-11533952D02*
X12961178Y-11573952D01*
X12982514Y-10978454D02*
X13022514Y-11018454D01*
X13022514Y-10978454D02*
X12982514Y-11018454D01*
X13012994Y-10903524D02*
X13052994Y-10943524D01*
X13052994Y-10903524D02*
X13012994Y-10943524D01*
X13016351Y-11059027D02*
X13056351Y-11099027D01*
X13056351Y-11059027D02*
X13016351Y-11099027D01*
X13027472Y-11139998D02*
X13067472Y-11179998D01*
X13067472Y-11139998D02*
X13027472Y-11179998D01*
X13034330Y-11829608D02*
X13074330Y-11869608D01*
X13074330Y-11829608D02*
X13034330Y-11869608D01*
X13064810Y-11754678D02*
X13104810Y-11794678D01*
X13104810Y-11754678D02*
X13064810Y-11794678D01*
X13068167Y-11910181D02*
X13108167Y-11950181D01*
X13108167Y-11910181D02*
X13068167Y-11950181D01*
X13079288Y-11991152D02*
X13119288Y-12031152D01*
X13119288Y-11991152D02*
X13079288Y-12031152D01*
X13373420Y-10748076D02*
X13413420Y-10788076D01*
X13413420Y-10748076D02*
X13373420Y-10788076D01*
X13391200Y-11381298D02*
X13431200Y-11421298D01*
X13431200Y-11381298D02*
X13391200Y-11421298D01*
X13425236Y-11599230D02*
X13465236Y-11639230D01*
X13465236Y-11599230D02*
X13425236Y-11639230D01*
X13432856Y-11454196D02*
X13472856Y-11494196D01*
X13472856Y-11454196D02*
X13432856Y-11494196D01*
X13441096Y-11310828D02*
X13481096Y-11350828D01*
X13481096Y-11310828D02*
X13441096Y-11350828D01*
X13510072Y-11533190D02*
X13550072Y-11573190D01*
X13550072Y-11533190D02*
X13510072Y-11573190D01*
X13583224Y-11828846D02*
X13623224Y-11868846D01*
X13623224Y-11828846D02*
X13583224Y-11868846D01*
X13613704Y-11753916D02*
X13653704Y-11793916D01*
X13653704Y-11753916D02*
X13613704Y-11793916D01*
X13617061Y-11909419D02*
X13657061Y-11949419D01*
X13657061Y-11909419D02*
X13617061Y-11949419D01*
X13628182Y-11990390D02*
X13668182Y-12030390D01*
X13668182Y-11990390D02*
X13628182Y-12030390D01*
X13974130Y-11598468D02*
X14014130Y-11638468D01*
X14014130Y-11598468D02*
X13974130Y-11638468D01*
X13982512Y-11453942D02*
X14022512Y-11493942D01*
X14022512Y-11453942D02*
X13982512Y-11493942D01*
X13986068Y-11369614D02*
X14026068Y-11409614D01*
X14026068Y-11369614D02*
X13986068Y-11409614D01*
X14022390Y-11276396D02*
X14062390Y-11316396D01*
X14062390Y-11276396D02*
X14022390Y-11316396D01*
X14059728Y-11532936D02*
X14099728Y-11572936D01*
X14099728Y-11532936D02*
X14059728Y-11572936D01*
X14132880Y-11828592D02*
X14172880Y-11868592D01*
X14172880Y-11828592D02*
X14132880Y-11868592D01*
X14163360Y-11753662D02*
X14203360Y-11793662D01*
X14203360Y-11753662D02*
X14163360Y-11793662D01*
X14166717Y-11909165D02*
X14206717Y-11949165D01*
X14206717Y-11909165D02*
X14166717Y-11949165D01*
X14177838Y-11990136D02*
X14217838Y-12030136D01*
X14217838Y-11990136D02*
X14177838Y-12030136D01*
X14277660Y-10527350D02*
X14317660Y-10567350D01*
X14317660Y-10527350D02*
X14277660Y-10567350D01*
X14319316Y-10600248D02*
X14359316Y-10640248D01*
X14359316Y-10600248D02*
X14319316Y-10640248D01*
X14327556Y-10456880D02*
X14367556Y-10496880D01*
X14367556Y-10456880D02*
X14327556Y-10496880D01*
X14396532Y-10679242D02*
X14436532Y-10719242D01*
X14436532Y-10679242D02*
X14396532Y-10719242D01*
X14469684Y-10974898D02*
X14509684Y-11014898D01*
X14509684Y-10974898D02*
X14469684Y-11014898D01*
X14489750Y-11380028D02*
X14529750Y-11420028D01*
X14529750Y-11380028D02*
X14489750Y-11420028D01*
X14500164Y-10899968D02*
X14540164Y-10939968D01*
X14540164Y-10899968D02*
X14500164Y-10939968D01*
X14503521Y-11055471D02*
X14543521Y-11095471D01*
X14543521Y-11055471D02*
X14503521Y-11095471D01*
X14514642Y-11136442D02*
X14554642Y-11176442D01*
X14554642Y-11136442D02*
X14514642Y-11176442D01*
X14523786Y-11598214D02*
X14563786Y-11638214D01*
X14563786Y-11598214D02*
X14523786Y-11638214D01*
X14531406Y-11452926D02*
X14571406Y-11492926D01*
X14571406Y-11452926D02*
X14531406Y-11492926D01*
X14539646Y-11309558D02*
X14579646Y-11349558D01*
X14579646Y-11309558D02*
X14539646Y-11349558D01*
X14608622Y-11531920D02*
X14648622Y-11571920D01*
X14648622Y-11531920D02*
X14608622Y-11571920D01*
X14681774Y-11827576D02*
X14721774Y-11867576D01*
X14721774Y-11827576D02*
X14681774Y-11867576D01*
X14712254Y-11752646D02*
X14752254Y-11792646D01*
X14752254Y-11752646D02*
X14712254Y-11792646D01*
X14715611Y-11908149D02*
X14755611Y-11948149D01*
X14755611Y-11908149D02*
X14715611Y-11948149D01*
X14726732Y-11989120D02*
X14766732Y-12029120D01*
X14766732Y-11989120D02*
X14726732Y-12029120D01*
X14827316Y-10527096D02*
X14867316Y-10567096D01*
X14867316Y-10527096D02*
X14827316Y-10567096D01*
X14860590Y-10744520D02*
X14900590Y-10784520D01*
X14900590Y-10744520D02*
X14860590Y-10784520D01*
X14868972Y-10599994D02*
X14908972Y-10639994D01*
X14908972Y-10599994D02*
X14868972Y-10639994D01*
X14877212Y-10456626D02*
X14917212Y-10496626D01*
X14917212Y-10456626D02*
X14877212Y-10496626D01*
X14946188Y-10678988D02*
X14986188Y-10718988D01*
X14986188Y-10678988D02*
X14946188Y-10718988D01*
X15019340Y-10974644D02*
X15059340Y-11014644D01*
X15059340Y-10974644D02*
X15019340Y-11014644D01*
X15039406Y-11379774D02*
X15079406Y-11419774D01*
X15079406Y-11379774D02*
X15039406Y-11419774D01*
X15049820Y-10899714D02*
X15089820Y-10939714D01*
X15089820Y-10899714D02*
X15049820Y-10939714D01*
X15053177Y-11055217D02*
X15093177Y-11095217D01*
X15093177Y-11055217D02*
X15053177Y-11095217D01*
X15064298Y-11136188D02*
X15104298Y-11176188D01*
X15104298Y-11136188D02*
X15064298Y-11176188D01*
X15072680Y-11597198D02*
X15112680Y-11637198D01*
X15112680Y-11597198D02*
X15072680Y-11637198D01*
X15081062Y-11452672D02*
X15121062Y-11492672D01*
X15121062Y-11452672D02*
X15081062Y-11492672D01*
X15089302Y-11309304D02*
X15129302Y-11349304D01*
X15129302Y-11309304D02*
X15089302Y-11349304D01*
X15158278Y-11531666D02*
X15198278Y-11571666D01*
X15198278Y-11531666D02*
X15158278Y-11571666D01*
X15231430Y-11827322D02*
X15271430Y-11867322D01*
X15271430Y-11827322D02*
X15231430Y-11867322D01*
X15261910Y-11752392D02*
X15301910Y-11792392D01*
X15301910Y-11752392D02*
X15261910Y-11792392D01*
X15265267Y-11907895D02*
X15305267Y-11947895D01*
X15305267Y-11907895D02*
X15265267Y-11947895D01*
X15276388Y-11988866D02*
X15316388Y-12028866D01*
X15316388Y-11988866D02*
X15276388Y-12028866D01*
X15376210Y-10526080D02*
X15416210Y-10566080D01*
X15416210Y-10526080D02*
X15376210Y-10566080D01*
X15410246Y-10744266D02*
X15450246Y-10784266D01*
X15450246Y-10744266D02*
X15410246Y-10784266D01*
X15417866Y-10598978D02*
X15457866Y-10638978D01*
X15457866Y-10598978D02*
X15417866Y-10638978D01*
X15426106Y-10455610D02*
X15466106Y-10495610D01*
X15466106Y-10455610D02*
X15426106Y-10495610D01*
X15495082Y-10677972D02*
X15535082Y-10717972D01*
X15535082Y-10677972D02*
X15495082Y-10717972D01*
X15568234Y-10973628D02*
X15608234Y-11013628D01*
X15608234Y-10973628D02*
X15568234Y-11013628D01*
X15589316Y-11380536D02*
X15629316Y-11420536D01*
X15629316Y-11380536D02*
X15589316Y-11420536D01*
X15598714Y-10898698D02*
X15638714Y-10938698D01*
X15638714Y-10898698D02*
X15598714Y-10938698D01*
X15602071Y-11054201D02*
X15642071Y-11094201D01*
X15642071Y-11054201D02*
X15602071Y-11094201D01*
X15613192Y-11135172D02*
X15653192Y-11175172D01*
X15653192Y-11135172D02*
X15613192Y-11175172D01*
X15622336Y-11596944D02*
X15662336Y-11636944D01*
X15662336Y-11596944D02*
X15622336Y-11636944D01*
X15630972Y-11453434D02*
X15670972Y-11493434D01*
X15670972Y-11453434D02*
X15630972Y-11493434D01*
X15639212Y-11310066D02*
X15679212Y-11350066D01*
X15679212Y-11310066D02*
X15639212Y-11350066D01*
X15708188Y-11532428D02*
X15748188Y-11572428D01*
X15748188Y-11532428D02*
X15708188Y-11572428D01*
X15781340Y-11828084D02*
X15821340Y-11868084D01*
X15821340Y-11828084D02*
X15781340Y-11868084D01*
X15811820Y-11753154D02*
X15851820Y-11793154D01*
X15851820Y-11753154D02*
X15811820Y-11793154D01*
X15815177Y-11908657D02*
X15855177Y-11948657D01*
X15855177Y-11908657D02*
X15815177Y-11948657D01*
X15826298Y-11989628D02*
X15866298Y-12029628D01*
X15866298Y-11989628D02*
X15826298Y-12029628D01*
X15925866Y-10525826D02*
X15965866Y-10565826D01*
X15965866Y-10525826D02*
X15925866Y-10565826D01*
X15959140Y-10743250D02*
X15999140Y-10783250D01*
X15999140Y-10743250D02*
X15959140Y-10783250D01*
X15967522Y-10598724D02*
X16007522Y-10638724D01*
X16007522Y-10598724D02*
X15967522Y-10638724D01*
X15975762Y-10455356D02*
X16015762Y-10495356D01*
X16015762Y-10455356D02*
X15975762Y-10495356D01*
X16044738Y-10677718D02*
X16084738Y-10717718D01*
X16084738Y-10677718D02*
X16044738Y-10717718D01*
X16117890Y-10973374D02*
X16157890Y-11013374D01*
X16157890Y-10973374D02*
X16117890Y-11013374D01*
X16138972Y-11380282D02*
X16178972Y-11420282D01*
X16178972Y-11380282D02*
X16138972Y-11420282D01*
X16148370Y-10898444D02*
X16188370Y-10938444D01*
X16188370Y-10898444D02*
X16148370Y-10938444D01*
X16151727Y-11053947D02*
X16191727Y-11093947D01*
X16191727Y-11053947D02*
X16151727Y-11093947D01*
X16162848Y-11134918D02*
X16202848Y-11174918D01*
X16202848Y-11134918D02*
X16162848Y-11174918D01*
X16172246Y-11597706D02*
X16212246Y-11637706D01*
X16212246Y-11597706D02*
X16172246Y-11637706D01*
X16180628Y-11453180D02*
X16220628Y-11493180D01*
X16220628Y-11453180D02*
X16180628Y-11493180D01*
X16188868Y-11309812D02*
X16228868Y-11349812D01*
X16228868Y-11309812D02*
X16188868Y-11349812D01*
X16257844Y-11532174D02*
X16297844Y-11572174D01*
X16297844Y-11532174D02*
X16257844Y-11572174D01*
X16330996Y-11827830D02*
X16370996Y-11867830D01*
X16370996Y-11827830D02*
X16330996Y-11867830D01*
X16361476Y-11752900D02*
X16401476Y-11792900D01*
X16401476Y-11752900D02*
X16361476Y-11792900D01*
X16364833Y-11908403D02*
X16404833Y-11948403D01*
X16404833Y-11908403D02*
X16364833Y-11948403D01*
X16375954Y-11989374D02*
X16415954Y-12029374D01*
X16415954Y-11989374D02*
X16375954Y-12029374D01*
X16508796Y-10742996D02*
X16548796Y-10782996D01*
X16548796Y-10742996D02*
X16508796Y-10782996D01*
X16688120Y-11619042D02*
X16728120Y-11659042D01*
X16728120Y-11619042D02*
X16688120Y-11659042D01*
D12*
X7398436Y-12544168D02*
X7398436Y-12244168D01*
X7469865Y-12244168D01*
X7512722Y-12258454D01*
X7541294Y-12287025D01*
X7555579Y-12315597D01*
X7569865Y-12372740D01*
X7569865Y-12415597D01*
X7555579Y-12472740D01*
X7541294Y-12501311D01*
X7512722Y-12529883D01*
X7469865Y-12544168D01*
X7398436Y-12544168D01*
X7698436Y-12544168D02*
X7698436Y-12344168D01*
X7698436Y-12401311D02*
X7712722Y-12372740D01*
X7727008Y-12358454D01*
X7755579Y-12344168D01*
X7784151Y-12344168D01*
X7884151Y-12544168D02*
X7884151Y-12344168D01*
X7884151Y-12244168D02*
X7869865Y-12258454D01*
X7884151Y-12272740D01*
X7898436Y-12258454D01*
X7884151Y-12244168D01*
X7884151Y-12272740D01*
X8069865Y-12544168D02*
X8041294Y-12529883D01*
X8027008Y-12501311D01*
X8027008Y-12244168D01*
X8227008Y-12544168D02*
X8198436Y-12529883D01*
X8184151Y-12501311D01*
X8184151Y-12244168D01*
X8569865Y-12544168D02*
X8569865Y-12244168D01*
X8669865Y-12458454D01*
X8769865Y-12244168D01*
X8769865Y-12544168D01*
X9041294Y-12544168D02*
X9041294Y-12387025D01*
X9027008Y-12358454D01*
X8998436Y-12344168D01*
X8941294Y-12344168D01*
X8912722Y-12358454D01*
X9041294Y-12529883D02*
X9012722Y-12544168D01*
X8941294Y-12544168D01*
X8912722Y-12529883D01*
X8898436Y-12501311D01*
X8898436Y-12472740D01*
X8912722Y-12444168D01*
X8941294Y-12429883D01*
X9012722Y-12429883D01*
X9041294Y-12415597D01*
X9184151Y-12344168D02*
X9184151Y-12644168D01*
X9184151Y-12358454D02*
X9212722Y-12344168D01*
X9269865Y-12344168D01*
X9298436Y-12358454D01*
X9312722Y-12372740D01*
X9327008Y-12401311D01*
X9327008Y-12487025D01*
X9312722Y-12515597D01*
X9298436Y-12529883D01*
X9269865Y-12544168D01*
X9212722Y-12544168D01*
X9184151Y-12529883D01*
X9455579Y-12515597D02*
X9469865Y-12529883D01*
X9455579Y-12544168D01*
X9441294Y-12529883D01*
X9455579Y-12515597D01*
X9455579Y-12544168D01*
X9455579Y-12358454D02*
X9469865Y-12372740D01*
X9455579Y-12387025D01*
X9441294Y-12372740D01*
X9455579Y-12358454D01*
X9455579Y-12387025D01*
X7072008Y-13018454D02*
X7112008Y-13058454D01*
X7112008Y-13018454D02*
X7072008Y-13058454D01*
X7455579Y-12874168D02*
X7484151Y-12874168D01*
X7512722Y-12888454D01*
X7527008Y-12902740D01*
X7541294Y-12931311D01*
X7555579Y-12988454D01*
X7555579Y-13059883D01*
X7541294Y-13117025D01*
X7527008Y-13145597D01*
X7512722Y-13159883D01*
X7484151Y-13174168D01*
X7455579Y-13174168D01*
X7427008Y-13159883D01*
X7412722Y-13145597D01*
X7398436Y-13117025D01*
X7384151Y-13059883D01*
X7384151Y-12988454D01*
X7398436Y-12931311D01*
X7412722Y-12902740D01*
X7427008Y-12888454D01*
X7455579Y-12874168D01*
X7684151Y-13145597D02*
X7698436Y-13159883D01*
X7684151Y-13174168D01*
X7669865Y-13159883D01*
X7684151Y-13145597D01*
X7684151Y-13174168D01*
X7955579Y-12974168D02*
X7955579Y-13174168D01*
X7884151Y-12859883D02*
X7812722Y-13074168D01*
X7998436Y-13074168D01*
X8169865Y-12874168D02*
X8198436Y-12874168D01*
X8227008Y-12888454D01*
X8241294Y-12902740D01*
X8255579Y-12931311D01*
X8269865Y-12988454D01*
X8269865Y-13059883D01*
X8255579Y-13117025D01*
X8241294Y-13145597D01*
X8227008Y-13159883D01*
X8198436Y-13174168D01*
X8169865Y-13174168D01*
X8141294Y-13159883D01*
X8127008Y-13145597D01*
X8112722Y-13117025D01*
X8098436Y-13059883D01*
X8098436Y-12988454D01*
X8112722Y-12931311D01*
X8127008Y-12902740D01*
X8141294Y-12888454D01*
X8169865Y-12874168D01*
X8398436Y-13174168D02*
X8398436Y-12974168D01*
X8398436Y-13002740D02*
X8412722Y-12988454D01*
X8441294Y-12974168D01*
X8484151Y-12974168D01*
X8512722Y-12988454D01*
X8527008Y-13017025D01*
X8527008Y-13174168D01*
X8527008Y-13017025D02*
X8541294Y-12988454D01*
X8569865Y-12974168D01*
X8612722Y-12974168D01*
X8641294Y-12988454D01*
X8655579Y-13017025D01*
X8655579Y-13174168D01*
X8798436Y-13174168D02*
X8798436Y-12974168D01*
X8798436Y-13002740D02*
X8812722Y-12988454D01*
X8841294Y-12974168D01*
X8884151Y-12974168D01*
X8912722Y-12988454D01*
X8927008Y-13017025D01*
X8927008Y-13174168D01*
X8927008Y-13017025D02*
X8941294Y-12988454D01*
X8969865Y-12974168D01*
X9012722Y-12974168D01*
X9041294Y-12988454D01*
X9055579Y-13017025D01*
X9055579Y-13174168D01*
X9641294Y-12859883D02*
X9384151Y-13245597D01*
X10027008Y-12874168D02*
X10055579Y-12874168D01*
X10084151Y-12888454D01*
X10098436Y-12902740D01*
X10112722Y-12931311D01*
X10127008Y-12988454D01*
X10127008Y-13059883D01*
X10112722Y-13117025D01*
X10098436Y-13145597D01*
X10084151Y-13159883D01*
X10055579Y-13174168D01*
X10027008Y-13174168D01*
X9998436Y-13159883D01*
X9984151Y-13145597D01*
X9969865Y-13117025D01*
X9955579Y-13059883D01*
X9955579Y-12988454D01*
X9969865Y-12931311D01*
X9984151Y-12902740D01*
X9998436Y-12888454D01*
X10027008Y-12874168D01*
X10255579Y-13145597D02*
X10269865Y-13159883D01*
X10255579Y-13174168D01*
X10241294Y-13159883D01*
X10255579Y-13145597D01*
X10255579Y-13174168D01*
X10455579Y-12874168D02*
X10484151Y-12874168D01*
X10512722Y-12888454D01*
X10527008Y-12902740D01*
X10541294Y-12931311D01*
X10555579Y-12988454D01*
X10555579Y-13059883D01*
X10541294Y-13117025D01*
X10527008Y-13145597D01*
X10512722Y-13159883D01*
X10484151Y-13174168D01*
X10455579Y-13174168D01*
X10427008Y-13159883D01*
X10412722Y-13145597D01*
X10398436Y-13117025D01*
X10384151Y-13059883D01*
X10384151Y-12988454D01*
X10398436Y-12931311D01*
X10412722Y-12902740D01*
X10427008Y-12888454D01*
X10455579Y-12874168D01*
X10841294Y-13174168D02*
X10669865Y-13174168D01*
X10755579Y-13174168D02*
X10755579Y-12874168D01*
X10727008Y-12917025D01*
X10698436Y-12945597D01*
X10669865Y-12959883D01*
X11098436Y-12874168D02*
X11041294Y-12874168D01*
X11012722Y-12888454D01*
X10998436Y-12902740D01*
X10969865Y-12945597D01*
X10955579Y-13002740D01*
X10955579Y-13117025D01*
X10969865Y-13145597D01*
X10984151Y-13159883D01*
X11012722Y-13174168D01*
X11069865Y-13174168D01*
X11098436Y-13159883D01*
X11112722Y-13145597D01*
X11127008Y-13117025D01*
X11127008Y-13045597D01*
X11112722Y-13017025D01*
X11098436Y-13002740D01*
X11069865Y-12988454D01*
X11012722Y-12988454D01*
X10984151Y-13002740D01*
X10969865Y-13017025D01*
X10955579Y-13045597D01*
X11241294Y-12874168D02*
X11241294Y-12931311D01*
X11355579Y-12874168D02*
X11355579Y-12931311D01*
X11798436Y-13288454D02*
X11784151Y-13274168D01*
X11755579Y-13231311D01*
X11741294Y-13202740D01*
X11727008Y-13159883D01*
X11712722Y-13088454D01*
X11712722Y-13031311D01*
X11727008Y-12959883D01*
X11741294Y-12917025D01*
X11755579Y-12888454D01*
X11784151Y-12845597D01*
X11798436Y-12831311D01*
X11898436Y-12902740D02*
X11912722Y-12888454D01*
X11941294Y-12874168D01*
X12012722Y-12874168D01*
X12041294Y-12888454D01*
X12055579Y-12902740D01*
X12069865Y-12931311D01*
X12069865Y-12959883D01*
X12055579Y-13002740D01*
X11884151Y-13174168D01*
X12069865Y-13174168D01*
X12327008Y-12874168D02*
X12269865Y-12874168D01*
X12241294Y-12888454D01*
X12227008Y-12902740D01*
X12198436Y-12945597D01*
X12184151Y-13002740D01*
X12184151Y-13117025D01*
X12198436Y-13145597D01*
X12212722Y-13159883D01*
X12241294Y-13174168D01*
X12298436Y-13174168D01*
X12327008Y-13159883D01*
X12341294Y-13145597D01*
X12355579Y-13117025D01*
X12355579Y-13045597D01*
X12341294Y-13017025D01*
X12327008Y-13002740D01*
X12298436Y-12988454D01*
X12241294Y-12988454D01*
X12212722Y-13002740D01*
X12198436Y-13017025D01*
X12184151Y-13045597D01*
X12612722Y-12974168D02*
X12612722Y-13174168D01*
X12541294Y-12859883D02*
X12469865Y-13074168D01*
X12655579Y-13074168D01*
X12998436Y-13174168D02*
X12998436Y-12874168D01*
X13127008Y-13174168D02*
X13127008Y-13017025D01*
X13112722Y-12988454D01*
X13084151Y-12974168D01*
X13041294Y-12974168D01*
X13012722Y-12988454D01*
X12998436Y-13002740D01*
X13312722Y-13174168D02*
X13284151Y-13159883D01*
X13269865Y-13145597D01*
X13255579Y-13117025D01*
X13255579Y-13031311D01*
X13269865Y-13002740D01*
X13284151Y-12988454D01*
X13312722Y-12974168D01*
X13355579Y-12974168D01*
X13384151Y-12988454D01*
X13398436Y-13002740D01*
X13412722Y-13031311D01*
X13412722Y-13117025D01*
X13398436Y-13145597D01*
X13384151Y-13159883D01*
X13355579Y-13174168D01*
X13312722Y-13174168D01*
X13584151Y-13174168D02*
X13555579Y-13159883D01*
X13541294Y-13131311D01*
X13541294Y-12874168D01*
X13812722Y-13159883D02*
X13784151Y-13174168D01*
X13727008Y-13174168D01*
X13698436Y-13159883D01*
X13684151Y-13131311D01*
X13684151Y-13017025D01*
X13698436Y-12988454D01*
X13727008Y-12974168D01*
X13784151Y-12974168D01*
X13812722Y-12988454D01*
X13827008Y-13017025D01*
X13827008Y-13045597D01*
X13684151Y-13074168D01*
X13941294Y-13159883D02*
X13969865Y-13174168D01*
X14027008Y-13174168D01*
X14055579Y-13159883D01*
X14069865Y-13131311D01*
X14069865Y-13117025D01*
X14055579Y-13088454D01*
X14027008Y-13074168D01*
X13984151Y-13074168D01*
X13955579Y-13059883D01*
X13941294Y-13031311D01*
X13941294Y-13017025D01*
X13955579Y-12988454D01*
X13984151Y-12974168D01*
X14027008Y-12974168D01*
X14055579Y-12988454D01*
X14169865Y-13288454D02*
X14184151Y-13274168D01*
X14212722Y-13231311D01*
X14227008Y-13202740D01*
X14241294Y-13159883D01*
X14255579Y-13088454D01*
X14255579Y-13031311D01*
X14241294Y-12959883D01*
X14227008Y-12917025D01*
X14212722Y-12888454D01*
X14184151Y-12845597D01*
X14169865Y-12831311D01*
M02*
