G04 #@! TF.GenerationSoftware,KiCad,Pcbnew,5.1.4-e60b266~84~ubuntu16.04.1*
G04 #@! TF.CreationDate,2019-10-09T19:06:30-05:00*
G04 #@! TF.ProjectId,Quantum MCP4262-502 25x expansion flex for GWAAM-Sea Aid,5175616e-7475-46d2-904d-435034323632,rev?*
G04 #@! TF.SameCoordinates,Original*
G04 #@! TF.FileFunction,Copper,L1,Top*
G04 #@! TF.FilePolarity,Positive*
%FSLAX46Y46*%
G04 Gerber Fmt 4.6, Leading zero omitted, Abs format (unit mm)*
G04 Created by KiCad (PCBNEW 5.1.4-e60b266~84~ubuntu16.04.1) date 2019-10-09 19:06:30*
%MOMM*%
%LPD*%
G04 APERTURE LIST*
%ADD10C,1.000000*%
%ADD11R,1.500000X0.300000*%
%ADD12R,0.300000X1.400000*%
%ADD13C,0.600000*%
%ADD14C,0.299000*%
%ADD15C,0.200000*%
%ADD16C,0.298000*%
G04 APERTURE END LIST*
D10*
X129763520Y-101584760D03*
X77480160Y-102153720D03*
X165940740Y-103921560D03*
D11*
X71904860Y-106606720D03*
X71904860Y-105606720D03*
X71904860Y-108106720D03*
X71904860Y-109606720D03*
X71904860Y-108606720D03*
X71904860Y-107106720D03*
X71904860Y-109106720D03*
X71904860Y-107606720D03*
X71904860Y-106106720D03*
X71904860Y-105106720D03*
D12*
X144543020Y-115333420D03*
X144043020Y-115333420D03*
X143543020Y-115333420D03*
X143043020Y-115333420D03*
X142543020Y-115333420D03*
X142543020Y-119733420D03*
X143043020Y-119733420D03*
X143543020Y-119733420D03*
X144043020Y-119733420D03*
X144543020Y-119733420D03*
X133557520Y-119743580D03*
X133057520Y-119743580D03*
X132557520Y-119743580D03*
X132057520Y-119743580D03*
X131557520Y-119743580D03*
X131557520Y-115343580D03*
X132057520Y-115343580D03*
X132557520Y-115343580D03*
X133057520Y-115343580D03*
X133557520Y-115343580D03*
X139046460Y-119735960D03*
X138546460Y-119735960D03*
X138046460Y-119735960D03*
X137546460Y-119735960D03*
X137046460Y-119735960D03*
X137046460Y-115335960D03*
X137546460Y-115335960D03*
X138046460Y-115335960D03*
X138546460Y-115335960D03*
X139046460Y-115335960D03*
X155528520Y-119720720D03*
X155028520Y-119720720D03*
X154528520Y-119720720D03*
X154028520Y-119720720D03*
X153528520Y-119720720D03*
X153528520Y-115320720D03*
X154028520Y-115320720D03*
X154528520Y-115320720D03*
X155028520Y-115320720D03*
X155528520Y-115320720D03*
X128060960Y-115346120D03*
X127560960Y-115346120D03*
X127060960Y-115346120D03*
X126560960Y-115346120D03*
X126060960Y-115346120D03*
X126060960Y-119746120D03*
X126560960Y-119746120D03*
X127060960Y-119746120D03*
X127560960Y-119746120D03*
X128060960Y-119746120D03*
X150031960Y-115323260D03*
X149531960Y-115323260D03*
X149031960Y-115323260D03*
X148531960Y-115323260D03*
X148031960Y-115323260D03*
X148031960Y-119723260D03*
X148531960Y-119723260D03*
X149031960Y-119723260D03*
X149531960Y-119723260D03*
X150031960Y-119723260D03*
X166524180Y-115325800D03*
X166024180Y-115325800D03*
X165524180Y-115325800D03*
X165024180Y-115325800D03*
X164524180Y-115325800D03*
X164524180Y-119725800D03*
X165024180Y-119725800D03*
X165524180Y-119725800D03*
X166024180Y-119725800D03*
X166524180Y-119725800D03*
X161027620Y-119728340D03*
X160527620Y-119728340D03*
X160027620Y-119728340D03*
X159527620Y-119728340D03*
X159027620Y-119728340D03*
X159027620Y-115328340D03*
X159527620Y-115328340D03*
X160027620Y-115328340D03*
X160527620Y-115328340D03*
X161027620Y-115328340D03*
X100133660Y-119723260D03*
X99633660Y-119723260D03*
X99133660Y-119723260D03*
X98633660Y-119723260D03*
X98133660Y-119723260D03*
X98133660Y-115323260D03*
X98633660Y-115323260D03*
X99133660Y-115323260D03*
X99633660Y-115323260D03*
X100133660Y-115323260D03*
X105630220Y-115320720D03*
X105130220Y-115320720D03*
X104630220Y-115320720D03*
X104130220Y-115320720D03*
X103630220Y-115320720D03*
X103630220Y-119720720D03*
X104130220Y-119720720D03*
X104630220Y-119720720D03*
X105130220Y-119720720D03*
X105630220Y-119720720D03*
X94644720Y-119733420D03*
X94144720Y-119733420D03*
X93644720Y-119733420D03*
X93144720Y-119733420D03*
X92644720Y-119733420D03*
X92644720Y-115333420D03*
X93144720Y-115333420D03*
X93644720Y-115333420D03*
X94144720Y-115333420D03*
X94644720Y-115333420D03*
X89148160Y-115335960D03*
X88648160Y-115335960D03*
X88148160Y-115335960D03*
X87648160Y-115335960D03*
X87148160Y-115335960D03*
X87148160Y-119735960D03*
X87648160Y-119735960D03*
X88148160Y-119735960D03*
X88648160Y-119735960D03*
X89148160Y-119735960D03*
X78162660Y-119746120D03*
X77662660Y-119746120D03*
X77162660Y-119746120D03*
X76662660Y-119746120D03*
X76162660Y-119746120D03*
X76162660Y-115346120D03*
X76662660Y-115346120D03*
X77162660Y-115346120D03*
X77662660Y-115346120D03*
X78162660Y-115346120D03*
X83659220Y-115343580D03*
X83159220Y-115343580D03*
X82659220Y-115343580D03*
X82159220Y-115343580D03*
X81659220Y-115343580D03*
X81659220Y-119743580D03*
X82159220Y-119743580D03*
X82659220Y-119743580D03*
X83159220Y-119743580D03*
X83659220Y-119743580D03*
X127542800Y-111234580D03*
X127042800Y-111234580D03*
X126542800Y-111234580D03*
X126042800Y-111234580D03*
X125542800Y-111234580D03*
X125542800Y-106834580D03*
X126042800Y-106834580D03*
X126542800Y-106834580D03*
X127042800Y-106834580D03*
X127542800Y-106834580D03*
X133039360Y-106832040D03*
X132539360Y-106832040D03*
X132039360Y-106832040D03*
X131539360Y-106832040D03*
X131039360Y-106832040D03*
X131039360Y-111232040D03*
X131539360Y-111232040D03*
X132039360Y-111232040D03*
X132539360Y-111232040D03*
X133039360Y-111232040D03*
X158896560Y-111183780D03*
X158396560Y-111183780D03*
X157896560Y-111183780D03*
X157396560Y-111183780D03*
X156896560Y-111183780D03*
X156896560Y-106783780D03*
X157396560Y-106783780D03*
X157896560Y-106783780D03*
X158396560Y-106783780D03*
X158896560Y-106783780D03*
X164393120Y-106781240D03*
X163893120Y-106781240D03*
X163393120Y-106781240D03*
X162893120Y-106781240D03*
X162393120Y-106781240D03*
X162393120Y-111181240D03*
X162893120Y-111181240D03*
X163393120Y-111181240D03*
X163893120Y-111181240D03*
X164393120Y-111181240D03*
X153407620Y-111193940D03*
X152907620Y-111193940D03*
X152407620Y-111193940D03*
X151907620Y-111193940D03*
X151407620Y-111193940D03*
X151407620Y-106793940D03*
X151907620Y-106793940D03*
X152407620Y-106793940D03*
X152907620Y-106793940D03*
X153407620Y-106793940D03*
X147911060Y-106796480D03*
X147411060Y-106796480D03*
X146911060Y-106796480D03*
X146411060Y-106796480D03*
X145911060Y-106796480D03*
X145911060Y-111196480D03*
X146411060Y-111196480D03*
X146911060Y-111196480D03*
X147411060Y-111196480D03*
X147911060Y-111196480D03*
X106432860Y-106745680D03*
X105932860Y-106745680D03*
X105432860Y-106745680D03*
X104932860Y-106745680D03*
X104432860Y-106745680D03*
X104432860Y-111145680D03*
X104932860Y-111145680D03*
X105432860Y-111145680D03*
X105932860Y-111145680D03*
X106432860Y-111145680D03*
X111929420Y-111143140D03*
X111429420Y-111143140D03*
X110929420Y-111143140D03*
X110429420Y-111143140D03*
X109929420Y-111143140D03*
X109929420Y-106743140D03*
X110429420Y-106743140D03*
X110929420Y-106743140D03*
X111429420Y-106743140D03*
X111929420Y-106743140D03*
X111129320Y-115328340D03*
X110629320Y-115328340D03*
X110129320Y-115328340D03*
X109629320Y-115328340D03*
X109129320Y-115328340D03*
X109129320Y-119728340D03*
X109629320Y-119728340D03*
X110129320Y-119728340D03*
X110629320Y-119728340D03*
X111129320Y-119728340D03*
X92917520Y-106796480D03*
X92417520Y-106796480D03*
X91917520Y-106796480D03*
X91417520Y-106796480D03*
X90917520Y-106796480D03*
X90917520Y-111196480D03*
X91417520Y-111196480D03*
X91917520Y-111196480D03*
X92417520Y-111196480D03*
X92917520Y-111196480D03*
X87420960Y-111199020D03*
X86920960Y-111199020D03*
X86420960Y-111199020D03*
X85920960Y-111199020D03*
X85420960Y-111199020D03*
X85420960Y-106799020D03*
X85920960Y-106799020D03*
X86420960Y-106799020D03*
X86920960Y-106799020D03*
X87420960Y-106799020D03*
D13*
X83675220Y-106994960D03*
X89171780Y-106992420D03*
X107383580Y-115524280D03*
X103098600Y-106928920D03*
X108183680Y-106939080D03*
X144165320Y-106992420D03*
X155150820Y-106979720D03*
X160647380Y-106977180D03*
X149661880Y-106989880D03*
X129293620Y-107027980D03*
X74416920Y-115542060D03*
X85402420Y-115531900D03*
X79913480Y-115539520D03*
X96387920Y-115519200D03*
X101884480Y-115516660D03*
X90898980Y-115529360D03*
X151782780Y-115516660D03*
X135300720Y-115531900D03*
X162778440Y-115521740D03*
X140797280Y-115529360D03*
X157281880Y-115524280D03*
X146286220Y-115519200D03*
X129811780Y-115539520D03*
X113974880Y-105895140D03*
X123240800Y-115473480D03*
X112697260Y-115376960D03*
X124294900Y-105189020D03*
X124294900Y-105189020D03*
X121594880Y-103576120D03*
X88315800Y-107647740D03*
X93812360Y-107645200D03*
X107327700Y-107594400D03*
X111498380Y-107988100D03*
X154302460Y-107642660D03*
X148805900Y-107645200D03*
X165287960Y-107629960D03*
X159791400Y-107632500D03*
X133934200Y-107680760D03*
X128437640Y-107683300D03*
X79057500Y-116194840D03*
X84554060Y-116192300D03*
X95539560Y-116182140D03*
X90043000Y-116184680D03*
X106525060Y-116169440D03*
X101028500Y-116171980D03*
X139941300Y-116184680D03*
X145437860Y-116182140D03*
X167081200Y-116390420D03*
X161922460Y-116177060D03*
X156423360Y-116169440D03*
X128955800Y-116194840D03*
X134452360Y-116192300D03*
X150926800Y-116171980D03*
X114876580Y-106387900D03*
X112488980Y-116197380D03*
X81866740Y-107579160D03*
X122199400Y-116222780D03*
X120766840Y-103997760D03*
X82903060Y-106205020D03*
X88399620Y-106202480D03*
X106611420Y-114734340D03*
X102801420Y-106159300D03*
X107411520Y-106149140D03*
X148889720Y-106199940D03*
X159875220Y-106187240D03*
X143393160Y-106202480D03*
X154378660Y-106189780D03*
X128521460Y-106238040D03*
X73644760Y-114752120D03*
X79141320Y-114749580D03*
X90126820Y-114739420D03*
X101112320Y-114726720D03*
X84630260Y-114741960D03*
X95615760Y-114729260D03*
X151010620Y-114726720D03*
X129039620Y-114749580D03*
X162006280Y-114731800D03*
X156509720Y-114734340D03*
X134528560Y-114741960D03*
X140025120Y-114739420D03*
X145514060Y-114729260D03*
X122707400Y-114747040D03*
X113372900Y-105318560D03*
X112191800Y-114729260D03*
X123855480Y-104152700D03*
X123855480Y-104152700D03*
X122613420Y-103337360D03*
X82486500Y-105476040D03*
X87983060Y-105473500D03*
X106194860Y-114005360D03*
X101498400Y-105422700D03*
X106994960Y-105420160D03*
X142976600Y-105473500D03*
X153962100Y-105460800D03*
X148473160Y-105470960D03*
X159458660Y-105458260D03*
X128104900Y-105509060D03*
X84213700Y-114012980D03*
X78724760Y-114020600D03*
X73228200Y-114023140D03*
X95199200Y-114000280D03*
X89710260Y-114010440D03*
X100695760Y-113997740D03*
X150594060Y-113997740D03*
X140060680Y-113896140D03*
X156093160Y-114005360D03*
X161589720Y-114002820D03*
X134112000Y-114012980D03*
X128623060Y-114020600D03*
X145097500Y-114000280D03*
X123416060Y-113639600D03*
X112476280Y-105468420D03*
X111704120Y-114043460D03*
X124708920Y-103969820D03*
X82985462Y-104771338D03*
X88482022Y-104768798D03*
X106693822Y-113300658D03*
X102362000Y-104800400D03*
X107493922Y-104715458D03*
X148972122Y-104766258D03*
X154461062Y-104756098D03*
X143475562Y-104768798D03*
X159957622Y-104753558D03*
X128603862Y-104804358D03*
X73727162Y-113318438D03*
X79223722Y-113315898D03*
X90209222Y-113305738D03*
X95698162Y-113295578D03*
X84712662Y-113308278D03*
X101194722Y-113293038D03*
X140423900Y-112963960D03*
X162088682Y-113298118D03*
X134610962Y-113308278D03*
X145596462Y-113295578D03*
X156592122Y-113300658D03*
X129122022Y-113315898D03*
X151093022Y-113293038D03*
X123934220Y-112986820D03*
X111094520Y-113319560D03*
X124904500Y-102915720D03*
X84406740Y-109951520D03*
X89903300Y-109948980D03*
X108115100Y-118480840D03*
X103418640Y-109898180D03*
X108915200Y-109895640D03*
X144896840Y-109948980D03*
X155882340Y-109936280D03*
X150393400Y-109946440D03*
X161378900Y-109933740D03*
X124528580Y-109987080D03*
X130025140Y-109984540D03*
X80645000Y-118496080D03*
X86133940Y-118488460D03*
X97119440Y-118475760D03*
X75148440Y-118498620D03*
X91630500Y-118485920D03*
X102616000Y-118473220D03*
X152514300Y-118473220D03*
X158013400Y-118480840D03*
X141528800Y-118485920D03*
X163509960Y-118478300D03*
X136032240Y-118488460D03*
X147017740Y-118475760D03*
X130543300Y-118496080D03*
X112453420Y-118513860D03*
X81419700Y-109994700D03*
X115735100Y-109964220D03*
X119575580Y-107241340D03*
X119781320Y-116631720D03*
X127081280Y-117952520D03*
X84745110Y-110757250D03*
X90241670Y-110754710D03*
X108453470Y-119286570D03*
X109253570Y-110701370D03*
X103757010Y-110703910D03*
X145235210Y-110754710D03*
X156220710Y-110742010D03*
X161717270Y-110739470D03*
X150731770Y-110752170D03*
X124866950Y-110792810D03*
X130363510Y-110790270D03*
X80983370Y-119301810D03*
X86472310Y-119294190D03*
X75486810Y-119304350D03*
X97457810Y-119281490D03*
X102954370Y-119278950D03*
X91968870Y-119291650D03*
X163848330Y-119284030D03*
X136370610Y-119294190D03*
X158351770Y-119286570D03*
X152852670Y-119278950D03*
X130881670Y-119301810D03*
X147356110Y-119281490D03*
X141867170Y-119291650D03*
X112755680Y-119296180D03*
X81887060Y-110807500D03*
X116006880Y-111310420D03*
X118899940Y-107729020D03*
X119298720Y-117363240D03*
X125945900Y-118399560D03*
X84711540Y-109202220D03*
X90208100Y-109199680D03*
X108419900Y-117731540D03*
X103723440Y-109148880D03*
X109220000Y-109146340D03*
X150698200Y-109197140D03*
X156187140Y-109186980D03*
X145201640Y-109199680D03*
X161683700Y-109184440D03*
X130329940Y-109235240D03*
X124833380Y-109237780D03*
X75453240Y-117749320D03*
X80949800Y-117746780D03*
X91935300Y-117736620D03*
X97424240Y-117726460D03*
X86438740Y-117739160D03*
X102920800Y-117723920D03*
X152819100Y-117723920D03*
X163814760Y-117729000D03*
X158318200Y-117731540D03*
X130848100Y-117746780D03*
X136337040Y-117739160D03*
X147322540Y-117726460D03*
X141833600Y-117736620D03*
X112763300Y-117713760D03*
X81887060Y-109265720D03*
X115783360Y-108803440D03*
X120594120Y-116603780D03*
X120345200Y-106692700D03*
X84856320Y-111566960D03*
X90352880Y-111564420D03*
X108564680Y-120096280D03*
X109364780Y-111511080D03*
X103868220Y-111513620D03*
X161828480Y-111549180D03*
X150842980Y-111561880D03*
X145346420Y-111564420D03*
X156331920Y-111551720D03*
X130474720Y-111599980D03*
X124978160Y-111602520D03*
X81094580Y-120111520D03*
X75598020Y-120114060D03*
X103065580Y-120088660D03*
X92080080Y-120101360D03*
X86583520Y-120103900D03*
X97569020Y-120091200D03*
X152963880Y-120088660D03*
X163959540Y-120093740D03*
X147467320Y-120091200D03*
X158462980Y-120096280D03*
X130992880Y-120111520D03*
X141978380Y-120101360D03*
X136481820Y-120103900D03*
X81333340Y-111544100D03*
X116329460Y-112303560D03*
X113009680Y-120101360D03*
X118211600Y-108541820D03*
X125397260Y-120091200D03*
X115402360Y-107424220D03*
X81257140Y-108473240D03*
X83875880Y-112466120D03*
X113047780Y-116809520D03*
X121048780Y-105910380D03*
X121213880Y-115902740D03*
D14*
X71828280Y-106606340D02*
X74261980Y-106606340D01*
D15*
X85911773Y-105269113D02*
X84486667Y-105269113D01*
X85920960Y-106799020D02*
X85911773Y-105269113D01*
X83675220Y-106080560D02*
X83675220Y-106994960D01*
X84486667Y-105269113D02*
X83675220Y-106080560D01*
X91417520Y-106796480D02*
X91408333Y-105266573D01*
X89983227Y-105266573D02*
X89171780Y-106078020D01*
X89171780Y-106078020D02*
X89171780Y-106992420D01*
X91408333Y-105266573D02*
X89983227Y-105266573D01*
X109629320Y-115328340D02*
X109620133Y-113798433D01*
X108195027Y-113798433D02*
X107383580Y-114609880D01*
X107383580Y-114609880D02*
X107383580Y-115524280D01*
X109620133Y-113798433D02*
X108195027Y-113798433D01*
X108183680Y-106024680D02*
X108183680Y-106939080D01*
X110420233Y-105213233D02*
X108995127Y-105213233D01*
X110429420Y-106743140D02*
X110420233Y-105213233D01*
X108995127Y-105213233D02*
X108183680Y-106024680D01*
X151907620Y-106793940D02*
X151898433Y-105264033D01*
X160647380Y-106062780D02*
X160647380Y-106977180D01*
X146411060Y-106796480D02*
X146401873Y-105266573D01*
X144976767Y-105266573D02*
X144165320Y-106078020D01*
X149661880Y-106075480D02*
X149661880Y-106989880D01*
X151898433Y-105264033D02*
X150473327Y-105264033D01*
X157396560Y-106783780D02*
X157387373Y-105253873D01*
X144165320Y-106078020D02*
X144165320Y-106992420D01*
X146401873Y-105266573D02*
X144976767Y-105266573D01*
X155962267Y-105253873D02*
X155150820Y-106065320D01*
X150473327Y-105264033D02*
X149661880Y-106075480D01*
X161458827Y-105251333D02*
X160647380Y-106062780D01*
X162883933Y-105251333D02*
X161458827Y-105251333D01*
X162893120Y-106781240D02*
X162883933Y-105251333D01*
X155150820Y-106065320D02*
X155150820Y-106979720D01*
X157387373Y-105253873D02*
X155962267Y-105253873D01*
X129293620Y-106113580D02*
X129293620Y-107027980D01*
X130105067Y-105302133D02*
X129293620Y-106113580D01*
X131530173Y-105302133D02*
X130105067Y-105302133D01*
X131539360Y-106832040D02*
X131530173Y-105302133D01*
X93144720Y-115333420D02*
X93135533Y-113803513D01*
X82150033Y-113813673D02*
X80724927Y-113813673D01*
X80724927Y-113813673D02*
X79913480Y-114625120D01*
X82159220Y-115343580D02*
X82150033Y-113813673D01*
X101884480Y-114602260D02*
X101884480Y-115516660D01*
X87648160Y-115335960D02*
X87638973Y-113806053D01*
X79913480Y-114625120D02*
X79913480Y-115539520D01*
X74416920Y-114627660D02*
X74416920Y-115542060D01*
X76653473Y-113816213D02*
X75228367Y-113816213D01*
X76662660Y-115346120D02*
X76653473Y-113816213D01*
X75228367Y-113816213D02*
X74416920Y-114627660D01*
X86213867Y-113806053D02*
X85402420Y-114617500D01*
X90898980Y-114614960D02*
X90898980Y-115529360D01*
X93135533Y-113803513D02*
X91710427Y-113803513D01*
X98633660Y-115323260D02*
X98624473Y-113793353D01*
X85402420Y-114617500D02*
X85402420Y-115531900D01*
X87638973Y-113806053D02*
X86213867Y-113806053D01*
X97199367Y-113793353D02*
X96387920Y-114604800D01*
X91710427Y-113803513D02*
X90898980Y-114614960D01*
X102695927Y-113790813D02*
X101884480Y-114602260D01*
X104121033Y-113790813D02*
X102695927Y-113790813D01*
X104130220Y-115320720D02*
X104121033Y-113790813D01*
X96387920Y-114604800D02*
X96387920Y-115519200D01*
X98624473Y-113793353D02*
X97199367Y-113793353D01*
X132048333Y-113813673D02*
X130623227Y-113813673D01*
X152594227Y-113790813D02*
X151782780Y-114602260D01*
X147097667Y-113793353D02*
X146286220Y-114604800D01*
X143043020Y-115333420D02*
X143033833Y-113803513D01*
X135300720Y-114617500D02*
X135300720Y-115531900D01*
X132057520Y-115343580D02*
X132048333Y-113813673D01*
X159527620Y-115328340D02*
X159518433Y-113798433D01*
X157281880Y-114609880D02*
X157281880Y-115524280D01*
X165014993Y-113795893D02*
X163589887Y-113795893D01*
X136112167Y-113806053D02*
X135300720Y-114617500D01*
X151782780Y-114602260D02*
X151782780Y-115516660D01*
X154028520Y-115320720D02*
X154019333Y-113790813D01*
X163589887Y-113795893D02*
X162778440Y-114607340D01*
X137537273Y-113806053D02*
X136112167Y-113806053D01*
X165024180Y-115325800D02*
X165014993Y-113795893D01*
X162778440Y-114607340D02*
X162778440Y-115521740D01*
X158093327Y-113798433D02*
X157281880Y-114609880D01*
X146286220Y-114604800D02*
X146286220Y-115519200D01*
X130623227Y-113813673D02*
X129811780Y-114625120D01*
X137546460Y-115335960D02*
X137537273Y-113806053D01*
X148522773Y-113793353D02*
X147097667Y-113793353D01*
X143033833Y-113803513D02*
X141608727Y-113803513D01*
X141608727Y-113803513D02*
X140797280Y-114614960D01*
X154019333Y-113790813D02*
X152594227Y-113790813D01*
X140797280Y-114614960D02*
X140797280Y-115529360D01*
X129811780Y-114625120D02*
X129811780Y-115539520D01*
X148531960Y-115323260D02*
X148522773Y-113793353D01*
X159518433Y-113798433D02*
X158093327Y-113798433D01*
X103850440Y-105407460D02*
X103098600Y-106928920D01*
X104924537Y-105359523D02*
X103850440Y-105407460D01*
X104932860Y-106745680D02*
X104924537Y-105359523D01*
X113974880Y-106408220D02*
X113974880Y-105895140D01*
X114367751Y-107092309D02*
X114374604Y-106821296D01*
X114367751Y-108389628D02*
X114367751Y-107092309D01*
X114038380Y-106471720D02*
X113974880Y-106408220D01*
X114374604Y-106821296D02*
X114038380Y-106471720D01*
X114058295Y-108699083D02*
X114367751Y-108389628D01*
X113655605Y-112406781D02*
X114058295Y-108699083D01*
X112697260Y-115376960D02*
X113655605Y-112406781D01*
X126551773Y-113816213D02*
X126560960Y-115346120D01*
X125126667Y-113816213D02*
X126551773Y-113816213D01*
X123240800Y-115473480D02*
X123276360Y-116113560D01*
X123276360Y-116113560D02*
X123746260Y-115917980D01*
X123746260Y-115917980D02*
X124315220Y-114627660D01*
X124315220Y-114627660D02*
X125126667Y-113816213D01*
X126033613Y-105304673D02*
X126042800Y-106834580D01*
X124608507Y-105304673D02*
X126033613Y-105304673D01*
X124294900Y-105189020D02*
X124608507Y-105304673D01*
X122476260Y-115310920D02*
X123276360Y-116113560D01*
X121594880Y-103576120D02*
X121594880Y-104162860D01*
X121594880Y-104162860D02*
X122107399Y-104675379D01*
X122107399Y-104675379D02*
X122107399Y-115150339D01*
X122107399Y-115150339D02*
X122476260Y-115310920D01*
X82903060Y-107045760D02*
X83675220Y-106994960D01*
X81925160Y-106766360D02*
X82903060Y-107045760D01*
X74261980Y-106606340D02*
X81925160Y-106766360D01*
D16*
X73903840Y-107106720D02*
X71823580Y-107106720D01*
D15*
X73985120Y-107106720D02*
X74328020Y-107094020D01*
X74328020Y-107094020D02*
X73947092Y-107137128D01*
X87628021Y-111631021D02*
X88315800Y-107647740D01*
X87420960Y-111423960D02*
X87628021Y-111631021D01*
X87420960Y-111199020D02*
X87420960Y-111423960D01*
X92917520Y-111196480D02*
X92917520Y-111421420D01*
X93124581Y-111628481D02*
X93812360Y-107645200D01*
X92917520Y-111421420D02*
X93124581Y-111628481D01*
X106432860Y-111145680D02*
X106432860Y-111370620D01*
X106639921Y-111577681D02*
X107327700Y-107594400D01*
X106432860Y-111370620D02*
X106639921Y-111577681D01*
X153407620Y-111193940D02*
X153407620Y-111418880D01*
X153407620Y-111418880D02*
X153614681Y-111625941D01*
X153614681Y-111625941D02*
X154302460Y-107642660D01*
X147911060Y-111421420D02*
X148118121Y-111628481D01*
X148118121Y-111628481D02*
X148805900Y-107645200D01*
X159103621Y-111615781D02*
X159791400Y-107632500D01*
X158896560Y-111408720D02*
X159103621Y-111615781D01*
X164600181Y-111613241D02*
X165287960Y-107629960D01*
X158896560Y-111183780D02*
X158896560Y-111408720D01*
X147911060Y-111196480D02*
X147911060Y-111421420D01*
X164393120Y-111406180D02*
X164600181Y-111613241D01*
X164393120Y-111181240D02*
X164393120Y-111406180D01*
X127749861Y-111666581D02*
X128437640Y-107683300D01*
X133039360Y-111456980D02*
X133246421Y-111664041D01*
X127542800Y-111459520D02*
X127749861Y-111666581D01*
X133246421Y-111664041D02*
X133934200Y-107680760D01*
X133039360Y-111232040D02*
X133039360Y-111456980D01*
X127542800Y-111234580D02*
X127542800Y-111459520D01*
X78162660Y-119746120D02*
X78162660Y-119971060D01*
X94644720Y-119733420D02*
X94644720Y-119958360D01*
X94644720Y-119958360D02*
X94851781Y-120165421D01*
X83659220Y-119743580D02*
X83659220Y-119968520D01*
X83866281Y-120175581D02*
X84554060Y-116192300D01*
X83659220Y-119968520D02*
X83866281Y-120175581D01*
X78162660Y-119971060D02*
X78369721Y-120178121D01*
X78369721Y-120178121D02*
X79057500Y-116194840D01*
X94851781Y-120165421D02*
X95539560Y-116182140D01*
X89148160Y-119960900D02*
X89355221Y-120167961D01*
X89355221Y-120167961D02*
X90043000Y-116184680D01*
X100340721Y-120155261D02*
X101028500Y-116171980D01*
X100133660Y-119948200D02*
X100340721Y-120155261D01*
X105837281Y-120152721D02*
X106525060Y-116169440D01*
X100133660Y-119723260D02*
X100133660Y-119948200D01*
X89148160Y-119735960D02*
X89148160Y-119960900D01*
X105630220Y-119945660D02*
X105837281Y-120152721D01*
X105630220Y-119720720D02*
X105630220Y-119945660D01*
X144750081Y-120165421D02*
X145437860Y-116182140D01*
X155528520Y-119945660D02*
X155735581Y-120152721D01*
X144543020Y-119733420D02*
X144543020Y-119958360D01*
X128268021Y-120178121D02*
X128955800Y-116194840D01*
X161234681Y-120160341D02*
X161922460Y-116177060D01*
X139046460Y-119735960D02*
X139046460Y-119960900D01*
X144543020Y-119958360D02*
X144750081Y-120165421D01*
X133557520Y-119968520D02*
X133764581Y-120175581D01*
X155528520Y-119720720D02*
X155528520Y-119945660D01*
X161027620Y-119953280D02*
X161234681Y-120160341D01*
X161027620Y-119728340D02*
X161027620Y-119953280D01*
X133764581Y-120175581D02*
X134452360Y-116192300D01*
X139046460Y-119960900D02*
X139253521Y-120167961D01*
X133557520Y-119743580D02*
X133557520Y-119968520D01*
X128060960Y-119971060D02*
X128268021Y-120178121D01*
X139253521Y-120167961D02*
X139941300Y-116184680D01*
X155735581Y-120152721D02*
X156423360Y-116169440D01*
X150239021Y-120155261D02*
X150926800Y-116171980D01*
X150031960Y-119948200D02*
X150239021Y-120155261D01*
X128060960Y-119746120D02*
X128060960Y-119971060D01*
X150031960Y-119723260D02*
X150031960Y-119948200D01*
X111336381Y-120160341D02*
X112488980Y-116197380D01*
X111129320Y-119953280D02*
X111336381Y-120160341D01*
X111129320Y-119728340D02*
X111129320Y-119953280D01*
X73347580Y-107104180D02*
X73824301Y-107130379D01*
X73824301Y-107130379D02*
X74179488Y-107149900D01*
X166731241Y-120157801D02*
X167081200Y-116390420D01*
X166524180Y-119950740D02*
X166731241Y-120157801D01*
X166524180Y-119725800D02*
X166524180Y-119950740D01*
X114767761Y-106654291D02*
X114767761Y-106496719D01*
X114778674Y-106665771D02*
X114767761Y-106654291D01*
X114767761Y-107097364D02*
X114778674Y-106665771D01*
X113961563Y-112912543D02*
X114050921Y-112471661D01*
X114767761Y-106496719D02*
X114876580Y-106387900D01*
X114050921Y-112471661D02*
X114440755Y-108882322D01*
X114440755Y-108882322D02*
X114767761Y-108555317D01*
X114767761Y-108555317D02*
X114767761Y-107097364D01*
X113387520Y-115376340D02*
X114020600Y-112659160D01*
X113149380Y-115857020D02*
X113387520Y-115376340D01*
X112488980Y-116197380D02*
X113149380Y-115857020D01*
X111929420Y-111368080D02*
X111912400Y-111478060D01*
X111929420Y-111143140D02*
X111929420Y-111368080D01*
X111498380Y-107988100D02*
X111498380Y-108734860D01*
X111949295Y-109185775D02*
X111949295Y-109848715D01*
X111498380Y-108734860D02*
X111949295Y-109185775D01*
X111912400Y-111478060D02*
X111949295Y-109848715D01*
X165287960Y-107629960D02*
X166979600Y-113545620D01*
X166979600Y-113545620D02*
X167081200Y-116390420D01*
X120766840Y-103997760D02*
X121707389Y-105613200D01*
X121707389Y-105613200D02*
X121691400Y-115313460D01*
X121691400Y-115313460D02*
X122199400Y-116222780D01*
X73947092Y-107137128D02*
X81866740Y-107579160D01*
X73824301Y-107130379D02*
X73947092Y-107137128D01*
D14*
X71904860Y-106106720D02*
X74256140Y-106106720D01*
D15*
X74288400Y-106138980D02*
X74256140Y-106106720D01*
X86420960Y-106799020D02*
X86420960Y-105575100D01*
X86420960Y-105575100D02*
X86420960Y-105984040D01*
X86314280Y-105104484D02*
X86420960Y-105575100D01*
X82903060Y-106205020D02*
X83275210Y-105914872D01*
X84320978Y-104869103D02*
X86076055Y-104869103D01*
X83275210Y-105914872D02*
X84320978Y-104869103D01*
X86076055Y-104869103D02*
X86314280Y-105104484D01*
X91917520Y-106796480D02*
X91917520Y-105572560D01*
X91810840Y-105101944D02*
X91917520Y-105572560D01*
X88771770Y-105912332D02*
X89817538Y-104866563D01*
X91917520Y-105572560D02*
X91917520Y-105981500D01*
X91572615Y-104866563D02*
X91810840Y-105101944D01*
X89817538Y-104866563D02*
X91572615Y-104866563D01*
X88399620Y-106202480D02*
X88771770Y-105912332D01*
X110129320Y-115328340D02*
X110129320Y-114104420D01*
X110022640Y-113633804D02*
X110129320Y-114104420D01*
X106983570Y-114444192D02*
X108029338Y-113398423D01*
X110129320Y-114104420D02*
X110129320Y-114513360D01*
X109784415Y-113398423D02*
X110022640Y-113633804D01*
X108029338Y-113398423D02*
X109784415Y-113398423D01*
X106611420Y-114734340D02*
X106983570Y-114444192D01*
X107783670Y-105858992D02*
X108829438Y-104813223D01*
X110584515Y-104813223D02*
X110822740Y-105048604D01*
X110929420Y-105519220D02*
X110929420Y-105928160D01*
X105432860Y-105521760D02*
X105432860Y-105930700D01*
X107411520Y-106149140D02*
X107783670Y-105858992D01*
X108829438Y-104813223D02*
X110584515Y-104813223D01*
X110929420Y-106743140D02*
X110929420Y-105519220D01*
X105432860Y-106745680D02*
X105432860Y-105521760D01*
X110822740Y-105048604D02*
X110929420Y-105519220D01*
X146804380Y-105101944D02*
X146911060Y-105572560D01*
X152300940Y-105099404D02*
X152407620Y-105570020D01*
X154750810Y-105899632D02*
X155796578Y-104853863D01*
X163286440Y-105086704D02*
X163393120Y-105557320D01*
X146566155Y-104866563D02*
X146804380Y-105101944D01*
X143765310Y-105912332D02*
X144811078Y-104866563D01*
X160247370Y-105897092D02*
X161293138Y-104851323D01*
X152062715Y-104864023D02*
X152300940Y-105099404D01*
X157789880Y-105089244D02*
X157896560Y-105559860D01*
X152407620Y-106793940D02*
X152407620Y-105570020D01*
X144811078Y-104866563D02*
X146566155Y-104866563D01*
X149261870Y-105909792D02*
X150307638Y-104864023D01*
X148889720Y-106199940D02*
X149261870Y-105909792D01*
X146911060Y-106796480D02*
X146911060Y-105572560D01*
X143393160Y-106202480D02*
X143765310Y-105912332D01*
X155796578Y-104853863D02*
X157551655Y-104853863D01*
X157551655Y-104853863D02*
X157789880Y-105089244D01*
X163393120Y-105557320D02*
X163393120Y-105966260D01*
X157896560Y-105559860D02*
X157896560Y-105968800D01*
X163393120Y-106781240D02*
X163393120Y-105557320D01*
X146911060Y-105572560D02*
X146911060Y-105981500D01*
X163048215Y-104851323D02*
X163286440Y-105086704D01*
X150307638Y-104864023D02*
X152062715Y-104864023D01*
X161293138Y-104851323D02*
X163048215Y-104851323D01*
X152407620Y-105570020D02*
X152407620Y-105978960D01*
X159875220Y-106187240D02*
X160247370Y-105897092D01*
X157896560Y-106783780D02*
X157896560Y-105559860D01*
X154378660Y-106189780D02*
X154750810Y-105899632D01*
X128893610Y-105947892D02*
X129939378Y-104902123D01*
X131932680Y-105137504D02*
X132039360Y-105608120D01*
X129939378Y-104902123D02*
X131694455Y-104902123D01*
X132039360Y-106832040D02*
X132039360Y-105608120D01*
X131694455Y-104902123D02*
X131932680Y-105137504D01*
X128521460Y-106238040D02*
X128893610Y-105947892D01*
X126542800Y-106834580D02*
X126542800Y-105610660D01*
X132039360Y-105608120D02*
X132039360Y-106017060D01*
X126542800Y-105610660D02*
X126542800Y-106019600D01*
X88041480Y-113641424D02*
X88148160Y-114112040D01*
X93538040Y-113638884D02*
X93644720Y-114109500D01*
X82314315Y-113413663D02*
X82552540Y-113649044D01*
X77055980Y-113651584D02*
X77162660Y-114122200D01*
X79141320Y-114749580D02*
X79513470Y-114459432D01*
X74016910Y-114461972D02*
X75062678Y-113416203D01*
X80559238Y-113413663D02*
X82314315Y-113413663D01*
X95987910Y-114439112D02*
X97033678Y-113393343D01*
X104523540Y-113626184D02*
X104630220Y-114096800D01*
X77162660Y-115346120D02*
X77162660Y-114122200D01*
X82659220Y-114119660D02*
X82659220Y-114528600D01*
X76817755Y-113416203D02*
X77055980Y-113651584D01*
X87803255Y-113406043D02*
X88041480Y-113641424D01*
X82659220Y-115343580D02*
X82659220Y-114119660D01*
X82552540Y-113649044D02*
X82659220Y-114119660D01*
X75062678Y-113416203D02*
X76817755Y-113416203D01*
X85002410Y-114451812D02*
X86048178Y-113406043D01*
X101484470Y-114436572D02*
X102530238Y-113390803D01*
X93299815Y-113403503D02*
X93538040Y-113638884D01*
X99026980Y-113628724D02*
X99133660Y-114099340D01*
X93644720Y-115333420D02*
X93644720Y-114109500D01*
X77162660Y-114122200D02*
X77162660Y-114531140D01*
X86048178Y-113406043D02*
X87803255Y-113406043D01*
X90498970Y-114449272D02*
X91544738Y-113403503D01*
X73644760Y-114752120D02*
X74016910Y-114461972D01*
X79513470Y-114459432D02*
X80559238Y-113413663D01*
X90126820Y-114739420D02*
X90498970Y-114449272D01*
X88148160Y-115335960D02*
X88148160Y-114112040D01*
X84630260Y-114741960D02*
X85002410Y-114451812D01*
X97033678Y-113393343D02*
X98788755Y-113393343D01*
X98788755Y-113393343D02*
X99026980Y-113628724D01*
X104630220Y-114096800D02*
X104630220Y-114505740D01*
X99133660Y-114099340D02*
X99133660Y-114508280D01*
X104630220Y-115320720D02*
X104630220Y-114096800D01*
X88148160Y-114112040D02*
X88148160Y-114520980D01*
X104285315Y-113390803D02*
X104523540Y-113626184D01*
X91544738Y-113403503D02*
X93299815Y-113403503D01*
X102530238Y-113390803D02*
X104285315Y-113390803D01*
X93644720Y-114109500D02*
X93644720Y-114518440D01*
X101112320Y-114726720D02*
X101484470Y-114436572D01*
X99133660Y-115323260D02*
X99133660Y-114099340D01*
X95615760Y-114729260D02*
X95987910Y-114439112D01*
X138046460Y-115335960D02*
X138046460Y-114112040D01*
X165524180Y-115325800D02*
X165524180Y-114101880D01*
X165524180Y-114101880D02*
X165524180Y-114510820D01*
X159682715Y-113398423D02*
X159920940Y-113633804D01*
X149031960Y-114099340D02*
X149031960Y-114508280D01*
X154528520Y-115320720D02*
X154528520Y-114096800D01*
X127060960Y-115346120D02*
X127060960Y-114122200D01*
X157927638Y-113398423D02*
X159682715Y-113398423D01*
X162378430Y-114441652D02*
X163424198Y-113395883D01*
X129411770Y-114459432D02*
X130457538Y-113413663D01*
X137701555Y-113406043D02*
X137939780Y-113641424D01*
X148687055Y-113393343D02*
X148925280Y-113628724D01*
X132450840Y-113649044D02*
X132557520Y-114119660D01*
X135946478Y-113406043D02*
X137701555Y-113406043D01*
X159920940Y-113633804D02*
X160027620Y-114104420D01*
X160027620Y-114104420D02*
X160027620Y-114513360D01*
X165417500Y-113631264D02*
X165524180Y-114101880D01*
X132557520Y-115343580D02*
X132557520Y-114119660D01*
X138046460Y-114112040D02*
X138046460Y-114520980D01*
X146931978Y-113393343D02*
X148687055Y-113393343D01*
X140025120Y-114739420D02*
X140397270Y-114449272D01*
X141443038Y-113403503D02*
X143198115Y-113403503D01*
X130457538Y-113413663D02*
X132212615Y-113413663D01*
X154421840Y-113626184D02*
X154528520Y-114096800D01*
X145886210Y-114439112D02*
X146931978Y-113393343D01*
X151382770Y-114436572D02*
X152428538Y-113390803D01*
X156509720Y-114734340D02*
X156881870Y-114444192D01*
X163424198Y-113395883D02*
X165179275Y-113395883D01*
X152428538Y-113390803D02*
X154183615Y-113390803D01*
X156881870Y-114444192D02*
X157927638Y-113398423D01*
X134900710Y-114451812D02*
X135946478Y-113406043D01*
X162006280Y-114731800D02*
X162378430Y-114441652D01*
X165179275Y-113395883D02*
X165417500Y-113631264D01*
X145514060Y-114729260D02*
X145886210Y-114439112D01*
X160027620Y-115328340D02*
X160027620Y-114104420D01*
X154528520Y-114096800D02*
X154528520Y-114505740D01*
X143543020Y-115333420D02*
X143543020Y-114109500D01*
X154183615Y-113390803D02*
X154421840Y-113626184D01*
X137939780Y-113641424D02*
X138046460Y-114112040D01*
X129039620Y-114749580D02*
X129411770Y-114459432D01*
X149031960Y-115323260D02*
X149031960Y-114099340D01*
X143543020Y-114109500D02*
X143543020Y-114518440D01*
X151010620Y-114726720D02*
X151382770Y-114436572D01*
X140397270Y-114449272D02*
X141443038Y-113403503D01*
X132557520Y-114119660D02*
X132557520Y-114528600D01*
X134528560Y-114741960D02*
X134900710Y-114451812D01*
X148925280Y-113628724D02*
X149031960Y-114099340D01*
X143436340Y-113638884D02*
X143543020Y-114109500D01*
X127060960Y-114122200D02*
X127060960Y-114531140D01*
X143198115Y-113403503D02*
X143436340Y-113638884D01*
X132212615Y-113413663D02*
X132450840Y-113649044D01*
X105326180Y-105051144D02*
X105432860Y-105521760D01*
X102801420Y-106159300D02*
X103601520Y-105044240D01*
X105194944Y-104921476D02*
X105326180Y-105051144D01*
X103601520Y-105044240D02*
X103980392Y-104976072D01*
X103980392Y-104976072D02*
X105194944Y-104921476D01*
X74933141Y-106138980D02*
X74688700Y-106138980D01*
X74688700Y-106138980D02*
X74288400Y-106138980D01*
X113261140Y-106276140D02*
X113372900Y-105318560D01*
X113967741Y-106985181D02*
X113261140Y-106276140D01*
X113967741Y-108223939D02*
X113967741Y-106985181D01*
X112191800Y-114729260D02*
X113275824Y-112198871D01*
X113275824Y-112198871D02*
X113675834Y-108515845D01*
X113675834Y-108515845D02*
X113967741Y-108223939D01*
X122742960Y-114089180D02*
X123426220Y-114879120D01*
X123426220Y-114879120D02*
X123915210Y-114461972D01*
X123915210Y-114461972D02*
X124960978Y-113416203D01*
X126954280Y-113651584D02*
X127060960Y-114122200D01*
X126716055Y-113416203D02*
X126954280Y-113651584D01*
X124960978Y-113416203D02*
X126716055Y-113416203D01*
X122742960Y-114711480D02*
X122707400Y-114747040D01*
X122742960Y-114089180D02*
X122742960Y-114711480D01*
X126197895Y-104904663D02*
X126436120Y-105140044D01*
X125054237Y-104904663D02*
X126197895Y-104904663D01*
X126436120Y-105140044D02*
X126542800Y-105610660D01*
X123855480Y-104152700D02*
X125054237Y-104904663D01*
X139460679Y-110134961D02*
X143393160Y-106202480D01*
X139460679Y-114184141D02*
X139460679Y-110134961D01*
X140025120Y-114739420D02*
X140025120Y-114703860D01*
X140025120Y-114703860D02*
X139817401Y-114496141D01*
X139817401Y-114496141D02*
X139772679Y-114496141D01*
X139772679Y-114496141D02*
X139460679Y-114184141D01*
X122613420Y-114653060D02*
X122707400Y-114747040D01*
X122613420Y-103337360D02*
X122613420Y-114653060D01*
X82039460Y-106146600D02*
X82903060Y-106205020D01*
X74688700Y-106138980D02*
X82039460Y-106146600D01*
D14*
X71904860Y-105606720D02*
X74039600Y-105606720D01*
D15*
X74039600Y-105606720D02*
X74223880Y-105577640D01*
X86713287Y-104936395D02*
X86713287Y-105003827D01*
X86239340Y-104468106D02*
X86713287Y-104936395D01*
X86920960Y-105211500D02*
X86920960Y-106799020D01*
X82486500Y-105476040D02*
X83167941Y-105456441D01*
X83167941Y-105456441D02*
X84155289Y-104469093D01*
X86713287Y-105003827D02*
X86920960Y-105211500D01*
X86074985Y-104469093D02*
X86239340Y-104468106D01*
X84155289Y-104469093D02*
X86074985Y-104469093D01*
X92209847Y-104933855D02*
X92209847Y-105001287D01*
X89651849Y-104466553D02*
X91571545Y-104466553D01*
X87983060Y-105473500D02*
X88664501Y-105453901D01*
X88664501Y-105453901D02*
X89651849Y-104466553D01*
X92417520Y-105208960D02*
X92417520Y-106796480D01*
X92209847Y-105001287D02*
X92417520Y-105208960D01*
X91571545Y-104466553D02*
X91735900Y-104465566D01*
X91735900Y-104465566D02*
X92209847Y-104933855D01*
X110421647Y-113465715D02*
X110421647Y-113533147D01*
X107863649Y-112998413D02*
X109783345Y-112998413D01*
X106194860Y-114005360D02*
X106876301Y-113985761D01*
X106876301Y-113985761D02*
X107863649Y-112998413D01*
X110629320Y-113740820D02*
X110629320Y-115328340D01*
X110421647Y-113533147D02*
X110629320Y-113740820D01*
X109783345Y-112998413D02*
X109947700Y-112997426D01*
X109947700Y-112997426D02*
X110421647Y-113465715D01*
X110747800Y-104412226D02*
X111221747Y-104880515D01*
X106994960Y-105420160D02*
X107676401Y-105400561D01*
X111429420Y-105155620D02*
X111429420Y-106743140D01*
X110583445Y-104413213D02*
X110747800Y-104412226D01*
X108663749Y-104413213D02*
X110583445Y-104413213D01*
X111221747Y-104880515D02*
X111221747Y-104947947D01*
X111221747Y-104947947D02*
X111429420Y-105155620D01*
X107676401Y-105400561D02*
X108663749Y-104413213D01*
X158188887Y-104988587D02*
X158396560Y-105196260D01*
X148473160Y-105470960D02*
X149154601Y-105451361D01*
X159458660Y-105458260D02*
X160140101Y-105438661D01*
X157714940Y-104452866D02*
X158188887Y-104921155D01*
X158396560Y-105196260D02*
X158396560Y-106783780D01*
X153962100Y-105460800D02*
X154643541Y-105441201D01*
X150141949Y-104464013D02*
X152061645Y-104464013D01*
X163685447Y-104918615D02*
X163685447Y-104986047D01*
X147203387Y-105001287D02*
X147411060Y-105208960D01*
X147411060Y-105208960D02*
X147411060Y-106796480D01*
X142976600Y-105473500D02*
X143658041Y-105453901D01*
X147203387Y-104933855D02*
X147203387Y-105001287D01*
X163211500Y-104450326D02*
X163685447Y-104918615D01*
X152061645Y-104464013D02*
X152226000Y-104463026D01*
X152699947Y-104931315D02*
X152699947Y-104998747D01*
X158188887Y-104921155D02*
X158188887Y-104988587D01*
X146729440Y-104465566D02*
X147203387Y-104933855D01*
X152226000Y-104463026D02*
X152699947Y-104931315D01*
X149154601Y-105451361D02*
X150141949Y-104464013D01*
X144645389Y-104466553D02*
X146565085Y-104466553D01*
X163047145Y-104451313D02*
X163211500Y-104450326D01*
X161127449Y-104451313D02*
X163047145Y-104451313D01*
X160140101Y-105438661D02*
X161127449Y-104451313D01*
X155630889Y-104453853D02*
X157550585Y-104453853D01*
X143658041Y-105453901D02*
X144645389Y-104466553D01*
X152907620Y-105206420D02*
X152907620Y-106793940D01*
X146565085Y-104466553D02*
X146729440Y-104465566D01*
X152699947Y-104998747D02*
X152907620Y-105206420D01*
X157550585Y-104453853D02*
X157714940Y-104452866D01*
X163685447Y-104986047D02*
X163893120Y-105193720D01*
X154643541Y-105441201D02*
X155630889Y-104453853D01*
X163893120Y-105193720D02*
X163893120Y-106781240D01*
X128104900Y-105509060D02*
X128786341Y-105489461D01*
X131857740Y-104501126D02*
X132331687Y-104969415D01*
X132331687Y-104969415D02*
X132331687Y-105036847D01*
X132331687Y-105036847D02*
X132539360Y-105244520D01*
X132539360Y-105244520D02*
X132539360Y-106832040D01*
X131693385Y-104502113D02*
X131857740Y-104501126D01*
X129773689Y-104502113D02*
X131693385Y-104502113D01*
X128786341Y-105489461D02*
X129773689Y-104502113D01*
X82951547Y-113480955D02*
X82951547Y-113548387D01*
X77454987Y-113483495D02*
X77454987Y-113550927D01*
X83159220Y-113756060D02*
X83159220Y-115343580D01*
X99425987Y-113528067D02*
X99633660Y-113735740D01*
X77662660Y-113758600D02*
X77662660Y-115346120D01*
X73228200Y-114023140D02*
X73909641Y-114003541D01*
X74896989Y-113016193D02*
X76816685Y-113016193D01*
X73909641Y-114003541D02*
X74896989Y-113016193D01*
X76981040Y-113015206D02*
X77454987Y-113483495D01*
X89710260Y-114010440D02*
X90391701Y-113990841D01*
X82313245Y-113013653D02*
X82477600Y-113012666D01*
X80393549Y-113013653D02*
X82313245Y-113013653D01*
X76816685Y-113016193D02*
X76981040Y-113015206D01*
X82951547Y-113548387D02*
X83159220Y-113756060D01*
X100695760Y-113997740D02*
X101377201Y-113978141D01*
X98952040Y-112992346D02*
X99425987Y-113460635D01*
X99633660Y-113735740D02*
X99633660Y-115323260D01*
X95199200Y-114000280D02*
X95880641Y-113980681D01*
X91379049Y-113003493D02*
X93298745Y-113003493D01*
X82477600Y-113012666D02*
X82951547Y-113480955D01*
X104922547Y-113458095D02*
X104922547Y-113525527D01*
X88440487Y-113540767D02*
X88648160Y-113748440D01*
X79406201Y-114001001D02*
X80393549Y-113013653D01*
X77454987Y-113550927D02*
X77662660Y-113758600D01*
X88648160Y-113748440D02*
X88648160Y-115335960D01*
X84213700Y-114012980D02*
X84895141Y-113993381D01*
X88440487Y-113473335D02*
X88440487Y-113540767D01*
X104448600Y-112989806D02*
X104922547Y-113458095D01*
X93298745Y-113003493D02*
X93463100Y-113002506D01*
X93937047Y-113470795D02*
X93937047Y-113538227D01*
X99425987Y-113460635D02*
X99425987Y-113528067D01*
X87966540Y-113005046D02*
X88440487Y-113473335D01*
X93463100Y-113002506D02*
X93937047Y-113470795D01*
X90391701Y-113990841D02*
X91379049Y-113003493D01*
X85882489Y-113006033D02*
X87802185Y-113006033D01*
X78724760Y-114020600D02*
X79406201Y-114001001D01*
X104284245Y-112990793D02*
X104448600Y-112989806D01*
X102364549Y-112990793D02*
X104284245Y-112990793D01*
X101377201Y-113978141D02*
X102364549Y-112990793D01*
X96867989Y-112993333D02*
X98787685Y-112993333D01*
X84895141Y-113993381D02*
X85882489Y-113006033D01*
X94144720Y-113745900D02*
X94144720Y-115333420D01*
X87802185Y-113006033D02*
X87966540Y-113005046D01*
X93937047Y-113538227D02*
X94144720Y-113745900D01*
X98787685Y-112993333D02*
X98952040Y-112992346D01*
X104922547Y-113525527D02*
X105130220Y-113733200D01*
X95880641Y-113980681D02*
X96867989Y-112993333D01*
X105130220Y-113733200D02*
X105130220Y-115320720D01*
X150594060Y-113997740D02*
X151275501Y-113978141D01*
X133057520Y-113756060D02*
X133057520Y-115343580D01*
X156093160Y-114005360D02*
X156774601Y-113985761D01*
X165816507Y-113463175D02*
X165816507Y-113530607D01*
X160527620Y-113740820D02*
X160527620Y-115328340D01*
X132211545Y-113013653D02*
X132375900Y-113012666D01*
X135780789Y-113006033D02*
X137700485Y-113006033D01*
X165342560Y-112994886D02*
X165816507Y-113463175D01*
X145097500Y-114000280D02*
X145778941Y-113980681D01*
X148850340Y-112992346D02*
X149324287Y-113460635D01*
X163258509Y-112995873D02*
X165178205Y-112995873D01*
X149531960Y-113735740D02*
X149531960Y-115323260D01*
X159846000Y-112997426D02*
X160319947Y-113465715D01*
X138338787Y-113540767D02*
X138546460Y-113748440D01*
X151275501Y-113978141D02*
X152262849Y-112990793D01*
X130291849Y-113013653D02*
X132211545Y-113013653D01*
X137700485Y-113006033D02*
X137864840Y-113005046D01*
X162271161Y-113983221D02*
X163258509Y-112995873D01*
X129304501Y-114001001D02*
X130291849Y-113013653D01*
X166024180Y-113738280D02*
X166024180Y-115325800D01*
X161589720Y-114002820D02*
X162271161Y-113983221D01*
X154182545Y-112990793D02*
X154346900Y-112989806D01*
X138546460Y-113748440D02*
X138546460Y-115335960D01*
X149324287Y-113460635D02*
X149324287Y-113528067D01*
X134793441Y-113993381D02*
X135780789Y-113006033D01*
X155028520Y-113733200D02*
X155028520Y-115320720D01*
X165178205Y-112995873D02*
X165342560Y-112994886D01*
X154820847Y-113525527D02*
X155028520Y-113733200D01*
X160319947Y-113465715D02*
X160319947Y-113533147D01*
X148685985Y-112993333D02*
X148850340Y-112992346D01*
X159681645Y-112998413D02*
X159846000Y-112997426D01*
X132849847Y-113548387D02*
X133057520Y-113756060D01*
X157761949Y-112998413D02*
X159681645Y-112998413D01*
X165816507Y-113530607D02*
X166024180Y-113738280D01*
X160319947Y-113533147D02*
X160527620Y-113740820D01*
X134112000Y-114012980D02*
X134793441Y-113993381D01*
X156774601Y-113985761D02*
X157761949Y-112998413D01*
X154346900Y-112989806D02*
X154820847Y-113458095D01*
X149324287Y-113528067D02*
X149531960Y-113735740D01*
X138338787Y-113473335D02*
X138338787Y-113540767D01*
X128623060Y-114020600D02*
X129304501Y-114001001D01*
X152262849Y-112990793D02*
X154182545Y-112990793D01*
X145778941Y-113980681D02*
X146766289Y-112993333D01*
X146766289Y-112993333D02*
X148685985Y-112993333D01*
X132375900Y-113012666D02*
X132849847Y-113480955D01*
X154820847Y-113458095D02*
X154820847Y-113525527D01*
X137864840Y-113005046D02*
X138338787Y-113473335D01*
X132849847Y-113480955D02*
X132849847Y-113548387D01*
X105932860Y-105158160D02*
X105932860Y-106745680D01*
X105725187Y-104950487D02*
X105932860Y-105158160D01*
X105725187Y-104883055D02*
X105725187Y-104950487D01*
X105251240Y-104414766D02*
X105725187Y-104883055D01*
X101498400Y-105422700D02*
X102577900Y-105440480D01*
X102577900Y-105440480D02*
X103426215Y-104647955D01*
X103426215Y-104647955D02*
X105086885Y-104415753D01*
X105086885Y-104415753D02*
X105251240Y-104414766D01*
X111704120Y-114043460D02*
X112779431Y-112084725D01*
X112580928Y-112446308D02*
X112779431Y-112084725D01*
X111704120Y-114043460D02*
X112580928Y-112446308D01*
X112847120Y-106604551D02*
X112491520Y-106090720D01*
X112491520Y-106090720D02*
X112476280Y-105468420D01*
X113021411Y-106604551D02*
X112847120Y-106604551D01*
X112779431Y-112084725D02*
X113293372Y-108332608D01*
X113293372Y-108332608D02*
X113567731Y-108058250D01*
X113567731Y-107150870D02*
X113021411Y-106604551D01*
X113567731Y-108058250D02*
X113567731Y-107150870D01*
X127560960Y-113758600D02*
X127560960Y-115346120D01*
X127353287Y-113550927D02*
X127560960Y-113758600D01*
X127353287Y-113483495D02*
X127353287Y-113550927D01*
X124275301Y-113536181D02*
X124795289Y-113016193D01*
X126879340Y-113015206D02*
X127353287Y-113483495D01*
X124795289Y-113016193D02*
X126714985Y-113016193D01*
X126714985Y-113016193D02*
X126879340Y-113015206D01*
X123616720Y-114175540D02*
X124293081Y-113518401D01*
X123416060Y-113639600D02*
X123416060Y-114254280D01*
X123562559Y-114229701D02*
X123616720Y-114175540D01*
X123531033Y-114254280D02*
X123562559Y-114229701D01*
X123416060Y-114254280D02*
X123531033Y-114254280D01*
X127042800Y-105247060D02*
X127042800Y-106834580D01*
X126835127Y-105039387D02*
X127042800Y-105247060D01*
X126196825Y-104504653D02*
X126361180Y-104503666D01*
X126361180Y-104503666D02*
X126835127Y-104971955D01*
X124708920Y-103969820D02*
X126196825Y-104504653D01*
X126835127Y-104971955D02*
X126835127Y-105039387D01*
X123416060Y-113639600D02*
X123184920Y-113037620D01*
X123184920Y-113037620D02*
X123250960Y-102052120D01*
X123250960Y-102052120D02*
X124708920Y-103969820D01*
X144043020Y-113745900D02*
X144043020Y-115333420D01*
X143835347Y-113538227D02*
X144043020Y-113745900D01*
X143361400Y-113002506D02*
X143835347Y-113470795D01*
X140060680Y-113896140D02*
X140290001Y-113990841D01*
X143835347Y-113470795D02*
X143835347Y-113538227D01*
X141277349Y-113003493D02*
X143197045Y-113003493D01*
X143197045Y-113003493D02*
X143361400Y-113002506D01*
X140060680Y-113896140D02*
X140577021Y-113703821D01*
X140577021Y-113703821D02*
X141277349Y-113003493D01*
X140290001Y-113990841D02*
X140577021Y-113703821D01*
X78295500Y-105521760D02*
X82486500Y-105476040D01*
X74039600Y-105606720D02*
X78295500Y-105521760D01*
X87420960Y-106799020D02*
X87420960Y-106784900D01*
X86155087Y-104068596D02*
X86402625Y-104067109D01*
X82985462Y-104771338D02*
X83287346Y-104771338D01*
X83989600Y-104069083D02*
X86073861Y-104069083D01*
X83287346Y-104771338D02*
X83989600Y-104069083D01*
X86073861Y-104069083D02*
X86155087Y-104068596D01*
X86402625Y-104067109D02*
X86918874Y-104577195D01*
X87112682Y-104837523D02*
X87353140Y-105077981D01*
X87112294Y-104768306D02*
X87112682Y-104837523D01*
X86918874Y-104577195D02*
X87112294Y-104768306D01*
X87353140Y-105077981D02*
X87353140Y-105653840D01*
X87353140Y-105841198D02*
X87414100Y-105902158D01*
X87353140Y-105653840D02*
X87353140Y-105841198D01*
X87414100Y-105902158D02*
X87414100Y-106568240D01*
X89486160Y-104066543D02*
X91570421Y-104066543D01*
X88482022Y-104768798D02*
X88783906Y-104768798D01*
X92608854Y-104765766D02*
X92609242Y-104834983D01*
X92849700Y-105838658D02*
X92910660Y-105899618D01*
X92609242Y-104834983D02*
X92849700Y-105075441D01*
X92849700Y-105651300D02*
X92849700Y-105838658D01*
X91651647Y-104066056D02*
X91899185Y-104064569D01*
X88783906Y-104768798D02*
X89486160Y-104066543D01*
X92849700Y-105075441D02*
X92849700Y-105651300D01*
X92910660Y-105899618D02*
X92910660Y-106565700D01*
X92415434Y-104574655D02*
X92608854Y-104765766D01*
X92917520Y-106796480D02*
X92917520Y-106782360D01*
X91899185Y-104064569D02*
X92415434Y-104574655D01*
X91570421Y-104066543D02*
X91651647Y-104066056D01*
X107697960Y-112598403D02*
X109782221Y-112598403D01*
X106693822Y-113300658D02*
X106995706Y-113300658D01*
X110820654Y-113297626D02*
X110821042Y-113366843D01*
X111061500Y-114370518D02*
X111122460Y-114431478D01*
X110821042Y-113366843D02*
X111061500Y-113607301D01*
X111061500Y-114183160D02*
X111061500Y-114370518D01*
X109863447Y-112597916D02*
X110110985Y-112596429D01*
X106995706Y-113300658D02*
X107697960Y-112598403D01*
X111061500Y-113607301D02*
X111061500Y-114183160D01*
X111122460Y-114431478D02*
X111122460Y-115097560D01*
X110627234Y-113106515D02*
X110820654Y-113297626D01*
X111129320Y-115328340D02*
X111129320Y-115314220D01*
X110110985Y-112596429D02*
X110627234Y-113106515D01*
X109782221Y-112598403D02*
X109863447Y-112597916D01*
X111861600Y-105785318D02*
X111922560Y-105846278D01*
X107795806Y-104715458D02*
X108498060Y-104013203D01*
X111427334Y-104521315D02*
X111620754Y-104712426D01*
X110911085Y-104011229D02*
X111427334Y-104521315D01*
X107493922Y-104715458D02*
X107795806Y-104715458D01*
X111861600Y-105022101D02*
X111861600Y-105597960D01*
X111621142Y-104781643D02*
X111861600Y-105022101D01*
X111861600Y-105597960D02*
X111861600Y-105785318D01*
X110663547Y-104012716D02*
X110911085Y-104011229D01*
X111620754Y-104712426D02*
X111621142Y-104781643D01*
X106432860Y-106745680D02*
X106432860Y-106731560D01*
X108498060Y-104013203D02*
X110582321Y-104013203D01*
X111929420Y-106743140D02*
X111929420Y-106729020D01*
X110582321Y-104013203D02*
X110663547Y-104012716D01*
X111922560Y-105846278D02*
X111922560Y-106512360D01*
X153339800Y-105648760D02*
X153339800Y-105836118D01*
X147602782Y-104834983D02*
X147843240Y-105075441D01*
X153400760Y-105897078D02*
X153400760Y-106563160D01*
X153098954Y-104763226D02*
X153099342Y-104832443D01*
X147843240Y-105651300D02*
X147843240Y-105838658D01*
X152905534Y-104572115D02*
X153098954Y-104763226D01*
X146563961Y-104066543D02*
X146645187Y-104066056D01*
X147911060Y-106796480D02*
X147911060Y-106782360D01*
X164325300Y-105823418D02*
X164386260Y-105884378D01*
X155465200Y-104053843D02*
X157549461Y-104053843D01*
X153339800Y-105836118D02*
X153400760Y-105897078D01*
X147408974Y-104574655D02*
X147602394Y-104765766D01*
X153407620Y-106793940D02*
X153407620Y-106779820D01*
X152060521Y-104064003D02*
X152141747Y-104063516D01*
X164084454Y-104750526D02*
X164084842Y-104819743D01*
X149976260Y-104064003D02*
X152060521Y-104064003D01*
X152141747Y-104063516D02*
X152389285Y-104062029D01*
X144479700Y-104066543D02*
X146563961Y-104066543D01*
X158394474Y-104561955D02*
X158587894Y-104753066D01*
X147904200Y-105899618D02*
X147904200Y-106565700D01*
X163891034Y-104559415D02*
X164084454Y-104750526D01*
X158828740Y-105638600D02*
X158828740Y-105825958D01*
X158896560Y-106783780D02*
X158896560Y-106769660D01*
X163046021Y-104051303D02*
X163127247Y-104050816D01*
X158889700Y-105886918D02*
X158889700Y-106553000D01*
X164386260Y-105884378D02*
X164386260Y-106550460D01*
X153099342Y-104832443D02*
X153339800Y-105072901D01*
X146892725Y-104064569D02*
X147408974Y-104574655D01*
X152389285Y-104062029D02*
X152905534Y-104572115D01*
X160961760Y-104051303D02*
X163046021Y-104051303D01*
X157630687Y-104053356D02*
X157878225Y-104051869D01*
X159957622Y-104753558D02*
X160259506Y-104753558D01*
X158828740Y-105062741D02*
X158828740Y-105638600D01*
X164325300Y-105060201D02*
X164325300Y-105636060D01*
X158587894Y-104753066D02*
X158588282Y-104822283D01*
X147843240Y-105838658D02*
X147904200Y-105899618D01*
X143777446Y-104768798D02*
X144479700Y-104066543D01*
X143475562Y-104768798D02*
X143777446Y-104768798D01*
X154762946Y-104756098D02*
X155465200Y-104053843D01*
X154461062Y-104756098D02*
X154762946Y-104756098D01*
X163127247Y-104050816D02*
X163374785Y-104049329D01*
X147843240Y-105075441D02*
X147843240Y-105651300D01*
X153339800Y-105072901D02*
X153339800Y-105648760D01*
X147602394Y-104765766D02*
X147602782Y-104834983D01*
X157549461Y-104053843D02*
X157630687Y-104053356D01*
X164393120Y-106781240D02*
X164393120Y-106767120D01*
X149274006Y-104766258D02*
X149976260Y-104064003D01*
X146645187Y-104066056D02*
X146892725Y-104064569D01*
X158588282Y-104822283D02*
X158828740Y-105062741D01*
X164325300Y-105636060D02*
X164325300Y-105823418D01*
X148972122Y-104766258D02*
X149274006Y-104766258D01*
X160259506Y-104753558D02*
X160961760Y-104051303D01*
X164084842Y-104819743D02*
X164325300Y-105060201D01*
X157878225Y-104051869D02*
X158394474Y-104561955D01*
X163374785Y-104049329D02*
X163891034Y-104559415D01*
X158828740Y-105825958D02*
X158889700Y-105886918D01*
X132971540Y-105874218D02*
X133032500Y-105935178D01*
X132730694Y-104801326D02*
X132731082Y-104870543D01*
X133032500Y-105935178D02*
X133032500Y-106601260D01*
X127542800Y-106834580D02*
X127542800Y-106820460D01*
X131692261Y-104102103D02*
X131773487Y-104101616D01*
X132537274Y-104610215D02*
X132730694Y-104801326D01*
X131773487Y-104101616D02*
X132021025Y-104100129D01*
X133039360Y-106832040D02*
X133039360Y-106817920D01*
X132971540Y-105686860D02*
X132971540Y-105874218D01*
X128905746Y-104804358D02*
X129608000Y-104102103D01*
X132731082Y-104870543D02*
X132971540Y-105111001D01*
X132021025Y-104100129D02*
X132537274Y-104610215D01*
X129608000Y-104102103D02*
X131692261Y-104102103D01*
X128603862Y-104804358D02*
X128905746Y-104804358D01*
X132971540Y-105111001D02*
X132971540Y-105686860D01*
X78094840Y-114200940D02*
X78094840Y-114388298D01*
X78155800Y-114449258D02*
X78155800Y-115115340D01*
X79525606Y-113315898D02*
X80227860Y-112613643D01*
X83659220Y-115343580D02*
X83659220Y-115329460D01*
X82312121Y-112613643D02*
X82393347Y-112613156D01*
X78094840Y-114388298D02*
X78155800Y-114449258D01*
X83591400Y-113622541D02*
X83591400Y-114198400D01*
X76896787Y-112615696D02*
X77144325Y-112614209D01*
X79223722Y-113315898D02*
X79525606Y-113315898D01*
X77853994Y-113315406D02*
X77854382Y-113384623D01*
X83350942Y-113382083D02*
X83591400Y-113622541D01*
X94576900Y-114188240D02*
X94576900Y-114375598D01*
X88839882Y-113374463D02*
X89080340Y-113614921D01*
X74029046Y-113318438D02*
X74731300Y-112616183D01*
X73727162Y-113318438D02*
X74029046Y-113318438D01*
X94637860Y-114436558D02*
X94637860Y-115102640D01*
X94336054Y-113302706D02*
X94336442Y-113371923D01*
X89080340Y-114190780D02*
X89080340Y-114378138D01*
X94142634Y-113111595D02*
X94336054Y-113302706D01*
X87801061Y-112606023D02*
X87882287Y-112605536D01*
X89148160Y-115335960D02*
X89148160Y-115321840D01*
X76815561Y-112616183D02*
X76896787Y-112615696D01*
X74731300Y-112616183D02*
X76815561Y-112616183D01*
X80227860Y-112613643D02*
X82312121Y-112613643D01*
X77854382Y-113384623D02*
X78094840Y-113625081D01*
X78162660Y-115346120D02*
X78162660Y-115332000D01*
X105562400Y-114362898D02*
X105623360Y-114423858D01*
X96702300Y-112593323D02*
X98786561Y-112593323D01*
X94576900Y-114375598D02*
X94637860Y-114436558D01*
X88646074Y-113114135D02*
X88839494Y-113305246D01*
X83350554Y-113312866D02*
X83350942Y-113382083D01*
X83591400Y-114198400D02*
X83591400Y-114385758D01*
X83591400Y-114385758D02*
X83652360Y-114446718D01*
X83157134Y-113121755D02*
X83350554Y-113312866D01*
X82393347Y-112613156D02*
X82640885Y-112611669D01*
X82640885Y-112611669D02*
X83157134Y-113121755D01*
X83652360Y-114446718D02*
X83652360Y-115112800D01*
X94644720Y-115333420D02*
X94644720Y-115319300D01*
X93297621Y-112603483D02*
X93378847Y-112602996D01*
X105321554Y-113290006D02*
X105321942Y-113359223D01*
X91213360Y-112603483D02*
X93297621Y-112603483D01*
X77660574Y-113124295D02*
X77853994Y-113315406D01*
X93378847Y-112602996D02*
X93626385Y-112601509D01*
X85716800Y-112606023D02*
X87801061Y-112606023D01*
X99631574Y-113101435D02*
X99824994Y-113292546D01*
X89141300Y-114439098D02*
X89141300Y-115105180D01*
X105128134Y-113098895D02*
X105321554Y-113290006D01*
X100065840Y-114178080D02*
X100065840Y-114365438D01*
X100133660Y-115323260D02*
X100133660Y-115309140D01*
X104283121Y-112590783D02*
X104364347Y-112590296D01*
X100126800Y-114426398D02*
X100126800Y-115092480D01*
X105623360Y-114423858D02*
X105623360Y-115089940D01*
X78094840Y-113625081D02*
X78094840Y-114200940D01*
X77144325Y-112614209D02*
X77660574Y-113124295D01*
X94336442Y-113371923D02*
X94576900Y-113612381D01*
X88129825Y-112604049D02*
X88646074Y-113114135D01*
X93626385Y-112601509D02*
X94142634Y-113111595D01*
X102198860Y-112590783D02*
X104283121Y-112590783D01*
X98867787Y-112592836D02*
X99115325Y-112591349D01*
X101194722Y-113293038D02*
X101496606Y-113293038D01*
X100065840Y-113602221D02*
X100065840Y-114178080D01*
X105562400Y-113599681D02*
X105562400Y-114175540D01*
X99824994Y-113292546D02*
X99825382Y-113361763D01*
X89080340Y-114378138D02*
X89141300Y-114439098D01*
X85014546Y-113308278D02*
X85716800Y-112606023D01*
X84712662Y-113308278D02*
X85014546Y-113308278D01*
X96000046Y-113295578D02*
X96702300Y-112593323D01*
X95698162Y-113295578D02*
X96000046Y-113295578D01*
X104364347Y-112590296D02*
X104611885Y-112588809D01*
X89080340Y-113614921D02*
X89080340Y-114190780D01*
X94576900Y-113612381D02*
X94576900Y-114188240D01*
X88839494Y-113305246D02*
X88839882Y-113374463D01*
X98786561Y-112593323D02*
X98867787Y-112592836D01*
X105630220Y-115320720D02*
X105630220Y-115306600D01*
X90511106Y-113305738D02*
X91213360Y-112603483D01*
X87882287Y-112605536D02*
X88129825Y-112604049D01*
X99825382Y-113361763D02*
X100065840Y-113602221D01*
X105562400Y-114175540D02*
X105562400Y-114362898D01*
X90209222Y-113305738D02*
X90511106Y-113305738D01*
X101496606Y-113293038D02*
X102198860Y-112590783D01*
X105321942Y-113359223D02*
X105562400Y-113599681D01*
X99115325Y-112591349D02*
X99631574Y-113101435D01*
X104611885Y-112588809D02*
X105128134Y-113098895D01*
X100065840Y-114365438D02*
X100126800Y-114426398D01*
X162390566Y-113298118D02*
X163092820Y-112595863D01*
X160525534Y-113106515D02*
X160718954Y-113297626D01*
X159761747Y-112597916D02*
X160009285Y-112596429D01*
X128060960Y-115346120D02*
X128060960Y-115332000D01*
X165177081Y-112595863D02*
X165258307Y-112595376D01*
X133249242Y-113382083D02*
X133489700Y-113622541D01*
X162088682Y-113298118D02*
X162390566Y-113298118D01*
X166456360Y-113604761D02*
X166456360Y-114180620D01*
X145898346Y-113295578D02*
X146600600Y-112593323D01*
X145596462Y-113295578D02*
X145898346Y-113295578D01*
X149723294Y-113292546D02*
X149723682Y-113361763D01*
X133550660Y-114446718D02*
X133550660Y-115112800D01*
X161020760Y-114431478D02*
X161020760Y-115097560D01*
X149723682Y-113361763D02*
X149964140Y-113602221D01*
X160959800Y-114183160D02*
X160959800Y-114370518D01*
X132291647Y-112613156D02*
X132539185Y-112611669D01*
X166456360Y-114180620D02*
X166456360Y-114367978D01*
X159680521Y-112598403D02*
X159761747Y-112597916D01*
X134610962Y-113308278D02*
X134912846Y-113308278D01*
X133489700Y-114385758D02*
X133550660Y-114446718D01*
X133055434Y-113121755D02*
X133248854Y-113312866D01*
X138978640Y-113614921D02*
X138978640Y-114190780D01*
X160719342Y-113366843D02*
X160959800Y-113607301D01*
X160959800Y-114370518D02*
X161020760Y-114431478D01*
X156592122Y-113300658D02*
X156894006Y-113300658D01*
X154262647Y-112590296D02*
X154510185Y-112588809D01*
X133489700Y-114198400D02*
X133489700Y-114385758D01*
X132539185Y-112611669D02*
X133055434Y-113121755D01*
X166524180Y-115325800D02*
X166524180Y-115311680D01*
X155528520Y-115320720D02*
X155528520Y-115306600D01*
X160009285Y-112596429D02*
X160525534Y-113106515D01*
X138978640Y-114190780D02*
X138978640Y-114378138D01*
X166215514Y-113295086D02*
X166215902Y-113364303D01*
X156894006Y-113300658D02*
X157596260Y-112598403D01*
X149013625Y-112591349D02*
X149529874Y-113101435D01*
X149964140Y-113602221D02*
X149964140Y-114178080D01*
X138978640Y-114378138D02*
X139039600Y-114439098D01*
X165258307Y-112595376D02*
X165505845Y-112593889D01*
X138737794Y-113305246D02*
X138738182Y-113374463D01*
X166456360Y-114367978D02*
X166517320Y-114428938D01*
X161027620Y-115328340D02*
X161027620Y-115314220D01*
X160959800Y-113607301D02*
X160959800Y-114183160D01*
X165505845Y-112593889D02*
X166022094Y-113103975D01*
X166517320Y-114428938D02*
X166517320Y-115095020D01*
X139046460Y-115335960D02*
X139046460Y-115321840D01*
X157596260Y-112598403D02*
X159680521Y-112598403D01*
X137780587Y-112605536D02*
X138028125Y-112604049D01*
X144543020Y-115333420D02*
X144543020Y-115319300D01*
X155460700Y-114175540D02*
X155460700Y-114362898D01*
X163092820Y-112595863D02*
X165177081Y-112595863D01*
X166022094Y-113103975D02*
X166215514Y-113295086D01*
X129423906Y-113315898D02*
X130126160Y-112613643D01*
X149964140Y-114365438D02*
X150025100Y-114426398D01*
X138738182Y-113374463D02*
X138978640Y-113614921D01*
X155220242Y-113359223D02*
X155460700Y-113599681D01*
X160718954Y-113297626D02*
X160719342Y-113366843D01*
X137699361Y-112606023D02*
X137780587Y-112605536D01*
X151093022Y-113293038D02*
X151394906Y-113293038D01*
X148766087Y-112592836D02*
X149013625Y-112591349D01*
X149529874Y-113101435D02*
X149723294Y-113292546D01*
X139039600Y-114439098D02*
X139039600Y-115105180D01*
X155521660Y-114423858D02*
X155521660Y-115089940D01*
X132210421Y-112613643D02*
X132291647Y-112613156D01*
X133557520Y-115343580D02*
X133557520Y-115329460D01*
X150025100Y-114426398D02*
X150025100Y-115092480D01*
X138028125Y-112604049D02*
X138544374Y-113114135D01*
X129122022Y-113315898D02*
X129423906Y-113315898D01*
X155026434Y-113098895D02*
X155219854Y-113290006D01*
X149964140Y-114178080D02*
X149964140Y-114365438D01*
X130126160Y-112613643D02*
X132210421Y-112613643D01*
X154510185Y-112588809D02*
X155026434Y-113098895D01*
X155460700Y-113599681D02*
X155460700Y-114175540D01*
X146600600Y-112593323D02*
X148684861Y-112593323D01*
X134912846Y-113308278D02*
X135615100Y-112606023D01*
X133248854Y-113312866D02*
X133249242Y-113382083D01*
X135615100Y-112606023D02*
X137699361Y-112606023D01*
X152097160Y-112590783D02*
X154181421Y-112590783D01*
X155219854Y-113290006D02*
X155220242Y-113359223D01*
X151394906Y-113293038D02*
X152097160Y-112590783D01*
X154181421Y-112590783D02*
X154262647Y-112590296D01*
X155460700Y-114362898D02*
X155521660Y-114423858D01*
X150031960Y-115323260D02*
X150031960Y-115309140D01*
X133489700Y-113622541D02*
X133489700Y-114198400D01*
X148684861Y-112593323D02*
X148766087Y-112592836D01*
X138544374Y-113114135D02*
X138737794Y-113305246D01*
X166215902Y-113364303D02*
X166456360Y-113604761D01*
X105085761Y-104015743D02*
X105166987Y-104015256D01*
X103596643Y-104015743D02*
X105085761Y-104015743D01*
X102299246Y-104717998D02*
X103596643Y-104015743D01*
X106426000Y-105848818D02*
X106426000Y-106514900D01*
X106365040Y-105787858D02*
X106426000Y-105848818D01*
X102362000Y-104800400D02*
X102299246Y-104717998D01*
X105166987Y-104015256D02*
X105414525Y-104013769D01*
X106124194Y-104714966D02*
X106124582Y-104784183D01*
X105414525Y-104013769D02*
X106124194Y-104714966D01*
X106124582Y-104784183D02*
X106365040Y-105024641D01*
X106365040Y-105024641D02*
X106365040Y-105787858D01*
D14*
X71904860Y-105106720D02*
X74812140Y-105106720D01*
X74812140Y-105106720D02*
X75032278Y-105106720D01*
D15*
X112289442Y-106908600D02*
X111912400Y-106908600D01*
X112385401Y-107004559D02*
X112289442Y-106908600D01*
X112855721Y-107004559D02*
X112385401Y-107004559D01*
X112910911Y-108149371D02*
X113167721Y-107892561D01*
X111094520Y-113319560D02*
X112334117Y-112019003D01*
X113167721Y-107892561D02*
X113167721Y-107316559D01*
X112334117Y-112019003D02*
X112379421Y-111897899D01*
X113167721Y-107316559D02*
X112855721Y-107004559D01*
X112379421Y-111897899D02*
X112404015Y-111873305D01*
X112404015Y-111873305D02*
X112910911Y-108149371D01*
X128054100Y-114449258D02*
X128054100Y-115115340D01*
X127993140Y-113625081D02*
X127993140Y-114388298D01*
X127752682Y-113384623D02*
X127993140Y-113625081D01*
X127752294Y-113315406D02*
X127752682Y-113384623D01*
X127042625Y-112614209D02*
X127752294Y-113315406D01*
X124196182Y-112512182D02*
X124447300Y-112763300D01*
X123944380Y-112278160D02*
X124196182Y-112512182D01*
X123952000Y-112468660D02*
X123944380Y-112278160D01*
X124447300Y-112763300D02*
X124482483Y-112763300D01*
X127993140Y-114388298D02*
X128054100Y-114449258D01*
X124482483Y-112763300D02*
X124721485Y-112524298D01*
X124993642Y-112524298D02*
X126713861Y-112616183D01*
X124721485Y-112524298D02*
X124993642Y-112524298D01*
X126713861Y-112616183D02*
X126795087Y-112615696D01*
X123934220Y-112986820D02*
X123952000Y-112468660D01*
X126795087Y-112615696D02*
X127042625Y-112614209D01*
X127535940Y-105937718D02*
X127535940Y-106603800D01*
X127474980Y-105113541D02*
X127474980Y-105876758D01*
X124904500Y-102915720D02*
X126710440Y-104076500D01*
X127474980Y-105876758D02*
X127535940Y-105937718D01*
X127234134Y-104803866D02*
X127234522Y-104873083D01*
X126710440Y-104076500D02*
X127234134Y-104803866D01*
X127234522Y-104873083D02*
X127474980Y-105113541D01*
X132971540Y-105874218D02*
X134696200Y-107030520D01*
X134696200Y-107030520D02*
X134610962Y-113308278D01*
X144475200Y-113612381D02*
X144475200Y-114375598D01*
X144234742Y-113371923D02*
X144475200Y-113612381D01*
X144234354Y-113302706D02*
X144234742Y-113371923D01*
X144536160Y-114436558D02*
X144536160Y-115102640D01*
X144475200Y-114375598D02*
X144536160Y-114436558D01*
X140423900Y-112963960D02*
X141111660Y-112603483D01*
X141111660Y-112603483D02*
X143195921Y-112603483D01*
X143195921Y-112603483D02*
X143277147Y-112602996D01*
X143524685Y-112601509D02*
X144234354Y-113302706D01*
X143277147Y-112602996D02*
X143524685Y-112601509D01*
X82495109Y-104647011D02*
X82985462Y-104771338D01*
X74812140Y-105106720D02*
X82495109Y-104647011D01*
X91921514Y-110366626D02*
X91917520Y-111447940D01*
X89903300Y-109948980D02*
X90209319Y-109948980D01*
X91767531Y-110090790D02*
X91767531Y-110156489D01*
X90361830Y-109796469D02*
X91473210Y-109796469D01*
X91473210Y-109796469D02*
X91767531Y-110090790D01*
X91767531Y-110156489D02*
X91867521Y-110256479D01*
X91867521Y-110256479D02*
X91867521Y-110670340D01*
X90209319Y-109948980D02*
X90361830Y-109796469D01*
X110133314Y-118898486D02*
X110129320Y-119979800D01*
X108115100Y-118480840D02*
X108421119Y-118480840D01*
X109979331Y-118622650D02*
X109979331Y-118688349D01*
X108573630Y-118328329D02*
X109685010Y-118328329D01*
X109685010Y-118328329D02*
X109979331Y-118622650D01*
X109979331Y-118688349D02*
X110079321Y-118788339D01*
X110079321Y-118788339D02*
X110079321Y-119202200D01*
X108421119Y-118480840D02*
X108573630Y-118328329D01*
X103724659Y-109898180D02*
X103877170Y-109745669D01*
X105382861Y-110205679D02*
X105382861Y-110619540D01*
X108915200Y-109895640D02*
X109221219Y-109895640D01*
X105282871Y-110105689D02*
X105382861Y-110205679D01*
X105282871Y-110039990D02*
X105282871Y-110105689D01*
X105436854Y-110315826D02*
X105432860Y-111397140D01*
X109221219Y-109895640D02*
X109373730Y-109743129D01*
X109373730Y-109743129D02*
X110485110Y-109743129D01*
X110779431Y-110037450D02*
X110779431Y-110103149D01*
X103877170Y-109745669D02*
X104988550Y-109745669D01*
X110933414Y-110313286D02*
X110929420Y-111394600D01*
X104988550Y-109745669D02*
X105282871Y-110039990D01*
X110779431Y-110103149D02*
X110879421Y-110203139D01*
X110485110Y-109743129D02*
X110779431Y-110037450D01*
X103418640Y-109898180D02*
X103724659Y-109898180D01*
X110879421Y-110203139D02*
X110879421Y-110617000D01*
X151963310Y-109793929D02*
X152257631Y-110088250D01*
X157900554Y-110353926D02*
X157896560Y-111435240D01*
X157846561Y-110243779D02*
X157846561Y-110657640D01*
X144896840Y-109948980D02*
X145202859Y-109948980D01*
X150393400Y-109946440D02*
X150699419Y-109946440D01*
X145202859Y-109948980D02*
X145355370Y-109796469D01*
X161684919Y-109933740D02*
X161837430Y-109781229D01*
X157746571Y-110143789D02*
X157846561Y-110243779D01*
X146861061Y-110256479D02*
X146861061Y-110670340D01*
X155882340Y-109936280D02*
X156188359Y-109936280D01*
X156188359Y-109936280D02*
X156340870Y-109783769D01*
X146761071Y-110156489D02*
X146861061Y-110256479D01*
X146761071Y-110090790D02*
X146761071Y-110156489D01*
X146915054Y-110366626D02*
X146911060Y-111447940D01*
X157746571Y-110078090D02*
X157746571Y-110143789D01*
X152411614Y-110364086D02*
X152407620Y-111445400D01*
X157452250Y-109783769D02*
X157746571Y-110078090D01*
X161837430Y-109781229D02*
X162948810Y-109781229D01*
X156340870Y-109783769D02*
X157452250Y-109783769D01*
X152257631Y-110088250D02*
X152257631Y-110153949D01*
X152257631Y-110153949D02*
X152357621Y-110253939D01*
X152357621Y-110253939D02*
X152357621Y-110667800D01*
X163243131Y-110141249D02*
X163343121Y-110241239D01*
X163343121Y-110241239D02*
X163343121Y-110655100D01*
X150851930Y-109793929D02*
X151963310Y-109793929D01*
X145355370Y-109796469D02*
X146466750Y-109796469D01*
X161378900Y-109933740D02*
X161684919Y-109933740D01*
X150699419Y-109946440D02*
X150851930Y-109793929D01*
X146466750Y-109796469D02*
X146761071Y-110090790D01*
X162948810Y-109781229D02*
X163243131Y-110075550D01*
X163397114Y-110351386D02*
X163393120Y-111432700D01*
X163243131Y-110075550D02*
X163243131Y-110141249D01*
X126546794Y-110404726D02*
X126542800Y-111486040D01*
X126392811Y-110194589D02*
X126492801Y-110294579D01*
X131595050Y-109832029D02*
X131889371Y-110126350D01*
X130331159Y-109984540D02*
X130483670Y-109832029D01*
X124834599Y-109987080D02*
X124987110Y-109834569D01*
X124528580Y-109987080D02*
X124834599Y-109987080D01*
X126492801Y-110294579D02*
X126492801Y-110708440D01*
X131889371Y-110192049D02*
X131989361Y-110292039D01*
X131989361Y-110292039D02*
X131989361Y-110705900D01*
X130025140Y-109984540D02*
X130331159Y-109984540D01*
X132043354Y-110402186D02*
X132039360Y-111483500D01*
X131889371Y-110126350D02*
X131889371Y-110192049D01*
X126392811Y-110128890D02*
X126392811Y-110194589D01*
X126098490Y-109834569D02*
X126392811Y-110128890D01*
X130483670Y-109832029D02*
X131595050Y-109832029D01*
X124987110Y-109834569D02*
X126098490Y-109834569D01*
X82609221Y-118803579D02*
X82609221Y-119217440D01*
X82509231Y-118637890D02*
X82509231Y-118703589D01*
X80645000Y-118496080D02*
X80951019Y-118496080D01*
X75148440Y-118498620D02*
X75454459Y-118498620D01*
X76718350Y-118346109D02*
X77012671Y-118640430D01*
X77112661Y-118806119D02*
X77112661Y-119219980D01*
X93200410Y-118333409D02*
X93494731Y-118627730D01*
X81103530Y-118343569D02*
X82214910Y-118343569D01*
X77012671Y-118706129D02*
X77112661Y-118806119D01*
X82509231Y-118703589D02*
X82609221Y-118803579D01*
X82214910Y-118343569D02*
X82509231Y-118637890D01*
X75606970Y-118346109D02*
X76718350Y-118346109D01*
X77012671Y-118640430D02*
X77012671Y-118706129D01*
X99137654Y-118893406D02*
X99133660Y-119974720D01*
X99083661Y-118783259D02*
X99083661Y-119197120D01*
X86133940Y-118488460D02*
X86439959Y-118488460D01*
X91630500Y-118485920D02*
X91936519Y-118485920D01*
X86439959Y-118488460D02*
X86592470Y-118335949D01*
X102922019Y-118473220D02*
X103074530Y-118320709D01*
X98983671Y-118683269D02*
X99083661Y-118783259D01*
X88098161Y-118795959D02*
X88098161Y-119209820D01*
X97119440Y-118475760D02*
X97425459Y-118475760D01*
X97425459Y-118475760D02*
X97577970Y-118323249D01*
X87998171Y-118695969D02*
X88098161Y-118795959D01*
X87998171Y-118630270D02*
X87998171Y-118695969D01*
X88152154Y-118906106D02*
X88148160Y-119987420D01*
X75454459Y-118498620D02*
X75606970Y-118346109D01*
X77166654Y-118916266D02*
X77162660Y-119997580D01*
X80951019Y-118496080D02*
X81103530Y-118343569D01*
X82663214Y-118913726D02*
X82659220Y-119995040D01*
X98983671Y-118617570D02*
X98983671Y-118683269D01*
X93648714Y-118903566D02*
X93644720Y-119984880D01*
X98689350Y-118323249D02*
X98983671Y-118617570D01*
X103074530Y-118320709D02*
X104185910Y-118320709D01*
X97577970Y-118323249D02*
X98689350Y-118323249D01*
X93494731Y-118627730D02*
X93494731Y-118693429D01*
X93494731Y-118693429D02*
X93594721Y-118793419D01*
X93594721Y-118793419D02*
X93594721Y-119207280D01*
X104480231Y-118680729D02*
X104580221Y-118780719D01*
X104580221Y-118780719D02*
X104580221Y-119194580D01*
X92089030Y-118333409D02*
X93200410Y-118333409D01*
X86592470Y-118335949D02*
X87703850Y-118335949D01*
X102616000Y-118473220D02*
X102922019Y-118473220D01*
X91936519Y-118485920D02*
X92089030Y-118333409D01*
X87703850Y-118335949D02*
X87998171Y-118630270D01*
X104185910Y-118320709D02*
X104480231Y-118615030D01*
X104634214Y-118890866D02*
X104630220Y-119972180D01*
X104480231Y-118615030D02*
X104480231Y-118680729D01*
X165079870Y-118325789D02*
X165374191Y-118620110D01*
X152972830Y-118320709D02*
X154084210Y-118320709D01*
X147476270Y-118323249D02*
X148587650Y-118323249D01*
X158013400Y-118480840D02*
X158319419Y-118480840D01*
X143393031Y-118627730D02*
X143393031Y-118693429D01*
X158319419Y-118480840D02*
X158471930Y-118328329D01*
X136338259Y-118488460D02*
X136490770Y-118335949D01*
X132561514Y-118913726D02*
X132557520Y-119995040D01*
X132113210Y-118343569D02*
X132407531Y-118637890D01*
X158471930Y-118328329D02*
X159583310Y-118328329D01*
X127064954Y-118916266D02*
X127060960Y-119997580D01*
X165474181Y-118785799D02*
X165474181Y-119199660D01*
X159583310Y-118328329D02*
X159877631Y-118622650D01*
X154478521Y-118780719D02*
X154478521Y-119194580D01*
X148981961Y-118783259D02*
X148981961Y-119197120D01*
X159877631Y-118622650D02*
X159877631Y-118688349D01*
X136490770Y-118335949D02*
X137602150Y-118335949D01*
X137602150Y-118335949D02*
X137896471Y-118630270D01*
X159977621Y-118788339D02*
X159977621Y-119202200D01*
X165374191Y-118620110D02*
X165374191Y-118685809D01*
X165528174Y-118895946D02*
X165524180Y-119977260D01*
X160031614Y-118898486D02*
X160027620Y-119979800D01*
X154378531Y-118680729D02*
X154478521Y-118780719D01*
X148881971Y-118617570D02*
X148881971Y-118683269D01*
X163968490Y-118325789D02*
X165079870Y-118325789D01*
X141987330Y-118333409D02*
X143098710Y-118333409D01*
X154378531Y-118615030D02*
X154378531Y-118680729D01*
X154084210Y-118320709D02*
X154378531Y-118615030D01*
X141834819Y-118485920D02*
X141987330Y-118333409D01*
X147017740Y-118475760D02*
X147323759Y-118475760D01*
X159877631Y-118688349D02*
X159977621Y-118788339D01*
X165374191Y-118685809D02*
X165474181Y-118785799D01*
X143098710Y-118333409D02*
X143393031Y-118627730D01*
X143493021Y-118793419D02*
X143493021Y-119207280D01*
X132507521Y-118803579D02*
X132507521Y-119217440D01*
X163815979Y-118478300D02*
X163968490Y-118325789D01*
X154532514Y-118890866D02*
X154528520Y-119972180D01*
X132407531Y-118637890D02*
X132407531Y-118703589D01*
X152820319Y-118473220D02*
X152972830Y-118320709D01*
X163509960Y-118478300D02*
X163815979Y-118478300D01*
X131001830Y-118343569D02*
X132113210Y-118343569D01*
X143393031Y-118693429D02*
X143493021Y-118793419D01*
X149035954Y-118893406D02*
X149031960Y-119974720D01*
X152514300Y-118473220D02*
X152820319Y-118473220D01*
X132407531Y-118703589D02*
X132507521Y-118803579D01*
X137896471Y-118630270D02*
X137896471Y-118695969D01*
X136032240Y-118488460D02*
X136338259Y-118488460D01*
X138050454Y-118906106D02*
X138046460Y-119987420D01*
X137896471Y-118695969D02*
X137996461Y-118795959D01*
X143547014Y-118903566D02*
X143543020Y-119984880D01*
X148587650Y-118323249D02*
X148881971Y-118617570D01*
X147323759Y-118475760D02*
X147476270Y-118323249D01*
X141528800Y-118485920D02*
X141834819Y-118485920D01*
X137996461Y-118795959D02*
X137996461Y-119209820D01*
X130543300Y-118496080D02*
X130849319Y-118496080D01*
X148881971Y-118683269D02*
X148981961Y-118783259D01*
X130849319Y-118496080D02*
X131001830Y-118343569D01*
X126910971Y-118706129D02*
X127010961Y-118806119D01*
X127010961Y-118806119D02*
X127010961Y-119219980D01*
X126910971Y-118640430D02*
X126910971Y-118706129D01*
X126616650Y-118346109D02*
X126910971Y-118640430D01*
D14*
X73644760Y-108606720D02*
X73422640Y-108606720D01*
X73422640Y-108606720D02*
X71741160Y-108606720D01*
D15*
X114853720Y-115102640D02*
X115378230Y-112769650D01*
X114004469Y-117306531D02*
X114853720Y-115102640D01*
X112453420Y-118513860D02*
X112851202Y-118513860D01*
X112851202Y-118513860D02*
X113411000Y-117954062D01*
X113411000Y-117954062D02*
X113411000Y-117900001D01*
X113411000Y-117900001D02*
X114004469Y-117306531D01*
X115740180Y-110571280D02*
X115735100Y-109964220D01*
X115341864Y-112931404D02*
X115326481Y-112717901D01*
X115326481Y-111841191D02*
X115433692Y-110854072D01*
X115326481Y-112717901D02*
X115326481Y-111841191D01*
X115433692Y-110854072D02*
X115740180Y-110571280D01*
X119781320Y-110780558D02*
X119575580Y-107241340D01*
X119781320Y-116631720D02*
X119781320Y-110780558D01*
X127081280Y-117952520D02*
X126616650Y-118346109D01*
X80487520Y-109888020D02*
X81419700Y-109994700D01*
X73638100Y-108609440D02*
X80487520Y-109888020D01*
X73422640Y-108606720D02*
X73638100Y-108609440D01*
X85681820Y-109237780D02*
X86941660Y-109237780D01*
X85189269Y-109768849D02*
X85671660Y-109220000D01*
X84865270Y-109799009D02*
X85189269Y-109768849D01*
X84712759Y-109951520D02*
X84865270Y-109799009D01*
X84406740Y-109951520D02*
X84712759Y-109951520D01*
X86686442Y-110018882D02*
X86387940Y-110533180D01*
X87205820Y-109702600D02*
X86686442Y-110018882D01*
X86941660Y-109237780D02*
X87205820Y-109702600D01*
D14*
X71904860Y-109106720D02*
X73633580Y-109106720D01*
D15*
X85810961Y-110199019D02*
X85870961Y-110259019D01*
X85030959Y-110199019D02*
X85810961Y-110199019D01*
X84745110Y-110484868D02*
X85030959Y-110199019D01*
X84745110Y-110757250D02*
X84745110Y-110484868D01*
X85870961Y-110259019D02*
X85870961Y-110769400D01*
X90241670Y-110754710D02*
X90241670Y-110482328D01*
X90241670Y-110482328D02*
X90527519Y-110196479D01*
X91367521Y-110256479D02*
X91367521Y-110766860D01*
X90527519Y-110196479D02*
X91307521Y-110196479D01*
X91307521Y-110196479D02*
X91367521Y-110256479D01*
X108453470Y-119286570D02*
X108453470Y-119014188D01*
X108453470Y-119014188D02*
X108739319Y-118728339D01*
X109579321Y-118788339D02*
X109579321Y-119298720D01*
X108739319Y-118728339D02*
X109519321Y-118728339D01*
X109519321Y-118728339D02*
X109579321Y-118788339D01*
X103757010Y-110431528D02*
X104042859Y-110145679D01*
X104822861Y-110145679D02*
X104882861Y-110205679D01*
X109253570Y-110428988D02*
X109539419Y-110143139D01*
X104042859Y-110145679D02*
X104822861Y-110145679D01*
X104882861Y-110205679D02*
X104882861Y-110716060D01*
X103757010Y-110703910D02*
X103757010Y-110431528D01*
X110319421Y-110143139D02*
X110379421Y-110203139D01*
X109253570Y-110701370D02*
X109253570Y-110428988D01*
X109539419Y-110143139D02*
X110319421Y-110143139D01*
X110379421Y-110203139D02*
X110379421Y-110713520D01*
X151857621Y-110253939D02*
X151857621Y-110764320D01*
X145235210Y-110482328D02*
X145521059Y-110196479D01*
X146361061Y-110256479D02*
X146361061Y-110766860D01*
X151797621Y-110193939D02*
X151857621Y-110253939D01*
X161717270Y-110739470D02*
X161717270Y-110467088D01*
X150731770Y-110752170D02*
X150731770Y-110479788D01*
X162783121Y-110181239D02*
X162843121Y-110241239D01*
X150731770Y-110479788D02*
X151017619Y-110193939D01*
X145235210Y-110754710D02*
X145235210Y-110482328D01*
X162843121Y-110241239D02*
X162843121Y-110751620D01*
X157286561Y-110183779D02*
X157346561Y-110243779D01*
X156506559Y-110183779D02*
X157286561Y-110183779D01*
X151017619Y-110193939D02*
X151797621Y-110193939D01*
X162003119Y-110181239D02*
X162783121Y-110181239D01*
X146301061Y-110196479D02*
X146361061Y-110256479D01*
X157346561Y-110243779D02*
X157346561Y-110754160D01*
X145521059Y-110196479D02*
X146301061Y-110196479D01*
X156220710Y-110469628D02*
X156506559Y-110183779D01*
X161717270Y-110467088D02*
X162003119Y-110181239D01*
X156220710Y-110742010D02*
X156220710Y-110469628D01*
X130363510Y-110790270D02*
X130363510Y-110517888D01*
X131429361Y-110232039D02*
X131489361Y-110292039D01*
X130649359Y-110232039D02*
X131429361Y-110232039D01*
X125992801Y-110294579D02*
X125992801Y-110804960D01*
X124866950Y-110520428D02*
X125152799Y-110234579D01*
X131489361Y-110292039D02*
X131489361Y-110802420D01*
X130363510Y-110517888D02*
X130649359Y-110232039D01*
X124866950Y-110792810D02*
X124866950Y-110520428D01*
X125932801Y-110234579D02*
X125992801Y-110294579D01*
X125152799Y-110234579D02*
X125932801Y-110234579D01*
X82109221Y-118803579D02*
X82109221Y-119313960D01*
X75772659Y-118746119D02*
X76552661Y-118746119D01*
X76552661Y-118746119D02*
X76612661Y-118806119D01*
X81269219Y-118743579D02*
X82049221Y-118743579D01*
X80983370Y-119301810D02*
X80983370Y-119029428D01*
X75486810Y-119031968D02*
X75772659Y-118746119D01*
X93094721Y-118793419D02*
X93094721Y-119303800D01*
X86472310Y-119021808D02*
X86758159Y-118735959D01*
X82049221Y-118743579D02*
X82109221Y-118803579D01*
X87598161Y-118795959D02*
X87598161Y-119306340D01*
X80983370Y-119029428D02*
X81269219Y-118743579D01*
X93034721Y-118733419D02*
X93094721Y-118793419D01*
X102954370Y-119278950D02*
X102954370Y-119006568D01*
X91968870Y-119291650D02*
X91968870Y-119019268D01*
X75486810Y-119304350D02*
X75486810Y-119031968D01*
X104020221Y-118720719D02*
X104080221Y-118780719D01*
X76612661Y-118806119D02*
X76612661Y-119316500D01*
X91968870Y-119019268D02*
X92254719Y-118733419D01*
X86472310Y-119294190D02*
X86472310Y-119021808D01*
X104080221Y-118780719D02*
X104080221Y-119291100D01*
X98523661Y-118723259D02*
X98583661Y-118783259D01*
X97743659Y-118723259D02*
X98523661Y-118723259D01*
X92254719Y-118733419D02*
X93034721Y-118733419D01*
X103240219Y-118720719D02*
X104020221Y-118720719D01*
X87538161Y-118735959D02*
X87598161Y-118795959D01*
X98583661Y-118783259D02*
X98583661Y-119293640D01*
X86758159Y-118735959D02*
X87538161Y-118735959D01*
X97457810Y-119009108D02*
X97743659Y-118723259D01*
X102954370Y-119006568D02*
X103240219Y-118720719D01*
X97457810Y-119281490D02*
X97457810Y-119009108D01*
X148421961Y-118723259D02*
X148481961Y-118783259D01*
X141867170Y-119019268D02*
X142153019Y-118733419D01*
X136370610Y-119294190D02*
X136370610Y-119021808D01*
X158351770Y-119014188D02*
X158637619Y-118728339D01*
X159417621Y-118728339D02*
X159477621Y-118788339D01*
X158351770Y-119286570D02*
X158351770Y-119014188D01*
X164914181Y-118725799D02*
X164974181Y-118785799D01*
X164134179Y-118725799D02*
X164914181Y-118725799D01*
X148481961Y-118783259D02*
X148481961Y-119293640D01*
X159477621Y-118788339D02*
X159477621Y-119298720D01*
X153978521Y-118780719D02*
X153978521Y-119291100D01*
X137436461Y-118735959D02*
X137496461Y-118795959D01*
X153138519Y-118720719D02*
X153918521Y-118720719D01*
X141867170Y-119291650D02*
X141867170Y-119019268D01*
X163848330Y-119011648D02*
X164134179Y-118725799D01*
X158637619Y-118728339D02*
X159417621Y-118728339D01*
X152852670Y-119278950D02*
X152852670Y-119006568D01*
X164974181Y-118785799D02*
X164974181Y-119296180D01*
X137496461Y-118795959D02*
X137496461Y-119306340D01*
X130881670Y-119301810D02*
X130881670Y-119029428D01*
X136370610Y-119021808D02*
X136656459Y-118735959D01*
X136656459Y-118735959D02*
X137436461Y-118735959D01*
X147356110Y-119009108D02*
X147641959Y-118723259D01*
X131167519Y-118743579D02*
X131947521Y-118743579D01*
X131947521Y-118743579D02*
X132007521Y-118803579D01*
X147641959Y-118723259D02*
X148421961Y-118723259D01*
X142993021Y-118793419D02*
X142993021Y-119303800D01*
X142153019Y-118733419D02*
X142933021Y-118733419D01*
X152852670Y-119006568D02*
X153138519Y-118720719D01*
X147356110Y-119281490D02*
X147356110Y-119009108D01*
X142933021Y-118733419D02*
X142993021Y-118793419D01*
X132007521Y-118803579D02*
X132007521Y-119313960D01*
X153918521Y-118720719D02*
X153978521Y-118780719D01*
X163848330Y-119284030D02*
X163848330Y-119011648D01*
X130881670Y-119029428D02*
X131167519Y-118743579D01*
X116108480Y-111602520D02*
X116083080Y-111602520D01*
X116006880Y-111310420D02*
X116006880Y-111704120D01*
X116025930Y-111723170D02*
X115739191Y-112009909D01*
X116006880Y-111704120D02*
X116025930Y-111723170D01*
X116095780Y-111653320D02*
X116025930Y-111723170D01*
X116108480Y-111602520D02*
X116006880Y-111310420D01*
X115726491Y-112552212D02*
X115726491Y-111959109D01*
X113016891Y-118913870D02*
X113811008Y-118119752D01*
X115323769Y-115252649D02*
X115849801Y-112675522D01*
X114617500Y-117269260D02*
X115323769Y-115252649D01*
X112755680Y-119099602D02*
X112941412Y-118913870D01*
X112755680Y-119296180D02*
X112755680Y-119099602D01*
X113811008Y-118065691D02*
X114170158Y-117706541D01*
X112941412Y-118913870D02*
X113016891Y-118913870D01*
X114170158Y-117706541D02*
X114617500Y-117269260D01*
X115849801Y-112675522D02*
X115726491Y-112552212D01*
X113811008Y-118119752D02*
X113811008Y-118065691D01*
X119127572Y-116973048D02*
X118899940Y-107729020D01*
X119298720Y-117363240D02*
X119127572Y-116973048D01*
X126432159Y-118746119D02*
X125945900Y-118399560D01*
X126450961Y-118746119D02*
X126432159Y-118746119D01*
X126510961Y-118806119D02*
X126450961Y-118746119D01*
X126510961Y-119316500D02*
X126510961Y-118806119D01*
X80792320Y-110718600D02*
X81887060Y-110807500D01*
X73633580Y-109106720D02*
X80792320Y-110718600D01*
D14*
X71785480Y-108106720D02*
X73704517Y-108106720D01*
D15*
X73823897Y-108167103D02*
X73934542Y-108167103D01*
X85394440Y-106799020D02*
X85420960Y-106799020D01*
X90891000Y-106796480D02*
X90917520Y-106796480D01*
X90208100Y-109199680D02*
X90891000Y-106796480D01*
X109102800Y-115328340D02*
X109129320Y-115328340D01*
X108419900Y-117731540D02*
X109102800Y-115328340D01*
X109902900Y-106743140D02*
X109929420Y-106743140D01*
X104406340Y-106745680D02*
X104432860Y-106745680D01*
X103723440Y-109148880D02*
X104406340Y-106745680D01*
X109220000Y-109146340D02*
X109902900Y-106743140D01*
X151381100Y-106793940D02*
X151407620Y-106793940D01*
X150698200Y-109197140D02*
X151381100Y-106793940D01*
X162366600Y-106781240D02*
X162393120Y-106781240D01*
X161683700Y-109184440D02*
X162366600Y-106781240D01*
X145201640Y-109199680D02*
X145884540Y-106796480D01*
X145884540Y-106796480D02*
X145911060Y-106796480D01*
X156187140Y-109186980D02*
X156870040Y-106783780D01*
X156870040Y-106783780D02*
X156896560Y-106783780D01*
X131012840Y-106832040D02*
X131039360Y-106832040D01*
X130329940Y-109235240D02*
X131012840Y-106832040D01*
X124833380Y-109237780D02*
X125516280Y-106834580D01*
X125516280Y-106834580D02*
X125542800Y-106834580D01*
X80949800Y-117746780D02*
X81632700Y-115343580D01*
X76136140Y-115346120D02*
X76162660Y-115346120D01*
X92618200Y-115333420D02*
X92644720Y-115333420D01*
X91935300Y-117736620D02*
X92618200Y-115333420D01*
X75453240Y-117749320D02*
X76136140Y-115346120D01*
X103603700Y-115320720D02*
X103630220Y-115320720D01*
X102920800Y-117723920D02*
X103603700Y-115320720D01*
X81632700Y-115343580D02*
X81659220Y-115343580D01*
X86438740Y-117739160D02*
X87121640Y-115335960D01*
X87121640Y-115335960D02*
X87148160Y-115335960D01*
X97424240Y-117726460D02*
X98107140Y-115323260D01*
X98107140Y-115323260D02*
X98133660Y-115323260D01*
X142516500Y-115333420D02*
X142543020Y-115333420D01*
X159001100Y-115328340D02*
X159027620Y-115328340D01*
X137019940Y-115335960D02*
X137046460Y-115335960D01*
X158318200Y-117731540D02*
X159001100Y-115328340D01*
X136337040Y-117739160D02*
X137019940Y-115335960D01*
X163814760Y-117729000D02*
X164497660Y-115325800D01*
X141833600Y-117736620D02*
X142516500Y-115333420D01*
X147322540Y-117726460D02*
X148005440Y-115323260D01*
X130848100Y-117746780D02*
X131531000Y-115343580D01*
X152819100Y-117723920D02*
X153502000Y-115320720D01*
X153502000Y-115320720D02*
X153528520Y-115320720D01*
X148005440Y-115323260D02*
X148031960Y-115323260D01*
X164497660Y-115325800D02*
X164524180Y-115325800D01*
X131531000Y-115343580D02*
X131557520Y-115343580D01*
X114411760Y-115120420D02*
X114926471Y-112748969D01*
X112763300Y-117713760D02*
X113031542Y-117713760D01*
X113031542Y-117713760D02*
X113647781Y-117097521D01*
X113647781Y-117097521D02*
X113647781Y-116906521D01*
X113647781Y-116906521D02*
X114411760Y-115120420D01*
X115783360Y-109171740D02*
X115783360Y-108803440D01*
X115780820Y-109174280D02*
X115783360Y-109171740D01*
X114926471Y-112748969D02*
X114926471Y-111819537D01*
X114926471Y-111819537D02*
X115159585Y-109673185D01*
X115303300Y-109514640D02*
X115780820Y-109174280D01*
X115159585Y-109673185D02*
X115303300Y-109514640D01*
X120512840Y-116177060D02*
X120594120Y-116603780D01*
X120345200Y-106692700D02*
X120512840Y-116177060D01*
X126034440Y-115346120D02*
X126060960Y-115346120D01*
X122313700Y-119362220D02*
X124566680Y-115564920D01*
X124566680Y-115564920D02*
X126034440Y-115346120D01*
X120594120Y-116603780D02*
X122313700Y-119362220D01*
X80832960Y-109237780D02*
X81887060Y-109265720D01*
X73704517Y-108106720D02*
X80832960Y-109237780D01*
X84747100Y-107975400D02*
X85270340Y-107970320D01*
X85270340Y-107970320D02*
X85440520Y-107348020D01*
X84711540Y-109202220D02*
X84213700Y-109049820D01*
X85440520Y-107348020D02*
X85420960Y-106799020D01*
X84213700Y-109049820D02*
X82824721Y-108560001D01*
X82824721Y-108560001D02*
X82989420Y-108074460D01*
X82989420Y-108074460D02*
X84747100Y-107975400D01*
D14*
X71904860Y-109606720D02*
X73448540Y-109606720D01*
D15*
X85220958Y-111723318D02*
X84856320Y-111566960D01*
X85220958Y-111656982D02*
X85220958Y-111723318D01*
X85389720Y-111488220D02*
X85220958Y-111656982D01*
X90717518Y-111720778D02*
X90352880Y-111564420D01*
X90717518Y-111654442D02*
X90717518Y-111720778D01*
X90886280Y-111485680D02*
X90717518Y-111654442D01*
X108929318Y-120252638D02*
X108564680Y-120096280D01*
X108929318Y-120186302D02*
X108929318Y-120252638D01*
X109098080Y-120017540D02*
X108929318Y-120186302D01*
X109729418Y-111667438D02*
X109364780Y-111511080D01*
X109898180Y-111432340D02*
X109729418Y-111601102D01*
X104232858Y-111603642D02*
X104232858Y-111669978D01*
X109729418Y-111601102D02*
X109729418Y-111667438D01*
X104401620Y-111434880D02*
X104232858Y-111603642D01*
X104232858Y-111669978D02*
X103868220Y-111513620D01*
X145711058Y-111720778D02*
X145346420Y-111564420D01*
X156696558Y-111708078D02*
X156331920Y-111551720D01*
X151207618Y-111718238D02*
X150842980Y-111561880D01*
X162193118Y-111705538D02*
X161828480Y-111549180D01*
X162361880Y-111470440D02*
X162193118Y-111639202D01*
X156696558Y-111641742D02*
X156696558Y-111708078D01*
X151207618Y-111651902D02*
X151207618Y-111718238D01*
X145879820Y-111485680D02*
X145711058Y-111654442D01*
X162193118Y-111639202D02*
X162193118Y-111705538D01*
X151376380Y-111483140D02*
X151207618Y-111651902D01*
X145711058Y-111654442D02*
X145711058Y-111720778D01*
X156865320Y-111472980D02*
X156696558Y-111641742D01*
X125342798Y-111758878D02*
X124978160Y-111602520D01*
X130839358Y-111690002D02*
X130839358Y-111756338D01*
X125511560Y-111523780D02*
X125342798Y-111692542D01*
X130839358Y-111756338D02*
X130474720Y-111599980D01*
X131008120Y-111521240D02*
X130839358Y-111690002D01*
X125342798Y-111692542D02*
X125342798Y-111758878D01*
X81627980Y-120032780D02*
X81459218Y-120201542D01*
X75962658Y-120204082D02*
X75962658Y-120270418D01*
X86948158Y-120260258D02*
X86583520Y-120103900D01*
X81459218Y-120201542D02*
X81459218Y-120267878D01*
X81459218Y-120267878D02*
X81094580Y-120111520D01*
X75962658Y-120270418D02*
X75598020Y-120114060D01*
X76131420Y-120035320D02*
X75962658Y-120204082D01*
X97933658Y-120247558D02*
X97569020Y-120091200D01*
X92444718Y-120257718D02*
X92080080Y-120101360D01*
X103430218Y-120245018D02*
X103065580Y-120088660D01*
X103598980Y-120009920D02*
X103430218Y-120178682D01*
X97933658Y-120181222D02*
X97933658Y-120247558D01*
X92444718Y-120191382D02*
X92444718Y-120257718D01*
X87116920Y-120025160D02*
X86948158Y-120193922D01*
X103430218Y-120178682D02*
X103430218Y-120245018D01*
X92613480Y-120022620D02*
X92444718Y-120191382D01*
X86948158Y-120193922D02*
X86948158Y-120260258D01*
X98102420Y-120012460D02*
X97933658Y-120181222D01*
X142343018Y-120257718D02*
X141978380Y-120101360D01*
X158996380Y-120017540D02*
X158827618Y-120186302D01*
X158827618Y-120252638D02*
X158462980Y-120096280D01*
X158827618Y-120186302D02*
X158827618Y-120252638D01*
X153328518Y-120178682D02*
X153328518Y-120245018D01*
X164492940Y-120015000D02*
X164324178Y-120183762D01*
X142511780Y-120022620D02*
X142343018Y-120191382D01*
X148000720Y-120012460D02*
X147831958Y-120181222D01*
X164324178Y-120250098D02*
X163959540Y-120093740D01*
X164324178Y-120183762D02*
X164324178Y-120250098D01*
X136846458Y-120193922D02*
X136846458Y-120260258D01*
X137015220Y-120025160D02*
X136846458Y-120193922D01*
X147831958Y-120181222D02*
X147831958Y-120247558D01*
X142343018Y-120191382D02*
X142343018Y-120257718D01*
X153497280Y-120009920D02*
X153328518Y-120178682D01*
X131526280Y-120032780D02*
X131357518Y-120201542D01*
X131357518Y-120201542D02*
X131357518Y-120267878D01*
X131357518Y-120267878D02*
X130992880Y-120111520D01*
X153328518Y-120245018D02*
X152963880Y-120088660D01*
X147831958Y-120247558D02*
X147467320Y-120091200D01*
X136846458Y-120260258D02*
X136481820Y-120103900D01*
X73448540Y-109606720D02*
X81333340Y-111544100D01*
X116352320Y-112283240D02*
X116382800Y-112384840D01*
X114954019Y-117575299D02*
X115740180Y-115351560D01*
X114335846Y-118106551D02*
X114954019Y-117575299D01*
X114211018Y-118285441D02*
X114211018Y-118231379D01*
X114211018Y-118231379D02*
X114335846Y-118106551D01*
X113009680Y-120101360D02*
X113009680Y-119930182D01*
X115740180Y-115351560D02*
X116352320Y-112283240D01*
X113009680Y-119930182D02*
X113416901Y-119522961D01*
X113416901Y-119522961D02*
X113416901Y-119079558D01*
X113416901Y-119079558D02*
X114211018Y-118285441D01*
X125860958Y-120270418D02*
X125349000Y-119471440D01*
X125860958Y-120204082D02*
X125860958Y-120270418D01*
X126029720Y-120035320D02*
X125860958Y-120204082D01*
X118478300Y-116946680D02*
X118211600Y-108541820D01*
X125349000Y-119471440D02*
X124264420Y-117248940D01*
X124264420Y-117248940D02*
X122252740Y-120335040D01*
X122252740Y-120335040D02*
X120324880Y-117187980D01*
X120324880Y-117187980D02*
X118600220Y-120274080D01*
X118600220Y-120274080D02*
X118478300Y-116946680D01*
X125397260Y-120091200D02*
X125966220Y-120111520D01*
D14*
X71691500Y-107607100D02*
X73805160Y-107607100D01*
D15*
X73832720Y-107647740D02*
X74018520Y-107685382D01*
X74018520Y-107685382D02*
X74518520Y-107688380D01*
X83875880Y-110308662D02*
X82040458Y-108473240D01*
X82040458Y-108473240D02*
X81257140Y-108473240D01*
X83875880Y-112466120D02*
X83875880Y-110308662D01*
X115404900Y-107911900D02*
X115402360Y-107424220D01*
X113064330Y-116597390D02*
X113292209Y-116597390D01*
X113047780Y-116613940D02*
X113064330Y-116597390D01*
X114526461Y-112517321D02*
X114526461Y-111797883D01*
X114823216Y-109065560D02*
X115167771Y-108721006D01*
X113047780Y-116809520D02*
X113047780Y-116613940D01*
X113383088Y-116506511D02*
X113826782Y-115382818D01*
X113826782Y-115382818D02*
X114526461Y-112517321D01*
X114526461Y-111797883D02*
X114823216Y-109065560D01*
X113292209Y-116597390D02*
X113383088Y-116506511D01*
X115167771Y-108721006D02*
X115404900Y-107911900D01*
X121048780Y-105910380D02*
X121213880Y-115902740D01*
X73805160Y-107607100D02*
X81257140Y-108473240D01*
X82040458Y-108473240D02*
X82552540Y-107909360D01*
X82552540Y-107909360D02*
X82687160Y-107642660D01*
X82687160Y-107642660D02*
X83903820Y-107614720D01*
X83903820Y-107614720D02*
X84178140Y-107500420D01*
X84178140Y-107500420D02*
X84338160Y-107144820D01*
X84338160Y-107144820D02*
X84764880Y-105714800D01*
X84764880Y-105714800D02*
X85493860Y-105669123D01*
M02*
