G04 #@! TF.GenerationSoftware,KiCad,Pcbnew,5.1.4-e60b266~84~ubuntu16.04.1*
G04 #@! TF.CreationDate,2019-10-21T03:29:48-05:00*
G04 #@! TF.ProjectId,Quantum MCP4262-502 25x expansion flex for GWAAM-Sea Aid with U7 expansion cutout,5175616e-7475-46d2-904d-435034323632,rev?*
G04 #@! TF.SameCoordinates,Original*
G04 #@! TF.FileFunction,Profile,NP*
%FSLAX46Y46*%
G04 Gerber Fmt 4.6, Leading zero omitted, Abs format (unit mm)*
G04 Created by KiCad (PCBNEW 5.1.4-e60b266~84~ubuntu16.04.1) date 2019-10-21 03:29:48*
%MOMM*%
%LPD*%
G04 APERTURE LIST*
%ADD10C,0.010000*%
G04 APERTURE END LIST*
D10*
X162397440Y-98628200D02*
X162397440Y-97845880D01*
X158607760Y-97845880D02*
X162397440Y-97845880D01*
X135100060Y-97845880D02*
X158607162Y-97845880D01*
X168142920Y-98628360D02*
X162397440Y-98628360D01*
X72628760Y-101178360D02*
X92845509Y-101178360D01*
X72628760Y-110413800D02*
X72628760Y-110107418D01*
X74615112Y-110403640D02*
X72628760Y-110413800D01*
X73088500Y-112801400D02*
X72628760Y-112803940D01*
X74615926Y-110404366D02*
G75*
G02X73088500Y-112801400I-1537586J-705394D01*
G01*
X92845509Y-101178360D02*
X92845509Y-104406700D01*
X99731480Y-104409240D02*
X92844620Y-104406700D01*
X168142920Y-120779540D02*
X168142920Y-98628360D01*
X116814600Y-120779540D02*
X168142920Y-120779540D01*
X72628760Y-104409240D02*
X72628760Y-101178360D01*
X71325480Y-104603650D02*
G75*
G03X71125080Y-104804050I0J-200400D01*
G01*
X71125740Y-109896368D02*
G75*
G03X71315581Y-110106527I200000J-10159D01*
G01*
X72628760Y-104409240D02*
X72628760Y-104604820D01*
X99731480Y-97845880D02*
X99731480Y-104409240D01*
X135101680Y-97845880D02*
X99731480Y-97845880D01*
X72628760Y-120779540D02*
X116814600Y-120779540D01*
X72628760Y-112803940D02*
X72628760Y-120779540D01*
X71315580Y-110107418D02*
X72628760Y-110107418D01*
X71125080Y-104802940D02*
X71125080Y-109895640D01*
X72628760Y-104604680D02*
X71325740Y-104602280D01*
M02*
