M48
; DRILL file {KiCad 5.1.4-e60b266~84~ubuntu16.04.1} date Mon 21 Oct 2019 03:29:04 AM CDT
; FORMAT={-:-/ absolute / inch / decimal}
; #@! TF.CreationDate,2019-10-21T03:29:04-05:00
; #@! TF.GenerationSoftware,Kicad,Pcbnew,5.1.4-e60b266~84~ubuntu16.04.1
FMAT,2
INCH
T1C0.0157
T2C0.0315
%
G90
G05
T1
X2.883Y-4.4891
X2.8994Y-4.5178
X2.9026Y-4.4614
X2.9298Y-4.5489
X2.9586Y-4.6653
X2.9706Y-4.6358
X2.9719Y-4.697
X2.9763Y-4.7289
X3.0994Y-4.489
X3.1125Y-4.5746
X3.1158Y-4.5177
X3.119Y-4.4613
X3.1462Y-4.5488
X3.175Y-4.6652
X3.187Y-4.6357
X3.1883Y-4.6969
X3.1927Y-4.7288
X3.1991Y-4.2706
X3.2021Y-4.3915
X3.2055Y-4.3305
X3.2231Y-4.2354
X3.2239Y-4.3018
X3.2239Y-4.3625
X3.2475Y-4.1526
X3.2639Y-4.1813
X3.2671Y-4.1249
X3.2943Y-4.2124
X3.3022Y-4.4278
X3.3155Y-4.4887
X3.3231Y-4.3288
X3.3289Y-4.5745
X3.3319Y-4.5174
X3.3351Y-4.2993
X3.3351Y-4.461
X3.3364Y-4.3605
X3.3408Y-4.3924
X3.3623Y-4.5485
X3.3911Y-4.6649
X3.4031Y-4.6354
X3.4044Y-4.6966
X3.4088Y-4.7285
X3.4639Y-4.1525
X3.477Y-4.2381
X3.4803Y-4.1812
X3.4835Y-4.1248
X3.5107Y-4.2123
X3.5319Y-4.4886
X3.5395Y-4.3287
X3.545Y-4.5742
X3.5483Y-4.5173
X3.5515Y-4.2992
X3.5515Y-4.4609
X3.5528Y-4.3604
X3.5572Y-4.3923
X3.5787Y-4.5484
X3.6075Y-4.6648
X3.6195Y-4.6353
X3.6208Y-4.6965
X3.6252Y-4.7284
X3.6934Y-4.238
X3.748Y-4.4882
X3.7614Y-4.5741
X3.7644Y-4.5169
X3.7676Y-4.4605
X3.7948Y-4.548
X3.8236Y-4.6644
X3.8356Y-4.6349
X3.8369Y-4.6961
X3.8413Y-4.728
X3.9644Y-4.4881
X3.9775Y-4.5737
X3.9808Y-4.5168
X3.984Y-4.4604
X3.996Y-4.1505
X4.0112Y-4.5479
X4.03Y-4.126
X4.04Y-4.6643
X4.0473Y-4.1795
X4.052Y-4.6348
X4.0533Y-4.696
X4.0577Y-4.7279
X4.059Y-4.2098
X4.0716Y-4.3267
X4.0836Y-4.2972
X4.0849Y-4.3584
X4.0893Y-4.3903
X4.1809Y-4.4884
X4.1939Y-4.5736
X4.1973Y-4.5171
X4.2005Y-4.4607
X4.2124Y-4.1504
X4.2255Y-4.236
X4.2277Y-4.5482
X4.2288Y-4.1791
X4.232Y-4.1227
X4.2565Y-4.6646
X4.2592Y-4.2102
X4.2685Y-4.6351
X4.2698Y-4.6963
X4.2742Y-4.7282
X4.288Y-4.3266
X4.3Y-4.2971
X4.3013Y-4.3583
X4.3057Y-4.3902
X4.3738Y-4.4614
X4.3897Y-4.2515
X4.3978Y-4.4899
X4.417Y-4.5169
X4.4273Y-4.6659
X4.4282Y-4.1523
X4.4287Y-4.5747
X4.4369Y-4.5424
X4.4392Y-4.6967
X4.4395Y-4.6344
X4.4492Y-4.7284
X4.4507Y-4.5988
X4.4635Y-4.1464
X4.4872Y-4.1691
X4.5227Y-4.1885
X4.5434Y-4.2293
X4.5565Y-4.3293
X4.5584Y-4.2836
X4.5672Y-4.3823
X4.5799Y-4.4214
X4.654Y-4.2733
X4.6811Y-4.2413
X4.6968Y-4.6206
X4.7077Y-4.2221
X4.7158Y-4.5918
X4.738Y-4.2005
X4.7478Y-4.5907
X4.7546Y-4.0944
X4.7657Y-4.1697
X4.7722Y-4.5631
X4.7872Y-4.0778
X4.811Y-4.5757
X4.8273Y-4.0684
X4.831Y-4.5176
X4.852Y-4.5462
X4.8589Y-4.474
X4.8762Y-4.1005
X4.8762Y-4.1005
X4.8793Y-4.4483
X4.8935Y-4.1413
X4.8935Y-4.1413
X4.9027Y-4.3302
X4.9098Y-4.0933
X4.9147Y-4.3007
X4.916Y-4.3619
X4.9175Y-4.0518
X4.9204Y-4.3938
X4.9369Y-4.728
X4.9585Y-4.6614
X5.0032Y-4.6438
X5.0435Y-4.1539
X5.0566Y-4.2395
X5.0599Y-4.1826
X5.0631Y-4.1262
X5.0639Y-4.489
X5.077Y-4.5746
X5.0803Y-4.5177
X5.0835Y-4.4613
X5.0903Y-4.2137
X5.1107Y-4.5488
X5.1191Y-4.3301
X5.1311Y-4.3006
X5.1324Y-4.3618
X5.1368Y-4.3937
X5.1395Y-4.6652
X5.1515Y-4.6357
X5.1528Y-4.6969
X5.1572Y-4.7288
X5.273Y-4.2394
X5.28Y-4.4887
X5.2934Y-4.5745
X5.2964Y-4.5174
X5.2996Y-4.461
X5.3268Y-4.5485
X5.3556Y-4.6649
X5.3676Y-4.6354
X5.3689Y-4.6966
X5.3733Y-4.7285
X5.5095Y-4.5742
X5.5128Y-4.5173
X5.5142Y-4.4841
X5.5285Y-4.4474
X5.5432Y-4.5484
X5.572Y-4.6648
X5.584Y-4.6353
X5.5853Y-4.6965
X5.5897Y-4.7284
X5.629Y-4.1525
X5.6454Y-4.1812
X5.6486Y-4.1248
X5.6758Y-4.2123
X5.7046Y-4.3287
X5.7125Y-4.4882
X5.7166Y-4.2992
X5.7179Y-4.3604
X5.7223Y-4.3923
X5.7259Y-4.5741
X5.7289Y-4.5169
X5.7321Y-4.4605
X5.7593Y-4.548
X5.7881Y-4.6644
X5.8001Y-4.6349
X5.8014Y-4.6961
X5.8058Y-4.728
X5.8454Y-4.1524
X5.8585Y-4.238
X5.8618Y-4.1811
X5.865Y-4.1247
X5.8922Y-4.2122
X5.921Y-4.3286
X5.9289Y-4.4881
X5.933Y-4.2991
X5.9343Y-4.3603
X5.9387Y-4.3922
X5.942Y-4.5737
X5.9453Y-4.5168
X5.9485Y-4.4604
X5.9757Y-4.5479
X6.0045Y-4.6643
X6.0165Y-4.6348
X6.0178Y-4.696
X6.0222Y-4.7279
X6.0615Y-4.152
X6.0749Y-4.2379
X6.0779Y-4.1807
X6.0811Y-4.1243
X6.1083Y-4.2118
X6.1371Y-4.3282
X6.1454Y-4.4884
X6.1491Y-4.2987
X6.1504Y-4.3599
X6.1548Y-4.3918
X6.1584Y-4.5736
X6.1618Y-4.5171
X6.165Y-4.4607
X6.1922Y-4.5482
X6.221Y-4.6646
X6.233Y-4.6351
X6.2343Y-4.6963
X6.2387Y-4.7282
X6.2779Y-4.1519
X6.291Y-4.2375
X6.2943Y-4.1806
X6.2975Y-4.1242
X6.3091Y-4.0629
X6.3247Y-4.2117
X6.3535Y-4.3281
X6.3618Y-4.4883
X6.3655Y-4.2986
X6.3668Y-4.3598
X6.3712Y-4.3917
X6.3749Y-4.5739
X6.3782Y-4.517
X6.3814Y-4.4606
X6.4086Y-4.5481
X6.4368Y-3.9388
X6.4374Y-4.6645
X6.4494Y-4.635
X6.4507Y-4.6962
X6.4523Y-4.0633
X6.4551Y-4.7281
X6.5074Y-4.2374
X6.5659Y-4.1923
X6.5683Y-3.9325
X6.5683Y-4.0134
X6.578Y-4.5823
T2
X6.5074Y-3.9642
T0
M30
