G04 #@! TF.GenerationSoftware,KiCad,Pcbnew,5.1.4-e60b266~84~ubuntu16.04.1*
G04 #@! TF.CreationDate,2019-10-21T03:29:48-05:00*
G04 #@! TF.ProjectId,Quantum MCP4262-502 25x expansion flex for GWAAM-Sea Aid with U7 expansion cutout,5175616e-7475-46d2-904d-435034323632,rev?*
G04 #@! TF.SameCoordinates,Original*
G04 #@! TF.FileFunction,Paste,Top*
G04 #@! TF.FilePolarity,Positive*
%FSLAX46Y46*%
G04 Gerber Fmt 4.6, Leading zero omitted, Abs format (unit mm)*
G04 Created by KiCad (PCBNEW 5.1.4-e60b266~84~ubuntu16.04.1) date 2019-10-21 03:29:48*
%MOMM*%
%LPD*%
G04 APERTURE LIST*
%ADD10R,1.400000X0.300000*%
%ADD11R,0.300000X1.400000*%
G04 APERTURE END LIST*
D10*
X145158460Y-99132640D03*
X145158460Y-99632640D03*
X145158460Y-100132640D03*
X145158460Y-100632640D03*
X145158460Y-101132640D03*
X140758460Y-101132640D03*
X140758460Y-100632640D03*
X140758460Y-100132640D03*
X140758460Y-99632640D03*
X140758460Y-99132640D03*
X152915260Y-99042980D03*
X152915260Y-99542980D03*
X152915260Y-100042980D03*
X152915260Y-100542980D03*
X152915260Y-101042980D03*
X157315260Y-101042980D03*
X157315260Y-100542980D03*
X157315260Y-100042980D03*
X157315260Y-99542980D03*
X157315260Y-99042980D03*
D11*
X144543020Y-115333420D03*
X144043020Y-115333420D03*
X143543020Y-115333420D03*
X143043020Y-115333420D03*
X142543020Y-115333420D03*
X142543020Y-119733420D03*
X143043020Y-119733420D03*
X143543020Y-119733420D03*
X144043020Y-119733420D03*
X144543020Y-119733420D03*
X133557520Y-119743580D03*
X133057520Y-119743580D03*
X132557520Y-119743580D03*
X132057520Y-119743580D03*
X131557520Y-119743580D03*
X131557520Y-115343580D03*
X132057520Y-115343580D03*
X132557520Y-115343580D03*
X133057520Y-115343580D03*
X133557520Y-115343580D03*
X139046460Y-119735960D03*
X138546460Y-119735960D03*
X138046460Y-119735960D03*
X137546460Y-119735960D03*
X137046460Y-119735960D03*
X137046460Y-115335960D03*
X137546460Y-115335960D03*
X138046460Y-115335960D03*
X138546460Y-115335960D03*
X139046460Y-115335960D03*
X155528520Y-119720720D03*
X155028520Y-119720720D03*
X154528520Y-119720720D03*
X154028520Y-119720720D03*
X153528520Y-119720720D03*
X153528520Y-115320720D03*
X154028520Y-115320720D03*
X154528520Y-115320720D03*
X155028520Y-115320720D03*
X155528520Y-115320720D03*
X128060960Y-115346120D03*
X127560960Y-115346120D03*
X127060960Y-115346120D03*
X126560960Y-115346120D03*
X126060960Y-115346120D03*
X126060960Y-119746120D03*
X126560960Y-119746120D03*
X127060960Y-119746120D03*
X127560960Y-119746120D03*
X128060960Y-119746120D03*
X150031960Y-115323260D03*
X149531960Y-115323260D03*
X149031960Y-115323260D03*
X148531960Y-115323260D03*
X148031960Y-115323260D03*
X148031960Y-119723260D03*
X148531960Y-119723260D03*
X149031960Y-119723260D03*
X149531960Y-119723260D03*
X150031960Y-119723260D03*
X166524180Y-115325800D03*
X166024180Y-115325800D03*
X165524180Y-115325800D03*
X165024180Y-115325800D03*
X164524180Y-115325800D03*
X164524180Y-119725800D03*
X165024180Y-119725800D03*
X165524180Y-119725800D03*
X166024180Y-119725800D03*
X166524180Y-119725800D03*
X161027620Y-119728340D03*
X160527620Y-119728340D03*
X160027620Y-119728340D03*
X159527620Y-119728340D03*
X159027620Y-119728340D03*
X159027620Y-115328340D03*
X159527620Y-115328340D03*
X160027620Y-115328340D03*
X160527620Y-115328340D03*
X161027620Y-115328340D03*
X100133660Y-119723260D03*
X99633660Y-119723260D03*
X99133660Y-119723260D03*
X98633660Y-119723260D03*
X98133660Y-119723260D03*
X98133660Y-115323260D03*
X98633660Y-115323260D03*
X99133660Y-115323260D03*
X99633660Y-115323260D03*
X100133660Y-115323260D03*
X105630220Y-115320720D03*
X105130220Y-115320720D03*
X104630220Y-115320720D03*
X104130220Y-115320720D03*
X103630220Y-115320720D03*
X103630220Y-119720720D03*
X104130220Y-119720720D03*
X104630220Y-119720720D03*
X105130220Y-119720720D03*
X105630220Y-119720720D03*
X94644720Y-119733420D03*
X94144720Y-119733420D03*
X93644720Y-119733420D03*
X93144720Y-119733420D03*
X92644720Y-119733420D03*
X92644720Y-115333420D03*
X93144720Y-115333420D03*
X93644720Y-115333420D03*
X94144720Y-115333420D03*
X94644720Y-115333420D03*
X89148160Y-115335960D03*
X88648160Y-115335960D03*
X88148160Y-115335960D03*
X87648160Y-115335960D03*
X87148160Y-115335960D03*
X87148160Y-119735960D03*
X87648160Y-119735960D03*
X88148160Y-119735960D03*
X88648160Y-119735960D03*
X89148160Y-119735960D03*
X78162660Y-119746120D03*
X77662660Y-119746120D03*
X77162660Y-119746120D03*
X76662660Y-119746120D03*
X76162660Y-119746120D03*
X76162660Y-115346120D03*
X76662660Y-115346120D03*
X77162660Y-115346120D03*
X77662660Y-115346120D03*
X78162660Y-115346120D03*
X83659220Y-115343580D03*
X83159220Y-115343580D03*
X82659220Y-115343580D03*
X82159220Y-115343580D03*
X81659220Y-115343580D03*
X81659220Y-119743580D03*
X82159220Y-119743580D03*
X82659220Y-119743580D03*
X83159220Y-119743580D03*
X83659220Y-119743580D03*
X127542800Y-111234580D03*
X127042800Y-111234580D03*
X126542800Y-111234580D03*
X126042800Y-111234580D03*
X125542800Y-111234580D03*
X125542800Y-106834580D03*
X126042800Y-106834580D03*
X126542800Y-106834580D03*
X127042800Y-106834580D03*
X127542800Y-106834580D03*
X133039360Y-106832040D03*
X132539360Y-106832040D03*
X132039360Y-106832040D03*
X131539360Y-106832040D03*
X131039360Y-106832040D03*
X131039360Y-111232040D03*
X131539360Y-111232040D03*
X132039360Y-111232040D03*
X132539360Y-111232040D03*
X133039360Y-111232040D03*
X158896560Y-111183780D03*
X158396560Y-111183780D03*
X157896560Y-111183780D03*
X157396560Y-111183780D03*
X156896560Y-111183780D03*
X156896560Y-106783780D03*
X157396560Y-106783780D03*
X157896560Y-106783780D03*
X158396560Y-106783780D03*
X158896560Y-106783780D03*
X164393120Y-106781240D03*
X163893120Y-106781240D03*
X163393120Y-106781240D03*
X162893120Y-106781240D03*
X162393120Y-106781240D03*
X162393120Y-111181240D03*
X162893120Y-111181240D03*
X163393120Y-111181240D03*
X163893120Y-111181240D03*
X164393120Y-111181240D03*
X153407620Y-111193940D03*
X152907620Y-111193940D03*
X152407620Y-111193940D03*
X151907620Y-111193940D03*
X151407620Y-111193940D03*
X151407620Y-106793940D03*
X151907620Y-106793940D03*
X152407620Y-106793940D03*
X152907620Y-106793940D03*
X153407620Y-106793940D03*
X147911060Y-106796480D03*
X147411060Y-106796480D03*
X146911060Y-106796480D03*
X146411060Y-106796480D03*
X145911060Y-106796480D03*
X145911060Y-111196480D03*
X146411060Y-111196480D03*
X146911060Y-111196480D03*
X147411060Y-111196480D03*
X147911060Y-111196480D03*
X106432860Y-106745680D03*
X105932860Y-106745680D03*
X105432860Y-106745680D03*
X104932860Y-106745680D03*
X104432860Y-106745680D03*
X104432860Y-111145680D03*
X104932860Y-111145680D03*
X105432860Y-111145680D03*
X105932860Y-111145680D03*
X106432860Y-111145680D03*
X111929420Y-111143140D03*
X111429420Y-111143140D03*
X110929420Y-111143140D03*
X110429420Y-111143140D03*
X109929420Y-111143140D03*
X109929420Y-106743140D03*
X110429420Y-106743140D03*
X110929420Y-106743140D03*
X111429420Y-106743140D03*
X111929420Y-106743140D03*
X111129320Y-115328340D03*
X110629320Y-115328340D03*
X110129320Y-115328340D03*
X109629320Y-115328340D03*
X109129320Y-115328340D03*
X109129320Y-119728340D03*
X109629320Y-119728340D03*
X110129320Y-119728340D03*
X110629320Y-119728340D03*
X111129320Y-119728340D03*
X92917520Y-106796480D03*
X92417520Y-106796480D03*
X91917520Y-106796480D03*
X91417520Y-106796480D03*
X90917520Y-106796480D03*
X90917520Y-111196480D03*
X91417520Y-111196480D03*
X91917520Y-111196480D03*
X92417520Y-111196480D03*
X92917520Y-111196480D03*
X87420960Y-111199020D03*
X86920960Y-111199020D03*
X86420960Y-111199020D03*
X85920960Y-111199020D03*
X85420960Y-111199020D03*
X85420960Y-106799020D03*
X85920960Y-106799020D03*
X86420960Y-106799020D03*
X86920960Y-106799020D03*
X87420960Y-106799020D03*
M02*
