G04 #@! TF.GenerationSoftware,KiCad,Pcbnew,5.1.4-e60b266~84~ubuntu16.04.1*
G04 #@! TF.CreationDate,2019-10-09T19:06:30-05:00*
G04 #@! TF.ProjectId,Quantum MCP4262-502 25x expansion flex for GWAAM-Sea Aid,5175616e-7475-46d2-904d-435034323632,rev?*
G04 #@! TF.SameCoordinates,Original*
G04 #@! TF.FileFunction,Legend,Top*
G04 #@! TF.FilePolarity,Positive*
%FSLAX46Y46*%
G04 Gerber Fmt 4.6, Leading zero omitted, Abs format (unit mm)*
G04 Created by KiCad (PCBNEW 5.1.4-e60b266~84~ubuntu16.04.1) date 2019-10-09 19:06:30*
%MOMM*%
%LPD*%
G04 APERTURE LIST*
%ADD10C,0.100000*%
%ADD11C,0.150000*%
%ADD12C,0.200000*%
%ADD13C,0.125000*%
G04 APERTURE END LIST*
D10*
X72972068Y-120348808D02*
X72972068Y-120482141D01*
X73181592Y-120482141D02*
X72781592Y-120482141D01*
X72781592Y-120291665D01*
X73181592Y-120082141D02*
X73162544Y-120120237D01*
X73143497Y-120139284D01*
X73105401Y-120158332D01*
X72991116Y-120158332D01*
X72953020Y-120139284D01*
X72933973Y-120120237D01*
X72914925Y-120082141D01*
X72914925Y-120024999D01*
X72933973Y-119986903D01*
X72953020Y-119967856D01*
X72991116Y-119948808D01*
X73105401Y-119948808D01*
X73143497Y-119967856D01*
X73162544Y-119986903D01*
X73181592Y-120024999D01*
X73181592Y-120082141D01*
X73181592Y-119720237D02*
X73162544Y-119758332D01*
X73124449Y-119777380D01*
X72781592Y-119777380D01*
X73181592Y-119396427D02*
X72781592Y-119396427D01*
X73162544Y-119396427D02*
X73181592Y-119434522D01*
X73181592Y-119510713D01*
X73162544Y-119548808D01*
X73143497Y-119567856D01*
X73105401Y-119586903D01*
X72991116Y-119586903D01*
X72953020Y-119567856D01*
X72933973Y-119548808D01*
X72914925Y-119510713D01*
X72914925Y-119434522D01*
X72933973Y-119396427D01*
X73614925Y-120482141D02*
X73957782Y-120482141D01*
X73995878Y-120501189D01*
X74014925Y-120539284D01*
X74014925Y-120558332D01*
X73481592Y-120482141D02*
X73500640Y-120501189D01*
X73519687Y-120482141D01*
X73500640Y-120463094D01*
X73481592Y-120482141D01*
X73519687Y-120482141D01*
X73881592Y-120120237D02*
X73672068Y-120120237D01*
X73633973Y-120139284D01*
X73614925Y-120177380D01*
X73614925Y-120253570D01*
X73633973Y-120291665D01*
X73862544Y-120120237D02*
X73881592Y-120158332D01*
X73881592Y-120253570D01*
X73862544Y-120291665D01*
X73824449Y-120310713D01*
X73786354Y-120310713D01*
X73748259Y-120291665D01*
X73729211Y-120253570D01*
X73729211Y-120158332D01*
X73710163Y-120120237D01*
X73862544Y-119758332D02*
X73881592Y-119796427D01*
X73881592Y-119872618D01*
X73862544Y-119910713D01*
X73843497Y-119929760D01*
X73805401Y-119948808D01*
X73691116Y-119948808D01*
X73653020Y-119929760D01*
X73633973Y-119910713D01*
X73614925Y-119872618D01*
X73614925Y-119796427D01*
X73633973Y-119758332D01*
X73881592Y-119586903D02*
X73481592Y-119586903D01*
X73729211Y-119548808D02*
X73881592Y-119434522D01*
X73614925Y-119434522D02*
X73767306Y-119586903D01*
X74314925Y-120539284D02*
X74314925Y-120386903D01*
X74181592Y-120482141D02*
X74524449Y-120482141D01*
X74562544Y-120463094D01*
X74581592Y-120424999D01*
X74581592Y-120386903D01*
X74581592Y-120082141D02*
X74372068Y-120082141D01*
X74333973Y-120101189D01*
X74314925Y-120139284D01*
X74314925Y-120215475D01*
X74333973Y-120253570D01*
X74562544Y-120082141D02*
X74581592Y-120120237D01*
X74581592Y-120215475D01*
X74562544Y-120253570D01*
X74524449Y-120272618D01*
X74486354Y-120272618D01*
X74448259Y-120253570D01*
X74429211Y-120215475D01*
X74429211Y-120120237D01*
X74410163Y-120082141D01*
X74581592Y-119891665D02*
X74181592Y-119891665D01*
X74333973Y-119891665D02*
X74314925Y-119853570D01*
X74314925Y-119777380D01*
X74333973Y-119739284D01*
X74353020Y-119720237D01*
X74391116Y-119701189D01*
X74505401Y-119701189D01*
X74543497Y-119720237D01*
X74562544Y-119739284D01*
X74581592Y-119777380D01*
X74581592Y-119853570D01*
X74562544Y-119891665D01*
X74429211Y-119224999D02*
X74429211Y-118920237D01*
X74314925Y-118729760D02*
X74429211Y-118424999D01*
X74543497Y-118729760D01*
D11*
X74781239Y-118278351D02*
G75*
G02X74642980Y-115511580I-138259J1379931D01*
G01*
D12*
X103587874Y-100032862D02*
X103473588Y-99975720D01*
X103359302Y-99861434D01*
X103187874Y-99690005D01*
X103073588Y-99632862D01*
X102959302Y-99632862D01*
X103016445Y-99918577D02*
X102902160Y-99861434D01*
X102787874Y-99747148D01*
X102730731Y-99518577D01*
X102730731Y-99118577D01*
X102787874Y-98890005D01*
X102902160Y-98775720D01*
X103016445Y-98718577D01*
X103245017Y-98718577D01*
X103359302Y-98775720D01*
X103473588Y-98890005D01*
X103530731Y-99118577D01*
X103530731Y-99518577D01*
X103473588Y-99747148D01*
X103359302Y-99861434D01*
X103245017Y-99918577D01*
X103016445Y-99918577D01*
X104559302Y-99118577D02*
X104559302Y-99918577D01*
X104045017Y-99118577D02*
X104045017Y-99747148D01*
X104102160Y-99861434D01*
X104216445Y-99918577D01*
X104387874Y-99918577D01*
X104502160Y-99861434D01*
X104559302Y-99804291D01*
X105645017Y-99918577D02*
X105645017Y-99290005D01*
X105587874Y-99175720D01*
X105473588Y-99118577D01*
X105245017Y-99118577D01*
X105130731Y-99175720D01*
X105645017Y-99861434D02*
X105530731Y-99918577D01*
X105245017Y-99918577D01*
X105130731Y-99861434D01*
X105073588Y-99747148D01*
X105073588Y-99632862D01*
X105130731Y-99518577D01*
X105245017Y-99461434D01*
X105530731Y-99461434D01*
X105645017Y-99404291D01*
X106216445Y-99118577D02*
X106216445Y-99918577D01*
X106216445Y-99232862D02*
X106273588Y-99175720D01*
X106387874Y-99118577D01*
X106559302Y-99118577D01*
X106673588Y-99175720D01*
X106730731Y-99290005D01*
X106730731Y-99918577D01*
X107130731Y-99118577D02*
X107587874Y-99118577D01*
X107302160Y-98718577D02*
X107302160Y-99747148D01*
X107359302Y-99861434D01*
X107473588Y-99918577D01*
X107587874Y-99918577D01*
X108502160Y-99118577D02*
X108502160Y-99918577D01*
X107987874Y-99118577D02*
X107987874Y-99747148D01*
X108045017Y-99861434D01*
X108159302Y-99918577D01*
X108330731Y-99918577D01*
X108445017Y-99861434D01*
X108502160Y-99804291D01*
X109073588Y-99918577D02*
X109073588Y-99118577D01*
X109073588Y-99232862D02*
X109130731Y-99175720D01*
X109245017Y-99118577D01*
X109416445Y-99118577D01*
X109530731Y-99175720D01*
X109587874Y-99290005D01*
X109587874Y-99918577D01*
X109587874Y-99290005D02*
X109645017Y-99175720D01*
X109759302Y-99118577D01*
X109930731Y-99118577D01*
X110045017Y-99175720D01*
X110102160Y-99290005D01*
X110102160Y-99918577D01*
X111587874Y-99918577D02*
X111587874Y-98718577D01*
X111987874Y-99575720D01*
X112387874Y-98718577D01*
X112387874Y-99918577D01*
X113645017Y-99804291D02*
X113587874Y-99861434D01*
X113416445Y-99918577D01*
X113302160Y-99918577D01*
X113130731Y-99861434D01*
X113016445Y-99747148D01*
X112959302Y-99632862D01*
X112902160Y-99404291D01*
X112902160Y-99232862D01*
X112959302Y-99004291D01*
X113016445Y-98890005D01*
X113130731Y-98775720D01*
X113302160Y-98718577D01*
X113416445Y-98718577D01*
X113587874Y-98775720D01*
X113645017Y-98832862D01*
X114159302Y-99918577D02*
X114159302Y-98718577D01*
X114616445Y-98718577D01*
X114730731Y-98775720D01*
X114787874Y-98832862D01*
X114845017Y-98947148D01*
X114845017Y-99118577D01*
X114787874Y-99232862D01*
X114730731Y-99290005D01*
X114616445Y-99347148D01*
X114159302Y-99347148D01*
X115873588Y-99118577D02*
X115873588Y-99918577D01*
X115587874Y-98661434D02*
X115302160Y-99518577D01*
X116045017Y-99518577D01*
X116445017Y-98832862D02*
X116502160Y-98775720D01*
X116616445Y-98718577D01*
X116902160Y-98718577D01*
X117016445Y-98775720D01*
X117073588Y-98832862D01*
X117130731Y-98947148D01*
X117130731Y-99061434D01*
X117073588Y-99232862D01*
X116387874Y-99918577D01*
X117130731Y-99918577D01*
X118159302Y-98718577D02*
X117930731Y-98718577D01*
X117816445Y-98775720D01*
X117759302Y-98832862D01*
X117645017Y-99004291D01*
X117587874Y-99232862D01*
X117587874Y-99690005D01*
X117645017Y-99804291D01*
X117702160Y-99861434D01*
X117816445Y-99918577D01*
X118045017Y-99918577D01*
X118159302Y-99861434D01*
X118216445Y-99804291D01*
X118273588Y-99690005D01*
X118273588Y-99404291D01*
X118216445Y-99290005D01*
X118159302Y-99232862D01*
X118045017Y-99175720D01*
X117816445Y-99175720D01*
X117702160Y-99232862D01*
X117645017Y-99290005D01*
X117587874Y-99404291D01*
X118730731Y-98832862D02*
X118787874Y-98775720D01*
X118902160Y-98718577D01*
X119187874Y-98718577D01*
X119302160Y-98775720D01*
X119359302Y-98832862D01*
X119416445Y-98947148D01*
X119416445Y-99061434D01*
X119359302Y-99232862D01*
X118673588Y-99918577D01*
X119416445Y-99918577D01*
X119930731Y-99461434D02*
X120845017Y-99461434D01*
X121987874Y-98718577D02*
X121416445Y-98718577D01*
X121359302Y-99290005D01*
X121416445Y-99232862D01*
X121530731Y-99175720D01*
X121816445Y-99175720D01*
X121930731Y-99232862D01*
X121987874Y-99290005D01*
X122045017Y-99404291D01*
X122045017Y-99690005D01*
X121987874Y-99804291D01*
X121930731Y-99861434D01*
X121816445Y-99918577D01*
X121530731Y-99918577D01*
X121416445Y-99861434D01*
X121359302Y-99804291D01*
X122787874Y-98718577D02*
X122902160Y-98718577D01*
X123016445Y-98775720D01*
X123073588Y-98832862D01*
X123130731Y-98947148D01*
X123187874Y-99175720D01*
X123187874Y-99461434D01*
X123130731Y-99690005D01*
X123073588Y-99804291D01*
X123016445Y-99861434D01*
X122902160Y-99918577D01*
X122787874Y-99918577D01*
X122673588Y-99861434D01*
X122616445Y-99804291D01*
X122559302Y-99690005D01*
X122502160Y-99461434D01*
X122502160Y-99175720D01*
X122559302Y-98947148D01*
X122616445Y-98832862D01*
X122673588Y-98775720D01*
X122787874Y-98718577D01*
X123645017Y-98832862D02*
X123702160Y-98775720D01*
X123816445Y-98718577D01*
X124102160Y-98718577D01*
X124216445Y-98775720D01*
X124273588Y-98832862D01*
X124330731Y-98947148D01*
X124330731Y-99061434D01*
X124273588Y-99232862D01*
X123587874Y-99918577D01*
X124330731Y-99918577D01*
X125702160Y-98832862D02*
X125759302Y-98775720D01*
X125873588Y-98718577D01*
X126159302Y-98718577D01*
X126273588Y-98775720D01*
X126330731Y-98832862D01*
X126387874Y-98947148D01*
X126387874Y-99061434D01*
X126330731Y-99232862D01*
X125645017Y-99918577D01*
X126387874Y-99918577D01*
X127473588Y-98718577D02*
X126902160Y-98718577D01*
X126845017Y-99290005D01*
X126902160Y-99232862D01*
X127016445Y-99175720D01*
X127302160Y-99175720D01*
X127416445Y-99232862D01*
X127473588Y-99290005D01*
X127530731Y-99404291D01*
X127530731Y-99690005D01*
X127473588Y-99804291D01*
X127416445Y-99861434D01*
X127302160Y-99918577D01*
X127016445Y-99918577D01*
X126902160Y-99861434D01*
X126845017Y-99804291D01*
X127930731Y-99918577D02*
X128559302Y-99118577D01*
X127930731Y-99118577D02*
X128559302Y-99918577D01*
X102787874Y-100718577D02*
X102787874Y-101690005D01*
X102845017Y-101804291D01*
X102902160Y-101861434D01*
X103016445Y-101918577D01*
X103245017Y-101918577D01*
X103359302Y-101861434D01*
X103416445Y-101804291D01*
X103473588Y-101690005D01*
X103473588Y-100718577D01*
X104102160Y-101918577D02*
X104330731Y-101918577D01*
X104445017Y-101861434D01*
X104502160Y-101804291D01*
X104616445Y-101632862D01*
X104673588Y-101404291D01*
X104673588Y-100947148D01*
X104616445Y-100832862D01*
X104559302Y-100775720D01*
X104445017Y-100718577D01*
X104216445Y-100718577D01*
X104102160Y-100775720D01*
X104045017Y-100832862D01*
X103987874Y-100947148D01*
X103987874Y-101232862D01*
X104045017Y-101347148D01*
X104102160Y-101404291D01*
X104216445Y-101461434D01*
X104445017Y-101461434D01*
X104559302Y-101404291D01*
X104616445Y-101347148D01*
X104673588Y-101232862D01*
X105187874Y-101461434D02*
X106102160Y-101461434D01*
X106673588Y-100718577D02*
X106673588Y-101690005D01*
X106730731Y-101804291D01*
X106787874Y-101861434D01*
X106902160Y-101918577D01*
X107130731Y-101918577D01*
X107245017Y-101861434D01*
X107302160Y-101804291D01*
X107359302Y-101690005D01*
X107359302Y-100718577D01*
X107816445Y-100718577D02*
X108559302Y-100718577D01*
X108159302Y-101175720D01*
X108330731Y-101175720D01*
X108445017Y-101232862D01*
X108502160Y-101290005D01*
X108559302Y-101404291D01*
X108559302Y-101690005D01*
X108502160Y-101804291D01*
X108445017Y-101861434D01*
X108330731Y-101918577D01*
X107987874Y-101918577D01*
X107873588Y-101861434D01*
X107816445Y-101804291D01*
X108959302Y-100718577D02*
X109702160Y-100718577D01*
X109302160Y-101175720D01*
X109473588Y-101175720D01*
X109587874Y-101232862D01*
X109645017Y-101290005D01*
X109702160Y-101404291D01*
X109702160Y-101690005D01*
X109645017Y-101804291D01*
X109587874Y-101861434D01*
X109473588Y-101918577D01*
X109130731Y-101918577D01*
X109016445Y-101861434D01*
X108959302Y-101804291D01*
D10*
X116854106Y-119287286D02*
X116854106Y-118953953D01*
X117054106Y-119353953D02*
X116354106Y-119120620D01*
X117054106Y-118887286D01*
X116587440Y-118720620D02*
X117054106Y-118553953D01*
X116587440Y-118387286D01*
X117054106Y-118020620D02*
X117020773Y-118087286D01*
X116987440Y-118120620D01*
X116920773Y-118153953D01*
X116720773Y-118153953D01*
X116654106Y-118120620D01*
X116620773Y-118087286D01*
X116587440Y-118020620D01*
X116587440Y-117920620D01*
X116620773Y-117853953D01*
X116654106Y-117820620D01*
X116720773Y-117787286D01*
X116920773Y-117787286D01*
X116987440Y-117820620D01*
X117020773Y-117853953D01*
X117054106Y-117920620D01*
X117054106Y-118020620D01*
X117054106Y-117487286D02*
X116587440Y-117487286D01*
X116354106Y-117487286D02*
X116387440Y-117520620D01*
X116420773Y-117487286D01*
X116387440Y-117453953D01*
X116354106Y-117487286D01*
X116420773Y-117487286D01*
X117054106Y-116853953D02*
X116354106Y-116853953D01*
X117020773Y-116853953D02*
X117054106Y-116920620D01*
X117054106Y-117053953D01*
X117020773Y-117120620D01*
X116987440Y-117153953D01*
X116920773Y-117187286D01*
X116720773Y-117187286D01*
X116654106Y-117153953D01*
X116620773Y-117120620D01*
X116587440Y-117053953D01*
X116587440Y-116920620D01*
X116620773Y-116853953D01*
X117020773Y-115720620D02*
X117054106Y-115787286D01*
X117054106Y-115920620D01*
X117020773Y-115987286D01*
X116954106Y-116020620D01*
X116687440Y-116020620D01*
X116620773Y-115987286D01*
X116587440Y-115920620D01*
X116587440Y-115787286D01*
X116620773Y-115720620D01*
X116687440Y-115687286D01*
X116754106Y-115687286D01*
X116820773Y-116020620D01*
X117054106Y-115453953D02*
X116587440Y-115087286D01*
X116587440Y-115453953D02*
X117054106Y-115087286D01*
X117020773Y-114520620D02*
X117054106Y-114587286D01*
X117054106Y-114720620D01*
X117020773Y-114787286D01*
X116987440Y-114820620D01*
X116920773Y-114853953D01*
X116720773Y-114853953D01*
X116654106Y-114820620D01*
X116620773Y-114787286D01*
X116587440Y-114720620D01*
X116587440Y-114587286D01*
X116620773Y-114520620D01*
X117020773Y-113953953D02*
X117054106Y-114020620D01*
X117054106Y-114153953D01*
X117020773Y-114220620D01*
X116954106Y-114253953D01*
X116687440Y-114253953D01*
X116620773Y-114220620D01*
X116587440Y-114153953D01*
X116587440Y-114020620D01*
X116620773Y-113953953D01*
X116687440Y-113920620D01*
X116754106Y-113920620D01*
X116820773Y-114253953D01*
X117020773Y-113653953D02*
X117054106Y-113587286D01*
X117054106Y-113453953D01*
X117020773Y-113387286D01*
X116954106Y-113353953D01*
X116920773Y-113353953D01*
X116854106Y-113387286D01*
X116820773Y-113453953D01*
X116820773Y-113553953D01*
X116787440Y-113620620D01*
X116720773Y-113653953D01*
X116687440Y-113653953D01*
X116620773Y-113620620D01*
X116587440Y-113553953D01*
X116587440Y-113453953D01*
X116620773Y-113387286D01*
X117020773Y-113087286D02*
X117054106Y-113020620D01*
X117054106Y-112887286D01*
X117020773Y-112820620D01*
X116954106Y-112787286D01*
X116920773Y-112787286D01*
X116854106Y-112820620D01*
X116820773Y-112887286D01*
X116820773Y-112987286D01*
X116787440Y-113053953D01*
X116720773Y-113087286D01*
X116687440Y-113087286D01*
X116620773Y-113053953D01*
X116587440Y-112987286D01*
X116587440Y-112887286D01*
X116620773Y-112820620D01*
X117054106Y-112487286D02*
X116587440Y-112487286D01*
X116354106Y-112487286D02*
X116387440Y-112520620D01*
X116420773Y-112487286D01*
X116387440Y-112453953D01*
X116354106Y-112487286D01*
X116420773Y-112487286D01*
X116587440Y-112220620D02*
X117054106Y-112053953D01*
X116587440Y-111887286D01*
X117020773Y-111353953D02*
X117054106Y-111420620D01*
X117054106Y-111553953D01*
X117020773Y-111620620D01*
X116954106Y-111653953D01*
X116687440Y-111653953D01*
X116620773Y-111620620D01*
X116587440Y-111553953D01*
X116587440Y-111420620D01*
X116620773Y-111353953D01*
X116687440Y-111320620D01*
X116754106Y-111320620D01*
X116820773Y-111653953D01*
X117054106Y-110487286D02*
X116587440Y-110487286D01*
X116654106Y-110487286D02*
X116620773Y-110453953D01*
X116587440Y-110387286D01*
X116587440Y-110287286D01*
X116620773Y-110220620D01*
X116687440Y-110187286D01*
X117054106Y-110187286D01*
X116687440Y-110187286D02*
X116620773Y-110153953D01*
X116587440Y-110087286D01*
X116587440Y-109987286D01*
X116620773Y-109920620D01*
X116687440Y-109887286D01*
X117054106Y-109887286D01*
X117020773Y-109287286D02*
X117054106Y-109353953D01*
X117054106Y-109487286D01*
X117020773Y-109553953D01*
X116954106Y-109587286D01*
X116687440Y-109587286D01*
X116620773Y-109553953D01*
X116587440Y-109487286D01*
X116587440Y-109353953D01*
X116620773Y-109287286D01*
X116687440Y-109253953D01*
X116754106Y-109253953D01*
X116820773Y-109587286D01*
X116587440Y-109053953D02*
X116587440Y-108787286D01*
X116354106Y-108953953D02*
X116954106Y-108953953D01*
X117020773Y-108920620D01*
X117054106Y-108853953D01*
X117054106Y-108787286D01*
X117054106Y-108253953D02*
X116687440Y-108253953D01*
X116620773Y-108287286D01*
X116587440Y-108353953D01*
X116587440Y-108487286D01*
X116620773Y-108553953D01*
X117020773Y-108253953D02*
X117054106Y-108320620D01*
X117054106Y-108487286D01*
X117020773Y-108553953D01*
X116954106Y-108587286D01*
X116887440Y-108587286D01*
X116820773Y-108553953D01*
X116787440Y-108487286D01*
X116787440Y-108320620D01*
X116754106Y-108253953D01*
X117054106Y-107820620D02*
X117020773Y-107887286D01*
X116954106Y-107920620D01*
X116354106Y-107920620D01*
X116587440Y-107120620D02*
X116587440Y-106853953D01*
X117054106Y-107020620D02*
X116454106Y-107020620D01*
X116387440Y-106987286D01*
X116354106Y-106920620D01*
X116354106Y-106853953D01*
X117054106Y-106320620D02*
X116687440Y-106320620D01*
X116620773Y-106353953D01*
X116587440Y-106420620D01*
X116587440Y-106553953D01*
X116620773Y-106620620D01*
X117020773Y-106320620D02*
X117054106Y-106387286D01*
X117054106Y-106553953D01*
X117020773Y-106620620D01*
X116954106Y-106653953D01*
X116887440Y-106653953D01*
X116820773Y-106620620D01*
X116787440Y-106553953D01*
X116787440Y-106387286D01*
X116754106Y-106320620D01*
X116587440Y-106087286D02*
X116587440Y-105820620D01*
X116354106Y-105987286D02*
X116954106Y-105987286D01*
X117020773Y-105953953D01*
X117054106Y-105887286D01*
X117054106Y-105820620D01*
X117054106Y-105587286D02*
X116587440Y-105587286D01*
X116354106Y-105587286D02*
X116387440Y-105620620D01*
X116420773Y-105587286D01*
X116387440Y-105553953D01*
X116354106Y-105587286D01*
X116420773Y-105587286D01*
X116587440Y-104953953D02*
X117154106Y-104953953D01*
X117220773Y-104987286D01*
X117254106Y-105020620D01*
X117287440Y-105087286D01*
X117287440Y-105187286D01*
X117254106Y-105253953D01*
X117020773Y-104953953D02*
X117054106Y-105020620D01*
X117054106Y-105153953D01*
X117020773Y-105220620D01*
X116987440Y-105253953D01*
X116920773Y-105287286D01*
X116720773Y-105287286D01*
X116654106Y-105253953D01*
X116620773Y-105220620D01*
X116587440Y-105153953D01*
X116587440Y-105020620D01*
X116620773Y-104953953D01*
X116587440Y-104320620D02*
X117054106Y-104320620D01*
X116587440Y-104620620D02*
X116954106Y-104620620D01*
X117020773Y-104587286D01*
X117054106Y-104520620D01*
X117054106Y-104420620D01*
X117020773Y-104353953D01*
X116987440Y-104320620D01*
X117020773Y-103720620D02*
X117054106Y-103787286D01*
X117054106Y-103920620D01*
X117020773Y-103987286D01*
X116954106Y-104020620D01*
X116687440Y-104020620D01*
X116620773Y-103987286D01*
X116587440Y-103920620D01*
X116587440Y-103787286D01*
X116620773Y-103720620D01*
X116687440Y-103687286D01*
X116754106Y-103687286D01*
X116820773Y-104020620D01*
X117054106Y-102853953D02*
X116354106Y-102853953D01*
X116620773Y-102853953D02*
X116587440Y-102787286D01*
X116587440Y-102653953D01*
X116620773Y-102587286D01*
X116654106Y-102553953D01*
X116720773Y-102520620D01*
X116920773Y-102520620D01*
X116987440Y-102553953D01*
X117020773Y-102587286D01*
X117054106Y-102653953D01*
X117054106Y-102787286D01*
X117020773Y-102853953D01*
X116587440Y-102287286D02*
X117054106Y-102120620D01*
X116587440Y-101953953D02*
X117054106Y-102120620D01*
X117220773Y-102187286D01*
X117254106Y-102220620D01*
X117287440Y-102287286D01*
X117737440Y-119637286D02*
X118204106Y-119503953D01*
X117870773Y-119370620D01*
X118204106Y-119237286D01*
X117737440Y-119103953D01*
X118204106Y-118837286D02*
X117737440Y-118837286D01*
X117504106Y-118837286D02*
X117537440Y-118870620D01*
X117570773Y-118837286D01*
X117537440Y-118803953D01*
X117504106Y-118837286D01*
X117570773Y-118837286D01*
X118204106Y-118203953D02*
X117504106Y-118203953D01*
X118170773Y-118203953D02*
X118204106Y-118270620D01*
X118204106Y-118403953D01*
X118170773Y-118470620D01*
X118137440Y-118503953D01*
X118070773Y-118537286D01*
X117870773Y-118537286D01*
X117804106Y-118503953D01*
X117770773Y-118470620D01*
X117737440Y-118403953D01*
X117737440Y-118270620D01*
X117770773Y-118203953D01*
X118170773Y-117603953D02*
X118204106Y-117670620D01*
X118204106Y-117803953D01*
X118170773Y-117870620D01*
X118104106Y-117903953D01*
X117837440Y-117903953D01*
X117770773Y-117870620D01*
X117737440Y-117803953D01*
X117737440Y-117670620D01*
X117770773Y-117603953D01*
X117837440Y-117570620D01*
X117904106Y-117570620D01*
X117970773Y-117903953D01*
X118204106Y-116737286D02*
X117504106Y-116737286D01*
X117770773Y-116737286D02*
X117737440Y-116670620D01*
X117737440Y-116537286D01*
X117770773Y-116470620D01*
X117804106Y-116437286D01*
X117870773Y-116403953D01*
X118070773Y-116403953D01*
X118137440Y-116437286D01*
X118170773Y-116470620D01*
X118204106Y-116537286D01*
X118204106Y-116670620D01*
X118170773Y-116737286D01*
X118170773Y-115837286D02*
X118204106Y-115903953D01*
X118204106Y-116037286D01*
X118170773Y-116103953D01*
X118104106Y-116137286D01*
X117837440Y-116137286D01*
X117770773Y-116103953D01*
X117737440Y-116037286D01*
X117737440Y-115903953D01*
X117770773Y-115837286D01*
X117837440Y-115803953D01*
X117904106Y-115803953D01*
X117970773Y-116137286D01*
X117737440Y-115503953D02*
X118204106Y-115503953D01*
X117804106Y-115503953D02*
X117770773Y-115470620D01*
X117737440Y-115403953D01*
X117737440Y-115303953D01*
X117770773Y-115237286D01*
X117837440Y-115203953D01*
X118204106Y-115203953D01*
X118204106Y-114570620D02*
X117504106Y-114570620D01*
X118170773Y-114570620D02*
X118204106Y-114637286D01*
X118204106Y-114770620D01*
X118170773Y-114837286D01*
X118137440Y-114870620D01*
X118070773Y-114903953D01*
X117870773Y-114903953D01*
X117804106Y-114870620D01*
X117770773Y-114837286D01*
X117737440Y-114770620D01*
X117737440Y-114637286D01*
X117770773Y-114570620D01*
X118204106Y-113703953D02*
X117737440Y-113703953D01*
X117870773Y-113703953D02*
X117804106Y-113670620D01*
X117770773Y-113637286D01*
X117737440Y-113570620D01*
X117737440Y-113503953D01*
X118204106Y-112970620D02*
X117837440Y-112970620D01*
X117770773Y-113003953D01*
X117737440Y-113070620D01*
X117737440Y-113203953D01*
X117770773Y-113270620D01*
X118170773Y-112970620D02*
X118204106Y-113037286D01*
X118204106Y-113203953D01*
X118170773Y-113270620D01*
X118104106Y-113303953D01*
X118037440Y-113303953D01*
X117970773Y-113270620D01*
X117937440Y-113203953D01*
X117937440Y-113037286D01*
X117904106Y-112970620D01*
X118204106Y-112337286D02*
X117504106Y-112337286D01*
X118170773Y-112337286D02*
X118204106Y-112403953D01*
X118204106Y-112537286D01*
X118170773Y-112603953D01*
X118137440Y-112637286D01*
X118070773Y-112670620D01*
X117870773Y-112670620D01*
X117804106Y-112637286D01*
X117770773Y-112603953D01*
X117737440Y-112537286D01*
X117737440Y-112403953D01*
X117770773Y-112337286D01*
X118204106Y-112003953D02*
X117737440Y-112003953D01*
X117504106Y-112003953D02*
X117537440Y-112037286D01*
X117570773Y-112003953D01*
X117537440Y-111970620D01*
X117504106Y-112003953D01*
X117570773Y-112003953D01*
X117737440Y-111370620D02*
X118204106Y-111370620D01*
X117737440Y-111670620D02*
X118104106Y-111670620D01*
X118170773Y-111637286D01*
X118204106Y-111570620D01*
X118204106Y-111470620D01*
X118170773Y-111403953D01*
X118137440Y-111370620D01*
X118170773Y-111070620D02*
X118204106Y-111003953D01*
X118204106Y-110870620D01*
X118170773Y-110803953D01*
X118104106Y-110770620D01*
X118070773Y-110770620D01*
X118004106Y-110803953D01*
X117970773Y-110870620D01*
X117970773Y-110970620D01*
X117937440Y-111037286D01*
X117870773Y-111070620D01*
X117837440Y-111070620D01*
X117770773Y-111037286D01*
X117737440Y-110970620D01*
X117737440Y-110870620D01*
X117770773Y-110803953D01*
X118204106Y-109370620D02*
X118204106Y-109403953D01*
X118170773Y-109470620D01*
X118070773Y-109570620D01*
X117870773Y-109737286D01*
X117770773Y-109803953D01*
X117670773Y-109837286D01*
X117604106Y-109837286D01*
X117537440Y-109803953D01*
X117504106Y-109737286D01*
X117504106Y-109703953D01*
X117537440Y-109637286D01*
X117604106Y-109603953D01*
X117637440Y-109603953D01*
X117704106Y-109637286D01*
X117737440Y-109670620D01*
X117870773Y-109870620D01*
X117904106Y-109903953D01*
X117970773Y-109937286D01*
X118070773Y-109937286D01*
X118137440Y-109903953D01*
X118170773Y-109870620D01*
X118204106Y-109803953D01*
X118204106Y-109703953D01*
X118170773Y-109637286D01*
X118137440Y-109603953D01*
X118004106Y-109503953D01*
X117904106Y-109470620D01*
X117837440Y-109470620D01*
X118204106Y-108003953D02*
X117737440Y-108003953D01*
X117804106Y-108003953D02*
X117770773Y-107970620D01*
X117737440Y-107903953D01*
X117737440Y-107803953D01*
X117770773Y-107737286D01*
X117837440Y-107703953D01*
X118204106Y-107703953D01*
X117837440Y-107703953D02*
X117770773Y-107670620D01*
X117737440Y-107603953D01*
X117737440Y-107503953D01*
X117770773Y-107437286D01*
X117837440Y-107403953D01*
X118204106Y-107403953D01*
X118204106Y-107070620D02*
X117737440Y-107070620D01*
X117504106Y-107070620D02*
X117537440Y-107103953D01*
X117570773Y-107070620D01*
X117537440Y-107037286D01*
X117504106Y-107070620D01*
X117570773Y-107070620D01*
X117737440Y-106737286D02*
X118204106Y-106737286D01*
X117804106Y-106737286D02*
X117770773Y-106703953D01*
X117737440Y-106637286D01*
X117737440Y-106537286D01*
X117770773Y-106470620D01*
X117837440Y-106437286D01*
X118204106Y-106437286D01*
X118204106Y-106103953D02*
X117737440Y-106103953D01*
X117504106Y-106103953D02*
X117537440Y-106137286D01*
X117570773Y-106103953D01*
X117537440Y-106070620D01*
X117504106Y-106103953D01*
X117570773Y-106103953D01*
X118204106Y-105770620D02*
X117737440Y-105770620D01*
X117804106Y-105770620D02*
X117770773Y-105737286D01*
X117737440Y-105670620D01*
X117737440Y-105570620D01*
X117770773Y-105503953D01*
X117837440Y-105470620D01*
X118204106Y-105470620D01*
X117837440Y-105470620D02*
X117770773Y-105437286D01*
X117737440Y-105370620D01*
X117737440Y-105270620D01*
X117770773Y-105203953D01*
X117837440Y-105170620D01*
X118204106Y-105170620D01*
X118204106Y-104537286D02*
X117837440Y-104537286D01*
X117770773Y-104570620D01*
X117737440Y-104637286D01*
X117737440Y-104770620D01*
X117770773Y-104837286D01*
X118170773Y-104537286D02*
X118204106Y-104603953D01*
X118204106Y-104770620D01*
X118170773Y-104837286D01*
X118104106Y-104870620D01*
X118037440Y-104870620D01*
X117970773Y-104837286D01*
X117937440Y-104770620D01*
X117937440Y-104603953D01*
X117904106Y-104537286D01*
X118204106Y-104103953D02*
X118170773Y-104170620D01*
X118104106Y-104203953D01*
X117504106Y-104203953D01*
X117737440Y-103403953D02*
X117737440Y-103137286D01*
X118204106Y-103303953D02*
X117604106Y-103303953D01*
X117537440Y-103270620D01*
X117504106Y-103203953D01*
X117504106Y-103137286D01*
X118204106Y-102803953D02*
X118170773Y-102870620D01*
X118104106Y-102903953D01*
X117504106Y-102903953D01*
X118170773Y-102270620D02*
X118204106Y-102337286D01*
X118204106Y-102470620D01*
X118170773Y-102537286D01*
X118104106Y-102570620D01*
X117837440Y-102570620D01*
X117770773Y-102537286D01*
X117737440Y-102470620D01*
X117737440Y-102337286D01*
X117770773Y-102270620D01*
X117837440Y-102237286D01*
X117904106Y-102237286D01*
X117970773Y-102570620D01*
X118204106Y-102003953D02*
X117737440Y-101637286D01*
X117737440Y-102003953D02*
X118204106Y-101637286D01*
X118204106Y-101370619D02*
X117737440Y-101370619D01*
X117504106Y-101370619D02*
X117537440Y-101403953D01*
X117570773Y-101370619D01*
X117537440Y-101337286D01*
X117504106Y-101370619D01*
X117570773Y-101370619D01*
X117737440Y-101037286D02*
X118204106Y-101037286D01*
X117804106Y-101037286D02*
X117770773Y-101003953D01*
X117737440Y-100937286D01*
X117737440Y-100837286D01*
X117770773Y-100770620D01*
X117837440Y-100737286D01*
X118204106Y-100737286D01*
X117737440Y-100103953D02*
X118304106Y-100103953D01*
X118370773Y-100137286D01*
X118404106Y-100170620D01*
X118437440Y-100237286D01*
X118437440Y-100337286D01*
X118404106Y-100403953D01*
X118170773Y-100103953D02*
X118204106Y-100170620D01*
X118204106Y-100303953D01*
X118170773Y-100370620D01*
X118137440Y-100403953D01*
X118070773Y-100437286D01*
X117870773Y-100437286D01*
X117804106Y-100403953D01*
X117770773Y-100370620D01*
X117737440Y-100303953D01*
X117737440Y-100170620D01*
X117770773Y-100103953D01*
D11*
X145218020Y-115858420D02*
X144993020Y-115858420D01*
X145218020Y-119208420D02*
X144918020Y-119208420D01*
X141868020Y-119208420D02*
X142168020Y-119208420D01*
X141868020Y-115858420D02*
X142168020Y-115858420D01*
X145218020Y-115858420D02*
X145218020Y-119208420D01*
X141868020Y-115858420D02*
X141868020Y-119208420D01*
X144993020Y-115858420D02*
X144993020Y-114633420D01*
X134007520Y-115868580D02*
X134007520Y-114643580D01*
X130882520Y-115868580D02*
X130882520Y-119218580D01*
X134232520Y-115868580D02*
X134232520Y-119218580D01*
X130882520Y-115868580D02*
X131182520Y-115868580D01*
X130882520Y-119218580D02*
X131182520Y-119218580D01*
X134232520Y-119218580D02*
X133932520Y-119218580D01*
X134232520Y-115868580D02*
X134007520Y-115868580D01*
X139496460Y-115860960D02*
X139496460Y-114635960D01*
X136371460Y-115860960D02*
X136371460Y-119210960D01*
X139721460Y-115860960D02*
X139721460Y-119210960D01*
X136371460Y-115860960D02*
X136671460Y-115860960D01*
X136371460Y-119210960D02*
X136671460Y-119210960D01*
X139721460Y-119210960D02*
X139421460Y-119210960D01*
X139721460Y-115860960D02*
X139496460Y-115860960D01*
X155978520Y-115845720D02*
X155978520Y-114620720D01*
X152853520Y-115845720D02*
X152853520Y-119195720D01*
X156203520Y-115845720D02*
X156203520Y-119195720D01*
X152853520Y-115845720D02*
X153153520Y-115845720D01*
X152853520Y-119195720D02*
X153153520Y-119195720D01*
X156203520Y-119195720D02*
X155903520Y-119195720D01*
X156203520Y-115845720D02*
X155978520Y-115845720D01*
X128735960Y-115871120D02*
X128510960Y-115871120D01*
X128735960Y-119221120D02*
X128435960Y-119221120D01*
X125385960Y-119221120D02*
X125685960Y-119221120D01*
X125385960Y-115871120D02*
X125685960Y-115871120D01*
X128735960Y-115871120D02*
X128735960Y-119221120D01*
X125385960Y-115871120D02*
X125385960Y-119221120D01*
X128510960Y-115871120D02*
X128510960Y-114646120D01*
X150706960Y-115848260D02*
X150481960Y-115848260D01*
X150706960Y-119198260D02*
X150406960Y-119198260D01*
X147356960Y-119198260D02*
X147656960Y-119198260D01*
X147356960Y-115848260D02*
X147656960Y-115848260D01*
X150706960Y-115848260D02*
X150706960Y-119198260D01*
X147356960Y-115848260D02*
X147356960Y-119198260D01*
X150481960Y-115848260D02*
X150481960Y-114623260D01*
X167199180Y-115850800D02*
X166974180Y-115850800D01*
X167199180Y-119200800D02*
X166899180Y-119200800D01*
X163849180Y-119200800D02*
X164149180Y-119200800D01*
X163849180Y-115850800D02*
X164149180Y-115850800D01*
X167199180Y-115850800D02*
X167199180Y-119200800D01*
X163849180Y-115850800D02*
X163849180Y-119200800D01*
X166974180Y-115850800D02*
X166974180Y-114625800D01*
X161477620Y-115853340D02*
X161477620Y-114628340D01*
X158352620Y-115853340D02*
X158352620Y-119203340D01*
X161702620Y-115853340D02*
X161702620Y-119203340D01*
X158352620Y-115853340D02*
X158652620Y-115853340D01*
X158352620Y-119203340D02*
X158652620Y-119203340D01*
X161702620Y-119203340D02*
X161402620Y-119203340D01*
X161702620Y-115853340D02*
X161477620Y-115853340D01*
X100583660Y-115848260D02*
X100583660Y-114623260D01*
X97458660Y-115848260D02*
X97458660Y-119198260D01*
X100808660Y-115848260D02*
X100808660Y-119198260D01*
X97458660Y-115848260D02*
X97758660Y-115848260D01*
X97458660Y-119198260D02*
X97758660Y-119198260D01*
X100808660Y-119198260D02*
X100508660Y-119198260D01*
X100808660Y-115848260D02*
X100583660Y-115848260D01*
X106305220Y-115845720D02*
X106080220Y-115845720D01*
X106305220Y-119195720D02*
X106005220Y-119195720D01*
X102955220Y-119195720D02*
X103255220Y-119195720D01*
X102955220Y-115845720D02*
X103255220Y-115845720D01*
X106305220Y-115845720D02*
X106305220Y-119195720D01*
X102955220Y-115845720D02*
X102955220Y-119195720D01*
X106080220Y-115845720D02*
X106080220Y-114620720D01*
X95094720Y-115858420D02*
X95094720Y-114633420D01*
X91969720Y-115858420D02*
X91969720Y-119208420D01*
X95319720Y-115858420D02*
X95319720Y-119208420D01*
X91969720Y-115858420D02*
X92269720Y-115858420D01*
X91969720Y-119208420D02*
X92269720Y-119208420D01*
X95319720Y-119208420D02*
X95019720Y-119208420D01*
X95319720Y-115858420D02*
X95094720Y-115858420D01*
X89823160Y-115860960D02*
X89598160Y-115860960D01*
X89823160Y-119210960D02*
X89523160Y-119210960D01*
X86473160Y-119210960D02*
X86773160Y-119210960D01*
X86473160Y-115860960D02*
X86773160Y-115860960D01*
X89823160Y-115860960D02*
X89823160Y-119210960D01*
X86473160Y-115860960D02*
X86473160Y-119210960D01*
X89598160Y-115860960D02*
X89598160Y-114635960D01*
X78612660Y-115871120D02*
X78612660Y-114646120D01*
X75487660Y-115871120D02*
X75487660Y-119221120D01*
X78837660Y-115871120D02*
X78837660Y-119221120D01*
X75487660Y-115871120D02*
X75787660Y-115871120D01*
X75487660Y-119221120D02*
X75787660Y-119221120D01*
X78837660Y-119221120D02*
X78537660Y-119221120D01*
X78837660Y-115871120D02*
X78612660Y-115871120D01*
X84334220Y-115868580D02*
X84109220Y-115868580D01*
X84334220Y-119218580D02*
X84034220Y-119218580D01*
X80984220Y-119218580D02*
X81284220Y-119218580D01*
X80984220Y-115868580D02*
X81284220Y-115868580D01*
X84334220Y-115868580D02*
X84334220Y-119218580D01*
X80984220Y-115868580D02*
X80984220Y-119218580D01*
X84109220Y-115868580D02*
X84109220Y-114643580D01*
X127992800Y-107359580D02*
X127992800Y-106134580D01*
X124867800Y-107359580D02*
X124867800Y-110709580D01*
X128217800Y-107359580D02*
X128217800Y-110709580D01*
X124867800Y-107359580D02*
X125167800Y-107359580D01*
X124867800Y-110709580D02*
X125167800Y-110709580D01*
X128217800Y-110709580D02*
X127917800Y-110709580D01*
X128217800Y-107359580D02*
X127992800Y-107359580D01*
X133714360Y-107357040D02*
X133489360Y-107357040D01*
X133714360Y-110707040D02*
X133414360Y-110707040D01*
X130364360Y-110707040D02*
X130664360Y-110707040D01*
X130364360Y-107357040D02*
X130664360Y-107357040D01*
X133714360Y-107357040D02*
X133714360Y-110707040D01*
X130364360Y-107357040D02*
X130364360Y-110707040D01*
X133489360Y-107357040D02*
X133489360Y-106132040D01*
X159346560Y-107308780D02*
X159346560Y-106083780D01*
X156221560Y-107308780D02*
X156221560Y-110658780D01*
X159571560Y-107308780D02*
X159571560Y-110658780D01*
X156221560Y-107308780D02*
X156521560Y-107308780D01*
X156221560Y-110658780D02*
X156521560Y-110658780D01*
X159571560Y-110658780D02*
X159271560Y-110658780D01*
X159571560Y-107308780D02*
X159346560Y-107308780D01*
X165068120Y-107306240D02*
X164843120Y-107306240D01*
X165068120Y-110656240D02*
X164768120Y-110656240D01*
X161718120Y-110656240D02*
X162018120Y-110656240D01*
X161718120Y-107306240D02*
X162018120Y-107306240D01*
X165068120Y-107306240D02*
X165068120Y-110656240D01*
X161718120Y-107306240D02*
X161718120Y-110656240D01*
X164843120Y-107306240D02*
X164843120Y-106081240D01*
X153857620Y-107318940D02*
X153857620Y-106093940D01*
X150732620Y-107318940D02*
X150732620Y-110668940D01*
X154082620Y-107318940D02*
X154082620Y-110668940D01*
X150732620Y-107318940D02*
X151032620Y-107318940D01*
X150732620Y-110668940D02*
X151032620Y-110668940D01*
X154082620Y-110668940D02*
X153782620Y-110668940D01*
X154082620Y-107318940D02*
X153857620Y-107318940D01*
X148586060Y-107321480D02*
X148361060Y-107321480D01*
X148586060Y-110671480D02*
X148286060Y-110671480D01*
X145236060Y-110671480D02*
X145536060Y-110671480D01*
X145236060Y-107321480D02*
X145536060Y-107321480D01*
X148586060Y-107321480D02*
X148586060Y-110671480D01*
X145236060Y-107321480D02*
X145236060Y-110671480D01*
X148361060Y-107321480D02*
X148361060Y-106096480D01*
X107107860Y-107270680D02*
X106882860Y-107270680D01*
X107107860Y-110620680D02*
X106807860Y-110620680D01*
X103757860Y-110620680D02*
X104057860Y-110620680D01*
X103757860Y-107270680D02*
X104057860Y-107270680D01*
X107107860Y-107270680D02*
X107107860Y-110620680D01*
X103757860Y-107270680D02*
X103757860Y-110620680D01*
X106882860Y-107270680D02*
X106882860Y-106045680D01*
X112379420Y-107268140D02*
X112379420Y-106043140D01*
X109254420Y-107268140D02*
X109254420Y-110618140D01*
X112604420Y-107268140D02*
X112604420Y-110618140D01*
X109254420Y-107268140D02*
X109554420Y-107268140D01*
X109254420Y-110618140D02*
X109554420Y-110618140D01*
X112604420Y-110618140D02*
X112304420Y-110618140D01*
X112604420Y-107268140D02*
X112379420Y-107268140D01*
X111804320Y-115853340D02*
X111579320Y-115853340D01*
X111804320Y-119203340D02*
X111504320Y-119203340D01*
X108454320Y-119203340D02*
X108754320Y-119203340D01*
X108454320Y-115853340D02*
X108754320Y-115853340D01*
X111804320Y-115853340D02*
X111804320Y-119203340D01*
X108454320Y-115853340D02*
X108454320Y-119203340D01*
X111579320Y-115853340D02*
X111579320Y-114628340D01*
X93592520Y-107321480D02*
X93367520Y-107321480D01*
X93592520Y-110671480D02*
X93292520Y-110671480D01*
X90242520Y-110671480D02*
X90542520Y-110671480D01*
X90242520Y-107321480D02*
X90542520Y-107321480D01*
X93592520Y-107321480D02*
X93592520Y-110671480D01*
X90242520Y-107321480D02*
X90242520Y-110671480D01*
X93367520Y-107321480D02*
X93367520Y-106096480D01*
X87870960Y-107324020D02*
X87870960Y-106099020D01*
X84745960Y-107324020D02*
X84745960Y-110674020D01*
X88095960Y-107324020D02*
X88095960Y-110674020D01*
X84745960Y-107324020D02*
X85045960Y-107324020D01*
X84745960Y-110674020D02*
X85045960Y-110674020D01*
X88095960Y-110674020D02*
X87795960Y-110674020D01*
X88095960Y-107324020D02*
X87870960Y-107324020D01*
D13*
X126174749Y-102046885D02*
X126008082Y-102046885D01*
X126008082Y-102308790D02*
X126008082Y-101808790D01*
X126246178Y-101808790D01*
X126436654Y-102308790D02*
X126436654Y-101808790D01*
X126674749Y-102308790D02*
X126674749Y-101808790D01*
X126793797Y-101808790D01*
X126865225Y-101832600D01*
X126912844Y-101880219D01*
X126936654Y-101927838D01*
X126960463Y-102023076D01*
X126960463Y-102094504D01*
X126936654Y-102189742D01*
X126912844Y-102237361D01*
X126865225Y-102284980D01*
X126793797Y-102308790D01*
X126674749Y-102308790D01*
X127508082Y-101808790D02*
X127841416Y-101808790D01*
X127627130Y-102308790D01*
D10*
X79698494Y-102041805D02*
X79531827Y-102041805D01*
X79531827Y-102303710D02*
X79531827Y-101803710D01*
X79769922Y-101803710D01*
X79960399Y-102303710D02*
X79960399Y-101803710D01*
X80198494Y-102303710D02*
X80198494Y-101803710D01*
X80317541Y-101803710D01*
X80388970Y-101827520D01*
X80436589Y-101875139D01*
X80460399Y-101922758D01*
X80484208Y-102017996D01*
X80484208Y-102089424D01*
X80460399Y-102184662D01*
X80436589Y-102232281D01*
X80388970Y-102279900D01*
X80317541Y-102303710D01*
X80198494Y-102303710D01*
X81150875Y-102017996D02*
X81103256Y-101994186D01*
X81079446Y-101970377D01*
X81055637Y-101922758D01*
X81055637Y-101898948D01*
X81079446Y-101851329D01*
X81103256Y-101827520D01*
X81150875Y-101803710D01*
X81246113Y-101803710D01*
X81293732Y-101827520D01*
X81317541Y-101851329D01*
X81341351Y-101898948D01*
X81341351Y-101922758D01*
X81317541Y-101970377D01*
X81293732Y-101994186D01*
X81246113Y-102017996D01*
X81150875Y-102017996D01*
X81103256Y-102041805D01*
X81079446Y-102065615D01*
X81055637Y-102113234D01*
X81055637Y-102208472D01*
X81079446Y-102256091D01*
X81103256Y-102279900D01*
X81150875Y-102303710D01*
X81246113Y-102303710D01*
X81293732Y-102279900D01*
X81317541Y-102256091D01*
X81341351Y-102208472D01*
X81341351Y-102113234D01*
X81317541Y-102065615D01*
X81293732Y-102041805D01*
X81246113Y-102017996D01*
X81627065Y-102017996D02*
X81579446Y-101994186D01*
X81555637Y-101970377D01*
X81531827Y-101922758D01*
X81531827Y-101898948D01*
X81555637Y-101851329D01*
X81579446Y-101827520D01*
X81627065Y-101803710D01*
X81722303Y-101803710D01*
X81769922Y-101827520D01*
X81793732Y-101851329D01*
X81817541Y-101898948D01*
X81817541Y-101922758D01*
X81793732Y-101970377D01*
X81769922Y-101994186D01*
X81722303Y-102017996D01*
X81627065Y-102017996D01*
X81579446Y-102041805D01*
X81555637Y-102065615D01*
X81531827Y-102113234D01*
X81531827Y-102208472D01*
X81555637Y-102256091D01*
X81579446Y-102279900D01*
X81627065Y-102303710D01*
X81722303Y-102303710D01*
X81769922Y-102279900D01*
X81793732Y-102256091D01*
X81817541Y-102208472D01*
X81817541Y-102113234D01*
X81793732Y-102065615D01*
X81769922Y-102041805D01*
X81722303Y-102017996D01*
X162456567Y-102869368D02*
X162323234Y-102869368D01*
X162323234Y-103078892D02*
X162323234Y-102678892D01*
X162513710Y-102678892D01*
X162666091Y-103078892D02*
X162666091Y-102678892D01*
X162856567Y-103078892D02*
X162856567Y-102678892D01*
X162951805Y-102678892D01*
X163008948Y-102697940D01*
X163047043Y-102736035D01*
X163066091Y-102774130D01*
X163085139Y-102850320D01*
X163085139Y-102907463D01*
X163066091Y-102983654D01*
X163047043Y-103021749D01*
X163008948Y-103059844D01*
X162951805Y-103078892D01*
X162856567Y-103078892D01*
X163580377Y-103078892D02*
X163656567Y-103078892D01*
X163694662Y-103059844D01*
X163713710Y-103040797D01*
X163751805Y-102983654D01*
X163770853Y-102907463D01*
X163770853Y-102755082D01*
X163751805Y-102716987D01*
X163732758Y-102697940D01*
X163694662Y-102678892D01*
X163618472Y-102678892D01*
X163580377Y-102697940D01*
X163561329Y-102716987D01*
X163542281Y-102755082D01*
X163542281Y-102850320D01*
X163561329Y-102888416D01*
X163580377Y-102907463D01*
X163618472Y-102926511D01*
X163694662Y-102926511D01*
X163732758Y-102907463D01*
X163751805Y-102888416D01*
X163770853Y-102850320D01*
D11*
X145595400Y-118771515D02*
X146404924Y-118771515D01*
X146500162Y-118723896D01*
X146547781Y-118676277D01*
X146595400Y-118581039D01*
X146595400Y-118390562D01*
X146547781Y-118295324D01*
X146500162Y-118247705D01*
X146404924Y-118200086D01*
X145595400Y-118200086D01*
X145690639Y-117771515D02*
X145643020Y-117723896D01*
X145595400Y-117628658D01*
X145595400Y-117390562D01*
X145643020Y-117295324D01*
X145690639Y-117247705D01*
X145785877Y-117200086D01*
X145881115Y-117200086D01*
X146023972Y-117247705D01*
X146595400Y-117819134D01*
X146595400Y-117200086D01*
X145595400Y-116295324D02*
X145595400Y-116771515D01*
X146071591Y-116819134D01*
X146023972Y-116771515D01*
X145976353Y-116676277D01*
X145976353Y-116438181D01*
X146023972Y-116342943D01*
X146071591Y-116295324D01*
X146166829Y-116247705D01*
X146404924Y-116247705D01*
X146500162Y-116295324D01*
X146547781Y-116342943D01*
X146595400Y-116438181D01*
X146595400Y-116676277D01*
X146547781Y-116771515D01*
X146500162Y-116819134D01*
X134609900Y-118781675D02*
X135419424Y-118781675D01*
X135514662Y-118734056D01*
X135562281Y-118686437D01*
X135609900Y-118591199D01*
X135609900Y-118400722D01*
X135562281Y-118305484D01*
X135514662Y-118257865D01*
X135419424Y-118210246D01*
X134609900Y-118210246D01*
X134705139Y-117781675D02*
X134657520Y-117734056D01*
X134609900Y-117638818D01*
X134609900Y-117400722D01*
X134657520Y-117305484D01*
X134705139Y-117257865D01*
X134800377Y-117210246D01*
X134895615Y-117210246D01*
X135038472Y-117257865D01*
X135609900Y-117829294D01*
X135609900Y-117210246D01*
X134609900Y-116876913D02*
X134609900Y-116257865D01*
X134990853Y-116591199D01*
X134990853Y-116448341D01*
X135038472Y-116353103D01*
X135086091Y-116305484D01*
X135181329Y-116257865D01*
X135419424Y-116257865D01*
X135514662Y-116305484D01*
X135562281Y-116353103D01*
X135609900Y-116448341D01*
X135609900Y-116734056D01*
X135562281Y-116829294D01*
X135514662Y-116876913D01*
X140098840Y-118774055D02*
X140908364Y-118774055D01*
X141003602Y-118726436D01*
X141051221Y-118678817D01*
X141098840Y-118583579D01*
X141098840Y-118393102D01*
X141051221Y-118297864D01*
X141003602Y-118250245D01*
X140908364Y-118202626D01*
X140098840Y-118202626D01*
X140194079Y-117774055D02*
X140146460Y-117726436D01*
X140098840Y-117631198D01*
X140098840Y-117393102D01*
X140146460Y-117297864D01*
X140194079Y-117250245D01*
X140289317Y-117202626D01*
X140384555Y-117202626D01*
X140527412Y-117250245D01*
X141098840Y-117821674D01*
X141098840Y-117202626D01*
X140432174Y-116345483D02*
X141098840Y-116345483D01*
X140051221Y-116583579D02*
X140765507Y-116821674D01*
X140765507Y-116202626D01*
X156580900Y-118758815D02*
X157390424Y-118758815D01*
X157485662Y-118711196D01*
X157533281Y-118663577D01*
X157580900Y-118568339D01*
X157580900Y-118377862D01*
X157533281Y-118282624D01*
X157485662Y-118235005D01*
X157390424Y-118187386D01*
X156580900Y-118187386D01*
X156676139Y-117758815D02*
X156628520Y-117711196D01*
X156580900Y-117615958D01*
X156580900Y-117377862D01*
X156628520Y-117282624D01*
X156676139Y-117235005D01*
X156771377Y-117187386D01*
X156866615Y-117187386D01*
X157009472Y-117235005D01*
X157580900Y-117806434D01*
X157580900Y-117187386D01*
X156580900Y-116854053D02*
X156580900Y-116187386D01*
X157580900Y-116615958D01*
X129113340Y-118784215D02*
X129922864Y-118784215D01*
X130018102Y-118736596D01*
X130065721Y-118688977D01*
X130113340Y-118593739D01*
X130113340Y-118403262D01*
X130065721Y-118308024D01*
X130018102Y-118260405D01*
X129922864Y-118212786D01*
X129113340Y-118212786D01*
X129208579Y-117784215D02*
X129160960Y-117736596D01*
X129113340Y-117641358D01*
X129113340Y-117403262D01*
X129160960Y-117308024D01*
X129208579Y-117260405D01*
X129303817Y-117212786D01*
X129399055Y-117212786D01*
X129541912Y-117260405D01*
X130113340Y-117831834D01*
X130113340Y-117212786D01*
X129208579Y-116831834D02*
X129160960Y-116784215D01*
X129113340Y-116688977D01*
X129113340Y-116450881D01*
X129160960Y-116355643D01*
X129208579Y-116308024D01*
X129303817Y-116260405D01*
X129399055Y-116260405D01*
X129541912Y-116308024D01*
X130113340Y-116879453D01*
X130113340Y-116260405D01*
X151084340Y-118761355D02*
X151893864Y-118761355D01*
X151989102Y-118713736D01*
X152036721Y-118666117D01*
X152084340Y-118570879D01*
X152084340Y-118380402D01*
X152036721Y-118285164D01*
X151989102Y-118237545D01*
X151893864Y-118189926D01*
X151084340Y-118189926D01*
X151179579Y-117761355D02*
X151131960Y-117713736D01*
X151084340Y-117618498D01*
X151084340Y-117380402D01*
X151131960Y-117285164D01*
X151179579Y-117237545D01*
X151274817Y-117189926D01*
X151370055Y-117189926D01*
X151512912Y-117237545D01*
X152084340Y-117808974D01*
X152084340Y-117189926D01*
X151084340Y-116332783D02*
X151084340Y-116523260D01*
X151131960Y-116618498D01*
X151179579Y-116666117D01*
X151322436Y-116761355D01*
X151512912Y-116808974D01*
X151893864Y-116808974D01*
X151989102Y-116761355D01*
X152036721Y-116713736D01*
X152084340Y-116618498D01*
X152084340Y-116428021D01*
X152036721Y-116332783D01*
X151989102Y-116285164D01*
X151893864Y-116237545D01*
X151655769Y-116237545D01*
X151560531Y-116285164D01*
X151512912Y-116332783D01*
X151465293Y-116428021D01*
X151465293Y-116618498D01*
X151512912Y-116713736D01*
X151560531Y-116761355D01*
X151655769Y-116808974D01*
X165992560Y-113988695D02*
X166802084Y-113988695D01*
X166897322Y-113941076D01*
X166944941Y-113893457D01*
X166992560Y-113798219D01*
X166992560Y-113607742D01*
X166944941Y-113512504D01*
X166897322Y-113464885D01*
X166802084Y-113417266D01*
X165992560Y-113417266D01*
X166087799Y-112988695D02*
X166040180Y-112941076D01*
X165992560Y-112845838D01*
X165992560Y-112607742D01*
X166040180Y-112512504D01*
X166087799Y-112464885D01*
X166183037Y-112417266D01*
X166278275Y-112417266D01*
X166421132Y-112464885D01*
X166992560Y-113036314D01*
X166992560Y-112417266D01*
X166992560Y-111941076D02*
X166992560Y-111750600D01*
X166944941Y-111655361D01*
X166897322Y-111607742D01*
X166754465Y-111512504D01*
X166563989Y-111464885D01*
X166183037Y-111464885D01*
X166087799Y-111512504D01*
X166040180Y-111560123D01*
X165992560Y-111655361D01*
X165992560Y-111845838D01*
X166040180Y-111941076D01*
X166087799Y-111988695D01*
X166183037Y-112036314D01*
X166421132Y-112036314D01*
X166516370Y-111988695D01*
X166563989Y-111941076D01*
X166611608Y-111845838D01*
X166611608Y-111655361D01*
X166563989Y-111560123D01*
X166516370Y-111512504D01*
X166421132Y-111464885D01*
X162080000Y-118766435D02*
X162889524Y-118766435D01*
X162984762Y-118718816D01*
X163032381Y-118671197D01*
X163080000Y-118575959D01*
X163080000Y-118385482D01*
X163032381Y-118290244D01*
X162984762Y-118242625D01*
X162889524Y-118195006D01*
X162080000Y-118195006D01*
X162175239Y-117766435D02*
X162127620Y-117718816D01*
X162080000Y-117623578D01*
X162080000Y-117385482D01*
X162127620Y-117290244D01*
X162175239Y-117242625D01*
X162270477Y-117195006D01*
X162365715Y-117195006D01*
X162508572Y-117242625D01*
X163080000Y-117814054D01*
X163080000Y-117195006D01*
X162508572Y-116623578D02*
X162460953Y-116718816D01*
X162413334Y-116766435D01*
X162318096Y-116814054D01*
X162270477Y-116814054D01*
X162175239Y-116766435D01*
X162127620Y-116718816D01*
X162080000Y-116623578D01*
X162080000Y-116433101D01*
X162127620Y-116337863D01*
X162175239Y-116290244D01*
X162270477Y-116242625D01*
X162318096Y-116242625D01*
X162413334Y-116290244D01*
X162460953Y-116337863D01*
X162508572Y-116433101D01*
X162508572Y-116623578D01*
X162556191Y-116718816D01*
X162603810Y-116766435D01*
X162699048Y-116814054D01*
X162889524Y-116814054D01*
X162984762Y-116766435D01*
X163032381Y-116718816D01*
X163080000Y-116623578D01*
X163080000Y-116433101D01*
X163032381Y-116337863D01*
X162984762Y-116290244D01*
X162889524Y-116242625D01*
X162699048Y-116242625D01*
X162603810Y-116290244D01*
X162556191Y-116337863D01*
X162508572Y-116433101D01*
X101186040Y-118761355D02*
X101995564Y-118761355D01*
X102090802Y-118713736D01*
X102138421Y-118666117D01*
X102186040Y-118570879D01*
X102186040Y-118380402D01*
X102138421Y-118285164D01*
X102090802Y-118237545D01*
X101995564Y-118189926D01*
X101186040Y-118189926D01*
X102186040Y-117189926D02*
X102186040Y-117761355D01*
X102186040Y-117475640D02*
X101186040Y-117475640D01*
X101328898Y-117570879D01*
X101424136Y-117666117D01*
X101471755Y-117761355D01*
X101186040Y-116856593D02*
X101186040Y-116189926D01*
X102186040Y-116618498D01*
X106682600Y-118758815D02*
X107492124Y-118758815D01*
X107587362Y-118711196D01*
X107634981Y-118663577D01*
X107682600Y-118568339D01*
X107682600Y-118377862D01*
X107634981Y-118282624D01*
X107587362Y-118235005D01*
X107492124Y-118187386D01*
X106682600Y-118187386D01*
X107682600Y-117187386D02*
X107682600Y-117758815D01*
X107682600Y-117473100D02*
X106682600Y-117473100D01*
X106825458Y-117568339D01*
X106920696Y-117663577D01*
X106968315Y-117758815D01*
X107111172Y-116615958D02*
X107063553Y-116711196D01*
X107015934Y-116758815D01*
X106920696Y-116806434D01*
X106873077Y-116806434D01*
X106777839Y-116758815D01*
X106730220Y-116711196D01*
X106682600Y-116615958D01*
X106682600Y-116425481D01*
X106730220Y-116330243D01*
X106777839Y-116282624D01*
X106873077Y-116235005D01*
X106920696Y-116235005D01*
X107015934Y-116282624D01*
X107063553Y-116330243D01*
X107111172Y-116425481D01*
X107111172Y-116615958D01*
X107158791Y-116711196D01*
X107206410Y-116758815D01*
X107301648Y-116806434D01*
X107492124Y-116806434D01*
X107587362Y-116758815D01*
X107634981Y-116711196D01*
X107682600Y-116615958D01*
X107682600Y-116425481D01*
X107634981Y-116330243D01*
X107587362Y-116282624D01*
X107492124Y-116235005D01*
X107301648Y-116235005D01*
X107206410Y-116282624D01*
X107158791Y-116330243D01*
X107111172Y-116425481D01*
X95697100Y-118771515D02*
X96506624Y-118771515D01*
X96601862Y-118723896D01*
X96649481Y-118676277D01*
X96697100Y-118581039D01*
X96697100Y-118390562D01*
X96649481Y-118295324D01*
X96601862Y-118247705D01*
X96506624Y-118200086D01*
X95697100Y-118200086D01*
X96697100Y-117200086D02*
X96697100Y-117771515D01*
X96697100Y-117485800D02*
X95697100Y-117485800D01*
X95839958Y-117581039D01*
X95935196Y-117676277D01*
X95982815Y-117771515D01*
X95697100Y-116342943D02*
X95697100Y-116533420D01*
X95744720Y-116628658D01*
X95792339Y-116676277D01*
X95935196Y-116771515D01*
X96125672Y-116819134D01*
X96506624Y-116819134D01*
X96601862Y-116771515D01*
X96649481Y-116723896D01*
X96697100Y-116628658D01*
X96697100Y-116438181D01*
X96649481Y-116342943D01*
X96601862Y-116295324D01*
X96506624Y-116247705D01*
X96268529Y-116247705D01*
X96173291Y-116295324D01*
X96125672Y-116342943D01*
X96078053Y-116438181D01*
X96078053Y-116628658D01*
X96125672Y-116723896D01*
X96173291Y-116771515D01*
X96268529Y-116819134D01*
X90200540Y-118774055D02*
X91010064Y-118774055D01*
X91105302Y-118726436D01*
X91152921Y-118678817D01*
X91200540Y-118583579D01*
X91200540Y-118393102D01*
X91152921Y-118297864D01*
X91105302Y-118250245D01*
X91010064Y-118202626D01*
X90200540Y-118202626D01*
X91200540Y-117202626D02*
X91200540Y-117774055D01*
X91200540Y-117488340D02*
X90200540Y-117488340D01*
X90343398Y-117583579D01*
X90438636Y-117678817D01*
X90486255Y-117774055D01*
X90200540Y-116297864D02*
X90200540Y-116774055D01*
X90676731Y-116821674D01*
X90629112Y-116774055D01*
X90581493Y-116678817D01*
X90581493Y-116440721D01*
X90629112Y-116345483D01*
X90676731Y-116297864D01*
X90771969Y-116250245D01*
X91010064Y-116250245D01*
X91105302Y-116297864D01*
X91152921Y-116345483D01*
X91200540Y-116440721D01*
X91200540Y-116678817D01*
X91152921Y-116774055D01*
X91105302Y-116821674D01*
X79215040Y-118784215D02*
X80024564Y-118784215D01*
X80119802Y-118736596D01*
X80167421Y-118688977D01*
X80215040Y-118593739D01*
X80215040Y-118403262D01*
X80167421Y-118308024D01*
X80119802Y-118260405D01*
X80024564Y-118212786D01*
X79215040Y-118212786D01*
X80215040Y-117212786D02*
X80215040Y-117784215D01*
X80215040Y-117498500D02*
X79215040Y-117498500D01*
X79357898Y-117593739D01*
X79453136Y-117688977D01*
X79500755Y-117784215D01*
X79215040Y-116879453D02*
X79215040Y-116260405D01*
X79595993Y-116593739D01*
X79595993Y-116450881D01*
X79643612Y-116355643D01*
X79691231Y-116308024D01*
X79786469Y-116260405D01*
X80024564Y-116260405D01*
X80119802Y-116308024D01*
X80167421Y-116355643D01*
X80215040Y-116450881D01*
X80215040Y-116736596D01*
X80167421Y-116831834D01*
X80119802Y-116879453D01*
X84711600Y-118781675D02*
X85521124Y-118781675D01*
X85616362Y-118734056D01*
X85663981Y-118686437D01*
X85711600Y-118591199D01*
X85711600Y-118400722D01*
X85663981Y-118305484D01*
X85616362Y-118257865D01*
X85521124Y-118210246D01*
X84711600Y-118210246D01*
X85711600Y-117210246D02*
X85711600Y-117781675D01*
X85711600Y-117495960D02*
X84711600Y-117495960D01*
X84854458Y-117591199D01*
X84949696Y-117686437D01*
X84997315Y-117781675D01*
X85044934Y-116353103D02*
X85711600Y-116353103D01*
X84663981Y-116591199D02*
X85378267Y-116829294D01*
X85378267Y-116210246D01*
X128595180Y-110272675D02*
X129404704Y-110272675D01*
X129499942Y-110225056D01*
X129547561Y-110177437D01*
X129595180Y-110082199D01*
X129595180Y-109891722D01*
X129547561Y-109796484D01*
X129499942Y-109748865D01*
X129404704Y-109701246D01*
X128595180Y-109701246D01*
X128690419Y-109272675D02*
X128642800Y-109225056D01*
X128595180Y-109129818D01*
X128595180Y-108891722D01*
X128642800Y-108796484D01*
X128690419Y-108748865D01*
X128785657Y-108701246D01*
X128880895Y-108701246D01*
X129023752Y-108748865D01*
X129595180Y-109320294D01*
X129595180Y-108701246D01*
X128595180Y-108082199D02*
X128595180Y-107986960D01*
X128642800Y-107891722D01*
X128690419Y-107844103D01*
X128785657Y-107796484D01*
X128976133Y-107748865D01*
X129214228Y-107748865D01*
X129404704Y-107796484D01*
X129499942Y-107844103D01*
X129547561Y-107891722D01*
X129595180Y-107986960D01*
X129595180Y-108082199D01*
X129547561Y-108177437D01*
X129499942Y-108225056D01*
X129404704Y-108272675D01*
X129214228Y-108320294D01*
X128976133Y-108320294D01*
X128785657Y-108272675D01*
X128690419Y-108225056D01*
X128642800Y-108177437D01*
X128595180Y-108082199D01*
X134091740Y-110270135D02*
X134901264Y-110270135D01*
X134996502Y-110222516D01*
X135044121Y-110174897D01*
X135091740Y-110079659D01*
X135091740Y-109889182D01*
X135044121Y-109793944D01*
X134996502Y-109746325D01*
X134901264Y-109698706D01*
X134091740Y-109698706D01*
X134186979Y-109270135D02*
X134139360Y-109222516D01*
X134091740Y-109127278D01*
X134091740Y-108889182D01*
X134139360Y-108793944D01*
X134186979Y-108746325D01*
X134282217Y-108698706D01*
X134377455Y-108698706D01*
X134520312Y-108746325D01*
X135091740Y-109317754D01*
X135091740Y-108698706D01*
X135091740Y-107746325D02*
X135091740Y-108317754D01*
X135091740Y-108032040D02*
X134091740Y-108032040D01*
X134234598Y-108127278D01*
X134329836Y-108222516D01*
X134377455Y-108317754D01*
X159948940Y-110221875D02*
X160758464Y-110221875D01*
X160853702Y-110174256D01*
X160901321Y-110126637D01*
X160948940Y-110031399D01*
X160948940Y-109840922D01*
X160901321Y-109745684D01*
X160853702Y-109698065D01*
X160758464Y-109650446D01*
X159948940Y-109650446D01*
X159948940Y-109269494D02*
X159948940Y-108650446D01*
X160329893Y-108983780D01*
X160329893Y-108840922D01*
X160377512Y-108745684D01*
X160425131Y-108698065D01*
X160520369Y-108650446D01*
X160758464Y-108650446D01*
X160853702Y-108698065D01*
X160901321Y-108745684D01*
X160948940Y-108840922D01*
X160948940Y-109126637D01*
X160901321Y-109221875D01*
X160853702Y-109269494D01*
X160044179Y-108269494D02*
X159996560Y-108221875D01*
X159948940Y-108126637D01*
X159948940Y-107888541D01*
X159996560Y-107793303D01*
X160044179Y-107745684D01*
X160139417Y-107698065D01*
X160234655Y-107698065D01*
X160377512Y-107745684D01*
X160948940Y-108317113D01*
X160948940Y-107698065D01*
X165445500Y-110219335D02*
X166255024Y-110219335D01*
X166350262Y-110171716D01*
X166397881Y-110124097D01*
X166445500Y-110028859D01*
X166445500Y-109838382D01*
X166397881Y-109743144D01*
X166350262Y-109695525D01*
X166255024Y-109647906D01*
X165445500Y-109647906D01*
X165445500Y-109266954D02*
X165445500Y-108647906D01*
X165826453Y-108981240D01*
X165826453Y-108838382D01*
X165874072Y-108743144D01*
X165921691Y-108695525D01*
X166016929Y-108647906D01*
X166255024Y-108647906D01*
X166350262Y-108695525D01*
X166397881Y-108743144D01*
X166445500Y-108838382D01*
X166445500Y-109124097D01*
X166397881Y-109219335D01*
X166350262Y-109266954D01*
X165445500Y-108314573D02*
X165445500Y-107695525D01*
X165826453Y-108028859D01*
X165826453Y-107886001D01*
X165874072Y-107790763D01*
X165921691Y-107743144D01*
X166016929Y-107695525D01*
X166255024Y-107695525D01*
X166350262Y-107743144D01*
X166397881Y-107790763D01*
X166445500Y-107886001D01*
X166445500Y-108171716D01*
X166397881Y-108266954D01*
X166350262Y-108314573D01*
X154460000Y-110232035D02*
X155269524Y-110232035D01*
X155364762Y-110184416D01*
X155412381Y-110136797D01*
X155460000Y-110041559D01*
X155460000Y-109851082D01*
X155412381Y-109755844D01*
X155364762Y-109708225D01*
X155269524Y-109660606D01*
X154460000Y-109660606D01*
X154460000Y-109279654D02*
X154460000Y-108660606D01*
X154840953Y-108993940D01*
X154840953Y-108851082D01*
X154888572Y-108755844D01*
X154936191Y-108708225D01*
X155031429Y-108660606D01*
X155269524Y-108660606D01*
X155364762Y-108708225D01*
X155412381Y-108755844D01*
X155460000Y-108851082D01*
X155460000Y-109136797D01*
X155412381Y-109232035D01*
X155364762Y-109279654D01*
X155460000Y-107708225D02*
X155460000Y-108279654D01*
X155460000Y-107993940D02*
X154460000Y-107993940D01*
X154602858Y-108089178D01*
X154698096Y-108184416D01*
X154745715Y-108279654D01*
X148963440Y-110234575D02*
X149772964Y-110234575D01*
X149868202Y-110186956D01*
X149915821Y-110139337D01*
X149963440Y-110044099D01*
X149963440Y-109853622D01*
X149915821Y-109758384D01*
X149868202Y-109710765D01*
X149772964Y-109663146D01*
X148963440Y-109663146D01*
X148963440Y-109282194D02*
X148963440Y-108663146D01*
X149344393Y-108996480D01*
X149344393Y-108853622D01*
X149392012Y-108758384D01*
X149439631Y-108710765D01*
X149534869Y-108663146D01*
X149772964Y-108663146D01*
X149868202Y-108710765D01*
X149915821Y-108758384D01*
X149963440Y-108853622D01*
X149963440Y-109139337D01*
X149915821Y-109234575D01*
X149868202Y-109282194D01*
X148963440Y-108044099D02*
X148963440Y-107948860D01*
X149011060Y-107853622D01*
X149058679Y-107806003D01*
X149153917Y-107758384D01*
X149344393Y-107710765D01*
X149582488Y-107710765D01*
X149772964Y-107758384D01*
X149868202Y-107806003D01*
X149915821Y-107853622D01*
X149963440Y-107948860D01*
X149963440Y-108044099D01*
X149915821Y-108139337D01*
X149868202Y-108186956D01*
X149772964Y-108234575D01*
X149582488Y-108282194D01*
X149344393Y-108282194D01*
X149153917Y-108234575D01*
X149058679Y-108186956D01*
X149011060Y-108139337D01*
X148963440Y-108044099D01*
X107364280Y-110328555D02*
X108173804Y-110328555D01*
X108269042Y-110280936D01*
X108316661Y-110233317D01*
X108364280Y-110138079D01*
X108364280Y-109947602D01*
X108316661Y-109852364D01*
X108269042Y-109804745D01*
X108173804Y-109757126D01*
X107364280Y-109757126D01*
X108364280Y-108757126D02*
X108364280Y-109328555D01*
X108364280Y-109042840D02*
X107364280Y-109042840D01*
X107507138Y-109138079D01*
X107602376Y-109233317D01*
X107649995Y-109328555D01*
X108364280Y-107804745D02*
X108364280Y-108376174D01*
X108364280Y-108090460D02*
X107364280Y-108090460D01*
X107507138Y-108185698D01*
X107602376Y-108280936D01*
X107649995Y-108376174D01*
X113137700Y-110150755D02*
X113947224Y-110150755D01*
X114042462Y-110103136D01*
X114090081Y-110055517D01*
X114137700Y-109960279D01*
X114137700Y-109769802D01*
X114090081Y-109674564D01*
X114042462Y-109626945D01*
X113947224Y-109579326D01*
X113137700Y-109579326D01*
X114137700Y-108579326D02*
X114137700Y-109150755D01*
X114137700Y-108865040D02*
X113137700Y-108865040D01*
X113280558Y-108960279D01*
X113375796Y-109055517D01*
X113423415Y-109150755D01*
X113232939Y-108198374D02*
X113185320Y-108150755D01*
X113137700Y-108055517D01*
X113137700Y-107817421D01*
X113185320Y-107722183D01*
X113232939Y-107674564D01*
X113328177Y-107626945D01*
X113423415Y-107626945D01*
X113566272Y-107674564D01*
X114137700Y-108245993D01*
X114137700Y-107626945D01*
X112181700Y-118766435D02*
X112991224Y-118766435D01*
X113086462Y-118718816D01*
X113134081Y-118671197D01*
X113181700Y-118575959D01*
X113181700Y-118385482D01*
X113134081Y-118290244D01*
X113086462Y-118242625D01*
X112991224Y-118195006D01*
X112181700Y-118195006D01*
X113181700Y-117195006D02*
X113181700Y-117766435D01*
X113181700Y-117480720D02*
X112181700Y-117480720D01*
X112324558Y-117575959D01*
X112419796Y-117671197D01*
X112467415Y-117766435D01*
X113181700Y-116718816D02*
X113181700Y-116528340D01*
X113134081Y-116433101D01*
X113086462Y-116385482D01*
X112943605Y-116290244D01*
X112753129Y-116242625D01*
X112372177Y-116242625D01*
X112276939Y-116290244D01*
X112229320Y-116337863D01*
X112181700Y-116433101D01*
X112181700Y-116623578D01*
X112229320Y-116718816D01*
X112276939Y-116766435D01*
X112372177Y-116814054D01*
X112610272Y-116814054D01*
X112705510Y-116766435D01*
X112753129Y-116718816D01*
X112800748Y-116623578D01*
X112800748Y-116433101D01*
X112753129Y-116337863D01*
X112705510Y-116290244D01*
X112610272Y-116242625D01*
X94041980Y-111217555D02*
X94851504Y-111217555D01*
X94946742Y-111169936D01*
X94994361Y-111122317D01*
X95041980Y-111027079D01*
X95041980Y-110836602D01*
X94994361Y-110741364D01*
X94946742Y-110693745D01*
X94851504Y-110646126D01*
X94041980Y-110646126D01*
X95041980Y-109646126D02*
X95041980Y-110217555D01*
X95041980Y-109931840D02*
X94041980Y-109931840D01*
X94184838Y-110027079D01*
X94280076Y-110122317D01*
X94327695Y-110217555D01*
X94041980Y-109027079D02*
X94041980Y-108931840D01*
X94089600Y-108836602D01*
X94137219Y-108788983D01*
X94232457Y-108741364D01*
X94422933Y-108693745D01*
X94661028Y-108693745D01*
X94851504Y-108741364D01*
X94946742Y-108788983D01*
X94994361Y-108836602D01*
X95041980Y-108931840D01*
X95041980Y-109027079D01*
X94994361Y-109122317D01*
X94946742Y-109169936D01*
X94851504Y-109217555D01*
X94661028Y-109265174D01*
X94422933Y-109265174D01*
X94232457Y-109217555D01*
X94137219Y-109169936D01*
X94089600Y-109122317D01*
X94041980Y-109027079D01*
X88461600Y-110474664D02*
X89271124Y-110474664D01*
X89366362Y-110427045D01*
X89413981Y-110379426D01*
X89461600Y-110284188D01*
X89461600Y-110093712D01*
X89413981Y-109998474D01*
X89366362Y-109950855D01*
X89271124Y-109903236D01*
X88461600Y-109903236D01*
X89461600Y-109379426D02*
X89461600Y-109188950D01*
X89413981Y-109093712D01*
X89366362Y-109046093D01*
X89223505Y-108950855D01*
X89033029Y-108903236D01*
X88652077Y-108903236D01*
X88556839Y-108950855D01*
X88509220Y-108998474D01*
X88461600Y-109093712D01*
X88461600Y-109284188D01*
X88509220Y-109379426D01*
X88556839Y-109427045D01*
X88652077Y-109474664D01*
X88890172Y-109474664D01*
X88985410Y-109427045D01*
X89033029Y-109379426D01*
X89080648Y-109284188D01*
X89080648Y-109093712D01*
X89033029Y-108998474D01*
X88985410Y-108950855D01*
X88890172Y-108903236D01*
M02*
