G04 #@! TF.GenerationSoftware,KiCad,Pcbnew,5.1.4-e60b266~84~ubuntu16.04.1*
G04 #@! TF.CreationDate,2019-10-21T03:29:48-05:00*
G04 #@! TF.ProjectId,Quantum MCP4262-502 25x expansion flex for GWAAM-Sea Aid with U7 expansion cutout,5175616e-7475-46d2-904d-435034323632,rev?*
G04 #@! TF.SameCoordinates,Original*
G04 #@! TF.FileFunction,Legend,Bot*
G04 #@! TF.FilePolarity,Positive*
%FSLAX46Y46*%
G04 Gerber Fmt 4.6, Leading zero omitted, Abs format (unit mm)*
G04 Created by KiCad (PCBNEW 5.1.4-e60b266~84~ubuntu16.04.1) date 2019-10-21 03:29:48*
%MOMM*%
%LPD*%
G04 APERTURE LIST*
%ADD10C,0.200000*%
%ADD11C,0.150000*%
%ADD12C,0.075000*%
%ADD13C,0.100000*%
%ADD14C,0.050000*%
G04 APERTURE END LIST*
D10*
X127783748Y-103761375D02*
X128150415Y-103142327D01*
X128412320Y-103761375D02*
X128412320Y-102461375D01*
X127993272Y-102461375D01*
X127888510Y-102523280D01*
X127836129Y-102585184D01*
X127783748Y-102708994D01*
X127783748Y-102894708D01*
X127836129Y-103018518D01*
X127888510Y-103080422D01*
X127993272Y-103142327D01*
X128412320Y-103142327D01*
X127312320Y-103080422D02*
X126945653Y-103080422D01*
X126788510Y-103761375D02*
X127312320Y-103761375D01*
X127312320Y-102461375D01*
X126788510Y-102461375D01*
X126369462Y-103699470D02*
X126212320Y-103761375D01*
X125950415Y-103761375D01*
X125845653Y-103699470D01*
X125793272Y-103637565D01*
X125740891Y-103513756D01*
X125740891Y-103389946D01*
X125793272Y-103266137D01*
X125845653Y-103204232D01*
X125950415Y-103142327D01*
X126159939Y-103080422D01*
X126264700Y-103018518D01*
X126317081Y-102956613D01*
X126369462Y-102832803D01*
X126369462Y-102708994D01*
X126317081Y-102585184D01*
X126264700Y-102523280D01*
X126159939Y-102461375D01*
X125898034Y-102461375D01*
X125740891Y-102523280D01*
X125269462Y-103761375D02*
X125269462Y-102461375D01*
X124798034Y-103699470D02*
X124640891Y-103761375D01*
X124378986Y-103761375D01*
X124274224Y-103699470D01*
X124221843Y-103637565D01*
X124169462Y-103513756D01*
X124169462Y-103389946D01*
X124221843Y-103266137D01*
X124274224Y-103204232D01*
X124378986Y-103142327D01*
X124588510Y-103080422D01*
X124693272Y-103018518D01*
X124745653Y-102956613D01*
X124798034Y-102832803D01*
X124798034Y-102708994D01*
X124745653Y-102585184D01*
X124693272Y-102523280D01*
X124588510Y-102461375D01*
X124326605Y-102461375D01*
X124169462Y-102523280D01*
X123855177Y-102461375D02*
X123226605Y-102461375D01*
X123540891Y-103761375D02*
X123540891Y-102461375D01*
X122178986Y-102461375D02*
X121550415Y-102461375D01*
X121864700Y-103761375D02*
X121864700Y-102461375D01*
X121183748Y-103761375D02*
X121183748Y-102461375D01*
X121183748Y-103080422D02*
X120555177Y-103080422D01*
X120555177Y-103761375D02*
X120555177Y-102461375D01*
X120031367Y-103080422D02*
X119664700Y-103080422D01*
X119507558Y-103761375D02*
X120031367Y-103761375D01*
X120031367Y-102461375D01*
X119507558Y-102461375D01*
X118355177Y-102461375D02*
X117726605Y-102461375D01*
X118040891Y-103761375D02*
X118040891Y-102461375D01*
X117359939Y-103080422D02*
X116993272Y-103080422D01*
X116836129Y-103761375D02*
X117359939Y-103761375D01*
X117359939Y-102461375D01*
X116836129Y-102461375D01*
X116364700Y-103761375D02*
X116364700Y-102461375D01*
X115998034Y-103389946D01*
X115631367Y-102461375D01*
X115631367Y-103761375D01*
X115107558Y-103761375D02*
X115107558Y-102461375D01*
X114688510Y-102461375D01*
X114583748Y-102523280D01*
X114531367Y-102585184D01*
X114478986Y-102708994D01*
X114478986Y-102894708D01*
X114531367Y-103018518D01*
X114583748Y-103080422D01*
X114688510Y-103142327D01*
X115107558Y-103142327D01*
X114164700Y-102461375D02*
X113536129Y-102461375D01*
X113850415Y-103761375D02*
X113850415Y-102461375D01*
X113221843Y-103389946D02*
X112698034Y-103389946D01*
X113326605Y-103761375D02*
X112959939Y-102461375D01*
X112593272Y-103761375D01*
X112383748Y-102461375D02*
X111755177Y-102461375D01*
X112069462Y-103761375D02*
X112069462Y-102461375D01*
X111388510Y-103761375D02*
X111388510Y-102461375D01*
X110655177Y-102461375D02*
X110445653Y-102461375D01*
X110340891Y-102523280D01*
X110236129Y-102647089D01*
X110183748Y-102894708D01*
X110183748Y-103328041D01*
X110236129Y-103575660D01*
X110340891Y-103699470D01*
X110445653Y-103761375D01*
X110655177Y-103761375D01*
X110759939Y-103699470D01*
X110864700Y-103575660D01*
X110917081Y-103328041D01*
X110917081Y-102894708D01*
X110864700Y-102647089D01*
X110759939Y-102523280D01*
X110655177Y-102461375D01*
X109712320Y-103761375D02*
X109712320Y-102461375D01*
X109083748Y-103761375D01*
X109083748Y-102461375D01*
X107721843Y-103637565D02*
X107669462Y-103699470D01*
X107721843Y-103761375D01*
X107774224Y-103699470D01*
X107721843Y-103637565D01*
X107721843Y-103761375D01*
X107721843Y-102956613D02*
X107669462Y-103018518D01*
X107721843Y-103080422D01*
X107774224Y-103018518D01*
X107721843Y-102956613D01*
X107721843Y-103080422D01*
X167069462Y-110211375D02*
X167069462Y-108911375D01*
X166440891Y-110211375D02*
X166912320Y-109468518D01*
X166440891Y-108911375D02*
X167069462Y-109654232D01*
X165969462Y-109530422D02*
X165602796Y-109530422D01*
X165445653Y-110211375D02*
X165969462Y-110211375D01*
X165969462Y-108911375D01*
X165445653Y-108911375D01*
X164974224Y-109530422D02*
X164607558Y-109530422D01*
X164450415Y-110211375D02*
X164974224Y-110211375D01*
X164974224Y-108911375D01*
X164450415Y-108911375D01*
X163978986Y-110211375D02*
X163978986Y-108911375D01*
X163559939Y-108911375D01*
X163455177Y-108973280D01*
X163402796Y-109035184D01*
X163350415Y-109158994D01*
X163350415Y-109344708D01*
X163402796Y-109468518D01*
X163455177Y-109530422D01*
X163559939Y-109592327D01*
X163978986Y-109592327D01*
X162040891Y-108911375D02*
X162040891Y-109963756D01*
X161988510Y-110087565D01*
X161936129Y-110149470D01*
X161831367Y-110211375D01*
X161621843Y-110211375D01*
X161517081Y-110149470D01*
X161464700Y-110087565D01*
X161412320Y-109963756D01*
X161412320Y-108911375D01*
X160888510Y-110211375D02*
X160888510Y-108911375D01*
X160259939Y-110211375D01*
X160259939Y-108911375D01*
X159369462Y-109530422D02*
X159212320Y-109592327D01*
X159159939Y-109654232D01*
X159107558Y-109778041D01*
X159107558Y-109963756D01*
X159159939Y-110087565D01*
X159212320Y-110149470D01*
X159317081Y-110211375D01*
X159736129Y-110211375D01*
X159736129Y-108911375D01*
X159369462Y-108911375D01*
X159264700Y-108973280D01*
X159212320Y-109035184D01*
X159159939Y-109158994D01*
X159159939Y-109282803D01*
X159212320Y-109406613D01*
X159264700Y-109468518D01*
X159369462Y-109530422D01*
X159736129Y-109530422D01*
X158636129Y-109530422D02*
X158269462Y-109530422D01*
X158112320Y-110211375D02*
X158636129Y-110211375D01*
X158636129Y-108911375D01*
X158112320Y-108911375D01*
X157640891Y-110211375D02*
X157640891Y-108911375D01*
X157012320Y-110211375D01*
X157012320Y-108911375D01*
X156645653Y-108911375D02*
X156017081Y-108911375D01*
X156331367Y-110211375D02*
X156331367Y-108911375D01*
X154812320Y-108911375D02*
X154812320Y-109963756D01*
X154759939Y-110087565D01*
X154707558Y-110149470D01*
X154602796Y-110211375D01*
X154393272Y-110211375D01*
X154288510Y-110149470D01*
X154236129Y-110087565D01*
X154183748Y-109963756D01*
X154183748Y-108911375D01*
X153659939Y-110211375D02*
X153659939Y-108911375D01*
X153031367Y-110211375D01*
X153031367Y-108911375D01*
X152664700Y-108911375D02*
X152036129Y-108911375D01*
X152350415Y-110211375D02*
X152350415Y-108911375D01*
X151669462Y-110211375D02*
X151669462Y-108911375D01*
X150621843Y-110211375D02*
X151145653Y-110211375D01*
X151145653Y-108911375D01*
X149469462Y-109839946D02*
X148945653Y-109839946D01*
X149574224Y-110211375D02*
X149207558Y-108911375D01*
X148840891Y-110211375D01*
X148107558Y-109530422D02*
X148474224Y-109530422D01*
X148474224Y-110211375D02*
X148474224Y-108911375D01*
X147950415Y-108911375D01*
X147688510Y-108911375D02*
X147059939Y-108911375D01*
X147374224Y-110211375D02*
X147374224Y-108911375D01*
X146693272Y-109530422D02*
X146326605Y-109530422D01*
X146169462Y-110211375D02*
X146693272Y-110211375D01*
X146693272Y-108911375D01*
X146169462Y-108911375D01*
X145069462Y-110211375D02*
X145436129Y-109592327D01*
X145698034Y-110211375D02*
X145698034Y-108911375D01*
X145278986Y-108911375D01*
X145174224Y-108973280D01*
X145121843Y-109035184D01*
X145069462Y-109158994D01*
X145069462Y-109344708D01*
X145121843Y-109468518D01*
X145174224Y-109530422D01*
X145278986Y-109592327D01*
X145698034Y-109592327D01*
X143131367Y-110087565D02*
X143183748Y-110149470D01*
X143340891Y-110211375D01*
X143445653Y-110211375D01*
X143602796Y-110149470D01*
X143707558Y-110025660D01*
X143759939Y-109901851D01*
X143812320Y-109654232D01*
X143812320Y-109468518D01*
X143759939Y-109220899D01*
X143707558Y-109097089D01*
X143602796Y-108973280D01*
X143445653Y-108911375D01*
X143340891Y-108911375D01*
X143183748Y-108973280D01*
X143131367Y-109035184D01*
X142450415Y-108911375D02*
X142240891Y-108911375D01*
X142136129Y-108973280D01*
X142031367Y-109097089D01*
X141978986Y-109344708D01*
X141978986Y-109778041D01*
X142031367Y-110025660D01*
X142136129Y-110149470D01*
X142240891Y-110211375D01*
X142450415Y-110211375D01*
X142555177Y-110149470D01*
X142659939Y-110025660D01*
X142712320Y-109778041D01*
X142712320Y-109344708D01*
X142659939Y-109097089D01*
X142555177Y-108973280D01*
X142450415Y-108911375D01*
X141507558Y-110211375D02*
X141507558Y-108911375D01*
X141140891Y-109839946D01*
X140774224Y-108911375D01*
X140774224Y-110211375D01*
X140250415Y-110211375D02*
X140250415Y-108911375D01*
X139831367Y-108911375D01*
X139726605Y-108973280D01*
X139674224Y-109035184D01*
X139621843Y-109158994D01*
X139621843Y-109344708D01*
X139674224Y-109468518D01*
X139726605Y-109530422D01*
X139831367Y-109592327D01*
X140250415Y-109592327D01*
X138940891Y-108911375D02*
X138731367Y-108911375D01*
X138626605Y-108973280D01*
X138521843Y-109097089D01*
X138469462Y-109344708D01*
X138469462Y-109778041D01*
X138521843Y-110025660D01*
X138626605Y-110149470D01*
X138731367Y-110211375D01*
X138940891Y-110211375D01*
X139045653Y-110149470D01*
X139150415Y-110025660D01*
X139202796Y-109778041D01*
X139202796Y-109344708D01*
X139150415Y-109097089D01*
X139045653Y-108973280D01*
X138940891Y-108911375D01*
X137998034Y-110211375D02*
X137998034Y-108911375D01*
X137369462Y-110211375D01*
X137369462Y-108911375D01*
X136845653Y-109530422D02*
X136478986Y-109530422D01*
X136321843Y-110211375D02*
X136845653Y-110211375D01*
X136845653Y-108911375D01*
X136321843Y-108911375D01*
X135850415Y-110211375D02*
X135850415Y-108911375D01*
X135221843Y-110211375D01*
X135221843Y-108911375D01*
X134855177Y-108911375D02*
X134226605Y-108911375D01*
X134540891Y-110211375D02*
X134540891Y-108911375D01*
X133912319Y-110149470D02*
X133755177Y-110211375D01*
X133493272Y-110211375D01*
X133388510Y-110149470D01*
X133336129Y-110087565D01*
X133283748Y-109963756D01*
X133283748Y-109839946D01*
X133336129Y-109716137D01*
X133388510Y-109654232D01*
X133493272Y-109592327D01*
X133702796Y-109530422D01*
X133807558Y-109468518D01*
X133859939Y-109406613D01*
X133912319Y-109282803D01*
X133912319Y-109158994D01*
X133859939Y-109035184D01*
X133807558Y-108973280D01*
X133702796Y-108911375D01*
X133440891Y-108911375D01*
X133283748Y-108973280D01*
X132026605Y-109839946D02*
X131502796Y-109839946D01*
X132131367Y-110211375D02*
X131764700Y-108911375D01*
X131398034Y-110211375D01*
X130402796Y-110211375D02*
X130769462Y-109592327D01*
X131031367Y-110211375D02*
X131031367Y-108911375D01*
X130612319Y-108911375D01*
X130507558Y-108973280D01*
X130455177Y-109035184D01*
X130402796Y-109158994D01*
X130402796Y-109344708D01*
X130455177Y-109468518D01*
X130507558Y-109530422D01*
X130612319Y-109592327D01*
X131031367Y-109592327D01*
X129931367Y-109530422D02*
X129564700Y-109530422D01*
X129407558Y-110211375D02*
X129931367Y-110211375D01*
X129931367Y-108911375D01*
X129407558Y-108911375D01*
X128098034Y-110211375D02*
X128098034Y-108911375D01*
X127678986Y-108911375D01*
X127574224Y-108973280D01*
X127521843Y-109035184D01*
X127469462Y-109158994D01*
X127469462Y-109344708D01*
X127521843Y-109468518D01*
X127574224Y-109530422D01*
X127678986Y-109592327D01*
X128098034Y-109592327D01*
X126474224Y-110211375D02*
X126998034Y-110211375D01*
X126998034Y-108911375D01*
X126159939Y-109839946D02*
X125636129Y-109839946D01*
X126264700Y-110211375D02*
X125898034Y-108911375D01*
X125531367Y-110211375D01*
X124536129Y-110087565D02*
X124588510Y-110149470D01*
X124745653Y-110211375D01*
X124850415Y-110211375D01*
X125007558Y-110149470D01*
X125112319Y-110025660D01*
X125164700Y-109901851D01*
X125217081Y-109654232D01*
X125217081Y-109468518D01*
X125164700Y-109220899D01*
X125112319Y-109097089D01*
X125007558Y-108973280D01*
X124850415Y-108911375D01*
X124745653Y-108911375D01*
X124588510Y-108973280D01*
X124536129Y-109035184D01*
X124064700Y-109530422D02*
X123698034Y-109530422D01*
X123540891Y-110211375D02*
X124064700Y-110211375D01*
X124064700Y-108911375D01*
X123540891Y-108911375D01*
X123069462Y-110211375D02*
X123069462Y-108911375D01*
X122807558Y-108911375D01*
X122650415Y-108973280D01*
X122545653Y-109097089D01*
X122493272Y-109220899D01*
X122440891Y-109468518D01*
X122440891Y-109654232D01*
X122493272Y-109901851D01*
X122545653Y-110025660D01*
X122650415Y-110149470D01*
X122807558Y-110211375D01*
X123069462Y-110211375D01*
X121183748Y-110149470D02*
X121026605Y-110211375D01*
X120764700Y-110211375D01*
X120659939Y-110149470D01*
X120607558Y-110087565D01*
X120555177Y-109963756D01*
X120555177Y-109839946D01*
X120607558Y-109716137D01*
X120659939Y-109654232D01*
X120764700Y-109592327D01*
X120974224Y-109530422D01*
X121078986Y-109468518D01*
X121131367Y-109406613D01*
X121183748Y-109282803D01*
X121183748Y-109158994D01*
X121131367Y-109035184D01*
X121078986Y-108973280D01*
X120974224Y-108911375D01*
X120712319Y-108911375D01*
X120555177Y-108973280D01*
X119874224Y-108911375D02*
X119664700Y-108911375D01*
X119559939Y-108973280D01*
X119455177Y-109097089D01*
X119402796Y-109344708D01*
X119402796Y-109778041D01*
X119455177Y-110025660D01*
X119559939Y-110149470D01*
X119664700Y-110211375D01*
X119874224Y-110211375D01*
X119978986Y-110149470D01*
X120083748Y-110025660D01*
X120136129Y-109778041D01*
X120136129Y-109344708D01*
X120083748Y-109097089D01*
X119978986Y-108973280D01*
X119874224Y-108911375D01*
X117726605Y-109530422D02*
X117569462Y-109592327D01*
X117517081Y-109654232D01*
X117464700Y-109778041D01*
X117464700Y-109963756D01*
X117517081Y-110087565D01*
X117569462Y-110149470D01*
X117674224Y-110211375D01*
X118093272Y-110211375D01*
X118093272Y-108911375D01*
X117726605Y-108911375D01*
X117621843Y-108973280D01*
X117569462Y-109035184D01*
X117517081Y-109158994D01*
X117517081Y-109282803D01*
X117569462Y-109406613D01*
X117621843Y-109468518D01*
X117726605Y-109530422D01*
X118093272Y-109530422D01*
X116783748Y-108911375D02*
X116574224Y-108911375D01*
X116469462Y-108973280D01*
X116364700Y-109097089D01*
X116312319Y-109344708D01*
X116312319Y-109778041D01*
X116364700Y-110025660D01*
X116469462Y-110149470D01*
X116574224Y-110211375D01*
X116783748Y-110211375D01*
X116888510Y-110149470D01*
X116993272Y-110025660D01*
X117045653Y-109778041D01*
X117045653Y-109344708D01*
X116993272Y-109097089D01*
X116888510Y-108973280D01*
X116783748Y-108911375D01*
X115893272Y-109839946D02*
X115369462Y-109839946D01*
X115998034Y-110211375D02*
X115631367Y-108911375D01*
X115264700Y-110211375D01*
X114269462Y-110211375D02*
X114636129Y-109592327D01*
X114898034Y-110211375D02*
X114898034Y-108911375D01*
X114478986Y-108911375D01*
X114374224Y-108973280D01*
X114321843Y-109035184D01*
X114269462Y-109158994D01*
X114269462Y-109344708D01*
X114321843Y-109468518D01*
X114374224Y-109530422D01*
X114478986Y-109592327D01*
X114898034Y-109592327D01*
X113798034Y-110211375D02*
X113798034Y-108911375D01*
X113536129Y-108911375D01*
X113378986Y-108973280D01*
X113274224Y-109097089D01*
X113221843Y-109220899D01*
X113169462Y-109468518D01*
X113169462Y-109654232D01*
X113221843Y-109901851D01*
X113274224Y-110025660D01*
X113378986Y-110149470D01*
X113536129Y-110211375D01*
X113798034Y-110211375D01*
X111964700Y-108911375D02*
X111702796Y-110211375D01*
X111493272Y-109282803D01*
X111283748Y-110211375D01*
X111021843Y-108911375D01*
X110602796Y-110211375D02*
X110602796Y-108911375D01*
X109555177Y-110211375D02*
X110078986Y-110211375D01*
X110078986Y-108911375D01*
X108664700Y-110211375D02*
X109188510Y-110211375D01*
X109188510Y-108911375D01*
X106936129Y-110211375D02*
X107459939Y-110211375D01*
X107459939Y-108911375D01*
X106621843Y-109839946D02*
X106098034Y-109839946D01*
X106726605Y-110211375D02*
X106359939Y-108911375D01*
X105993272Y-110211375D01*
X105417081Y-109592327D02*
X105417081Y-110211375D01*
X105783748Y-108911375D02*
X105417081Y-109592327D01*
X105050415Y-108911375D01*
X103478986Y-109530422D02*
X103845653Y-109530422D01*
X103845653Y-110211375D02*
X103845653Y-108911375D01*
X103321843Y-108911375D01*
X102378986Y-110211375D02*
X102902796Y-110211375D01*
X102902796Y-108911375D01*
X102064700Y-109839946D02*
X101540891Y-109839946D01*
X102169462Y-110211375D02*
X101802796Y-108911375D01*
X101436129Y-110211375D01*
X101226605Y-108911375D02*
X100598034Y-108911375D01*
X100912319Y-110211375D02*
X100912319Y-108911375D01*
X99026605Y-109530422D02*
X99393272Y-109530422D01*
X99393272Y-110211375D02*
X99393272Y-108911375D01*
X98869462Y-108911375D01*
X98240891Y-108911375D02*
X98031367Y-108911375D01*
X97926605Y-108973280D01*
X97821843Y-109097089D01*
X97769462Y-109344708D01*
X97769462Y-109778041D01*
X97821843Y-110025660D01*
X97926605Y-110149470D01*
X98031367Y-110211375D01*
X98240891Y-110211375D01*
X98345653Y-110149470D01*
X98450415Y-110025660D01*
X98502796Y-109778041D01*
X98502796Y-109344708D01*
X98450415Y-109097089D01*
X98345653Y-108973280D01*
X98240891Y-108911375D01*
X96669462Y-110211375D02*
X97036129Y-109592327D01*
X97298034Y-110211375D02*
X97298034Y-108911375D01*
X96878986Y-108911375D01*
X96774224Y-108973280D01*
X96721843Y-109035184D01*
X96669462Y-109158994D01*
X96669462Y-109344708D01*
X96721843Y-109468518D01*
X96774224Y-109530422D01*
X96878986Y-109592327D01*
X97298034Y-109592327D01*
X95150415Y-109592327D02*
X95150415Y-110211375D01*
X95517081Y-108911375D02*
X95150415Y-109592327D01*
X94783748Y-108911375D01*
X94207558Y-108911375D02*
X93998034Y-108911375D01*
X93893272Y-108973280D01*
X93788510Y-109097089D01*
X93736129Y-109344708D01*
X93736129Y-109778041D01*
X93788510Y-110025660D01*
X93893272Y-110149470D01*
X93998034Y-110211375D01*
X94207558Y-110211375D01*
X94312319Y-110149470D01*
X94417081Y-110025660D01*
X94469462Y-109778041D01*
X94469462Y-109344708D01*
X94417081Y-109097089D01*
X94312319Y-108973280D01*
X94207558Y-108911375D01*
X93264700Y-108911375D02*
X93264700Y-109963756D01*
X93212319Y-110087565D01*
X93159939Y-110149470D01*
X93055177Y-110211375D01*
X92845653Y-110211375D01*
X92740891Y-110149470D01*
X92688510Y-110087565D01*
X92636129Y-109963756D01*
X92636129Y-108911375D01*
X91274224Y-110211375D02*
X91274224Y-108911375D01*
X91012319Y-108911375D01*
X90855177Y-108973280D01*
X90750415Y-109097089D01*
X90698034Y-109220899D01*
X90645653Y-109468518D01*
X90645653Y-109654232D01*
X90698034Y-109901851D01*
X90750415Y-110025660D01*
X90855177Y-110149470D01*
X91012319Y-110211375D01*
X91274224Y-110211375D01*
X90174224Y-108911375D02*
X90174224Y-109963756D01*
X90121843Y-110087565D01*
X90069462Y-110149470D01*
X89964700Y-110211375D01*
X89755177Y-110211375D01*
X89650415Y-110149470D01*
X89598034Y-110087565D01*
X89545653Y-109963756D01*
X89545653Y-108911375D01*
X88393272Y-110211375D02*
X88759939Y-109592327D01*
X89021843Y-110211375D02*
X89021843Y-108911375D01*
X88602796Y-108911375D01*
X88498034Y-108973280D01*
X88445653Y-109035184D01*
X88393272Y-109158994D01*
X88393272Y-109344708D01*
X88445653Y-109468518D01*
X88498034Y-109530422D01*
X88602796Y-109592327D01*
X89021843Y-109592327D01*
X87921843Y-110211375D02*
X87921843Y-108911375D01*
X87398034Y-110211375D02*
X87398034Y-108911375D01*
X86769462Y-110211375D01*
X86769462Y-108911375D01*
X85669462Y-108973280D02*
X85774224Y-108911375D01*
X85931367Y-108911375D01*
X86088510Y-108973280D01*
X86193272Y-109097089D01*
X86245653Y-109220899D01*
X86298034Y-109468518D01*
X86298034Y-109654232D01*
X86245653Y-109901851D01*
X86193272Y-110025660D01*
X86088510Y-110149470D01*
X85931367Y-110211375D01*
X85826605Y-110211375D01*
X85669462Y-110149470D01*
X85617081Y-110087565D01*
X85617081Y-109654232D01*
X85826605Y-109654232D01*
X84359939Y-110149470D02*
X84202796Y-110211375D01*
X83940891Y-110211375D01*
X83836129Y-110149470D01*
X83783748Y-110087565D01*
X83731367Y-109963756D01*
X83731367Y-109839946D01*
X83783748Y-109716137D01*
X83836129Y-109654232D01*
X83940891Y-109592327D01*
X84150415Y-109530422D01*
X84255177Y-109468518D01*
X84307558Y-109406613D01*
X84359939Y-109282803D01*
X84359939Y-109158994D01*
X84307558Y-109035184D01*
X84255177Y-108973280D01*
X84150415Y-108911375D01*
X83888510Y-108911375D01*
X83731367Y-108973280D01*
X83050415Y-108911375D02*
X82840891Y-108911375D01*
X82736129Y-108973280D01*
X82631367Y-109097089D01*
X82578986Y-109344708D01*
X82578986Y-109778041D01*
X82631367Y-110025660D01*
X82736129Y-110149470D01*
X82840891Y-110211375D01*
X83050415Y-110211375D01*
X83155177Y-110149470D01*
X83259939Y-110025660D01*
X83312319Y-109778041D01*
X83312319Y-109344708D01*
X83259939Y-109097089D01*
X83155177Y-108973280D01*
X83050415Y-108911375D01*
X81583748Y-110211375D02*
X82107558Y-110211375D01*
X82107558Y-108911375D01*
X81217081Y-110211375D02*
X81217081Y-108911375D01*
X80955177Y-108911375D01*
X80798034Y-108973280D01*
X80693272Y-109097089D01*
X80640891Y-109220899D01*
X80588510Y-109468518D01*
X80588510Y-109654232D01*
X80640891Y-109901851D01*
X80693272Y-110025660D01*
X80798034Y-110149470D01*
X80955177Y-110211375D01*
X81217081Y-110211375D01*
X80117081Y-109530422D02*
X79750415Y-109530422D01*
X79593272Y-110211375D02*
X80117081Y-110211375D01*
X80117081Y-108911375D01*
X79593272Y-108911375D01*
X78493272Y-110211375D02*
X78859939Y-109592327D01*
X79121843Y-110211375D02*
X79121843Y-108911375D01*
X78702796Y-108911375D01*
X78598034Y-108973280D01*
X78545653Y-109035184D01*
X78493272Y-109158994D01*
X78493272Y-109344708D01*
X78545653Y-109468518D01*
X78598034Y-109530422D01*
X78702796Y-109592327D01*
X79121843Y-109592327D01*
X78021843Y-110211375D02*
X78021843Y-108911375D01*
X77498034Y-110211375D02*
X77498034Y-108911375D01*
X76869462Y-110211375D01*
X76869462Y-108911375D01*
X75769462Y-108973280D02*
X75874224Y-108911375D01*
X76031367Y-108911375D01*
X76188510Y-108973280D01*
X76293272Y-109097089D01*
X76345653Y-109220899D01*
X76398034Y-109468518D01*
X76398034Y-109654232D01*
X76345653Y-109901851D01*
X76293272Y-110025660D01*
X76188510Y-110149470D01*
X76031367Y-110211375D01*
X75926605Y-110211375D01*
X75769462Y-110149470D01*
X75717081Y-110087565D01*
X75717081Y-109654232D01*
X75926605Y-109654232D01*
X162905177Y-114511375D02*
X162905177Y-113211375D01*
X162643272Y-113211375D01*
X162486129Y-113273280D01*
X162381367Y-113397089D01*
X162328986Y-113520899D01*
X162276605Y-113768518D01*
X162276605Y-113954232D01*
X162328986Y-114201851D01*
X162381367Y-114325660D01*
X162486129Y-114449470D01*
X162643272Y-114511375D01*
X162905177Y-114511375D01*
X161333748Y-113644708D02*
X161333748Y-114511375D01*
X161805177Y-113644708D02*
X161805177Y-114325660D01*
X161752796Y-114449470D01*
X161648034Y-114511375D01*
X161490891Y-114511375D01*
X161386129Y-114449470D01*
X161333748Y-114387565D01*
X160809939Y-114511375D02*
X160809939Y-113644708D01*
X160809939Y-113892327D02*
X160757558Y-113768518D01*
X160705177Y-113706613D01*
X160600415Y-113644708D01*
X160495653Y-113644708D01*
X160128986Y-114511375D02*
X160128986Y-113644708D01*
X160128986Y-113211375D02*
X160181367Y-113273280D01*
X160128986Y-113335184D01*
X160076605Y-113273280D01*
X160128986Y-113211375D01*
X160128986Y-113335184D01*
X159605177Y-113644708D02*
X159605177Y-114511375D01*
X159605177Y-113768518D02*
X159552796Y-113706613D01*
X159448034Y-113644708D01*
X159290891Y-113644708D01*
X159186129Y-113706613D01*
X159133748Y-113830422D01*
X159133748Y-114511375D01*
X158138510Y-113644708D02*
X158138510Y-114697089D01*
X158190891Y-114820899D01*
X158243272Y-114882803D01*
X158348034Y-114944708D01*
X158505177Y-114944708D01*
X158609939Y-114882803D01*
X158138510Y-114449470D02*
X158243272Y-114511375D01*
X158452796Y-114511375D01*
X158557558Y-114449470D01*
X158609939Y-114387565D01*
X158662320Y-114263756D01*
X158662320Y-113892327D01*
X158609939Y-113768518D01*
X158557558Y-113706613D01*
X158452796Y-113644708D01*
X158243272Y-113644708D01*
X158138510Y-113706613D01*
X156828986Y-114449470D02*
X156724224Y-114511375D01*
X156514700Y-114511375D01*
X156409939Y-114449470D01*
X156357558Y-114325660D01*
X156357558Y-114263756D01*
X156409939Y-114139946D01*
X156514700Y-114078041D01*
X156671843Y-114078041D01*
X156776605Y-114016137D01*
X156828986Y-113892327D01*
X156828986Y-113830422D01*
X156776605Y-113706613D01*
X156671843Y-113644708D01*
X156514700Y-113644708D01*
X156409939Y-113706613D01*
X155728986Y-114511375D02*
X155833748Y-114449470D01*
X155886129Y-114387565D01*
X155938510Y-114263756D01*
X155938510Y-113892327D01*
X155886129Y-113768518D01*
X155833748Y-113706613D01*
X155728986Y-113644708D01*
X155571843Y-113644708D01*
X155467081Y-113706613D01*
X155414700Y-113768518D01*
X155362320Y-113892327D01*
X155362320Y-114263756D01*
X155414700Y-114387565D01*
X155467081Y-114449470D01*
X155571843Y-114511375D01*
X155728986Y-114511375D01*
X154733748Y-114511375D02*
X154838510Y-114449470D01*
X154890891Y-114325660D01*
X154890891Y-113211375D01*
X153843272Y-114511375D02*
X153843272Y-113211375D01*
X153843272Y-114449470D02*
X153948034Y-114511375D01*
X154157558Y-114511375D01*
X154262320Y-114449470D01*
X154314700Y-114387565D01*
X154367081Y-114263756D01*
X154367081Y-113892327D01*
X154314700Y-113768518D01*
X154262320Y-113706613D01*
X154157558Y-113644708D01*
X153948034Y-113644708D01*
X153843272Y-113706613D01*
X152900415Y-114449470D02*
X153005177Y-114511375D01*
X153214700Y-114511375D01*
X153319462Y-114449470D01*
X153371843Y-114325660D01*
X153371843Y-113830422D01*
X153319462Y-113706613D01*
X153214700Y-113644708D01*
X153005177Y-113644708D01*
X152900415Y-113706613D01*
X152848034Y-113830422D01*
X152848034Y-113954232D01*
X153371843Y-114078041D01*
X152376605Y-114511375D02*
X152376605Y-113644708D01*
X152376605Y-113892327D02*
X152324224Y-113768518D01*
X152271843Y-113706613D01*
X152167081Y-113644708D01*
X152062320Y-113644708D01*
X151695653Y-114511375D02*
X151695653Y-113644708D01*
X151695653Y-113211375D02*
X151748034Y-113273280D01*
X151695653Y-113335184D01*
X151643272Y-113273280D01*
X151695653Y-113211375D01*
X151695653Y-113335184D01*
X151171843Y-113644708D02*
X151171843Y-114511375D01*
X151171843Y-113768518D02*
X151119462Y-113706613D01*
X151014700Y-113644708D01*
X150857558Y-113644708D01*
X150752796Y-113706613D01*
X150700415Y-113830422D01*
X150700415Y-114511375D01*
X149705177Y-113644708D02*
X149705177Y-114697089D01*
X149757558Y-114820899D01*
X149809939Y-114882803D01*
X149914700Y-114944708D01*
X150071843Y-114944708D01*
X150176605Y-114882803D01*
X149705177Y-114449470D02*
X149809939Y-114511375D01*
X150019462Y-114511375D01*
X150124224Y-114449470D01*
X150176605Y-114387565D01*
X150228986Y-114263756D01*
X150228986Y-113892327D01*
X150176605Y-113768518D01*
X150124224Y-113706613D01*
X150019462Y-113644708D01*
X149809939Y-113644708D01*
X149705177Y-113706613D01*
X148343272Y-114511375D02*
X148343272Y-113644708D01*
X148343272Y-113211375D02*
X148395653Y-113273280D01*
X148343272Y-113335184D01*
X148290891Y-113273280D01*
X148343272Y-113211375D01*
X148343272Y-113335184D01*
X147976605Y-113644708D02*
X147557558Y-113644708D01*
X147819462Y-114511375D02*
X147819462Y-113397089D01*
X147767081Y-113273280D01*
X147662320Y-113211375D01*
X147557558Y-113211375D01*
X145881367Y-114511375D02*
X145881367Y-113830422D01*
X145933748Y-113706613D01*
X146038510Y-113644708D01*
X146248034Y-113644708D01*
X146352796Y-113706613D01*
X145881367Y-114449470D02*
X145986129Y-114511375D01*
X146248034Y-114511375D01*
X146352796Y-114449470D01*
X146405177Y-114325660D01*
X146405177Y-114201851D01*
X146352796Y-114078041D01*
X146248034Y-114016137D01*
X145986129Y-114016137D01*
X145881367Y-113954232D01*
X144519462Y-114511375D02*
X144519462Y-113211375D01*
X144519462Y-113706613D02*
X144414700Y-113644708D01*
X144205177Y-113644708D01*
X144100415Y-113706613D01*
X144048034Y-113768518D01*
X143995653Y-113892327D01*
X143995653Y-114263756D01*
X144048034Y-114387565D01*
X144100415Y-114449470D01*
X144205177Y-114511375D01*
X144414700Y-114511375D01*
X144519462Y-114449470D01*
X143052796Y-113644708D02*
X143052796Y-114511375D01*
X143524224Y-113644708D02*
X143524224Y-114325660D01*
X143471843Y-114449470D01*
X143367081Y-114511375D01*
X143209939Y-114511375D01*
X143105177Y-114449470D01*
X143052796Y-114387565D01*
X142528986Y-114511375D02*
X142528986Y-113211375D01*
X142528986Y-113706613D02*
X142424224Y-113644708D01*
X142214700Y-113644708D01*
X142109939Y-113706613D01*
X142057558Y-113768518D01*
X142005177Y-113892327D01*
X142005177Y-114263756D01*
X142057558Y-114387565D01*
X142109939Y-114449470D01*
X142214700Y-114511375D01*
X142424224Y-114511375D01*
X142528986Y-114449470D01*
X141533748Y-114511375D02*
X141533748Y-113211375D01*
X141533748Y-113706613D02*
X141428986Y-113644708D01*
X141219462Y-113644708D01*
X141114700Y-113706613D01*
X141062320Y-113768518D01*
X141009939Y-113892327D01*
X141009939Y-114263756D01*
X141062320Y-114387565D01*
X141114700Y-114449470D01*
X141219462Y-114511375D01*
X141428986Y-114511375D01*
X141533748Y-114449470D01*
X140381367Y-114511375D02*
X140486129Y-114449470D01*
X140538510Y-114325660D01*
X140538510Y-113211375D01*
X139543272Y-114449470D02*
X139648034Y-114511375D01*
X139857558Y-114511375D01*
X139962320Y-114449470D01*
X140014700Y-114325660D01*
X140014700Y-113830422D01*
X139962320Y-113706613D01*
X139857558Y-113644708D01*
X139648034Y-113644708D01*
X139543272Y-113706613D01*
X139490891Y-113830422D01*
X139490891Y-113954232D01*
X140014700Y-114078041D01*
X137709939Y-114511375D02*
X137709939Y-113211375D01*
X137709939Y-114449470D02*
X137814700Y-114511375D01*
X138024224Y-114511375D01*
X138128986Y-114449470D01*
X138181367Y-114387565D01*
X138233748Y-114263756D01*
X138233748Y-113892327D01*
X138181367Y-113768518D01*
X138128986Y-113706613D01*
X138024224Y-113644708D01*
X137814700Y-113644708D01*
X137709939Y-113706613D01*
X136767081Y-114449470D02*
X136871843Y-114511375D01*
X137081367Y-114511375D01*
X137186129Y-114449470D01*
X137238510Y-114325660D01*
X137238510Y-113830422D01*
X137186129Y-113706613D01*
X137081367Y-113644708D01*
X136871843Y-113644708D01*
X136767081Y-113706613D01*
X136714700Y-113830422D01*
X136714700Y-113954232D01*
X137238510Y-114078041D01*
X136348034Y-113644708D02*
X136086129Y-114511375D01*
X135824224Y-113644708D01*
X134986129Y-114449470D02*
X135090891Y-114511375D01*
X135300415Y-114511375D01*
X135405177Y-114449470D01*
X135457558Y-114325660D01*
X135457558Y-113830422D01*
X135405177Y-113706613D01*
X135300415Y-113644708D01*
X135090891Y-113644708D01*
X134986129Y-113706613D01*
X134933748Y-113830422D01*
X134933748Y-113954232D01*
X135457558Y-114078041D01*
X134305177Y-114511375D02*
X134409939Y-114449470D01*
X134462320Y-114325660D01*
X134462320Y-113211375D01*
X133728986Y-114511375D02*
X133833748Y-114449470D01*
X133886129Y-114387565D01*
X133938510Y-114263756D01*
X133938510Y-113892327D01*
X133886129Y-113768518D01*
X133833748Y-113706613D01*
X133728986Y-113644708D01*
X133571843Y-113644708D01*
X133467081Y-113706613D01*
X133414700Y-113768518D01*
X133362319Y-113892327D01*
X133362319Y-114263756D01*
X133414700Y-114387565D01*
X133467081Y-114449470D01*
X133571843Y-114511375D01*
X133728986Y-114511375D01*
X132890891Y-113644708D02*
X132890891Y-114944708D01*
X132890891Y-113706613D02*
X132786129Y-113644708D01*
X132576605Y-113644708D01*
X132471843Y-113706613D01*
X132419462Y-113768518D01*
X132367081Y-113892327D01*
X132367081Y-114263756D01*
X132419462Y-114387565D01*
X132471843Y-114449470D01*
X132576605Y-114511375D01*
X132786129Y-114511375D01*
X132890891Y-114449470D01*
X131948034Y-114449470D02*
X131843272Y-114511375D01*
X131633748Y-114511375D01*
X131528986Y-114449470D01*
X131476605Y-114325660D01*
X131476605Y-114263756D01*
X131528986Y-114139946D01*
X131633748Y-114078041D01*
X131790891Y-114078041D01*
X131895653Y-114016137D01*
X131948034Y-113892327D01*
X131948034Y-113830422D01*
X131895653Y-113706613D01*
X131790891Y-113644708D01*
X131633748Y-113644708D01*
X131528986Y-113706613D01*
X130167081Y-114511375D02*
X130167081Y-113211375D01*
X130167081Y-113706613D02*
X130062319Y-113644708D01*
X129852796Y-113644708D01*
X129748034Y-113706613D01*
X129695653Y-113768518D01*
X129643272Y-113892327D01*
X129643272Y-114263756D01*
X129695653Y-114387565D01*
X129748034Y-114449470D01*
X129852796Y-114511375D01*
X130062319Y-114511375D01*
X130167081Y-114449470D01*
X128752796Y-114449470D02*
X128857558Y-114511375D01*
X129067081Y-114511375D01*
X129171843Y-114449470D01*
X129224224Y-114325660D01*
X129224224Y-113830422D01*
X129171843Y-113706613D01*
X129067081Y-113644708D01*
X128857558Y-113644708D01*
X128752796Y-113706613D01*
X128700415Y-113830422D01*
X128700415Y-113954232D01*
X129224224Y-114078041D01*
X128386129Y-113644708D02*
X127967081Y-113644708D01*
X128228986Y-113211375D02*
X128228986Y-114325660D01*
X128176605Y-114449470D01*
X128071843Y-114511375D01*
X127967081Y-114511375D01*
X127705177Y-113644708D02*
X127495653Y-114511375D01*
X127286129Y-113892327D01*
X127076605Y-114511375D01*
X126867081Y-113644708D01*
X126028986Y-114449470D02*
X126133748Y-114511375D01*
X126343272Y-114511375D01*
X126448034Y-114449470D01*
X126500415Y-114325660D01*
X126500415Y-113830422D01*
X126448034Y-113706613D01*
X126343272Y-113644708D01*
X126133748Y-113644708D01*
X126028986Y-113706613D01*
X125976605Y-113830422D01*
X125976605Y-113954232D01*
X126500415Y-114078041D01*
X125086129Y-114449470D02*
X125190891Y-114511375D01*
X125400415Y-114511375D01*
X125505177Y-114449470D01*
X125557558Y-114325660D01*
X125557558Y-113830422D01*
X125505177Y-113706613D01*
X125400415Y-113644708D01*
X125190891Y-113644708D01*
X125086129Y-113706613D01*
X125033748Y-113830422D01*
X125033748Y-113954232D01*
X125557558Y-114078041D01*
X124562319Y-113644708D02*
X124562319Y-114511375D01*
X124562319Y-113768518D02*
X124509939Y-113706613D01*
X124405177Y-113644708D01*
X124248034Y-113644708D01*
X124143272Y-113706613D01*
X124090891Y-113830422D01*
X124090891Y-114511375D01*
X122728986Y-114511375D02*
X122728986Y-113211375D01*
X122100415Y-114511375D02*
X122571843Y-113768518D01*
X122100415Y-113211375D02*
X122728986Y-113954232D01*
X121157558Y-114511375D02*
X121157558Y-113830422D01*
X121209939Y-113706613D01*
X121314700Y-113644708D01*
X121524224Y-113644708D01*
X121628986Y-113706613D01*
X121157558Y-114449470D02*
X121262319Y-114511375D01*
X121524224Y-114511375D01*
X121628986Y-114449470D01*
X121681367Y-114325660D01*
X121681367Y-114201851D01*
X121628986Y-114078041D01*
X121524224Y-114016137D01*
X121262319Y-114016137D01*
X121157558Y-113954232D01*
X120633748Y-113644708D02*
X120633748Y-114944708D01*
X120633748Y-113706613D02*
X120528986Y-113644708D01*
X120319462Y-113644708D01*
X120214700Y-113706613D01*
X120162319Y-113768518D01*
X120109939Y-113892327D01*
X120109939Y-114263756D01*
X120162319Y-114387565D01*
X120214700Y-114449470D01*
X120319462Y-114511375D01*
X120528986Y-114511375D01*
X120633748Y-114449470D01*
X119795653Y-113644708D02*
X119376605Y-113644708D01*
X119638510Y-113211375D02*
X119638510Y-114325660D01*
X119586129Y-114449470D01*
X119481367Y-114511375D01*
X119376605Y-114511375D01*
X118852796Y-114511375D02*
X118957558Y-114449470D01*
X119009939Y-114387565D01*
X119062319Y-114263756D01*
X119062319Y-113892327D01*
X119009939Y-113768518D01*
X118957558Y-113706613D01*
X118852796Y-113644708D01*
X118695653Y-113644708D01*
X118590891Y-113706613D01*
X118538510Y-113768518D01*
X118486129Y-113892327D01*
X118486129Y-114263756D01*
X118538510Y-114387565D01*
X118590891Y-114449470D01*
X118695653Y-114511375D01*
X118852796Y-114511375D01*
X118014700Y-113644708D02*
X118014700Y-114511375D01*
X118014700Y-113768518D02*
X117962319Y-113706613D01*
X117857558Y-113644708D01*
X117700415Y-113644708D01*
X117595653Y-113706613D01*
X117543272Y-113830422D01*
X117543272Y-114511375D01*
X116024224Y-114511375D02*
X116128986Y-114449470D01*
X116181367Y-114325660D01*
X116181367Y-113211375D01*
X115133748Y-114511375D02*
X115133748Y-113830422D01*
X115186129Y-113706613D01*
X115290891Y-113644708D01*
X115500415Y-113644708D01*
X115605177Y-113706613D01*
X115133748Y-114449470D02*
X115238510Y-114511375D01*
X115500415Y-114511375D01*
X115605177Y-114449470D01*
X115657558Y-114325660D01*
X115657558Y-114201851D01*
X115605177Y-114078041D01*
X115500415Y-114016137D01*
X115238510Y-114016137D01*
X115133748Y-113954232D01*
X114714700Y-113644708D02*
X114452796Y-114511375D01*
X114190891Y-113644708D02*
X114452796Y-114511375D01*
X114557558Y-114820899D01*
X114609939Y-114882803D01*
X114714700Y-114944708D01*
X113352796Y-114449470D02*
X113457558Y-114511375D01*
X113667081Y-114511375D01*
X113771843Y-114449470D01*
X113824224Y-114325660D01*
X113824224Y-113830422D01*
X113771843Y-113706613D01*
X113667081Y-113644708D01*
X113457558Y-113644708D01*
X113352796Y-113706613D01*
X113300415Y-113830422D01*
X113300415Y-113954232D01*
X113824224Y-114078041D01*
X112828986Y-114511375D02*
X112828986Y-113644708D01*
X112828986Y-113892327D02*
X112776605Y-113768518D01*
X112724224Y-113706613D01*
X112619462Y-113644708D01*
X112514700Y-113644708D01*
X112200415Y-114449470D02*
X112095653Y-114511375D01*
X111886129Y-114511375D01*
X111781367Y-114449470D01*
X111728986Y-114325660D01*
X111728986Y-114263756D01*
X111781367Y-114139946D01*
X111886129Y-114078041D01*
X112043272Y-114078041D01*
X112148034Y-114016137D01*
X112200415Y-113892327D01*
X112200415Y-113830422D01*
X112148034Y-113706613D01*
X112043272Y-113644708D01*
X111886129Y-113644708D01*
X111781367Y-113706613D01*
X111205177Y-114449470D02*
X111205177Y-114511375D01*
X111257558Y-114635184D01*
X111309939Y-114697089D01*
X109895653Y-114511375D02*
X109895653Y-113644708D01*
X109895653Y-113211375D02*
X109948034Y-113273280D01*
X109895653Y-113335184D01*
X109843272Y-113273280D01*
X109895653Y-113211375D01*
X109895653Y-113335184D01*
X109371843Y-114511375D02*
X109371843Y-113644708D01*
X109371843Y-113768518D02*
X109319462Y-113706613D01*
X109214700Y-113644708D01*
X109057558Y-113644708D01*
X108952796Y-113706613D01*
X108900415Y-113830422D01*
X108900415Y-114511375D01*
X108900415Y-113830422D02*
X108848034Y-113706613D01*
X108743272Y-113644708D01*
X108586129Y-113644708D01*
X108481367Y-113706613D01*
X108428986Y-113830422D01*
X108428986Y-114511375D01*
X107905177Y-114511375D02*
X107905177Y-113644708D01*
X107905177Y-113768518D02*
X107852796Y-113706613D01*
X107748034Y-113644708D01*
X107590891Y-113644708D01*
X107486129Y-113706613D01*
X107433748Y-113830422D01*
X107433748Y-114511375D01*
X107433748Y-113830422D02*
X107381367Y-113706613D01*
X107276605Y-113644708D01*
X107119462Y-113644708D01*
X107014700Y-113706613D01*
X106962319Y-113830422D01*
X106962319Y-114511375D01*
X106019462Y-114449470D02*
X106124224Y-114511375D01*
X106333748Y-114511375D01*
X106438510Y-114449470D01*
X106490891Y-114325660D01*
X106490891Y-113830422D01*
X106438510Y-113706613D01*
X106333748Y-113644708D01*
X106124224Y-113644708D01*
X106019462Y-113706613D01*
X105967081Y-113830422D01*
X105967081Y-113954232D01*
X106490891Y-114078041D01*
X105024224Y-114511375D02*
X105024224Y-113211375D01*
X105024224Y-114449470D02*
X105128986Y-114511375D01*
X105338510Y-114511375D01*
X105443272Y-114449470D01*
X105495653Y-114387565D01*
X105548034Y-114263756D01*
X105548034Y-113892327D01*
X105495653Y-113768518D01*
X105443272Y-113706613D01*
X105338510Y-113644708D01*
X105128986Y-113644708D01*
X105024224Y-113706613D01*
X104500415Y-114511375D02*
X104500415Y-113644708D01*
X104500415Y-113211375D02*
X104552796Y-113273280D01*
X104500415Y-113335184D01*
X104448034Y-113273280D01*
X104500415Y-113211375D01*
X104500415Y-113335184D01*
X103505177Y-114511375D02*
X103505177Y-113830422D01*
X103557558Y-113706613D01*
X103662319Y-113644708D01*
X103871843Y-113644708D01*
X103976605Y-113706613D01*
X103505177Y-114449470D02*
X103609939Y-114511375D01*
X103871843Y-114511375D01*
X103976605Y-114449470D01*
X104028986Y-114325660D01*
X104028986Y-114201851D01*
X103976605Y-114078041D01*
X103871843Y-114016137D01*
X103609939Y-114016137D01*
X103505177Y-113954232D01*
X103138510Y-113644708D02*
X102719462Y-113644708D01*
X102981367Y-113211375D02*
X102981367Y-114325660D01*
X102928986Y-114449470D01*
X102824224Y-114511375D01*
X102719462Y-114511375D01*
X101933748Y-114449470D02*
X102038510Y-114511375D01*
X102248034Y-114511375D01*
X102352796Y-114449470D01*
X102405177Y-114325660D01*
X102405177Y-113830422D01*
X102352796Y-113706613D01*
X102248034Y-113644708D01*
X102038510Y-113644708D01*
X101933748Y-113706613D01*
X101881367Y-113830422D01*
X101881367Y-113954232D01*
X102405177Y-114078041D01*
X101252796Y-114511375D02*
X101357558Y-114449470D01*
X101409939Y-114325660D01*
X101409939Y-113211375D01*
X100938510Y-113644708D02*
X100676605Y-114511375D01*
X100414700Y-113644708D02*
X100676605Y-114511375D01*
X100781367Y-114820899D01*
X100833748Y-114882803D01*
X100938510Y-114944708D01*
X98686129Y-114511375D02*
X98686129Y-113830422D01*
X98738510Y-113706613D01*
X98843272Y-113644708D01*
X99052796Y-113644708D01*
X99157558Y-113706613D01*
X98686129Y-114449470D02*
X98790891Y-114511375D01*
X99052796Y-114511375D01*
X99157558Y-114449470D01*
X99209939Y-114325660D01*
X99209939Y-114201851D01*
X99157558Y-114078041D01*
X99052796Y-114016137D01*
X98790891Y-114016137D01*
X98686129Y-113954232D01*
X98162319Y-113644708D02*
X98162319Y-114511375D01*
X98162319Y-113768518D02*
X98109939Y-113706613D01*
X98005177Y-113644708D01*
X97848034Y-113644708D01*
X97743272Y-113706613D01*
X97690891Y-113830422D01*
X97690891Y-114511375D01*
X96695653Y-114511375D02*
X96695653Y-113211375D01*
X96695653Y-114449470D02*
X96800415Y-114511375D01*
X97009939Y-114511375D01*
X97114700Y-114449470D01*
X97167081Y-114387565D01*
X97219462Y-114263756D01*
X97219462Y-113892327D01*
X97167081Y-113768518D01*
X97114700Y-113706613D01*
X97009939Y-113644708D01*
X96800415Y-113644708D01*
X96695653Y-113706613D01*
X95333748Y-114511375D02*
X95333748Y-113644708D01*
X95333748Y-113768518D02*
X95281367Y-113706613D01*
X95176605Y-113644708D01*
X95019462Y-113644708D01*
X94914700Y-113706613D01*
X94862319Y-113830422D01*
X94862319Y-114511375D01*
X94862319Y-113830422D02*
X94809939Y-113706613D01*
X94705177Y-113644708D01*
X94548034Y-113644708D01*
X94443272Y-113706613D01*
X94390891Y-113830422D01*
X94390891Y-114511375D01*
X93867081Y-114511375D02*
X93867081Y-113644708D01*
X93867081Y-113211375D02*
X93919462Y-113273280D01*
X93867081Y-113335184D01*
X93814700Y-113273280D01*
X93867081Y-113211375D01*
X93867081Y-113335184D01*
X93343272Y-113644708D02*
X93343272Y-114511375D01*
X93343272Y-113768518D02*
X93290891Y-113706613D01*
X93186129Y-113644708D01*
X93028986Y-113644708D01*
X92924224Y-113706613D01*
X92871843Y-113830422D01*
X92871843Y-114511375D01*
X92348034Y-114511375D02*
X92348034Y-113644708D01*
X92348034Y-113211375D02*
X92400415Y-113273280D01*
X92348034Y-113335184D01*
X92295653Y-113273280D01*
X92348034Y-113211375D01*
X92348034Y-113335184D01*
X91824224Y-114511375D02*
X91824224Y-113644708D01*
X91824224Y-113768518D02*
X91771843Y-113706613D01*
X91667081Y-113644708D01*
X91509939Y-113644708D01*
X91405177Y-113706613D01*
X91352796Y-113830422D01*
X91352796Y-114511375D01*
X91352796Y-113830422D02*
X91300415Y-113706613D01*
X91195653Y-113644708D01*
X91038510Y-113644708D01*
X90933748Y-113706613D01*
X90881367Y-113830422D01*
X90881367Y-114511375D01*
X89886129Y-114511375D02*
X89886129Y-113830422D01*
X89938510Y-113706613D01*
X90043272Y-113644708D01*
X90252796Y-113644708D01*
X90357558Y-113706613D01*
X89886129Y-114449470D02*
X89990891Y-114511375D01*
X90252796Y-114511375D01*
X90357558Y-114449470D01*
X90409939Y-114325660D01*
X90409939Y-114201851D01*
X90357558Y-114078041D01*
X90252796Y-114016137D01*
X89990891Y-114016137D01*
X89886129Y-113954232D01*
X89205177Y-114511375D02*
X89309939Y-114449470D01*
X89362319Y-114325660D01*
X89362319Y-113211375D01*
X88628986Y-114511375D02*
X88733748Y-114449470D01*
X88786129Y-114325660D01*
X88786129Y-113211375D01*
X88314700Y-113644708D02*
X88052796Y-114511375D01*
X87790891Y-113644708D02*
X88052796Y-114511375D01*
X88157558Y-114820899D01*
X88209939Y-114882803D01*
X88314700Y-114944708D01*
X86533748Y-113644708D02*
X86533748Y-114944708D01*
X86533748Y-113706613D02*
X86428986Y-113644708D01*
X86219462Y-113644708D01*
X86114700Y-113706613D01*
X86062319Y-113768518D01*
X86009939Y-113892327D01*
X86009939Y-114263756D01*
X86062319Y-114387565D01*
X86114700Y-114449470D01*
X86219462Y-114511375D01*
X86428986Y-114511375D01*
X86533748Y-114449470D01*
X85538510Y-114511375D02*
X85538510Y-113644708D01*
X85538510Y-113211375D02*
X85590891Y-113273280D01*
X85538510Y-113335184D01*
X85486129Y-113273280D01*
X85538510Y-113211375D01*
X85538510Y-113335184D01*
X84595653Y-114449470D02*
X84700415Y-114511375D01*
X84909939Y-114511375D01*
X85014700Y-114449470D01*
X85067081Y-114325660D01*
X85067081Y-113830422D01*
X85014700Y-113706613D01*
X84909939Y-113644708D01*
X84700415Y-113644708D01*
X84595653Y-113706613D01*
X84543272Y-113830422D01*
X84543272Y-113954232D01*
X85067081Y-114078041D01*
X84071843Y-114511375D02*
X84071843Y-113644708D01*
X84071843Y-113892327D02*
X84019462Y-113768518D01*
X83967081Y-113706613D01*
X83862319Y-113644708D01*
X83757558Y-113644708D01*
X82919462Y-114449470D02*
X83024224Y-114511375D01*
X83233748Y-114511375D01*
X83338510Y-114449470D01*
X83390891Y-114387565D01*
X83443272Y-114263756D01*
X83443272Y-113892327D01*
X83390891Y-113768518D01*
X83338510Y-113706613D01*
X83233748Y-113644708D01*
X83024224Y-113644708D01*
X82919462Y-113706613D01*
X82028986Y-114449470D02*
X82133748Y-114511375D01*
X82343272Y-114511375D01*
X82448034Y-114449470D01*
X82500415Y-114325660D01*
X82500415Y-113830422D01*
X82448034Y-113706613D01*
X82343272Y-113644708D01*
X82133748Y-113644708D01*
X82028986Y-113706613D01*
X81976605Y-113830422D01*
X81976605Y-113954232D01*
X82500415Y-114078041D01*
X80509939Y-114511375D02*
X80614700Y-114449470D01*
X80667081Y-114387565D01*
X80719462Y-114263756D01*
X80719462Y-113892327D01*
X80667081Y-113768518D01*
X80614700Y-113706613D01*
X80509939Y-113644708D01*
X80352796Y-113644708D01*
X80248034Y-113706613D01*
X80195653Y-113768518D01*
X80143272Y-113892327D01*
X80143272Y-114263756D01*
X80195653Y-114387565D01*
X80248034Y-114449470D01*
X80352796Y-114511375D01*
X80509939Y-114511375D01*
X79671843Y-113644708D02*
X79671843Y-114511375D01*
X79671843Y-113768518D02*
X79619462Y-113706613D01*
X79514700Y-113644708D01*
X79357558Y-113644708D01*
X79252796Y-113706613D01*
X79200415Y-113830422D01*
X79200415Y-114511375D01*
X78257558Y-114449470D02*
X78362319Y-114511375D01*
X78571843Y-114511375D01*
X78676605Y-114449470D01*
X78728986Y-114325660D01*
X78728986Y-113830422D01*
X78676605Y-113706613D01*
X78571843Y-113644708D01*
X78362319Y-113644708D01*
X78257558Y-113706613D01*
X78205177Y-113830422D01*
X78205177Y-113954232D01*
X78728986Y-114078041D01*
X160836129Y-116661375D02*
X160836129Y-115361375D01*
X160207558Y-116661375D02*
X160678986Y-115918518D01*
X160207558Y-115361375D02*
X160836129Y-116104232D01*
X159264700Y-116661375D02*
X159264700Y-115980422D01*
X159317081Y-115856613D01*
X159421843Y-115794708D01*
X159631367Y-115794708D01*
X159736129Y-115856613D01*
X159264700Y-116599470D02*
X159369462Y-116661375D01*
X159631367Y-116661375D01*
X159736129Y-116599470D01*
X159788510Y-116475660D01*
X159788510Y-116351851D01*
X159736129Y-116228041D01*
X159631367Y-116166137D01*
X159369462Y-116166137D01*
X159264700Y-116104232D01*
X158740891Y-115794708D02*
X158740891Y-117094708D01*
X158740891Y-115856613D02*
X158636129Y-115794708D01*
X158426605Y-115794708D01*
X158321843Y-115856613D01*
X158269462Y-115918518D01*
X158217081Y-116042327D01*
X158217081Y-116413756D01*
X158269462Y-116537565D01*
X158321843Y-116599470D01*
X158426605Y-116661375D01*
X158636129Y-116661375D01*
X158740891Y-116599470D01*
X157902796Y-115794708D02*
X157483748Y-115794708D01*
X157745653Y-115361375D02*
X157745653Y-116475660D01*
X157693272Y-116599470D01*
X157588510Y-116661375D01*
X157483748Y-116661375D01*
X156959939Y-116661375D02*
X157064700Y-116599470D01*
X157117081Y-116537565D01*
X157169462Y-116413756D01*
X157169462Y-116042327D01*
X157117081Y-115918518D01*
X157064700Y-115856613D01*
X156959939Y-115794708D01*
X156802796Y-115794708D01*
X156698034Y-115856613D01*
X156645653Y-115918518D01*
X156593272Y-116042327D01*
X156593272Y-116413756D01*
X156645653Y-116537565D01*
X156698034Y-116599470D01*
X156802796Y-116661375D01*
X156959939Y-116661375D01*
X156121843Y-115794708D02*
X156121843Y-116661375D01*
X156121843Y-115918518D02*
X156069462Y-115856613D01*
X155964700Y-115794708D01*
X155807558Y-115794708D01*
X155702796Y-115856613D01*
X155650415Y-115980422D01*
X155650415Y-116661375D01*
X154131367Y-116661375D02*
X154236129Y-116599470D01*
X154288510Y-116475660D01*
X154288510Y-115361375D01*
X153240891Y-116661375D02*
X153240891Y-115980422D01*
X153293272Y-115856613D01*
X153398034Y-115794708D01*
X153607558Y-115794708D01*
X153712320Y-115856613D01*
X153240891Y-116599470D02*
X153345653Y-116661375D01*
X153607558Y-116661375D01*
X153712320Y-116599470D01*
X153764700Y-116475660D01*
X153764700Y-116351851D01*
X153712320Y-116228041D01*
X153607558Y-116166137D01*
X153345653Y-116166137D01*
X153240891Y-116104232D01*
X152821843Y-115794708D02*
X152559939Y-116661375D01*
X152298034Y-115794708D02*
X152559939Y-116661375D01*
X152664700Y-116970899D01*
X152717081Y-117032803D01*
X152821843Y-117094708D01*
X151459939Y-116599470D02*
X151564700Y-116661375D01*
X151774224Y-116661375D01*
X151878986Y-116599470D01*
X151931367Y-116475660D01*
X151931367Y-115980422D01*
X151878986Y-115856613D01*
X151774224Y-115794708D01*
X151564700Y-115794708D01*
X151459939Y-115856613D01*
X151407558Y-115980422D01*
X151407558Y-116104232D01*
X151931367Y-116228041D01*
X150936129Y-116661375D02*
X150936129Y-115794708D01*
X150936129Y-116042327D02*
X150883748Y-115918518D01*
X150831367Y-115856613D01*
X150726605Y-115794708D01*
X150621843Y-115794708D01*
X149574224Y-115794708D02*
X149155177Y-115794708D01*
X149417081Y-115361375D02*
X149417081Y-116475660D01*
X149364700Y-116599470D01*
X149259939Y-116661375D01*
X149155177Y-116661375D01*
X148631367Y-116661375D02*
X148736129Y-116599470D01*
X148788510Y-116537565D01*
X148840891Y-116413756D01*
X148840891Y-116042327D01*
X148788510Y-115918518D01*
X148736129Y-115856613D01*
X148631367Y-115794708D01*
X148474224Y-115794708D01*
X148369462Y-115856613D01*
X148317081Y-115918518D01*
X148264700Y-116042327D01*
X148264700Y-116413756D01*
X148317081Y-116537565D01*
X148369462Y-116599470D01*
X148474224Y-116661375D01*
X148631367Y-116661375D01*
X146955177Y-116661375D02*
X146955177Y-115794708D01*
X146955177Y-116042327D02*
X146902796Y-115918518D01*
X146850415Y-115856613D01*
X146745653Y-115794708D01*
X146640891Y-115794708D01*
X145855177Y-116599470D02*
X145959939Y-116661375D01*
X146169462Y-116661375D01*
X146274224Y-116599470D01*
X146326605Y-116475660D01*
X146326605Y-115980422D01*
X146274224Y-115856613D01*
X146169462Y-115794708D01*
X145959939Y-115794708D01*
X145855177Y-115856613D01*
X145802796Y-115980422D01*
X145802796Y-116104232D01*
X146326605Y-116228041D01*
X145174224Y-116661375D02*
X145278986Y-116599470D01*
X145331367Y-116475660D01*
X145331367Y-115361375D01*
X144755177Y-116661375D02*
X144755177Y-115794708D01*
X144755177Y-115361375D02*
X144807558Y-115423280D01*
X144755177Y-115485184D01*
X144702796Y-115423280D01*
X144755177Y-115361375D01*
X144755177Y-115485184D01*
X143812319Y-116599470D02*
X143917081Y-116661375D01*
X144126605Y-116661375D01*
X144231367Y-116599470D01*
X144283748Y-116475660D01*
X144283748Y-115980422D01*
X144231367Y-115856613D01*
X144126605Y-115794708D01*
X143917081Y-115794708D01*
X143812319Y-115856613D01*
X143759939Y-115980422D01*
X143759939Y-116104232D01*
X144283748Y-116228041D01*
X143393272Y-115794708D02*
X143131367Y-116661375D01*
X142869462Y-115794708D01*
X142031367Y-116599470D02*
X142136129Y-116661375D01*
X142345653Y-116661375D01*
X142450415Y-116599470D01*
X142502796Y-116475660D01*
X142502796Y-115980422D01*
X142450415Y-115856613D01*
X142345653Y-115794708D01*
X142136129Y-115794708D01*
X142031367Y-115856613D01*
X141978986Y-115980422D01*
X141978986Y-116104232D01*
X142502796Y-116228041D01*
X140669462Y-116661375D02*
X140669462Y-115361375D01*
X140669462Y-115856613D02*
X140564700Y-115794708D01*
X140355177Y-115794708D01*
X140250415Y-115856613D01*
X140198034Y-115918518D01*
X140145653Y-116042327D01*
X140145653Y-116413756D01*
X140198034Y-116537565D01*
X140250415Y-116599470D01*
X140355177Y-116661375D01*
X140564700Y-116661375D01*
X140669462Y-116599470D01*
X139202796Y-115794708D02*
X139202796Y-116661375D01*
X139674224Y-115794708D02*
X139674224Y-116475660D01*
X139621843Y-116599470D01*
X139517081Y-116661375D01*
X139359939Y-116661375D01*
X139255177Y-116599470D01*
X139202796Y-116537565D01*
X138678986Y-116661375D02*
X138678986Y-115361375D01*
X138678986Y-115856613D02*
X138574224Y-115794708D01*
X138364700Y-115794708D01*
X138259939Y-115856613D01*
X138207558Y-115918518D01*
X138155177Y-116042327D01*
X138155177Y-116413756D01*
X138207558Y-116537565D01*
X138259939Y-116599470D01*
X138364700Y-116661375D01*
X138574224Y-116661375D01*
X138678986Y-116599470D01*
X137683748Y-116661375D02*
X137683748Y-115361375D01*
X137683748Y-115856613D02*
X137578986Y-115794708D01*
X137369462Y-115794708D01*
X137264700Y-115856613D01*
X137212319Y-115918518D01*
X137159939Y-116042327D01*
X137159939Y-116413756D01*
X137212319Y-116537565D01*
X137264700Y-116599470D01*
X137369462Y-116661375D01*
X137578986Y-116661375D01*
X137683748Y-116599470D01*
X136531367Y-116661375D02*
X136636129Y-116599470D01*
X136688510Y-116475660D01*
X136688510Y-115361375D01*
X135693272Y-116599470D02*
X135798034Y-116661375D01*
X136007558Y-116661375D01*
X136112319Y-116599470D01*
X136164700Y-116475660D01*
X136164700Y-115980422D01*
X136112319Y-115856613D01*
X136007558Y-115794708D01*
X135798034Y-115794708D01*
X135693272Y-115856613D01*
X135640891Y-115980422D01*
X135640891Y-116104232D01*
X136164700Y-116228041D01*
X134331367Y-115794708D02*
X134331367Y-117094708D01*
X134331367Y-115856613D02*
X134226605Y-115794708D01*
X134017081Y-115794708D01*
X133912319Y-115856613D01*
X133859939Y-115918518D01*
X133807558Y-116042327D01*
X133807558Y-116413756D01*
X133859939Y-116537565D01*
X133912319Y-116599470D01*
X134017081Y-116661375D01*
X134226605Y-116661375D01*
X134331367Y-116599470D01*
X133336129Y-116661375D02*
X133336129Y-115794708D01*
X133336129Y-116042327D02*
X133283748Y-115918518D01*
X133231367Y-115856613D01*
X133126605Y-115794708D01*
X133021843Y-115794708D01*
X132236129Y-116599470D02*
X132340891Y-116661375D01*
X132550415Y-116661375D01*
X132655177Y-116599470D01*
X132707558Y-116475660D01*
X132707558Y-115980422D01*
X132655177Y-115856613D01*
X132550415Y-115794708D01*
X132340891Y-115794708D01*
X132236129Y-115856613D01*
X132183748Y-115980422D01*
X132183748Y-116104232D01*
X132707558Y-116228041D01*
X131764700Y-116599470D02*
X131659939Y-116661375D01*
X131450415Y-116661375D01*
X131345653Y-116599470D01*
X131293272Y-116475660D01*
X131293272Y-116413756D01*
X131345653Y-116289946D01*
X131450415Y-116228041D01*
X131607558Y-116228041D01*
X131712319Y-116166137D01*
X131764700Y-116042327D01*
X131764700Y-115980422D01*
X131712319Y-115856613D01*
X131607558Y-115794708D01*
X131450415Y-115794708D01*
X131345653Y-115856613D01*
X130874224Y-116599470D02*
X130769462Y-116661375D01*
X130559939Y-116661375D01*
X130455177Y-116599470D01*
X130402796Y-116475660D01*
X130402796Y-116413756D01*
X130455177Y-116289946D01*
X130559939Y-116228041D01*
X130717081Y-116228041D01*
X130821843Y-116166137D01*
X130874224Y-116042327D01*
X130874224Y-115980422D01*
X130821843Y-115856613D01*
X130717081Y-115794708D01*
X130559939Y-115794708D01*
X130455177Y-115856613D01*
X129459939Y-115794708D02*
X129459939Y-116661375D01*
X129931367Y-115794708D02*
X129931367Y-116475660D01*
X129878986Y-116599470D01*
X129774224Y-116661375D01*
X129617081Y-116661375D01*
X129512319Y-116599470D01*
X129459939Y-116537565D01*
X128936129Y-116661375D02*
X128936129Y-115794708D01*
X128936129Y-116042327D02*
X128883748Y-115918518D01*
X128831367Y-115856613D01*
X128726605Y-115794708D01*
X128621843Y-115794708D01*
X127836129Y-116599470D02*
X127940891Y-116661375D01*
X128150415Y-116661375D01*
X128255177Y-116599470D01*
X128307558Y-116475660D01*
X128307558Y-115980422D01*
X128255177Y-115856613D01*
X128150415Y-115794708D01*
X127940891Y-115794708D01*
X127836129Y-115856613D01*
X127783748Y-115980422D01*
X127783748Y-116104232D01*
X128307558Y-116228041D01*
X126002796Y-116661375D02*
X126002796Y-115980422D01*
X126055177Y-115856613D01*
X126159939Y-115794708D01*
X126369462Y-115794708D01*
X126474224Y-115856613D01*
X126002796Y-116599470D02*
X126107558Y-116661375D01*
X126369462Y-116661375D01*
X126474224Y-116599470D01*
X126526605Y-116475660D01*
X126526605Y-116351851D01*
X126474224Y-116228041D01*
X126369462Y-116166137D01*
X126107558Y-116166137D01*
X126002796Y-116104232D01*
X125478986Y-115794708D02*
X125478986Y-116661375D01*
X125478986Y-115918518D02*
X125426605Y-115856613D01*
X125321843Y-115794708D01*
X125164700Y-115794708D01*
X125059939Y-115856613D01*
X125007558Y-115980422D01*
X125007558Y-116661375D01*
X124012319Y-116661375D02*
X124012319Y-115361375D01*
X124012319Y-116599470D02*
X124117081Y-116661375D01*
X124326605Y-116661375D01*
X124431367Y-116599470D01*
X124483748Y-116537565D01*
X124536129Y-116413756D01*
X124536129Y-116042327D01*
X124483748Y-115918518D01*
X124431367Y-115856613D01*
X124326605Y-115794708D01*
X124117081Y-115794708D01*
X124012319Y-115856613D01*
X122650415Y-116661375D02*
X122650415Y-115361375D01*
X122545653Y-116166137D02*
X122231367Y-116661375D01*
X122231367Y-115794708D02*
X122650415Y-116289946D01*
X121340891Y-116599470D02*
X121445653Y-116661375D01*
X121655177Y-116661375D01*
X121759939Y-116599470D01*
X121812319Y-116475660D01*
X121812319Y-115980422D01*
X121759939Y-115856613D01*
X121655177Y-115794708D01*
X121445653Y-115794708D01*
X121340891Y-115856613D01*
X121288510Y-115980422D01*
X121288510Y-116104232D01*
X121812319Y-116228041D01*
X120398034Y-116599470D02*
X120502796Y-116661375D01*
X120712319Y-116661375D01*
X120817081Y-116599470D01*
X120869462Y-116475660D01*
X120869462Y-115980422D01*
X120817081Y-115856613D01*
X120712319Y-115794708D01*
X120502796Y-115794708D01*
X120398034Y-115856613D01*
X120345653Y-115980422D01*
X120345653Y-116104232D01*
X120869462Y-116228041D01*
X119874224Y-115794708D02*
X119874224Y-117094708D01*
X119874224Y-115856613D02*
X119769462Y-115794708D01*
X119559939Y-115794708D01*
X119455177Y-115856613D01*
X119402796Y-115918518D01*
X119350415Y-116042327D01*
X119350415Y-116413756D01*
X119402796Y-116537565D01*
X119455177Y-116599470D01*
X119559939Y-116661375D01*
X119769462Y-116661375D01*
X119874224Y-116599470D01*
X118040891Y-116661375D02*
X118040891Y-115794708D01*
X118040891Y-115361375D02*
X118093272Y-115423280D01*
X118040891Y-115485184D01*
X117988510Y-115423280D01*
X118040891Y-115361375D01*
X118040891Y-115485184D01*
X117674224Y-115794708D02*
X117255177Y-115794708D01*
X117517081Y-115361375D02*
X117517081Y-116475660D01*
X117464700Y-116599470D01*
X117359939Y-116661375D01*
X117255177Y-116661375D01*
X116207558Y-115794708D02*
X115788510Y-115794708D01*
X116050415Y-116661375D02*
X116050415Y-115547089D01*
X115998034Y-115423280D01*
X115893272Y-115361375D01*
X115788510Y-115361375D01*
X115421843Y-116661375D02*
X115421843Y-115794708D01*
X115421843Y-116042327D02*
X115369462Y-115918518D01*
X115317081Y-115856613D01*
X115212319Y-115794708D01*
X115107558Y-115794708D01*
X114583748Y-116661375D02*
X114688510Y-116599470D01*
X114740891Y-116537565D01*
X114793272Y-116413756D01*
X114793272Y-116042327D01*
X114740891Y-115918518D01*
X114688510Y-115856613D01*
X114583748Y-115794708D01*
X114426605Y-115794708D01*
X114321843Y-115856613D01*
X114269462Y-115918518D01*
X114217081Y-116042327D01*
X114217081Y-116413756D01*
X114269462Y-116537565D01*
X114321843Y-116599470D01*
X114426605Y-116661375D01*
X114583748Y-116661375D01*
X113745653Y-116661375D02*
X113745653Y-115794708D01*
X113745653Y-115918518D02*
X113693272Y-115856613D01*
X113588510Y-115794708D01*
X113431367Y-115794708D01*
X113326605Y-115856613D01*
X113274224Y-115980422D01*
X113274224Y-116661375D01*
X113274224Y-115980422D02*
X113221843Y-115856613D01*
X113117081Y-115794708D01*
X112959939Y-115794708D01*
X112855177Y-115856613D01*
X112802796Y-115980422D01*
X112802796Y-116661375D01*
X111021843Y-116599470D02*
X111126605Y-116661375D01*
X111336129Y-116661375D01*
X111440891Y-116599470D01*
X111493272Y-116475660D01*
X111493272Y-115980422D01*
X111440891Y-115856613D01*
X111336129Y-115794708D01*
X111126605Y-115794708D01*
X111021843Y-115856613D01*
X110969462Y-115980422D01*
X110969462Y-116104232D01*
X111493272Y-116228041D01*
X110498034Y-115794708D02*
X110498034Y-116661375D01*
X110498034Y-115918518D02*
X110445653Y-115856613D01*
X110340891Y-115794708D01*
X110183748Y-115794708D01*
X110078986Y-115856613D01*
X110026605Y-115980422D01*
X110026605Y-116661375D01*
X109345653Y-116661375D02*
X109450415Y-116599470D01*
X109502796Y-116475660D01*
X109502796Y-115361375D01*
X108455177Y-116661375D02*
X108455177Y-115980422D01*
X108507558Y-115856613D01*
X108612319Y-115794708D01*
X108821843Y-115794708D01*
X108926605Y-115856613D01*
X108455177Y-116599470D02*
X108559939Y-116661375D01*
X108821843Y-116661375D01*
X108926605Y-116599470D01*
X108978986Y-116475660D01*
X108978986Y-116351851D01*
X108926605Y-116228041D01*
X108821843Y-116166137D01*
X108559939Y-116166137D01*
X108455177Y-116104232D01*
X107931367Y-116661375D02*
X107931367Y-115794708D01*
X107931367Y-116042327D02*
X107878986Y-115918518D01*
X107826605Y-115856613D01*
X107721843Y-115794708D01*
X107617081Y-115794708D01*
X106778986Y-115794708D02*
X106778986Y-116847089D01*
X106831367Y-116970899D01*
X106883748Y-117032803D01*
X106988510Y-117094708D01*
X107145653Y-117094708D01*
X107250415Y-117032803D01*
X106778986Y-116599470D02*
X106883748Y-116661375D01*
X107093272Y-116661375D01*
X107198034Y-116599470D01*
X107250415Y-116537565D01*
X107302796Y-116413756D01*
X107302796Y-116042327D01*
X107250415Y-115918518D01*
X107198034Y-115856613D01*
X107093272Y-115794708D01*
X106883748Y-115794708D01*
X106778986Y-115856613D01*
X105836129Y-116599470D02*
X105940891Y-116661375D01*
X106150415Y-116661375D01*
X106255177Y-116599470D01*
X106307558Y-116475660D01*
X106307558Y-115980422D01*
X106255177Y-115856613D01*
X106150415Y-115794708D01*
X105940891Y-115794708D01*
X105836129Y-115856613D01*
X105783748Y-115980422D01*
X105783748Y-116104232D01*
X106307558Y-116228041D01*
X105312319Y-115794708D02*
X105312319Y-116661375D01*
X105312319Y-115918518D02*
X105259939Y-115856613D01*
X105155177Y-115794708D01*
X104998034Y-115794708D01*
X104893272Y-115856613D01*
X104840891Y-115980422D01*
X104840891Y-116661375D01*
X104317081Y-116661375D02*
X104317081Y-115794708D01*
X104317081Y-115361375D02*
X104369462Y-115423280D01*
X104317081Y-115485184D01*
X104264700Y-115423280D01*
X104317081Y-115361375D01*
X104317081Y-115485184D01*
X103793272Y-115794708D02*
X103793272Y-116661375D01*
X103793272Y-115918518D02*
X103740891Y-115856613D01*
X103636129Y-115794708D01*
X103478986Y-115794708D01*
X103374224Y-115856613D01*
X103321843Y-115980422D01*
X103321843Y-116661375D01*
X102326605Y-115794708D02*
X102326605Y-116847089D01*
X102378986Y-116970899D01*
X102431367Y-117032803D01*
X102536129Y-117094708D01*
X102693272Y-117094708D01*
X102798034Y-117032803D01*
X102326605Y-116599470D02*
X102431367Y-116661375D01*
X102640891Y-116661375D01*
X102745653Y-116599470D01*
X102798034Y-116537565D01*
X102850415Y-116413756D01*
X102850415Y-116042327D01*
X102798034Y-115918518D01*
X102745653Y-115856613D01*
X102640891Y-115794708D01*
X102431367Y-115794708D01*
X102326605Y-115856613D01*
X101802796Y-116537565D02*
X101750415Y-116599470D01*
X101802796Y-116661375D01*
X101855177Y-116599470D01*
X101802796Y-116537565D01*
X101802796Y-116661375D01*
X99759939Y-115361375D02*
X99131367Y-115361375D01*
X99445653Y-116661375D02*
X99445653Y-115361375D01*
X98764700Y-116661375D02*
X98764700Y-115361375D01*
X98293272Y-116661375D02*
X98293272Y-115980422D01*
X98345653Y-115856613D01*
X98450415Y-115794708D01*
X98607558Y-115794708D01*
X98712319Y-115856613D01*
X98764700Y-115918518D01*
X97350415Y-116599470D02*
X97455177Y-116661375D01*
X97664700Y-116661375D01*
X97769462Y-116599470D01*
X97821843Y-116475660D01*
X97821843Y-115980422D01*
X97769462Y-115856613D01*
X97664700Y-115794708D01*
X97455177Y-115794708D01*
X97350415Y-115856613D01*
X97298034Y-115980422D01*
X97298034Y-116104232D01*
X97821843Y-116228041D01*
X96040891Y-116599470D02*
X95936129Y-116661375D01*
X95726605Y-116661375D01*
X95621843Y-116599470D01*
X95569462Y-116475660D01*
X95569462Y-116413756D01*
X95621843Y-116289946D01*
X95726605Y-116228041D01*
X95883748Y-116228041D01*
X95988510Y-116166137D01*
X96040891Y-116042327D01*
X96040891Y-115980422D01*
X95988510Y-115856613D01*
X95883748Y-115794708D01*
X95726605Y-115794708D01*
X95621843Y-115856613D01*
X95098034Y-115794708D02*
X95098034Y-117094708D01*
X95098034Y-115856613D02*
X94993272Y-115794708D01*
X94783748Y-115794708D01*
X94678986Y-115856613D01*
X94626605Y-115918518D01*
X94574224Y-116042327D01*
X94574224Y-116413756D01*
X94626605Y-116537565D01*
X94678986Y-116599470D01*
X94783748Y-116661375D01*
X94993272Y-116661375D01*
X95098034Y-116599470D01*
X93631367Y-116661375D02*
X93631367Y-115980422D01*
X93683748Y-115856613D01*
X93788510Y-115794708D01*
X93998034Y-115794708D01*
X94102796Y-115856613D01*
X93631367Y-116599470D02*
X93736129Y-116661375D01*
X93998034Y-116661375D01*
X94102796Y-116599470D01*
X94155177Y-116475660D01*
X94155177Y-116351851D01*
X94102796Y-116228041D01*
X93998034Y-116166137D01*
X93736129Y-116166137D01*
X93631367Y-116104232D01*
X93107558Y-116661375D02*
X93107558Y-115794708D01*
X93107558Y-116042327D02*
X93055177Y-115918518D01*
X93002796Y-115856613D01*
X92898034Y-115794708D01*
X92793272Y-115794708D01*
X92007558Y-116599470D02*
X92112319Y-116661375D01*
X92321843Y-116661375D01*
X92426605Y-116599470D01*
X92478986Y-116475660D01*
X92478986Y-115980422D01*
X92426605Y-115856613D01*
X92321843Y-115794708D01*
X92112319Y-115794708D01*
X92007558Y-115856613D01*
X91955177Y-115980422D01*
X91955177Y-116104232D01*
X92478986Y-116228041D01*
X90802796Y-115794708D02*
X90383748Y-115794708D01*
X90645653Y-116661375D02*
X90645653Y-115547089D01*
X90593272Y-115423280D01*
X90488510Y-115361375D01*
X90383748Y-115361375D01*
X89859939Y-116661375D02*
X89964700Y-116599470D01*
X90017081Y-116537565D01*
X90069462Y-116413756D01*
X90069462Y-116042327D01*
X90017081Y-115918518D01*
X89964700Y-115856613D01*
X89859939Y-115794708D01*
X89702796Y-115794708D01*
X89598034Y-115856613D01*
X89545653Y-115918518D01*
X89493272Y-116042327D01*
X89493272Y-116413756D01*
X89545653Y-116537565D01*
X89598034Y-116599470D01*
X89702796Y-116661375D01*
X89859939Y-116661375D01*
X88864700Y-116661375D02*
X88969462Y-116599470D01*
X89021843Y-116537565D01*
X89074224Y-116413756D01*
X89074224Y-116042327D01*
X89021843Y-115918518D01*
X88969462Y-115856613D01*
X88864700Y-115794708D01*
X88707558Y-115794708D01*
X88602796Y-115856613D01*
X88550415Y-115918518D01*
X88498034Y-116042327D01*
X88498034Y-116413756D01*
X88550415Y-116537565D01*
X88602796Y-116599470D01*
X88707558Y-116661375D01*
X88864700Y-116661375D01*
X88183748Y-115794708D02*
X87764700Y-115794708D01*
X88026605Y-115361375D02*
X88026605Y-116475660D01*
X87974224Y-116599470D01*
X87869462Y-116661375D01*
X87764700Y-116661375D01*
X87398034Y-115794708D02*
X87398034Y-117094708D01*
X87398034Y-115856613D02*
X87293272Y-115794708D01*
X87083748Y-115794708D01*
X86978986Y-115856613D01*
X86926605Y-115918518D01*
X86874224Y-116042327D01*
X86874224Y-116413756D01*
X86926605Y-116537565D01*
X86978986Y-116599470D01*
X87083748Y-116661375D01*
X87293272Y-116661375D01*
X87398034Y-116599470D01*
X86402796Y-116661375D02*
X86402796Y-115794708D01*
X86402796Y-116042327D02*
X86350415Y-115918518D01*
X86298034Y-115856613D01*
X86193272Y-115794708D01*
X86088510Y-115794708D01*
X85721843Y-116661375D02*
X85721843Y-115794708D01*
X85721843Y-115361375D02*
X85774224Y-115423280D01*
X85721843Y-115485184D01*
X85669462Y-115423280D01*
X85721843Y-115361375D01*
X85721843Y-115485184D01*
X85198034Y-115794708D02*
X85198034Y-116661375D01*
X85198034Y-115918518D02*
X85145653Y-115856613D01*
X85040891Y-115794708D01*
X84883748Y-115794708D01*
X84778986Y-115856613D01*
X84726605Y-115980422D01*
X84726605Y-116661375D01*
X84359939Y-115794708D02*
X83940891Y-115794708D01*
X84202796Y-115361375D02*
X84202796Y-116475660D01*
X84150415Y-116599470D01*
X84045653Y-116661375D01*
X83940891Y-116661375D01*
X82264700Y-116599470D02*
X82369462Y-116661375D01*
X82578986Y-116661375D01*
X82683748Y-116599470D01*
X82736129Y-116537565D01*
X82788510Y-116413756D01*
X82788510Y-116042327D01*
X82736129Y-115918518D01*
X82683748Y-115856613D01*
X82578986Y-115794708D01*
X82369462Y-115794708D01*
X82264700Y-115856613D01*
X81321843Y-116661375D02*
X81321843Y-115980422D01*
X81374224Y-115856613D01*
X81478986Y-115794708D01*
X81688510Y-115794708D01*
X81793272Y-115856613D01*
X81321843Y-116599470D02*
X81426605Y-116661375D01*
X81688510Y-116661375D01*
X81793272Y-116599470D01*
X81845653Y-116475660D01*
X81845653Y-116351851D01*
X81793272Y-116228041D01*
X81688510Y-116166137D01*
X81426605Y-116166137D01*
X81321843Y-116104232D01*
X80798034Y-115794708D02*
X80798034Y-116661375D01*
X80798034Y-115918518D02*
X80745653Y-115856613D01*
X80640891Y-115794708D01*
X80483748Y-115794708D01*
X80378986Y-115856613D01*
X80326605Y-115980422D01*
X80326605Y-116661375D01*
X157824224Y-118811375D02*
X157824224Y-117511375D01*
X157824224Y-118006613D02*
X157719462Y-117944708D01*
X157509939Y-117944708D01*
X157405177Y-118006613D01*
X157352796Y-118068518D01*
X157300415Y-118192327D01*
X157300415Y-118563756D01*
X157352796Y-118687565D01*
X157405177Y-118749470D01*
X157509939Y-118811375D01*
X157719462Y-118811375D01*
X157824224Y-118749470D01*
X156409939Y-118749470D02*
X156514700Y-118811375D01*
X156724224Y-118811375D01*
X156828986Y-118749470D01*
X156881367Y-118625660D01*
X156881367Y-118130422D01*
X156828986Y-118006613D01*
X156724224Y-117944708D01*
X156514700Y-117944708D01*
X156409939Y-118006613D01*
X156357558Y-118130422D01*
X156357558Y-118254232D01*
X156881367Y-118378041D01*
X154576605Y-118749470D02*
X154681367Y-118811375D01*
X154890891Y-118811375D01*
X154995653Y-118749470D01*
X155048034Y-118687565D01*
X155100415Y-118563756D01*
X155100415Y-118192327D01*
X155048034Y-118068518D01*
X154995653Y-118006613D01*
X154890891Y-117944708D01*
X154681367Y-117944708D01*
X154576605Y-118006613D01*
X153948034Y-118811375D02*
X154052796Y-118749470D01*
X154105177Y-118687565D01*
X154157558Y-118563756D01*
X154157558Y-118192327D01*
X154105177Y-118068518D01*
X154052796Y-118006613D01*
X153948034Y-117944708D01*
X153790891Y-117944708D01*
X153686129Y-118006613D01*
X153633748Y-118068518D01*
X153581367Y-118192327D01*
X153581367Y-118563756D01*
X153633748Y-118687565D01*
X153686129Y-118749470D01*
X153790891Y-118811375D01*
X153948034Y-118811375D01*
X153109939Y-117944708D02*
X153109939Y-118811375D01*
X153109939Y-118068518D02*
X153057558Y-118006613D01*
X152952796Y-117944708D01*
X152795653Y-117944708D01*
X152690891Y-118006613D01*
X152638510Y-118130422D01*
X152638510Y-118811375D01*
X152167081Y-118749470D02*
X152062320Y-118811375D01*
X151852796Y-118811375D01*
X151748034Y-118749470D01*
X151695653Y-118625660D01*
X151695653Y-118563756D01*
X151748034Y-118439946D01*
X151852796Y-118378041D01*
X152009939Y-118378041D01*
X152114700Y-118316137D01*
X152167081Y-118192327D01*
X152167081Y-118130422D01*
X152114700Y-118006613D01*
X152009939Y-117944708D01*
X151852796Y-117944708D01*
X151748034Y-118006613D01*
X150752796Y-118749470D02*
X150857558Y-118811375D01*
X151067081Y-118811375D01*
X151171843Y-118749470D01*
X151224224Y-118687565D01*
X151276605Y-118563756D01*
X151276605Y-118192327D01*
X151224224Y-118068518D01*
X151171843Y-118006613D01*
X151067081Y-117944708D01*
X150857558Y-117944708D01*
X150752796Y-118006613D01*
X150281367Y-118811375D02*
X150281367Y-117944708D01*
X150281367Y-118192327D02*
X150228986Y-118068518D01*
X150176605Y-118006613D01*
X150071843Y-117944708D01*
X149967081Y-117944708D01*
X149600415Y-118811375D02*
X149600415Y-117944708D01*
X149600415Y-117511375D02*
X149652796Y-117573280D01*
X149600415Y-117635184D01*
X149548034Y-117573280D01*
X149600415Y-117511375D01*
X149600415Y-117635184D01*
X149076605Y-117944708D02*
X149076605Y-119244708D01*
X149076605Y-118006613D02*
X148971843Y-117944708D01*
X148762319Y-117944708D01*
X148657558Y-118006613D01*
X148605177Y-118068518D01*
X148552796Y-118192327D01*
X148552796Y-118563756D01*
X148605177Y-118687565D01*
X148657558Y-118749470D01*
X148762319Y-118811375D01*
X148971843Y-118811375D01*
X149076605Y-118749470D01*
X148238510Y-117944708D02*
X147819462Y-117944708D01*
X148081367Y-117511375D02*
X148081367Y-118625660D01*
X148028986Y-118749470D01*
X147924224Y-118811375D01*
X147819462Y-118811375D01*
X147033748Y-118749470D02*
X147138510Y-118811375D01*
X147348034Y-118811375D01*
X147452796Y-118749470D01*
X147505177Y-118625660D01*
X147505177Y-118130422D01*
X147452796Y-118006613D01*
X147348034Y-117944708D01*
X147138510Y-117944708D01*
X147033748Y-118006613D01*
X146981367Y-118130422D01*
X146981367Y-118254232D01*
X147505177Y-118378041D01*
X146038510Y-118811375D02*
X146038510Y-117511375D01*
X146038510Y-118749470D02*
X146143272Y-118811375D01*
X146352796Y-118811375D01*
X146457558Y-118749470D01*
X146509939Y-118687565D01*
X146562319Y-118563756D01*
X146562319Y-118192327D01*
X146509939Y-118068518D01*
X146457558Y-118006613D01*
X146352796Y-117944708D01*
X146143272Y-117944708D01*
X146038510Y-118006613D01*
X144833748Y-117944708D02*
X144414700Y-117944708D01*
X144676605Y-117511375D02*
X144676605Y-118625660D01*
X144624224Y-118749470D01*
X144519462Y-118811375D01*
X144414700Y-118811375D01*
X143890891Y-118811375D02*
X143995653Y-118749470D01*
X144048034Y-118687565D01*
X144100415Y-118563756D01*
X144100415Y-118192327D01*
X144048034Y-118068518D01*
X143995653Y-118006613D01*
X143890891Y-117944708D01*
X143733748Y-117944708D01*
X143628986Y-118006613D01*
X143576605Y-118068518D01*
X143524224Y-118192327D01*
X143524224Y-118563756D01*
X143576605Y-118687565D01*
X143628986Y-118749470D01*
X143733748Y-118811375D01*
X143890891Y-118811375D01*
X142214700Y-118811375D02*
X142214700Y-117944708D01*
X142214700Y-118192327D02*
X142162319Y-118068518D01*
X142109939Y-118006613D01*
X142005177Y-117944708D01*
X141900415Y-117944708D01*
X141114700Y-118749470D02*
X141219462Y-118811375D01*
X141428986Y-118811375D01*
X141533748Y-118749470D01*
X141586129Y-118625660D01*
X141586129Y-118130422D01*
X141533748Y-118006613D01*
X141428986Y-117944708D01*
X141219462Y-117944708D01*
X141114700Y-118006613D01*
X141062319Y-118130422D01*
X141062319Y-118254232D01*
X141586129Y-118378041D01*
X140590891Y-117944708D02*
X140590891Y-119244708D01*
X140590891Y-118006613D02*
X140486129Y-117944708D01*
X140276605Y-117944708D01*
X140171843Y-118006613D01*
X140119462Y-118068518D01*
X140067081Y-118192327D01*
X140067081Y-118563756D01*
X140119462Y-118687565D01*
X140171843Y-118749470D01*
X140276605Y-118811375D01*
X140486129Y-118811375D01*
X140590891Y-118749470D01*
X139438510Y-118811375D02*
X139543272Y-118749470D01*
X139595653Y-118625660D01*
X139595653Y-117511375D01*
X138548034Y-118811375D02*
X138548034Y-118130422D01*
X138600415Y-118006613D01*
X138705177Y-117944708D01*
X138914700Y-117944708D01*
X139019462Y-118006613D01*
X138548034Y-118749470D02*
X138652796Y-118811375D01*
X138914700Y-118811375D01*
X139019462Y-118749470D01*
X139071843Y-118625660D01*
X139071843Y-118501851D01*
X139019462Y-118378041D01*
X138914700Y-118316137D01*
X138652796Y-118316137D01*
X138548034Y-118254232D01*
X137552796Y-118749470D02*
X137657558Y-118811375D01*
X137867081Y-118811375D01*
X137971843Y-118749470D01*
X138024224Y-118687565D01*
X138076605Y-118563756D01*
X138076605Y-118192327D01*
X138024224Y-118068518D01*
X137971843Y-118006613D01*
X137867081Y-117944708D01*
X137657558Y-117944708D01*
X137552796Y-118006613D01*
X136662319Y-118749470D02*
X136767081Y-118811375D01*
X136976605Y-118811375D01*
X137081367Y-118749470D01*
X137133748Y-118625660D01*
X137133748Y-118130422D01*
X137081367Y-118006613D01*
X136976605Y-117944708D01*
X136767081Y-117944708D01*
X136662319Y-118006613D01*
X136609939Y-118130422D01*
X136609939Y-118254232D01*
X137133748Y-118378041D01*
X135143272Y-118811375D02*
X135248034Y-118749470D01*
X135300415Y-118687565D01*
X135352796Y-118563756D01*
X135352796Y-118192327D01*
X135300415Y-118068518D01*
X135248034Y-118006613D01*
X135143272Y-117944708D01*
X134986129Y-117944708D01*
X134881367Y-118006613D01*
X134828986Y-118068518D01*
X134776605Y-118192327D01*
X134776605Y-118563756D01*
X134828986Y-118687565D01*
X134881367Y-118749470D01*
X134986129Y-118811375D01*
X135143272Y-118811375D01*
X134305177Y-117944708D02*
X134305177Y-118811375D01*
X134305177Y-118068518D02*
X134252796Y-118006613D01*
X134148034Y-117944708D01*
X133990891Y-117944708D01*
X133886129Y-118006613D01*
X133833748Y-118130422D01*
X133833748Y-118811375D01*
X132890891Y-118749470D02*
X132995653Y-118811375D01*
X133205177Y-118811375D01*
X133309939Y-118749470D01*
X133362319Y-118625660D01*
X133362319Y-118130422D01*
X133309939Y-118006613D01*
X133205177Y-117944708D01*
X132995653Y-117944708D01*
X132890891Y-118006613D01*
X132838510Y-118130422D01*
X132838510Y-118254232D01*
X133362319Y-118378041D01*
X131371843Y-118811375D02*
X131476605Y-118749470D01*
X131528986Y-118687565D01*
X131581367Y-118563756D01*
X131581367Y-118192327D01*
X131528986Y-118068518D01*
X131476605Y-118006613D01*
X131371843Y-117944708D01*
X131214700Y-117944708D01*
X131109939Y-118006613D01*
X131057558Y-118068518D01*
X131005177Y-118192327D01*
X131005177Y-118563756D01*
X131057558Y-118687565D01*
X131109939Y-118749470D01*
X131214700Y-118811375D01*
X131371843Y-118811375D01*
X130690891Y-117944708D02*
X130271843Y-117944708D01*
X130533748Y-117511375D02*
X130533748Y-118625660D01*
X130481367Y-118749470D01*
X130376605Y-118811375D01*
X130271843Y-118811375D01*
X129905177Y-118811375D02*
X129905177Y-117511375D01*
X129433748Y-118811375D02*
X129433748Y-118130422D01*
X129486129Y-118006613D01*
X129590891Y-117944708D01*
X129748034Y-117944708D01*
X129852796Y-118006613D01*
X129905177Y-118068518D01*
X128490891Y-118749470D02*
X128595653Y-118811375D01*
X128805177Y-118811375D01*
X128909939Y-118749470D01*
X128962319Y-118625660D01*
X128962319Y-118130422D01*
X128909939Y-118006613D01*
X128805177Y-117944708D01*
X128595653Y-117944708D01*
X128490891Y-118006613D01*
X128438510Y-118130422D01*
X128438510Y-118254232D01*
X128962319Y-118378041D01*
X127967081Y-118811375D02*
X127967081Y-117944708D01*
X127967081Y-118192327D02*
X127914700Y-118068518D01*
X127862319Y-118006613D01*
X127757558Y-117944708D01*
X127652796Y-117944708D01*
X126605177Y-117944708D02*
X126186129Y-117944708D01*
X126448034Y-118811375D02*
X126448034Y-117697089D01*
X126395653Y-117573280D01*
X126290891Y-117511375D01*
X126186129Y-117511375D01*
X125662319Y-118811375D02*
X125767081Y-118749470D01*
X125819462Y-118687565D01*
X125871843Y-118563756D01*
X125871843Y-118192327D01*
X125819462Y-118068518D01*
X125767081Y-118006613D01*
X125662319Y-117944708D01*
X125505177Y-117944708D01*
X125400415Y-118006613D01*
X125348034Y-118068518D01*
X125295653Y-118192327D01*
X125295653Y-118563756D01*
X125348034Y-118687565D01*
X125400415Y-118749470D01*
X125505177Y-118811375D01*
X125662319Y-118811375D01*
X124667081Y-118811375D02*
X124771843Y-118749470D01*
X124824224Y-118687565D01*
X124876605Y-118563756D01*
X124876605Y-118192327D01*
X124824224Y-118068518D01*
X124771843Y-118006613D01*
X124667081Y-117944708D01*
X124509939Y-117944708D01*
X124405177Y-118006613D01*
X124352796Y-118068518D01*
X124300415Y-118192327D01*
X124300415Y-118563756D01*
X124352796Y-118687565D01*
X124405177Y-118749470D01*
X124509939Y-118811375D01*
X124667081Y-118811375D01*
X123986129Y-117944708D02*
X123567081Y-117944708D01*
X123828986Y-117511375D02*
X123828986Y-118625660D01*
X123776605Y-118749470D01*
X123671843Y-118811375D01*
X123567081Y-118811375D01*
X123200415Y-117944708D02*
X123200415Y-119244708D01*
X123200415Y-118006613D02*
X123095653Y-117944708D01*
X122886129Y-117944708D01*
X122781367Y-118006613D01*
X122728986Y-118068518D01*
X122676605Y-118192327D01*
X122676605Y-118563756D01*
X122728986Y-118687565D01*
X122781367Y-118749470D01*
X122886129Y-118811375D01*
X123095653Y-118811375D01*
X123200415Y-118749470D01*
X122205177Y-118811375D02*
X122205177Y-117944708D01*
X122205177Y-118192327D02*
X122152796Y-118068518D01*
X122100415Y-118006613D01*
X121995653Y-117944708D01*
X121890891Y-117944708D01*
X121524224Y-118811375D02*
X121524224Y-117944708D01*
X121524224Y-117511375D02*
X121576605Y-117573280D01*
X121524224Y-117635184D01*
X121471843Y-117573280D01*
X121524224Y-117511375D01*
X121524224Y-117635184D01*
X121000415Y-117944708D02*
X121000415Y-118811375D01*
X121000415Y-118068518D02*
X120948034Y-118006613D01*
X120843272Y-117944708D01*
X120686129Y-117944708D01*
X120581367Y-118006613D01*
X120528986Y-118130422D01*
X120528986Y-118811375D01*
X120162319Y-117944708D02*
X119743272Y-117944708D01*
X120005177Y-117511375D02*
X120005177Y-118625660D01*
X119952796Y-118749470D01*
X119848034Y-118811375D01*
X119743272Y-118811375D01*
X118538510Y-118811375D02*
X118538510Y-117944708D01*
X118538510Y-117511375D02*
X118590891Y-117573280D01*
X118538510Y-117635184D01*
X118486129Y-117573280D01*
X118538510Y-117511375D01*
X118538510Y-117635184D01*
X118171843Y-117944708D02*
X117752796Y-117944708D01*
X118014700Y-118811375D02*
X118014700Y-117697089D01*
X117962319Y-117573280D01*
X117857558Y-117511375D01*
X117752796Y-117511375D01*
X116076605Y-118811375D02*
X116076605Y-117511375D01*
X116076605Y-118749470D02*
X116181367Y-118811375D01*
X116390891Y-118811375D01*
X116495653Y-118749470D01*
X116548034Y-118687565D01*
X116600415Y-118563756D01*
X116600415Y-118192327D01*
X116548034Y-118068518D01*
X116495653Y-118006613D01*
X116390891Y-117944708D01*
X116181367Y-117944708D01*
X116076605Y-118006613D01*
X115133748Y-118749470D02*
X115238510Y-118811375D01*
X115448034Y-118811375D01*
X115552796Y-118749470D01*
X115605177Y-118625660D01*
X115605177Y-118130422D01*
X115552796Y-118006613D01*
X115448034Y-117944708D01*
X115238510Y-117944708D01*
X115133748Y-118006613D01*
X115081367Y-118130422D01*
X115081367Y-118254232D01*
X115605177Y-118378041D01*
X114662319Y-118749470D02*
X114557558Y-118811375D01*
X114348034Y-118811375D01*
X114243272Y-118749470D01*
X114190891Y-118625660D01*
X114190891Y-118563756D01*
X114243272Y-118439946D01*
X114348034Y-118378041D01*
X114505177Y-118378041D01*
X114609939Y-118316137D01*
X114662319Y-118192327D01*
X114662319Y-118130422D01*
X114609939Y-118006613D01*
X114505177Y-117944708D01*
X114348034Y-117944708D01*
X114243272Y-118006613D01*
X113876605Y-117944708D02*
X113457558Y-117944708D01*
X113719462Y-117511375D02*
X113719462Y-118625660D01*
X113667081Y-118749470D01*
X113562319Y-118811375D01*
X113457558Y-118811375D01*
X113090891Y-118811375D02*
X113090891Y-117944708D01*
X113090891Y-118192327D02*
X113038510Y-118068518D01*
X112986129Y-118006613D01*
X112881367Y-117944708D01*
X112776605Y-117944708D01*
X112252796Y-118811375D02*
X112357558Y-118749470D01*
X112409939Y-118687565D01*
X112462319Y-118563756D01*
X112462319Y-118192327D01*
X112409939Y-118068518D01*
X112357558Y-118006613D01*
X112252796Y-117944708D01*
X112095653Y-117944708D01*
X111990891Y-118006613D01*
X111938510Y-118068518D01*
X111886129Y-118192327D01*
X111886129Y-118563756D01*
X111938510Y-118687565D01*
X111990891Y-118749470D01*
X112095653Y-118811375D01*
X112252796Y-118811375D01*
X111519462Y-117944708D02*
X111257558Y-118811375D01*
X110995653Y-117944708D02*
X111257558Y-118811375D01*
X111362319Y-119120899D01*
X111414700Y-119182803D01*
X111519462Y-119244708D01*
X110157558Y-118749470D02*
X110262319Y-118811375D01*
X110471843Y-118811375D01*
X110576605Y-118749470D01*
X110628986Y-118625660D01*
X110628986Y-118130422D01*
X110576605Y-118006613D01*
X110471843Y-117944708D01*
X110262319Y-117944708D01*
X110157558Y-118006613D01*
X110105177Y-118130422D01*
X110105177Y-118254232D01*
X110628986Y-118378041D01*
X109162319Y-118811375D02*
X109162319Y-117511375D01*
X109162319Y-118749470D02*
X109267081Y-118811375D01*
X109476605Y-118811375D01*
X109581367Y-118749470D01*
X109633748Y-118687565D01*
X109686129Y-118563756D01*
X109686129Y-118192327D01*
X109633748Y-118068518D01*
X109581367Y-118006613D01*
X109476605Y-117944708D01*
X109267081Y-117944708D01*
X109162319Y-118006613D01*
X107800415Y-118811375D02*
X107800415Y-117511375D01*
X107800415Y-118006613D02*
X107695653Y-117944708D01*
X107486129Y-117944708D01*
X107381367Y-118006613D01*
X107328986Y-118068518D01*
X107276605Y-118192327D01*
X107276605Y-118563756D01*
X107328986Y-118687565D01*
X107381367Y-118749470D01*
X107486129Y-118811375D01*
X107695653Y-118811375D01*
X107800415Y-118749470D01*
X106909939Y-117944708D02*
X106648034Y-118811375D01*
X106386129Y-117944708D02*
X106648034Y-118811375D01*
X106752796Y-119120899D01*
X106805177Y-119182803D01*
X106909939Y-119244708D01*
X104657558Y-118811375D02*
X104657558Y-118130422D01*
X104709939Y-118006613D01*
X104814700Y-117944708D01*
X105024224Y-117944708D01*
X105128986Y-118006613D01*
X104657558Y-118749470D02*
X104762319Y-118811375D01*
X105024224Y-118811375D01*
X105128986Y-118749470D01*
X105181367Y-118625660D01*
X105181367Y-118501851D01*
X105128986Y-118378041D01*
X105024224Y-118316137D01*
X104762319Y-118316137D01*
X104657558Y-118254232D01*
X103295653Y-118811375D02*
X103295653Y-117511375D01*
X103295653Y-118006613D02*
X103190891Y-117944708D01*
X102981367Y-117944708D01*
X102876605Y-118006613D01*
X102824224Y-118068518D01*
X102771843Y-118192327D01*
X102771843Y-118563756D01*
X102824224Y-118687565D01*
X102876605Y-118749470D01*
X102981367Y-118811375D01*
X103190891Y-118811375D01*
X103295653Y-118749470D01*
X101828986Y-117944708D02*
X101828986Y-118811375D01*
X102300415Y-117944708D02*
X102300415Y-118625660D01*
X102248034Y-118749470D01*
X102143272Y-118811375D01*
X101986129Y-118811375D01*
X101881367Y-118749470D01*
X101828986Y-118687565D01*
X101305177Y-118811375D02*
X101305177Y-117511375D01*
X101305177Y-118006613D02*
X101200415Y-117944708D01*
X100990891Y-117944708D01*
X100886129Y-118006613D01*
X100833748Y-118068518D01*
X100781367Y-118192327D01*
X100781367Y-118563756D01*
X100833748Y-118687565D01*
X100886129Y-118749470D01*
X100990891Y-118811375D01*
X101200415Y-118811375D01*
X101305177Y-118749470D01*
X100309939Y-118811375D02*
X100309939Y-117511375D01*
X100309939Y-118006613D02*
X100205177Y-117944708D01*
X99995653Y-117944708D01*
X99890891Y-118006613D01*
X99838510Y-118068518D01*
X99786129Y-118192327D01*
X99786129Y-118563756D01*
X99838510Y-118687565D01*
X99890891Y-118749470D01*
X99995653Y-118811375D01*
X100205177Y-118811375D01*
X100309939Y-118749470D01*
X99157558Y-118811375D02*
X99262319Y-118749470D01*
X99314700Y-118625660D01*
X99314700Y-117511375D01*
X98319462Y-118749470D02*
X98424224Y-118811375D01*
X98633748Y-118811375D01*
X98738510Y-118749470D01*
X98790891Y-118625660D01*
X98790891Y-118130422D01*
X98738510Y-118006613D01*
X98633748Y-117944708D01*
X98424224Y-117944708D01*
X98319462Y-118006613D01*
X98267081Y-118130422D01*
X98267081Y-118254232D01*
X98790891Y-118378041D01*
X96800415Y-118811375D02*
X96905177Y-118749470D01*
X96957558Y-118687565D01*
X97009939Y-118563756D01*
X97009939Y-118192327D01*
X96957558Y-118068518D01*
X96905177Y-118006613D01*
X96800415Y-117944708D01*
X96643272Y-117944708D01*
X96538510Y-118006613D01*
X96486129Y-118068518D01*
X96433748Y-118192327D01*
X96433748Y-118563756D01*
X96486129Y-118687565D01*
X96538510Y-118749470D01*
X96643272Y-118811375D01*
X96800415Y-118811375D01*
X95962319Y-118811375D02*
X95962319Y-117944708D01*
X95962319Y-118192327D02*
X95909939Y-118068518D01*
X95857558Y-118006613D01*
X95752796Y-117944708D01*
X95648034Y-117944708D01*
X94443272Y-118811375D02*
X94443272Y-117511375D01*
X94443272Y-118006613D02*
X94338510Y-117944708D01*
X94128986Y-117944708D01*
X94024224Y-118006613D01*
X93971843Y-118068518D01*
X93919462Y-118192327D01*
X93919462Y-118563756D01*
X93971843Y-118687565D01*
X94024224Y-118749470D01*
X94128986Y-118811375D01*
X94338510Y-118811375D01*
X94443272Y-118749470D01*
X93552796Y-117944708D02*
X93290891Y-118811375D01*
X93028986Y-117944708D02*
X93290891Y-118811375D01*
X93395653Y-119120899D01*
X93448034Y-119182803D01*
X93552796Y-119244708D01*
X91300415Y-118811375D02*
X91300415Y-118130422D01*
X91352796Y-118006613D01*
X91457558Y-117944708D01*
X91667081Y-117944708D01*
X91771843Y-118006613D01*
X91300415Y-118749470D02*
X91405177Y-118811375D01*
X91667081Y-118811375D01*
X91771843Y-118749470D01*
X91824224Y-118625660D01*
X91824224Y-118501851D01*
X91771843Y-118378041D01*
X91667081Y-118316137D01*
X91405177Y-118316137D01*
X91300415Y-118254232D01*
X90776605Y-117944708D02*
X90776605Y-118811375D01*
X90776605Y-118068518D02*
X90724224Y-118006613D01*
X90619462Y-117944708D01*
X90462319Y-117944708D01*
X90357558Y-118006613D01*
X90305177Y-118130422D01*
X90305177Y-118811375D01*
X88471843Y-118811375D02*
X88471843Y-118130422D01*
X88524224Y-118006613D01*
X88628986Y-117944708D01*
X88838510Y-117944708D01*
X88943272Y-118006613D01*
X88471843Y-118749470D02*
X88576605Y-118811375D01*
X88838510Y-118811375D01*
X88943272Y-118749470D01*
X88995653Y-118625660D01*
X88995653Y-118501851D01*
X88943272Y-118378041D01*
X88838510Y-118316137D01*
X88576605Y-118316137D01*
X88471843Y-118254232D01*
X87476605Y-118749470D02*
X87581367Y-118811375D01*
X87790891Y-118811375D01*
X87895653Y-118749470D01*
X87948034Y-118687565D01*
X88000415Y-118563756D01*
X88000415Y-118192327D01*
X87948034Y-118068518D01*
X87895653Y-118006613D01*
X87790891Y-117944708D01*
X87581367Y-117944708D01*
X87476605Y-118006613D01*
X86533748Y-118749470D02*
X86638510Y-118811375D01*
X86848034Y-118811375D01*
X86952796Y-118749470D01*
X87005177Y-118687565D01*
X87057558Y-118563756D01*
X87057558Y-118192327D01*
X87005177Y-118068518D01*
X86952796Y-118006613D01*
X86848034Y-117944708D01*
X86638510Y-117944708D01*
X86533748Y-118006613D01*
X86062319Y-118811375D02*
X86062319Y-117944708D01*
X86062319Y-117511375D02*
X86114700Y-117573280D01*
X86062319Y-117635184D01*
X86009939Y-117573280D01*
X86062319Y-117511375D01*
X86062319Y-117635184D01*
X85067081Y-118811375D02*
X85067081Y-117511375D01*
X85067081Y-118749470D02*
X85171843Y-118811375D01*
X85381367Y-118811375D01*
X85486129Y-118749470D01*
X85538510Y-118687565D01*
X85590891Y-118563756D01*
X85590891Y-118192327D01*
X85538510Y-118068518D01*
X85486129Y-118006613D01*
X85381367Y-117944708D01*
X85171843Y-117944708D01*
X85067081Y-118006613D01*
X84124224Y-118749470D02*
X84228986Y-118811375D01*
X84438510Y-118811375D01*
X84543272Y-118749470D01*
X84595653Y-118625660D01*
X84595653Y-118130422D01*
X84543272Y-118006613D01*
X84438510Y-117944708D01*
X84228986Y-117944708D01*
X84124224Y-118006613D01*
X84071843Y-118130422D01*
X84071843Y-118254232D01*
X84595653Y-118378041D01*
X83600415Y-117944708D02*
X83600415Y-118811375D01*
X83600415Y-118068518D02*
X83548034Y-118006613D01*
X83443272Y-117944708D01*
X83286129Y-117944708D01*
X83181367Y-118006613D01*
X83128986Y-118130422D01*
X83128986Y-118811375D01*
X82762319Y-117944708D02*
X82343272Y-117944708D01*
X82605177Y-117511375D02*
X82605177Y-118625660D01*
X82552796Y-118749470D01*
X82448034Y-118811375D01*
X82343272Y-118811375D01*
D11*
X142289600Y-104689473D02*
X142156266Y-104589473D01*
X142022933Y-104689473D01*
X140856266Y-105256140D02*
X140889600Y-105289473D01*
X140989600Y-105322806D01*
X141056266Y-105322806D01*
X141156266Y-105289473D01*
X141222933Y-105222806D01*
X141256266Y-105156140D01*
X141289600Y-105022806D01*
X141289600Y-104922806D01*
X141256266Y-104789473D01*
X141222933Y-104722806D01*
X141156266Y-104656140D01*
X141056266Y-104622806D01*
X140989600Y-104622806D01*
X140889600Y-104656140D01*
X140856266Y-104689473D01*
X140556266Y-104622806D02*
X140556266Y-105189473D01*
X140522933Y-105256140D01*
X140489600Y-105289473D01*
X140422933Y-105322806D01*
X140289600Y-105322806D01*
X140222933Y-105289473D01*
X140189600Y-105256140D01*
X140156266Y-105189473D01*
X140156266Y-104622806D01*
X139922933Y-104622806D02*
X139522933Y-104622806D01*
X139722933Y-105322806D02*
X139722933Y-104622806D01*
X138422933Y-105322806D02*
X138756266Y-105322806D01*
X138756266Y-104622806D01*
X138189600Y-105322806D02*
X138189600Y-104622806D01*
X137856266Y-105322806D02*
X137856266Y-104622806D01*
X137456266Y-105322806D01*
X137456266Y-104622806D01*
X137122933Y-104956140D02*
X136889600Y-104956140D01*
X136789600Y-105322806D02*
X137122933Y-105322806D01*
X137122933Y-104622806D01*
X136789600Y-104622806D01*
X136056266Y-104689473D02*
X135922933Y-104589473D01*
X135789600Y-104689473D01*
X134424280Y-97950280D02*
X134890946Y-98116946D01*
X134424280Y-98283613D01*
X134824280Y-99483613D02*
X134857613Y-99450280D01*
X134890946Y-99350280D01*
X134890946Y-99283613D01*
X134857613Y-99183613D01*
X134790946Y-99116946D01*
X134724280Y-99083613D01*
X134590946Y-99050280D01*
X134490946Y-99050280D01*
X134357613Y-99083613D01*
X134290946Y-99116946D01*
X134224280Y-99183613D01*
X134190946Y-99283613D01*
X134190946Y-99350280D01*
X134224280Y-99450280D01*
X134257613Y-99483613D01*
X134190946Y-99783613D02*
X134757613Y-99783613D01*
X134824280Y-99816946D01*
X134857613Y-99850280D01*
X134890946Y-99916946D01*
X134890946Y-100050280D01*
X134857613Y-100116946D01*
X134824280Y-100150280D01*
X134757613Y-100183613D01*
X134190946Y-100183613D01*
X134190946Y-100416946D02*
X134190946Y-100816946D01*
X134890946Y-100616946D02*
X134190946Y-100616946D01*
X134890946Y-101916946D02*
X134890946Y-101583613D01*
X134190946Y-101583613D01*
X134890946Y-102150280D02*
X134190946Y-102150280D01*
X134890946Y-102483613D02*
X134190946Y-102483613D01*
X134890946Y-102883613D01*
X134190946Y-102883613D01*
X134524280Y-103216946D02*
X134524280Y-103450280D01*
X134890946Y-103550280D02*
X134890946Y-103216946D01*
X134190946Y-103216946D01*
X134190946Y-103550280D01*
X134424280Y-104316946D02*
X134890946Y-104483613D01*
X134424280Y-104650280D01*
X156288665Y-98507800D02*
X156098189Y-98507800D01*
X156002951Y-98555420D01*
X155907713Y-98650658D01*
X155860094Y-98841134D01*
X155860094Y-99174467D01*
X155907713Y-99364943D01*
X156002951Y-99460181D01*
X156098189Y-99507800D01*
X156288665Y-99507800D01*
X156383903Y-99460181D01*
X156479141Y-99364943D01*
X156526760Y-99174467D01*
X156526760Y-98841134D01*
X156479141Y-98650658D01*
X156383903Y-98555420D01*
X156288665Y-98507800D01*
X155431522Y-98841134D02*
X155431522Y-99841134D01*
X155431522Y-98888753D02*
X155336284Y-98841134D01*
X155145808Y-98841134D01*
X155050570Y-98888753D01*
X155002951Y-98936372D01*
X154955332Y-99031610D01*
X154955332Y-99317324D01*
X155002951Y-99412562D01*
X155050570Y-99460181D01*
X155145808Y-99507800D01*
X155336284Y-99507800D01*
X155431522Y-99460181D01*
X154669618Y-98841134D02*
X154288665Y-98841134D01*
X154526760Y-98507800D02*
X154526760Y-99364943D01*
X154479141Y-99460181D01*
X154383903Y-99507800D01*
X154288665Y-99507800D01*
X153955332Y-99507800D02*
X153955332Y-98841134D01*
X153955332Y-98507800D02*
X154002951Y-98555420D01*
X153955332Y-98603039D01*
X153907713Y-98555420D01*
X153955332Y-98507800D01*
X153955332Y-98603039D01*
X153336284Y-99507800D02*
X153431522Y-99460181D01*
X153479141Y-99412562D01*
X153526760Y-99317324D01*
X153526760Y-99031610D01*
X153479141Y-98936372D01*
X153431522Y-98888753D01*
X153336284Y-98841134D01*
X153193427Y-98841134D01*
X153098189Y-98888753D01*
X153050570Y-98936372D01*
X153002951Y-99031610D01*
X153002951Y-99317324D01*
X153050570Y-99412562D01*
X153098189Y-99460181D01*
X153193427Y-99507800D01*
X153336284Y-99507800D01*
X152574380Y-98841134D02*
X152574380Y-99507800D01*
X152574380Y-98936372D02*
X152526760Y-98888753D01*
X152431522Y-98841134D01*
X152288665Y-98841134D01*
X152193427Y-98888753D01*
X152145808Y-98983991D01*
X152145808Y-99507800D01*
X151241046Y-99507800D02*
X151241046Y-98983991D01*
X151288665Y-98888753D01*
X151383903Y-98841134D01*
X151574380Y-98841134D01*
X151669618Y-98888753D01*
X151241046Y-99460181D02*
X151336284Y-99507800D01*
X151574380Y-99507800D01*
X151669618Y-99460181D01*
X151717237Y-99364943D01*
X151717237Y-99269705D01*
X151669618Y-99174467D01*
X151574380Y-99126848D01*
X151336284Y-99126848D01*
X151241046Y-99079229D01*
X150621999Y-99507800D02*
X150717237Y-99460181D01*
X150764856Y-99364943D01*
X150764856Y-98507800D01*
X149479141Y-98507800D02*
X149479141Y-99317324D01*
X149431522Y-99412562D01*
X149383903Y-99460181D01*
X149288665Y-99507800D01*
X149098189Y-99507800D01*
X149002951Y-99460181D01*
X148955332Y-99412562D01*
X148907713Y-99317324D01*
X148907713Y-98507800D01*
X148526760Y-98507800D02*
X147860094Y-98507800D01*
X148288665Y-99507800D01*
X146717237Y-98983991D02*
X146383903Y-98983991D01*
X146241046Y-99507800D02*
X146717237Y-99507800D01*
X146717237Y-98507800D01*
X146241046Y-98507800D01*
X145907713Y-99507800D02*
X145383903Y-98841134D01*
X145907713Y-98841134D02*
X145383903Y-99507800D01*
X145002951Y-98841134D02*
X145002951Y-99841134D01*
X145002951Y-98888753D02*
X144907713Y-98841134D01*
X144717237Y-98841134D01*
X144621999Y-98888753D01*
X144574380Y-98936372D01*
X144526760Y-99031610D01*
X144526760Y-99317324D01*
X144574380Y-99412562D01*
X144621999Y-99460181D01*
X144717237Y-99507800D01*
X144907713Y-99507800D01*
X145002951Y-99460181D01*
X143669618Y-99507800D02*
X143669618Y-98983991D01*
X143717237Y-98888753D01*
X143812475Y-98841134D01*
X144002951Y-98841134D01*
X144098189Y-98888753D01*
X143669618Y-99460181D02*
X143764856Y-99507800D01*
X144002951Y-99507800D01*
X144098189Y-99460181D01*
X144145808Y-99364943D01*
X144145808Y-99269705D01*
X144098189Y-99174467D01*
X144002951Y-99126848D01*
X143764856Y-99126848D01*
X143669618Y-99079229D01*
X143193427Y-98841134D02*
X143193427Y-99507800D01*
X143193427Y-98936372D02*
X143145808Y-98888753D01*
X143050570Y-98841134D01*
X142907713Y-98841134D01*
X142812475Y-98888753D01*
X142764856Y-98983991D01*
X142764856Y-99507800D01*
X142336284Y-99460181D02*
X142241046Y-99507800D01*
X142050570Y-99507800D01*
X141955332Y-99460181D01*
X141907713Y-99364943D01*
X141907713Y-99317324D01*
X141955332Y-99222086D01*
X142050570Y-99174467D01*
X142193427Y-99174467D01*
X142288665Y-99126848D01*
X142336284Y-99031610D01*
X142336284Y-98983991D01*
X142288665Y-98888753D01*
X142193427Y-98841134D01*
X142050570Y-98841134D01*
X141955332Y-98888753D01*
X141479141Y-99507800D02*
X141479141Y-98841134D01*
X141479141Y-98507800D02*
X141526760Y-98555420D01*
X141479141Y-98603039D01*
X141431522Y-98555420D01*
X141479141Y-98507800D01*
X141479141Y-98603039D01*
X140860094Y-99507800D02*
X140955332Y-99460181D01*
X141002951Y-99412562D01*
X141050570Y-99317324D01*
X141050570Y-99031610D01*
X141002951Y-98936372D01*
X140955332Y-98888753D01*
X140860094Y-98841134D01*
X140717237Y-98841134D01*
X140621999Y-98888753D01*
X140574380Y-98936372D01*
X140526760Y-99031610D01*
X140526760Y-99317324D01*
X140574380Y-99412562D01*
X140621999Y-99460181D01*
X140717237Y-99507800D01*
X140860094Y-99507800D01*
X140098189Y-98841134D02*
X140098189Y-99507800D01*
X140098189Y-98936372D02*
X140050570Y-98888753D01*
X139955332Y-98841134D01*
X139812475Y-98841134D01*
X139717237Y-98888753D01*
X139669618Y-98983991D01*
X139669618Y-99507800D01*
X155955332Y-101157800D02*
X155955332Y-100633991D01*
X156002951Y-100538753D01*
X156098189Y-100491134D01*
X156288665Y-100491134D01*
X156383903Y-100538753D01*
X155955332Y-101110181D02*
X156050570Y-101157800D01*
X156288665Y-101157800D01*
X156383903Y-101110181D01*
X156431522Y-101014943D01*
X156431522Y-100919705D01*
X156383903Y-100824467D01*
X156288665Y-100776848D01*
X156050570Y-100776848D01*
X155955332Y-100729229D01*
X155479141Y-100491134D02*
X155479141Y-101157800D01*
X155479141Y-100586372D02*
X155431522Y-100538753D01*
X155336284Y-100491134D01*
X155193427Y-100491134D01*
X155098189Y-100538753D01*
X155050570Y-100633991D01*
X155050570Y-101157800D01*
X154145808Y-101157800D02*
X154145808Y-100157800D01*
X154145808Y-101110181D02*
X154241046Y-101157800D01*
X154431522Y-101157800D01*
X154526760Y-101110181D01*
X154574380Y-101062562D01*
X154621999Y-100967324D01*
X154621999Y-100681610D01*
X154574380Y-100586372D01*
X154526760Y-100538753D01*
X154431522Y-100491134D01*
X154241046Y-100491134D01*
X154145808Y-100538753D01*
X152907713Y-101157800D02*
X152907713Y-100491134D01*
X152907713Y-100586372D02*
X152860094Y-100538753D01*
X152764856Y-100491134D01*
X152621999Y-100491134D01*
X152526760Y-100538753D01*
X152479141Y-100633991D01*
X152479141Y-101157800D01*
X152479141Y-100633991D02*
X152431522Y-100538753D01*
X152336284Y-100491134D01*
X152193427Y-100491134D01*
X152098189Y-100538753D01*
X152050570Y-100633991D01*
X152050570Y-101157800D01*
X151145808Y-100491134D02*
X151145808Y-101157800D01*
X151574380Y-100491134D02*
X151574380Y-101014943D01*
X151526760Y-101110181D01*
X151431522Y-101157800D01*
X151288665Y-101157800D01*
X151193427Y-101110181D01*
X151145808Y-101062562D01*
X150717237Y-101110181D02*
X150621999Y-101157800D01*
X150431522Y-101157800D01*
X150336284Y-101110181D01*
X150288665Y-101014943D01*
X150288665Y-100967324D01*
X150336284Y-100872086D01*
X150431522Y-100824467D01*
X150574380Y-100824467D01*
X150669618Y-100776848D01*
X150717237Y-100681610D01*
X150717237Y-100633991D01*
X150669618Y-100538753D01*
X150574380Y-100491134D01*
X150431522Y-100491134D01*
X150336284Y-100538753D01*
X150002951Y-100491134D02*
X149621999Y-100491134D01*
X149860094Y-100157800D02*
X149860094Y-101014943D01*
X149812475Y-101110181D01*
X149717237Y-101157800D01*
X149621999Y-101157800D01*
X148526760Y-101157800D02*
X148526760Y-100157800D01*
X148526760Y-100538753D02*
X148431522Y-100491134D01*
X148241046Y-100491134D01*
X148145808Y-100538753D01*
X148098189Y-100586372D01*
X148050570Y-100681610D01*
X148050570Y-100967324D01*
X148098189Y-101062562D01*
X148145808Y-101110181D01*
X148241046Y-101157800D01*
X148431522Y-101157800D01*
X148526760Y-101110181D01*
X147241046Y-101110181D02*
X147336284Y-101157800D01*
X147526760Y-101157800D01*
X147621999Y-101110181D01*
X147669618Y-101014943D01*
X147669618Y-100633991D01*
X147621999Y-100538753D01*
X147526760Y-100491134D01*
X147336284Y-100491134D01*
X147241046Y-100538753D01*
X147193427Y-100633991D01*
X147193427Y-100729229D01*
X147669618Y-100824467D01*
X145574380Y-101110181D02*
X145669618Y-101157800D01*
X145860094Y-101157800D01*
X145955332Y-101110181D01*
X146002951Y-101062562D01*
X146050570Y-100967324D01*
X146050570Y-100681610D01*
X146002951Y-100586372D01*
X145955332Y-100538753D01*
X145860094Y-100491134D01*
X145669618Y-100491134D01*
X145574380Y-100538753D01*
X144717237Y-100491134D02*
X144717237Y-101157800D01*
X145145808Y-100491134D02*
X145145808Y-101014943D01*
X145098189Y-101110181D01*
X145002951Y-101157800D01*
X144860094Y-101157800D01*
X144764856Y-101110181D01*
X144717237Y-101062562D01*
X144383903Y-100491134D02*
X144002951Y-100491134D01*
X144241046Y-100157800D02*
X144241046Y-101014943D01*
X144193427Y-101110181D01*
X144098189Y-101157800D01*
X144002951Y-101157800D01*
X142479141Y-101157800D02*
X142479141Y-100633991D01*
X142526760Y-100538753D01*
X142621999Y-100491134D01*
X142812475Y-100491134D01*
X142907713Y-100538753D01*
X142479141Y-101110181D02*
X142574380Y-101157800D01*
X142812475Y-101157800D01*
X142907713Y-101110181D01*
X142955332Y-101014943D01*
X142955332Y-100919705D01*
X142907713Y-100824467D01*
X142812475Y-100776848D01*
X142574380Y-100776848D01*
X142479141Y-100729229D01*
X142098189Y-100491134D02*
X141907713Y-101157800D01*
X141717237Y-100681610D01*
X141526760Y-101157800D01*
X141336284Y-100491134D01*
X140526760Y-101157800D02*
X140526760Y-100633991D01*
X140574380Y-100538753D01*
X140669618Y-100491134D01*
X140860094Y-100491134D01*
X140955332Y-100538753D01*
X140526760Y-101110181D02*
X140621999Y-101157800D01*
X140860094Y-101157800D01*
X140955332Y-101110181D01*
X141002951Y-101014943D01*
X141002951Y-100919705D01*
X140955332Y-100824467D01*
X140860094Y-100776848D01*
X140621999Y-100776848D01*
X140526760Y-100729229D01*
X140145808Y-100491134D02*
X139907713Y-101157800D01*
X139669618Y-100491134D02*
X139907713Y-101157800D01*
X140002951Y-101395896D01*
X140050570Y-101443515D01*
X140145808Y-101491134D01*
X162396342Y-98630900D02*
X162396342Y-102100139D01*
X162396342Y-102100139D02*
X158607162Y-102100139D01*
X158605220Y-102097599D02*
X143832800Y-102097599D01*
X143836671Y-102097599D02*
X143836671Y-104170478D01*
X143841881Y-104174090D02*
X135105901Y-104166470D01*
X135102100Y-104171770D02*
X135102100Y-97849710D01*
D12*
X158698324Y-102680432D02*
X158804991Y-102489956D01*
X158881181Y-102680432D02*
X158881181Y-102280432D01*
X158759277Y-102280432D01*
X158728800Y-102299480D01*
X158713562Y-102318527D01*
X158698324Y-102356622D01*
X158698324Y-102413765D01*
X158713562Y-102451860D01*
X158728800Y-102470908D01*
X158759277Y-102489956D01*
X158881181Y-102489956D01*
X158439277Y-102661384D02*
X158469753Y-102680432D01*
X158530705Y-102680432D01*
X158561181Y-102661384D01*
X158576420Y-102623289D01*
X158576420Y-102470908D01*
X158561181Y-102432813D01*
X158530705Y-102413765D01*
X158469753Y-102413765D01*
X158439277Y-102432813D01*
X158424039Y-102470908D01*
X158424039Y-102509003D01*
X158576420Y-102547099D01*
X158149753Y-102413765D02*
X158149753Y-102813765D01*
X158149753Y-102661384D02*
X158180229Y-102680432D01*
X158241181Y-102680432D01*
X158271658Y-102661384D01*
X158286896Y-102642337D01*
X158302134Y-102604241D01*
X158302134Y-102489956D01*
X158286896Y-102451860D01*
X158271658Y-102432813D01*
X158241181Y-102413765D01*
X158180229Y-102413765D01*
X158149753Y-102432813D01*
X157860229Y-102413765D02*
X157860229Y-102680432D01*
X157997372Y-102413765D02*
X157997372Y-102623289D01*
X157982134Y-102661384D01*
X157951658Y-102680432D01*
X157905943Y-102680432D01*
X157875467Y-102661384D01*
X157860229Y-102642337D01*
X157707848Y-102680432D02*
X157707848Y-102413765D01*
X157707848Y-102280432D02*
X157723086Y-102299480D01*
X157707848Y-102318527D01*
X157692610Y-102299480D01*
X157707848Y-102280432D01*
X157707848Y-102318527D01*
X157555467Y-102680432D02*
X157555467Y-102413765D01*
X157555467Y-102489956D02*
X157540229Y-102451860D01*
X157524991Y-102432813D01*
X157494515Y-102413765D01*
X157464039Y-102413765D01*
X157235467Y-102661384D02*
X157265943Y-102680432D01*
X157326896Y-102680432D01*
X157357372Y-102661384D01*
X157372610Y-102623289D01*
X157372610Y-102470908D01*
X157357372Y-102432813D01*
X157326896Y-102413765D01*
X157265943Y-102413765D01*
X157235467Y-102432813D01*
X157220229Y-102470908D01*
X157220229Y-102509003D01*
X157372610Y-102547099D01*
X156945943Y-102680432D02*
X156945943Y-102280432D01*
X156945943Y-102661384D02*
X156976420Y-102680432D01*
X157037372Y-102680432D01*
X157067848Y-102661384D01*
X157083086Y-102642337D01*
X157098324Y-102604241D01*
X157098324Y-102489956D01*
X157083086Y-102451860D01*
X157067848Y-102432813D01*
X157037372Y-102413765D01*
X156976420Y-102413765D01*
X156945943Y-102432813D01*
X156793562Y-102642337D02*
X156778324Y-102661384D01*
X156793562Y-102680432D01*
X156808800Y-102661384D01*
X156793562Y-102642337D01*
X156793562Y-102680432D01*
X156793562Y-102432813D02*
X156778324Y-102451860D01*
X156793562Y-102470908D01*
X156808800Y-102451860D01*
X156793562Y-102432813D01*
X156793562Y-102470908D01*
X156214515Y-102642337D02*
X156229753Y-102661384D01*
X156275467Y-102680432D01*
X156305943Y-102680432D01*
X156351658Y-102661384D01*
X156382134Y-102623289D01*
X156397372Y-102585194D01*
X156412610Y-102509003D01*
X156412610Y-102451860D01*
X156397372Y-102375670D01*
X156382134Y-102337575D01*
X156351658Y-102299480D01*
X156305943Y-102280432D01*
X156275467Y-102280432D01*
X156229753Y-102299480D01*
X156214515Y-102318527D01*
X155940229Y-102680432D02*
X155940229Y-102470908D01*
X155955467Y-102432813D01*
X155985943Y-102413765D01*
X156046896Y-102413765D01*
X156077372Y-102432813D01*
X155940229Y-102661384D02*
X155970705Y-102680432D01*
X156046896Y-102680432D01*
X156077372Y-102661384D01*
X156092610Y-102623289D01*
X156092610Y-102585194D01*
X156077372Y-102547099D01*
X156046896Y-102528051D01*
X155970705Y-102528051D01*
X155940229Y-102509003D01*
X155787848Y-102680432D02*
X155787848Y-102413765D01*
X155787848Y-102489956D02*
X155772610Y-102451860D01*
X155757372Y-102432813D01*
X155726896Y-102413765D01*
X155696420Y-102413765D01*
X155467848Y-102661384D02*
X155498324Y-102680432D01*
X155559277Y-102680432D01*
X155589753Y-102661384D01*
X155604991Y-102623289D01*
X155604991Y-102470908D01*
X155589753Y-102432813D01*
X155559277Y-102413765D01*
X155498324Y-102413765D01*
X155467848Y-102432813D01*
X155452610Y-102470908D01*
X155452610Y-102509003D01*
X155604991Y-102547099D01*
X155361181Y-102413765D02*
X155239277Y-102413765D01*
X155315467Y-102680432D02*
X155315467Y-102337575D01*
X155300229Y-102299480D01*
X155269753Y-102280432D01*
X155239277Y-102280432D01*
X154995467Y-102413765D02*
X154995467Y-102680432D01*
X155132610Y-102413765D02*
X155132610Y-102623289D01*
X155117372Y-102661384D01*
X155086896Y-102680432D01*
X155041181Y-102680432D01*
X155010705Y-102661384D01*
X154995467Y-102642337D01*
X154797372Y-102680432D02*
X154827848Y-102661384D01*
X154843086Y-102623289D01*
X154843086Y-102280432D01*
X154629753Y-102680432D02*
X154660229Y-102661384D01*
X154675467Y-102623289D01*
X154675467Y-102280432D01*
X154538324Y-102413765D02*
X154462134Y-102680432D01*
X154385943Y-102413765D02*
X154462134Y-102680432D01*
X154492610Y-102775670D01*
X154507848Y-102794718D01*
X154538324Y-102813765D01*
X153883086Y-102661384D02*
X153913562Y-102680432D01*
X153974515Y-102680432D01*
X154004991Y-102661384D01*
X154020229Y-102642337D01*
X154035467Y-102604241D01*
X154035467Y-102489956D01*
X154020229Y-102451860D01*
X154004991Y-102432813D01*
X153974515Y-102413765D01*
X153913562Y-102413765D01*
X153883086Y-102432813D01*
X153608800Y-102413765D02*
X153608800Y-102680432D01*
X153745943Y-102413765D02*
X153745943Y-102623289D01*
X153730705Y-102661384D01*
X153700229Y-102680432D01*
X153654515Y-102680432D01*
X153624039Y-102661384D01*
X153608800Y-102642337D01*
X153502134Y-102413765D02*
X153380229Y-102413765D01*
X153456420Y-102280432D02*
X153456420Y-102623289D01*
X153441181Y-102661384D01*
X153410705Y-102680432D01*
X153380229Y-102680432D01*
X153075467Y-102413765D02*
X152953562Y-102413765D01*
X153029753Y-102280432D02*
X153029753Y-102623289D01*
X153014515Y-102661384D01*
X152984039Y-102680432D01*
X152953562Y-102680432D01*
X152846896Y-102680432D02*
X152846896Y-102280432D01*
X152709753Y-102680432D02*
X152709753Y-102470908D01*
X152724991Y-102432813D01*
X152755467Y-102413765D01*
X152801181Y-102413765D01*
X152831658Y-102432813D01*
X152846896Y-102451860D01*
X152557372Y-102680432D02*
X152557372Y-102413765D01*
X152557372Y-102280432D02*
X152572610Y-102299480D01*
X152557372Y-102318527D01*
X152542134Y-102299480D01*
X152557372Y-102280432D01*
X152557372Y-102318527D01*
X152420229Y-102661384D02*
X152389753Y-102680432D01*
X152328800Y-102680432D01*
X152298324Y-102661384D01*
X152283086Y-102623289D01*
X152283086Y-102604241D01*
X152298324Y-102566146D01*
X152328800Y-102547099D01*
X152374515Y-102547099D01*
X152404991Y-102528051D01*
X152420229Y-102489956D01*
X152420229Y-102470908D01*
X152404991Y-102432813D01*
X152374515Y-102413765D01*
X152328800Y-102413765D01*
X152298324Y-102432813D01*
X151947848Y-102318527D02*
X151886896Y-102261384D01*
X151825943Y-102318527D01*
X151475467Y-102413765D02*
X151475467Y-102813765D01*
X151475467Y-102432813D02*
X151444991Y-102413765D01*
X151384039Y-102413765D01*
X151353562Y-102432813D01*
X151338324Y-102451860D01*
X151323086Y-102489956D01*
X151323086Y-102604241D01*
X151338324Y-102642337D01*
X151353562Y-102661384D01*
X151384039Y-102680432D01*
X151444991Y-102680432D01*
X151475467Y-102661384D01*
X151185943Y-102680432D02*
X151185943Y-102413765D01*
X151185943Y-102280432D02*
X151201181Y-102299480D01*
X151185943Y-102318527D01*
X151170705Y-102299480D01*
X151185943Y-102280432D01*
X151185943Y-102318527D01*
X150911658Y-102661384D02*
X150942134Y-102680432D01*
X151003086Y-102680432D01*
X151033562Y-102661384D01*
X151048800Y-102623289D01*
X151048800Y-102470908D01*
X151033562Y-102432813D01*
X151003086Y-102413765D01*
X150942134Y-102413765D01*
X150911658Y-102432813D01*
X150896419Y-102470908D01*
X150896419Y-102509003D01*
X151048800Y-102547099D01*
X150622134Y-102661384D02*
X150652610Y-102680432D01*
X150713562Y-102680432D01*
X150744039Y-102661384D01*
X150759277Y-102642337D01*
X150774515Y-102604241D01*
X150774515Y-102489956D01*
X150759277Y-102451860D01*
X150744039Y-102432813D01*
X150713562Y-102413765D01*
X150652610Y-102413765D01*
X150622134Y-102432813D01*
X150363086Y-102661384D02*
X150393562Y-102680432D01*
X150454515Y-102680432D01*
X150484991Y-102661384D01*
X150500229Y-102623289D01*
X150500229Y-102470908D01*
X150484991Y-102432813D01*
X150454515Y-102413765D01*
X150393562Y-102413765D01*
X150363086Y-102432813D01*
X150347848Y-102470908D01*
X150347848Y-102509003D01*
X150500229Y-102547099D01*
X149921181Y-102680432D02*
X149951658Y-102661384D01*
X149966896Y-102642337D01*
X149982134Y-102604241D01*
X149982134Y-102489956D01*
X149966896Y-102451860D01*
X149951658Y-102432813D01*
X149921181Y-102413765D01*
X149875467Y-102413765D01*
X149844991Y-102432813D01*
X149829753Y-102451860D01*
X149814515Y-102489956D01*
X149814515Y-102604241D01*
X149829753Y-102642337D01*
X149844991Y-102661384D01*
X149875467Y-102680432D01*
X149921181Y-102680432D01*
X149723086Y-102413765D02*
X149601181Y-102413765D01*
X149677372Y-102680432D02*
X149677372Y-102337575D01*
X149662134Y-102299480D01*
X149631658Y-102280432D01*
X149601181Y-102280432D01*
X149540229Y-102413765D02*
X149418324Y-102413765D01*
X149494515Y-102680432D02*
X149494515Y-102337575D01*
X149479277Y-102299480D01*
X149448800Y-102280432D01*
X149418324Y-102280432D01*
X149311658Y-102642337D02*
X149296419Y-102661384D01*
X149311658Y-102680432D01*
X149326896Y-102661384D01*
X149311658Y-102642337D01*
X149311658Y-102680432D01*
X148671658Y-102680432D02*
X148671658Y-102280432D01*
X148564991Y-102413765D02*
X148443086Y-102413765D01*
X148519277Y-102280432D02*
X148519277Y-102623289D01*
X148504039Y-102661384D01*
X148473562Y-102680432D01*
X148443086Y-102680432D01*
X148092610Y-102680432D02*
X148092610Y-102413765D01*
X148092610Y-102280432D02*
X148107848Y-102299480D01*
X148092610Y-102318527D01*
X148077372Y-102299480D01*
X148092610Y-102280432D01*
X148092610Y-102318527D01*
X147955467Y-102661384D02*
X147924991Y-102680432D01*
X147864039Y-102680432D01*
X147833562Y-102661384D01*
X147818324Y-102623289D01*
X147818324Y-102604241D01*
X147833562Y-102566146D01*
X147864039Y-102547099D01*
X147909753Y-102547099D01*
X147940229Y-102528051D01*
X147955467Y-102489956D01*
X147955467Y-102470908D01*
X147940229Y-102432813D01*
X147909753Y-102413765D01*
X147864039Y-102413765D01*
X147833562Y-102432813D01*
X147437372Y-102280432D02*
X147437372Y-102604241D01*
X147422134Y-102642337D01*
X147406896Y-102661384D01*
X147376419Y-102680432D01*
X147315467Y-102680432D01*
X147284991Y-102661384D01*
X147269753Y-102642337D01*
X147254515Y-102604241D01*
X147254515Y-102280432D01*
X147132610Y-102280432D02*
X146919277Y-102280432D01*
X147056419Y-102680432D01*
X146507848Y-102680432D02*
X146538324Y-102661384D01*
X146553562Y-102642337D01*
X146568800Y-102604241D01*
X146568800Y-102489956D01*
X146553562Y-102451860D01*
X146538324Y-102432813D01*
X146507848Y-102413765D01*
X146462134Y-102413765D01*
X146431658Y-102432813D01*
X146416419Y-102451860D01*
X146401181Y-102489956D01*
X146401181Y-102604241D01*
X146416419Y-102642337D01*
X146431658Y-102661384D01*
X146462134Y-102680432D01*
X146507848Y-102680432D01*
X146264039Y-102413765D02*
X146264039Y-102813765D01*
X146264039Y-102432813D02*
X146233562Y-102413765D01*
X146172610Y-102413765D01*
X146142134Y-102432813D01*
X146126896Y-102451860D01*
X146111658Y-102489956D01*
X146111658Y-102604241D01*
X146126896Y-102642337D01*
X146142134Y-102661384D01*
X146172610Y-102680432D01*
X146233562Y-102680432D01*
X146264039Y-102661384D01*
X146020229Y-102413765D02*
X145898324Y-102413765D01*
X145974515Y-102280432D02*
X145974515Y-102623289D01*
X145959277Y-102661384D01*
X145928800Y-102680432D01*
X145898324Y-102680432D01*
X145791658Y-102680432D02*
X145791658Y-102413765D01*
X145791658Y-102280432D02*
X145806896Y-102299480D01*
X145791658Y-102318527D01*
X145776419Y-102299480D01*
X145791658Y-102280432D01*
X145791658Y-102318527D01*
X145593562Y-102680432D02*
X145624039Y-102661384D01*
X145639277Y-102642337D01*
X145654515Y-102604241D01*
X145654515Y-102489956D01*
X145639277Y-102451860D01*
X145624039Y-102432813D01*
X145593562Y-102413765D01*
X145547848Y-102413765D01*
X145517372Y-102432813D01*
X145502134Y-102451860D01*
X145486896Y-102489956D01*
X145486896Y-102604241D01*
X145502134Y-102642337D01*
X145517372Y-102661384D01*
X145547848Y-102680432D01*
X145593562Y-102680432D01*
X145349753Y-102413765D02*
X145349753Y-102680432D01*
X145349753Y-102451860D02*
X145334515Y-102432813D01*
X145304039Y-102413765D01*
X145258324Y-102413765D01*
X145227848Y-102432813D01*
X145212610Y-102470908D01*
X145212610Y-102680432D01*
X144923086Y-102680432D02*
X144923086Y-102470908D01*
X144938324Y-102432813D01*
X144968800Y-102413765D01*
X145029753Y-102413765D01*
X145060229Y-102432813D01*
X144923086Y-102661384D02*
X144953562Y-102680432D01*
X145029753Y-102680432D01*
X145060229Y-102661384D01*
X145075467Y-102623289D01*
X145075467Y-102585194D01*
X145060229Y-102547099D01*
X145029753Y-102528051D01*
X144953562Y-102528051D01*
X144923086Y-102509003D01*
X144724991Y-102680432D02*
X144755467Y-102661384D01*
X144770705Y-102623289D01*
X144770705Y-102280432D01*
X159384039Y-103336384D02*
X159414515Y-103355432D01*
X159475467Y-103355432D01*
X159505943Y-103336384D01*
X159521181Y-103298289D01*
X159521181Y-103145908D01*
X159505943Y-103107813D01*
X159475467Y-103088765D01*
X159414515Y-103088765D01*
X159384039Y-103107813D01*
X159368800Y-103145908D01*
X159368800Y-103184003D01*
X159521181Y-103222099D01*
X159262134Y-103355432D02*
X159094515Y-103088765D01*
X159262134Y-103088765D02*
X159094515Y-103355432D01*
X158972610Y-103088765D02*
X158972610Y-103488765D01*
X158972610Y-103107813D02*
X158942134Y-103088765D01*
X158881181Y-103088765D01*
X158850705Y-103107813D01*
X158835467Y-103126860D01*
X158820229Y-103164956D01*
X158820229Y-103279241D01*
X158835467Y-103317337D01*
X158850705Y-103336384D01*
X158881181Y-103355432D01*
X158942134Y-103355432D01*
X158972610Y-103336384D01*
X158545943Y-103355432D02*
X158545943Y-103145908D01*
X158561181Y-103107813D01*
X158591658Y-103088765D01*
X158652610Y-103088765D01*
X158683086Y-103107813D01*
X158545943Y-103336384D02*
X158576420Y-103355432D01*
X158652610Y-103355432D01*
X158683086Y-103336384D01*
X158698324Y-103298289D01*
X158698324Y-103260194D01*
X158683086Y-103222099D01*
X158652610Y-103203051D01*
X158576420Y-103203051D01*
X158545943Y-103184003D01*
X158393562Y-103088765D02*
X158393562Y-103355432D01*
X158393562Y-103126860D02*
X158378324Y-103107813D01*
X158347848Y-103088765D01*
X158302134Y-103088765D01*
X158271658Y-103107813D01*
X158256420Y-103145908D01*
X158256420Y-103355432D01*
X158119277Y-103336384D02*
X158088800Y-103355432D01*
X158027848Y-103355432D01*
X157997372Y-103336384D01*
X157982134Y-103298289D01*
X157982134Y-103279241D01*
X157997372Y-103241146D01*
X158027848Y-103222099D01*
X158073562Y-103222099D01*
X158104039Y-103203051D01*
X158119277Y-103164956D01*
X158119277Y-103145908D01*
X158104039Y-103107813D01*
X158073562Y-103088765D01*
X158027848Y-103088765D01*
X157997372Y-103107813D01*
X157844991Y-103355432D02*
X157844991Y-103088765D01*
X157844991Y-102955432D02*
X157860229Y-102974480D01*
X157844991Y-102993527D01*
X157829753Y-102974480D01*
X157844991Y-102955432D01*
X157844991Y-102993527D01*
X157646896Y-103355432D02*
X157677372Y-103336384D01*
X157692610Y-103317337D01*
X157707848Y-103279241D01*
X157707848Y-103164956D01*
X157692610Y-103126860D01*
X157677372Y-103107813D01*
X157646896Y-103088765D01*
X157601181Y-103088765D01*
X157570705Y-103107813D01*
X157555467Y-103126860D01*
X157540229Y-103164956D01*
X157540229Y-103279241D01*
X157555467Y-103317337D01*
X157570705Y-103336384D01*
X157601181Y-103355432D01*
X157646896Y-103355432D01*
X157403086Y-103088765D02*
X157403086Y-103355432D01*
X157403086Y-103126860D02*
X157387848Y-103107813D01*
X157357372Y-103088765D01*
X157311658Y-103088765D01*
X157281181Y-103107813D01*
X157265943Y-103145908D01*
X157265943Y-103355432D01*
X156869753Y-103355432D02*
X156869753Y-103088765D01*
X156869753Y-102955432D02*
X156884991Y-102974480D01*
X156869753Y-102993527D01*
X156854515Y-102974480D01*
X156869753Y-102955432D01*
X156869753Y-102993527D01*
X156763086Y-103088765D02*
X156641181Y-103088765D01*
X156717372Y-103355432D02*
X156717372Y-103012575D01*
X156702134Y-102974480D01*
X156671658Y-102955432D01*
X156641181Y-102955432D01*
X156321181Y-103088765D02*
X156244991Y-103355432D01*
X156168800Y-103088765D02*
X156244991Y-103355432D01*
X156275467Y-103450670D01*
X156290705Y-103469718D01*
X156321181Y-103488765D01*
X156001181Y-103355432D02*
X156031658Y-103336384D01*
X156046896Y-103317337D01*
X156062134Y-103279241D01*
X156062134Y-103164956D01*
X156046896Y-103126860D01*
X156031658Y-103107813D01*
X156001181Y-103088765D01*
X155955467Y-103088765D01*
X155924991Y-103107813D01*
X155909753Y-103126860D01*
X155894515Y-103164956D01*
X155894515Y-103279241D01*
X155909753Y-103317337D01*
X155924991Y-103336384D01*
X155955467Y-103355432D01*
X156001181Y-103355432D01*
X155620229Y-103088765D02*
X155620229Y-103355432D01*
X155757372Y-103088765D02*
X155757372Y-103298289D01*
X155742134Y-103336384D01*
X155711658Y-103355432D01*
X155665943Y-103355432D01*
X155635467Y-103336384D01*
X155620229Y-103317337D01*
X155467848Y-103355432D02*
X155467848Y-103088765D01*
X155467848Y-103164956D02*
X155452610Y-103126860D01*
X155437372Y-103107813D01*
X155406896Y-103088765D01*
X155376420Y-103088765D01*
X155025943Y-102955432D02*
X155025943Y-103279241D01*
X155010705Y-103317337D01*
X154995467Y-103336384D01*
X154964991Y-103355432D01*
X154904039Y-103355432D01*
X154873562Y-103336384D01*
X154858324Y-103317337D01*
X154843086Y-103279241D01*
X154843086Y-102955432D01*
X154721181Y-102955432D02*
X154507848Y-102955432D01*
X154644991Y-103355432D01*
X154142134Y-103355432D02*
X154142134Y-103088765D01*
X154142134Y-102955432D02*
X154157372Y-102974480D01*
X154142134Y-102993527D01*
X154126896Y-102974480D01*
X154142134Y-102955432D01*
X154142134Y-102993527D01*
X154004991Y-103336384D02*
X153974515Y-103355432D01*
X153913562Y-103355432D01*
X153883086Y-103336384D01*
X153867848Y-103298289D01*
X153867848Y-103279241D01*
X153883086Y-103241146D01*
X153913562Y-103222099D01*
X153959277Y-103222099D01*
X153989753Y-103203051D01*
X154004991Y-103164956D01*
X154004991Y-103145908D01*
X153989753Y-103107813D01*
X153959277Y-103088765D01*
X153913562Y-103088765D01*
X153883086Y-103107813D01*
X153532610Y-103088765D02*
X153410705Y-103088765D01*
X153486896Y-102955432D02*
X153486896Y-103298289D01*
X153471658Y-103336384D01*
X153441181Y-103355432D01*
X153410705Y-103355432D01*
X153304039Y-103355432D02*
X153304039Y-102955432D01*
X153166896Y-103355432D02*
X153166896Y-103145908D01*
X153182134Y-103107813D01*
X153212610Y-103088765D01*
X153258324Y-103088765D01*
X153288800Y-103107813D01*
X153304039Y-103126860D01*
X152892610Y-103336384D02*
X152923086Y-103355432D01*
X152984039Y-103355432D01*
X153014515Y-103336384D01*
X153029753Y-103298289D01*
X153029753Y-103145908D01*
X153014515Y-103107813D01*
X152984039Y-103088765D01*
X152923086Y-103088765D01*
X152892610Y-103107813D01*
X152877372Y-103145908D01*
X152877372Y-103184003D01*
X153029753Y-103222099D01*
X152450705Y-103355432D02*
X152481181Y-103336384D01*
X152496420Y-103317337D01*
X152511658Y-103279241D01*
X152511658Y-103164956D01*
X152496420Y-103126860D01*
X152481181Y-103107813D01*
X152450705Y-103088765D01*
X152404991Y-103088765D01*
X152374515Y-103107813D01*
X152359277Y-103126860D01*
X152344039Y-103164956D01*
X152344039Y-103279241D01*
X152359277Y-103317337D01*
X152374515Y-103336384D01*
X152404991Y-103355432D01*
X152450705Y-103355432D01*
X152161181Y-103355432D02*
X152191658Y-103336384D01*
X152206896Y-103298289D01*
X152206896Y-102955432D01*
X151902134Y-103355432D02*
X151902134Y-102955432D01*
X151902134Y-103336384D02*
X151932610Y-103355432D01*
X151993562Y-103355432D01*
X152024039Y-103336384D01*
X152039277Y-103317337D01*
X152054515Y-103279241D01*
X152054515Y-103164956D01*
X152039277Y-103126860D01*
X152024039Y-103107813D01*
X151993562Y-103088765D01*
X151932610Y-103088765D01*
X151902134Y-103107813D01*
X151338324Y-103355432D02*
X151521181Y-103355432D01*
X151429753Y-103355432D02*
X151429753Y-102955432D01*
X151460229Y-103012575D01*
X151490705Y-103050670D01*
X151521181Y-103069718D01*
X151140229Y-102955432D02*
X151109753Y-102955432D01*
X151079277Y-102974480D01*
X151064039Y-102993527D01*
X151048800Y-103031622D01*
X151033562Y-103107813D01*
X151033562Y-103203051D01*
X151048800Y-103279241D01*
X151064039Y-103317337D01*
X151079277Y-103336384D01*
X151109753Y-103355432D01*
X151140229Y-103355432D01*
X151170705Y-103336384D01*
X151185943Y-103317337D01*
X151201181Y-103279241D01*
X151216420Y-103203051D01*
X151216420Y-103107813D01*
X151201181Y-103031622D01*
X151185943Y-102993527D01*
X151170705Y-102974480D01*
X151140229Y-102955432D01*
X150835467Y-102955432D02*
X150804991Y-102955432D01*
X150774515Y-102974480D01*
X150759277Y-102993527D01*
X150744039Y-103031622D01*
X150728800Y-103107813D01*
X150728800Y-103203051D01*
X150744039Y-103279241D01*
X150759277Y-103317337D01*
X150774515Y-103336384D01*
X150804991Y-103355432D01*
X150835467Y-103355432D01*
X150865943Y-103336384D01*
X150881181Y-103317337D01*
X150896420Y-103279241D01*
X150911658Y-103203051D01*
X150911658Y-103107813D01*
X150896420Y-103031622D01*
X150881181Y-102993527D01*
X150865943Y-102974480D01*
X150835467Y-102955432D01*
X150591658Y-103355432D02*
X150591658Y-102955432D01*
X150408800Y-103355432D02*
X150545943Y-103126860D01*
X150408800Y-102955432D02*
X150591658Y-103184003D01*
X150058324Y-103088765D02*
X149982134Y-103355432D01*
X149905943Y-103088765D01*
X149646896Y-103355432D02*
X149646896Y-103145908D01*
X149662134Y-103107813D01*
X149692610Y-103088765D01*
X149753562Y-103088765D01*
X149784039Y-103107813D01*
X149646896Y-103336384D02*
X149677372Y-103355432D01*
X149753562Y-103355432D01*
X149784039Y-103336384D01*
X149799277Y-103298289D01*
X149799277Y-103260194D01*
X149784039Y-103222099D01*
X149753562Y-103203051D01*
X149677372Y-103203051D01*
X149646896Y-103184003D01*
X149448800Y-103355432D02*
X149479277Y-103336384D01*
X149494515Y-103298289D01*
X149494515Y-102955432D01*
X149189753Y-103088765D02*
X149189753Y-103355432D01*
X149326896Y-103088765D02*
X149326896Y-103298289D01*
X149311658Y-103336384D01*
X149281181Y-103355432D01*
X149235467Y-103355432D01*
X149204991Y-103336384D01*
X149189753Y-103317337D01*
X148915467Y-103336384D02*
X148945943Y-103355432D01*
X149006896Y-103355432D01*
X149037372Y-103336384D01*
X149052610Y-103298289D01*
X149052610Y-103145908D01*
X149037372Y-103107813D01*
X149006896Y-103088765D01*
X148945943Y-103088765D01*
X148915467Y-103107813D01*
X148900229Y-103145908D01*
X148900229Y-103184003D01*
X149052610Y-103222099D01*
X148382134Y-103355432D02*
X148382134Y-103145908D01*
X148397372Y-103107813D01*
X148427848Y-103088765D01*
X148488800Y-103088765D01*
X148519277Y-103107813D01*
X148382134Y-103336384D02*
X148412610Y-103355432D01*
X148488800Y-103355432D01*
X148519277Y-103336384D01*
X148534515Y-103298289D01*
X148534515Y-103260194D01*
X148519277Y-103222099D01*
X148488800Y-103203051D01*
X148412610Y-103203051D01*
X148382134Y-103184003D01*
X148229753Y-103088765D02*
X148229753Y-103355432D01*
X148229753Y-103126860D02*
X148214515Y-103107813D01*
X148184039Y-103088765D01*
X148138324Y-103088765D01*
X148107848Y-103107813D01*
X148092610Y-103145908D01*
X148092610Y-103355432D01*
X147803086Y-103355432D02*
X147803086Y-102955432D01*
X147803086Y-103336384D02*
X147833562Y-103355432D01*
X147894515Y-103355432D01*
X147924991Y-103336384D01*
X147940229Y-103317337D01*
X147955467Y-103279241D01*
X147955467Y-103164956D01*
X147940229Y-103126860D01*
X147924991Y-103107813D01*
X147894515Y-103088765D01*
X147833562Y-103088765D01*
X147803086Y-103107813D01*
X147437372Y-103088765D02*
X147361181Y-103355432D01*
X147284991Y-103088765D02*
X147361181Y-103355432D01*
X147391658Y-103450670D01*
X147406896Y-103469718D01*
X147437372Y-103488765D01*
X147117372Y-103355432D02*
X147147848Y-103336384D01*
X147163086Y-103317337D01*
X147178324Y-103279241D01*
X147178324Y-103164956D01*
X147163086Y-103126860D01*
X147147848Y-103107813D01*
X147117372Y-103088765D01*
X147071658Y-103088765D01*
X147041181Y-103107813D01*
X147025943Y-103126860D01*
X147010705Y-103164956D01*
X147010705Y-103279241D01*
X147025943Y-103317337D01*
X147041181Y-103336384D01*
X147071658Y-103355432D01*
X147117372Y-103355432D01*
X146736420Y-103088765D02*
X146736420Y-103355432D01*
X146873562Y-103088765D02*
X146873562Y-103298289D01*
X146858324Y-103336384D01*
X146827848Y-103355432D01*
X146782134Y-103355432D01*
X146751658Y-103336384D01*
X146736420Y-103317337D01*
X146340229Y-103355432D02*
X146340229Y-102955432D01*
X146203086Y-103355432D02*
X146203086Y-103145908D01*
X146218324Y-103107813D01*
X146248800Y-103088765D01*
X146294515Y-103088765D01*
X146324991Y-103107813D01*
X146340229Y-103126860D01*
X145913562Y-103355432D02*
X145913562Y-103145908D01*
X145928800Y-103107813D01*
X145959277Y-103088765D01*
X146020229Y-103088765D01*
X146050705Y-103107813D01*
X145913562Y-103336384D02*
X145944039Y-103355432D01*
X146020229Y-103355432D01*
X146050705Y-103336384D01*
X146065943Y-103298289D01*
X146065943Y-103260194D01*
X146050705Y-103222099D01*
X146020229Y-103203051D01*
X145944039Y-103203051D01*
X145913562Y-103184003D01*
X145791658Y-103088765D02*
X145715467Y-103355432D01*
X145639277Y-103088765D01*
X145395467Y-103336384D02*
X145425943Y-103355432D01*
X145486896Y-103355432D01*
X145517372Y-103336384D01*
X145532610Y-103298289D01*
X145532610Y-103145908D01*
X145517372Y-103107813D01*
X145486896Y-103088765D01*
X145425943Y-103088765D01*
X145395467Y-103107813D01*
X145380229Y-103145908D01*
X145380229Y-103184003D01*
X145532610Y-103222099D01*
X145014515Y-102993527D02*
X144999277Y-102974480D01*
X144968800Y-102955432D01*
X144892610Y-102955432D01*
X144862134Y-102974480D01*
X144846896Y-102993527D01*
X144831658Y-103031622D01*
X144831658Y-103069718D01*
X144846896Y-103126860D01*
X145029753Y-103355432D01*
X144831658Y-103355432D01*
X144724991Y-103088765D02*
X144648800Y-103355432D01*
X144572610Y-103088765D01*
X144313562Y-103088765D02*
X144313562Y-103355432D01*
X144450705Y-103088765D02*
X144450705Y-103298289D01*
X144435467Y-103336384D01*
X144404991Y-103355432D01*
X144359277Y-103355432D01*
X144328800Y-103336384D01*
X144313562Y-103317337D01*
X144161181Y-103355432D02*
X144161181Y-103088765D01*
X144161181Y-103126860D02*
X144145943Y-103107813D01*
X144115467Y-103088765D01*
X144069753Y-103088765D01*
X144039277Y-103107813D01*
X144024039Y-103145908D01*
X144024039Y-103355432D01*
X144024039Y-103145908D02*
X144008800Y-103107813D01*
X143978324Y-103088765D01*
X143932610Y-103088765D01*
X143902134Y-103107813D01*
X143886896Y-103145908D01*
X143886896Y-103355432D01*
X164045571Y-101347542D02*
X164080563Y-101367746D01*
X164170752Y-101373159D01*
X164225948Y-101358369D01*
X164301346Y-101308587D01*
X164341753Y-101238601D01*
X164354561Y-101176011D01*
X164352579Y-101058225D01*
X164330395Y-100975431D01*
X164273218Y-100872434D01*
X164230830Y-100824633D01*
X164160845Y-100784227D01*
X164070656Y-100778814D01*
X164015460Y-100793603D01*
X163940062Y-100843386D01*
X163919859Y-100878379D01*
X163460071Y-101149475D02*
X163563599Y-101535845D01*
X163708452Y-101082921D02*
X163789795Y-101386498D01*
X163776987Y-101449089D01*
X163729186Y-101491476D01*
X163646392Y-101513661D01*
X163583802Y-101500852D01*
X163548809Y-101480649D01*
X163266886Y-101201239D02*
X163046103Y-101260397D01*
X163132328Y-101030238D02*
X163265435Y-101527000D01*
X163252627Y-101589590D01*
X163204826Y-101631978D01*
X163149630Y-101646768D01*
X165099249Y-102133764D02*
X165017906Y-101830187D01*
X165030714Y-101767596D01*
X165078515Y-101725209D01*
X165188907Y-101695629D01*
X165251497Y-101708438D01*
X165091854Y-102106166D02*
X165154445Y-102118974D01*
X165292434Y-102082000D01*
X165340235Y-102039612D01*
X165353043Y-101977022D01*
X165338254Y-101921826D01*
X165295866Y-101874025D01*
X165233275Y-101861217D01*
X165095286Y-101898191D01*
X165032695Y-101885383D01*
X164740477Y-102229896D02*
X164788277Y-102187509D01*
X164801086Y-102124918D01*
X164667979Y-101628156D01*
X164436900Y-102311240D02*
X164484701Y-102268852D01*
X164497509Y-102206261D01*
X164364402Y-101709500D01*
X164133323Y-102392583D02*
X164181124Y-102350195D01*
X164201327Y-102315202D01*
X164214135Y-102252612D01*
X164169766Y-102087025D01*
X164127379Y-102039224D01*
X164092386Y-102019021D01*
X164029796Y-102006212D01*
X163947002Y-102028397D01*
X163899201Y-102070784D01*
X163878998Y-102105777D01*
X163866190Y-102168368D01*
X163910559Y-102333955D01*
X163952946Y-102381756D01*
X163987939Y-102401959D01*
X164050529Y-102414767D01*
X164133323Y-102392583D01*
X163643425Y-102109740D02*
X163636561Y-102525690D01*
X163452221Y-102279290D01*
X163415778Y-102584848D01*
X163201859Y-102228057D01*
X162856426Y-102705147D02*
X162919016Y-102717955D01*
X163029408Y-102688376D01*
X163077209Y-102645988D01*
X163090017Y-102583398D01*
X163030858Y-102362615D01*
X162988471Y-102314814D01*
X162925880Y-102302006D01*
X162815489Y-102331585D01*
X162767688Y-102373972D01*
X162754880Y-102436563D01*
X162769669Y-102491759D01*
X163060438Y-102473006D01*
X162339461Y-102873247D02*
X162184169Y-102293691D01*
X162332066Y-102845649D02*
X162394657Y-102858457D01*
X162505048Y-102828878D01*
X162552849Y-102786490D01*
X162573052Y-102751497D01*
X162585860Y-102688907D01*
X162541491Y-102523319D01*
X162499104Y-102475519D01*
X162464111Y-102455316D01*
X162401521Y-102442507D01*
X162291129Y-102472087D01*
X162243328Y-102514474D01*
D11*
X162430460Y-102090220D02*
X165120320Y-101353620D01*
X135539820Y-102647620D02*
X135539820Y-103872620D01*
X138664820Y-102647620D02*
X138664820Y-99297620D01*
X135314820Y-102647620D02*
X135314820Y-99297620D01*
X138664820Y-102647620D02*
X138364820Y-102647620D01*
X138664820Y-99297620D02*
X138364820Y-99297620D01*
X135314820Y-99297620D02*
X135614820Y-99297620D01*
X135314820Y-102647620D02*
X135539820Y-102647620D01*
D10*
X70519860Y-109581720D02*
G75*
G03X70519860Y-109581720I-100000J0D01*
G01*
D13*
X139242192Y-99631063D02*
X139566001Y-99631063D01*
X139604097Y-99650111D01*
X139623144Y-99669159D01*
X139642192Y-99707254D01*
X139642192Y-99783444D01*
X139623144Y-99821540D01*
X139604097Y-99840587D01*
X139566001Y-99859635D01*
X139242192Y-99859635D01*
X139242192Y-100012016D02*
X139242192Y-100278682D01*
X139642192Y-100107254D01*
X139375525Y-100373920D02*
X139375525Y-100526301D01*
X139642192Y-100431063D02*
X139299335Y-100431063D01*
X139261240Y-100450111D01*
X139242192Y-100488206D01*
X139242192Y-100526301D01*
X139642192Y-100716778D02*
X139623144Y-100678682D01*
X139604097Y-100659635D01*
X139566001Y-100640587D01*
X139451716Y-100640587D01*
X139413620Y-100659635D01*
X139394573Y-100678682D01*
X139375525Y-100716778D01*
X139375525Y-100773920D01*
X139394573Y-100812016D01*
X139413620Y-100831063D01*
X139451716Y-100850111D01*
X139566001Y-100850111D01*
X139604097Y-100831063D01*
X139623144Y-100812016D01*
X139642192Y-100773920D01*
X139642192Y-100716778D01*
X139642192Y-101078682D02*
X139623144Y-101040587D01*
X139604097Y-101021540D01*
X139566001Y-101002492D01*
X139451716Y-101002492D01*
X139413620Y-101021540D01*
X139394573Y-101040587D01*
X139375525Y-101078682D01*
X139375525Y-101135825D01*
X139394573Y-101173920D01*
X139413620Y-101192968D01*
X139451716Y-101212016D01*
X139566001Y-101212016D01*
X139604097Y-101192968D01*
X139623144Y-101173920D01*
X139642192Y-101135825D01*
X139642192Y-101078682D01*
X139375525Y-101326301D02*
X139375525Y-101478682D01*
X139242192Y-101383444D02*
X139585049Y-101383444D01*
X139623144Y-101402492D01*
X139642192Y-101440587D01*
X139642192Y-101478682D01*
X139375525Y-101612016D02*
X139775525Y-101612016D01*
X139394573Y-101612016D02*
X139375525Y-101650111D01*
X139375525Y-101726301D01*
X139394573Y-101764397D01*
X139413620Y-101783444D01*
X139451716Y-101802492D01*
X139566001Y-101802492D01*
X139604097Y-101783444D01*
X139623144Y-101764397D01*
X139642192Y-101726301D01*
X139642192Y-101650111D01*
X139623144Y-101612016D01*
X139642192Y-101973920D02*
X139375525Y-101973920D01*
X139451716Y-101973920D02*
X139413620Y-101992968D01*
X139394573Y-102012016D01*
X139375525Y-102050111D01*
X139375525Y-102088206D01*
X139642192Y-102221540D02*
X139375525Y-102221540D01*
X139242192Y-102221540D02*
X139261240Y-102202492D01*
X139280287Y-102221540D01*
X139261240Y-102240587D01*
X139242192Y-102221540D01*
X139280287Y-102221540D01*
X139375525Y-102412016D02*
X139642192Y-102412016D01*
X139413620Y-102412016D02*
X139394573Y-102431063D01*
X139375525Y-102469159D01*
X139375525Y-102526301D01*
X139394573Y-102564397D01*
X139432668Y-102583444D01*
X139642192Y-102583444D01*
X139375525Y-102716778D02*
X139375525Y-102869159D01*
X139242192Y-102773920D02*
X139585049Y-102773920D01*
X139623144Y-102792968D01*
X139642192Y-102831063D01*
X139642192Y-102869159D01*
D14*
X84661687Y-103515290D02*
X84661687Y-103181957D01*
X84661687Y-103229576D02*
X84637878Y-103205766D01*
X84590259Y-103181957D01*
X84518830Y-103181957D01*
X84471211Y-103205766D01*
X84447401Y-103253385D01*
X84447401Y-103515290D01*
X84447401Y-103253385D02*
X84423592Y-103205766D01*
X84375973Y-103181957D01*
X84304544Y-103181957D01*
X84256925Y-103205766D01*
X84233116Y-103253385D01*
X84233116Y-103515290D01*
X83780735Y-103515290D02*
X83780735Y-103253385D01*
X83804544Y-103205766D01*
X83852163Y-103181957D01*
X83947401Y-103181957D01*
X83995020Y-103205766D01*
X83780735Y-103491480D02*
X83828354Y-103515290D01*
X83947401Y-103515290D01*
X83995020Y-103491480D01*
X84018830Y-103443861D01*
X84018830Y-103396242D01*
X83995020Y-103348623D01*
X83947401Y-103324814D01*
X83828354Y-103324814D01*
X83780735Y-103301004D01*
X83614068Y-103181957D02*
X83423592Y-103181957D01*
X83542640Y-103015290D02*
X83542640Y-103443861D01*
X83518830Y-103491480D01*
X83471211Y-103515290D01*
X83423592Y-103515290D01*
X83066449Y-103491480D02*
X83114068Y-103515290D01*
X83209306Y-103515290D01*
X83256925Y-103491480D01*
X83280735Y-103443861D01*
X83280735Y-103253385D01*
X83256925Y-103205766D01*
X83209306Y-103181957D01*
X83114068Y-103181957D01*
X83066449Y-103205766D01*
X83042640Y-103253385D01*
X83042640Y-103301004D01*
X83280735Y-103348623D01*
X82852163Y-103491480D02*
X82804544Y-103515290D01*
X82709306Y-103515290D01*
X82661687Y-103491480D01*
X82637878Y-103443861D01*
X82637878Y-103420052D01*
X82661687Y-103372433D01*
X82709306Y-103348623D01*
X82780735Y-103348623D01*
X82828354Y-103324814D01*
X82852163Y-103277195D01*
X82852163Y-103253385D01*
X82828354Y-103205766D01*
X82780735Y-103181957D01*
X82709306Y-103181957D01*
X82661687Y-103205766D01*
X82114068Y-103181957D02*
X81923592Y-103181957D01*
X82042640Y-103015290D02*
X82042640Y-103443861D01*
X82018830Y-103491480D01*
X81971211Y-103515290D01*
X81923592Y-103515290D01*
X81685497Y-103515290D02*
X81733116Y-103491480D01*
X81756925Y-103467671D01*
X81780735Y-103420052D01*
X81780735Y-103277195D01*
X81756925Y-103229576D01*
X81733116Y-103205766D01*
X81685497Y-103181957D01*
X81614068Y-103181957D01*
X81566449Y-103205766D01*
X81542640Y-103229576D01*
X81518830Y-103277195D01*
X81518830Y-103420052D01*
X81542640Y-103467671D01*
X81566449Y-103491480D01*
X81614068Y-103515290D01*
X81685497Y-103515290D01*
X80995020Y-103015290D02*
X80709306Y-103015290D01*
X80852163Y-103515290D02*
X80852163Y-103015290D01*
X80542640Y-103253385D02*
X80375973Y-103253385D01*
X80304544Y-103515290D02*
X80542640Y-103515290D01*
X80542640Y-103015290D01*
X80304544Y-103015290D01*
X80209306Y-103562909D02*
X79828354Y-103562909D01*
X79447401Y-103515290D02*
X79733116Y-103515290D01*
X79590259Y-103515290D02*
X79590259Y-103015290D01*
X79637878Y-103086719D01*
X79685497Y-103134338D01*
X79733116Y-103158147D01*
X79233116Y-103324814D02*
X78852163Y-103324814D01*
X78637878Y-103062909D02*
X78614068Y-103039100D01*
X78566449Y-103015290D01*
X78447401Y-103015290D01*
X78399782Y-103039100D01*
X78375973Y-103062909D01*
X78352163Y-103110528D01*
X78352163Y-103158147D01*
X78375973Y-103229576D01*
X78661687Y-103515290D01*
X78352163Y-103515290D01*
X78185497Y-103015290D02*
X77875973Y-103015290D01*
X78042640Y-103205766D01*
X77971211Y-103205766D01*
X77923592Y-103229576D01*
X77899782Y-103253385D01*
X77875973Y-103301004D01*
X77875973Y-103420052D01*
X77899782Y-103467671D01*
X77923592Y-103491480D01*
X77971211Y-103515290D01*
X78114068Y-103515290D01*
X78161687Y-103491480D01*
X78185497Y-103467671D01*
X77685497Y-103062909D02*
X77661687Y-103039100D01*
X77614068Y-103015290D01*
X77495020Y-103015290D01*
X77447401Y-103039100D01*
X77423592Y-103062909D01*
X77399782Y-103110528D01*
X77399782Y-103158147D01*
X77423592Y-103229576D01*
X77709306Y-103515290D01*
X77399782Y-103515290D01*
X77114068Y-103229576D02*
X77161687Y-103205766D01*
X77185497Y-103181957D01*
X77209306Y-103134338D01*
X77209306Y-103110528D01*
X77185497Y-103062909D01*
X77161687Y-103039100D01*
X77114068Y-103015290D01*
X77018830Y-103015290D01*
X76971211Y-103039100D01*
X76947401Y-103062909D01*
X76923592Y-103110528D01*
X76923592Y-103134338D01*
X76947401Y-103181957D01*
X76971211Y-103205766D01*
X77018830Y-103229576D01*
X77114068Y-103229576D01*
X77161687Y-103253385D01*
X77185497Y-103277195D01*
X77209306Y-103324814D01*
X77209306Y-103420052D01*
X77185497Y-103467671D01*
X77161687Y-103491480D01*
X77114068Y-103515290D01*
X77018830Y-103515290D01*
X76971211Y-103491480D01*
X76947401Y-103467671D01*
X76923592Y-103420052D01*
X76923592Y-103324814D01*
X76947401Y-103277195D01*
X76971211Y-103253385D01*
X77018830Y-103229576D01*
X76756925Y-103015290D02*
X76423592Y-103015290D01*
X76637878Y-103515290D01*
X76137878Y-103015290D02*
X76090259Y-103015290D01*
X76042640Y-103039100D01*
X76018830Y-103062909D01*
X75995020Y-103110528D01*
X75971211Y-103205766D01*
X75971211Y-103324814D01*
X75995020Y-103420052D01*
X76018830Y-103467671D01*
X76042640Y-103491480D01*
X76090259Y-103515290D01*
X76137878Y-103515290D01*
X76185497Y-103491480D01*
X76209306Y-103467671D01*
X76233116Y-103420052D01*
X76256925Y-103324814D01*
X76256925Y-103205766D01*
X76233116Y-103110528D01*
X76209306Y-103062909D01*
X76185497Y-103039100D01*
X76137878Y-103015290D01*
X75780735Y-103062909D02*
X75756925Y-103039100D01*
X75709306Y-103015290D01*
X75590259Y-103015290D01*
X75542640Y-103039100D01*
X75518830Y-103062909D01*
X75495020Y-103110528D01*
X75495020Y-103158147D01*
X75518830Y-103229576D01*
X75804544Y-103515290D01*
X75495020Y-103515290D01*
X75280735Y-103324814D02*
X74899782Y-103324814D01*
X74566449Y-103015290D02*
X74518830Y-103015290D01*
X74471211Y-103039100D01*
X74447401Y-103062909D01*
X74423592Y-103110528D01*
X74399782Y-103205766D01*
X74399782Y-103324814D01*
X74423592Y-103420052D01*
X74447401Y-103467671D01*
X74471211Y-103491480D01*
X74518830Y-103515290D01*
X74566449Y-103515290D01*
X74614068Y-103491480D01*
X74637878Y-103467671D01*
X74661687Y-103420052D01*
X74685497Y-103324814D01*
X74685497Y-103205766D01*
X74661687Y-103110528D01*
X74637878Y-103062909D01*
X74614068Y-103039100D01*
X74566449Y-103015290D01*
M02*
