G04 #@! TF.GenerationSoftware,KiCad,Pcbnew,5.1.4-e60b266~84~ubuntu16.04.1*
G04 #@! TF.CreationDate,2019-10-21T03:29:48-05:00*
G04 #@! TF.ProjectId,Quantum MCP4262-502 25x expansion flex for GWAAM-Sea Aid with U7 expansion cutout,5175616e-7475-46d2-904d-435034323632,rev?*
G04 #@! TF.SameCoordinates,Original*
G04 #@! TF.FileFunction,Copper,L2,Bot*
G04 #@! TF.FilePolarity,Positive*
%FSLAX46Y46*%
G04 Gerber Fmt 4.6, Leading zero omitted, Abs format (unit mm)*
G04 Created by KiCad (PCBNEW 5.1.4-e60b266~84~ubuntu16.04.1) date 2019-10-21 03:29:48*
%MOMM*%
%LPD*%
G04 APERTURE LIST*
%ADD10R,0.300000X1.400000*%
%ADD11R,1.500000X0.300000*%
%ADD12C,1.600000*%
%ADD13C,0.600000*%
%ADD14C,0.200000*%
%ADD15C,0.254000*%
G04 APERTURE END LIST*
D10*
X135989820Y-98772620D03*
X136489820Y-98772620D03*
X136989820Y-98772620D03*
X137489820Y-98772620D03*
X137989820Y-98772620D03*
X137989820Y-103172620D03*
X137489820Y-103172620D03*
X136989820Y-103172620D03*
X136489820Y-103172620D03*
X135989820Y-103172620D03*
D11*
X71894860Y-105106720D03*
X71894860Y-105606720D03*
X71894860Y-106106720D03*
X71894860Y-106606720D03*
X71894860Y-107106720D03*
X71894860Y-107606720D03*
X71894860Y-108106720D03*
X71894860Y-108606720D03*
X71894860Y-109106720D03*
X71894860Y-109606720D03*
D12*
X165287960Y-100690680D03*
D13*
X159255460Y-98755200D03*
X161284920Y-98775520D03*
X160291780Y-100055680D03*
X159174180Y-101089460D03*
X161467800Y-101170740D03*
X83675220Y-106994960D03*
X89171780Y-106992420D03*
X107383580Y-115524280D03*
X103098600Y-106928920D03*
X108183680Y-106939080D03*
X144165320Y-106992420D03*
X155150820Y-106979720D03*
X160647380Y-106977180D03*
X149661880Y-106989880D03*
X129293620Y-107027980D03*
X74416920Y-115542060D03*
X85402420Y-115531900D03*
X79913480Y-115539520D03*
X96387920Y-115519200D03*
X101884480Y-115516660D03*
X90898980Y-115529360D03*
X151782780Y-115516660D03*
X135300720Y-115531900D03*
X162778440Y-115521740D03*
X140797280Y-115529360D03*
X157281880Y-115524280D03*
X146286220Y-115519200D03*
X129811780Y-115539520D03*
X113974880Y-105895140D03*
X123240800Y-115473480D03*
X112697260Y-115376960D03*
X124294900Y-105189020D03*
X124294900Y-105189020D03*
X121594880Y-103576120D03*
X160251140Y-103197660D03*
X166773860Y-106484420D03*
X166834820Y-101940360D03*
X166834820Y-99885500D03*
X163494720Y-100045520D03*
X163888420Y-103207820D03*
X138554460Y-101963220D03*
X142087600Y-101081840D03*
X151589740Y-100576380D03*
X88315800Y-107647740D03*
X93812360Y-107645200D03*
X107327700Y-107594400D03*
X111498380Y-107988100D03*
X154302460Y-107642660D03*
X148805900Y-107645200D03*
X165287960Y-107629960D03*
X159791400Y-107632500D03*
X133934200Y-107680760D03*
X128437640Y-107683300D03*
X79057500Y-116194840D03*
X84554060Y-116192300D03*
X95539560Y-116182140D03*
X90043000Y-116184680D03*
X106525060Y-116169440D03*
X101028500Y-116171980D03*
X139941300Y-116184680D03*
X145437860Y-116182140D03*
X167081200Y-116390420D03*
X161922460Y-116177060D03*
X156423360Y-116169440D03*
X128955800Y-116194840D03*
X134452360Y-116192300D03*
X150926800Y-116171980D03*
X114876580Y-106387900D03*
X112488980Y-116197380D03*
X81866740Y-107579160D03*
X122199400Y-116222780D03*
X120766840Y-103997760D03*
X143939260Y-99319080D03*
X135672050Y-98488010D03*
X138915140Y-98381820D03*
X156029660Y-98877120D03*
X82903060Y-106205020D03*
X88399620Y-106202480D03*
X106611420Y-114734340D03*
X102801420Y-106159300D03*
X107411520Y-106149140D03*
X148889720Y-106199940D03*
X159875220Y-106187240D03*
X143393160Y-106202480D03*
X154378660Y-106189780D03*
X128521460Y-106238040D03*
X73644760Y-114752120D03*
X79141320Y-114749580D03*
X90126820Y-114739420D03*
X101112320Y-114726720D03*
X84630260Y-114741960D03*
X95615760Y-114729260D03*
X151010620Y-114726720D03*
X129039620Y-114749580D03*
X162006280Y-114731800D03*
X156509720Y-114734340D03*
X134528560Y-114741960D03*
X140025120Y-114739420D03*
X145514060Y-114729260D03*
X122707400Y-114747040D03*
X113372900Y-105318560D03*
X112191800Y-114729260D03*
X123855480Y-104152700D03*
X123855480Y-104152700D03*
X122613420Y-103337360D03*
X136984740Y-101912420D03*
X142557500Y-100406200D03*
X150832820Y-100233480D03*
X82486500Y-105476040D03*
X87983060Y-105473500D03*
X106194860Y-114005360D03*
X101498400Y-105422700D03*
X106994960Y-105420160D03*
X142976600Y-105473500D03*
X153962100Y-105460800D03*
X148473160Y-105470960D03*
X159458660Y-105458260D03*
X128104900Y-105509060D03*
X84213700Y-114012980D03*
X78724760Y-114020600D03*
X73228200Y-114023140D03*
X95199200Y-114000280D03*
X89710260Y-114010440D03*
X100695760Y-113997740D03*
X150594060Y-113997740D03*
X140060680Y-113896140D03*
X156093160Y-114005360D03*
X161589720Y-114002820D03*
X134112000Y-114012980D03*
X128623060Y-114020600D03*
X145097500Y-114000280D03*
X123416060Y-113639600D03*
X112476280Y-105468420D03*
X111704120Y-114043460D03*
X124708920Y-103969820D03*
X150020020Y-100302060D03*
X136207500Y-101480620D03*
X142212060Y-99674680D03*
X82985462Y-104771338D03*
X88482022Y-104768798D03*
X106693822Y-113300658D03*
X102362000Y-104800400D03*
X107493922Y-104715458D03*
X148972122Y-104766258D03*
X154461062Y-104756098D03*
X143475562Y-104768798D03*
X159957622Y-104753558D03*
X128603862Y-104804358D03*
X73727162Y-113318438D03*
X79223722Y-113315898D03*
X90209222Y-113305738D03*
X95698162Y-113295578D03*
X84712662Y-113308278D03*
X101194722Y-113293038D03*
X140423900Y-112963960D03*
X162088682Y-113298118D03*
X134610962Y-113308278D03*
X145596462Y-113295578D03*
X156592122Y-113300658D03*
X129122022Y-113315898D03*
X151093022Y-113293038D03*
X123934220Y-112986820D03*
X111094520Y-113319560D03*
X124904500Y-102915720D03*
X135732520Y-100792280D03*
X142948660Y-99230180D03*
X149169120Y-100335080D03*
X84406740Y-109951520D03*
X89903300Y-109948980D03*
X108115100Y-118480840D03*
X103418640Y-109898180D03*
X108915200Y-109895640D03*
X144896840Y-109948980D03*
X155882340Y-109936280D03*
X150393400Y-109946440D03*
X161378900Y-109933740D03*
X124528580Y-109987080D03*
X130025140Y-109984540D03*
X80645000Y-118496080D03*
X86133940Y-118488460D03*
X97119440Y-118475760D03*
X75148440Y-118498620D03*
X91630500Y-118485920D03*
X102616000Y-118473220D03*
X152514300Y-118473220D03*
X158013400Y-118480840D03*
X141528800Y-118485920D03*
X163509960Y-118478300D03*
X136032240Y-118488460D03*
X147017740Y-118475760D03*
X130543300Y-118496080D03*
X112453420Y-118513860D03*
X81419700Y-109994700D03*
X115735100Y-109964220D03*
X119575580Y-107241340D03*
X119781320Y-116631720D03*
X127081280Y-117952520D03*
X146723100Y-99156520D03*
X136268460Y-100081080D03*
X155501340Y-99568000D03*
X84745110Y-110757250D03*
X90241670Y-110754710D03*
X108453470Y-119286570D03*
X109253570Y-110701370D03*
X103757010Y-110703910D03*
X145235210Y-110754710D03*
X156220710Y-110742010D03*
X161717270Y-110739470D03*
X150731770Y-110752170D03*
X124866950Y-110792810D03*
X130363510Y-110790270D03*
X80983370Y-119301810D03*
X86472310Y-119294190D03*
X75486810Y-119304350D03*
X97457810Y-119281490D03*
X102954370Y-119278950D03*
X91968870Y-119291650D03*
X163848330Y-119284030D03*
X136370610Y-119294190D03*
X158351770Y-119286570D03*
X152852670Y-119278950D03*
X130881670Y-119301810D03*
X147356110Y-119281490D03*
X141867170Y-119291650D03*
X112755680Y-119296180D03*
X81887060Y-110807500D03*
X116006880Y-111310420D03*
X118899940Y-107729020D03*
X119298720Y-117363240D03*
X125945900Y-118399560D03*
X147317460Y-99712780D03*
X137396220Y-100220780D03*
X141358620Y-101978460D03*
X155704540Y-100380800D03*
X84711540Y-109202220D03*
X90208100Y-109199680D03*
X108419900Y-117731540D03*
X103723440Y-109148880D03*
X109220000Y-109146340D03*
X150698200Y-109197140D03*
X156187140Y-109186980D03*
X145201640Y-109199680D03*
X161683700Y-109184440D03*
X130329940Y-109235240D03*
X124833380Y-109237780D03*
X75453240Y-117749320D03*
X80949800Y-117746780D03*
X91935300Y-117736620D03*
X97424240Y-117726460D03*
X86438740Y-117739160D03*
X102920800Y-117723920D03*
X152819100Y-117723920D03*
X163814760Y-117729000D03*
X158318200Y-117731540D03*
X130848100Y-117746780D03*
X136337040Y-117739160D03*
X147322540Y-117726460D03*
X141833600Y-117736620D03*
X112763300Y-117713760D03*
X81887060Y-109265720D03*
X115783360Y-108803440D03*
X120594120Y-116603780D03*
X120345200Y-106692700D03*
X138536680Y-102781100D03*
X84856320Y-111566960D03*
X90352880Y-111564420D03*
X108564680Y-120096280D03*
X109364780Y-111511080D03*
X103868220Y-111513620D03*
X161828480Y-111549180D03*
X150842980Y-111561880D03*
X145346420Y-111564420D03*
X156331920Y-111551720D03*
X130474720Y-111599980D03*
X124978160Y-111602520D03*
X81094580Y-120111520D03*
X75598020Y-120114060D03*
X103065580Y-120088660D03*
X92080080Y-120101360D03*
X86583520Y-120103900D03*
X97569020Y-120091200D03*
X152963880Y-120088660D03*
X163959540Y-120093740D03*
X147467320Y-120091200D03*
X158462980Y-120096280D03*
X130992880Y-120111520D03*
X141978380Y-120101360D03*
X136481820Y-120103900D03*
X81333340Y-111544100D03*
X116329460Y-112303560D03*
X113009680Y-120101360D03*
X118211600Y-108541820D03*
X125397260Y-120091200D03*
X138242040Y-99428300D03*
X140294360Y-102707440D03*
X148094700Y-99903280D03*
X142283180Y-102344220D03*
X141429740Y-103347520D03*
X154586940Y-100766880D03*
X115402360Y-107424220D03*
X81257140Y-108473240D03*
X83875880Y-112466120D03*
X113047780Y-116809520D03*
X121048780Y-105910380D03*
X121213880Y-115902740D03*
D14*
X83675220Y-106994960D02*
X86220300Y-106994960D01*
X86222840Y-106992420D02*
X85641180Y-106992420D01*
X86220300Y-106994960D02*
X86222840Y-106992420D01*
X107383580Y-115524280D02*
X109928660Y-115524280D01*
X107383580Y-115524280D02*
X105156000Y-115521740D01*
X109931200Y-115521740D02*
X109349540Y-115521740D01*
X109928660Y-115524280D02*
X109931200Y-115521740D01*
X105232200Y-106941620D02*
X105234740Y-106939080D01*
X105234740Y-106939080D02*
X104653080Y-106939080D01*
X102687120Y-106941620D02*
X105232200Y-106941620D01*
X102687120Y-106941620D02*
X100459540Y-106939080D01*
X155150820Y-106979720D02*
X157695900Y-106979720D01*
X144165320Y-106992420D02*
X146710400Y-106992420D01*
X157695900Y-106979720D02*
X157698440Y-106977180D01*
X146710400Y-106992420D02*
X146712940Y-106989880D01*
X155064460Y-107000040D02*
X146712940Y-106989880D01*
X146712940Y-106989880D02*
X146131280Y-106989880D01*
X144165320Y-106992420D02*
X141937740Y-106989880D01*
X155150820Y-106979720D02*
X152923240Y-106977180D01*
X157698440Y-106977180D02*
X157116780Y-106977180D01*
X76964540Y-115539520D02*
X76382880Y-115539520D01*
X85316060Y-115549680D02*
X76964540Y-115539520D01*
X76962000Y-115542060D02*
X76964540Y-115539520D01*
X107287060Y-115526820D02*
X98935540Y-115516660D01*
X96387920Y-115519200D02*
X98933000Y-115519200D01*
X85402420Y-115531900D02*
X87947500Y-115531900D01*
X98933000Y-115519200D02*
X98935540Y-115516660D01*
X87947500Y-115531900D02*
X87950040Y-115529360D01*
X96301560Y-115539520D02*
X87950040Y-115529360D01*
X74416920Y-115542060D02*
X76962000Y-115542060D01*
X87950040Y-115529360D02*
X87368380Y-115529360D01*
X85402420Y-115531900D02*
X83174840Y-115529360D01*
X96387920Y-115519200D02*
X94160340Y-115516660D01*
X98935540Y-115516660D02*
X98353880Y-115516660D01*
X137848340Y-115529360D02*
X137266680Y-115529360D01*
X146286220Y-115519200D02*
X148831300Y-115519200D01*
X146286220Y-115519200D02*
X144058640Y-115516660D01*
X157281880Y-115524280D02*
X159826960Y-115524280D01*
X135300720Y-115531900D02*
X133073140Y-115529360D01*
X137845800Y-115531900D02*
X137848340Y-115529360D01*
X157185360Y-115526820D02*
X148833840Y-115516660D01*
X159829500Y-115521740D02*
X159247840Y-115521740D01*
X159826960Y-115524280D02*
X159829500Y-115521740D01*
X148833840Y-115516660D02*
X148252180Y-115516660D01*
X148831300Y-115519200D02*
X148833840Y-115516660D01*
X146199860Y-115539520D02*
X137848340Y-115529360D01*
X135300720Y-115531900D02*
X137845800Y-115531900D01*
X126862840Y-115539520D02*
X126281180Y-115539520D01*
X135214360Y-115549680D02*
X126862840Y-115539520D01*
X157281880Y-115524280D02*
X155054300Y-115521740D01*
X71894860Y-106606720D02*
X81602580Y-106659680D01*
X81602580Y-106659680D02*
X82598260Y-106964480D01*
X82598260Y-106964480D02*
X83675220Y-106994960D01*
X100662740Y-106939080D02*
X86222840Y-106992420D01*
X162778440Y-115521740D02*
X159829500Y-115521740D01*
X160647380Y-106977180D02*
X157698440Y-106977180D01*
X112697260Y-115376960D02*
X109931200Y-115521740D01*
X111379000Y-106873040D02*
X105234740Y-106939080D01*
X111379000Y-106980718D02*
X113615742Y-109217460D01*
X111379000Y-106873040D02*
X111379000Y-106980718D01*
X113615742Y-109217460D02*
X113615742Y-108738398D01*
X113974880Y-108379260D02*
X113974880Y-105895140D01*
X113615742Y-108738398D02*
X113974880Y-108379260D01*
X141955520Y-106982260D02*
X129293620Y-107027980D01*
X117464840Y-100858320D02*
X113974880Y-105895140D01*
X124294900Y-105189020D02*
X117464840Y-100858320D01*
X124117100Y-116451380D02*
X125511557Y-115152987D01*
X126860300Y-115542060D02*
X126862840Y-115539520D01*
X125511557Y-115152987D02*
X125955185Y-115538645D01*
X123240800Y-115473480D02*
X124117100Y-116451380D01*
X125955185Y-115538645D02*
X126860300Y-115542060D01*
X129293620Y-107027980D02*
X128051560Y-107007660D01*
X128051560Y-107007660D02*
X124294900Y-105189020D01*
X137522721Y-102262441D02*
X137489820Y-103172620D01*
X137584741Y-102097840D02*
X137522721Y-102262441D01*
X137805160Y-102130860D02*
X137584741Y-102097840D01*
X138554460Y-101963220D02*
X137805160Y-102130860D01*
X147248880Y-101757480D02*
X146842480Y-101566980D01*
X146842480Y-101566980D02*
X142087600Y-101081840D01*
X148295360Y-101780340D02*
X147248880Y-101757480D01*
X151589740Y-100576380D02*
X150586440Y-101597460D01*
X150586440Y-101597460D02*
X149316440Y-101793040D01*
X149316440Y-101793040D02*
X149316440Y-101782880D01*
X149316440Y-101782880D02*
X148295360Y-101780340D01*
X156390305Y-101574565D02*
X159174180Y-101089460D01*
X153108660Y-101521260D02*
X156390305Y-101574565D01*
X151589740Y-100576380D02*
X153108660Y-101521260D01*
X112024160Y-116177060D02*
X105128060Y-116177060D01*
X107327700Y-107594400D02*
X100431600Y-107594400D01*
X155145740Y-107647740D02*
X147406360Y-107642660D01*
X159791400Y-107632500D02*
X152895300Y-107632500D01*
X96382840Y-116187220D02*
X88643460Y-116182140D01*
X107368340Y-116174520D02*
X99628960Y-116169440D01*
X90043000Y-116184680D02*
X83146900Y-116184680D01*
X101028500Y-116171980D02*
X94132400Y-116171980D01*
X161922460Y-116177060D02*
X155026360Y-116177060D01*
X150926800Y-116171980D02*
X144030700Y-116171980D01*
X157266640Y-116174520D02*
X149527260Y-116169440D01*
X146281140Y-116187220D02*
X138541760Y-116182140D01*
X139941300Y-116184680D02*
X133045200Y-116184680D01*
X135295640Y-116197380D02*
X127556260Y-116192300D01*
X85397340Y-116197380D02*
X79057500Y-116194840D01*
X88315800Y-107647740D02*
X81866740Y-107579160D01*
X71894860Y-107106720D02*
X75981560Y-107106720D01*
X75981560Y-107106720D02*
X81866740Y-107579160D01*
X100479860Y-107591860D02*
X86916260Y-107645200D01*
X165287960Y-107629960D02*
X158391860Y-107629960D01*
X112488980Y-116197380D02*
X110624620Y-116174520D01*
X114876580Y-106387900D02*
X114879120Y-106982260D01*
X167081200Y-116390420D02*
X160522920Y-116174520D01*
X110990380Y-107607100D02*
X105928160Y-107591860D01*
X110990380Y-107607100D02*
X111206280Y-107607100D01*
X111206280Y-107607100D02*
X113591340Y-109992160D01*
X114876580Y-107061998D02*
X114876580Y-106387900D01*
X114732942Y-108850558D02*
X114783349Y-108800151D01*
X114351965Y-109068257D02*
X114732942Y-108850558D01*
X114290733Y-109292767D02*
X114351965Y-109068257D01*
X113591340Y-109992160D02*
X114290733Y-109292767D01*
X114783349Y-108800151D02*
X114783349Y-108349750D01*
X114802359Y-107136219D02*
X114876580Y-107061998D01*
X114876580Y-108256519D02*
X114876580Y-107786442D01*
X114783349Y-108349750D02*
X114876580Y-108256519D01*
X114876580Y-107786442D02*
X114802359Y-107712221D01*
X114802359Y-107712221D02*
X114802359Y-107136219D01*
X117464840Y-101973380D02*
X114876580Y-106387900D01*
X123563380Y-105653840D02*
X117464840Y-101973380D01*
X128437640Y-107683300D02*
X123563380Y-105653840D01*
X134777480Y-107685840D02*
X128437640Y-107683300D01*
X141909800Y-107645200D02*
X134777480Y-107685840D01*
X148805900Y-107645200D02*
X141909800Y-107645200D01*
X165287960Y-107629960D02*
X166573200Y-107596940D01*
X166573200Y-107596940D02*
X167081200Y-116390420D01*
X125344224Y-116209776D02*
X128955800Y-116194840D01*
X122758200Y-118135400D02*
X125344224Y-116209776D01*
X122199400Y-116222780D02*
X122758200Y-118135400D01*
X135989820Y-98772620D02*
X135672050Y-98488010D01*
X135672050Y-98488010D02*
X135516620Y-98348800D01*
X144063720Y-99126040D02*
X143939260Y-99319080D01*
X142897860Y-98607880D02*
X138912600Y-98348800D01*
X143215360Y-98671380D02*
X142897860Y-98607880D01*
X144063720Y-99126040D02*
X143215360Y-98671380D01*
X156029660Y-98877120D02*
X154749500Y-98836480D01*
X147141727Y-98371187D02*
X146984720Y-98376740D01*
X147522304Y-98495808D02*
X147141727Y-98371187D01*
X154749500Y-98836480D02*
X152562560Y-98549460D01*
X146984720Y-98376740D02*
X146578320Y-98478340D01*
X152562560Y-98549460D02*
X151678640Y-98358960D01*
X146578320Y-98478340D02*
X144063720Y-99126040D01*
X151678640Y-98358960D02*
X147522304Y-98495808D01*
X106725720Y-114715543D02*
X105105200Y-114714020D01*
X102029260Y-106132883D02*
X100408740Y-106131360D01*
X155064460Y-106207560D02*
X143393160Y-106202480D01*
X154492960Y-106170983D02*
X152872440Y-106169460D01*
X143507460Y-106183683D02*
X141886940Y-106182160D01*
X85316060Y-114757200D02*
X73644760Y-114752120D01*
X96301560Y-114747040D02*
X84630260Y-114741960D01*
X95730060Y-114710463D02*
X94109540Y-114708940D01*
X84744560Y-114723163D02*
X83124040Y-114721640D01*
X107287060Y-114734340D02*
X95615760Y-114729260D01*
X145628360Y-114710463D02*
X144007840Y-114708940D01*
X157185360Y-114734340D02*
X145514060Y-114729260D01*
X146199860Y-114747040D02*
X134528560Y-114741960D01*
X134642860Y-114723163D02*
X133022340Y-114721640D01*
X156624020Y-114715543D02*
X155003500Y-114714020D01*
X73759060Y-114733323D02*
X73644760Y-114752120D01*
X83017360Y-106186223D02*
X82903060Y-106205020D01*
X71894860Y-106106720D02*
X81602580Y-106151680D01*
X81602580Y-106151680D02*
X82903060Y-106205020D01*
X100525580Y-106128820D02*
X82903060Y-106205020D01*
X162006280Y-114731800D02*
X156509720Y-114734340D01*
X159875220Y-106187240D02*
X154378660Y-106189780D01*
X112191800Y-114729260D02*
X106611420Y-114734340D01*
X101914960Y-106151680D02*
X111556800Y-106172000D01*
X111556800Y-106485141D02*
X112983559Y-107911900D01*
X111556800Y-106172000D02*
X111556800Y-106485141D01*
X112983559Y-107911900D02*
X112983559Y-107711961D01*
X112983559Y-107711961D02*
X113235740Y-107459780D01*
X113235740Y-105455720D02*
X113372900Y-105318560D01*
X113235740Y-107459780D02*
X113235740Y-105455720D01*
X125166827Y-114868253D02*
X124893030Y-115142050D01*
X125166827Y-114752827D02*
X125166827Y-114868253D01*
X135214360Y-114757200D02*
X125166827Y-114752827D01*
X124501868Y-114748268D02*
X124454330Y-114748268D01*
X124893030Y-115139430D02*
X124501868Y-114748268D01*
X124893030Y-115142050D02*
X124893030Y-115139430D01*
X124454330Y-114748268D02*
X124318519Y-114612457D01*
X124318519Y-114612457D02*
X123788926Y-115142050D01*
X123788926Y-115142050D02*
X123788926Y-115051326D01*
X123788926Y-115051326D02*
X122796300Y-114058700D01*
X122707400Y-114147600D02*
X122707400Y-114747040D01*
X122796300Y-114058700D02*
X122707400Y-114147600D01*
X141950440Y-106169460D02*
X128521460Y-106238040D01*
X117383560Y-99842320D02*
X113372900Y-105318560D01*
X123855480Y-104152700D02*
X117383560Y-99842320D01*
X136984740Y-101912420D02*
X136972040Y-102699820D01*
X142580360Y-100423980D02*
X142615920Y-100317300D01*
X142925711Y-100561229D02*
X142580360Y-100423980D01*
X150162260Y-101097080D02*
X149862540Y-101290120D01*
X149862540Y-101290120D02*
X149171660Y-101379020D01*
X150581360Y-100581460D02*
X150162260Y-101097080D01*
X150832820Y-100233480D02*
X150581360Y-100581460D01*
X148770340Y-101376480D02*
X147680680Y-101363780D01*
X149171660Y-101379020D02*
X148770340Y-101376480D01*
X147680680Y-101363780D02*
X147261580Y-101249480D01*
X147261580Y-101249480D02*
X146855180Y-101097080D01*
X146855180Y-101097080D02*
X143367760Y-100804980D01*
X143367760Y-100804980D02*
X142925711Y-100561229D01*
X106434181Y-114008102D02*
X105079800Y-114008102D01*
X101737721Y-105425442D02*
X100383340Y-105425442D01*
X154201421Y-105463542D02*
X152847040Y-105463542D01*
X155031440Y-105460800D02*
X142979701Y-105473702D01*
X95438521Y-114003022D02*
X94084140Y-114003022D01*
X107254040Y-113987580D02*
X95202301Y-114000482D01*
X96268540Y-114000280D02*
X84216801Y-114013182D01*
X84453021Y-114015722D02*
X83098640Y-114015722D01*
X85283040Y-114010440D02*
X73231301Y-114023342D01*
X156332481Y-114008102D02*
X154978100Y-114008102D01*
X145336821Y-114003022D02*
X143982440Y-114003022D01*
X157152340Y-113987580D02*
X145100601Y-114000482D01*
X134351321Y-114015722D02*
X132996940Y-114015722D01*
X146166840Y-114000280D02*
X134115101Y-114013182D01*
X73467521Y-114025882D02*
X73228200Y-114023140D01*
X82725821Y-105478782D02*
X82486500Y-105476040D01*
X71894860Y-105606720D02*
X82486500Y-105476040D01*
X100652580Y-105430320D02*
X82489601Y-105476242D01*
X161589720Y-114002820D02*
X156096261Y-114005562D01*
X159458660Y-105458260D02*
X153965201Y-105461002D01*
X112448340Y-105468420D02*
X112448340Y-104891840D01*
X111203942Y-105405122D02*
X101501501Y-105422902D01*
X112293400Y-104419400D02*
X112189664Y-104419400D01*
X112430560Y-104909620D02*
X112293400Y-104419400D01*
X111704120Y-114043460D02*
X106197961Y-114005562D01*
X135181340Y-114010440D02*
X125140720Y-113941860D01*
X125140720Y-113941860D02*
X125026420Y-113941860D01*
X125026420Y-113941860D02*
X124620020Y-114348260D01*
X124620020Y-114348260D02*
X124293969Y-114022209D01*
X124293969Y-114067251D02*
X124012960Y-114348260D01*
X124012960Y-114348260D02*
X124012960Y-114352316D01*
X124293969Y-114022209D02*
X124293969Y-114067251D01*
X124012960Y-114236500D02*
X123416060Y-113639600D01*
X124012960Y-114348260D02*
X124012960Y-114236500D01*
X117363240Y-99011740D02*
X112141202Y-104467862D01*
X112141202Y-104467862D02*
X111203942Y-105405122D01*
X112189664Y-104419400D02*
X112141202Y-104467862D01*
X128104900Y-105509060D02*
X124345700Y-103609140D01*
X124345700Y-103609140D02*
X117363240Y-99011740D01*
X134663180Y-105498900D02*
X128104900Y-105509060D01*
X141861540Y-105476242D02*
X134663180Y-105498900D01*
X143215921Y-105476242D02*
X141861540Y-105476242D01*
X124708920Y-103969820D02*
X124345700Y-103609140D01*
X140060680Y-113896140D02*
X140449300Y-114007900D01*
X136207500Y-101480620D02*
X136080500Y-101861620D01*
X136080500Y-101861620D02*
X136319260Y-102115620D01*
X136319260Y-102115620D02*
X136497060Y-102471220D01*
X136497060Y-102471220D02*
X136497060Y-102699820D01*
X143545560Y-100401120D02*
X142948660Y-99877880D01*
X146893280Y-100677980D02*
X143545560Y-100401120D01*
X150020020Y-100302060D02*
X149484080Y-100891340D01*
X149484080Y-100891340D02*
X149042120Y-100975160D01*
X149042120Y-100975160D02*
X148772880Y-100878640D01*
X142948660Y-99877880D02*
X142212060Y-99674680D01*
X147718780Y-100944680D02*
X146893280Y-100677980D01*
X148772880Y-100878640D02*
X147718780Y-100944680D01*
X106693822Y-113300658D02*
X105089960Y-113301780D01*
X101997362Y-104717998D02*
X100393500Y-104719120D01*
X155064460Y-104769920D02*
X142540842Y-104766258D01*
X143475562Y-104768798D02*
X141871700Y-104769920D01*
X154461062Y-104756098D02*
X152857200Y-104757220D01*
X96301560Y-113309400D02*
X83777942Y-113305738D01*
X84712662Y-113308278D02*
X83108800Y-113309400D01*
X95698162Y-113295578D02*
X94094300Y-113296700D01*
X107287060Y-113296700D02*
X94763442Y-113293038D01*
X134610962Y-113308278D02*
X133007100Y-113309400D01*
X156592122Y-113300658D02*
X154988260Y-113301780D01*
X157185360Y-113296700D02*
X144661742Y-113293038D01*
X85316060Y-113319560D02*
X73727162Y-113318438D01*
X71894860Y-105106720D02*
X74416920Y-105077260D01*
X74416920Y-105077260D02*
X81968340Y-104630220D01*
X81968340Y-104630220D02*
X82985462Y-104771338D01*
X101033580Y-104721660D02*
X82985462Y-104771338D01*
X162088682Y-113298118D02*
X155657402Y-113298118D01*
X159957622Y-104753558D02*
X153526342Y-104753558D01*
X111094520Y-113319560D02*
X105759102Y-113298118D01*
X123934220Y-112986820D02*
X123934220Y-113109136D01*
X123934220Y-112986820D02*
X123934220Y-113322100D01*
X123934220Y-113322100D02*
X124073920Y-113461800D01*
X124073920Y-113507520D02*
X124188598Y-113622199D01*
X124073920Y-113461800D02*
X124073920Y-113507520D01*
X124188598Y-113622199D02*
X124208182Y-113622178D01*
X124208182Y-113622178D02*
X124861320Y-112969040D01*
X124985734Y-112969040D02*
X125272777Y-113256083D01*
X124861320Y-112969040D02*
X124985734Y-112969040D01*
X125272777Y-113256083D02*
X135214360Y-113319560D01*
X141897100Y-104757220D02*
X128603862Y-104804358D01*
X124904500Y-102915720D02*
X128603862Y-104804358D01*
X110909100Y-104749600D02*
X101062642Y-104715458D01*
X124904500Y-102915720D02*
X117543680Y-98302980D01*
X117543680Y-98302980D02*
X117454680Y-98198940D01*
X117454680Y-98198940D02*
X110909100Y-104749600D01*
X140423900Y-112963960D02*
X133676242Y-113305738D01*
X140423900Y-112963960D02*
X144124772Y-113296608D01*
X144124772Y-113296608D02*
X143992600Y-113296700D01*
X145596462Y-113295578D02*
X144124772Y-113296608D01*
X135732520Y-100792280D02*
X135453120Y-101145340D01*
X135453120Y-101145340D02*
X135453120Y-102694740D01*
X135453120Y-102694740D02*
X135923020Y-103050340D01*
X143253460Y-99560380D02*
X142948660Y-99230180D01*
X149169120Y-100335080D02*
X148267420Y-100497640D01*
X148267420Y-100497640D02*
X147754340Y-100517960D01*
X143758920Y-99969320D02*
X143253460Y-99560380D01*
X147754340Y-100517960D02*
X146989800Y-100274120D01*
X146989800Y-100274120D02*
X143758920Y-99969320D01*
X85405808Y-109987928D02*
X84902040Y-109987928D01*
X85369400Y-109951520D02*
X85405808Y-109987928D01*
X84406740Y-109951520D02*
X85369400Y-109951520D01*
X84406740Y-109990468D02*
X81391760Y-109989620D01*
X109077760Y-118480840D02*
X109114168Y-118517248D01*
X108115100Y-118519788D02*
X105100120Y-118518940D01*
X109114168Y-118517248D02*
X108610400Y-118517248D01*
X108115100Y-118480840D02*
X109077760Y-118480840D01*
X103418640Y-109898180D02*
X104381300Y-109898180D01*
X104381300Y-109898180D02*
X104417708Y-109934588D01*
X104417708Y-109934588D02*
X103913940Y-109934588D01*
X103418640Y-109937128D02*
X100403660Y-109936280D01*
X155882340Y-109936280D02*
X156845000Y-109936280D01*
X145859500Y-109948980D02*
X145895908Y-109985388D01*
X144896840Y-109948980D02*
X145859500Y-109948980D01*
X155003500Y-109984540D02*
X145895908Y-109985388D01*
X155882340Y-109975228D02*
X152867360Y-109974380D01*
X156845000Y-109936280D02*
X156881408Y-109972688D01*
X145895908Y-109985388D02*
X145392140Y-109985388D01*
X156881408Y-109972688D02*
X156377640Y-109972688D01*
X125527648Y-110023488D02*
X125023880Y-110023488D01*
X124528580Y-109987080D02*
X125491240Y-109987080D01*
X134635240Y-110022640D02*
X125527648Y-110023488D01*
X125491240Y-109987080D02*
X125527648Y-110023488D01*
X75148440Y-118498620D02*
X76111100Y-118498620D01*
X97119440Y-118475760D02*
X98082100Y-118475760D01*
X76111100Y-118498620D02*
X76147508Y-118535028D01*
X86133940Y-118527408D02*
X83118960Y-118526560D01*
X76147508Y-118535028D02*
X75643740Y-118535028D01*
X85255100Y-118534180D02*
X76147508Y-118535028D01*
X87096600Y-118488460D02*
X87133008Y-118524868D01*
X86133940Y-118488460D02*
X87096600Y-118488460D01*
X96240600Y-118524020D02*
X87133008Y-118524868D01*
X97119440Y-118514708D02*
X94104460Y-118513860D01*
X107226100Y-118511320D02*
X98118508Y-118512168D01*
X98082100Y-118475760D02*
X98118508Y-118512168D01*
X87133008Y-118524868D02*
X86629240Y-118524868D01*
X98118508Y-118512168D02*
X97614740Y-118512168D01*
X158013400Y-118480840D02*
X158976060Y-118480840D01*
X146138900Y-118524020D02*
X137031308Y-118524868D01*
X158013400Y-118519788D02*
X154998420Y-118518940D01*
X159012468Y-118517248D02*
X158508700Y-118517248D01*
X136032240Y-118527408D02*
X133017260Y-118526560D01*
X137031308Y-118524868D02*
X136527540Y-118524868D01*
X158976060Y-118480840D02*
X159012468Y-118517248D01*
X136994900Y-118488460D02*
X137031308Y-118524868D01*
X157124400Y-118511320D02*
X148016808Y-118512168D01*
X148016808Y-118512168D02*
X147513040Y-118512168D01*
X147017740Y-118475760D02*
X147980400Y-118475760D01*
X147017740Y-118514708D02*
X144002760Y-118513860D01*
X147980400Y-118475760D02*
X148016808Y-118512168D01*
X136032240Y-118488460D02*
X136994900Y-118488460D01*
X75148440Y-118537568D02*
X75148440Y-118498620D01*
X100421440Y-109926120D02*
X85405808Y-109987928D01*
X163509960Y-118478300D02*
X159012468Y-118517248D01*
X161378900Y-109933740D02*
X156881408Y-109972688D01*
X134635240Y-110022640D02*
X142224663Y-109987177D01*
X142224663Y-109987177D02*
X141881860Y-109987080D01*
X144896840Y-109987928D02*
X142224663Y-109987177D01*
X112453420Y-118513860D02*
X109114168Y-118517248D01*
X115735100Y-110694198D02*
X115735100Y-109964220D01*
X115558298Y-110871000D02*
X115735100Y-110694198D01*
X104417708Y-109934588D02*
X110563810Y-109821830D01*
X110563810Y-109821830D02*
X113934240Y-113202720D01*
X113934240Y-113202720D02*
X115201700Y-111526320D01*
X115201700Y-111526320D02*
X115558298Y-110871000D01*
X117668040Y-105445560D02*
X119575580Y-107241340D01*
X117668040Y-105445560D02*
X116397161Y-108992279D01*
X115735100Y-109964220D02*
X116397161Y-108992279D01*
X127081280Y-117952520D02*
X127494586Y-118534894D01*
X127494586Y-118534894D02*
X135153400Y-118534180D01*
X119575580Y-107241340D02*
X120812560Y-111912400D01*
X120812560Y-111912400D02*
X122528002Y-108878042D01*
X124528580Y-109987080D02*
X122528002Y-108878042D01*
X122494040Y-119875300D02*
X121762520Y-119298720D01*
X125763020Y-117505480D02*
X122494040Y-119875300D01*
X127081280Y-117952520D02*
X125763020Y-117505480D01*
X119938800Y-117492780D02*
X121747280Y-119291100D01*
X119781320Y-116631720D02*
X119938800Y-117492780D01*
X74467720Y-108612940D02*
X81419700Y-109994700D01*
X71894860Y-108606720D02*
X74467720Y-108612940D01*
X136989820Y-98772620D02*
X136977120Y-99598480D01*
X136977120Y-99598480D02*
X136812020Y-99801680D01*
X136812020Y-99801680D02*
X136268460Y-100081080D01*
X136268460Y-100081080D02*
X136268460Y-100081080D01*
X147477480Y-98897440D02*
X146972020Y-99024440D01*
X151387032Y-98773472D02*
X147477480Y-98897440D01*
X152250140Y-99034600D02*
X151387032Y-98773472D01*
X155501340Y-99568000D02*
X152250140Y-99034600D01*
X86243710Y-110757250D02*
X86262634Y-110776174D01*
X86262634Y-110776174D02*
X85664590Y-110776174D01*
X84745110Y-110757250D02*
X86243710Y-110757250D01*
X108453470Y-119308034D02*
X105095040Y-119311420D01*
X109970994Y-119305494D02*
X109372950Y-119305494D01*
X109952070Y-119286570D02*
X109970994Y-119305494D01*
X108453470Y-119286570D02*
X109952070Y-119286570D01*
X105255610Y-110703910D02*
X105274534Y-110722834D01*
X103757010Y-110725374D02*
X100398580Y-110728760D01*
X105274534Y-110722834D02*
X104676490Y-110722834D01*
X103757010Y-110703910D02*
X105255610Y-110703910D01*
X155023820Y-110754160D02*
X146752734Y-110773634D01*
X145235210Y-110754710D02*
X146733810Y-110754710D01*
X146752734Y-110773634D02*
X146154690Y-110773634D01*
X157738234Y-110760934D02*
X157140190Y-110760934D01*
X145235210Y-110776174D02*
X141876780Y-110779560D01*
X156220710Y-110742010D02*
X157719310Y-110742010D01*
X146733810Y-110754710D02*
X146752734Y-110773634D01*
X157719310Y-110742010D02*
X157738234Y-110760934D01*
X156220710Y-110763474D02*
X152862280Y-110766860D01*
X134655560Y-110792260D02*
X126384474Y-110811734D01*
X126384474Y-110811734D02*
X125786430Y-110811734D01*
X126365550Y-110792810D02*
X126384474Y-110811734D01*
X124866950Y-110792810D02*
X126365550Y-110792810D01*
X77004334Y-119323274D02*
X76406290Y-119323274D01*
X85275420Y-119303800D02*
X77004334Y-119323274D01*
X76985410Y-119304350D02*
X77004334Y-119323274D01*
X96260920Y-119293640D02*
X87989834Y-119313114D01*
X75486810Y-119304350D02*
X76985410Y-119304350D01*
X86472310Y-119294190D02*
X87970910Y-119294190D01*
X107246420Y-119280940D02*
X98975334Y-119300414D01*
X87989834Y-119313114D02*
X87391790Y-119313114D01*
X98975334Y-119300414D02*
X98377290Y-119300414D01*
X86472310Y-119315654D02*
X83113880Y-119319040D01*
X97457810Y-119281490D02*
X98956410Y-119281490D01*
X87970910Y-119294190D02*
X87989834Y-119313114D01*
X98956410Y-119281490D02*
X98975334Y-119300414D01*
X97457810Y-119302954D02*
X94099380Y-119306340D01*
X136370610Y-119294190D02*
X137869210Y-119294190D01*
X159850370Y-119286570D02*
X159869294Y-119305494D01*
X147356110Y-119281490D02*
X148854710Y-119281490D01*
X136370610Y-119315654D02*
X133012180Y-119319040D01*
X146159220Y-119293640D02*
X137888134Y-119313114D01*
X137869210Y-119294190D02*
X137888134Y-119313114D01*
X148854710Y-119281490D02*
X148873634Y-119300414D01*
X158351770Y-119308034D02*
X154993340Y-119311420D01*
X148873634Y-119300414D02*
X148275590Y-119300414D01*
X147356110Y-119302954D02*
X143997680Y-119306340D01*
X159869294Y-119305494D02*
X159271250Y-119305494D01*
X157144720Y-119280940D02*
X148873634Y-119300414D01*
X137888134Y-119313114D02*
X137290090Y-119313114D01*
X158351770Y-119286570D02*
X159850370Y-119286570D01*
X75486810Y-119325814D02*
X75486810Y-119304350D01*
X84745110Y-110778714D02*
X81887060Y-110807500D01*
X71894860Y-109106720D02*
X74173080Y-109156500D01*
X74173080Y-109156500D02*
X80873600Y-110799880D01*
X80873600Y-110799880D02*
X81887060Y-110807500D01*
X100406200Y-110716060D02*
X86262634Y-110776174D01*
X163848330Y-119284030D02*
X159869294Y-119305494D01*
X161717270Y-110739470D02*
X157738234Y-110760934D01*
X134655560Y-110792260D02*
X141876780Y-110779560D01*
X112755680Y-119296180D02*
X109970994Y-119305494D01*
X116006880Y-111738138D02*
X116006880Y-111310420D01*
X115729459Y-112015559D02*
X116006880Y-111738138D01*
X114010440Y-113924080D02*
X115290600Y-112682020D01*
X114048540Y-113860580D02*
X114010440Y-113924080D01*
X115404900Y-112478820D02*
X115729459Y-112015559D01*
X115290600Y-112682020D02*
X115404900Y-112478820D01*
X110723680Y-110703360D02*
X113985040Y-113873280D01*
X113985040Y-113873280D02*
X114048540Y-113860580D01*
X105274534Y-110722834D02*
X110736380Y-110690660D01*
X117866160Y-106207560D02*
X116006880Y-111310420D01*
X118899940Y-107729020D02*
X117866160Y-106207560D01*
X124482860Y-111201200D02*
X124866950Y-110792810D01*
X126902634Y-119323274D02*
X135173720Y-119303800D01*
X126883710Y-119304350D02*
X126902634Y-119323274D01*
X125854460Y-118176040D02*
X126637556Y-119365536D01*
X126637556Y-119365536D02*
X126883710Y-119304350D01*
X122782144Y-110143476D02*
X120751600Y-113433860D01*
X122782144Y-110143476D02*
X124482860Y-111201200D01*
X120751600Y-113433860D02*
X118899940Y-107729020D01*
X125844300Y-117993160D02*
X125945900Y-118399560D01*
X122496580Y-120436640D02*
X125844300Y-117993160D01*
X119288560Y-117797580D02*
X122476260Y-120436640D01*
X119298720Y-117363240D02*
X119288560Y-117797580D01*
X137489820Y-98772620D02*
X137472420Y-99814380D01*
X137472420Y-99814380D02*
X137396220Y-100220780D01*
X137396220Y-100220780D02*
X137396220Y-100220780D01*
X139326620Y-100827840D02*
X137358120Y-100218240D01*
X139352020Y-101412040D02*
X139326620Y-100827840D01*
X141358620Y-101978460D02*
X140817600Y-103195120D01*
X140284200Y-103337360D02*
X139778740Y-103187500D01*
X140817600Y-103195120D02*
X140284200Y-103337360D01*
X139778740Y-103187500D02*
X139352020Y-101412040D01*
X147673060Y-99314000D02*
X147317460Y-99712780D01*
X151201120Y-99184460D02*
X147673060Y-99314000D01*
X152044400Y-99407980D02*
X151201120Y-99184460D01*
X155704540Y-100380800D02*
X152044400Y-99407980D01*
X110766860Y-117729000D02*
X110578900Y-117729000D01*
X108419900Y-117731540D02*
X110764320Y-117731540D01*
X108419900Y-117731540D02*
X105082340Y-117731540D01*
X110764320Y-117731540D02*
X110766860Y-117729000D01*
X106067860Y-109148880D02*
X106070400Y-109146340D01*
X103723440Y-109148880D02*
X100385880Y-109148880D01*
X103723440Y-109148880D02*
X106067860Y-109148880D01*
X106070400Y-109146340D02*
X105882440Y-109146340D01*
X145201640Y-109199680D02*
X147546060Y-109199680D01*
X155044140Y-109192060D02*
X147548600Y-109197140D01*
X156187140Y-109186980D02*
X152849580Y-109186980D01*
X145201640Y-109199680D02*
X141864080Y-109199680D01*
X147548600Y-109197140D02*
X147360640Y-109197140D01*
X147546060Y-109199680D02*
X147548600Y-109197140D01*
X156187140Y-109186980D02*
X158531560Y-109186980D01*
X158534100Y-109184440D02*
X158346140Y-109184440D01*
X158531560Y-109186980D02*
X158534100Y-109184440D01*
X127180340Y-109235240D02*
X126992380Y-109235240D01*
X134675880Y-109230160D02*
X127180340Y-109235240D01*
X127177800Y-109237780D02*
X127180340Y-109235240D01*
X124833380Y-109237780D02*
X127177800Y-109237780D01*
X75453240Y-117749320D02*
X77797660Y-117749320D01*
X77800200Y-117746780D02*
X77612240Y-117746780D01*
X85295740Y-117741700D02*
X77800200Y-117746780D01*
X86438740Y-117739160D02*
X88783160Y-117739160D01*
X77797660Y-117749320D02*
X77800200Y-117746780D01*
X96281240Y-117731540D02*
X88785700Y-117736620D01*
X97424240Y-117726460D02*
X94086680Y-117726460D01*
X86438740Y-117739160D02*
X83101180Y-117739160D01*
X88785700Y-117736620D02*
X88597740Y-117736620D01*
X88783160Y-117739160D02*
X88785700Y-117736620D01*
X107266740Y-117718840D02*
X99771200Y-117723920D01*
X97424240Y-117726460D02*
X99768660Y-117726460D01*
X99771200Y-117723920D02*
X99583240Y-117723920D01*
X99768660Y-117726460D02*
X99771200Y-117723920D01*
X147322540Y-117726460D02*
X149666960Y-117726460D01*
X146179540Y-117731540D02*
X138684000Y-117736620D01*
X136337040Y-117739160D02*
X138681460Y-117739160D01*
X160662620Y-117731540D02*
X160665160Y-117729000D01*
X158318200Y-117731540D02*
X154980640Y-117731540D01*
X160665160Y-117729000D02*
X160477200Y-117729000D01*
X138681460Y-117739160D02*
X138684000Y-117736620D01*
X147322540Y-117726460D02*
X143984980Y-117726460D01*
X158318200Y-117731540D02*
X160662620Y-117731540D01*
X138684000Y-117736620D02*
X138496040Y-117736620D01*
X149666960Y-117726460D02*
X149669500Y-117723920D01*
X157165040Y-117718840D02*
X149669500Y-117723920D01*
X149669500Y-117723920D02*
X149481540Y-117723920D01*
X71894860Y-108106720D02*
X74884280Y-108120180D01*
X74884280Y-108120180D02*
X80873600Y-109258100D01*
X80873600Y-109258100D02*
X81887060Y-109265720D01*
X163814760Y-117729000D02*
X160665160Y-117729000D01*
X161683700Y-109184440D02*
X158534100Y-109184440D01*
X134675880Y-109230160D02*
X141864080Y-109199680D01*
X112763300Y-117713760D02*
X110766860Y-117729000D01*
X110698280Y-109103160D02*
X106070400Y-109146340D01*
X113337340Y-111742220D02*
X110698280Y-109103160D01*
X115783360Y-108803440D02*
X115783360Y-109171740D01*
X115783360Y-109171740D02*
X115036600Y-109598460D01*
X115036600Y-109598460D02*
X115036600Y-110182660D01*
X113832640Y-112262920D02*
X113337340Y-111742220D01*
X115036600Y-110182660D02*
X113832640Y-112262920D01*
X136337040Y-117739160D02*
X130848100Y-117746780D01*
X120345200Y-106692700D02*
X117464840Y-104714040D01*
X117464840Y-104714040D02*
X115783360Y-108803440D01*
X120345200Y-106692700D02*
X121015760Y-110733840D01*
X121015760Y-110733840D02*
X122496090Y-107912390D01*
X124833380Y-109237780D02*
X122496090Y-107912390D01*
X122516900Y-119339360D02*
X125511560Y-117170200D01*
X120589040Y-117187980D02*
X122516900Y-119339360D01*
X120594120Y-116603780D02*
X120589040Y-117187980D01*
X125684280Y-117081300D02*
X130848100Y-117746780D01*
X125270260Y-117335300D02*
X125684280Y-117081300D01*
X84711540Y-109202220D02*
X85686900Y-108496100D01*
X85686900Y-108496100D02*
X87091520Y-108485940D01*
X87091520Y-108485940D02*
X88214442Y-109194842D01*
X100411280Y-109143800D02*
X88214442Y-109194842D01*
X83893660Y-109588300D02*
X84353823Y-109210263D01*
X82837020Y-109575600D02*
X83893660Y-109588300D01*
X84353823Y-109210263D02*
X84711540Y-109202220D01*
X81887060Y-109265720D02*
X82837020Y-109575600D01*
X138536680Y-102781100D02*
X138018520Y-103111300D01*
X87599520Y-111566960D02*
X87602060Y-111564420D01*
X84856320Y-111566960D02*
X87599520Y-111566960D01*
X87602060Y-111564420D02*
X87233760Y-111564420D01*
X84856320Y-111566960D02*
X81391760Y-111564420D01*
X108564680Y-120096280D02*
X111307880Y-120096280D01*
X111310420Y-120093740D02*
X110942120Y-120093740D01*
X111307880Y-120096280D02*
X111310420Y-120093740D01*
X108564680Y-120096280D02*
X105100120Y-120093740D01*
X106611420Y-111513620D02*
X106613960Y-111511080D01*
X103868220Y-111513620D02*
X100403660Y-111511080D01*
X106613960Y-111511080D02*
X106245660Y-111511080D01*
X103868220Y-111513620D02*
X106611420Y-111513620D01*
X154983180Y-111587280D02*
X148092160Y-111561880D01*
X145346420Y-111564420D02*
X148089620Y-111564420D01*
X145346420Y-111564420D02*
X141881860Y-111561880D01*
X159075120Y-111551720D02*
X159077660Y-111549180D01*
X159077660Y-111549180D02*
X158709360Y-111549180D01*
X148089620Y-111564420D02*
X148092160Y-111561880D01*
X148092160Y-111561880D02*
X147723860Y-111561880D01*
X156331920Y-111551720D02*
X159075120Y-111551720D01*
X156331920Y-111551720D02*
X152867360Y-111549180D01*
X134614920Y-111625380D02*
X127723900Y-111599980D01*
X127721360Y-111602520D02*
X127723900Y-111599980D01*
X127723900Y-111599980D02*
X127355600Y-111599980D01*
X124978160Y-111602520D02*
X127721360Y-111602520D01*
X78343760Y-120111520D02*
X77975460Y-120111520D01*
X75598020Y-120114060D02*
X78341220Y-120114060D01*
X96220280Y-120126760D02*
X89329260Y-120101360D01*
X86583520Y-120103900D02*
X89326720Y-120103900D01*
X78341220Y-120114060D02*
X78343760Y-120111520D01*
X85234780Y-120136920D02*
X78343760Y-120111520D01*
X86583520Y-120103900D02*
X83118960Y-120101360D01*
X100312220Y-120091200D02*
X100314760Y-120088660D01*
X100314760Y-120088660D02*
X99946460Y-120088660D01*
X89326720Y-120103900D02*
X89329260Y-120101360D01*
X107205780Y-120114060D02*
X100314760Y-120088660D01*
X89329260Y-120101360D02*
X88960960Y-120101360D01*
X97569020Y-120091200D02*
X100312220Y-120091200D01*
X97569020Y-120091200D02*
X94104460Y-120088660D01*
X150213060Y-120088660D02*
X149844760Y-120088660D01*
X136481820Y-120103900D02*
X133017260Y-120101360D01*
X135133080Y-120136920D02*
X128242060Y-120111520D01*
X147467320Y-120091200D02*
X144002760Y-120088660D01*
X157104080Y-120114060D02*
X150213060Y-120088660D01*
X147467320Y-120091200D02*
X150210520Y-120091200D01*
X139225020Y-120103900D02*
X139227560Y-120101360D01*
X158462980Y-120096280D02*
X161206180Y-120096280D01*
X158462980Y-120096280D02*
X154998420Y-120093740D01*
X139227560Y-120101360D02*
X138859260Y-120101360D01*
X150210520Y-120091200D02*
X150213060Y-120088660D01*
X161208720Y-120093740D02*
X160840420Y-120093740D01*
X146118580Y-120126760D02*
X139227560Y-120101360D01*
X161206180Y-120096280D02*
X161208720Y-120093740D01*
X128242060Y-120111520D02*
X127873760Y-120111520D01*
X136481820Y-120103900D02*
X139225020Y-120103900D01*
X128239520Y-120114060D02*
X128242060Y-120111520D01*
X71894860Y-109606720D02*
X73220580Y-109603540D01*
X73220580Y-109603540D02*
X81333340Y-111544100D01*
X100418900Y-111506000D02*
X87602060Y-111564420D01*
X163959540Y-120093740D02*
X161208720Y-120093740D01*
X161828480Y-111549180D02*
X159077660Y-111549180D01*
X134614920Y-111625380D02*
X141881860Y-111561880D01*
X113009680Y-120101360D02*
X111310420Y-120093740D01*
X116352320Y-112969040D02*
X116352320Y-112750600D01*
X116352320Y-112750600D02*
X116352320Y-112283240D01*
X116395500Y-112961420D02*
X114048540Y-114546380D01*
X113540156Y-114064164D02*
X114010440Y-114559080D01*
X111561880Y-112097820D02*
X113540156Y-114064164D01*
X109834680Y-111500920D02*
X111561880Y-112097820D01*
X106613960Y-111511080D02*
X109834680Y-111500920D01*
X117947440Y-107281980D02*
X116329460Y-112303560D01*
X118211600Y-108541820D02*
X117947440Y-107281980D01*
X124527650Y-111948157D02*
X124978160Y-111602520D01*
X123247660Y-111257840D02*
X120670320Y-114388900D01*
X123247660Y-111257840D02*
X124527650Y-111948157D01*
X120670320Y-114388900D02*
X118211600Y-108541820D01*
X127873760Y-120111520D02*
X125397260Y-120091200D01*
X137989820Y-98772620D02*
X138424920Y-99433380D01*
X139707620Y-100497640D02*
X138242040Y-99428300D01*
X140294360Y-102707440D02*
X139707620Y-100497640D01*
X142283180Y-102344220D02*
X141429740Y-103347520D01*
X148577300Y-99700080D02*
X148094700Y-99903280D01*
X154586940Y-100766880D02*
X152293320Y-99971860D01*
X152293320Y-99971860D02*
X151564340Y-99710240D01*
X151188420Y-99613720D02*
X148577300Y-99700080D01*
X151564340Y-99710240D02*
X151188420Y-99613720D01*
X100426520Y-108402120D02*
X109773720Y-108397040D01*
X141904720Y-108452920D02*
X151251920Y-108447840D01*
X152890220Y-108440220D02*
X162237420Y-108435140D01*
X148567140Y-108445300D02*
X155125420Y-108440220D01*
X128198880Y-108483400D02*
X134757160Y-108478320D01*
X78818740Y-116994940D02*
X85377020Y-116989860D01*
X83141820Y-116992400D02*
X92489020Y-116987320D01*
X100789740Y-116972080D02*
X107348020Y-116967000D01*
X94127320Y-116979700D02*
X103474520Y-116974620D01*
X89804240Y-116984780D02*
X96362520Y-116979700D01*
X144025620Y-116979700D02*
X153372820Y-116974620D01*
X139702540Y-116984780D02*
X146260820Y-116979700D01*
X155021280Y-116984780D02*
X164368480Y-116979700D01*
X133040120Y-116992400D02*
X142387320Y-116987320D01*
X128717040Y-116994940D02*
X135275320Y-116989860D01*
X150688040Y-116972080D02*
X157246320Y-116967000D01*
X74104500Y-117005100D02*
X81503520Y-116997480D01*
X88077040Y-108447840D02*
X100464620Y-108389420D01*
X161683700Y-116977160D02*
X166822120Y-116984780D01*
X134757160Y-108478320D02*
X141904720Y-108452920D01*
X112805934Y-116809520D02*
X112634757Y-116980697D01*
X113047780Y-116809520D02*
X112805934Y-116809520D01*
X105122980Y-116984780D02*
X112634757Y-116980697D01*
X115402360Y-107424220D02*
X115387120Y-107817920D01*
X113297261Y-116560039D02*
X113047780Y-116809520D01*
X111511080Y-112859820D02*
X112163860Y-113615198D01*
X111041180Y-112478820D02*
X111511080Y-112859820D01*
X110907638Y-112475202D02*
X111041180Y-112478820D01*
X112524540Y-114173998D02*
X112918240Y-114686080D01*
X75831700Y-112453420D02*
X110907638Y-112475202D01*
X112163860Y-113615198D02*
X112410240Y-114076480D01*
X112410240Y-114076480D02*
X112524540Y-114173998D01*
X112918240Y-114686080D02*
X113096040Y-114887738D01*
X113096040Y-114887738D02*
X113297261Y-115088959D01*
X113297261Y-115088959D02*
X113297261Y-116560039D01*
X115402360Y-108296438D02*
X115402360Y-107424220D01*
X115183359Y-108515439D02*
X115402360Y-108296438D01*
X114338100Y-110119160D02*
X114636590Y-109704686D01*
X111156669Y-108545549D02*
X113705640Y-111094520D01*
X110850680Y-108391960D02*
X111156669Y-108545549D01*
X115183359Y-109053888D02*
X115183359Y-108515439D01*
X113705640Y-111094520D02*
X114617500Y-109700060D01*
X107088940Y-108394500D02*
X110850680Y-108391960D01*
X114636590Y-109704686D02*
X114607091Y-109653062D01*
X114617500Y-109700060D02*
X114338100Y-110119160D01*
X114607091Y-109653062D02*
X114694282Y-109333359D01*
X114694282Y-109333359D02*
X115183359Y-109053888D01*
X128173480Y-108524040D02*
X130883660Y-108485940D01*
X124579380Y-108353860D02*
X124579380Y-108427520D01*
X124579380Y-108427520D02*
X128173480Y-108524040D01*
X121048780Y-105910380D02*
X117546120Y-103294180D01*
X117546120Y-103294180D02*
X115402360Y-107424220D01*
X123873260Y-112234980D02*
X123469400Y-112458500D01*
X159552640Y-108432600D02*
X162722644Y-108430144D01*
X162722644Y-108430144D02*
X162705568Y-112329748D01*
X162705568Y-112329748D02*
X124591539Y-112366519D01*
X124591539Y-112366519D02*
X123873260Y-112234980D01*
X124579380Y-108353860D02*
X122984260Y-105841800D01*
X122984260Y-105841800D02*
X121259600Y-109232700D01*
X121259600Y-109232700D02*
X121048780Y-105910380D01*
X123469400Y-112458500D02*
X121076720Y-114853720D01*
X121076720Y-114853720D02*
X121213880Y-115902740D01*
X125542040Y-116634260D02*
X131401820Y-116997480D01*
X122580400Y-118793260D02*
X125542040Y-116634260D01*
X121213880Y-115902740D02*
X122580400Y-118793260D01*
X74838560Y-107609640D02*
X81257140Y-108473240D01*
X71894860Y-107606720D02*
X74838560Y-107609640D01*
X81559400Y-108201460D02*
X81257140Y-108473240D01*
X90761820Y-108450380D02*
X87865255Y-108451955D01*
X87865255Y-108451955D02*
X87231220Y-108069380D01*
X81815940Y-108211620D02*
X81648300Y-108237020D01*
X85615780Y-108061760D02*
X84604860Y-108016040D01*
X84604860Y-108016040D02*
X82296000Y-108005880D01*
X81630520Y-108272580D02*
X81559400Y-108201460D01*
X87231220Y-108069380D02*
X85615780Y-108061760D01*
X82296000Y-108005880D02*
X82108040Y-108201460D01*
X82108040Y-108201460D02*
X81815940Y-108211620D01*
X81648300Y-108237020D02*
X81630520Y-108272580D01*
D15*
G36*
X167802921Y-107052855D02*
G01*
X165387287Y-107002277D01*
X165350502Y-106994960D01*
X165225418Y-106994960D01*
X165207552Y-106998514D01*
X165039159Y-106994988D01*
X165014336Y-106996909D01*
X164990366Y-107003636D01*
X164960719Y-107020047D01*
X164725491Y-107194960D01*
X160251885Y-107194960D01*
X160196189Y-107139264D01*
X160092185Y-107069771D01*
X159976623Y-107021903D01*
X159864786Y-106999657D01*
X159856859Y-106822240D01*
X159937762Y-106822240D01*
X160060443Y-106797837D01*
X160176005Y-106749969D01*
X160280009Y-106680476D01*
X160368456Y-106592029D01*
X160437949Y-106488025D01*
X160485817Y-106372463D01*
X160510220Y-106249782D01*
X160510220Y-106124698D01*
X160485817Y-106002017D01*
X160437949Y-105886455D01*
X160368456Y-105782451D01*
X160280009Y-105694004D01*
X160176005Y-105624511D01*
X160080869Y-105585104D01*
X160093660Y-105520802D01*
X160093660Y-105395718D01*
X160089493Y-105374768D01*
X160142845Y-105364155D01*
X160258407Y-105316287D01*
X160362411Y-105246794D01*
X160450858Y-105158347D01*
X160520351Y-105054343D01*
X160568219Y-104938781D01*
X160592622Y-104816100D01*
X160592622Y-104691016D01*
X160568219Y-104568335D01*
X160520351Y-104452773D01*
X160450858Y-104348769D01*
X160362411Y-104260322D01*
X160258407Y-104190829D01*
X160142845Y-104142961D01*
X160020164Y-104118558D01*
X159895080Y-104118558D01*
X159772399Y-104142961D01*
X159737787Y-104157298D01*
X159654986Y-102304147D01*
X162503579Y-102316279D01*
X162528366Y-102313944D01*
X162552221Y-102306819D01*
X162574227Y-102295176D01*
X162593539Y-102279464D01*
X162609415Y-102260287D01*
X162621245Y-102238380D01*
X162628573Y-102214587D01*
X162631120Y-102189280D01*
X162631120Y-100578892D01*
X164152960Y-100578892D01*
X164152960Y-100802468D01*
X164196577Y-101021747D01*
X164282136Y-101228304D01*
X164406348Y-101414200D01*
X164564440Y-101572292D01*
X164750336Y-101696504D01*
X164956893Y-101782063D01*
X165176172Y-101825680D01*
X165399748Y-101825680D01*
X165619027Y-101782063D01*
X165825584Y-101696504D01*
X166011480Y-101572292D01*
X166169572Y-101414200D01*
X166293784Y-101228304D01*
X166379343Y-101021747D01*
X166422960Y-100802468D01*
X166422960Y-100578892D01*
X166379343Y-100359613D01*
X166293784Y-100153056D01*
X166169572Y-99967160D01*
X166011480Y-99809068D01*
X165825584Y-99684856D01*
X165619027Y-99599297D01*
X165399748Y-99555680D01*
X165176172Y-99555680D01*
X164956893Y-99599297D01*
X164750336Y-99684856D01*
X164564440Y-99809068D01*
X164406348Y-99967160D01*
X164282136Y-100153056D01*
X164196577Y-100359613D01*
X164152960Y-100578892D01*
X162631120Y-100578892D01*
X162631120Y-98968360D01*
X167802921Y-98968360D01*
X167802921Y-107052855D01*
X167802921Y-107052855D01*
G37*
X167802921Y-107052855D02*
X165387287Y-107002277D01*
X165350502Y-106994960D01*
X165225418Y-106994960D01*
X165207552Y-106998514D01*
X165039159Y-106994988D01*
X165014336Y-106996909D01*
X164990366Y-107003636D01*
X164960719Y-107020047D01*
X164725491Y-107194960D01*
X160251885Y-107194960D01*
X160196189Y-107139264D01*
X160092185Y-107069771D01*
X159976623Y-107021903D01*
X159864786Y-106999657D01*
X159856859Y-106822240D01*
X159937762Y-106822240D01*
X160060443Y-106797837D01*
X160176005Y-106749969D01*
X160280009Y-106680476D01*
X160368456Y-106592029D01*
X160437949Y-106488025D01*
X160485817Y-106372463D01*
X160510220Y-106249782D01*
X160510220Y-106124698D01*
X160485817Y-106002017D01*
X160437949Y-105886455D01*
X160368456Y-105782451D01*
X160280009Y-105694004D01*
X160176005Y-105624511D01*
X160080869Y-105585104D01*
X160093660Y-105520802D01*
X160093660Y-105395718D01*
X160089493Y-105374768D01*
X160142845Y-105364155D01*
X160258407Y-105316287D01*
X160362411Y-105246794D01*
X160450858Y-105158347D01*
X160520351Y-105054343D01*
X160568219Y-104938781D01*
X160592622Y-104816100D01*
X160592622Y-104691016D01*
X160568219Y-104568335D01*
X160520351Y-104452773D01*
X160450858Y-104348769D01*
X160362411Y-104260322D01*
X160258407Y-104190829D01*
X160142845Y-104142961D01*
X160020164Y-104118558D01*
X159895080Y-104118558D01*
X159772399Y-104142961D01*
X159737787Y-104157298D01*
X159654986Y-102304147D01*
X162503579Y-102316279D01*
X162528366Y-102313944D01*
X162552221Y-102306819D01*
X162574227Y-102295176D01*
X162593539Y-102279464D01*
X162609415Y-102260287D01*
X162621245Y-102238380D01*
X162628573Y-102214587D01*
X162631120Y-102189280D01*
X162631120Y-100578892D01*
X164152960Y-100578892D01*
X164152960Y-100802468D01*
X164196577Y-101021747D01*
X164282136Y-101228304D01*
X164406348Y-101414200D01*
X164564440Y-101572292D01*
X164750336Y-101696504D01*
X164956893Y-101782063D01*
X165176172Y-101825680D01*
X165399748Y-101825680D01*
X165619027Y-101782063D01*
X165825584Y-101696504D01*
X166011480Y-101572292D01*
X166169572Y-101414200D01*
X166293784Y-101228304D01*
X166379343Y-101021747D01*
X166422960Y-100802468D01*
X166422960Y-100578892D01*
X166379343Y-100359613D01*
X166293784Y-100153056D01*
X166169572Y-99967160D01*
X166011480Y-99809068D01*
X165825584Y-99684856D01*
X165619027Y-99599297D01*
X165399748Y-99555680D01*
X165176172Y-99555680D01*
X164956893Y-99599297D01*
X164750336Y-99684856D01*
X164564440Y-99809068D01*
X164406348Y-99967160D01*
X164282136Y-100153056D01*
X164196577Y-100359613D01*
X164152960Y-100578892D01*
X162631120Y-100578892D01*
X162631120Y-98968360D01*
X167802921Y-98968360D01*
X167802921Y-107052855D01*
G36*
X162057440Y-98611659D02*
G01*
X162055795Y-98628360D01*
X162062360Y-98695012D01*
X162081801Y-98759102D01*
X162094016Y-98781954D01*
X162073227Y-101680010D01*
X158437773Y-101680010D01*
X155928253Y-101676200D01*
X155927605Y-101676201D01*
X150738099Y-101694777D01*
X151623355Y-100693847D01*
X154344524Y-101641199D01*
X154368725Y-101647041D01*
X154387848Y-101648250D01*
X156033768Y-101627930D01*
X156058512Y-101625184D01*
X156082246Y-101617664D01*
X156104056Y-101605658D01*
X156124769Y-101587888D01*
X156792789Y-100876688D01*
X156807973Y-100856959D01*
X156819016Y-100834645D01*
X156826729Y-100800901D01*
X157057432Y-98185880D01*
X162057441Y-98185880D01*
X162057440Y-98611659D01*
X162057440Y-98611659D01*
G37*
X162057440Y-98611659D02*
X162055795Y-98628360D01*
X162062360Y-98695012D01*
X162081801Y-98759102D01*
X162094016Y-98781954D01*
X162073227Y-101680010D01*
X158437773Y-101680010D01*
X155928253Y-101676200D01*
X155927605Y-101676201D01*
X150738099Y-101694777D01*
X151623355Y-100693847D01*
X154344524Y-101641199D01*
X154368725Y-101647041D01*
X154387848Y-101648250D01*
X156033768Y-101627930D01*
X156058512Y-101625184D01*
X156082246Y-101617664D01*
X156104056Y-101605658D01*
X156124769Y-101587888D01*
X156792789Y-100876688D01*
X156807973Y-100856959D01*
X156819016Y-100834645D01*
X156826729Y-100800901D01*
X157057432Y-98185880D01*
X162057441Y-98185880D01*
X162057440Y-98611659D01*
M02*
