G04 #@! TF.GenerationSoftware,KiCad,Pcbnew,5.1.4-e60b266~84~ubuntu16.04.1*
G04 #@! TF.CreationDate,2019-10-21T03:29:06-05:00*
G04 #@! TF.ProjectId,Quantum MCP4262-502 25x expansion flex for GWAAM-Sea Aid,5175616e-7475-46d2-904d-435034323632,rev?*
G04 #@! TF.SameCoordinates,Original*
G04 #@! TF.FileFunction,Soldermask,Top*
G04 #@! TF.FilePolarity,Negative*
%FSLAX46Y46*%
G04 Gerber Fmt 4.6, Leading zero omitted, Abs format (unit mm)*
G04 Created by KiCad (PCBNEW 5.1.4-e60b266~84~ubuntu16.04.1) date 2019-10-21 03:29:06*
%MOMM*%
%LPD*%
G04 APERTURE LIST*
%ADD10C,0.100000*%
G04 APERTURE END LIST*
D10*
G36*
X168023540Y-107188000D02*
G01*
X164990780Y-107162600D01*
X164994273Y-106131995D01*
X166674642Y-106115168D01*
X166756239Y-105446513D01*
X165066980Y-105412540D01*
X164622480Y-104968040D01*
X163456620Y-103738680D01*
X160878520Y-103738680D01*
X160248600Y-104287320D01*
X159519620Y-104307640D01*
X159522160Y-102252780D01*
X162011360Y-102247700D01*
X162239960Y-103088440D01*
X165729920Y-102135940D01*
X165524180Y-101320600D01*
X164155120Y-100599240D01*
X162582860Y-100977700D01*
X162614584Y-98804854D01*
X168029242Y-98730497D01*
X168023540Y-107188000D01*
G37*
X168023540Y-107188000D02*
X164990780Y-107162600D01*
X164994273Y-106131995D01*
X166674642Y-106115168D01*
X166756239Y-105446513D01*
X165066980Y-105412540D01*
X164622480Y-104968040D01*
X163456620Y-103738680D01*
X160878520Y-103738680D01*
X160248600Y-104287320D01*
X159519620Y-104307640D01*
X159522160Y-102252780D01*
X162011360Y-102247700D01*
X162239960Y-103088440D01*
X165729920Y-102135940D01*
X165524180Y-101320600D01*
X164155120Y-100599240D01*
X162582860Y-100977700D01*
X162614584Y-98804854D01*
X168029242Y-98730497D01*
X168023540Y-107188000D01*
G36*
X128210960Y-120446120D02*
G01*
X125910960Y-120446120D01*
X125910960Y-119046120D01*
X128210960Y-119046120D01*
X128210960Y-120446120D01*
X128210960Y-120446120D01*
G37*
G36*
X78312660Y-120446120D02*
G01*
X76012660Y-120446120D01*
X76012660Y-119046120D01*
X78312660Y-119046120D01*
X78312660Y-120446120D01*
X78312660Y-120446120D01*
G37*
G36*
X83809220Y-120443580D02*
G01*
X81509220Y-120443580D01*
X81509220Y-119043580D01*
X83809220Y-119043580D01*
X83809220Y-120443580D01*
X83809220Y-120443580D01*
G37*
G36*
X133707520Y-120443580D02*
G01*
X131407520Y-120443580D01*
X131407520Y-119043580D01*
X133707520Y-119043580D01*
X133707520Y-120443580D01*
X133707520Y-120443580D01*
G37*
G36*
X139196460Y-120435960D02*
G01*
X136896460Y-120435960D01*
X136896460Y-119035960D01*
X139196460Y-119035960D01*
X139196460Y-120435960D01*
X139196460Y-120435960D01*
G37*
G36*
X89298160Y-120435960D02*
G01*
X86998160Y-120435960D01*
X86998160Y-119035960D01*
X89298160Y-119035960D01*
X89298160Y-120435960D01*
X89298160Y-120435960D01*
G37*
G36*
X94794720Y-120433420D02*
G01*
X92494720Y-120433420D01*
X92494720Y-119033420D01*
X94794720Y-119033420D01*
X94794720Y-120433420D01*
X94794720Y-120433420D01*
G37*
G36*
X144693020Y-120433420D02*
G01*
X142393020Y-120433420D01*
X142393020Y-119033420D01*
X144693020Y-119033420D01*
X144693020Y-120433420D01*
X144693020Y-120433420D01*
G37*
G36*
X111279320Y-120428340D02*
G01*
X108979320Y-120428340D01*
X108979320Y-119028340D01*
X111279320Y-119028340D01*
X111279320Y-120428340D01*
X111279320Y-120428340D01*
G37*
G36*
X161177620Y-120428340D02*
G01*
X158877620Y-120428340D01*
X158877620Y-119028340D01*
X161177620Y-119028340D01*
X161177620Y-120428340D01*
X161177620Y-120428340D01*
G37*
G36*
X166674180Y-120425800D02*
G01*
X164374180Y-120425800D01*
X164374180Y-119025800D01*
X166674180Y-119025800D01*
X166674180Y-120425800D01*
X166674180Y-120425800D01*
G37*
G36*
X150181960Y-120423260D02*
G01*
X147881960Y-120423260D01*
X147881960Y-119023260D01*
X150181960Y-119023260D01*
X150181960Y-120423260D01*
X150181960Y-120423260D01*
G37*
G36*
X100283660Y-120423260D02*
G01*
X97983660Y-120423260D01*
X97983660Y-119023260D01*
X100283660Y-119023260D01*
X100283660Y-120423260D01*
X100283660Y-120423260D01*
G37*
G36*
X105780220Y-120420720D02*
G01*
X103480220Y-120420720D01*
X103480220Y-119020720D01*
X105780220Y-119020720D01*
X105780220Y-120420720D01*
X105780220Y-120420720D01*
G37*
G36*
X155678520Y-120420720D02*
G01*
X153378520Y-120420720D01*
X153378520Y-119020720D01*
X155678520Y-119020720D01*
X155678520Y-120420720D01*
X155678520Y-120420720D01*
G37*
G36*
X128210960Y-116046120D02*
G01*
X125910960Y-116046120D01*
X125910960Y-114646120D01*
X128210960Y-114646120D01*
X128210960Y-116046120D01*
X128210960Y-116046120D01*
G37*
G36*
X78312660Y-116046120D02*
G01*
X76012660Y-116046120D01*
X76012660Y-114646120D01*
X78312660Y-114646120D01*
X78312660Y-116046120D01*
X78312660Y-116046120D01*
G37*
G36*
X83809220Y-116043580D02*
G01*
X81509220Y-116043580D01*
X81509220Y-114643580D01*
X83809220Y-114643580D01*
X83809220Y-116043580D01*
X83809220Y-116043580D01*
G37*
G36*
X133707520Y-116043580D02*
G01*
X131407520Y-116043580D01*
X131407520Y-114643580D01*
X133707520Y-114643580D01*
X133707520Y-116043580D01*
X133707520Y-116043580D01*
G37*
G36*
X89298160Y-116035960D02*
G01*
X86998160Y-116035960D01*
X86998160Y-114635960D01*
X89298160Y-114635960D01*
X89298160Y-116035960D01*
X89298160Y-116035960D01*
G37*
G36*
X139196460Y-116035960D02*
G01*
X136896460Y-116035960D01*
X136896460Y-114635960D01*
X139196460Y-114635960D01*
X139196460Y-116035960D01*
X139196460Y-116035960D01*
G37*
G36*
X144693020Y-116033420D02*
G01*
X142393020Y-116033420D01*
X142393020Y-114633420D01*
X144693020Y-114633420D01*
X144693020Y-116033420D01*
X144693020Y-116033420D01*
G37*
G36*
X94794720Y-116033420D02*
G01*
X92494720Y-116033420D01*
X92494720Y-114633420D01*
X94794720Y-114633420D01*
X94794720Y-116033420D01*
X94794720Y-116033420D01*
G37*
G36*
X111279320Y-116028340D02*
G01*
X108979320Y-116028340D01*
X108979320Y-114628340D01*
X111279320Y-114628340D01*
X111279320Y-116028340D01*
X111279320Y-116028340D01*
G37*
G36*
X161177620Y-116028340D02*
G01*
X158877620Y-116028340D01*
X158877620Y-114628340D01*
X161177620Y-114628340D01*
X161177620Y-116028340D01*
X161177620Y-116028340D01*
G37*
G36*
X166674180Y-116025800D02*
G01*
X164374180Y-116025800D01*
X164374180Y-114625800D01*
X166674180Y-114625800D01*
X166674180Y-116025800D01*
X166674180Y-116025800D01*
G37*
G36*
X150181960Y-116023260D02*
G01*
X147881960Y-116023260D01*
X147881960Y-114623260D01*
X150181960Y-114623260D01*
X150181960Y-116023260D01*
X150181960Y-116023260D01*
G37*
G36*
X100283660Y-116023260D02*
G01*
X97983660Y-116023260D01*
X97983660Y-114623260D01*
X100283660Y-114623260D01*
X100283660Y-116023260D01*
X100283660Y-116023260D01*
G37*
G36*
X105780220Y-116020720D02*
G01*
X103480220Y-116020720D01*
X103480220Y-114620720D01*
X105780220Y-114620720D01*
X105780220Y-116020720D01*
X105780220Y-116020720D01*
G37*
G36*
X155678520Y-116020720D02*
G01*
X153378520Y-116020720D01*
X153378520Y-114620720D01*
X155678520Y-114620720D01*
X155678520Y-116020720D01*
X155678520Y-116020720D01*
G37*
G36*
X127692800Y-111934580D02*
G01*
X125392800Y-111934580D01*
X125392800Y-110534580D01*
X127692800Y-110534580D01*
X127692800Y-111934580D01*
X127692800Y-111934580D01*
G37*
G36*
X133189360Y-111932040D02*
G01*
X130889360Y-111932040D01*
X130889360Y-110532040D01*
X133189360Y-110532040D01*
X133189360Y-111932040D01*
X133189360Y-111932040D01*
G37*
G36*
X87570960Y-111899020D02*
G01*
X85270960Y-111899020D01*
X85270960Y-110499020D01*
X87570960Y-110499020D01*
X87570960Y-111899020D01*
X87570960Y-111899020D01*
G37*
G36*
X148061060Y-111896480D02*
G01*
X145761060Y-111896480D01*
X145761060Y-110496480D01*
X148061060Y-110496480D01*
X148061060Y-111896480D01*
X148061060Y-111896480D01*
G37*
G36*
X93067520Y-111896480D02*
G01*
X90767520Y-111896480D01*
X90767520Y-110496480D01*
X93067520Y-110496480D01*
X93067520Y-111896480D01*
X93067520Y-111896480D01*
G37*
G36*
X153557620Y-111893940D02*
G01*
X151257620Y-111893940D01*
X151257620Y-110493940D01*
X153557620Y-110493940D01*
X153557620Y-111893940D01*
X153557620Y-111893940D01*
G37*
G36*
X159046560Y-111883780D02*
G01*
X156746560Y-111883780D01*
X156746560Y-110483780D01*
X159046560Y-110483780D01*
X159046560Y-111883780D01*
X159046560Y-111883780D01*
G37*
G36*
X164543120Y-111881240D02*
G01*
X162243120Y-111881240D01*
X162243120Y-110481240D01*
X164543120Y-110481240D01*
X164543120Y-111881240D01*
X164543120Y-111881240D01*
G37*
G36*
X106582860Y-111845680D02*
G01*
X104282860Y-111845680D01*
X104282860Y-110445680D01*
X106582860Y-110445680D01*
X106582860Y-111845680D01*
X106582860Y-111845680D01*
G37*
G36*
X112079420Y-111843140D02*
G01*
X109779420Y-111843140D01*
X109779420Y-110443140D01*
X112079420Y-110443140D01*
X112079420Y-111843140D01*
X112079420Y-111843140D01*
G37*
G36*
X72654860Y-109756720D02*
G01*
X71154860Y-109756720D01*
X71154860Y-104956720D01*
X72654860Y-104956720D01*
X72654860Y-109756720D01*
X72654860Y-109756720D01*
G37*
G36*
X127692800Y-107534580D02*
G01*
X125392800Y-107534580D01*
X125392800Y-106134580D01*
X127692800Y-106134580D01*
X127692800Y-107534580D01*
X127692800Y-107534580D01*
G37*
G36*
X133189360Y-107532040D02*
G01*
X130889360Y-107532040D01*
X130889360Y-106132040D01*
X133189360Y-106132040D01*
X133189360Y-107532040D01*
X133189360Y-107532040D01*
G37*
G36*
X87570960Y-107499020D02*
G01*
X85270960Y-107499020D01*
X85270960Y-106099020D01*
X87570960Y-106099020D01*
X87570960Y-107499020D01*
X87570960Y-107499020D01*
G37*
G36*
X93067520Y-107496480D02*
G01*
X90767520Y-107496480D01*
X90767520Y-106096480D01*
X93067520Y-106096480D01*
X93067520Y-107496480D01*
X93067520Y-107496480D01*
G37*
G36*
X148061060Y-107496480D02*
G01*
X145761060Y-107496480D01*
X145761060Y-106096480D01*
X148061060Y-106096480D01*
X148061060Y-107496480D01*
X148061060Y-107496480D01*
G37*
G36*
X153557620Y-107493940D02*
G01*
X151257620Y-107493940D01*
X151257620Y-106093940D01*
X153557620Y-106093940D01*
X153557620Y-107493940D01*
X153557620Y-107493940D01*
G37*
G36*
X159046560Y-107483780D02*
G01*
X156746560Y-107483780D01*
X156746560Y-106083780D01*
X159046560Y-106083780D01*
X159046560Y-107483780D01*
X159046560Y-107483780D01*
G37*
G36*
X164543120Y-107481240D02*
G01*
X162243120Y-107481240D01*
X162243120Y-106081240D01*
X164543120Y-106081240D01*
X164543120Y-107481240D01*
X164543120Y-107481240D01*
G37*
G36*
X106582860Y-107445680D02*
G01*
X104282860Y-107445680D01*
X104282860Y-106045680D01*
X106582860Y-106045680D01*
X106582860Y-107445680D01*
X106582860Y-107445680D01*
G37*
G36*
X112079420Y-107443140D02*
G01*
X109779420Y-107443140D01*
X109779420Y-106043140D01*
X112079420Y-106043140D01*
X112079420Y-107443140D01*
X112079420Y-107443140D01*
G37*
G36*
X166378274Y-102479203D02*
G01*
X166651255Y-102592276D01*
X166651257Y-102592277D01*
X166658445Y-102597080D01*
X166896933Y-102756433D01*
X167105867Y-102965367D01*
X167270024Y-103211045D01*
X167383097Y-103484026D01*
X167440740Y-103773822D01*
X167440740Y-104069298D01*
X167383097Y-104359094D01*
X167270024Y-104632075D01*
X167270023Y-104632077D01*
X167105866Y-104877754D01*
X166896934Y-105086686D01*
X166651257Y-105250843D01*
X166651256Y-105250844D01*
X166651255Y-105250844D01*
X166378274Y-105363917D01*
X166088478Y-105421560D01*
X165793002Y-105421560D01*
X165503206Y-105363917D01*
X165230225Y-105250844D01*
X165230224Y-105250844D01*
X165230223Y-105250843D01*
X164984546Y-105086686D01*
X164775614Y-104877754D01*
X164611457Y-104632077D01*
X164611456Y-104632075D01*
X164498383Y-104359094D01*
X164440740Y-104069298D01*
X164440740Y-103773822D01*
X164498383Y-103484026D01*
X164611456Y-103211045D01*
X164775613Y-102965367D01*
X164984547Y-102756433D01*
X165223035Y-102597080D01*
X165230223Y-102592277D01*
X165230225Y-102592276D01*
X165503206Y-102479203D01*
X165793002Y-102421560D01*
X166088478Y-102421560D01*
X166378274Y-102479203D01*
X166378274Y-102479203D01*
G37*
G36*
X102459174Y-100089063D02*
G01*
X102732155Y-100202136D01*
X102732157Y-100202137D01*
X102855830Y-100284773D01*
X102977833Y-100366293D01*
X103186767Y-100575227D01*
X103350924Y-100820905D01*
X103463997Y-101093886D01*
X103521640Y-101383682D01*
X103521640Y-101679158D01*
X103463997Y-101968954D01*
X103429070Y-102053274D01*
X103350923Y-102241937D01*
X103337379Y-102262207D01*
X103192386Y-102479204D01*
X103186766Y-102487614D01*
X102977834Y-102696546D01*
X102732157Y-102860703D01*
X102732156Y-102860704D01*
X102732155Y-102860704D01*
X102459174Y-102973777D01*
X102169378Y-103031420D01*
X101873902Y-103031420D01*
X101584106Y-102973777D01*
X101311125Y-102860704D01*
X101311124Y-102860704D01*
X101311123Y-102860703D01*
X101065446Y-102696546D01*
X100856514Y-102487614D01*
X100850895Y-102479204D01*
X100705901Y-102262207D01*
X100692357Y-102241937D01*
X100614210Y-102053274D01*
X100579283Y-101968954D01*
X100521640Y-101679158D01*
X100521640Y-101383682D01*
X100579283Y-101093886D01*
X100692356Y-100820905D01*
X100856513Y-100575227D01*
X101065447Y-100366293D01*
X101187450Y-100284773D01*
X101311123Y-100202137D01*
X101311125Y-100202136D01*
X101584106Y-100089063D01*
X101873902Y-100031420D01*
X102169378Y-100031420D01*
X102459174Y-100089063D01*
X102459174Y-100089063D01*
G37*
G36*
X132702954Y-99654723D02*
G01*
X132975935Y-99767796D01*
X132975937Y-99767797D01*
X133221614Y-99931954D01*
X133430546Y-100140886D01*
X133581160Y-100366294D01*
X133594704Y-100386565D01*
X133707777Y-100659546D01*
X133765420Y-100949342D01*
X133765420Y-101244818D01*
X133707777Y-101534614D01*
X133594704Y-101807595D01*
X133594703Y-101807597D01*
X133430546Y-102053274D01*
X133221614Y-102262206D01*
X132975937Y-102426363D01*
X132975936Y-102426364D01*
X132975935Y-102426364D01*
X132702954Y-102539437D01*
X132413158Y-102597080D01*
X132117682Y-102597080D01*
X131827886Y-102539437D01*
X131554905Y-102426364D01*
X131554904Y-102426364D01*
X131554903Y-102426363D01*
X131309226Y-102262206D01*
X131100294Y-102053274D01*
X130936137Y-101807597D01*
X130936136Y-101807595D01*
X130823063Y-101534614D01*
X130765420Y-101244818D01*
X130765420Y-100949342D01*
X130823063Y-100659546D01*
X130936136Y-100386565D01*
X130949681Y-100366294D01*
X131100294Y-100140886D01*
X131309226Y-99931954D01*
X131554903Y-99767797D01*
X131554905Y-99767796D01*
X131827886Y-99654723D01*
X132117682Y-99597080D01*
X132413158Y-99597080D01*
X132702954Y-99654723D01*
X132702954Y-99654723D01*
G37*
M02*
