G04 #@! TF.GenerationSoftware,KiCad,Pcbnew,5.1.4-e60b266~84~ubuntu16.04.1*
G04 #@! TF.CreationDate,2019-10-21T03:29:48-05:00*
G04 #@! TF.ProjectId,Quantum MCP4262-502 25x expansion flex for GWAAM-Sea Aid with U7 expansion cutout,5175616e-7475-46d2-904d-435034323632,rev?*
G04 #@! TF.SameCoordinates,Original*
G04 #@! TF.FileFunction,Legend,Top*
G04 #@! TF.FilePolarity,Positive*
%FSLAX46Y46*%
G04 Gerber Fmt 4.6, Leading zero omitted, Abs format (unit mm)*
G04 Created by KiCad (PCBNEW 5.1.4-e60b266~84~ubuntu16.04.1) date 2019-10-21 03:29:48*
%MOMM*%
%LPD*%
G04 APERTURE LIST*
%ADD10C,0.100000*%
%ADD11C,0.150000*%
%ADD12C,0.075000*%
%ADD13C,0.080000*%
%ADD14C,0.200000*%
%ADD15C,0.125000*%
G04 APERTURE END LIST*
D10*
X146244653Y-98174213D02*
X146244653Y-98627546D01*
X146271320Y-98680880D01*
X146297986Y-98707546D01*
X146351320Y-98734213D01*
X146457986Y-98734213D01*
X146511320Y-98707546D01*
X146537986Y-98680880D01*
X146564653Y-98627546D01*
X146564653Y-98174213D01*
X146777986Y-98174213D02*
X147151320Y-98174213D01*
X146911320Y-98734213D01*
X147791320Y-98440880D02*
X147977986Y-98440880D01*
X148057986Y-98734213D02*
X147791320Y-98734213D01*
X147791320Y-98174213D01*
X148057986Y-98174213D01*
X148244653Y-98734213D02*
X148537986Y-98360880D01*
X148244653Y-98360880D02*
X148537986Y-98734213D01*
X148751320Y-98360880D02*
X148751320Y-98920880D01*
X148751320Y-98387546D02*
X148804653Y-98360880D01*
X148911320Y-98360880D01*
X148964653Y-98387546D01*
X148991320Y-98414213D01*
X149017986Y-98467546D01*
X149017986Y-98627546D01*
X148991320Y-98680880D01*
X148964653Y-98707546D01*
X148911320Y-98734213D01*
X148804653Y-98734213D01*
X148751320Y-98707546D01*
X149497986Y-98734213D02*
X149497986Y-98440880D01*
X149471320Y-98387546D01*
X149417986Y-98360880D01*
X149311320Y-98360880D01*
X149257986Y-98387546D01*
X149497986Y-98707546D02*
X149444653Y-98734213D01*
X149311320Y-98734213D01*
X149257986Y-98707546D01*
X149231320Y-98654213D01*
X149231320Y-98600880D01*
X149257986Y-98547546D01*
X149311320Y-98520880D01*
X149444653Y-98520880D01*
X149497986Y-98494213D01*
X149764653Y-98360880D02*
X149764653Y-98734213D01*
X149764653Y-98414213D02*
X149791320Y-98387546D01*
X149844653Y-98360880D01*
X149924653Y-98360880D01*
X149977986Y-98387546D01*
X150004653Y-98440880D01*
X150004653Y-98734213D01*
X150244653Y-98707546D02*
X150297986Y-98734213D01*
X150404653Y-98734213D01*
X150457986Y-98707546D01*
X150484653Y-98654213D01*
X150484653Y-98627546D01*
X150457986Y-98574213D01*
X150404653Y-98547546D01*
X150324653Y-98547546D01*
X150271320Y-98520880D01*
X150244653Y-98467546D01*
X150244653Y-98440880D01*
X150271320Y-98387546D01*
X150324653Y-98360880D01*
X150404653Y-98360880D01*
X150457986Y-98387546D01*
X150724653Y-98734213D02*
X150724653Y-98360880D01*
X150724653Y-98174213D02*
X150697986Y-98200880D01*
X150724653Y-98227546D01*
X150751320Y-98200880D01*
X150724653Y-98174213D01*
X150724653Y-98227546D01*
X151071320Y-98734213D02*
X151017986Y-98707546D01*
X150991320Y-98680880D01*
X150964653Y-98627546D01*
X150964653Y-98467546D01*
X150991320Y-98414213D01*
X151017986Y-98387546D01*
X151071320Y-98360880D01*
X151151320Y-98360880D01*
X151204653Y-98387546D01*
X151231320Y-98414213D01*
X151257986Y-98467546D01*
X151257986Y-98627546D01*
X151231320Y-98680880D01*
X151204653Y-98707546D01*
X151151320Y-98734213D01*
X151071320Y-98734213D01*
X151497986Y-98360880D02*
X151497986Y-98734213D01*
X151497986Y-98414213D02*
X151524653Y-98387546D01*
X151577986Y-98360880D01*
X151657986Y-98360880D01*
X151711320Y-98387546D01*
X151737986Y-98440880D01*
X151737986Y-98734213D01*
D11*
X135746420Y-104636133D02*
X135879753Y-104536133D01*
X136013086Y-104636133D01*
X137179753Y-105202800D02*
X137146420Y-105236133D01*
X137046420Y-105269466D01*
X136979753Y-105269466D01*
X136879753Y-105236133D01*
X136813086Y-105169466D01*
X136779753Y-105102800D01*
X136746420Y-104969466D01*
X136746420Y-104869466D01*
X136779753Y-104736133D01*
X136813086Y-104669466D01*
X136879753Y-104602800D01*
X136979753Y-104569466D01*
X137046420Y-104569466D01*
X137146420Y-104602800D01*
X137179753Y-104636133D01*
X137479753Y-104569466D02*
X137479753Y-105136133D01*
X137513086Y-105202800D01*
X137546420Y-105236133D01*
X137613086Y-105269466D01*
X137746420Y-105269466D01*
X137813086Y-105236133D01*
X137846420Y-105202800D01*
X137879753Y-105136133D01*
X137879753Y-104569466D01*
X138113086Y-104569466D02*
X138513086Y-104569466D01*
X138313086Y-105269466D02*
X138313086Y-104569466D01*
X139613086Y-105269466D02*
X139279753Y-105269466D01*
X139279753Y-104569466D01*
X139846420Y-105269466D02*
X139846420Y-104569466D01*
X140179753Y-105269466D02*
X140179753Y-104569466D01*
X140579753Y-105269466D01*
X140579753Y-104569466D01*
X140913086Y-104902800D02*
X141146420Y-104902800D01*
X141246420Y-105269466D02*
X140913086Y-105269466D01*
X140913086Y-104569466D01*
X141246420Y-104569466D01*
X141979753Y-104636133D02*
X142113086Y-104536133D01*
X142246420Y-104636133D01*
X134421740Y-104520740D02*
X134888406Y-104354073D01*
X134421740Y-104187406D01*
X134821740Y-102987406D02*
X134855073Y-103020740D01*
X134888406Y-103120740D01*
X134888406Y-103187406D01*
X134855073Y-103287406D01*
X134788406Y-103354073D01*
X134721740Y-103387406D01*
X134588406Y-103420740D01*
X134488406Y-103420740D01*
X134355073Y-103387406D01*
X134288406Y-103354073D01*
X134221740Y-103287406D01*
X134188406Y-103187406D01*
X134188406Y-103120740D01*
X134221740Y-103020740D01*
X134255073Y-102987406D01*
X134188406Y-102687406D02*
X134755073Y-102687406D01*
X134821740Y-102654073D01*
X134855073Y-102620740D01*
X134888406Y-102554073D01*
X134888406Y-102420740D01*
X134855073Y-102354073D01*
X134821740Y-102320740D01*
X134755073Y-102287406D01*
X134188406Y-102287406D01*
X134188406Y-102054073D02*
X134188406Y-101654073D01*
X134888406Y-101854073D02*
X134188406Y-101854073D01*
X134888406Y-100554073D02*
X134888406Y-100887406D01*
X134188406Y-100887406D01*
X134888406Y-100320740D02*
X134188406Y-100320740D01*
X134888406Y-99987406D02*
X134188406Y-99987406D01*
X134888406Y-99587406D01*
X134188406Y-99587406D01*
X134521740Y-99254073D02*
X134521740Y-99020740D01*
X134888406Y-98920740D02*
X134888406Y-99254073D01*
X134188406Y-99254073D01*
X134188406Y-98920740D01*
X134421740Y-98154073D02*
X134888406Y-97987406D01*
X134421740Y-97820740D01*
X162396342Y-102097599D02*
X158607162Y-102097599D01*
X162396342Y-98628360D02*
X162396342Y-102097599D01*
D12*
X144661495Y-102647412D02*
X144554828Y-102456936D01*
X144478638Y-102647412D02*
X144478638Y-102247412D01*
X144600542Y-102247412D01*
X144631019Y-102266460D01*
X144646257Y-102285507D01*
X144661495Y-102323602D01*
X144661495Y-102380745D01*
X144646257Y-102418840D01*
X144631019Y-102437888D01*
X144600542Y-102456936D01*
X144478638Y-102456936D01*
X144920542Y-102628364D02*
X144890066Y-102647412D01*
X144829114Y-102647412D01*
X144798638Y-102628364D01*
X144783400Y-102590269D01*
X144783400Y-102437888D01*
X144798638Y-102399793D01*
X144829114Y-102380745D01*
X144890066Y-102380745D01*
X144920542Y-102399793D01*
X144935780Y-102437888D01*
X144935780Y-102475983D01*
X144783400Y-102514079D01*
X145210066Y-102380745D02*
X145210066Y-102780745D01*
X145210066Y-102628364D02*
X145179590Y-102647412D01*
X145118638Y-102647412D01*
X145088161Y-102628364D01*
X145072923Y-102609317D01*
X145057685Y-102571221D01*
X145057685Y-102456936D01*
X145072923Y-102418840D01*
X145088161Y-102399793D01*
X145118638Y-102380745D01*
X145179590Y-102380745D01*
X145210066Y-102399793D01*
X145499590Y-102380745D02*
X145499590Y-102647412D01*
X145362447Y-102380745D02*
X145362447Y-102590269D01*
X145377685Y-102628364D01*
X145408161Y-102647412D01*
X145453876Y-102647412D01*
X145484352Y-102628364D01*
X145499590Y-102609317D01*
X145651971Y-102647412D02*
X145651971Y-102380745D01*
X145651971Y-102247412D02*
X145636733Y-102266460D01*
X145651971Y-102285507D01*
X145667209Y-102266460D01*
X145651971Y-102247412D01*
X145651971Y-102285507D01*
X145804352Y-102647412D02*
X145804352Y-102380745D01*
X145804352Y-102456936D02*
X145819590Y-102418840D01*
X145834828Y-102399793D01*
X145865304Y-102380745D01*
X145895780Y-102380745D01*
X146124352Y-102628364D02*
X146093876Y-102647412D01*
X146032923Y-102647412D01*
X146002447Y-102628364D01*
X145987209Y-102590269D01*
X145987209Y-102437888D01*
X146002447Y-102399793D01*
X146032923Y-102380745D01*
X146093876Y-102380745D01*
X146124352Y-102399793D01*
X146139590Y-102437888D01*
X146139590Y-102475983D01*
X145987209Y-102514079D01*
X146413876Y-102647412D02*
X146413876Y-102247412D01*
X146413876Y-102628364D02*
X146383400Y-102647412D01*
X146322447Y-102647412D01*
X146291971Y-102628364D01*
X146276733Y-102609317D01*
X146261495Y-102571221D01*
X146261495Y-102456936D01*
X146276733Y-102418840D01*
X146291971Y-102399793D01*
X146322447Y-102380745D01*
X146383400Y-102380745D01*
X146413876Y-102399793D01*
X146566257Y-102609317D02*
X146581495Y-102628364D01*
X146566257Y-102647412D01*
X146551019Y-102628364D01*
X146566257Y-102609317D01*
X146566257Y-102647412D01*
X146566257Y-102399793D02*
X146581495Y-102418840D01*
X146566257Y-102437888D01*
X146551019Y-102418840D01*
X146566257Y-102399793D01*
X146566257Y-102437888D01*
X147145304Y-102609317D02*
X147130066Y-102628364D01*
X147084352Y-102647412D01*
X147053876Y-102647412D01*
X147008161Y-102628364D01*
X146977685Y-102590269D01*
X146962447Y-102552174D01*
X146947209Y-102475983D01*
X146947209Y-102418840D01*
X146962447Y-102342650D01*
X146977685Y-102304555D01*
X147008161Y-102266460D01*
X147053876Y-102247412D01*
X147084352Y-102247412D01*
X147130066Y-102266460D01*
X147145304Y-102285507D01*
X147419590Y-102647412D02*
X147419590Y-102437888D01*
X147404352Y-102399793D01*
X147373876Y-102380745D01*
X147312923Y-102380745D01*
X147282447Y-102399793D01*
X147419590Y-102628364D02*
X147389114Y-102647412D01*
X147312923Y-102647412D01*
X147282447Y-102628364D01*
X147267209Y-102590269D01*
X147267209Y-102552174D01*
X147282447Y-102514079D01*
X147312923Y-102495031D01*
X147389114Y-102495031D01*
X147419590Y-102475983D01*
X147571971Y-102647412D02*
X147571971Y-102380745D01*
X147571971Y-102456936D02*
X147587209Y-102418840D01*
X147602447Y-102399793D01*
X147632923Y-102380745D01*
X147663400Y-102380745D01*
X147891971Y-102628364D02*
X147861495Y-102647412D01*
X147800542Y-102647412D01*
X147770066Y-102628364D01*
X147754828Y-102590269D01*
X147754828Y-102437888D01*
X147770066Y-102399793D01*
X147800542Y-102380745D01*
X147861495Y-102380745D01*
X147891971Y-102399793D01*
X147907209Y-102437888D01*
X147907209Y-102475983D01*
X147754828Y-102514079D01*
X147998638Y-102380745D02*
X148120542Y-102380745D01*
X148044352Y-102647412D02*
X148044352Y-102304555D01*
X148059590Y-102266460D01*
X148090066Y-102247412D01*
X148120542Y-102247412D01*
X148364352Y-102380745D02*
X148364352Y-102647412D01*
X148227209Y-102380745D02*
X148227209Y-102590269D01*
X148242447Y-102628364D01*
X148272923Y-102647412D01*
X148318638Y-102647412D01*
X148349114Y-102628364D01*
X148364352Y-102609317D01*
X148562447Y-102647412D02*
X148531971Y-102628364D01*
X148516733Y-102590269D01*
X148516733Y-102247412D01*
X148730066Y-102647412D02*
X148699590Y-102628364D01*
X148684352Y-102590269D01*
X148684352Y-102247412D01*
X148821495Y-102380745D02*
X148897685Y-102647412D01*
X148973876Y-102380745D02*
X148897685Y-102647412D01*
X148867209Y-102742650D01*
X148851971Y-102761698D01*
X148821495Y-102780745D01*
X149476733Y-102628364D02*
X149446257Y-102647412D01*
X149385304Y-102647412D01*
X149354828Y-102628364D01*
X149339590Y-102609317D01*
X149324352Y-102571221D01*
X149324352Y-102456936D01*
X149339590Y-102418840D01*
X149354828Y-102399793D01*
X149385304Y-102380745D01*
X149446257Y-102380745D01*
X149476733Y-102399793D01*
X149751019Y-102380745D02*
X149751019Y-102647412D01*
X149613876Y-102380745D02*
X149613876Y-102590269D01*
X149629114Y-102628364D01*
X149659590Y-102647412D01*
X149705304Y-102647412D01*
X149735780Y-102628364D01*
X149751019Y-102609317D01*
X149857685Y-102380745D02*
X149979590Y-102380745D01*
X149903400Y-102247412D02*
X149903400Y-102590269D01*
X149918638Y-102628364D01*
X149949114Y-102647412D01*
X149979590Y-102647412D01*
X150284352Y-102380745D02*
X150406257Y-102380745D01*
X150330066Y-102247412D02*
X150330066Y-102590269D01*
X150345304Y-102628364D01*
X150375780Y-102647412D01*
X150406257Y-102647412D01*
X150512923Y-102647412D02*
X150512923Y-102247412D01*
X150650066Y-102647412D02*
X150650066Y-102437888D01*
X150634828Y-102399793D01*
X150604352Y-102380745D01*
X150558638Y-102380745D01*
X150528161Y-102399793D01*
X150512923Y-102418840D01*
X150802447Y-102647412D02*
X150802447Y-102380745D01*
X150802447Y-102247412D02*
X150787209Y-102266460D01*
X150802447Y-102285507D01*
X150817685Y-102266460D01*
X150802447Y-102247412D01*
X150802447Y-102285507D01*
X150939590Y-102628364D02*
X150970066Y-102647412D01*
X151031019Y-102647412D01*
X151061495Y-102628364D01*
X151076733Y-102590269D01*
X151076733Y-102571221D01*
X151061495Y-102533126D01*
X151031019Y-102514079D01*
X150985304Y-102514079D01*
X150954828Y-102495031D01*
X150939590Y-102456936D01*
X150939590Y-102437888D01*
X150954828Y-102399793D01*
X150985304Y-102380745D01*
X151031019Y-102380745D01*
X151061495Y-102399793D01*
X151411971Y-102285507D02*
X151472923Y-102228364D01*
X151533876Y-102285507D01*
X151884352Y-102380745D02*
X151884352Y-102780745D01*
X151884352Y-102399793D02*
X151914828Y-102380745D01*
X151975780Y-102380745D01*
X152006257Y-102399793D01*
X152021495Y-102418840D01*
X152036733Y-102456936D01*
X152036733Y-102571221D01*
X152021495Y-102609317D01*
X152006257Y-102628364D01*
X151975780Y-102647412D01*
X151914828Y-102647412D01*
X151884352Y-102628364D01*
X152173876Y-102647412D02*
X152173876Y-102380745D01*
X152173876Y-102247412D02*
X152158638Y-102266460D01*
X152173876Y-102285507D01*
X152189114Y-102266460D01*
X152173876Y-102247412D01*
X152173876Y-102285507D01*
X152448161Y-102628364D02*
X152417685Y-102647412D01*
X152356733Y-102647412D01*
X152326257Y-102628364D01*
X152311019Y-102590269D01*
X152311019Y-102437888D01*
X152326257Y-102399793D01*
X152356733Y-102380745D01*
X152417685Y-102380745D01*
X152448161Y-102399793D01*
X152463400Y-102437888D01*
X152463400Y-102475983D01*
X152311019Y-102514079D01*
X152737685Y-102628364D02*
X152707209Y-102647412D01*
X152646257Y-102647412D01*
X152615780Y-102628364D01*
X152600542Y-102609317D01*
X152585304Y-102571221D01*
X152585304Y-102456936D01*
X152600542Y-102418840D01*
X152615780Y-102399793D01*
X152646257Y-102380745D01*
X152707209Y-102380745D01*
X152737685Y-102399793D01*
X152996733Y-102628364D02*
X152966257Y-102647412D01*
X152905304Y-102647412D01*
X152874828Y-102628364D01*
X152859590Y-102590269D01*
X152859590Y-102437888D01*
X152874828Y-102399793D01*
X152905304Y-102380745D01*
X152966257Y-102380745D01*
X152996733Y-102399793D01*
X153011971Y-102437888D01*
X153011971Y-102475983D01*
X152859590Y-102514079D01*
X153438638Y-102647412D02*
X153408161Y-102628364D01*
X153392923Y-102609317D01*
X153377685Y-102571221D01*
X153377685Y-102456936D01*
X153392923Y-102418840D01*
X153408161Y-102399793D01*
X153438638Y-102380745D01*
X153484352Y-102380745D01*
X153514828Y-102399793D01*
X153530066Y-102418840D01*
X153545304Y-102456936D01*
X153545304Y-102571221D01*
X153530066Y-102609317D01*
X153514828Y-102628364D01*
X153484352Y-102647412D01*
X153438638Y-102647412D01*
X153636733Y-102380745D02*
X153758638Y-102380745D01*
X153682447Y-102647412D02*
X153682447Y-102304555D01*
X153697685Y-102266460D01*
X153728161Y-102247412D01*
X153758638Y-102247412D01*
X153819590Y-102380745D02*
X153941495Y-102380745D01*
X153865304Y-102647412D02*
X153865304Y-102304555D01*
X153880542Y-102266460D01*
X153911019Y-102247412D01*
X153941495Y-102247412D01*
X154048161Y-102609317D02*
X154063400Y-102628364D01*
X154048161Y-102647412D01*
X154032923Y-102628364D01*
X154048161Y-102609317D01*
X154048161Y-102647412D01*
X154688161Y-102647412D02*
X154688161Y-102247412D01*
X154794828Y-102380745D02*
X154916733Y-102380745D01*
X154840542Y-102247412D02*
X154840542Y-102590269D01*
X154855780Y-102628364D01*
X154886257Y-102647412D01*
X154916733Y-102647412D01*
X155267209Y-102647412D02*
X155267209Y-102380745D01*
X155267209Y-102247412D02*
X155251971Y-102266460D01*
X155267209Y-102285507D01*
X155282447Y-102266460D01*
X155267209Y-102247412D01*
X155267209Y-102285507D01*
X155404352Y-102628364D02*
X155434828Y-102647412D01*
X155495780Y-102647412D01*
X155526257Y-102628364D01*
X155541495Y-102590269D01*
X155541495Y-102571221D01*
X155526257Y-102533126D01*
X155495780Y-102514079D01*
X155450066Y-102514079D01*
X155419590Y-102495031D01*
X155404352Y-102456936D01*
X155404352Y-102437888D01*
X155419590Y-102399793D01*
X155450066Y-102380745D01*
X155495780Y-102380745D01*
X155526257Y-102399793D01*
X155922447Y-102247412D02*
X155922447Y-102571221D01*
X155937685Y-102609317D01*
X155952923Y-102628364D01*
X155983400Y-102647412D01*
X156044352Y-102647412D01*
X156074828Y-102628364D01*
X156090066Y-102609317D01*
X156105304Y-102571221D01*
X156105304Y-102247412D01*
X156227209Y-102247412D02*
X156440542Y-102247412D01*
X156303400Y-102647412D01*
X156851971Y-102647412D02*
X156821495Y-102628364D01*
X156806257Y-102609317D01*
X156791019Y-102571221D01*
X156791019Y-102456936D01*
X156806257Y-102418840D01*
X156821495Y-102399793D01*
X156851971Y-102380745D01*
X156897685Y-102380745D01*
X156928161Y-102399793D01*
X156943400Y-102418840D01*
X156958638Y-102456936D01*
X156958638Y-102571221D01*
X156943400Y-102609317D01*
X156928161Y-102628364D01*
X156897685Y-102647412D01*
X156851971Y-102647412D01*
X157095780Y-102380745D02*
X157095780Y-102780745D01*
X157095780Y-102399793D02*
X157126257Y-102380745D01*
X157187209Y-102380745D01*
X157217685Y-102399793D01*
X157232923Y-102418840D01*
X157248161Y-102456936D01*
X157248161Y-102571221D01*
X157232923Y-102609317D01*
X157217685Y-102628364D01*
X157187209Y-102647412D01*
X157126257Y-102647412D01*
X157095780Y-102628364D01*
X157339590Y-102380745D02*
X157461495Y-102380745D01*
X157385304Y-102247412D02*
X157385304Y-102590269D01*
X157400542Y-102628364D01*
X157431019Y-102647412D01*
X157461495Y-102647412D01*
X157568161Y-102647412D02*
X157568161Y-102380745D01*
X157568161Y-102247412D02*
X157552923Y-102266460D01*
X157568161Y-102285507D01*
X157583400Y-102266460D01*
X157568161Y-102247412D01*
X157568161Y-102285507D01*
X157766257Y-102647412D02*
X157735780Y-102628364D01*
X157720542Y-102609317D01*
X157705304Y-102571221D01*
X157705304Y-102456936D01*
X157720542Y-102418840D01*
X157735780Y-102399793D01*
X157766257Y-102380745D01*
X157811971Y-102380745D01*
X157842447Y-102399793D01*
X157857685Y-102418840D01*
X157872923Y-102456936D01*
X157872923Y-102571221D01*
X157857685Y-102609317D01*
X157842447Y-102628364D01*
X157811971Y-102647412D01*
X157766257Y-102647412D01*
X158010066Y-102380745D02*
X158010066Y-102647412D01*
X158010066Y-102418840D02*
X158025304Y-102399793D01*
X158055780Y-102380745D01*
X158101495Y-102380745D01*
X158131971Y-102399793D01*
X158147209Y-102437888D01*
X158147209Y-102647412D01*
X158436733Y-102647412D02*
X158436733Y-102437888D01*
X158421495Y-102399793D01*
X158391019Y-102380745D01*
X158330066Y-102380745D01*
X158299590Y-102399793D01*
X158436733Y-102628364D02*
X158406257Y-102647412D01*
X158330066Y-102647412D01*
X158299590Y-102628364D01*
X158284352Y-102590269D01*
X158284352Y-102552174D01*
X158299590Y-102514079D01*
X158330066Y-102495031D01*
X158406257Y-102495031D01*
X158436733Y-102475983D01*
X158634828Y-102647412D02*
X158604352Y-102628364D01*
X158589114Y-102590269D01*
X158589114Y-102247412D01*
X143975780Y-103303364D02*
X143945304Y-103322412D01*
X143884352Y-103322412D01*
X143853876Y-103303364D01*
X143838638Y-103265269D01*
X143838638Y-103112888D01*
X143853876Y-103074793D01*
X143884352Y-103055745D01*
X143945304Y-103055745D01*
X143975780Y-103074793D01*
X143991019Y-103112888D01*
X143991019Y-103150983D01*
X143838638Y-103189079D01*
X144097685Y-103322412D02*
X144265304Y-103055745D01*
X144097685Y-103055745D02*
X144265304Y-103322412D01*
X144387209Y-103055745D02*
X144387209Y-103455745D01*
X144387209Y-103074793D02*
X144417685Y-103055745D01*
X144478638Y-103055745D01*
X144509114Y-103074793D01*
X144524352Y-103093840D01*
X144539590Y-103131936D01*
X144539590Y-103246221D01*
X144524352Y-103284317D01*
X144509114Y-103303364D01*
X144478638Y-103322412D01*
X144417685Y-103322412D01*
X144387209Y-103303364D01*
X144813876Y-103322412D02*
X144813876Y-103112888D01*
X144798638Y-103074793D01*
X144768161Y-103055745D01*
X144707209Y-103055745D01*
X144676733Y-103074793D01*
X144813876Y-103303364D02*
X144783400Y-103322412D01*
X144707209Y-103322412D01*
X144676733Y-103303364D01*
X144661495Y-103265269D01*
X144661495Y-103227174D01*
X144676733Y-103189079D01*
X144707209Y-103170031D01*
X144783400Y-103170031D01*
X144813876Y-103150983D01*
X144966257Y-103055745D02*
X144966257Y-103322412D01*
X144966257Y-103093840D02*
X144981495Y-103074793D01*
X145011971Y-103055745D01*
X145057685Y-103055745D01*
X145088161Y-103074793D01*
X145103400Y-103112888D01*
X145103400Y-103322412D01*
X145240542Y-103303364D02*
X145271019Y-103322412D01*
X145331971Y-103322412D01*
X145362447Y-103303364D01*
X145377685Y-103265269D01*
X145377685Y-103246221D01*
X145362447Y-103208126D01*
X145331971Y-103189079D01*
X145286257Y-103189079D01*
X145255780Y-103170031D01*
X145240542Y-103131936D01*
X145240542Y-103112888D01*
X145255780Y-103074793D01*
X145286257Y-103055745D01*
X145331971Y-103055745D01*
X145362447Y-103074793D01*
X145514828Y-103322412D02*
X145514828Y-103055745D01*
X145514828Y-102922412D02*
X145499590Y-102941460D01*
X145514828Y-102960507D01*
X145530066Y-102941460D01*
X145514828Y-102922412D01*
X145514828Y-102960507D01*
X145712923Y-103322412D02*
X145682447Y-103303364D01*
X145667209Y-103284317D01*
X145651971Y-103246221D01*
X145651971Y-103131936D01*
X145667209Y-103093840D01*
X145682447Y-103074793D01*
X145712923Y-103055745D01*
X145758638Y-103055745D01*
X145789114Y-103074793D01*
X145804352Y-103093840D01*
X145819590Y-103131936D01*
X145819590Y-103246221D01*
X145804352Y-103284317D01*
X145789114Y-103303364D01*
X145758638Y-103322412D01*
X145712923Y-103322412D01*
X145956733Y-103055745D02*
X145956733Y-103322412D01*
X145956733Y-103093840D02*
X145971971Y-103074793D01*
X146002447Y-103055745D01*
X146048161Y-103055745D01*
X146078638Y-103074793D01*
X146093876Y-103112888D01*
X146093876Y-103322412D01*
X146490066Y-103322412D02*
X146490066Y-103055745D01*
X146490066Y-102922412D02*
X146474828Y-102941460D01*
X146490066Y-102960507D01*
X146505304Y-102941460D01*
X146490066Y-102922412D01*
X146490066Y-102960507D01*
X146596733Y-103055745D02*
X146718638Y-103055745D01*
X146642447Y-103322412D02*
X146642447Y-102979555D01*
X146657685Y-102941460D01*
X146688161Y-102922412D01*
X146718638Y-102922412D01*
X147038638Y-103055745D02*
X147114828Y-103322412D01*
X147191019Y-103055745D02*
X147114828Y-103322412D01*
X147084352Y-103417650D01*
X147069114Y-103436698D01*
X147038638Y-103455745D01*
X147358638Y-103322412D02*
X147328161Y-103303364D01*
X147312923Y-103284317D01*
X147297685Y-103246221D01*
X147297685Y-103131936D01*
X147312923Y-103093840D01*
X147328161Y-103074793D01*
X147358638Y-103055745D01*
X147404352Y-103055745D01*
X147434828Y-103074793D01*
X147450066Y-103093840D01*
X147465304Y-103131936D01*
X147465304Y-103246221D01*
X147450066Y-103284317D01*
X147434828Y-103303364D01*
X147404352Y-103322412D01*
X147358638Y-103322412D01*
X147739590Y-103055745D02*
X147739590Y-103322412D01*
X147602447Y-103055745D02*
X147602447Y-103265269D01*
X147617685Y-103303364D01*
X147648161Y-103322412D01*
X147693876Y-103322412D01*
X147724352Y-103303364D01*
X147739590Y-103284317D01*
X147891971Y-103322412D02*
X147891971Y-103055745D01*
X147891971Y-103131936D02*
X147907209Y-103093840D01*
X147922447Y-103074793D01*
X147952923Y-103055745D01*
X147983400Y-103055745D01*
X148333876Y-102922412D02*
X148333876Y-103246221D01*
X148349114Y-103284317D01*
X148364352Y-103303364D01*
X148394828Y-103322412D01*
X148455780Y-103322412D01*
X148486257Y-103303364D01*
X148501495Y-103284317D01*
X148516733Y-103246221D01*
X148516733Y-102922412D01*
X148638638Y-102922412D02*
X148851971Y-102922412D01*
X148714828Y-103322412D01*
X149217685Y-103322412D02*
X149217685Y-103055745D01*
X149217685Y-102922412D02*
X149202447Y-102941460D01*
X149217685Y-102960507D01*
X149232923Y-102941460D01*
X149217685Y-102922412D01*
X149217685Y-102960507D01*
X149354828Y-103303364D02*
X149385304Y-103322412D01*
X149446257Y-103322412D01*
X149476733Y-103303364D01*
X149491971Y-103265269D01*
X149491971Y-103246221D01*
X149476733Y-103208126D01*
X149446257Y-103189079D01*
X149400542Y-103189079D01*
X149370066Y-103170031D01*
X149354828Y-103131936D01*
X149354828Y-103112888D01*
X149370066Y-103074793D01*
X149400542Y-103055745D01*
X149446257Y-103055745D01*
X149476733Y-103074793D01*
X149827209Y-103055745D02*
X149949114Y-103055745D01*
X149872923Y-102922412D02*
X149872923Y-103265269D01*
X149888161Y-103303364D01*
X149918638Y-103322412D01*
X149949114Y-103322412D01*
X150055780Y-103322412D02*
X150055780Y-102922412D01*
X150192923Y-103322412D02*
X150192923Y-103112888D01*
X150177685Y-103074793D01*
X150147209Y-103055745D01*
X150101495Y-103055745D01*
X150071019Y-103074793D01*
X150055780Y-103093840D01*
X150467209Y-103303364D02*
X150436733Y-103322412D01*
X150375780Y-103322412D01*
X150345304Y-103303364D01*
X150330066Y-103265269D01*
X150330066Y-103112888D01*
X150345304Y-103074793D01*
X150375780Y-103055745D01*
X150436733Y-103055745D01*
X150467209Y-103074793D01*
X150482447Y-103112888D01*
X150482447Y-103150983D01*
X150330066Y-103189079D01*
X150909114Y-103322412D02*
X150878638Y-103303364D01*
X150863400Y-103284317D01*
X150848161Y-103246221D01*
X150848161Y-103131936D01*
X150863400Y-103093840D01*
X150878638Y-103074793D01*
X150909114Y-103055745D01*
X150954828Y-103055745D01*
X150985304Y-103074793D01*
X151000542Y-103093840D01*
X151015780Y-103131936D01*
X151015780Y-103246221D01*
X151000542Y-103284317D01*
X150985304Y-103303364D01*
X150954828Y-103322412D01*
X150909114Y-103322412D01*
X151198638Y-103322412D02*
X151168161Y-103303364D01*
X151152923Y-103265269D01*
X151152923Y-102922412D01*
X151457685Y-103322412D02*
X151457685Y-102922412D01*
X151457685Y-103303364D02*
X151427209Y-103322412D01*
X151366257Y-103322412D01*
X151335780Y-103303364D01*
X151320542Y-103284317D01*
X151305304Y-103246221D01*
X151305304Y-103131936D01*
X151320542Y-103093840D01*
X151335780Y-103074793D01*
X151366257Y-103055745D01*
X151427209Y-103055745D01*
X151457685Y-103074793D01*
X152021495Y-103322412D02*
X151838638Y-103322412D01*
X151930066Y-103322412D02*
X151930066Y-102922412D01*
X151899590Y-102979555D01*
X151869114Y-103017650D01*
X151838638Y-103036698D01*
X152219590Y-102922412D02*
X152250066Y-102922412D01*
X152280542Y-102941460D01*
X152295780Y-102960507D01*
X152311019Y-102998602D01*
X152326257Y-103074793D01*
X152326257Y-103170031D01*
X152311019Y-103246221D01*
X152295780Y-103284317D01*
X152280542Y-103303364D01*
X152250066Y-103322412D01*
X152219590Y-103322412D01*
X152189114Y-103303364D01*
X152173876Y-103284317D01*
X152158638Y-103246221D01*
X152143400Y-103170031D01*
X152143400Y-103074793D01*
X152158638Y-102998602D01*
X152173876Y-102960507D01*
X152189114Y-102941460D01*
X152219590Y-102922412D01*
X152524352Y-102922412D02*
X152554828Y-102922412D01*
X152585304Y-102941460D01*
X152600542Y-102960507D01*
X152615780Y-102998602D01*
X152631019Y-103074793D01*
X152631019Y-103170031D01*
X152615780Y-103246221D01*
X152600542Y-103284317D01*
X152585304Y-103303364D01*
X152554828Y-103322412D01*
X152524352Y-103322412D01*
X152493876Y-103303364D01*
X152478638Y-103284317D01*
X152463400Y-103246221D01*
X152448161Y-103170031D01*
X152448161Y-103074793D01*
X152463400Y-102998602D01*
X152478638Y-102960507D01*
X152493876Y-102941460D01*
X152524352Y-102922412D01*
X152768161Y-103322412D02*
X152768161Y-102922412D01*
X152951019Y-103322412D02*
X152813876Y-103093840D01*
X152951019Y-102922412D02*
X152768161Y-103150983D01*
X153301495Y-103055745D02*
X153377685Y-103322412D01*
X153453876Y-103055745D01*
X153712923Y-103322412D02*
X153712923Y-103112888D01*
X153697685Y-103074793D01*
X153667209Y-103055745D01*
X153606257Y-103055745D01*
X153575780Y-103074793D01*
X153712923Y-103303364D02*
X153682447Y-103322412D01*
X153606257Y-103322412D01*
X153575780Y-103303364D01*
X153560542Y-103265269D01*
X153560542Y-103227174D01*
X153575780Y-103189079D01*
X153606257Y-103170031D01*
X153682447Y-103170031D01*
X153712923Y-103150983D01*
X153911019Y-103322412D02*
X153880542Y-103303364D01*
X153865304Y-103265269D01*
X153865304Y-102922412D01*
X154170066Y-103055745D02*
X154170066Y-103322412D01*
X154032923Y-103055745D02*
X154032923Y-103265269D01*
X154048161Y-103303364D01*
X154078638Y-103322412D01*
X154124352Y-103322412D01*
X154154828Y-103303364D01*
X154170066Y-103284317D01*
X154444352Y-103303364D02*
X154413876Y-103322412D01*
X154352923Y-103322412D01*
X154322447Y-103303364D01*
X154307209Y-103265269D01*
X154307209Y-103112888D01*
X154322447Y-103074793D01*
X154352923Y-103055745D01*
X154413876Y-103055745D01*
X154444352Y-103074793D01*
X154459590Y-103112888D01*
X154459590Y-103150983D01*
X154307209Y-103189079D01*
X154977685Y-103322412D02*
X154977685Y-103112888D01*
X154962447Y-103074793D01*
X154931971Y-103055745D01*
X154871019Y-103055745D01*
X154840542Y-103074793D01*
X154977685Y-103303364D02*
X154947209Y-103322412D01*
X154871019Y-103322412D01*
X154840542Y-103303364D01*
X154825304Y-103265269D01*
X154825304Y-103227174D01*
X154840542Y-103189079D01*
X154871019Y-103170031D01*
X154947209Y-103170031D01*
X154977685Y-103150983D01*
X155130066Y-103055745D02*
X155130066Y-103322412D01*
X155130066Y-103093840D02*
X155145304Y-103074793D01*
X155175780Y-103055745D01*
X155221495Y-103055745D01*
X155251971Y-103074793D01*
X155267209Y-103112888D01*
X155267209Y-103322412D01*
X155556733Y-103322412D02*
X155556733Y-102922412D01*
X155556733Y-103303364D02*
X155526257Y-103322412D01*
X155465304Y-103322412D01*
X155434828Y-103303364D01*
X155419590Y-103284317D01*
X155404352Y-103246221D01*
X155404352Y-103131936D01*
X155419590Y-103093840D01*
X155434828Y-103074793D01*
X155465304Y-103055745D01*
X155526257Y-103055745D01*
X155556733Y-103074793D01*
X155922447Y-103055745D02*
X155998638Y-103322412D01*
X156074828Y-103055745D02*
X155998638Y-103322412D01*
X155968161Y-103417650D01*
X155952923Y-103436698D01*
X155922447Y-103455745D01*
X156242447Y-103322412D02*
X156211971Y-103303364D01*
X156196733Y-103284317D01*
X156181495Y-103246221D01*
X156181495Y-103131936D01*
X156196733Y-103093840D01*
X156211971Y-103074793D01*
X156242447Y-103055745D01*
X156288161Y-103055745D01*
X156318638Y-103074793D01*
X156333876Y-103093840D01*
X156349114Y-103131936D01*
X156349114Y-103246221D01*
X156333876Y-103284317D01*
X156318638Y-103303364D01*
X156288161Y-103322412D01*
X156242447Y-103322412D01*
X156623400Y-103055745D02*
X156623400Y-103322412D01*
X156486257Y-103055745D02*
X156486257Y-103265269D01*
X156501495Y-103303364D01*
X156531971Y-103322412D01*
X156577685Y-103322412D01*
X156608161Y-103303364D01*
X156623400Y-103284317D01*
X157019590Y-103322412D02*
X157019590Y-102922412D01*
X157156733Y-103322412D02*
X157156733Y-103112888D01*
X157141495Y-103074793D01*
X157111019Y-103055745D01*
X157065304Y-103055745D01*
X157034828Y-103074793D01*
X157019590Y-103093840D01*
X157446257Y-103322412D02*
X157446257Y-103112888D01*
X157431019Y-103074793D01*
X157400542Y-103055745D01*
X157339590Y-103055745D01*
X157309114Y-103074793D01*
X157446257Y-103303364D02*
X157415780Y-103322412D01*
X157339590Y-103322412D01*
X157309114Y-103303364D01*
X157293876Y-103265269D01*
X157293876Y-103227174D01*
X157309114Y-103189079D01*
X157339590Y-103170031D01*
X157415780Y-103170031D01*
X157446257Y-103150983D01*
X157568161Y-103055745D02*
X157644352Y-103322412D01*
X157720542Y-103055745D01*
X157964352Y-103303364D02*
X157933876Y-103322412D01*
X157872923Y-103322412D01*
X157842447Y-103303364D01*
X157827209Y-103265269D01*
X157827209Y-103112888D01*
X157842447Y-103074793D01*
X157872923Y-103055745D01*
X157933876Y-103055745D01*
X157964352Y-103074793D01*
X157979590Y-103112888D01*
X157979590Y-103150983D01*
X157827209Y-103189079D01*
X158345304Y-102960507D02*
X158360542Y-102941460D01*
X158391019Y-102922412D01*
X158467209Y-102922412D01*
X158497685Y-102941460D01*
X158512923Y-102960507D01*
X158528161Y-102998602D01*
X158528161Y-103036698D01*
X158512923Y-103093840D01*
X158330066Y-103322412D01*
X158528161Y-103322412D01*
X158634828Y-103055745D02*
X158711019Y-103322412D01*
X158787209Y-103055745D01*
X159046257Y-103055745D02*
X159046257Y-103322412D01*
X158909114Y-103055745D02*
X158909114Y-103265269D01*
X158924352Y-103303364D01*
X158954828Y-103322412D01*
X159000542Y-103322412D01*
X159031019Y-103303364D01*
X159046257Y-103284317D01*
X159198638Y-103322412D02*
X159198638Y-103055745D01*
X159198638Y-103093840D02*
X159213876Y-103074793D01*
X159244352Y-103055745D01*
X159290066Y-103055745D01*
X159320542Y-103074793D01*
X159335780Y-103112888D01*
X159335780Y-103322412D01*
X159335780Y-103112888D02*
X159351019Y-103074793D01*
X159381495Y-103055745D01*
X159427209Y-103055745D01*
X159457685Y-103074793D01*
X159472923Y-103112888D01*
X159472923Y-103322412D01*
X163259643Y-101586267D02*
X163239440Y-101621259D01*
X163164041Y-101671042D01*
X163108845Y-101685831D01*
X163018657Y-101680418D01*
X162948671Y-101640012D01*
X162906284Y-101592211D01*
X162849106Y-101489214D01*
X162826922Y-101406421D01*
X162824941Y-101288634D01*
X162837749Y-101226044D01*
X162878155Y-101156058D01*
X162953554Y-101106276D01*
X163008749Y-101091486D01*
X163098938Y-101096900D01*
X163133931Y-101117103D01*
X163667667Y-101121985D02*
X163771194Y-101508356D01*
X163419286Y-101188539D02*
X163500629Y-101492115D01*
X163543016Y-101539916D01*
X163605607Y-101552725D01*
X163688401Y-101530540D01*
X163736202Y-101488152D01*
X163756405Y-101453160D01*
X163860852Y-101070221D02*
X164081635Y-101011063D01*
X163891882Y-100854852D02*
X164024989Y-101351614D01*
X164067376Y-101399415D01*
X164129967Y-101412223D01*
X164185162Y-101397433D01*
X162740242Y-102793993D02*
X162658899Y-102490416D01*
X162616511Y-102442616D01*
X162553921Y-102429807D01*
X162443529Y-102459387D01*
X162395728Y-102501774D01*
X162732847Y-102766395D02*
X162685046Y-102808783D01*
X162547057Y-102845757D01*
X162484466Y-102832949D01*
X162442079Y-102785148D01*
X162427289Y-102729952D01*
X162440097Y-102667361D01*
X162487898Y-102624974D01*
X162625887Y-102588000D01*
X162673688Y-102545612D01*
X163099014Y-102697860D02*
X163036424Y-102685052D01*
X162994036Y-102637251D01*
X162860929Y-102140489D01*
X163402591Y-102616517D02*
X163340000Y-102603709D01*
X163297613Y-102555908D01*
X163164506Y-102059146D01*
X163706168Y-102535174D02*
X163643577Y-102522366D01*
X163608584Y-102502163D01*
X163566197Y-102454362D01*
X163521828Y-102288775D01*
X163534636Y-102226184D01*
X163554839Y-102191191D01*
X163602640Y-102148804D01*
X163685434Y-102126619D01*
X163748024Y-102139427D01*
X163783017Y-102159631D01*
X163825405Y-102207431D01*
X163869773Y-102373019D01*
X163856965Y-102435609D01*
X163836762Y-102470602D01*
X163788961Y-102512990D01*
X163706168Y-102535174D01*
X163989010Y-102045276D02*
X164202929Y-102402067D01*
X164239373Y-102096509D01*
X164423713Y-102342909D01*
X164430576Y-101926959D01*
X164968275Y-102167414D02*
X164920474Y-102209802D01*
X164810083Y-102239381D01*
X164747492Y-102226573D01*
X164705105Y-102178772D01*
X164645946Y-101957989D01*
X164658754Y-101895398D01*
X164706555Y-101853011D01*
X164816947Y-101823431D01*
X164879537Y-101836239D01*
X164921925Y-101884040D01*
X164936715Y-101939236D01*
X164675525Y-102068380D01*
X165500030Y-102054510D02*
X165344738Y-101474955D01*
X165492635Y-102026912D02*
X165444834Y-102069300D01*
X165334443Y-102098879D01*
X165271852Y-102086071D01*
X165236859Y-102065868D01*
X165194472Y-102018067D01*
X165150103Y-101852480D01*
X165162911Y-101789889D01*
X165183114Y-101754896D01*
X165230915Y-101712509D01*
X165341307Y-101682929D01*
X165403897Y-101695738D01*
D11*
X162438080Y-102087680D02*
X165107620Y-101356160D01*
D13*
X73062780Y-120189720D02*
X73062780Y-120306386D01*
X73246113Y-120306386D02*
X72896113Y-120306386D01*
X72896113Y-120139720D01*
X73246113Y-119956386D02*
X73229446Y-119989720D01*
X73212780Y-120006386D01*
X73179446Y-120023053D01*
X73079446Y-120023053D01*
X73046113Y-120006386D01*
X73029446Y-119989720D01*
X73012780Y-119956386D01*
X73012780Y-119906386D01*
X73029446Y-119873053D01*
X73046113Y-119856386D01*
X73079446Y-119839720D01*
X73179446Y-119839720D01*
X73212780Y-119856386D01*
X73229446Y-119873053D01*
X73246113Y-119906386D01*
X73246113Y-119956386D01*
X73246113Y-119639720D02*
X73229446Y-119673053D01*
X73196113Y-119689720D01*
X72896113Y-119689720D01*
X73246113Y-119356386D02*
X72896113Y-119356386D01*
X73229446Y-119356386D02*
X73246113Y-119389720D01*
X73246113Y-119456386D01*
X73229446Y-119489720D01*
X73212780Y-119506386D01*
X73179446Y-119523053D01*
X73079446Y-119523053D01*
X73046113Y-119506386D01*
X73029446Y-119489720D01*
X73012780Y-119456386D01*
X73012780Y-119389720D01*
X73029446Y-119356386D01*
X73246113Y-118773053D02*
X72896113Y-118773053D01*
X73229446Y-118773053D02*
X73246113Y-118806386D01*
X73246113Y-118873053D01*
X73229446Y-118906386D01*
X73212780Y-118923053D01*
X73179446Y-118939720D01*
X73079446Y-118939720D01*
X73046113Y-118923053D01*
X73029446Y-118906386D01*
X73012780Y-118873053D01*
X73012780Y-118806386D01*
X73029446Y-118773053D01*
X73246113Y-118556386D02*
X73229446Y-118589720D01*
X73212780Y-118606386D01*
X73179446Y-118623053D01*
X73079446Y-118623053D01*
X73046113Y-118606386D01*
X73029446Y-118589720D01*
X73012780Y-118556386D01*
X73012780Y-118506386D01*
X73029446Y-118473053D01*
X73046113Y-118456386D01*
X73079446Y-118439720D01*
X73179446Y-118439720D01*
X73212780Y-118456386D01*
X73229446Y-118473053D01*
X73246113Y-118506386D01*
X73246113Y-118556386D01*
X73012780Y-118323053D02*
X73246113Y-118256386D01*
X73079446Y-118189720D01*
X73246113Y-118123053D01*
X73012780Y-118056386D01*
X73012780Y-117923053D02*
X73246113Y-117923053D01*
X73046113Y-117923053D02*
X73029446Y-117906386D01*
X73012780Y-117873053D01*
X73012780Y-117823053D01*
X73029446Y-117789720D01*
X73062780Y-117773053D01*
X73246113Y-117773053D01*
X73617780Y-120306386D02*
X73917780Y-120306386D01*
X73951113Y-120323053D01*
X73967780Y-120356386D01*
X73967780Y-120373053D01*
X73501113Y-120306386D02*
X73517780Y-120323053D01*
X73534446Y-120306386D01*
X73517780Y-120289720D01*
X73501113Y-120306386D01*
X73534446Y-120306386D01*
X73851113Y-119989720D02*
X73667780Y-119989720D01*
X73634446Y-120006386D01*
X73617780Y-120039720D01*
X73617780Y-120106386D01*
X73634446Y-120139720D01*
X73834446Y-119989720D02*
X73851113Y-120023053D01*
X73851113Y-120106386D01*
X73834446Y-120139720D01*
X73801113Y-120156386D01*
X73767780Y-120156386D01*
X73734446Y-120139720D01*
X73717780Y-120106386D01*
X73717780Y-120023053D01*
X73701113Y-119989720D01*
X73834446Y-119673053D02*
X73851113Y-119706386D01*
X73851113Y-119773053D01*
X73834446Y-119806386D01*
X73817780Y-119823053D01*
X73784446Y-119839720D01*
X73684446Y-119839720D01*
X73651113Y-119823053D01*
X73634446Y-119806386D01*
X73617780Y-119773053D01*
X73617780Y-119706386D01*
X73634446Y-119673053D01*
X73851113Y-119523053D02*
X73501113Y-119523053D01*
X73717780Y-119489720D02*
X73851113Y-119389720D01*
X73617780Y-119389720D02*
X73751113Y-119523053D01*
X74222780Y-120356386D02*
X74222780Y-120223053D01*
X74106113Y-120306386D02*
X74406113Y-120306386D01*
X74439446Y-120289720D01*
X74456113Y-120256386D01*
X74456113Y-120223053D01*
X74456113Y-119956386D02*
X74272780Y-119956386D01*
X74239446Y-119973053D01*
X74222780Y-120006386D01*
X74222780Y-120073053D01*
X74239446Y-120106386D01*
X74439446Y-119956386D02*
X74456113Y-119989720D01*
X74456113Y-120073053D01*
X74439446Y-120106386D01*
X74406113Y-120123053D01*
X74372780Y-120123053D01*
X74339446Y-120106386D01*
X74322780Y-120073053D01*
X74322780Y-119989720D01*
X74306113Y-119956386D01*
X74456113Y-119789720D02*
X74106113Y-119789720D01*
X74239446Y-119789720D02*
X74222780Y-119756386D01*
X74222780Y-119689720D01*
X74239446Y-119656386D01*
X74256113Y-119639720D01*
X74289446Y-119623053D01*
X74389446Y-119623053D01*
X74422780Y-119639720D01*
X74439446Y-119656386D01*
X74456113Y-119689720D01*
X74456113Y-119756386D01*
X74439446Y-119789720D01*
X74322780Y-119206386D02*
X74322780Y-118939720D01*
X74222780Y-118773053D02*
X74322780Y-118506386D01*
X74422780Y-118773053D01*
X75061113Y-120306386D02*
X74711113Y-120306386D01*
X74844446Y-120306386D02*
X74827780Y-120273053D01*
X74827780Y-120206386D01*
X74844446Y-120173053D01*
X74861113Y-120156386D01*
X74894446Y-120139720D01*
X74994446Y-120139720D01*
X75027780Y-120156386D01*
X75044446Y-120173053D01*
X75061113Y-120206386D01*
X75061113Y-120273053D01*
X75044446Y-120306386D01*
X75044446Y-119856386D02*
X75061113Y-119889720D01*
X75061113Y-119956386D01*
X75044446Y-119989720D01*
X75011113Y-120006386D01*
X74877780Y-120006386D01*
X74844446Y-119989720D01*
X74827780Y-119956386D01*
X74827780Y-119889720D01*
X74844446Y-119856386D01*
X74877780Y-119839720D01*
X74911113Y-119839720D01*
X74944446Y-120006386D01*
X75061113Y-119639720D02*
X75044446Y-119673053D01*
X75011113Y-119689720D01*
X74711113Y-119689720D01*
X75061113Y-119456386D02*
X75044446Y-119489720D01*
X75027780Y-119506386D01*
X74994446Y-119523053D01*
X74894446Y-119523053D01*
X74861113Y-119506386D01*
X74844446Y-119489720D01*
X74827780Y-119456386D01*
X74827780Y-119406386D01*
X74844446Y-119373053D01*
X74861113Y-119356386D01*
X74894446Y-119339720D01*
X74994446Y-119339720D01*
X75027780Y-119356386D01*
X75044446Y-119373053D01*
X75061113Y-119406386D01*
X75061113Y-119456386D01*
X74827780Y-119223053D02*
X75061113Y-119156386D01*
X74894446Y-119089720D01*
X75061113Y-119023053D01*
X74827780Y-118956386D01*
D11*
X74781239Y-118278351D02*
G75*
G02X74642980Y-115511580I-138259J1379931D01*
G01*
D14*
X104489574Y-100015082D02*
X104375288Y-99957940D01*
X104261002Y-99843654D01*
X104089574Y-99672225D01*
X103975288Y-99615082D01*
X103861002Y-99615082D01*
X103918145Y-99900797D02*
X103803860Y-99843654D01*
X103689574Y-99729368D01*
X103632431Y-99500797D01*
X103632431Y-99100797D01*
X103689574Y-98872225D01*
X103803860Y-98757940D01*
X103918145Y-98700797D01*
X104146717Y-98700797D01*
X104261002Y-98757940D01*
X104375288Y-98872225D01*
X104432431Y-99100797D01*
X104432431Y-99500797D01*
X104375288Y-99729368D01*
X104261002Y-99843654D01*
X104146717Y-99900797D01*
X103918145Y-99900797D01*
X105461002Y-99100797D02*
X105461002Y-99900797D01*
X104946717Y-99100797D02*
X104946717Y-99729368D01*
X105003860Y-99843654D01*
X105118145Y-99900797D01*
X105289574Y-99900797D01*
X105403860Y-99843654D01*
X105461002Y-99786511D01*
X106546717Y-99900797D02*
X106546717Y-99272225D01*
X106489574Y-99157940D01*
X106375288Y-99100797D01*
X106146717Y-99100797D01*
X106032431Y-99157940D01*
X106546717Y-99843654D02*
X106432431Y-99900797D01*
X106146717Y-99900797D01*
X106032431Y-99843654D01*
X105975288Y-99729368D01*
X105975288Y-99615082D01*
X106032431Y-99500797D01*
X106146717Y-99443654D01*
X106432431Y-99443654D01*
X106546717Y-99386511D01*
X107118145Y-99100797D02*
X107118145Y-99900797D01*
X107118145Y-99215082D02*
X107175288Y-99157940D01*
X107289574Y-99100797D01*
X107461002Y-99100797D01*
X107575288Y-99157940D01*
X107632431Y-99272225D01*
X107632431Y-99900797D01*
X108032431Y-99100797D02*
X108489574Y-99100797D01*
X108203860Y-98700797D02*
X108203860Y-99729368D01*
X108261002Y-99843654D01*
X108375288Y-99900797D01*
X108489574Y-99900797D01*
X109403860Y-99100797D02*
X109403860Y-99900797D01*
X108889574Y-99100797D02*
X108889574Y-99729368D01*
X108946717Y-99843654D01*
X109061002Y-99900797D01*
X109232431Y-99900797D01*
X109346717Y-99843654D01*
X109403860Y-99786511D01*
X109975288Y-99900797D02*
X109975288Y-99100797D01*
X109975288Y-99215082D02*
X110032431Y-99157940D01*
X110146717Y-99100797D01*
X110318145Y-99100797D01*
X110432431Y-99157940D01*
X110489574Y-99272225D01*
X110489574Y-99900797D01*
X110489574Y-99272225D02*
X110546717Y-99157940D01*
X110661002Y-99100797D01*
X110832431Y-99100797D01*
X110946717Y-99157940D01*
X111003860Y-99272225D01*
X111003860Y-99900797D01*
X112489574Y-99900797D02*
X112489574Y-98700797D01*
X112889574Y-99557940D01*
X113289574Y-98700797D01*
X113289574Y-99900797D01*
X114546717Y-99786511D02*
X114489574Y-99843654D01*
X114318145Y-99900797D01*
X114203860Y-99900797D01*
X114032431Y-99843654D01*
X113918145Y-99729368D01*
X113861002Y-99615082D01*
X113803860Y-99386511D01*
X113803860Y-99215082D01*
X113861002Y-98986511D01*
X113918145Y-98872225D01*
X114032431Y-98757940D01*
X114203860Y-98700797D01*
X114318145Y-98700797D01*
X114489574Y-98757940D01*
X114546717Y-98815082D01*
X115061002Y-99900797D02*
X115061002Y-98700797D01*
X115518145Y-98700797D01*
X115632431Y-98757940D01*
X115689574Y-98815082D01*
X115746717Y-98929368D01*
X115746717Y-99100797D01*
X115689574Y-99215082D01*
X115632431Y-99272225D01*
X115518145Y-99329368D01*
X115061002Y-99329368D01*
X116775288Y-99100797D02*
X116775288Y-99900797D01*
X116489574Y-98643654D02*
X116203860Y-99500797D01*
X116946717Y-99500797D01*
X117346717Y-98815082D02*
X117403860Y-98757940D01*
X117518145Y-98700797D01*
X117803860Y-98700797D01*
X117918145Y-98757940D01*
X117975288Y-98815082D01*
X118032431Y-98929368D01*
X118032431Y-99043654D01*
X117975288Y-99215082D01*
X117289574Y-99900797D01*
X118032431Y-99900797D01*
X119061002Y-98700797D02*
X118832431Y-98700797D01*
X118718145Y-98757940D01*
X118661002Y-98815082D01*
X118546717Y-98986511D01*
X118489574Y-99215082D01*
X118489574Y-99672225D01*
X118546717Y-99786511D01*
X118603860Y-99843654D01*
X118718145Y-99900797D01*
X118946717Y-99900797D01*
X119061002Y-99843654D01*
X119118145Y-99786511D01*
X119175288Y-99672225D01*
X119175288Y-99386511D01*
X119118145Y-99272225D01*
X119061002Y-99215082D01*
X118946717Y-99157940D01*
X118718145Y-99157940D01*
X118603860Y-99215082D01*
X118546717Y-99272225D01*
X118489574Y-99386511D01*
X119632431Y-98815082D02*
X119689574Y-98757940D01*
X119803860Y-98700797D01*
X120089574Y-98700797D01*
X120203860Y-98757940D01*
X120261002Y-98815082D01*
X120318145Y-98929368D01*
X120318145Y-99043654D01*
X120261002Y-99215082D01*
X119575288Y-99900797D01*
X120318145Y-99900797D01*
X120832431Y-99443654D02*
X121746717Y-99443654D01*
X122889574Y-98700797D02*
X122318145Y-98700797D01*
X122261002Y-99272225D01*
X122318145Y-99215082D01*
X122432431Y-99157940D01*
X122718145Y-99157940D01*
X122832431Y-99215082D01*
X122889574Y-99272225D01*
X122946717Y-99386511D01*
X122946717Y-99672225D01*
X122889574Y-99786511D01*
X122832431Y-99843654D01*
X122718145Y-99900797D01*
X122432431Y-99900797D01*
X122318145Y-99843654D01*
X122261002Y-99786511D01*
X123689574Y-98700797D02*
X123803860Y-98700797D01*
X123918145Y-98757940D01*
X123975288Y-98815082D01*
X124032431Y-98929368D01*
X124089574Y-99157940D01*
X124089574Y-99443654D01*
X124032431Y-99672225D01*
X123975288Y-99786511D01*
X123918145Y-99843654D01*
X123803860Y-99900797D01*
X123689574Y-99900797D01*
X123575288Y-99843654D01*
X123518145Y-99786511D01*
X123461002Y-99672225D01*
X123403860Y-99443654D01*
X123403860Y-99157940D01*
X123461002Y-98929368D01*
X123518145Y-98815082D01*
X123575288Y-98757940D01*
X123689574Y-98700797D01*
X124546717Y-98815082D02*
X124603860Y-98757940D01*
X124718145Y-98700797D01*
X125003860Y-98700797D01*
X125118145Y-98757940D01*
X125175288Y-98815082D01*
X125232431Y-98929368D01*
X125232431Y-99043654D01*
X125175288Y-99215082D01*
X124489574Y-99900797D01*
X125232431Y-99900797D01*
X126603860Y-98815082D02*
X126661002Y-98757940D01*
X126775288Y-98700797D01*
X127061002Y-98700797D01*
X127175288Y-98757940D01*
X127232431Y-98815082D01*
X127289574Y-98929368D01*
X127289574Y-99043654D01*
X127232431Y-99215082D01*
X126546717Y-99900797D01*
X127289574Y-99900797D01*
X128375288Y-98700797D02*
X127803860Y-98700797D01*
X127746717Y-99272225D01*
X127803860Y-99215082D01*
X127918145Y-99157940D01*
X128203860Y-99157940D01*
X128318145Y-99215082D01*
X128375288Y-99272225D01*
X128432431Y-99386511D01*
X128432431Y-99672225D01*
X128375288Y-99786511D01*
X128318145Y-99843654D01*
X128203860Y-99900797D01*
X127918145Y-99900797D01*
X127803860Y-99843654D01*
X127746717Y-99786511D01*
X128832431Y-99900797D02*
X129461002Y-99100797D01*
X128832431Y-99100797D02*
X129461002Y-99900797D01*
X105518145Y-100700797D02*
X105518145Y-101672225D01*
X105575288Y-101786511D01*
X105632431Y-101843654D01*
X105746717Y-101900797D01*
X105975288Y-101900797D01*
X106089574Y-101843654D01*
X106146717Y-101786511D01*
X106203860Y-101672225D01*
X106203860Y-100700797D01*
X106832431Y-101900797D02*
X107061002Y-101900797D01*
X107175288Y-101843654D01*
X107232431Y-101786511D01*
X107346717Y-101615082D01*
X107403860Y-101386511D01*
X107403860Y-100929368D01*
X107346717Y-100815082D01*
X107289574Y-100757940D01*
X107175288Y-100700797D01*
X106946717Y-100700797D01*
X106832431Y-100757940D01*
X106775288Y-100815082D01*
X106718145Y-100929368D01*
X106718145Y-101215082D01*
X106775288Y-101329368D01*
X106832431Y-101386511D01*
X106946717Y-101443654D01*
X107175288Y-101443654D01*
X107289574Y-101386511D01*
X107346717Y-101329368D01*
X107403860Y-101215082D01*
X107918145Y-101443654D02*
X108832431Y-101443654D01*
X109403860Y-100700797D02*
X109403860Y-101672225D01*
X109461002Y-101786511D01*
X109518145Y-101843654D01*
X109632431Y-101900797D01*
X109861002Y-101900797D01*
X109975288Y-101843654D01*
X110032431Y-101786511D01*
X110089574Y-101672225D01*
X110089574Y-100700797D01*
X110546717Y-100700797D02*
X111289574Y-100700797D01*
X110889574Y-101157940D01*
X111061002Y-101157940D01*
X111175288Y-101215082D01*
X111232431Y-101272225D01*
X111289574Y-101386511D01*
X111289574Y-101672225D01*
X111232431Y-101786511D01*
X111175288Y-101843654D01*
X111061002Y-101900797D01*
X110718145Y-101900797D01*
X110603860Y-101843654D01*
X110546717Y-101786511D01*
X111746717Y-100815082D02*
X111803860Y-100757940D01*
X111918145Y-100700797D01*
X112203860Y-100700797D01*
X112318145Y-100757940D01*
X112375288Y-100815082D01*
X112432431Y-100929368D01*
X112432431Y-101043654D01*
X112375288Y-101215082D01*
X111689574Y-101900797D01*
X112432431Y-101900797D01*
D10*
X116854106Y-119287286D02*
X116854106Y-118953953D01*
X117054106Y-119353953D02*
X116354106Y-119120620D01*
X117054106Y-118887286D01*
X116587440Y-118720620D02*
X117054106Y-118553953D01*
X116587440Y-118387286D01*
X117054106Y-118020620D02*
X117020773Y-118087286D01*
X116987440Y-118120620D01*
X116920773Y-118153953D01*
X116720773Y-118153953D01*
X116654106Y-118120620D01*
X116620773Y-118087286D01*
X116587440Y-118020620D01*
X116587440Y-117920620D01*
X116620773Y-117853953D01*
X116654106Y-117820620D01*
X116720773Y-117787286D01*
X116920773Y-117787286D01*
X116987440Y-117820620D01*
X117020773Y-117853953D01*
X117054106Y-117920620D01*
X117054106Y-118020620D01*
X117054106Y-117487286D02*
X116587440Y-117487286D01*
X116354106Y-117487286D02*
X116387440Y-117520620D01*
X116420773Y-117487286D01*
X116387440Y-117453953D01*
X116354106Y-117487286D01*
X116420773Y-117487286D01*
X117054106Y-116853953D02*
X116354106Y-116853953D01*
X117020773Y-116853953D02*
X117054106Y-116920620D01*
X117054106Y-117053953D01*
X117020773Y-117120620D01*
X116987440Y-117153953D01*
X116920773Y-117187286D01*
X116720773Y-117187286D01*
X116654106Y-117153953D01*
X116620773Y-117120620D01*
X116587440Y-117053953D01*
X116587440Y-116920620D01*
X116620773Y-116853953D01*
X117020773Y-115720620D02*
X117054106Y-115787286D01*
X117054106Y-115920620D01*
X117020773Y-115987286D01*
X116954106Y-116020620D01*
X116687440Y-116020620D01*
X116620773Y-115987286D01*
X116587440Y-115920620D01*
X116587440Y-115787286D01*
X116620773Y-115720620D01*
X116687440Y-115687286D01*
X116754106Y-115687286D01*
X116820773Y-116020620D01*
X117054106Y-115453953D02*
X116587440Y-115087286D01*
X116587440Y-115453953D02*
X117054106Y-115087286D01*
X117020773Y-114520620D02*
X117054106Y-114587286D01*
X117054106Y-114720620D01*
X117020773Y-114787286D01*
X116987440Y-114820620D01*
X116920773Y-114853953D01*
X116720773Y-114853953D01*
X116654106Y-114820620D01*
X116620773Y-114787286D01*
X116587440Y-114720620D01*
X116587440Y-114587286D01*
X116620773Y-114520620D01*
X117020773Y-113953953D02*
X117054106Y-114020620D01*
X117054106Y-114153953D01*
X117020773Y-114220620D01*
X116954106Y-114253953D01*
X116687440Y-114253953D01*
X116620773Y-114220620D01*
X116587440Y-114153953D01*
X116587440Y-114020620D01*
X116620773Y-113953953D01*
X116687440Y-113920620D01*
X116754106Y-113920620D01*
X116820773Y-114253953D01*
X117020773Y-113653953D02*
X117054106Y-113587286D01*
X117054106Y-113453953D01*
X117020773Y-113387286D01*
X116954106Y-113353953D01*
X116920773Y-113353953D01*
X116854106Y-113387286D01*
X116820773Y-113453953D01*
X116820773Y-113553953D01*
X116787440Y-113620620D01*
X116720773Y-113653953D01*
X116687440Y-113653953D01*
X116620773Y-113620620D01*
X116587440Y-113553953D01*
X116587440Y-113453953D01*
X116620773Y-113387286D01*
X117020773Y-113087286D02*
X117054106Y-113020620D01*
X117054106Y-112887286D01*
X117020773Y-112820620D01*
X116954106Y-112787286D01*
X116920773Y-112787286D01*
X116854106Y-112820620D01*
X116820773Y-112887286D01*
X116820773Y-112987286D01*
X116787440Y-113053953D01*
X116720773Y-113087286D01*
X116687440Y-113087286D01*
X116620773Y-113053953D01*
X116587440Y-112987286D01*
X116587440Y-112887286D01*
X116620773Y-112820620D01*
X117054106Y-112487286D02*
X116587440Y-112487286D01*
X116354106Y-112487286D02*
X116387440Y-112520620D01*
X116420773Y-112487286D01*
X116387440Y-112453953D01*
X116354106Y-112487286D01*
X116420773Y-112487286D01*
X116587440Y-112220620D02*
X117054106Y-112053953D01*
X116587440Y-111887286D01*
X117020773Y-111353953D02*
X117054106Y-111420620D01*
X117054106Y-111553953D01*
X117020773Y-111620620D01*
X116954106Y-111653953D01*
X116687440Y-111653953D01*
X116620773Y-111620620D01*
X116587440Y-111553953D01*
X116587440Y-111420620D01*
X116620773Y-111353953D01*
X116687440Y-111320620D01*
X116754106Y-111320620D01*
X116820773Y-111653953D01*
X117054106Y-110487286D02*
X116587440Y-110487286D01*
X116654106Y-110487286D02*
X116620773Y-110453953D01*
X116587440Y-110387286D01*
X116587440Y-110287286D01*
X116620773Y-110220620D01*
X116687440Y-110187286D01*
X117054106Y-110187286D01*
X116687440Y-110187286D02*
X116620773Y-110153953D01*
X116587440Y-110087286D01*
X116587440Y-109987286D01*
X116620773Y-109920620D01*
X116687440Y-109887286D01*
X117054106Y-109887286D01*
X117020773Y-109287286D02*
X117054106Y-109353953D01*
X117054106Y-109487286D01*
X117020773Y-109553953D01*
X116954106Y-109587286D01*
X116687440Y-109587286D01*
X116620773Y-109553953D01*
X116587440Y-109487286D01*
X116587440Y-109353953D01*
X116620773Y-109287286D01*
X116687440Y-109253953D01*
X116754106Y-109253953D01*
X116820773Y-109587286D01*
X116587440Y-109053953D02*
X116587440Y-108787286D01*
X116354106Y-108953953D02*
X116954106Y-108953953D01*
X117020773Y-108920620D01*
X117054106Y-108853953D01*
X117054106Y-108787286D01*
X117054106Y-108253953D02*
X116687440Y-108253953D01*
X116620773Y-108287286D01*
X116587440Y-108353953D01*
X116587440Y-108487286D01*
X116620773Y-108553953D01*
X117020773Y-108253953D02*
X117054106Y-108320620D01*
X117054106Y-108487286D01*
X117020773Y-108553953D01*
X116954106Y-108587286D01*
X116887440Y-108587286D01*
X116820773Y-108553953D01*
X116787440Y-108487286D01*
X116787440Y-108320620D01*
X116754106Y-108253953D01*
X117054106Y-107820620D02*
X117020773Y-107887286D01*
X116954106Y-107920620D01*
X116354106Y-107920620D01*
X116587440Y-107120620D02*
X116587440Y-106853953D01*
X117054106Y-107020620D02*
X116454106Y-107020620D01*
X116387440Y-106987286D01*
X116354106Y-106920620D01*
X116354106Y-106853953D01*
X117054106Y-106320620D02*
X116687440Y-106320620D01*
X116620773Y-106353953D01*
X116587440Y-106420620D01*
X116587440Y-106553953D01*
X116620773Y-106620620D01*
X117020773Y-106320620D02*
X117054106Y-106387286D01*
X117054106Y-106553953D01*
X117020773Y-106620620D01*
X116954106Y-106653953D01*
X116887440Y-106653953D01*
X116820773Y-106620620D01*
X116787440Y-106553953D01*
X116787440Y-106387286D01*
X116754106Y-106320620D01*
X116587440Y-106087286D02*
X116587440Y-105820620D01*
X116354106Y-105987286D02*
X116954106Y-105987286D01*
X117020773Y-105953953D01*
X117054106Y-105887286D01*
X117054106Y-105820620D01*
X117054106Y-105587286D02*
X116587440Y-105587286D01*
X116354106Y-105587286D02*
X116387440Y-105620620D01*
X116420773Y-105587286D01*
X116387440Y-105553953D01*
X116354106Y-105587286D01*
X116420773Y-105587286D01*
X116587440Y-104953953D02*
X117154106Y-104953953D01*
X117220773Y-104987286D01*
X117254106Y-105020620D01*
X117287440Y-105087286D01*
X117287440Y-105187286D01*
X117254106Y-105253953D01*
X117020773Y-104953953D02*
X117054106Y-105020620D01*
X117054106Y-105153953D01*
X117020773Y-105220620D01*
X116987440Y-105253953D01*
X116920773Y-105287286D01*
X116720773Y-105287286D01*
X116654106Y-105253953D01*
X116620773Y-105220620D01*
X116587440Y-105153953D01*
X116587440Y-105020620D01*
X116620773Y-104953953D01*
X116587440Y-104320620D02*
X117054106Y-104320620D01*
X116587440Y-104620620D02*
X116954106Y-104620620D01*
X117020773Y-104587286D01*
X117054106Y-104520620D01*
X117054106Y-104420620D01*
X117020773Y-104353953D01*
X116987440Y-104320620D01*
X117020773Y-103720620D02*
X117054106Y-103787286D01*
X117054106Y-103920620D01*
X117020773Y-103987286D01*
X116954106Y-104020620D01*
X116687440Y-104020620D01*
X116620773Y-103987286D01*
X116587440Y-103920620D01*
X116587440Y-103787286D01*
X116620773Y-103720620D01*
X116687440Y-103687286D01*
X116754106Y-103687286D01*
X116820773Y-104020620D01*
X117054106Y-102853953D02*
X116354106Y-102853953D01*
X116620773Y-102853953D02*
X116587440Y-102787286D01*
X116587440Y-102653953D01*
X116620773Y-102587286D01*
X116654106Y-102553953D01*
X116720773Y-102520620D01*
X116920773Y-102520620D01*
X116987440Y-102553953D01*
X117020773Y-102587286D01*
X117054106Y-102653953D01*
X117054106Y-102787286D01*
X117020773Y-102853953D01*
X116587440Y-102287286D02*
X117054106Y-102120620D01*
X116587440Y-101953953D02*
X117054106Y-102120620D01*
X117220773Y-102187286D01*
X117254106Y-102220620D01*
X117287440Y-102287286D01*
X117737440Y-119637286D02*
X118204106Y-119503953D01*
X117870773Y-119370620D01*
X118204106Y-119237286D01*
X117737440Y-119103953D01*
X118204106Y-118837286D02*
X117737440Y-118837286D01*
X117504106Y-118837286D02*
X117537440Y-118870620D01*
X117570773Y-118837286D01*
X117537440Y-118803953D01*
X117504106Y-118837286D01*
X117570773Y-118837286D01*
X118204106Y-118203953D02*
X117504106Y-118203953D01*
X118170773Y-118203953D02*
X118204106Y-118270620D01*
X118204106Y-118403953D01*
X118170773Y-118470620D01*
X118137440Y-118503953D01*
X118070773Y-118537286D01*
X117870773Y-118537286D01*
X117804106Y-118503953D01*
X117770773Y-118470620D01*
X117737440Y-118403953D01*
X117737440Y-118270620D01*
X117770773Y-118203953D01*
X118170773Y-117603953D02*
X118204106Y-117670620D01*
X118204106Y-117803953D01*
X118170773Y-117870620D01*
X118104106Y-117903953D01*
X117837440Y-117903953D01*
X117770773Y-117870620D01*
X117737440Y-117803953D01*
X117737440Y-117670620D01*
X117770773Y-117603953D01*
X117837440Y-117570620D01*
X117904106Y-117570620D01*
X117970773Y-117903953D01*
X118204106Y-116737286D02*
X117504106Y-116737286D01*
X117770773Y-116737286D02*
X117737440Y-116670620D01*
X117737440Y-116537286D01*
X117770773Y-116470620D01*
X117804106Y-116437286D01*
X117870773Y-116403953D01*
X118070773Y-116403953D01*
X118137440Y-116437286D01*
X118170773Y-116470620D01*
X118204106Y-116537286D01*
X118204106Y-116670620D01*
X118170773Y-116737286D01*
X118170773Y-115837286D02*
X118204106Y-115903953D01*
X118204106Y-116037286D01*
X118170773Y-116103953D01*
X118104106Y-116137286D01*
X117837440Y-116137286D01*
X117770773Y-116103953D01*
X117737440Y-116037286D01*
X117737440Y-115903953D01*
X117770773Y-115837286D01*
X117837440Y-115803953D01*
X117904106Y-115803953D01*
X117970773Y-116137286D01*
X117737440Y-115503953D02*
X118204106Y-115503953D01*
X117804106Y-115503953D02*
X117770773Y-115470620D01*
X117737440Y-115403953D01*
X117737440Y-115303953D01*
X117770773Y-115237286D01*
X117837440Y-115203953D01*
X118204106Y-115203953D01*
X118204106Y-114570620D02*
X117504106Y-114570620D01*
X118170773Y-114570620D02*
X118204106Y-114637286D01*
X118204106Y-114770620D01*
X118170773Y-114837286D01*
X118137440Y-114870620D01*
X118070773Y-114903953D01*
X117870773Y-114903953D01*
X117804106Y-114870620D01*
X117770773Y-114837286D01*
X117737440Y-114770620D01*
X117737440Y-114637286D01*
X117770773Y-114570620D01*
X118204106Y-113703953D02*
X117737440Y-113703953D01*
X117870773Y-113703953D02*
X117804106Y-113670620D01*
X117770773Y-113637286D01*
X117737440Y-113570620D01*
X117737440Y-113503953D01*
X118204106Y-112970620D02*
X117837440Y-112970620D01*
X117770773Y-113003953D01*
X117737440Y-113070620D01*
X117737440Y-113203953D01*
X117770773Y-113270620D01*
X118170773Y-112970620D02*
X118204106Y-113037286D01*
X118204106Y-113203953D01*
X118170773Y-113270620D01*
X118104106Y-113303953D01*
X118037440Y-113303953D01*
X117970773Y-113270620D01*
X117937440Y-113203953D01*
X117937440Y-113037286D01*
X117904106Y-112970620D01*
X118204106Y-112337286D02*
X117504106Y-112337286D01*
X118170773Y-112337286D02*
X118204106Y-112403953D01*
X118204106Y-112537286D01*
X118170773Y-112603953D01*
X118137440Y-112637286D01*
X118070773Y-112670620D01*
X117870773Y-112670620D01*
X117804106Y-112637286D01*
X117770773Y-112603953D01*
X117737440Y-112537286D01*
X117737440Y-112403953D01*
X117770773Y-112337286D01*
X118204106Y-112003953D02*
X117737440Y-112003953D01*
X117504106Y-112003953D02*
X117537440Y-112037286D01*
X117570773Y-112003953D01*
X117537440Y-111970620D01*
X117504106Y-112003953D01*
X117570773Y-112003953D01*
X117737440Y-111370620D02*
X118204106Y-111370620D01*
X117737440Y-111670620D02*
X118104106Y-111670620D01*
X118170773Y-111637286D01*
X118204106Y-111570620D01*
X118204106Y-111470620D01*
X118170773Y-111403953D01*
X118137440Y-111370620D01*
X118170773Y-111070620D02*
X118204106Y-111003953D01*
X118204106Y-110870620D01*
X118170773Y-110803953D01*
X118104106Y-110770620D01*
X118070773Y-110770620D01*
X118004106Y-110803953D01*
X117970773Y-110870620D01*
X117970773Y-110970620D01*
X117937440Y-111037286D01*
X117870773Y-111070620D01*
X117837440Y-111070620D01*
X117770773Y-111037286D01*
X117737440Y-110970620D01*
X117737440Y-110870620D01*
X117770773Y-110803953D01*
X118204106Y-109370620D02*
X118204106Y-109403953D01*
X118170773Y-109470620D01*
X118070773Y-109570620D01*
X117870773Y-109737286D01*
X117770773Y-109803953D01*
X117670773Y-109837286D01*
X117604106Y-109837286D01*
X117537440Y-109803953D01*
X117504106Y-109737286D01*
X117504106Y-109703953D01*
X117537440Y-109637286D01*
X117604106Y-109603953D01*
X117637440Y-109603953D01*
X117704106Y-109637286D01*
X117737440Y-109670620D01*
X117870773Y-109870620D01*
X117904106Y-109903953D01*
X117970773Y-109937286D01*
X118070773Y-109937286D01*
X118137440Y-109903953D01*
X118170773Y-109870620D01*
X118204106Y-109803953D01*
X118204106Y-109703953D01*
X118170773Y-109637286D01*
X118137440Y-109603953D01*
X118004106Y-109503953D01*
X117904106Y-109470620D01*
X117837440Y-109470620D01*
X118204106Y-108003953D02*
X117737440Y-108003953D01*
X117804106Y-108003953D02*
X117770773Y-107970620D01*
X117737440Y-107903953D01*
X117737440Y-107803953D01*
X117770773Y-107737286D01*
X117837440Y-107703953D01*
X118204106Y-107703953D01*
X117837440Y-107703953D02*
X117770773Y-107670620D01*
X117737440Y-107603953D01*
X117737440Y-107503953D01*
X117770773Y-107437286D01*
X117837440Y-107403953D01*
X118204106Y-107403953D01*
X118204106Y-107070620D02*
X117737440Y-107070620D01*
X117504106Y-107070620D02*
X117537440Y-107103953D01*
X117570773Y-107070620D01*
X117537440Y-107037286D01*
X117504106Y-107070620D01*
X117570773Y-107070620D01*
X117737440Y-106737286D02*
X118204106Y-106737286D01*
X117804106Y-106737286D02*
X117770773Y-106703953D01*
X117737440Y-106637286D01*
X117737440Y-106537286D01*
X117770773Y-106470620D01*
X117837440Y-106437286D01*
X118204106Y-106437286D01*
X118204106Y-106103953D02*
X117737440Y-106103953D01*
X117504106Y-106103953D02*
X117537440Y-106137286D01*
X117570773Y-106103953D01*
X117537440Y-106070620D01*
X117504106Y-106103953D01*
X117570773Y-106103953D01*
X118204106Y-105770620D02*
X117737440Y-105770620D01*
X117804106Y-105770620D02*
X117770773Y-105737286D01*
X117737440Y-105670620D01*
X117737440Y-105570620D01*
X117770773Y-105503953D01*
X117837440Y-105470620D01*
X118204106Y-105470620D01*
X117837440Y-105470620D02*
X117770773Y-105437286D01*
X117737440Y-105370620D01*
X117737440Y-105270620D01*
X117770773Y-105203953D01*
X117837440Y-105170620D01*
X118204106Y-105170620D01*
X118204106Y-104537286D02*
X117837440Y-104537286D01*
X117770773Y-104570620D01*
X117737440Y-104637286D01*
X117737440Y-104770620D01*
X117770773Y-104837286D01*
X118170773Y-104537286D02*
X118204106Y-104603953D01*
X118204106Y-104770620D01*
X118170773Y-104837286D01*
X118104106Y-104870620D01*
X118037440Y-104870620D01*
X117970773Y-104837286D01*
X117937440Y-104770620D01*
X117937440Y-104603953D01*
X117904106Y-104537286D01*
X118204106Y-104103953D02*
X118170773Y-104170620D01*
X118104106Y-104203953D01*
X117504106Y-104203953D01*
X117737440Y-103403953D02*
X117737440Y-103137286D01*
X118204106Y-103303953D02*
X117604106Y-103303953D01*
X117537440Y-103270620D01*
X117504106Y-103203953D01*
X117504106Y-103137286D01*
X118204106Y-102803953D02*
X118170773Y-102870620D01*
X118104106Y-102903953D01*
X117504106Y-102903953D01*
X118170773Y-102270620D02*
X118204106Y-102337286D01*
X118204106Y-102470620D01*
X118170773Y-102537286D01*
X118104106Y-102570620D01*
X117837440Y-102570620D01*
X117770773Y-102537286D01*
X117737440Y-102470620D01*
X117737440Y-102337286D01*
X117770773Y-102270620D01*
X117837440Y-102237286D01*
X117904106Y-102237286D01*
X117970773Y-102570620D01*
X118204106Y-102003953D02*
X117737440Y-101637286D01*
X117737440Y-102003953D02*
X118204106Y-101637286D01*
X118204106Y-101370619D02*
X117737440Y-101370619D01*
X117504106Y-101370619D02*
X117537440Y-101403953D01*
X117570773Y-101370619D01*
X117537440Y-101337286D01*
X117504106Y-101370619D01*
X117570773Y-101370619D01*
X117737440Y-101037286D02*
X118204106Y-101037286D01*
X117804106Y-101037286D02*
X117770773Y-101003953D01*
X117737440Y-100937286D01*
X117737440Y-100837286D01*
X117770773Y-100770620D01*
X117837440Y-100737286D01*
X118204106Y-100737286D01*
X117737440Y-100103953D02*
X118304106Y-100103953D01*
X118370773Y-100137286D01*
X118404106Y-100170620D01*
X118437440Y-100237286D01*
X118437440Y-100337286D01*
X118404106Y-100403953D01*
X118170773Y-100103953D02*
X118204106Y-100170620D01*
X118204106Y-100303953D01*
X118170773Y-100370620D01*
X118137440Y-100403953D01*
X118070773Y-100437286D01*
X117870773Y-100437286D01*
X117804106Y-100403953D01*
X117770773Y-100370620D01*
X117737440Y-100303953D01*
X117737440Y-100170620D01*
X117770773Y-100103953D01*
D11*
X143837660Y-104175560D02*
X135101680Y-104167940D01*
X143837660Y-102097599D02*
X143837660Y-104175560D01*
X158605220Y-102100380D02*
X143837660Y-102100380D01*
X135101680Y-104167940D02*
X135101680Y-97845880D01*
X141283460Y-98682640D02*
X140058460Y-98682640D01*
X141283460Y-101807640D02*
X144633460Y-101807640D01*
X141283460Y-98457640D02*
X144633460Y-98457640D01*
X141283460Y-101807640D02*
X141283460Y-101507640D01*
X144633460Y-101807640D02*
X144633460Y-101507640D01*
X144633460Y-98457640D02*
X144633460Y-98757640D01*
X141283460Y-98457640D02*
X141283460Y-98682640D01*
X153440260Y-98367980D02*
X153440260Y-98592980D01*
X156790260Y-98367980D02*
X156790260Y-98667980D01*
X156790260Y-101717980D02*
X156790260Y-101417980D01*
X153440260Y-101717980D02*
X153440260Y-101417980D01*
X153440260Y-98367980D02*
X156790260Y-98367980D01*
X153440260Y-101717980D02*
X156790260Y-101717980D01*
X153440260Y-98592980D02*
X152215260Y-98592980D01*
X145218020Y-115858420D02*
X144993020Y-115858420D01*
X145218020Y-119208420D02*
X144918020Y-119208420D01*
X141868020Y-119208420D02*
X142168020Y-119208420D01*
X141868020Y-115858420D02*
X142168020Y-115858420D01*
X145218020Y-115858420D02*
X145218020Y-119208420D01*
X141868020Y-115858420D02*
X141868020Y-119208420D01*
X144993020Y-115858420D02*
X144993020Y-114633420D01*
X134007520Y-115868580D02*
X134007520Y-114643580D01*
X130882520Y-115868580D02*
X130882520Y-119218580D01*
X134232520Y-115868580D02*
X134232520Y-119218580D01*
X130882520Y-115868580D02*
X131182520Y-115868580D01*
X130882520Y-119218580D02*
X131182520Y-119218580D01*
X134232520Y-119218580D02*
X133932520Y-119218580D01*
X134232520Y-115868580D02*
X134007520Y-115868580D01*
X139496460Y-115860960D02*
X139496460Y-114635960D01*
X136371460Y-115860960D02*
X136371460Y-119210960D01*
X139721460Y-115860960D02*
X139721460Y-119210960D01*
X136371460Y-115860960D02*
X136671460Y-115860960D01*
X136371460Y-119210960D02*
X136671460Y-119210960D01*
X139721460Y-119210960D02*
X139421460Y-119210960D01*
X139721460Y-115860960D02*
X139496460Y-115860960D01*
X155978520Y-115845720D02*
X155978520Y-114620720D01*
X152853520Y-115845720D02*
X152853520Y-119195720D01*
X156203520Y-115845720D02*
X156203520Y-119195720D01*
X152853520Y-115845720D02*
X153153520Y-115845720D01*
X152853520Y-119195720D02*
X153153520Y-119195720D01*
X156203520Y-119195720D02*
X155903520Y-119195720D01*
X156203520Y-115845720D02*
X155978520Y-115845720D01*
X128735960Y-115871120D02*
X128510960Y-115871120D01*
X128735960Y-119221120D02*
X128435960Y-119221120D01*
X125385960Y-119221120D02*
X125685960Y-119221120D01*
X125385960Y-115871120D02*
X125685960Y-115871120D01*
X128735960Y-115871120D02*
X128735960Y-119221120D01*
X125385960Y-115871120D02*
X125385960Y-119221120D01*
X128510960Y-115871120D02*
X128510960Y-114646120D01*
X150706960Y-115848260D02*
X150481960Y-115848260D01*
X150706960Y-119198260D02*
X150406960Y-119198260D01*
X147356960Y-119198260D02*
X147656960Y-119198260D01*
X147356960Y-115848260D02*
X147656960Y-115848260D01*
X150706960Y-115848260D02*
X150706960Y-119198260D01*
X147356960Y-115848260D02*
X147356960Y-119198260D01*
X150481960Y-115848260D02*
X150481960Y-114623260D01*
X167199180Y-115850800D02*
X166974180Y-115850800D01*
X167199180Y-119200800D02*
X166899180Y-119200800D01*
X163849180Y-119200800D02*
X164149180Y-119200800D01*
X163849180Y-115850800D02*
X164149180Y-115850800D01*
X167199180Y-115850800D02*
X167199180Y-119200800D01*
X163849180Y-115850800D02*
X163849180Y-119200800D01*
X166974180Y-115850800D02*
X166974180Y-114625800D01*
X161477620Y-115853340D02*
X161477620Y-114628340D01*
X158352620Y-115853340D02*
X158352620Y-119203340D01*
X161702620Y-115853340D02*
X161702620Y-119203340D01*
X158352620Y-115853340D02*
X158652620Y-115853340D01*
X158352620Y-119203340D02*
X158652620Y-119203340D01*
X161702620Y-119203340D02*
X161402620Y-119203340D01*
X161702620Y-115853340D02*
X161477620Y-115853340D01*
X100583660Y-115848260D02*
X100583660Y-114623260D01*
X97458660Y-115848260D02*
X97458660Y-119198260D01*
X100808660Y-115848260D02*
X100808660Y-119198260D01*
X97458660Y-115848260D02*
X97758660Y-115848260D01*
X97458660Y-119198260D02*
X97758660Y-119198260D01*
X100808660Y-119198260D02*
X100508660Y-119198260D01*
X100808660Y-115848260D02*
X100583660Y-115848260D01*
X106305220Y-115845720D02*
X106080220Y-115845720D01*
X106305220Y-119195720D02*
X106005220Y-119195720D01*
X102955220Y-119195720D02*
X103255220Y-119195720D01*
X102955220Y-115845720D02*
X103255220Y-115845720D01*
X106305220Y-115845720D02*
X106305220Y-119195720D01*
X102955220Y-115845720D02*
X102955220Y-119195720D01*
X106080220Y-115845720D02*
X106080220Y-114620720D01*
X95094720Y-115858420D02*
X95094720Y-114633420D01*
X91969720Y-115858420D02*
X91969720Y-119208420D01*
X95319720Y-115858420D02*
X95319720Y-119208420D01*
X91969720Y-115858420D02*
X92269720Y-115858420D01*
X91969720Y-119208420D02*
X92269720Y-119208420D01*
X95319720Y-119208420D02*
X95019720Y-119208420D01*
X95319720Y-115858420D02*
X95094720Y-115858420D01*
X89823160Y-115860960D02*
X89598160Y-115860960D01*
X89823160Y-119210960D02*
X89523160Y-119210960D01*
X86473160Y-119210960D02*
X86773160Y-119210960D01*
X86473160Y-115860960D02*
X86773160Y-115860960D01*
X89823160Y-115860960D02*
X89823160Y-119210960D01*
X86473160Y-115860960D02*
X86473160Y-119210960D01*
X89598160Y-115860960D02*
X89598160Y-114635960D01*
X78612660Y-115871120D02*
X78612660Y-114646120D01*
X75487660Y-115871120D02*
X75487660Y-119221120D01*
X78837660Y-115871120D02*
X78837660Y-119221120D01*
X75487660Y-115871120D02*
X75787660Y-115871120D01*
X75487660Y-119221120D02*
X75787660Y-119221120D01*
X78837660Y-119221120D02*
X78537660Y-119221120D01*
X78837660Y-115871120D02*
X78612660Y-115871120D01*
X84334220Y-115868580D02*
X84109220Y-115868580D01*
X84334220Y-119218580D02*
X84034220Y-119218580D01*
X80984220Y-119218580D02*
X81284220Y-119218580D01*
X80984220Y-115868580D02*
X81284220Y-115868580D01*
X84334220Y-115868580D02*
X84334220Y-119218580D01*
X80984220Y-115868580D02*
X80984220Y-119218580D01*
X84109220Y-115868580D02*
X84109220Y-114643580D01*
X127992800Y-107359580D02*
X127992800Y-106134580D01*
X124867800Y-107359580D02*
X124867800Y-110709580D01*
X128217800Y-107359580D02*
X128217800Y-110709580D01*
X124867800Y-107359580D02*
X125167800Y-107359580D01*
X124867800Y-110709580D02*
X125167800Y-110709580D01*
X128217800Y-110709580D02*
X127917800Y-110709580D01*
X128217800Y-107359580D02*
X127992800Y-107359580D01*
X133714360Y-107357040D02*
X133489360Y-107357040D01*
X133714360Y-110707040D02*
X133414360Y-110707040D01*
X130364360Y-110707040D02*
X130664360Y-110707040D01*
X130364360Y-107357040D02*
X130664360Y-107357040D01*
X133714360Y-107357040D02*
X133714360Y-110707040D01*
X130364360Y-107357040D02*
X130364360Y-110707040D01*
X133489360Y-107357040D02*
X133489360Y-106132040D01*
X159346560Y-107308780D02*
X159346560Y-106083780D01*
X156221560Y-107308780D02*
X156221560Y-110658780D01*
X159571560Y-107308780D02*
X159571560Y-110658780D01*
X156221560Y-107308780D02*
X156521560Y-107308780D01*
X156221560Y-110658780D02*
X156521560Y-110658780D01*
X159571560Y-110658780D02*
X159271560Y-110658780D01*
X159571560Y-107308780D02*
X159346560Y-107308780D01*
X165068120Y-107306240D02*
X164843120Y-107306240D01*
X165068120Y-110656240D02*
X164768120Y-110656240D01*
X161718120Y-110656240D02*
X162018120Y-110656240D01*
X161718120Y-107306240D02*
X162018120Y-107306240D01*
X165068120Y-107306240D02*
X165068120Y-110656240D01*
X161718120Y-107306240D02*
X161718120Y-110656240D01*
X164843120Y-107306240D02*
X164843120Y-106081240D01*
X153857620Y-107318940D02*
X153857620Y-106093940D01*
X150732620Y-107318940D02*
X150732620Y-110668940D01*
X154082620Y-107318940D02*
X154082620Y-110668940D01*
X150732620Y-107318940D02*
X151032620Y-107318940D01*
X150732620Y-110668940D02*
X151032620Y-110668940D01*
X154082620Y-110668940D02*
X153782620Y-110668940D01*
X154082620Y-107318940D02*
X153857620Y-107318940D01*
X148586060Y-107321480D02*
X148361060Y-107321480D01*
X148586060Y-110671480D02*
X148286060Y-110671480D01*
X145236060Y-110671480D02*
X145536060Y-110671480D01*
X145236060Y-107321480D02*
X145536060Y-107321480D01*
X148586060Y-107321480D02*
X148586060Y-110671480D01*
X145236060Y-107321480D02*
X145236060Y-110671480D01*
X148361060Y-107321480D02*
X148361060Y-106096480D01*
X107107860Y-107270680D02*
X106882860Y-107270680D01*
X107107860Y-110620680D02*
X106807860Y-110620680D01*
X103757860Y-110620680D02*
X104057860Y-110620680D01*
X103757860Y-107270680D02*
X104057860Y-107270680D01*
X107107860Y-107270680D02*
X107107860Y-110620680D01*
X103757860Y-107270680D02*
X103757860Y-110620680D01*
X106882860Y-107270680D02*
X106882860Y-106045680D01*
X112379420Y-107268140D02*
X112379420Y-106043140D01*
X109254420Y-107268140D02*
X109254420Y-110618140D01*
X112604420Y-107268140D02*
X112604420Y-110618140D01*
X109254420Y-107268140D02*
X109554420Y-107268140D01*
X109254420Y-110618140D02*
X109554420Y-110618140D01*
X112604420Y-110618140D02*
X112304420Y-110618140D01*
X112604420Y-107268140D02*
X112379420Y-107268140D01*
X111804320Y-115853340D02*
X111579320Y-115853340D01*
X111804320Y-119203340D02*
X111504320Y-119203340D01*
X108454320Y-119203340D02*
X108754320Y-119203340D01*
X108454320Y-115853340D02*
X108754320Y-115853340D01*
X111804320Y-115853340D02*
X111804320Y-119203340D01*
X108454320Y-115853340D02*
X108454320Y-119203340D01*
X111579320Y-115853340D02*
X111579320Y-114628340D01*
X93592520Y-107321480D02*
X93367520Y-107321480D01*
X93592520Y-110671480D02*
X93292520Y-110671480D01*
X90242520Y-110671480D02*
X90542520Y-110671480D01*
X90242520Y-107321480D02*
X90542520Y-107321480D01*
X93592520Y-107321480D02*
X93592520Y-110671480D01*
X90242520Y-107321480D02*
X90242520Y-110671480D01*
X93367520Y-107321480D02*
X93367520Y-106096480D01*
X87870960Y-107324020D02*
X87870960Y-106099020D01*
X84745960Y-107324020D02*
X84745960Y-110674020D01*
X88095960Y-107324020D02*
X88095960Y-110674020D01*
X84745960Y-107324020D02*
X85045960Y-107324020D01*
X84745960Y-110674020D02*
X85045960Y-110674020D01*
X88095960Y-110674020D02*
X87795960Y-110674020D01*
X88095960Y-107324020D02*
X87870960Y-107324020D01*
X142288355Y-99990660D02*
X142288355Y-100800184D01*
X142335974Y-100895422D01*
X142383593Y-100943041D01*
X142478831Y-100990660D01*
X142669307Y-100990660D01*
X142764545Y-100943041D01*
X142812164Y-100895422D01*
X142859783Y-100800184D01*
X142859783Y-99990660D01*
X143240736Y-99990660D02*
X143907402Y-99990660D01*
X143478831Y-100990660D01*
X154625135Y-99530920D02*
X154625135Y-100340444D01*
X154672754Y-100435682D01*
X154720373Y-100483301D01*
X154815611Y-100530920D01*
X155006087Y-100530920D01*
X155101325Y-100483301D01*
X155148944Y-100435682D01*
X155196563Y-100340444D01*
X155196563Y-99530920D01*
X155577516Y-99530920D02*
X156244182Y-99530920D01*
X155815611Y-100530920D01*
D15*
X131628129Y-98221645D02*
X131461462Y-98221645D01*
X131461462Y-98483550D02*
X131461462Y-97983550D01*
X131699558Y-97983550D01*
X131890034Y-98483550D02*
X131890034Y-97983550D01*
X132128129Y-98483550D02*
X132128129Y-97983550D01*
X132247177Y-97983550D01*
X132318605Y-98007360D01*
X132366224Y-98054979D01*
X132390034Y-98102598D01*
X132413843Y-98197836D01*
X132413843Y-98269264D01*
X132390034Y-98364502D01*
X132366224Y-98412121D01*
X132318605Y-98459740D01*
X132247177Y-98483550D01*
X132128129Y-98483550D01*
X132961462Y-97983550D02*
X133294796Y-97983550D01*
X133080510Y-98483550D01*
D10*
X103899614Y-103095905D02*
X103732947Y-103095905D01*
X103732947Y-103357810D02*
X103732947Y-102857810D01*
X103971042Y-102857810D01*
X104161519Y-103357810D02*
X104161519Y-102857810D01*
X104399614Y-103357810D02*
X104399614Y-102857810D01*
X104518661Y-102857810D01*
X104590090Y-102881620D01*
X104637709Y-102929239D01*
X104661519Y-102976858D01*
X104685328Y-103072096D01*
X104685328Y-103143524D01*
X104661519Y-103238762D01*
X104637709Y-103286381D01*
X104590090Y-103334000D01*
X104518661Y-103357810D01*
X104399614Y-103357810D01*
X105351995Y-103072096D02*
X105304376Y-103048286D01*
X105280566Y-103024477D01*
X105256757Y-102976858D01*
X105256757Y-102953048D01*
X105280566Y-102905429D01*
X105304376Y-102881620D01*
X105351995Y-102857810D01*
X105447233Y-102857810D01*
X105494852Y-102881620D01*
X105518661Y-102905429D01*
X105542471Y-102953048D01*
X105542471Y-102976858D01*
X105518661Y-103024477D01*
X105494852Y-103048286D01*
X105447233Y-103072096D01*
X105351995Y-103072096D01*
X105304376Y-103095905D01*
X105280566Y-103119715D01*
X105256757Y-103167334D01*
X105256757Y-103262572D01*
X105280566Y-103310191D01*
X105304376Y-103334000D01*
X105351995Y-103357810D01*
X105447233Y-103357810D01*
X105494852Y-103334000D01*
X105518661Y-103310191D01*
X105542471Y-103262572D01*
X105542471Y-103167334D01*
X105518661Y-103119715D01*
X105494852Y-103095905D01*
X105447233Y-103072096D01*
X105828185Y-103072096D02*
X105780566Y-103048286D01*
X105756757Y-103024477D01*
X105732947Y-102976858D01*
X105732947Y-102953048D01*
X105756757Y-102905429D01*
X105780566Y-102881620D01*
X105828185Y-102857810D01*
X105923423Y-102857810D01*
X105971042Y-102881620D01*
X105994852Y-102905429D01*
X106018661Y-102953048D01*
X106018661Y-102976858D01*
X105994852Y-103024477D01*
X105971042Y-103048286D01*
X105923423Y-103072096D01*
X105828185Y-103072096D01*
X105780566Y-103095905D01*
X105756757Y-103119715D01*
X105732947Y-103167334D01*
X105732947Y-103262572D01*
X105756757Y-103310191D01*
X105780566Y-103334000D01*
X105828185Y-103357810D01*
X105923423Y-103357810D01*
X105971042Y-103334000D01*
X105994852Y-103310191D01*
X106018661Y-103262572D01*
X106018661Y-103167334D01*
X105994852Y-103119715D01*
X105971042Y-103095905D01*
X105923423Y-103072096D01*
X165253107Y-105770048D02*
X165119774Y-105770048D01*
X165119774Y-105979572D02*
X165119774Y-105579572D01*
X165310250Y-105579572D01*
X165462631Y-105979572D02*
X165462631Y-105579572D01*
X165653107Y-105979572D02*
X165653107Y-105579572D01*
X165748345Y-105579572D01*
X165805488Y-105598620D01*
X165843583Y-105636715D01*
X165862631Y-105674810D01*
X165881679Y-105751000D01*
X165881679Y-105808143D01*
X165862631Y-105884334D01*
X165843583Y-105922429D01*
X165805488Y-105960524D01*
X165748345Y-105979572D01*
X165653107Y-105979572D01*
X166376917Y-105979572D02*
X166453107Y-105979572D01*
X166491202Y-105960524D01*
X166510250Y-105941477D01*
X166548345Y-105884334D01*
X166567393Y-105808143D01*
X166567393Y-105655762D01*
X166548345Y-105617667D01*
X166529298Y-105598620D01*
X166491202Y-105579572D01*
X166415012Y-105579572D01*
X166376917Y-105598620D01*
X166357869Y-105617667D01*
X166338821Y-105655762D01*
X166338821Y-105751000D01*
X166357869Y-105789096D01*
X166376917Y-105808143D01*
X166415012Y-105827191D01*
X166491202Y-105827191D01*
X166529298Y-105808143D01*
X166548345Y-105789096D01*
X166567393Y-105751000D01*
D11*
X145595400Y-118771515D02*
X146404924Y-118771515D01*
X146500162Y-118723896D01*
X146547781Y-118676277D01*
X146595400Y-118581039D01*
X146595400Y-118390562D01*
X146547781Y-118295324D01*
X146500162Y-118247705D01*
X146404924Y-118200086D01*
X145595400Y-118200086D01*
X145690639Y-117771515D02*
X145643020Y-117723896D01*
X145595400Y-117628658D01*
X145595400Y-117390562D01*
X145643020Y-117295324D01*
X145690639Y-117247705D01*
X145785877Y-117200086D01*
X145881115Y-117200086D01*
X146023972Y-117247705D01*
X146595400Y-117819134D01*
X146595400Y-117200086D01*
X145595400Y-116295324D02*
X145595400Y-116771515D01*
X146071591Y-116819134D01*
X146023972Y-116771515D01*
X145976353Y-116676277D01*
X145976353Y-116438181D01*
X146023972Y-116342943D01*
X146071591Y-116295324D01*
X146166829Y-116247705D01*
X146404924Y-116247705D01*
X146500162Y-116295324D01*
X146547781Y-116342943D01*
X146595400Y-116438181D01*
X146595400Y-116676277D01*
X146547781Y-116771515D01*
X146500162Y-116819134D01*
X134609900Y-118781675D02*
X135419424Y-118781675D01*
X135514662Y-118734056D01*
X135562281Y-118686437D01*
X135609900Y-118591199D01*
X135609900Y-118400722D01*
X135562281Y-118305484D01*
X135514662Y-118257865D01*
X135419424Y-118210246D01*
X134609900Y-118210246D01*
X134705139Y-117781675D02*
X134657520Y-117734056D01*
X134609900Y-117638818D01*
X134609900Y-117400722D01*
X134657520Y-117305484D01*
X134705139Y-117257865D01*
X134800377Y-117210246D01*
X134895615Y-117210246D01*
X135038472Y-117257865D01*
X135609900Y-117829294D01*
X135609900Y-117210246D01*
X134609900Y-116876913D02*
X134609900Y-116257865D01*
X134990853Y-116591199D01*
X134990853Y-116448341D01*
X135038472Y-116353103D01*
X135086091Y-116305484D01*
X135181329Y-116257865D01*
X135419424Y-116257865D01*
X135514662Y-116305484D01*
X135562281Y-116353103D01*
X135609900Y-116448341D01*
X135609900Y-116734056D01*
X135562281Y-116829294D01*
X135514662Y-116876913D01*
X140098840Y-118774055D02*
X140908364Y-118774055D01*
X141003602Y-118726436D01*
X141051221Y-118678817D01*
X141098840Y-118583579D01*
X141098840Y-118393102D01*
X141051221Y-118297864D01*
X141003602Y-118250245D01*
X140908364Y-118202626D01*
X140098840Y-118202626D01*
X140194079Y-117774055D02*
X140146460Y-117726436D01*
X140098840Y-117631198D01*
X140098840Y-117393102D01*
X140146460Y-117297864D01*
X140194079Y-117250245D01*
X140289317Y-117202626D01*
X140384555Y-117202626D01*
X140527412Y-117250245D01*
X141098840Y-117821674D01*
X141098840Y-117202626D01*
X140432174Y-116345483D02*
X141098840Y-116345483D01*
X140051221Y-116583579D02*
X140765507Y-116821674D01*
X140765507Y-116202626D01*
X156580900Y-118758815D02*
X157390424Y-118758815D01*
X157485662Y-118711196D01*
X157533281Y-118663577D01*
X157580900Y-118568339D01*
X157580900Y-118377862D01*
X157533281Y-118282624D01*
X157485662Y-118235005D01*
X157390424Y-118187386D01*
X156580900Y-118187386D01*
X156676139Y-117758815D02*
X156628520Y-117711196D01*
X156580900Y-117615958D01*
X156580900Y-117377862D01*
X156628520Y-117282624D01*
X156676139Y-117235005D01*
X156771377Y-117187386D01*
X156866615Y-117187386D01*
X157009472Y-117235005D01*
X157580900Y-117806434D01*
X157580900Y-117187386D01*
X156580900Y-116854053D02*
X156580900Y-116187386D01*
X157580900Y-116615958D01*
X129113340Y-118784215D02*
X129922864Y-118784215D01*
X130018102Y-118736596D01*
X130065721Y-118688977D01*
X130113340Y-118593739D01*
X130113340Y-118403262D01*
X130065721Y-118308024D01*
X130018102Y-118260405D01*
X129922864Y-118212786D01*
X129113340Y-118212786D01*
X129208579Y-117784215D02*
X129160960Y-117736596D01*
X129113340Y-117641358D01*
X129113340Y-117403262D01*
X129160960Y-117308024D01*
X129208579Y-117260405D01*
X129303817Y-117212786D01*
X129399055Y-117212786D01*
X129541912Y-117260405D01*
X130113340Y-117831834D01*
X130113340Y-117212786D01*
X129208579Y-116831834D02*
X129160960Y-116784215D01*
X129113340Y-116688977D01*
X129113340Y-116450881D01*
X129160960Y-116355643D01*
X129208579Y-116308024D01*
X129303817Y-116260405D01*
X129399055Y-116260405D01*
X129541912Y-116308024D01*
X130113340Y-116879453D01*
X130113340Y-116260405D01*
X151084340Y-118761355D02*
X151893864Y-118761355D01*
X151989102Y-118713736D01*
X152036721Y-118666117D01*
X152084340Y-118570879D01*
X152084340Y-118380402D01*
X152036721Y-118285164D01*
X151989102Y-118237545D01*
X151893864Y-118189926D01*
X151084340Y-118189926D01*
X151179579Y-117761355D02*
X151131960Y-117713736D01*
X151084340Y-117618498D01*
X151084340Y-117380402D01*
X151131960Y-117285164D01*
X151179579Y-117237545D01*
X151274817Y-117189926D01*
X151370055Y-117189926D01*
X151512912Y-117237545D01*
X152084340Y-117808974D01*
X152084340Y-117189926D01*
X151084340Y-116332783D02*
X151084340Y-116523260D01*
X151131960Y-116618498D01*
X151179579Y-116666117D01*
X151322436Y-116761355D01*
X151512912Y-116808974D01*
X151893864Y-116808974D01*
X151989102Y-116761355D01*
X152036721Y-116713736D01*
X152084340Y-116618498D01*
X152084340Y-116428021D01*
X152036721Y-116332783D01*
X151989102Y-116285164D01*
X151893864Y-116237545D01*
X151655769Y-116237545D01*
X151560531Y-116285164D01*
X151512912Y-116332783D01*
X151465293Y-116428021D01*
X151465293Y-116618498D01*
X151512912Y-116713736D01*
X151560531Y-116761355D01*
X151655769Y-116808974D01*
X165992560Y-113988695D02*
X166802084Y-113988695D01*
X166897322Y-113941076D01*
X166944941Y-113893457D01*
X166992560Y-113798219D01*
X166992560Y-113607742D01*
X166944941Y-113512504D01*
X166897322Y-113464885D01*
X166802084Y-113417266D01*
X165992560Y-113417266D01*
X166087799Y-112988695D02*
X166040180Y-112941076D01*
X165992560Y-112845838D01*
X165992560Y-112607742D01*
X166040180Y-112512504D01*
X166087799Y-112464885D01*
X166183037Y-112417266D01*
X166278275Y-112417266D01*
X166421132Y-112464885D01*
X166992560Y-113036314D01*
X166992560Y-112417266D01*
X166992560Y-111941076D02*
X166992560Y-111750600D01*
X166944941Y-111655361D01*
X166897322Y-111607742D01*
X166754465Y-111512504D01*
X166563989Y-111464885D01*
X166183037Y-111464885D01*
X166087799Y-111512504D01*
X166040180Y-111560123D01*
X165992560Y-111655361D01*
X165992560Y-111845838D01*
X166040180Y-111941076D01*
X166087799Y-111988695D01*
X166183037Y-112036314D01*
X166421132Y-112036314D01*
X166516370Y-111988695D01*
X166563989Y-111941076D01*
X166611608Y-111845838D01*
X166611608Y-111655361D01*
X166563989Y-111560123D01*
X166516370Y-111512504D01*
X166421132Y-111464885D01*
X162080000Y-118766435D02*
X162889524Y-118766435D01*
X162984762Y-118718816D01*
X163032381Y-118671197D01*
X163080000Y-118575959D01*
X163080000Y-118385482D01*
X163032381Y-118290244D01*
X162984762Y-118242625D01*
X162889524Y-118195006D01*
X162080000Y-118195006D01*
X162175239Y-117766435D02*
X162127620Y-117718816D01*
X162080000Y-117623578D01*
X162080000Y-117385482D01*
X162127620Y-117290244D01*
X162175239Y-117242625D01*
X162270477Y-117195006D01*
X162365715Y-117195006D01*
X162508572Y-117242625D01*
X163080000Y-117814054D01*
X163080000Y-117195006D01*
X162508572Y-116623578D02*
X162460953Y-116718816D01*
X162413334Y-116766435D01*
X162318096Y-116814054D01*
X162270477Y-116814054D01*
X162175239Y-116766435D01*
X162127620Y-116718816D01*
X162080000Y-116623578D01*
X162080000Y-116433101D01*
X162127620Y-116337863D01*
X162175239Y-116290244D01*
X162270477Y-116242625D01*
X162318096Y-116242625D01*
X162413334Y-116290244D01*
X162460953Y-116337863D01*
X162508572Y-116433101D01*
X162508572Y-116623578D01*
X162556191Y-116718816D01*
X162603810Y-116766435D01*
X162699048Y-116814054D01*
X162889524Y-116814054D01*
X162984762Y-116766435D01*
X163032381Y-116718816D01*
X163080000Y-116623578D01*
X163080000Y-116433101D01*
X163032381Y-116337863D01*
X162984762Y-116290244D01*
X162889524Y-116242625D01*
X162699048Y-116242625D01*
X162603810Y-116290244D01*
X162556191Y-116337863D01*
X162508572Y-116433101D01*
X101186040Y-118761355D02*
X101995564Y-118761355D01*
X102090802Y-118713736D01*
X102138421Y-118666117D01*
X102186040Y-118570879D01*
X102186040Y-118380402D01*
X102138421Y-118285164D01*
X102090802Y-118237545D01*
X101995564Y-118189926D01*
X101186040Y-118189926D01*
X102186040Y-117189926D02*
X102186040Y-117761355D01*
X102186040Y-117475640D02*
X101186040Y-117475640D01*
X101328898Y-117570879D01*
X101424136Y-117666117D01*
X101471755Y-117761355D01*
X101186040Y-116856593D02*
X101186040Y-116189926D01*
X102186040Y-116618498D01*
X106682600Y-118758815D02*
X107492124Y-118758815D01*
X107587362Y-118711196D01*
X107634981Y-118663577D01*
X107682600Y-118568339D01*
X107682600Y-118377862D01*
X107634981Y-118282624D01*
X107587362Y-118235005D01*
X107492124Y-118187386D01*
X106682600Y-118187386D01*
X107682600Y-117187386D02*
X107682600Y-117758815D01*
X107682600Y-117473100D02*
X106682600Y-117473100D01*
X106825458Y-117568339D01*
X106920696Y-117663577D01*
X106968315Y-117758815D01*
X107111172Y-116615958D02*
X107063553Y-116711196D01*
X107015934Y-116758815D01*
X106920696Y-116806434D01*
X106873077Y-116806434D01*
X106777839Y-116758815D01*
X106730220Y-116711196D01*
X106682600Y-116615958D01*
X106682600Y-116425481D01*
X106730220Y-116330243D01*
X106777839Y-116282624D01*
X106873077Y-116235005D01*
X106920696Y-116235005D01*
X107015934Y-116282624D01*
X107063553Y-116330243D01*
X107111172Y-116425481D01*
X107111172Y-116615958D01*
X107158791Y-116711196D01*
X107206410Y-116758815D01*
X107301648Y-116806434D01*
X107492124Y-116806434D01*
X107587362Y-116758815D01*
X107634981Y-116711196D01*
X107682600Y-116615958D01*
X107682600Y-116425481D01*
X107634981Y-116330243D01*
X107587362Y-116282624D01*
X107492124Y-116235005D01*
X107301648Y-116235005D01*
X107206410Y-116282624D01*
X107158791Y-116330243D01*
X107111172Y-116425481D01*
X95697100Y-118771515D02*
X96506624Y-118771515D01*
X96601862Y-118723896D01*
X96649481Y-118676277D01*
X96697100Y-118581039D01*
X96697100Y-118390562D01*
X96649481Y-118295324D01*
X96601862Y-118247705D01*
X96506624Y-118200086D01*
X95697100Y-118200086D01*
X96697100Y-117200086D02*
X96697100Y-117771515D01*
X96697100Y-117485800D02*
X95697100Y-117485800D01*
X95839958Y-117581039D01*
X95935196Y-117676277D01*
X95982815Y-117771515D01*
X95697100Y-116342943D02*
X95697100Y-116533420D01*
X95744720Y-116628658D01*
X95792339Y-116676277D01*
X95935196Y-116771515D01*
X96125672Y-116819134D01*
X96506624Y-116819134D01*
X96601862Y-116771515D01*
X96649481Y-116723896D01*
X96697100Y-116628658D01*
X96697100Y-116438181D01*
X96649481Y-116342943D01*
X96601862Y-116295324D01*
X96506624Y-116247705D01*
X96268529Y-116247705D01*
X96173291Y-116295324D01*
X96125672Y-116342943D01*
X96078053Y-116438181D01*
X96078053Y-116628658D01*
X96125672Y-116723896D01*
X96173291Y-116771515D01*
X96268529Y-116819134D01*
X90200540Y-118774055D02*
X91010064Y-118774055D01*
X91105302Y-118726436D01*
X91152921Y-118678817D01*
X91200540Y-118583579D01*
X91200540Y-118393102D01*
X91152921Y-118297864D01*
X91105302Y-118250245D01*
X91010064Y-118202626D01*
X90200540Y-118202626D01*
X91200540Y-117202626D02*
X91200540Y-117774055D01*
X91200540Y-117488340D02*
X90200540Y-117488340D01*
X90343398Y-117583579D01*
X90438636Y-117678817D01*
X90486255Y-117774055D01*
X90200540Y-116297864D02*
X90200540Y-116774055D01*
X90676731Y-116821674D01*
X90629112Y-116774055D01*
X90581493Y-116678817D01*
X90581493Y-116440721D01*
X90629112Y-116345483D01*
X90676731Y-116297864D01*
X90771969Y-116250245D01*
X91010064Y-116250245D01*
X91105302Y-116297864D01*
X91152921Y-116345483D01*
X91200540Y-116440721D01*
X91200540Y-116678817D01*
X91152921Y-116774055D01*
X91105302Y-116821674D01*
X79215040Y-118784215D02*
X80024564Y-118784215D01*
X80119802Y-118736596D01*
X80167421Y-118688977D01*
X80215040Y-118593739D01*
X80215040Y-118403262D01*
X80167421Y-118308024D01*
X80119802Y-118260405D01*
X80024564Y-118212786D01*
X79215040Y-118212786D01*
X80215040Y-117212786D02*
X80215040Y-117784215D01*
X80215040Y-117498500D02*
X79215040Y-117498500D01*
X79357898Y-117593739D01*
X79453136Y-117688977D01*
X79500755Y-117784215D01*
X79215040Y-116879453D02*
X79215040Y-116260405D01*
X79595993Y-116593739D01*
X79595993Y-116450881D01*
X79643612Y-116355643D01*
X79691231Y-116308024D01*
X79786469Y-116260405D01*
X80024564Y-116260405D01*
X80119802Y-116308024D01*
X80167421Y-116355643D01*
X80215040Y-116450881D01*
X80215040Y-116736596D01*
X80167421Y-116831834D01*
X80119802Y-116879453D01*
X84711600Y-118781675D02*
X85521124Y-118781675D01*
X85616362Y-118734056D01*
X85663981Y-118686437D01*
X85711600Y-118591199D01*
X85711600Y-118400722D01*
X85663981Y-118305484D01*
X85616362Y-118257865D01*
X85521124Y-118210246D01*
X84711600Y-118210246D01*
X85711600Y-117210246D02*
X85711600Y-117781675D01*
X85711600Y-117495960D02*
X84711600Y-117495960D01*
X84854458Y-117591199D01*
X84949696Y-117686437D01*
X84997315Y-117781675D01*
X85044934Y-116353103D02*
X85711600Y-116353103D01*
X84663981Y-116591199D02*
X85378267Y-116829294D01*
X85378267Y-116210246D01*
X128595180Y-110272675D02*
X129404704Y-110272675D01*
X129499942Y-110225056D01*
X129547561Y-110177437D01*
X129595180Y-110082199D01*
X129595180Y-109891722D01*
X129547561Y-109796484D01*
X129499942Y-109748865D01*
X129404704Y-109701246D01*
X128595180Y-109701246D01*
X128690419Y-109272675D02*
X128642800Y-109225056D01*
X128595180Y-109129818D01*
X128595180Y-108891722D01*
X128642800Y-108796484D01*
X128690419Y-108748865D01*
X128785657Y-108701246D01*
X128880895Y-108701246D01*
X129023752Y-108748865D01*
X129595180Y-109320294D01*
X129595180Y-108701246D01*
X128595180Y-108082199D02*
X128595180Y-107986960D01*
X128642800Y-107891722D01*
X128690419Y-107844103D01*
X128785657Y-107796484D01*
X128976133Y-107748865D01*
X129214228Y-107748865D01*
X129404704Y-107796484D01*
X129499942Y-107844103D01*
X129547561Y-107891722D01*
X129595180Y-107986960D01*
X129595180Y-108082199D01*
X129547561Y-108177437D01*
X129499942Y-108225056D01*
X129404704Y-108272675D01*
X129214228Y-108320294D01*
X128976133Y-108320294D01*
X128785657Y-108272675D01*
X128690419Y-108225056D01*
X128642800Y-108177437D01*
X128595180Y-108082199D01*
X134091740Y-110270135D02*
X134901264Y-110270135D01*
X134996502Y-110222516D01*
X135044121Y-110174897D01*
X135091740Y-110079659D01*
X135091740Y-109889182D01*
X135044121Y-109793944D01*
X134996502Y-109746325D01*
X134901264Y-109698706D01*
X134091740Y-109698706D01*
X134186979Y-109270135D02*
X134139360Y-109222516D01*
X134091740Y-109127278D01*
X134091740Y-108889182D01*
X134139360Y-108793944D01*
X134186979Y-108746325D01*
X134282217Y-108698706D01*
X134377455Y-108698706D01*
X134520312Y-108746325D01*
X135091740Y-109317754D01*
X135091740Y-108698706D01*
X135091740Y-107746325D02*
X135091740Y-108317754D01*
X135091740Y-108032040D02*
X134091740Y-108032040D01*
X134234598Y-108127278D01*
X134329836Y-108222516D01*
X134377455Y-108317754D01*
X159948940Y-110221875D02*
X160758464Y-110221875D01*
X160853702Y-110174256D01*
X160901321Y-110126637D01*
X160948940Y-110031399D01*
X160948940Y-109840922D01*
X160901321Y-109745684D01*
X160853702Y-109698065D01*
X160758464Y-109650446D01*
X159948940Y-109650446D01*
X159948940Y-109269494D02*
X159948940Y-108650446D01*
X160329893Y-108983780D01*
X160329893Y-108840922D01*
X160377512Y-108745684D01*
X160425131Y-108698065D01*
X160520369Y-108650446D01*
X160758464Y-108650446D01*
X160853702Y-108698065D01*
X160901321Y-108745684D01*
X160948940Y-108840922D01*
X160948940Y-109126637D01*
X160901321Y-109221875D01*
X160853702Y-109269494D01*
X160044179Y-108269494D02*
X159996560Y-108221875D01*
X159948940Y-108126637D01*
X159948940Y-107888541D01*
X159996560Y-107793303D01*
X160044179Y-107745684D01*
X160139417Y-107698065D01*
X160234655Y-107698065D01*
X160377512Y-107745684D01*
X160948940Y-108317113D01*
X160948940Y-107698065D01*
X166640141Y-110306640D02*
X166687760Y-110220925D01*
X166687760Y-110078068D01*
X166640141Y-110020925D01*
X166592522Y-109992354D01*
X166497284Y-109963782D01*
X166402046Y-109963782D01*
X166306808Y-109992354D01*
X166259189Y-110020925D01*
X166211570Y-110078068D01*
X166163951Y-110192354D01*
X166116332Y-110249497D01*
X166068713Y-110278068D01*
X165973475Y-110306640D01*
X165878237Y-110306640D01*
X165782999Y-110278068D01*
X165735380Y-110249497D01*
X165687760Y-110192354D01*
X165687760Y-110049497D01*
X165735380Y-109963782D01*
X166687760Y-109706640D02*
X165687760Y-109706640D01*
X165687760Y-109478068D01*
X165735380Y-109420925D01*
X165782999Y-109392354D01*
X165878237Y-109363782D01*
X166021094Y-109363782D01*
X166116332Y-109392354D01*
X166163951Y-109420925D01*
X166211570Y-109478068D01*
X166211570Y-109706640D01*
X166402046Y-109135211D02*
X166402046Y-108849497D01*
X166687760Y-109192354D02*
X165687760Y-108992354D01*
X166687760Y-108792354D01*
X166687760Y-108249497D02*
X166211570Y-108449497D01*
X166687760Y-108592354D02*
X165687760Y-108592354D01*
X165687760Y-108363782D01*
X165735380Y-108306640D01*
X165782999Y-108278068D01*
X165878237Y-108249497D01*
X166021094Y-108249497D01*
X166116332Y-108278068D01*
X166163951Y-108306640D01*
X166211570Y-108363782D01*
X166211570Y-108592354D01*
X166163951Y-107992354D02*
X166163951Y-107792354D01*
X166687760Y-107706640D02*
X166687760Y-107992354D01*
X165687760Y-107992354D01*
X165687760Y-107706640D01*
X154460000Y-110232035D02*
X155269524Y-110232035D01*
X155364762Y-110184416D01*
X155412381Y-110136797D01*
X155460000Y-110041559D01*
X155460000Y-109851082D01*
X155412381Y-109755844D01*
X155364762Y-109708225D01*
X155269524Y-109660606D01*
X154460000Y-109660606D01*
X154460000Y-109279654D02*
X154460000Y-108660606D01*
X154840953Y-108993940D01*
X154840953Y-108851082D01*
X154888572Y-108755844D01*
X154936191Y-108708225D01*
X155031429Y-108660606D01*
X155269524Y-108660606D01*
X155364762Y-108708225D01*
X155412381Y-108755844D01*
X155460000Y-108851082D01*
X155460000Y-109136797D01*
X155412381Y-109232035D01*
X155364762Y-109279654D01*
X155460000Y-107708225D02*
X155460000Y-108279654D01*
X155460000Y-107993940D02*
X154460000Y-107993940D01*
X154602858Y-108089178D01*
X154698096Y-108184416D01*
X154745715Y-108279654D01*
X148963440Y-110234575D02*
X149772964Y-110234575D01*
X149868202Y-110186956D01*
X149915821Y-110139337D01*
X149963440Y-110044099D01*
X149963440Y-109853622D01*
X149915821Y-109758384D01*
X149868202Y-109710765D01*
X149772964Y-109663146D01*
X148963440Y-109663146D01*
X148963440Y-109282194D02*
X148963440Y-108663146D01*
X149344393Y-108996480D01*
X149344393Y-108853622D01*
X149392012Y-108758384D01*
X149439631Y-108710765D01*
X149534869Y-108663146D01*
X149772964Y-108663146D01*
X149868202Y-108710765D01*
X149915821Y-108758384D01*
X149963440Y-108853622D01*
X149963440Y-109139337D01*
X149915821Y-109234575D01*
X149868202Y-109282194D01*
X148963440Y-108044099D02*
X148963440Y-107948860D01*
X149011060Y-107853622D01*
X149058679Y-107806003D01*
X149153917Y-107758384D01*
X149344393Y-107710765D01*
X149582488Y-107710765D01*
X149772964Y-107758384D01*
X149868202Y-107806003D01*
X149915821Y-107853622D01*
X149963440Y-107948860D01*
X149963440Y-108044099D01*
X149915821Y-108139337D01*
X149868202Y-108186956D01*
X149772964Y-108234575D01*
X149582488Y-108282194D01*
X149344393Y-108282194D01*
X149153917Y-108234575D01*
X149058679Y-108186956D01*
X149011060Y-108139337D01*
X148963440Y-108044099D01*
X107364280Y-110328555D02*
X108173804Y-110328555D01*
X108269042Y-110280936D01*
X108316661Y-110233317D01*
X108364280Y-110138079D01*
X108364280Y-109947602D01*
X108316661Y-109852364D01*
X108269042Y-109804745D01*
X108173804Y-109757126D01*
X107364280Y-109757126D01*
X108364280Y-108757126D02*
X108364280Y-109328555D01*
X108364280Y-109042840D02*
X107364280Y-109042840D01*
X107507138Y-109138079D01*
X107602376Y-109233317D01*
X107649995Y-109328555D01*
X108364280Y-107804745D02*
X108364280Y-108376174D01*
X108364280Y-108090460D02*
X107364280Y-108090460D01*
X107507138Y-108185698D01*
X107602376Y-108280936D01*
X107649995Y-108376174D01*
X113137700Y-110150755D02*
X113947224Y-110150755D01*
X114042462Y-110103136D01*
X114090081Y-110055517D01*
X114137700Y-109960279D01*
X114137700Y-109769802D01*
X114090081Y-109674564D01*
X114042462Y-109626945D01*
X113947224Y-109579326D01*
X113137700Y-109579326D01*
X114137700Y-108579326D02*
X114137700Y-109150755D01*
X114137700Y-108865040D02*
X113137700Y-108865040D01*
X113280558Y-108960279D01*
X113375796Y-109055517D01*
X113423415Y-109150755D01*
X113232939Y-108198374D02*
X113185320Y-108150755D01*
X113137700Y-108055517D01*
X113137700Y-107817421D01*
X113185320Y-107722183D01*
X113232939Y-107674564D01*
X113328177Y-107626945D01*
X113423415Y-107626945D01*
X113566272Y-107674564D01*
X114137700Y-108245993D01*
X114137700Y-107626945D01*
X112181700Y-118766435D02*
X112991224Y-118766435D01*
X113086462Y-118718816D01*
X113134081Y-118671197D01*
X113181700Y-118575959D01*
X113181700Y-118385482D01*
X113134081Y-118290244D01*
X113086462Y-118242625D01*
X112991224Y-118195006D01*
X112181700Y-118195006D01*
X113181700Y-117195006D02*
X113181700Y-117766435D01*
X113181700Y-117480720D02*
X112181700Y-117480720D01*
X112324558Y-117575959D01*
X112419796Y-117671197D01*
X112467415Y-117766435D01*
X113181700Y-116718816D02*
X113181700Y-116528340D01*
X113134081Y-116433101D01*
X113086462Y-116385482D01*
X112943605Y-116290244D01*
X112753129Y-116242625D01*
X112372177Y-116242625D01*
X112276939Y-116290244D01*
X112229320Y-116337863D01*
X112181700Y-116433101D01*
X112181700Y-116623578D01*
X112229320Y-116718816D01*
X112276939Y-116766435D01*
X112372177Y-116814054D01*
X112610272Y-116814054D01*
X112705510Y-116766435D01*
X112753129Y-116718816D01*
X112800748Y-116623578D01*
X112800748Y-116433101D01*
X112753129Y-116337863D01*
X112705510Y-116290244D01*
X112610272Y-116242625D01*
X94041980Y-111217555D02*
X94851504Y-111217555D01*
X94946742Y-111169936D01*
X94994361Y-111122317D01*
X95041980Y-111027079D01*
X95041980Y-110836602D01*
X94994361Y-110741364D01*
X94946742Y-110693745D01*
X94851504Y-110646126D01*
X94041980Y-110646126D01*
X95041980Y-109646126D02*
X95041980Y-110217555D01*
X95041980Y-109931840D02*
X94041980Y-109931840D01*
X94184838Y-110027079D01*
X94280076Y-110122317D01*
X94327695Y-110217555D01*
X94041980Y-109027079D02*
X94041980Y-108931840D01*
X94089600Y-108836602D01*
X94137219Y-108788983D01*
X94232457Y-108741364D01*
X94422933Y-108693745D01*
X94661028Y-108693745D01*
X94851504Y-108741364D01*
X94946742Y-108788983D01*
X94994361Y-108836602D01*
X95041980Y-108931840D01*
X95041980Y-109027079D01*
X94994361Y-109122317D01*
X94946742Y-109169936D01*
X94851504Y-109217555D01*
X94661028Y-109265174D01*
X94422933Y-109265174D01*
X94232457Y-109217555D01*
X94137219Y-109169936D01*
X94089600Y-109122317D01*
X94041980Y-109027079D01*
X88461600Y-110474664D02*
X89271124Y-110474664D01*
X89366362Y-110427045D01*
X89413981Y-110379426D01*
X89461600Y-110284188D01*
X89461600Y-110093712D01*
X89413981Y-109998474D01*
X89366362Y-109950855D01*
X89271124Y-109903236D01*
X88461600Y-109903236D01*
X89461600Y-109379426D02*
X89461600Y-109188950D01*
X89413981Y-109093712D01*
X89366362Y-109046093D01*
X89223505Y-108950855D01*
X89033029Y-108903236D01*
X88652077Y-108903236D01*
X88556839Y-108950855D01*
X88509220Y-108998474D01*
X88461600Y-109093712D01*
X88461600Y-109284188D01*
X88509220Y-109379426D01*
X88556839Y-109427045D01*
X88652077Y-109474664D01*
X88890172Y-109474664D01*
X88985410Y-109427045D01*
X89033029Y-109379426D01*
X89080648Y-109284188D01*
X89080648Y-109093712D01*
X89033029Y-108998474D01*
X88985410Y-108950855D01*
X88890172Y-108903236D01*
M02*
