G04 #@! TF.GenerationSoftware,KiCad,Pcbnew,5.1.4-e60b266~84~ubuntu16.04.1*
G04 #@! TF.CreationDate,2019-10-13T20:58:43-05:00*
G04 #@! TF.ProjectId,uno shield v1.0 project SMD,756e6f20-7368-4696-956c-642076312e30,rev?*
G04 #@! TF.SameCoordinates,Original*
G04 #@! TF.FileFunction,Soldermask,Bot*
G04 #@! TF.FilePolarity,Negative*
%FSLAX46Y46*%
G04 Gerber Fmt 4.6, Leading zero omitted, Abs format (unit mm)*
G04 Created by KiCad (PCBNEW 5.1.4-e60b266~84~ubuntu16.04.1) date 2019-10-13 20:58:43*
%MOMM*%
%LPD*%
G04 APERTURE LIST*
%ADD10C,1.150000*%
%ADD11C,0.330000*%
%ADD12C,0.150000*%
%ADD13C,0.200000*%
%ADD14C,0.500000*%
%ADD15C,0.100000*%
G04 APERTURE END LIST*
D10*
X138030386Y-123179988D02*
X137248066Y-123177448D01*
X149819360Y-116545360D02*
X149037040Y-116542820D01*
D11*
X137472114Y-115300847D02*
G75*
G03X137472114Y-115300847I-210265J0D01*
G01*
X144929554Y-113972427D02*
G75*
G03X144929554Y-113972427I-210265J0D01*
G01*
X146882814Y-123957167D02*
G75*
G03X146882814Y-123957167I-210265J0D01*
G01*
X146941234Y-119507087D02*
G75*
G03X146941234Y-119507087I-210265J0D01*
G01*
X152834034Y-119410567D02*
G75*
G03X152834034Y-119410567I-210265J0D01*
G01*
X158508394Y-120797407D02*
G75*
G03X158508394Y-120797407I-210265J0D01*
G01*
X158503314Y-117909427D02*
G75*
G03X158503314Y-117909427I-210265J0D01*
G01*
D12*
X147928127Y-110833532D02*
G75*
G02X148003260Y-109880400I-465887J516252D01*
G01*
X144914417Y-110941625D02*
G75*
G02X145219420Y-109954060I-253797J619265D01*
G01*
D13*
X154199708Y-84701972D02*
G75*
G02X154294840Y-83337400I826652J627972D01*
G01*
D12*
X154554490Y-84570773D02*
G75*
G02X154513280Y-83652360I476950J481533D01*
G01*
X174739030Y-83534944D02*
X174586649Y-83534944D01*
X174510459Y-83573040D01*
X174434268Y-83649230D01*
X174396173Y-83801611D01*
X174396173Y-84068278D01*
X174434268Y-84220659D01*
X174510459Y-84296849D01*
X174586649Y-84334944D01*
X174739030Y-84334944D01*
X174815220Y-84296849D01*
X174891411Y-84220659D01*
X174929506Y-84068278D01*
X174929506Y-83801611D01*
X174891411Y-83649230D01*
X174815220Y-83573040D01*
X174739030Y-83534944D01*
X174053316Y-83801611D02*
X174053316Y-84334944D01*
X174053316Y-83877801D02*
X174015220Y-83839706D01*
X173939030Y-83801611D01*
X173824744Y-83801611D01*
X173748554Y-83839706D01*
X173710459Y-83915897D01*
X173710459Y-84334944D01*
X173215220Y-84334944D02*
X173291411Y-84296849D01*
X173329506Y-84220659D01*
X173329506Y-83534944D01*
X172986649Y-83801611D02*
X172796173Y-84334944D01*
X172605697Y-83801611D02*
X172796173Y-84334944D01*
X172872363Y-84525420D01*
X172910459Y-84563516D01*
X172986649Y-84601611D01*
X171348554Y-83534944D02*
X171500935Y-83534944D01*
X171577125Y-83573040D01*
X171615220Y-83611135D01*
X171691411Y-83725420D01*
X171729506Y-83877801D01*
X171729506Y-84182563D01*
X171691411Y-84258754D01*
X171653316Y-84296849D01*
X171577125Y-84334944D01*
X171424744Y-84334944D01*
X171348554Y-84296849D01*
X171310459Y-84258754D01*
X171272363Y-84182563D01*
X171272363Y-83992087D01*
X171310459Y-83915897D01*
X171348554Y-83877801D01*
X171424744Y-83839706D01*
X171577125Y-83839706D01*
X171653316Y-83877801D01*
X171691411Y-83915897D01*
X171729506Y-83992087D01*
X170205697Y-84334944D02*
X170281887Y-84296849D01*
X170319982Y-84258754D01*
X170358078Y-84182563D01*
X170358078Y-83953992D01*
X170319982Y-83877801D01*
X170281887Y-83839706D01*
X170205697Y-83801611D01*
X170091411Y-83801611D01*
X170015220Y-83839706D01*
X169977125Y-83877801D01*
X169939030Y-83953992D01*
X169939030Y-84182563D01*
X169977125Y-84258754D01*
X170015220Y-84296849D01*
X170091411Y-84334944D01*
X170205697Y-84334944D01*
X169710459Y-83801611D02*
X169405697Y-83801611D01*
X169596173Y-84334944D02*
X169596173Y-83649230D01*
X169558078Y-83573040D01*
X169481887Y-83534944D01*
X169405697Y-83534944D01*
X168491411Y-84334944D02*
X168339030Y-84334944D01*
X168262840Y-84296849D01*
X168224744Y-84258754D01*
X168148554Y-84144468D01*
X168110459Y-83992087D01*
X168110459Y-83687325D01*
X168148554Y-83611135D01*
X168186649Y-83573040D01*
X168262840Y-83534944D01*
X168415220Y-83534944D01*
X168491411Y-83573040D01*
X168529506Y-83611135D01*
X168567601Y-83687325D01*
X168567601Y-83877801D01*
X168529506Y-83953992D01*
X168491411Y-83992087D01*
X168415220Y-84030182D01*
X168262840Y-84030182D01*
X168186649Y-83992087D01*
X168148554Y-83953992D01*
X168110459Y-83877801D01*
X167158078Y-83801611D02*
X167158078Y-84601611D01*
X167158078Y-83839706D02*
X167081887Y-83801611D01*
X166929506Y-83801611D01*
X166853316Y-83839706D01*
X166815220Y-83877801D01*
X166777125Y-83953992D01*
X166777125Y-84182563D01*
X166815220Y-84258754D01*
X166853316Y-84296849D01*
X166929506Y-84334944D01*
X167081887Y-84334944D01*
X167158078Y-84296849D01*
X166091411Y-84334944D02*
X166091411Y-83915897D01*
X166129506Y-83839706D01*
X166205697Y-83801611D01*
X166358078Y-83801611D01*
X166434268Y-83839706D01*
X166091411Y-84296849D02*
X166167601Y-84334944D01*
X166358078Y-84334944D01*
X166434268Y-84296849D01*
X166472363Y-84220659D01*
X166472363Y-84144468D01*
X166434268Y-84068278D01*
X166358078Y-84030182D01*
X166167601Y-84030182D01*
X166091411Y-83992087D01*
X165367601Y-84334944D02*
X165367601Y-83534944D01*
X165367601Y-84296849D02*
X165443792Y-84334944D01*
X165596173Y-84334944D01*
X165672363Y-84296849D01*
X165710459Y-84258754D01*
X165748554Y-84182563D01*
X165748554Y-83953992D01*
X165710459Y-83877801D01*
X165672363Y-83839706D01*
X165596173Y-83801611D01*
X165443792Y-83801611D01*
X165367601Y-83839706D01*
X165024744Y-84296849D02*
X164948554Y-84334944D01*
X164796173Y-84334944D01*
X164719982Y-84296849D01*
X164681887Y-84220659D01*
X164681887Y-84182563D01*
X164719982Y-84106373D01*
X164796173Y-84068278D01*
X164910459Y-84068278D01*
X164986649Y-84030182D01*
X165024744Y-83953992D01*
X165024744Y-83915897D01*
X164986649Y-83839706D01*
X164910459Y-83801611D01*
X164796173Y-83801611D01*
X164719982Y-83839706D01*
X163843792Y-83801611D02*
X163539030Y-83801611D01*
X163729506Y-84334944D02*
X163729506Y-83649230D01*
X163691411Y-83573040D01*
X163615220Y-83534944D01*
X163539030Y-83534944D01*
X163158078Y-84334944D02*
X163234268Y-84296849D01*
X163272363Y-84258754D01*
X163310459Y-84182563D01*
X163310459Y-83953992D01*
X163272363Y-83877801D01*
X163234268Y-83839706D01*
X163158078Y-83801611D01*
X163043792Y-83801611D01*
X162967601Y-83839706D01*
X162929506Y-83877801D01*
X162891411Y-83953992D01*
X162891411Y-84182563D01*
X162929506Y-84258754D01*
X162967601Y-84296849D01*
X163043792Y-84334944D01*
X163158078Y-84334944D01*
X162548554Y-84334944D02*
X162548554Y-83801611D01*
X162548554Y-83953992D02*
X162510459Y-83877801D01*
X162472363Y-83839706D01*
X162396173Y-83801611D01*
X162319982Y-83801611D01*
X161443792Y-84334944D02*
X161443792Y-83534944D01*
X161443792Y-83915897D02*
X160986649Y-83915897D01*
X160986649Y-84334944D02*
X160986649Y-83534944D01*
X160148554Y-84258754D02*
X160186649Y-84296849D01*
X160300935Y-84334944D01*
X160377125Y-84334944D01*
X160491411Y-84296849D01*
X160567601Y-84220659D01*
X160605697Y-84144468D01*
X160643792Y-83992087D01*
X160643792Y-83877801D01*
X160605697Y-83725420D01*
X160567601Y-83649230D01*
X160491411Y-83573040D01*
X160377125Y-83534944D01*
X160300935Y-83534944D01*
X160186649Y-83573040D01*
X160148554Y-83611135D01*
X159805697Y-84030182D02*
X159196173Y-84030182D01*
X158662840Y-83534944D02*
X158586649Y-83534944D01*
X158510459Y-83573040D01*
X158472363Y-83611135D01*
X158434268Y-83687325D01*
X158396173Y-83839706D01*
X158396173Y-84030182D01*
X158434268Y-84182563D01*
X158472363Y-84258754D01*
X158510459Y-84296849D01*
X158586649Y-84334944D01*
X158662840Y-84334944D01*
X158739030Y-84296849D01*
X158777125Y-84258754D01*
X158815220Y-84182563D01*
X158853316Y-84030182D01*
X158853316Y-83839706D01*
X158815220Y-83687325D01*
X158777125Y-83611135D01*
X158739030Y-83573040D01*
X158662840Y-83534944D01*
X157672363Y-83534944D02*
X158053316Y-83534944D01*
X158091411Y-83915897D01*
X158053316Y-83877801D01*
X157977125Y-83839706D01*
X157786649Y-83839706D01*
X157710459Y-83877801D01*
X157672363Y-83915897D01*
X157634268Y-83992087D01*
X157634268Y-84182563D01*
X157672363Y-84258754D01*
X157710459Y-84296849D01*
X157786649Y-84334944D01*
X157977125Y-84334944D01*
X158053316Y-84296849D01*
X158091411Y-84258754D01*
X156339030Y-83801611D02*
X156339030Y-84334944D01*
X156681887Y-83801611D02*
X156681887Y-84220659D01*
X156643792Y-84296849D01*
X156567601Y-84334944D01*
X156453316Y-84334944D01*
X156377125Y-84296849D01*
X156339030Y-84258754D01*
X155996173Y-84296849D02*
X155919982Y-84334944D01*
X155767601Y-84334944D01*
X155691411Y-84296849D01*
X155653316Y-84220659D01*
X155653316Y-84182563D01*
X155691411Y-84106373D01*
X155767601Y-84068278D01*
X155881887Y-84068278D01*
X155958078Y-84030182D01*
X155996173Y-83953992D01*
X155996173Y-83915897D01*
X155958078Y-83839706D01*
X155881887Y-83801611D01*
X155767601Y-83801611D01*
X155691411Y-83839706D01*
X155005697Y-84296849D02*
X155081887Y-84334944D01*
X155234268Y-84334944D01*
X155310459Y-84296849D01*
X155348554Y-84220659D01*
X155348554Y-83915897D01*
X155310459Y-83839706D01*
X155234268Y-83801611D01*
X155081887Y-83801611D01*
X155005697Y-83839706D01*
X154967601Y-83915897D01*
X154967601Y-83992087D01*
X155348554Y-84068278D01*
X154586649Y-84296849D02*
X154586649Y-84334944D01*
X154624744Y-84411135D01*
X154662840Y-84449230D01*
X152681887Y-83801611D02*
X152681887Y-84334944D01*
X152872363Y-83496849D02*
X153062840Y-84068278D01*
X152567601Y-84068278D01*
X151767601Y-83801611D02*
X151462840Y-83801611D01*
X151653316Y-84334944D02*
X151653316Y-83649230D01*
X151615220Y-83573040D01*
X151539030Y-83534944D01*
X151462840Y-83534944D01*
X151081887Y-84334944D02*
X151158078Y-84296849D01*
X151196173Y-84258754D01*
X151234268Y-84182563D01*
X151234268Y-83953992D01*
X151196173Y-83877801D01*
X151158078Y-83839706D01*
X151081887Y-83801611D01*
X150967601Y-83801611D01*
X150891411Y-83839706D01*
X150853316Y-83877801D01*
X150815220Y-83953992D01*
X150815220Y-84182563D01*
X150853316Y-84258754D01*
X150891411Y-84296849D01*
X150967601Y-84334944D01*
X151081887Y-84334944D01*
X150472363Y-84334944D02*
X150472363Y-83801611D01*
X150472363Y-83953992D02*
X150434268Y-83877801D01*
X150396173Y-83839706D01*
X150319982Y-83801611D01*
X150243792Y-83801611D01*
X149367601Y-83915897D02*
X149100935Y-83915897D01*
X148986649Y-84334944D02*
X149367601Y-84334944D01*
X149367601Y-83534944D01*
X148986649Y-83534944D01*
X148681887Y-84296849D02*
X148567601Y-84334944D01*
X148377125Y-84334944D01*
X148300935Y-84296849D01*
X148262840Y-84258754D01*
X148224744Y-84182563D01*
X148224744Y-84106373D01*
X148262840Y-84030182D01*
X148300935Y-83992087D01*
X148377125Y-83953992D01*
X148529506Y-83915897D01*
X148605697Y-83877801D01*
X148643792Y-83839706D01*
X148681887Y-83763516D01*
X148681887Y-83687325D01*
X148643792Y-83611135D01*
X148605697Y-83573040D01*
X148529506Y-83534944D01*
X148339030Y-83534944D01*
X148224744Y-83573040D01*
X147881887Y-84334944D02*
X147881887Y-83534944D01*
X147577125Y-83534944D01*
X147500935Y-83573040D01*
X147462840Y-83611135D01*
X147424744Y-83687325D01*
X147424744Y-83801611D01*
X147462840Y-83877801D01*
X147500935Y-83915897D01*
X147577125Y-83953992D01*
X147881887Y-83953992D01*
X147081887Y-84030182D02*
X146472363Y-84030182D01*
X145939030Y-83534944D02*
X145862840Y-83534944D01*
X145786649Y-83573040D01*
X145748554Y-83611135D01*
X145710459Y-83687325D01*
X145672363Y-83839706D01*
X145672363Y-84030182D01*
X145710459Y-84182563D01*
X145748554Y-84258754D01*
X145786649Y-84296849D01*
X145862840Y-84334944D01*
X145939030Y-84334944D01*
X146015220Y-84296849D01*
X146053316Y-84258754D01*
X146091411Y-84182563D01*
X146129506Y-84030182D01*
X146129506Y-83839706D01*
X146091411Y-83687325D01*
X146053316Y-83611135D01*
X146015220Y-83573040D01*
X145939030Y-83534944D01*
X144910459Y-84334944D02*
X145367601Y-84334944D01*
X145139030Y-84334944D02*
X145139030Y-83534944D01*
X145215220Y-83649230D01*
X145291411Y-83725420D01*
X145367601Y-83763516D01*
X144567601Y-84258754D02*
X144529506Y-84296849D01*
X144567601Y-84334944D01*
X144605697Y-84296849D01*
X144567601Y-84258754D01*
X144567601Y-84334944D01*
X143005697Y-84106373D02*
X142624744Y-84106373D01*
X143081887Y-84334944D02*
X142815220Y-83534944D01*
X142548554Y-84334944D01*
X142167601Y-84334944D02*
X142243792Y-84296849D01*
X142281887Y-84220659D01*
X142281887Y-83534944D01*
X141862840Y-84334944D02*
X141862840Y-83801611D01*
X141862840Y-83534944D02*
X141900935Y-83573040D01*
X141862840Y-83611135D01*
X141824744Y-83573040D01*
X141862840Y-83534944D01*
X141862840Y-83611135D01*
X141139030Y-83801611D02*
X141139030Y-84449230D01*
X141177125Y-84525420D01*
X141215220Y-84563516D01*
X141291411Y-84601611D01*
X141405697Y-84601611D01*
X141481887Y-84563516D01*
X141139030Y-84296849D02*
X141215220Y-84334944D01*
X141367601Y-84334944D01*
X141443792Y-84296849D01*
X141481887Y-84258754D01*
X141519982Y-84182563D01*
X141519982Y-83953992D01*
X141481887Y-83877801D01*
X141443792Y-83839706D01*
X141367601Y-83801611D01*
X141215220Y-83801611D01*
X141139030Y-83839706D01*
X140758078Y-83801611D02*
X140758078Y-84334944D01*
X140758078Y-83877801D02*
X140719982Y-83839706D01*
X140643792Y-83801611D01*
X140529506Y-83801611D01*
X140453316Y-83839706D01*
X140415220Y-83915897D01*
X140415220Y-84334944D01*
X139539030Y-83534944D02*
X139272363Y-84334944D01*
X139005697Y-83534944D01*
X138396173Y-84296849D02*
X138472363Y-84334944D01*
X138624744Y-84334944D01*
X138700935Y-84296849D01*
X138739030Y-84258754D01*
X138777125Y-84182563D01*
X138777125Y-83953992D01*
X138739030Y-83877801D01*
X138700935Y-83839706D01*
X138624744Y-83801611D01*
X138472363Y-83801611D01*
X138396173Y-83839706D01*
X137710459Y-84296849D02*
X137786649Y-84334944D01*
X137939030Y-84334944D01*
X138015220Y-84296849D01*
X138053316Y-84258754D01*
X138091411Y-84182563D01*
X138091411Y-83953992D01*
X138053316Y-83877801D01*
X138015220Y-83839706D01*
X137939030Y-83801611D01*
X137786649Y-83801611D01*
X137710459Y-83839706D01*
X136415220Y-84334944D02*
X136415220Y-83915897D01*
X136453316Y-83839706D01*
X136529506Y-83801611D01*
X136681887Y-83801611D01*
X136758078Y-83839706D01*
X136415220Y-84296849D02*
X136491411Y-84334944D01*
X136681887Y-84334944D01*
X136758078Y-84296849D01*
X136796173Y-84220659D01*
X136796173Y-84144468D01*
X136758078Y-84068278D01*
X136681887Y-84030182D01*
X136491411Y-84030182D01*
X136415220Y-83992087D01*
X136034268Y-83801611D02*
X136034268Y-84334944D01*
X136034268Y-83877801D02*
X135996173Y-83839706D01*
X135919982Y-83801611D01*
X135805697Y-83801611D01*
X135729506Y-83839706D01*
X135691411Y-83915897D01*
X135691411Y-84334944D01*
X134967601Y-84334944D02*
X134967601Y-83534944D01*
X134967601Y-84296849D02*
X135043792Y-84334944D01*
X135196173Y-84334944D01*
X135272363Y-84296849D01*
X135310459Y-84258754D01*
X135348554Y-84182563D01*
X135348554Y-83953992D01*
X135310459Y-83877801D01*
X135272363Y-83839706D01*
X135196173Y-83801611D01*
X135043792Y-83801611D01*
X134967601Y-83839706D01*
X133558078Y-83573040D02*
X133634268Y-83534944D01*
X133748554Y-83534944D01*
X133862840Y-83573040D01*
X133939030Y-83649230D01*
X133977125Y-83725420D01*
X134015220Y-83877801D01*
X134015220Y-83992087D01*
X133977125Y-84144468D01*
X133939030Y-84220659D01*
X133862840Y-84296849D01*
X133748554Y-84334944D01*
X133672363Y-84334944D01*
X133558078Y-84296849D01*
X133519982Y-84258754D01*
X133519982Y-83992087D01*
X133672363Y-83992087D01*
X133177125Y-84334944D02*
X133177125Y-83534944D01*
X132719982Y-84334944D01*
X132719982Y-83534944D01*
X132339030Y-84334944D02*
X132339030Y-83534944D01*
X132148554Y-83534944D01*
X132034268Y-83573040D01*
X131958078Y-83649230D01*
X131919982Y-83725420D01*
X131881887Y-83877801D01*
X131881887Y-83992087D01*
X131919982Y-84144468D01*
X131958078Y-84220659D01*
X132034268Y-84296849D01*
X132148554Y-84334944D01*
X132339030Y-84334944D01*
X131043792Y-83801611D02*
X130739030Y-83801611D01*
X130929506Y-84334944D02*
X130929506Y-83649230D01*
X130891411Y-83573040D01*
X130815220Y-83534944D01*
X130739030Y-83534944D01*
X130358078Y-84334944D02*
X130434268Y-84296849D01*
X130472363Y-84258754D01*
X130510459Y-84182563D01*
X130510459Y-83953992D01*
X130472363Y-83877801D01*
X130434268Y-83839706D01*
X130358078Y-83801611D01*
X130243792Y-83801611D01*
X130167601Y-83839706D01*
X130129506Y-83877801D01*
X130091411Y-83953992D01*
X130091411Y-84182563D01*
X130129506Y-84258754D01*
X130167601Y-84296849D01*
X130243792Y-84334944D01*
X130358078Y-84334944D01*
X129748554Y-84334944D02*
X129748554Y-83801611D01*
X129748554Y-83953992D02*
X129710459Y-83877801D01*
X129672363Y-83839706D01*
X129596173Y-83801611D01*
X129519982Y-83801611D01*
X150853316Y-85151611D02*
X151462840Y-85380182D01*
X150853316Y-85608754D01*
X150472363Y-85380182D02*
X149862840Y-85380182D01*
X148872363Y-85684944D02*
X148872363Y-85151611D01*
X148872363Y-85227801D02*
X148834268Y-85189706D01*
X148758078Y-85151611D01*
X148643792Y-85151611D01*
X148567601Y-85189706D01*
X148529506Y-85265897D01*
X148529506Y-85684944D01*
X148529506Y-85265897D02*
X148491411Y-85189706D01*
X148415220Y-85151611D01*
X148300935Y-85151611D01*
X148224744Y-85189706D01*
X148186649Y-85265897D01*
X148186649Y-85684944D01*
X147691411Y-85684944D02*
X147767601Y-85646849D01*
X147805697Y-85608754D01*
X147843792Y-85532563D01*
X147843792Y-85303992D01*
X147805697Y-85227801D01*
X147767601Y-85189706D01*
X147691411Y-85151611D01*
X147577125Y-85151611D01*
X147500935Y-85189706D01*
X147462840Y-85227801D01*
X147424744Y-85303992D01*
X147424744Y-85532563D01*
X147462840Y-85608754D01*
X147500935Y-85646849D01*
X147577125Y-85684944D01*
X147691411Y-85684944D01*
X146739030Y-85684944D02*
X146739030Y-84884944D01*
X146739030Y-85646849D02*
X146815220Y-85684944D01*
X146967601Y-85684944D01*
X147043792Y-85646849D01*
X147081887Y-85608754D01*
X147119982Y-85532563D01*
X147119982Y-85303992D01*
X147081887Y-85227801D01*
X147043792Y-85189706D01*
X146967601Y-85151611D01*
X146815220Y-85151611D01*
X146739030Y-85189706D01*
X146015220Y-85151611D02*
X146015220Y-85684944D01*
X146358078Y-85151611D02*
X146358078Y-85570659D01*
X146319982Y-85646849D01*
X146243792Y-85684944D01*
X146129506Y-85684944D01*
X146053316Y-85646849D01*
X146015220Y-85608754D01*
X145519982Y-85684944D02*
X145596173Y-85646849D01*
X145634268Y-85570659D01*
X145634268Y-84884944D01*
X144910459Y-85646849D02*
X144986649Y-85684944D01*
X145139030Y-85684944D01*
X145215220Y-85646849D01*
X145253316Y-85570659D01*
X145253316Y-85265897D01*
X145215220Y-85189706D01*
X145139030Y-85151611D01*
X144986649Y-85151611D01*
X144910459Y-85189706D01*
X144872363Y-85265897D01*
X144872363Y-85342087D01*
X145253316Y-85418278D01*
X144034268Y-85151611D02*
X143729506Y-85151611D01*
X143919982Y-84884944D02*
X143919982Y-85570659D01*
X143881887Y-85646849D01*
X143805697Y-85684944D01*
X143729506Y-85684944D01*
X143539030Y-85151611D02*
X143348554Y-85684944D01*
X143158078Y-85151611D02*
X143348554Y-85684944D01*
X143424744Y-85875420D01*
X143462840Y-85913516D01*
X143539030Y-85951611D01*
X142853316Y-85151611D02*
X142853316Y-85951611D01*
X142853316Y-85189706D02*
X142777125Y-85151611D01*
X142624744Y-85151611D01*
X142548554Y-85189706D01*
X142510459Y-85227801D01*
X142472363Y-85303992D01*
X142472363Y-85532563D01*
X142510459Y-85608754D01*
X142548554Y-85646849D01*
X142624744Y-85684944D01*
X142777125Y-85684944D01*
X142853316Y-85646849D01*
X141824744Y-85646849D02*
X141900935Y-85684944D01*
X142053316Y-85684944D01*
X142129506Y-85646849D01*
X142167601Y-85570659D01*
X142167601Y-85265897D01*
X142129506Y-85189706D01*
X142053316Y-85151611D01*
X141900935Y-85151611D01*
X141824744Y-85189706D01*
X141786649Y-85265897D01*
X141786649Y-85342087D01*
X142167601Y-85418278D01*
X140491411Y-85151611D02*
X140491411Y-85684944D01*
X140834268Y-85151611D02*
X140834268Y-85570659D01*
X140796173Y-85646849D01*
X140719982Y-85684944D01*
X140605697Y-85684944D01*
X140529506Y-85646849D01*
X140491411Y-85608754D01*
X140148554Y-85646849D02*
X140072363Y-85684944D01*
X139919982Y-85684944D01*
X139843792Y-85646849D01*
X139805697Y-85570659D01*
X139805697Y-85532563D01*
X139843792Y-85456373D01*
X139919982Y-85418278D01*
X140034268Y-85418278D01*
X140110459Y-85380182D01*
X140148554Y-85303992D01*
X140148554Y-85265897D01*
X140110459Y-85189706D01*
X140034268Y-85151611D01*
X139919982Y-85151611D01*
X139843792Y-85189706D01*
X139158078Y-85646849D02*
X139234268Y-85684944D01*
X139386649Y-85684944D01*
X139462840Y-85646849D01*
X139500935Y-85570659D01*
X139500935Y-85265897D01*
X139462840Y-85189706D01*
X139386649Y-85151611D01*
X139234268Y-85151611D01*
X139158078Y-85189706D01*
X139119982Y-85265897D01*
X139119982Y-85342087D01*
X139500935Y-85418278D01*
X138434268Y-85684944D02*
X138434268Y-84884944D01*
X138434268Y-85646849D02*
X138510459Y-85684944D01*
X138662840Y-85684944D01*
X138739030Y-85646849D01*
X138777125Y-85608754D01*
X138815220Y-85532563D01*
X138815220Y-85303992D01*
X138777125Y-85227801D01*
X138739030Y-85189706D01*
X138662840Y-85151611D01*
X138510459Y-85151611D01*
X138434268Y-85189706D01*
D13*
X148167915Y-113974880D02*
G75*
G03X148167915Y-113974880I-703135J0D01*
G01*
D11*
X144837190Y-110317665D02*
G75*
G03X144837190Y-110317665I-169375J0D01*
G01*
X147643449Y-110317665D02*
G75*
G03X147643449Y-110317665I-169375J0D01*
G01*
X147643449Y-113987665D02*
G75*
G03X147643449Y-113987665I-169375J0D01*
G01*
X138635761Y-125849380D02*
G75*
G03X138635761Y-125849380I-154961J0D01*
G01*
X155173680Y-125849380D02*
G75*
G03X155173680Y-125849380I-154940J0D01*
G01*
X160136860Y-121279920D02*
G75*
G03X160136860Y-121279920I-157500J0D01*
G01*
X160134300Y-109888020D02*
G75*
G03X160134300Y-109888020I-154940J0D01*
G01*
X155287980Y-104609900D02*
G75*
G03X155287980Y-104609900I-157480J0D01*
G01*
X137634980Y-104607360D02*
G75*
G03X137634980Y-104607360I-152400J0D01*
G01*
X132342103Y-109227620D02*
G75*
G03X132342103Y-109227620I-152883J0D01*
G01*
X132341620Y-120487440D02*
G75*
G03X132341620Y-120487440I-152400J0D01*
G01*
D12*
X173060952Y-127021547D02*
X173060952Y-126371547D01*
X172689523Y-127021547D01*
X172689523Y-126371547D01*
X172287142Y-127021547D02*
X172349047Y-126990595D01*
X172380000Y-126959642D01*
X172410952Y-126897738D01*
X172410952Y-126712023D01*
X172380000Y-126650119D01*
X172349047Y-126619166D01*
X172287142Y-126588214D01*
X172194285Y-126588214D01*
X172132380Y-126619166D01*
X172101428Y-126650119D01*
X172070476Y-126712023D01*
X172070476Y-126897738D01*
X172101428Y-126959642D01*
X172132380Y-126990595D01*
X172194285Y-127021547D01*
X172287142Y-127021547D01*
X171358571Y-126371547D02*
X170925238Y-127021547D01*
X170925238Y-126371547D02*
X171358571Y-127021547D01*
X170677619Y-126773928D02*
X170182380Y-126773928D01*
X169594285Y-126990595D02*
X169656190Y-127021547D01*
X169780000Y-127021547D01*
X169841904Y-126990595D01*
X169872857Y-126959642D01*
X169903809Y-126897738D01*
X169903809Y-126712023D01*
X169872857Y-126650119D01*
X169841904Y-126619166D01*
X169780000Y-126588214D01*
X169656190Y-126588214D01*
X169594285Y-126619166D01*
X169222857Y-127021547D02*
X169284761Y-126990595D01*
X169315714Y-126959642D01*
X169346666Y-126897738D01*
X169346666Y-126712023D01*
X169315714Y-126650119D01*
X169284761Y-126619166D01*
X169222857Y-126588214D01*
X169130000Y-126588214D01*
X169068095Y-126619166D01*
X169037142Y-126650119D01*
X169006190Y-126712023D01*
X169006190Y-126897738D01*
X169037142Y-126959642D01*
X169068095Y-126990595D01*
X169130000Y-127021547D01*
X169222857Y-127021547D01*
X168727619Y-126588214D02*
X168727619Y-127021547D01*
X168727619Y-126650119D02*
X168696666Y-126619166D01*
X168634761Y-126588214D01*
X168541904Y-126588214D01*
X168480000Y-126619166D01*
X168449047Y-126681071D01*
X168449047Y-127021547D01*
X168232380Y-126588214D02*
X167984761Y-126588214D01*
X168139523Y-126371547D02*
X168139523Y-126928690D01*
X168108571Y-126990595D01*
X168046666Y-127021547D01*
X167984761Y-127021547D01*
X167489523Y-127021547D02*
X167489523Y-126681071D01*
X167520476Y-126619166D01*
X167582380Y-126588214D01*
X167706190Y-126588214D01*
X167768095Y-126619166D01*
X167489523Y-126990595D02*
X167551428Y-127021547D01*
X167706190Y-127021547D01*
X167768095Y-126990595D01*
X167799047Y-126928690D01*
X167799047Y-126866785D01*
X167768095Y-126804880D01*
X167706190Y-126773928D01*
X167551428Y-126773928D01*
X167489523Y-126742976D01*
X167180000Y-127021547D02*
X167180000Y-126588214D01*
X167180000Y-126650119D02*
X167149047Y-126619166D01*
X167087142Y-126588214D01*
X166994285Y-126588214D01*
X166932380Y-126619166D01*
X166901428Y-126681071D01*
X166901428Y-127021547D01*
X166901428Y-126681071D02*
X166870476Y-126619166D01*
X166808571Y-126588214D01*
X166715714Y-126588214D01*
X166653809Y-126619166D01*
X166622857Y-126681071D01*
X166622857Y-127021547D01*
X166313333Y-127021547D02*
X166313333Y-126588214D01*
X166313333Y-126371547D02*
X166344285Y-126402500D01*
X166313333Y-126433452D01*
X166282380Y-126402500D01*
X166313333Y-126371547D01*
X166313333Y-126433452D01*
X166003809Y-126588214D02*
X166003809Y-127021547D01*
X166003809Y-126650119D02*
X165972857Y-126619166D01*
X165910952Y-126588214D01*
X165818095Y-126588214D01*
X165756190Y-126619166D01*
X165725238Y-126681071D01*
X165725238Y-127021547D01*
X165137142Y-127021547D02*
X165137142Y-126681071D01*
X165168095Y-126619166D01*
X165230000Y-126588214D01*
X165353809Y-126588214D01*
X165415714Y-126619166D01*
X165137142Y-126990595D02*
X165199047Y-127021547D01*
X165353809Y-127021547D01*
X165415714Y-126990595D01*
X165446666Y-126928690D01*
X165446666Y-126866785D01*
X165415714Y-126804880D01*
X165353809Y-126773928D01*
X165199047Y-126773928D01*
X165137142Y-126742976D01*
X164920476Y-126588214D02*
X164672857Y-126588214D01*
X164827619Y-126371547D02*
X164827619Y-126928690D01*
X164796666Y-126990595D01*
X164734761Y-127021547D01*
X164672857Y-127021547D01*
X164208571Y-126990595D02*
X164270476Y-127021547D01*
X164394285Y-127021547D01*
X164456190Y-126990595D01*
X164487142Y-126928690D01*
X164487142Y-126681071D01*
X164456190Y-126619166D01*
X164394285Y-126588214D01*
X164270476Y-126588214D01*
X164208571Y-126619166D01*
X164177619Y-126681071D01*
X164177619Y-126742976D01*
X164487142Y-126804880D01*
X163899047Y-126959642D02*
X163868095Y-126990595D01*
X163899047Y-127021547D01*
X163930000Y-126990595D01*
X163899047Y-126959642D01*
X163899047Y-127021547D01*
X163899047Y-126619166D02*
X163868095Y-126650119D01*
X163899047Y-126681071D01*
X163930000Y-126650119D01*
X163899047Y-126619166D01*
X163899047Y-126681071D01*
X176991904Y-128146547D02*
X176991904Y-127496547D01*
X176837142Y-127496547D01*
X176744285Y-127527500D01*
X176682380Y-127589404D01*
X176651428Y-127651309D01*
X176620476Y-127775119D01*
X176620476Y-127867976D01*
X176651428Y-127991785D01*
X176682380Y-128053690D01*
X176744285Y-128115595D01*
X176837142Y-128146547D01*
X176991904Y-128146547D01*
X176249047Y-128146547D02*
X176310952Y-128115595D01*
X176341904Y-128084642D01*
X176372857Y-128022738D01*
X176372857Y-127837023D01*
X176341904Y-127775119D01*
X176310952Y-127744166D01*
X176249047Y-127713214D01*
X176156190Y-127713214D01*
X176094285Y-127744166D01*
X176063333Y-127775119D01*
X176032380Y-127837023D01*
X176032380Y-128022738D01*
X176063333Y-128084642D01*
X176094285Y-128115595D01*
X176156190Y-128146547D01*
X176249047Y-128146547D01*
X175753809Y-127713214D02*
X175753809Y-128146547D01*
X175753809Y-127775119D02*
X175722857Y-127744166D01*
X175660952Y-127713214D01*
X175568095Y-127713214D01*
X175506190Y-127744166D01*
X175475238Y-127806071D01*
X175475238Y-128146547D01*
X175134761Y-127496547D02*
X175196666Y-127620357D01*
X174949047Y-127713214D02*
X174701428Y-127713214D01*
X174856190Y-127496547D02*
X174856190Y-128053690D01*
X174825238Y-128115595D01*
X174763333Y-128146547D01*
X174701428Y-128146547D01*
X173989523Y-128146547D02*
X173989523Y-127713214D01*
X173989523Y-127775119D02*
X173958571Y-127744166D01*
X173896666Y-127713214D01*
X173803809Y-127713214D01*
X173741904Y-127744166D01*
X173710952Y-127806071D01*
X173710952Y-128146547D01*
X173710952Y-127806071D02*
X173680000Y-127744166D01*
X173618095Y-127713214D01*
X173525238Y-127713214D01*
X173463333Y-127744166D01*
X173432380Y-127806071D01*
X173432380Y-128146547D01*
X173122857Y-128146547D02*
X173122857Y-127713214D01*
X173122857Y-127496547D02*
X173153809Y-127527500D01*
X173122857Y-127558452D01*
X173091904Y-127527500D01*
X173122857Y-127496547D01*
X173122857Y-127558452D01*
X172875238Y-128146547D02*
X172534761Y-127713214D01*
X172875238Y-127713214D02*
X172534761Y-128146547D01*
X171822857Y-128115595D02*
X171760952Y-128146547D01*
X171637142Y-128146547D01*
X171575238Y-128115595D01*
X171544285Y-128053690D01*
X171544285Y-128022738D01*
X171575238Y-127960833D01*
X171637142Y-127929880D01*
X171730000Y-127929880D01*
X171791904Y-127898928D01*
X171822857Y-127837023D01*
X171822857Y-127806071D01*
X171791904Y-127744166D01*
X171730000Y-127713214D01*
X171637142Y-127713214D01*
X171575238Y-127744166D01*
X171172857Y-128146547D02*
X171234761Y-128115595D01*
X171265714Y-128084642D01*
X171296666Y-128022738D01*
X171296666Y-127837023D01*
X171265714Y-127775119D01*
X171234761Y-127744166D01*
X171172857Y-127713214D01*
X171080000Y-127713214D01*
X171018095Y-127744166D01*
X170987142Y-127775119D01*
X170956190Y-127837023D01*
X170956190Y-128022738D01*
X170987142Y-128084642D01*
X171018095Y-128115595D01*
X171080000Y-128146547D01*
X171172857Y-128146547D01*
X170584761Y-128146547D02*
X170646666Y-128115595D01*
X170677619Y-128053690D01*
X170677619Y-127496547D01*
X170058571Y-128146547D02*
X170058571Y-127496547D01*
X170058571Y-128115595D02*
X170120476Y-128146547D01*
X170244285Y-128146547D01*
X170306190Y-128115595D01*
X170337142Y-128084642D01*
X170368095Y-128022738D01*
X170368095Y-127837023D01*
X170337142Y-127775119D01*
X170306190Y-127744166D01*
X170244285Y-127713214D01*
X170120476Y-127713214D01*
X170058571Y-127744166D01*
X169501428Y-128115595D02*
X169563333Y-128146547D01*
X169687142Y-128146547D01*
X169749047Y-128115595D01*
X169780000Y-128053690D01*
X169780000Y-127806071D01*
X169749047Y-127744166D01*
X169687142Y-127713214D01*
X169563333Y-127713214D01*
X169501428Y-127744166D01*
X169470476Y-127806071D01*
X169470476Y-127867976D01*
X169780000Y-127929880D01*
X169191904Y-128146547D02*
X169191904Y-127713214D01*
X169191904Y-127837023D02*
X169160952Y-127775119D01*
X169130000Y-127744166D01*
X169068095Y-127713214D01*
X169006190Y-127713214D01*
X168387142Y-127713214D02*
X168139523Y-127713214D01*
X168294285Y-127496547D02*
X168294285Y-128053690D01*
X168263333Y-128115595D01*
X168201428Y-128146547D01*
X168139523Y-128146547D01*
X167984761Y-127713214D02*
X167830000Y-128146547D01*
X167675238Y-127713214D02*
X167830000Y-128146547D01*
X167891904Y-128301309D01*
X167922857Y-128332261D01*
X167984761Y-128363214D01*
X167427619Y-127713214D02*
X167427619Y-128363214D01*
X167427619Y-127744166D02*
X167365714Y-127713214D01*
X167241904Y-127713214D01*
X167180000Y-127744166D01*
X167149047Y-127775119D01*
X167118095Y-127837023D01*
X167118095Y-128022738D01*
X167149047Y-128084642D01*
X167180000Y-128115595D01*
X167241904Y-128146547D01*
X167365714Y-128146547D01*
X167427619Y-128115595D01*
X166591904Y-128115595D02*
X166653809Y-128146547D01*
X166777619Y-128146547D01*
X166839523Y-128115595D01*
X166870476Y-128053690D01*
X166870476Y-127806071D01*
X166839523Y-127744166D01*
X166777619Y-127713214D01*
X166653809Y-127713214D01*
X166591904Y-127744166D01*
X166560952Y-127806071D01*
X166560952Y-127867976D01*
X166870476Y-127929880D01*
X166313333Y-128115595D02*
X166251428Y-128146547D01*
X166127619Y-128146547D01*
X166065714Y-128115595D01*
X166034761Y-128053690D01*
X166034761Y-128022738D01*
X166065714Y-127960833D01*
X166127619Y-127929880D01*
X166220476Y-127929880D01*
X166282380Y-127898928D01*
X166313333Y-127837023D01*
X166313333Y-127806071D01*
X166282380Y-127744166D01*
X166220476Y-127713214D01*
X166127619Y-127713214D01*
X166065714Y-127744166D01*
X165168095Y-128146547D02*
X165230000Y-128115595D01*
X165260952Y-128084642D01*
X165291904Y-128022738D01*
X165291904Y-127837023D01*
X165260952Y-127775119D01*
X165230000Y-127744166D01*
X165168095Y-127713214D01*
X165075238Y-127713214D01*
X165013333Y-127744166D01*
X164982380Y-127775119D01*
X164951428Y-127837023D01*
X164951428Y-128022738D01*
X164982380Y-128084642D01*
X165013333Y-128115595D01*
X165075238Y-128146547D01*
X165168095Y-128146547D01*
X164672857Y-128146547D02*
X164672857Y-127713214D01*
X164672857Y-127837023D02*
X164641904Y-127775119D01*
X164610952Y-127744166D01*
X164549047Y-127713214D01*
X164487142Y-127713214D01*
X163868095Y-127713214D02*
X163620476Y-127713214D01*
X163775238Y-127496547D02*
X163775238Y-128053690D01*
X163744285Y-128115595D01*
X163682380Y-128146547D01*
X163620476Y-128146547D01*
X163403809Y-128146547D02*
X163403809Y-127496547D01*
X163125238Y-128146547D02*
X163125238Y-127806071D01*
X163156190Y-127744166D01*
X163218095Y-127713214D01*
X163310952Y-127713214D01*
X163372857Y-127744166D01*
X163403809Y-127775119D01*
X162568095Y-128115595D02*
X162630000Y-128146547D01*
X162753809Y-128146547D01*
X162815714Y-128115595D01*
X162846666Y-128053690D01*
X162846666Y-127806071D01*
X162815714Y-127744166D01*
X162753809Y-127713214D01*
X162630000Y-127713214D01*
X162568095Y-127744166D01*
X162537142Y-127806071D01*
X162537142Y-127867976D01*
X162846666Y-127929880D01*
X162320476Y-127713214D02*
X162165714Y-128146547D01*
X162010952Y-127713214D02*
X162165714Y-128146547D01*
X162227619Y-128301309D01*
X162258571Y-128332261D01*
X162320476Y-128363214D01*
X161360952Y-127713214D02*
X161113333Y-127713214D01*
X161268095Y-128146547D02*
X161268095Y-127589404D01*
X161237142Y-127527500D01*
X161175238Y-127496547D01*
X161113333Y-127496547D01*
X160618095Y-128146547D02*
X160618095Y-127806071D01*
X160649047Y-127744166D01*
X160710952Y-127713214D01*
X160834761Y-127713214D01*
X160896666Y-127744166D01*
X160618095Y-128115595D02*
X160680000Y-128146547D01*
X160834761Y-128146547D01*
X160896666Y-128115595D01*
X160927619Y-128053690D01*
X160927619Y-127991785D01*
X160896666Y-127929880D01*
X160834761Y-127898928D01*
X160680000Y-127898928D01*
X160618095Y-127867976D01*
X160308571Y-128146547D02*
X160308571Y-127713214D01*
X160308571Y-127496547D02*
X160339523Y-127527500D01*
X160308571Y-127558452D01*
X160277619Y-127527500D01*
X160308571Y-127496547D01*
X160308571Y-127558452D01*
X159906190Y-128146547D02*
X159968095Y-128115595D01*
X159999047Y-128053690D01*
X159999047Y-127496547D01*
D11*
X152773380Y-119407940D02*
G75*
G03X152773380Y-119407940I-154940J0D01*
G01*
X152388128Y-109318376D02*
G75*
G03X152388128Y-109318376I-153596J0D01*
G01*
X158178194Y-111417187D02*
G75*
G03X158178194Y-111417187I-210265J0D01*
G01*
X152469245Y-113510038D02*
G75*
G03X152469245Y-113510038I-227662J0D01*
G01*
D14*
X146989469Y-120989467D02*
G75*
G03X146989469Y-120989467I-244592J0D01*
G01*
D11*
X151560477Y-125906102D02*
G75*
G03X151560477Y-125906102I-140000J0D01*
G01*
X150748909Y-125574737D02*
G75*
G03X150748909Y-125574737I-140000J0D01*
G01*
X149739847Y-125900075D02*
G75*
G03X149739847Y-125900075I-140000J0D01*
G01*
X137601828Y-121006941D02*
G75*
G03X137601828Y-121006941I-140000J0D01*
G01*
D15*
G36*
X123613127Y-128926901D02*
G01*
X123748365Y-128953801D01*
X124003149Y-129059336D01*
X124232448Y-129212549D01*
X124427451Y-129407552D01*
X124580664Y-129636851D01*
X124658798Y-129825482D01*
X124686199Y-129891636D01*
X124740000Y-130162111D01*
X124740000Y-130437889D01*
X124734283Y-130466629D01*
X124686199Y-130708365D01*
X124580664Y-130963149D01*
X124427451Y-131192448D01*
X124232448Y-131387451D01*
X124003149Y-131540664D01*
X123748365Y-131646199D01*
X123613127Y-131673099D01*
X123477889Y-131700000D01*
X123202111Y-131700000D01*
X123066873Y-131673099D01*
X122931635Y-131646199D01*
X122676851Y-131540664D01*
X122447552Y-131387451D01*
X122252549Y-131192448D01*
X122099336Y-130963149D01*
X121993801Y-130708365D01*
X121945717Y-130466629D01*
X121940000Y-130437889D01*
X121940000Y-130162111D01*
X121993801Y-129891636D01*
X122021203Y-129825482D01*
X122099336Y-129636851D01*
X122252549Y-129407552D01*
X122447552Y-129212549D01*
X122676851Y-129059336D01*
X122931635Y-128953801D01*
X123066873Y-128926901D01*
X123202111Y-128900000D01*
X123477889Y-128900000D01*
X123613127Y-128926901D01*
X123613127Y-128926901D01*
G37*
G36*
X157796627Y-129462299D02*
G01*
X157876742Y-129486602D01*
X157956855Y-129510903D01*
X157956857Y-129510904D01*
X158104518Y-129589831D01*
X158233949Y-129696051D01*
X158340169Y-129825482D01*
X158419096Y-129973143D01*
X158467701Y-130133373D01*
X158484112Y-130300000D01*
X158467701Y-130466627D01*
X158419096Y-130626857D01*
X158340169Y-130774518D01*
X158233949Y-130903949D01*
X158104518Y-131010169D01*
X157956857Y-131089096D01*
X157956855Y-131089097D01*
X157876742Y-131113399D01*
X157796627Y-131137701D01*
X157671752Y-131150000D01*
X157588248Y-131150000D01*
X157463373Y-131137701D01*
X157383258Y-131113398D01*
X157303145Y-131089097D01*
X157303143Y-131089096D01*
X157155482Y-131010169D01*
X157026051Y-130903949D01*
X156919831Y-130774518D01*
X156840904Y-130626857D01*
X156792299Y-130466627D01*
X156775888Y-130300000D01*
X156792299Y-130133373D01*
X156840904Y-129973143D01*
X156919831Y-129825482D01*
X157026051Y-129696051D01*
X157155482Y-129589831D01*
X157303143Y-129510904D01*
X157303145Y-129510903D01*
X157383258Y-129486602D01*
X157463373Y-129462299D01*
X157588248Y-129450000D01*
X157671752Y-129450000D01*
X157796627Y-129462299D01*
X157796627Y-129462299D01*
G37*
G36*
X170496627Y-129462299D02*
G01*
X170576742Y-129486602D01*
X170656855Y-129510903D01*
X170656857Y-129510904D01*
X170804518Y-129589831D01*
X170933949Y-129696051D01*
X171040169Y-129825482D01*
X171119096Y-129973143D01*
X171167701Y-130133373D01*
X171184112Y-130300000D01*
X171167701Y-130466627D01*
X171119096Y-130626857D01*
X171040169Y-130774518D01*
X170933949Y-130903949D01*
X170804518Y-131010169D01*
X170656857Y-131089096D01*
X170656855Y-131089097D01*
X170576742Y-131113399D01*
X170496627Y-131137701D01*
X170371752Y-131150000D01*
X170288248Y-131150000D01*
X170163373Y-131137701D01*
X170083258Y-131113398D01*
X170003145Y-131089097D01*
X170003143Y-131089096D01*
X169855482Y-131010169D01*
X169726051Y-130903949D01*
X169619831Y-130774518D01*
X169540904Y-130626857D01*
X169492299Y-130466627D01*
X169475888Y-130300000D01*
X169492299Y-130133373D01*
X169540904Y-129973143D01*
X169619831Y-129825482D01*
X169726051Y-129696051D01*
X169855482Y-129589831D01*
X170003143Y-129510904D01*
X170003145Y-129510903D01*
X170083258Y-129486602D01*
X170163373Y-129462299D01*
X170288248Y-129450000D01*
X170371752Y-129450000D01*
X170496627Y-129462299D01*
X170496627Y-129462299D01*
G37*
G36*
X173036627Y-129462299D02*
G01*
X173116742Y-129486602D01*
X173196855Y-129510903D01*
X173196857Y-129510904D01*
X173344518Y-129589831D01*
X173473949Y-129696051D01*
X173580169Y-129825482D01*
X173659096Y-129973143D01*
X173707701Y-130133373D01*
X173724112Y-130300000D01*
X173707701Y-130466627D01*
X173659096Y-130626857D01*
X173580169Y-130774518D01*
X173473949Y-130903949D01*
X173344518Y-131010169D01*
X173196857Y-131089096D01*
X173196855Y-131089097D01*
X173116742Y-131113399D01*
X173036627Y-131137701D01*
X172911752Y-131150000D01*
X172828248Y-131150000D01*
X172703373Y-131137701D01*
X172623258Y-131113398D01*
X172543145Y-131089097D01*
X172543143Y-131089096D01*
X172395482Y-131010169D01*
X172266051Y-130903949D01*
X172159831Y-130774518D01*
X172080904Y-130626857D01*
X172032299Y-130466627D01*
X172015888Y-130300000D01*
X172032299Y-130133373D01*
X172080904Y-129973143D01*
X172159831Y-129825482D01*
X172266051Y-129696051D01*
X172395482Y-129589831D01*
X172543143Y-129510904D01*
X172543145Y-129510903D01*
X172623258Y-129486602D01*
X172703373Y-129462299D01*
X172828248Y-129450000D01*
X172911752Y-129450000D01*
X173036627Y-129462299D01*
X173036627Y-129462299D01*
G37*
G36*
X167956627Y-129462299D02*
G01*
X168036742Y-129486602D01*
X168116855Y-129510903D01*
X168116857Y-129510904D01*
X168264518Y-129589831D01*
X168393949Y-129696051D01*
X168500169Y-129825482D01*
X168579096Y-129973143D01*
X168627701Y-130133373D01*
X168644112Y-130300000D01*
X168627701Y-130466627D01*
X168579096Y-130626857D01*
X168500169Y-130774518D01*
X168393949Y-130903949D01*
X168264518Y-131010169D01*
X168116857Y-131089096D01*
X168116855Y-131089097D01*
X168036742Y-131113399D01*
X167956627Y-131137701D01*
X167831752Y-131150000D01*
X167748248Y-131150000D01*
X167623373Y-131137701D01*
X167543258Y-131113398D01*
X167463145Y-131089097D01*
X167463143Y-131089096D01*
X167315482Y-131010169D01*
X167186051Y-130903949D01*
X167079831Y-130774518D01*
X167000904Y-130626857D01*
X166952299Y-130466627D01*
X166935888Y-130300000D01*
X166952299Y-130133373D01*
X167000904Y-129973143D01*
X167079831Y-129825482D01*
X167186051Y-129696051D01*
X167315482Y-129589831D01*
X167463143Y-129510904D01*
X167463145Y-129510903D01*
X167543258Y-129486602D01*
X167623373Y-129462299D01*
X167748248Y-129450000D01*
X167831752Y-129450000D01*
X167956627Y-129462299D01*
X167956627Y-129462299D01*
G37*
G36*
X165416627Y-129462299D02*
G01*
X165496742Y-129486602D01*
X165576855Y-129510903D01*
X165576857Y-129510904D01*
X165724518Y-129589831D01*
X165853949Y-129696051D01*
X165960169Y-129825482D01*
X166039096Y-129973143D01*
X166087701Y-130133373D01*
X166104112Y-130300000D01*
X166087701Y-130466627D01*
X166039096Y-130626857D01*
X165960169Y-130774518D01*
X165853949Y-130903949D01*
X165724518Y-131010169D01*
X165576857Y-131089096D01*
X165576855Y-131089097D01*
X165496742Y-131113399D01*
X165416627Y-131137701D01*
X165291752Y-131150000D01*
X165208248Y-131150000D01*
X165083373Y-131137701D01*
X165003258Y-131113398D01*
X164923145Y-131089097D01*
X164923143Y-131089096D01*
X164775482Y-131010169D01*
X164646051Y-130903949D01*
X164539831Y-130774518D01*
X164460904Y-130626857D01*
X164412299Y-130466627D01*
X164395888Y-130300000D01*
X164412299Y-130133373D01*
X164460904Y-129973143D01*
X164539831Y-129825482D01*
X164646051Y-129696051D01*
X164775482Y-129589831D01*
X164923143Y-129510904D01*
X164923145Y-129510903D01*
X165003258Y-129486602D01*
X165083373Y-129462299D01*
X165208248Y-129450000D01*
X165291752Y-129450000D01*
X165416627Y-129462299D01*
X165416627Y-129462299D01*
G37*
G36*
X162876627Y-129462299D02*
G01*
X162956742Y-129486602D01*
X163036855Y-129510903D01*
X163036857Y-129510904D01*
X163184518Y-129589831D01*
X163313949Y-129696051D01*
X163420169Y-129825482D01*
X163499096Y-129973143D01*
X163547701Y-130133373D01*
X163564112Y-130300000D01*
X163547701Y-130466627D01*
X163499096Y-130626857D01*
X163420169Y-130774518D01*
X163313949Y-130903949D01*
X163184518Y-131010169D01*
X163036857Y-131089096D01*
X163036855Y-131089097D01*
X162956742Y-131113399D01*
X162876627Y-131137701D01*
X162751752Y-131150000D01*
X162668248Y-131150000D01*
X162543373Y-131137701D01*
X162463258Y-131113398D01*
X162383145Y-131089097D01*
X162383143Y-131089096D01*
X162235482Y-131010169D01*
X162106051Y-130903949D01*
X161999831Y-130774518D01*
X161920904Y-130626857D01*
X161872299Y-130466627D01*
X161855888Y-130300000D01*
X161872299Y-130133373D01*
X161920904Y-129973143D01*
X161999831Y-129825482D01*
X162106051Y-129696051D01*
X162235482Y-129589831D01*
X162383143Y-129510904D01*
X162383145Y-129510903D01*
X162463258Y-129486602D01*
X162543373Y-129462299D01*
X162668248Y-129450000D01*
X162751752Y-129450000D01*
X162876627Y-129462299D01*
X162876627Y-129462299D01*
G37*
G36*
X161020000Y-131150000D02*
G01*
X159320000Y-131150000D01*
X159320000Y-129450000D01*
X161020000Y-129450000D01*
X161020000Y-131150000D01*
X161020000Y-131150000D01*
G37*
G36*
X138160000Y-131150000D02*
G01*
X136460000Y-131150000D01*
X136460000Y-129450000D01*
X138160000Y-129450000D01*
X138160000Y-131150000D01*
X138160000Y-131150000D01*
G37*
G36*
X142556627Y-129462299D02*
G01*
X142636742Y-129486602D01*
X142716855Y-129510903D01*
X142716857Y-129510904D01*
X142864518Y-129589831D01*
X142993949Y-129696051D01*
X143100169Y-129825482D01*
X143179096Y-129973143D01*
X143227701Y-130133373D01*
X143244112Y-130300000D01*
X143227701Y-130466627D01*
X143179096Y-130626857D01*
X143100169Y-130774518D01*
X142993949Y-130903949D01*
X142864518Y-131010169D01*
X142716857Y-131089096D01*
X142716855Y-131089097D01*
X142636742Y-131113399D01*
X142556627Y-131137701D01*
X142431752Y-131150000D01*
X142348248Y-131150000D01*
X142223373Y-131137701D01*
X142143258Y-131113398D01*
X142063145Y-131089097D01*
X142063143Y-131089096D01*
X141915482Y-131010169D01*
X141786051Y-130903949D01*
X141679831Y-130774518D01*
X141600904Y-130626857D01*
X141552299Y-130466627D01*
X141535888Y-130300000D01*
X141552299Y-130133373D01*
X141600904Y-129973143D01*
X141679831Y-129825482D01*
X141786051Y-129696051D01*
X141915482Y-129589831D01*
X142063143Y-129510904D01*
X142063145Y-129510903D01*
X142143258Y-129486602D01*
X142223373Y-129462299D01*
X142348248Y-129450000D01*
X142431752Y-129450000D01*
X142556627Y-129462299D01*
X142556627Y-129462299D01*
G37*
G36*
X140016627Y-129462299D02*
G01*
X140096742Y-129486602D01*
X140176855Y-129510903D01*
X140176857Y-129510904D01*
X140324518Y-129589831D01*
X140453949Y-129696051D01*
X140560169Y-129825482D01*
X140639096Y-129973143D01*
X140687701Y-130133373D01*
X140704112Y-130300000D01*
X140687701Y-130466627D01*
X140639096Y-130626857D01*
X140560169Y-130774518D01*
X140453949Y-130903949D01*
X140324518Y-131010169D01*
X140176857Y-131089096D01*
X140176855Y-131089097D01*
X140096742Y-131113399D01*
X140016627Y-131137701D01*
X139891752Y-131150000D01*
X139808248Y-131150000D01*
X139683373Y-131137701D01*
X139603258Y-131113398D01*
X139523145Y-131089097D01*
X139523143Y-131089096D01*
X139375482Y-131010169D01*
X139246051Y-130903949D01*
X139139831Y-130774518D01*
X139060904Y-130626857D01*
X139012299Y-130466627D01*
X138995888Y-130300000D01*
X139012299Y-130133373D01*
X139060904Y-129973143D01*
X139139831Y-129825482D01*
X139246051Y-129696051D01*
X139375482Y-129589831D01*
X139523143Y-129510904D01*
X139523145Y-129510903D01*
X139603258Y-129486602D01*
X139683373Y-129462299D01*
X139808248Y-129450000D01*
X139891752Y-129450000D01*
X140016627Y-129462299D01*
X140016627Y-129462299D01*
G37*
G36*
X155256627Y-129462299D02*
G01*
X155336742Y-129486602D01*
X155416855Y-129510903D01*
X155416857Y-129510904D01*
X155564518Y-129589831D01*
X155693949Y-129696051D01*
X155800169Y-129825482D01*
X155879096Y-129973143D01*
X155927701Y-130133373D01*
X155944112Y-130300000D01*
X155927701Y-130466627D01*
X155879096Y-130626857D01*
X155800169Y-130774518D01*
X155693949Y-130903949D01*
X155564518Y-131010169D01*
X155416857Y-131089096D01*
X155416855Y-131089097D01*
X155336742Y-131113399D01*
X155256627Y-131137701D01*
X155131752Y-131150000D01*
X155048248Y-131150000D01*
X154923373Y-131137701D01*
X154843258Y-131113398D01*
X154763145Y-131089097D01*
X154763143Y-131089096D01*
X154615482Y-131010169D01*
X154486051Y-130903949D01*
X154379831Y-130774518D01*
X154300904Y-130626857D01*
X154252299Y-130466627D01*
X154235888Y-130300000D01*
X154252299Y-130133373D01*
X154300904Y-129973143D01*
X154379831Y-129825482D01*
X154486051Y-129696051D01*
X154615482Y-129589831D01*
X154763143Y-129510904D01*
X154763145Y-129510903D01*
X154843258Y-129486602D01*
X154923373Y-129462299D01*
X155048248Y-129450000D01*
X155131752Y-129450000D01*
X155256627Y-129462299D01*
X155256627Y-129462299D01*
G37*
G36*
X152716627Y-129462299D02*
G01*
X152796742Y-129486602D01*
X152876855Y-129510903D01*
X152876857Y-129510904D01*
X153024518Y-129589831D01*
X153153949Y-129696051D01*
X153260169Y-129825482D01*
X153339096Y-129973143D01*
X153387701Y-130133373D01*
X153404112Y-130300000D01*
X153387701Y-130466627D01*
X153339096Y-130626857D01*
X153260169Y-130774518D01*
X153153949Y-130903949D01*
X153024518Y-131010169D01*
X152876857Y-131089096D01*
X152876855Y-131089097D01*
X152796742Y-131113399D01*
X152716627Y-131137701D01*
X152591752Y-131150000D01*
X152508248Y-131150000D01*
X152383373Y-131137701D01*
X152303258Y-131113398D01*
X152223145Y-131089097D01*
X152223143Y-131089096D01*
X152075482Y-131010169D01*
X151946051Y-130903949D01*
X151839831Y-130774518D01*
X151760904Y-130626857D01*
X151712299Y-130466627D01*
X151695888Y-130300000D01*
X151712299Y-130133373D01*
X151760904Y-129973143D01*
X151839831Y-129825482D01*
X151946051Y-129696051D01*
X152075482Y-129589831D01*
X152223143Y-129510904D01*
X152223145Y-129510903D01*
X152303258Y-129486602D01*
X152383373Y-129462299D01*
X152508248Y-129450000D01*
X152591752Y-129450000D01*
X152716627Y-129462299D01*
X152716627Y-129462299D01*
G37*
G36*
X147636627Y-129462299D02*
G01*
X147716742Y-129486602D01*
X147796855Y-129510903D01*
X147796857Y-129510904D01*
X147944518Y-129589831D01*
X148073949Y-129696051D01*
X148180169Y-129825482D01*
X148259096Y-129973143D01*
X148307701Y-130133373D01*
X148324112Y-130300000D01*
X148307701Y-130466627D01*
X148259096Y-130626857D01*
X148180169Y-130774518D01*
X148073949Y-130903949D01*
X147944518Y-131010169D01*
X147796857Y-131089096D01*
X147796855Y-131089097D01*
X147716742Y-131113399D01*
X147636627Y-131137701D01*
X147511752Y-131150000D01*
X147428248Y-131150000D01*
X147303373Y-131137701D01*
X147223258Y-131113398D01*
X147143145Y-131089097D01*
X147143143Y-131089096D01*
X146995482Y-131010169D01*
X146866051Y-130903949D01*
X146759831Y-130774518D01*
X146680904Y-130626857D01*
X146632299Y-130466627D01*
X146615888Y-130300000D01*
X146632299Y-130133373D01*
X146680904Y-129973143D01*
X146759831Y-129825482D01*
X146866051Y-129696051D01*
X146995482Y-129589831D01*
X147143143Y-129510904D01*
X147143145Y-129510903D01*
X147223258Y-129486602D01*
X147303373Y-129462299D01*
X147428248Y-129450000D01*
X147511752Y-129450000D01*
X147636627Y-129462299D01*
X147636627Y-129462299D01*
G37*
G36*
X145096627Y-129462299D02*
G01*
X145176742Y-129486602D01*
X145256855Y-129510903D01*
X145256857Y-129510904D01*
X145404518Y-129589831D01*
X145533949Y-129696051D01*
X145640169Y-129825482D01*
X145719096Y-129973143D01*
X145767701Y-130133373D01*
X145784112Y-130300000D01*
X145767701Y-130466627D01*
X145719096Y-130626857D01*
X145640169Y-130774518D01*
X145533949Y-130903949D01*
X145404518Y-131010169D01*
X145256857Y-131089096D01*
X145256855Y-131089097D01*
X145176742Y-131113399D01*
X145096627Y-131137701D01*
X144971752Y-131150000D01*
X144888248Y-131150000D01*
X144763373Y-131137701D01*
X144683258Y-131113398D01*
X144603145Y-131089097D01*
X144603143Y-131089096D01*
X144455482Y-131010169D01*
X144326051Y-130903949D01*
X144219831Y-130774518D01*
X144140904Y-130626857D01*
X144092299Y-130466627D01*
X144075888Y-130300000D01*
X144092299Y-130133373D01*
X144140904Y-129973143D01*
X144219831Y-129825482D01*
X144326051Y-129696051D01*
X144455482Y-129589831D01*
X144603143Y-129510904D01*
X144603145Y-129510903D01*
X144683258Y-129486602D01*
X144763373Y-129462299D01*
X144888248Y-129450000D01*
X144971752Y-129450000D01*
X145096627Y-129462299D01*
X145096627Y-129462299D01*
G37*
G36*
X150176627Y-129462299D02*
G01*
X150256742Y-129486602D01*
X150336855Y-129510903D01*
X150336857Y-129510904D01*
X150484518Y-129589831D01*
X150613949Y-129696051D01*
X150720169Y-129825482D01*
X150799096Y-129973143D01*
X150847701Y-130133373D01*
X150864112Y-130300000D01*
X150847701Y-130466627D01*
X150799096Y-130626857D01*
X150720169Y-130774518D01*
X150613949Y-130903949D01*
X150484518Y-131010169D01*
X150336857Y-131089096D01*
X150336855Y-131089097D01*
X150256742Y-131113399D01*
X150176627Y-131137701D01*
X150051752Y-131150000D01*
X149968248Y-131150000D01*
X149843373Y-131137701D01*
X149763258Y-131113398D01*
X149683145Y-131089097D01*
X149683143Y-131089096D01*
X149535482Y-131010169D01*
X149406051Y-130903949D01*
X149299831Y-130774518D01*
X149220904Y-130626857D01*
X149172299Y-130466627D01*
X149155888Y-130300000D01*
X149172299Y-130133373D01*
X149220904Y-129973143D01*
X149299831Y-129825482D01*
X149406051Y-129696051D01*
X149535482Y-129589831D01*
X149683143Y-129510904D01*
X149683145Y-129510903D01*
X149763258Y-129486602D01*
X149843373Y-129462299D01*
X149968248Y-129450000D01*
X150051752Y-129450000D01*
X150176627Y-129462299D01*
X150176627Y-129462299D01*
G37*
G36*
X121113377Y-120074858D02*
G01*
X121477353Y-120225622D01*
X121477355Y-120225623D01*
X121506974Y-120245414D01*
X121689673Y-120367489D01*
X121804926Y-120444499D01*
X122083501Y-120723074D01*
X122255174Y-120980000D01*
X122302378Y-121050647D01*
X122453142Y-121414623D01*
X122530000Y-121801016D01*
X122530000Y-122194984D01*
X122453142Y-122581377D01*
X122302378Y-122945353D01*
X122302377Y-122945355D01*
X122264353Y-123002262D01*
X122083502Y-123272925D01*
X121804925Y-123551502D01*
X121750999Y-123587534D01*
X121477355Y-123770377D01*
X121477354Y-123770378D01*
X121477353Y-123770378D01*
X121113377Y-123921142D01*
X120726984Y-123998000D01*
X120333016Y-123998000D01*
X119946623Y-123921142D01*
X119582647Y-123770378D01*
X119582646Y-123770378D01*
X119582645Y-123770377D01*
X119309001Y-123587534D01*
X119255075Y-123551502D01*
X118976498Y-123272925D01*
X118808932Y-123022144D01*
X118793387Y-123003203D01*
X118774445Y-122987657D01*
X118752834Y-122976106D01*
X118729385Y-122968993D01*
X118704999Y-122966591D01*
X118680613Y-122968993D01*
X118657164Y-122976106D01*
X118635553Y-122987657D01*
X118616612Y-123003202D01*
X118601066Y-123022144D01*
X118589515Y-123043755D01*
X118582402Y-123067204D01*
X118580000Y-123091590D01*
X118580000Y-123297738D01*
X118522357Y-123587534D01*
X118419096Y-123836826D01*
X118409283Y-123860517D01*
X118375815Y-123910605D01*
X118245127Y-124106193D01*
X118036193Y-124315127D01*
X117984512Y-124349659D01*
X117790517Y-124479283D01*
X117790516Y-124479284D01*
X117790515Y-124479284D01*
X117517534Y-124592357D01*
X117227738Y-124650000D01*
X116932262Y-124650000D01*
X116857576Y-124635144D01*
X116833190Y-124632742D01*
X116808804Y-124635144D01*
X116785355Y-124642257D01*
X116763744Y-124653808D01*
X116744802Y-124669353D01*
X116729257Y-124688295D01*
X116717706Y-124709906D01*
X116710593Y-124733355D01*
X116708191Y-124757741D01*
X116710593Y-124782127D01*
X116717706Y-124805576D01*
X116729257Y-124827187D01*
X116744802Y-124846129D01*
X116763743Y-124861673D01*
X116886165Y-124943473D01*
X117206527Y-125263835D01*
X117458234Y-125640541D01*
X117631613Y-126059115D01*
X117661075Y-126207233D01*
X117711591Y-126461192D01*
X117720000Y-126503470D01*
X117720000Y-126956530D01*
X117631613Y-127400885D01*
X117458234Y-127819459D01*
X117206527Y-128196165D01*
X116886165Y-128516527D01*
X116509459Y-128768234D01*
X116090885Y-128941613D01*
X116029611Y-128953801D01*
X115646532Y-129030000D01*
X115193468Y-129030000D01*
X114810389Y-128953801D01*
X114749115Y-128941613D01*
X114330541Y-128768234D01*
X113953835Y-128516527D01*
X113633473Y-128196165D01*
X113381766Y-127819459D01*
X113208387Y-127400885D01*
X113120000Y-126956530D01*
X113120000Y-126503470D01*
X113128410Y-126461192D01*
X113178925Y-126207233D01*
X113208387Y-126059115D01*
X113381766Y-125640541D01*
X113633473Y-125263835D01*
X113953835Y-124943473D01*
X114330541Y-124691766D01*
X114338921Y-124688295D01*
X114570538Y-124592356D01*
X114749115Y-124518387D01*
X114897233Y-124488925D01*
X115193468Y-124430000D01*
X115646532Y-124430000D01*
X115809583Y-124462433D01*
X115981566Y-124496642D01*
X116005949Y-124499044D01*
X116030335Y-124496642D01*
X116053784Y-124489529D01*
X116075395Y-124477978D01*
X116094337Y-124462433D01*
X116109882Y-124443491D01*
X116121433Y-124421880D01*
X116128546Y-124398431D01*
X116130948Y-124374045D01*
X116128546Y-124349659D01*
X116121433Y-124326210D01*
X116109882Y-124304599D01*
X116094337Y-124285657D01*
X115914873Y-124106193D01*
X115784185Y-123910605D01*
X115750717Y-123860517D01*
X115740904Y-123836826D01*
X115637643Y-123587534D01*
X115580000Y-123297738D01*
X115580000Y-123002262D01*
X115637643Y-122712466D01*
X115750716Y-122439485D01*
X115768405Y-122413012D01*
X115905111Y-122208417D01*
X115914873Y-122193807D01*
X116123807Y-121984873D01*
X116245810Y-121903353D01*
X116369483Y-121820717D01*
X116369485Y-121820716D01*
X116642466Y-121707643D01*
X116932262Y-121650000D01*
X117227738Y-121650000D01*
X117517534Y-121707643D01*
X117790515Y-121820716D01*
X117790517Y-121820717D01*
X117914190Y-121903353D01*
X118036193Y-121984873D01*
X118245126Y-122193806D01*
X118301291Y-122277863D01*
X118316836Y-122296804D01*
X118335778Y-122312350D01*
X118357389Y-122323901D01*
X118380838Y-122331014D01*
X118405224Y-122333416D01*
X118429610Y-122331014D01*
X118453059Y-122323901D01*
X118474670Y-122312350D01*
X118493611Y-122296805D01*
X118509157Y-122277863D01*
X118520708Y-122256252D01*
X118527821Y-122232803D01*
X118530223Y-122208417D01*
X118530000Y-122206149D01*
X118530000Y-121801016D01*
X118606858Y-121414623D01*
X118757622Y-121050647D01*
X118804827Y-120980000D01*
X118976499Y-120723074D01*
X119255074Y-120444499D01*
X119370328Y-120367489D01*
X119553026Y-120245414D01*
X119582645Y-120225623D01*
X119582647Y-120225622D01*
X119946623Y-120074858D01*
X120333016Y-119998000D01*
X120726984Y-119998000D01*
X121113377Y-120074858D01*
X121113377Y-120074858D01*
G37*
G36*
X158821616Y-126418595D02*
G01*
X158850811Y-126427452D01*
X158877723Y-126441837D01*
X158901308Y-126461192D01*
X158920663Y-126484777D01*
X158935048Y-126511689D01*
X158943905Y-126540884D01*
X158947500Y-126577390D01*
X158947500Y-127202610D01*
X158943905Y-127239116D01*
X158935048Y-127268311D01*
X158920663Y-127295223D01*
X158901308Y-127318808D01*
X158877723Y-127338163D01*
X158850811Y-127352548D01*
X158821616Y-127361405D01*
X158785110Y-127365000D01*
X158234890Y-127365000D01*
X158198384Y-127361405D01*
X158169189Y-127352548D01*
X158142277Y-127338163D01*
X158118692Y-127318808D01*
X158099337Y-127295223D01*
X158084952Y-127268311D01*
X158076095Y-127239116D01*
X158072500Y-127202610D01*
X158072500Y-126577390D01*
X158076095Y-126540884D01*
X158084952Y-126511689D01*
X158099337Y-126484777D01*
X158118692Y-126461192D01*
X158142277Y-126441837D01*
X158169189Y-126427452D01*
X158198384Y-126418595D01*
X158234890Y-126415000D01*
X158785110Y-126415000D01*
X158821616Y-126418595D01*
X158821616Y-126418595D01*
G37*
G36*
X157246616Y-126418595D02*
G01*
X157275811Y-126427452D01*
X157302723Y-126441837D01*
X157326308Y-126461192D01*
X157345663Y-126484777D01*
X157360048Y-126511689D01*
X157368905Y-126540884D01*
X157372500Y-126577390D01*
X157372500Y-127202610D01*
X157368905Y-127239116D01*
X157360048Y-127268311D01*
X157345663Y-127295223D01*
X157326308Y-127318808D01*
X157302723Y-127338163D01*
X157275811Y-127352548D01*
X157246616Y-127361405D01*
X157210110Y-127365000D01*
X156659890Y-127365000D01*
X156623384Y-127361405D01*
X156594189Y-127352548D01*
X156567277Y-127338163D01*
X156543692Y-127318808D01*
X156524337Y-127295223D01*
X156509952Y-127268311D01*
X156501095Y-127239116D01*
X156497500Y-127202610D01*
X156497500Y-126577390D01*
X156501095Y-126540884D01*
X156509952Y-126511689D01*
X156524337Y-126484777D01*
X156543692Y-126461192D01*
X156567277Y-126441837D01*
X156594189Y-126427452D01*
X156623384Y-126418595D01*
X156659890Y-126415000D01*
X157210110Y-126415000D01*
X157246616Y-126418595D01*
X157246616Y-126418595D01*
G37*
G36*
X175682003Y-123846677D02*
G01*
X175818365Y-123873801D01*
X176073149Y-123979336D01*
X176302448Y-124132549D01*
X176497451Y-124327552D01*
X176650664Y-124556851D01*
X176756199Y-124811635D01*
X176810000Y-125082112D01*
X176810000Y-125357888D01*
X176756199Y-125628365D01*
X176650664Y-125883149D01*
X176497451Y-126112448D01*
X176302448Y-126307451D01*
X176073149Y-126460664D01*
X176073148Y-126460665D01*
X176073147Y-126460665D01*
X176028713Y-126479070D01*
X175818365Y-126566199D01*
X175693309Y-126591074D01*
X175547889Y-126620000D01*
X175272111Y-126620000D01*
X175126691Y-126591074D01*
X175001635Y-126566199D01*
X174791287Y-126479070D01*
X174746853Y-126460665D01*
X174746852Y-126460665D01*
X174746851Y-126460664D01*
X174517552Y-126307451D01*
X174322549Y-126112448D01*
X174169336Y-125883149D01*
X174063801Y-125628365D01*
X174010000Y-125357888D01*
X174010000Y-125082112D01*
X174063801Y-124811635D01*
X174169336Y-124556851D01*
X174322549Y-124327552D01*
X174517552Y-124132549D01*
X174746851Y-123979336D01*
X175001635Y-123873801D01*
X175137997Y-123846677D01*
X175272111Y-123820000D01*
X175547889Y-123820000D01*
X175682003Y-123846677D01*
X175682003Y-123846677D01*
G37*
G36*
X112382520Y-123514586D02*
G01*
X112546310Y-123582430D01*
X112693717Y-123680924D01*
X112819076Y-123806283D01*
X112895821Y-123921141D01*
X112917571Y-123953692D01*
X112985414Y-124117480D01*
X113020000Y-124291356D01*
X113020000Y-124468644D01*
X113002454Y-124556853D01*
X112985414Y-124642520D01*
X112917570Y-124806310D01*
X112819076Y-124953717D01*
X112693717Y-125079076D01*
X112546310Y-125177570D01*
X112546309Y-125177571D01*
X112546308Y-125177571D01*
X112382520Y-125245414D01*
X112208644Y-125280000D01*
X112031356Y-125280000D01*
X111857480Y-125245414D01*
X111693692Y-125177571D01*
X111693691Y-125177571D01*
X111693690Y-125177570D01*
X111546283Y-125079076D01*
X111420924Y-124953717D01*
X111322430Y-124806310D01*
X111254586Y-124642520D01*
X111237546Y-124556853D01*
X111220000Y-124468644D01*
X111220000Y-124291356D01*
X111254586Y-124117480D01*
X111322429Y-123953692D01*
X111344179Y-123921141D01*
X111420924Y-123806283D01*
X111546283Y-123680924D01*
X111693690Y-123582430D01*
X111857480Y-123514586D01*
X112031356Y-123480000D01*
X112208644Y-123480000D01*
X112382520Y-123514586D01*
X112382520Y-123514586D01*
G37*
G36*
X129913377Y-120074858D02*
G01*
X130277353Y-120225622D01*
X130277355Y-120225623D01*
X130306974Y-120245414D01*
X130489673Y-120367489D01*
X130604926Y-120444499D01*
X130883501Y-120723074D01*
X131055174Y-120980000D01*
X131102378Y-121050647D01*
X131253142Y-121414623D01*
X131330000Y-121801016D01*
X131330000Y-122194984D01*
X131253142Y-122581377D01*
X131102378Y-122945353D01*
X131102377Y-122945355D01*
X131064353Y-123002262D01*
X130883502Y-123272925D01*
X130604925Y-123551502D01*
X130550999Y-123587534D01*
X130277355Y-123770377D01*
X130277354Y-123770378D01*
X130277353Y-123770378D01*
X129913377Y-123921142D01*
X129526984Y-123998000D01*
X129133016Y-123998000D01*
X128746623Y-123921142D01*
X128382647Y-123770378D01*
X128382646Y-123770378D01*
X128382645Y-123770377D01*
X128109001Y-123587534D01*
X128055075Y-123551502D01*
X127776498Y-123272925D01*
X127595647Y-123002262D01*
X127557623Y-122945355D01*
X127557622Y-122945353D01*
X127406858Y-122581377D01*
X127330000Y-122194984D01*
X127330000Y-121801016D01*
X127406858Y-121414623D01*
X127557622Y-121050647D01*
X127604827Y-120980000D01*
X127776499Y-120723074D01*
X128055074Y-120444499D01*
X128170328Y-120367489D01*
X128353026Y-120245414D01*
X128382645Y-120225623D01*
X128382647Y-120225622D01*
X128746623Y-120074858D01*
X129133016Y-119998000D01*
X129526984Y-119998000D01*
X129913377Y-120074858D01*
X129913377Y-120074858D01*
G37*
G36*
X137459999Y-122409999D02*
G01*
X137460001Y-122410001D01*
X137460604Y-122416127D01*
X137465384Y-122440160D01*
X137474761Y-122462799D01*
X137488374Y-122483174D01*
X137505701Y-122500501D01*
X137526075Y-122514115D01*
X137548713Y-122523493D01*
X137572746Y-122528274D01*
X137597251Y-122528274D01*
X137621284Y-122523494D01*
X137643923Y-122514117D01*
X137664298Y-122500504D01*
X137681625Y-122483177D01*
X137695239Y-122462803D01*
X137704617Y-122440165D01*
X137709398Y-122416132D01*
X137709699Y-122410000D01*
X138710603Y-122410000D01*
X138712402Y-122428263D01*
X138719515Y-122451712D01*
X138731066Y-122473323D01*
X138746611Y-122492265D01*
X138765553Y-122507810D01*
X138787164Y-122519361D01*
X138810613Y-122526474D01*
X138834999Y-122528876D01*
X138859385Y-122526474D01*
X138882834Y-122519361D01*
X138904445Y-122507810D01*
X138923387Y-122492265D01*
X138938932Y-122473323D01*
X138950483Y-122451712D01*
X138957596Y-122428263D01*
X138959396Y-122416127D01*
X138959999Y-122410001D01*
X138960001Y-122409999D01*
X138966137Y-122409395D01*
X139503863Y-122409395D01*
X139522203Y-122411201D01*
X139534453Y-122411803D01*
X139552872Y-122411803D01*
X139565150Y-122413012D01*
X139649232Y-122429737D01*
X139661052Y-122433323D01*
X139740256Y-122466130D01*
X139751136Y-122471945D01*
X139822426Y-122519579D01*
X139831963Y-122527407D01*
X139892593Y-122588037D01*
X139900421Y-122597574D01*
X139948055Y-122668864D01*
X139953870Y-122679744D01*
X139986677Y-122758948D01*
X139990263Y-122770768D01*
X140006988Y-122854850D01*
X140008197Y-122867128D01*
X140008197Y-122885547D01*
X140008799Y-122897797D01*
X140010605Y-122916137D01*
X140010605Y-123403863D01*
X140008799Y-123422203D01*
X140008197Y-123434453D01*
X140008197Y-123452872D01*
X140006988Y-123465150D01*
X139990263Y-123549232D01*
X139986677Y-123561052D01*
X139953870Y-123640256D01*
X139948055Y-123651136D01*
X139900421Y-123722426D01*
X139892593Y-123731963D01*
X139831963Y-123792593D01*
X139822426Y-123800421D01*
X139751136Y-123848055D01*
X139740256Y-123853870D01*
X139661052Y-123886677D01*
X139649232Y-123890263D01*
X139565150Y-123906988D01*
X139552872Y-123908197D01*
X139534453Y-123908197D01*
X139522203Y-123908799D01*
X139503863Y-123910605D01*
X138966137Y-123910605D01*
X138960001Y-123910001D01*
X138959999Y-123909999D01*
X138959396Y-123903873D01*
X138954616Y-123879840D01*
X138945239Y-123857201D01*
X138931626Y-123836826D01*
X138914299Y-123819499D01*
X138893925Y-123805885D01*
X138871287Y-123796507D01*
X138847254Y-123791726D01*
X138822749Y-123791726D01*
X138798716Y-123796506D01*
X138776077Y-123805883D01*
X138755702Y-123819496D01*
X138738375Y-123836823D01*
X138724761Y-123857197D01*
X138715383Y-123879835D01*
X138710602Y-123903868D01*
X138710301Y-123910000D01*
X137709397Y-123910000D01*
X137707598Y-123891737D01*
X137700485Y-123868288D01*
X137688934Y-123846677D01*
X137673389Y-123827735D01*
X137654447Y-123812190D01*
X137632836Y-123800639D01*
X137609387Y-123793526D01*
X137585001Y-123791124D01*
X137560615Y-123793526D01*
X137537166Y-123800639D01*
X137515555Y-123812190D01*
X137496613Y-123827735D01*
X137481068Y-123846677D01*
X137469517Y-123868288D01*
X137462404Y-123891737D01*
X137460604Y-123903873D01*
X137460001Y-123909999D01*
X137459999Y-123910001D01*
X137453863Y-123910605D01*
X136916137Y-123910605D01*
X136897797Y-123908799D01*
X136885547Y-123908197D01*
X136867128Y-123908197D01*
X136854850Y-123906988D01*
X136770768Y-123890263D01*
X136758948Y-123886677D01*
X136679744Y-123853870D01*
X136668864Y-123848055D01*
X136597574Y-123800421D01*
X136588037Y-123792593D01*
X136527407Y-123731963D01*
X136519579Y-123722426D01*
X136471945Y-123651136D01*
X136466130Y-123640256D01*
X136433323Y-123561052D01*
X136429737Y-123549232D01*
X136413012Y-123465150D01*
X136411803Y-123452872D01*
X136411803Y-123434453D01*
X136411201Y-123422203D01*
X136409395Y-123403863D01*
X136409395Y-122916137D01*
X136411201Y-122897797D01*
X136411803Y-122885547D01*
X136411803Y-122867128D01*
X136413012Y-122854850D01*
X136429737Y-122770768D01*
X136433323Y-122758948D01*
X136466130Y-122679744D01*
X136471945Y-122668864D01*
X136519579Y-122597574D01*
X136527407Y-122588037D01*
X136588037Y-122527407D01*
X136597574Y-122519579D01*
X136668864Y-122471945D01*
X136679744Y-122466130D01*
X136758948Y-122433323D01*
X136770768Y-122429737D01*
X136854850Y-122413012D01*
X136867128Y-122411803D01*
X136885547Y-122411803D01*
X136897797Y-122411201D01*
X136916137Y-122409395D01*
X137453863Y-122409395D01*
X137459999Y-122409999D01*
X137459999Y-122409999D01*
G37*
G36*
X112382520Y-121014586D02*
G01*
X112546310Y-121082430D01*
X112693717Y-121180924D01*
X112819076Y-121306283D01*
X112891466Y-121414623D01*
X112917571Y-121453692D01*
X112985414Y-121617480D01*
X113020000Y-121791356D01*
X113020000Y-121968644D01*
X112985414Y-122142520D01*
X112917570Y-122306310D01*
X112819076Y-122453717D01*
X112693717Y-122579076D01*
X112546310Y-122677570D01*
X112546309Y-122677571D01*
X112546308Y-122677571D01*
X112382520Y-122745414D01*
X112208644Y-122780000D01*
X112031356Y-122780000D01*
X111857480Y-122745414D01*
X111693692Y-122677571D01*
X111693691Y-122677571D01*
X111693690Y-122677570D01*
X111546283Y-122579076D01*
X111420924Y-122453717D01*
X111322430Y-122306310D01*
X111254586Y-122142520D01*
X111220000Y-121968644D01*
X111220000Y-121791356D01*
X111254586Y-121617480D01*
X111322429Y-121453692D01*
X111348534Y-121414623D01*
X111420924Y-121306283D01*
X111546283Y-121180924D01*
X111693690Y-121082430D01*
X111857480Y-121014586D01*
X112031356Y-120980000D01*
X112208644Y-120980000D01*
X112382520Y-121014586D01*
X112382520Y-121014586D01*
G37*
G36*
X176300000Y-121120000D02*
G01*
X174600000Y-121120000D01*
X174600000Y-119420000D01*
X176300000Y-119420000D01*
X176300000Y-121120000D01*
X176300000Y-121120000D01*
G37*
G36*
X171606580Y-120613540D02*
G01*
X169906580Y-120613540D01*
X169906580Y-118913540D01*
X171606580Y-118913540D01*
X171606580Y-120613540D01*
X171606580Y-120613540D01*
G37*
G36*
X168383207Y-118925839D02*
G01*
X168463322Y-118950141D01*
X168543435Y-118974443D01*
X168543437Y-118974444D01*
X168691098Y-119053371D01*
X168820529Y-119159591D01*
X168926749Y-119289022D01*
X169005676Y-119436683D01*
X169054281Y-119596913D01*
X169070692Y-119763540D01*
X169054281Y-119930167D01*
X169047137Y-119953717D01*
X169009111Y-120079076D01*
X169005676Y-120090397D01*
X168926749Y-120238058D01*
X168820529Y-120367489D01*
X168691098Y-120473709D01*
X168543437Y-120552636D01*
X168543435Y-120552637D01*
X168463322Y-120576938D01*
X168383207Y-120601241D01*
X168258332Y-120613540D01*
X168174828Y-120613540D01*
X168049953Y-120601241D01*
X167969838Y-120576938D01*
X167889725Y-120552637D01*
X167889723Y-120552636D01*
X167742062Y-120473709D01*
X167612631Y-120367489D01*
X167506411Y-120238058D01*
X167427484Y-120090397D01*
X167424050Y-120079076D01*
X167386023Y-119953717D01*
X167378879Y-119930167D01*
X167362468Y-119763540D01*
X167378879Y-119596913D01*
X167427484Y-119436683D01*
X167506411Y-119289022D01*
X167612631Y-119159591D01*
X167742062Y-119053371D01*
X167889723Y-118974444D01*
X167889725Y-118974443D01*
X167969838Y-118950141D01*
X168049953Y-118925839D01*
X168174828Y-118913540D01*
X168258332Y-118913540D01*
X168383207Y-118925839D01*
X168383207Y-118925839D01*
G37*
G36*
X112382520Y-118514586D02*
G01*
X112540444Y-118580000D01*
X112546310Y-118582430D01*
X112693717Y-118680924D01*
X112819076Y-118806283D01*
X112898961Y-118925840D01*
X112917571Y-118953692D01*
X112985414Y-119117480D01*
X113019536Y-119289022D01*
X113020000Y-119291358D01*
X113020000Y-119468642D01*
X112985414Y-119642520D01*
X112917570Y-119806310D01*
X112819076Y-119953717D01*
X112693717Y-120079076D01*
X112546310Y-120177570D01*
X112546309Y-120177571D01*
X112546308Y-120177571D01*
X112382520Y-120245414D01*
X112208644Y-120280000D01*
X112031356Y-120280000D01*
X111857480Y-120245414D01*
X111693692Y-120177571D01*
X111693691Y-120177571D01*
X111693690Y-120177570D01*
X111546283Y-120079076D01*
X111420924Y-119953717D01*
X111322430Y-119806310D01*
X111254586Y-119642520D01*
X111220000Y-119468642D01*
X111220000Y-119291358D01*
X111220465Y-119289022D01*
X111254586Y-119117480D01*
X111322429Y-118953692D01*
X111341039Y-118925840D01*
X111420924Y-118806283D01*
X111546283Y-118680924D01*
X111693690Y-118582430D01*
X111699557Y-118580000D01*
X111857480Y-118514586D01*
X112031356Y-118480000D01*
X112208644Y-118480000D01*
X112382520Y-118514586D01*
X112382520Y-118514586D01*
G37*
G36*
X115942767Y-114788925D02*
G01*
X116090885Y-114818387D01*
X116509459Y-114991766D01*
X116886165Y-115243473D01*
X117206527Y-115563835D01*
X117453879Y-115934024D01*
X117458235Y-115940543D01*
X117481858Y-115997574D01*
X117600534Y-116284083D01*
X117631613Y-116359116D01*
X117720000Y-116803468D01*
X117720000Y-117256532D01*
X117709364Y-117310001D01*
X117631613Y-117700885D01*
X117613740Y-117744034D01*
X117484166Y-118056855D01*
X117458234Y-118119459D01*
X117206527Y-118496165D01*
X116886165Y-118816527D01*
X116509459Y-119068234D01*
X116090885Y-119241613D01*
X115942767Y-119271075D01*
X115646532Y-119330000D01*
X115193468Y-119330000D01*
X114897233Y-119271075D01*
X114749115Y-119241613D01*
X114330541Y-119068234D01*
X113953835Y-118816527D01*
X113633473Y-118496165D01*
X113381766Y-118119459D01*
X113355835Y-118056855D01*
X113226260Y-117744034D01*
X113208387Y-117700885D01*
X113130636Y-117310001D01*
X113120000Y-117256532D01*
X113120000Y-116803468D01*
X113208387Y-116359116D01*
X113239467Y-116284083D01*
X113358142Y-115997574D01*
X113381765Y-115940543D01*
X113386121Y-115934024D01*
X113633473Y-115563835D01*
X113953835Y-115243473D01*
X114330541Y-114991766D01*
X114749115Y-114818387D01*
X114897233Y-114788925D01*
X115193468Y-114730000D01*
X115646532Y-114730000D01*
X115942767Y-114788925D01*
X115942767Y-114788925D01*
G37*
G36*
X165208569Y-116543450D02*
G01*
X165472474Y-116623505D01*
X165540657Y-116659950D01*
X165715684Y-116753504D01*
X165928861Y-116928454D01*
X166103811Y-117141631D01*
X166103812Y-117141633D01*
X166233810Y-117384841D01*
X166233811Y-117384844D01*
X166248712Y-117433968D01*
X166313865Y-117648746D01*
X166340895Y-117923192D01*
X166313865Y-118197638D01*
X166233810Y-118461543D01*
X166177067Y-118567701D01*
X166103811Y-118704753D01*
X165928861Y-118917930D01*
X165715684Y-119092880D01*
X165715682Y-119092881D01*
X165472474Y-119222879D01*
X165208569Y-119302934D01*
X165002894Y-119323191D01*
X164865352Y-119323191D01*
X164659677Y-119302934D01*
X164395772Y-119222879D01*
X164152564Y-119092881D01*
X164152562Y-119092880D01*
X163939385Y-118917930D01*
X163764435Y-118704753D01*
X163691179Y-118567701D01*
X163634436Y-118461543D01*
X163554381Y-118197638D01*
X163527351Y-117923192D01*
X163554381Y-117648746D01*
X163619534Y-117433968D01*
X163634435Y-117384844D01*
X163634436Y-117384841D01*
X163764434Y-117141633D01*
X163764435Y-117141631D01*
X163939385Y-116928454D01*
X164152562Y-116753504D01*
X164327589Y-116659950D01*
X164395772Y-116623505D01*
X164659677Y-116543450D01*
X164865352Y-116523193D01*
X165002894Y-116523193D01*
X165208569Y-116543450D01*
X165208569Y-116543450D01*
G37*
G36*
X175616627Y-116892299D02*
G01*
X175696742Y-116916602D01*
X175776855Y-116940903D01*
X175776857Y-116940904D01*
X175924518Y-117019831D01*
X176053949Y-117126051D01*
X176160169Y-117255482D01*
X176239096Y-117403143D01*
X176287701Y-117563373D01*
X176304112Y-117730000D01*
X176287701Y-117896627D01*
X176239096Y-118056857D01*
X176160169Y-118204518D01*
X176053949Y-118333949D01*
X175924518Y-118440169D01*
X175776857Y-118519096D01*
X175776855Y-118519097D01*
X175696742Y-118543399D01*
X175616627Y-118567701D01*
X175491752Y-118580000D01*
X175408248Y-118580000D01*
X175283373Y-118567701D01*
X175203258Y-118543399D01*
X175123145Y-118519097D01*
X175123143Y-118519096D01*
X174975482Y-118440169D01*
X174846051Y-118333949D01*
X174739831Y-118204518D01*
X174660904Y-118056857D01*
X174612299Y-117896627D01*
X174595888Y-117730000D01*
X174612299Y-117563373D01*
X174660904Y-117403143D01*
X174739831Y-117255482D01*
X174846051Y-117126051D01*
X174975482Y-117019831D01*
X175123143Y-116940904D01*
X175123145Y-116940903D01*
X175203258Y-116916601D01*
X175283373Y-116892299D01*
X175408248Y-116880000D01*
X175491752Y-116880000D01*
X175616627Y-116892299D01*
X175616627Y-116892299D01*
G37*
G36*
X173025639Y-114585916D02*
G01*
X173232987Y-114648815D01*
X173290956Y-114679800D01*
X173424084Y-114750958D01*
X173503494Y-114816129D01*
X173591581Y-114888419D01*
X173663871Y-114976506D01*
X173729042Y-115055916D01*
X173773386Y-115138879D01*
X173831185Y-115247013D01*
X173894084Y-115454361D01*
X173915322Y-115670000D01*
X173894084Y-115885636D01*
X173877428Y-115940543D01*
X173831184Y-116092989D01*
X173729042Y-116284084D01*
X173626026Y-116409609D01*
X172559658Y-117475976D01*
X172434134Y-117578992D01*
X172338586Y-117630062D01*
X172243040Y-117681133D01*
X172035685Y-117744034D01*
X171939647Y-117753492D01*
X171820050Y-117765272D01*
X171700453Y-117753492D01*
X171604415Y-117744034D01*
X171397060Y-117681133D01*
X171301514Y-117630063D01*
X171205966Y-117578992D01*
X171126556Y-117513821D01*
X171038469Y-117441531D01*
X170966179Y-117353444D01*
X170901008Y-117274034D01*
X170849937Y-117178486D01*
X170798867Y-117082940D01*
X170735966Y-116875585D01*
X170726508Y-116779547D01*
X170714728Y-116659950D01*
X170731858Y-116486030D01*
X170735966Y-116444315D01*
X170798867Y-116236960D01*
X170875820Y-116092991D01*
X170901008Y-116045866D01*
X171004024Y-115920342D01*
X172070391Y-114853974D01*
X172195916Y-114750958D01*
X172387011Y-114648816D01*
X172498649Y-114614951D01*
X172594364Y-114585916D01*
X172810000Y-114564678D01*
X173025639Y-114585916D01*
X173025639Y-114585916D01*
G37*
G36*
X149259999Y-115809999D02*
G01*
X149260001Y-115810001D01*
X149260604Y-115816127D01*
X149265384Y-115840160D01*
X149274761Y-115862799D01*
X149288374Y-115883174D01*
X149305701Y-115900501D01*
X149326075Y-115914115D01*
X149348713Y-115923493D01*
X149372746Y-115928274D01*
X149397251Y-115928274D01*
X149421284Y-115923494D01*
X149443923Y-115914117D01*
X149464298Y-115900504D01*
X149481625Y-115883177D01*
X149495239Y-115862803D01*
X149504617Y-115840165D01*
X149509398Y-115816132D01*
X149509699Y-115810000D01*
X150510603Y-115810000D01*
X150512402Y-115828263D01*
X150519515Y-115851712D01*
X150531066Y-115873323D01*
X150546611Y-115892265D01*
X150565553Y-115907810D01*
X150587164Y-115919361D01*
X150610613Y-115926474D01*
X150634999Y-115928876D01*
X150659385Y-115926474D01*
X150682834Y-115919361D01*
X150704445Y-115907810D01*
X150723387Y-115892265D01*
X150738932Y-115873323D01*
X150750483Y-115851712D01*
X150757596Y-115828263D01*
X150759396Y-115816127D01*
X150759999Y-115810001D01*
X150760001Y-115809999D01*
X150766137Y-115809395D01*
X151303863Y-115809395D01*
X151322203Y-115811201D01*
X151334453Y-115811803D01*
X151352872Y-115811803D01*
X151365150Y-115813012D01*
X151449232Y-115829737D01*
X151461052Y-115833323D01*
X151540256Y-115866130D01*
X151551136Y-115871945D01*
X151622426Y-115919579D01*
X151631963Y-115927407D01*
X151692593Y-115988037D01*
X151700421Y-115997574D01*
X151748055Y-116068864D01*
X151753870Y-116079744D01*
X151786677Y-116158948D01*
X151790263Y-116170768D01*
X151806988Y-116254850D01*
X151808197Y-116267128D01*
X151808197Y-116285547D01*
X151808799Y-116297797D01*
X151810605Y-116316137D01*
X151810605Y-116803863D01*
X151808799Y-116822203D01*
X151808197Y-116834453D01*
X151808197Y-116852872D01*
X151806988Y-116865150D01*
X151790263Y-116949232D01*
X151786677Y-116961052D01*
X151753870Y-117040256D01*
X151748055Y-117051136D01*
X151700421Y-117122426D01*
X151692593Y-117131963D01*
X151631963Y-117192593D01*
X151622426Y-117200421D01*
X151551136Y-117248055D01*
X151540256Y-117253870D01*
X151461052Y-117286677D01*
X151449232Y-117290263D01*
X151365150Y-117306988D01*
X151352872Y-117308197D01*
X151334453Y-117308197D01*
X151322203Y-117308799D01*
X151303863Y-117310605D01*
X150766137Y-117310605D01*
X150760001Y-117310001D01*
X150759999Y-117309999D01*
X150759396Y-117303873D01*
X150754616Y-117279840D01*
X150745239Y-117257201D01*
X150731626Y-117236826D01*
X150714299Y-117219499D01*
X150693925Y-117205885D01*
X150671287Y-117196507D01*
X150647254Y-117191726D01*
X150622749Y-117191726D01*
X150598716Y-117196506D01*
X150576077Y-117205883D01*
X150555702Y-117219496D01*
X150538375Y-117236823D01*
X150524761Y-117257197D01*
X150515383Y-117279835D01*
X150510602Y-117303868D01*
X150510301Y-117310000D01*
X149509397Y-117310000D01*
X149507598Y-117291737D01*
X149500485Y-117268288D01*
X149488934Y-117246677D01*
X149473389Y-117227735D01*
X149454447Y-117212190D01*
X149432836Y-117200639D01*
X149409387Y-117193526D01*
X149385001Y-117191124D01*
X149360615Y-117193526D01*
X149337166Y-117200639D01*
X149315555Y-117212190D01*
X149296613Y-117227735D01*
X149281068Y-117246677D01*
X149269517Y-117268288D01*
X149262404Y-117291737D01*
X149260604Y-117303873D01*
X149260001Y-117309999D01*
X149259999Y-117310001D01*
X149253863Y-117310605D01*
X148716137Y-117310605D01*
X148697797Y-117308799D01*
X148685547Y-117308197D01*
X148667128Y-117308197D01*
X148654850Y-117306988D01*
X148570768Y-117290263D01*
X148558948Y-117286677D01*
X148479744Y-117253870D01*
X148468864Y-117248055D01*
X148397574Y-117200421D01*
X148388037Y-117192593D01*
X148327407Y-117131963D01*
X148319579Y-117122426D01*
X148271945Y-117051136D01*
X148266130Y-117040256D01*
X148233323Y-116961052D01*
X148229737Y-116949232D01*
X148213012Y-116865150D01*
X148211803Y-116852872D01*
X148211803Y-116834453D01*
X148211201Y-116822203D01*
X148209395Y-116803863D01*
X148209395Y-116316137D01*
X148211201Y-116297797D01*
X148211803Y-116285547D01*
X148211803Y-116267128D01*
X148213012Y-116254850D01*
X148229737Y-116170768D01*
X148233323Y-116158948D01*
X148266130Y-116079744D01*
X148271945Y-116068864D01*
X148319579Y-115997574D01*
X148327407Y-115988037D01*
X148388037Y-115927407D01*
X148397574Y-115919579D01*
X148468864Y-115871945D01*
X148479744Y-115866130D01*
X148558948Y-115833323D01*
X148570768Y-115829737D01*
X148654850Y-115813012D01*
X148667128Y-115811803D01*
X148685547Y-115811803D01*
X148697797Y-115811201D01*
X148716137Y-115809395D01*
X149253863Y-115809395D01*
X149259999Y-115809999D01*
X149259999Y-115809999D01*
G37*
G36*
X168515589Y-113595966D02*
G01*
X168722937Y-113658865D01*
X168741636Y-113668860D01*
X168914034Y-113761008D01*
X168993444Y-113826179D01*
X169081531Y-113898469D01*
X169153821Y-113986556D01*
X169218992Y-114065966D01*
X169282003Y-114183853D01*
X169321135Y-114257063D01*
X169384034Y-114464411D01*
X169405272Y-114680050D01*
X169384034Y-114895686D01*
X169373506Y-114930392D01*
X169321134Y-115103039D01*
X169218992Y-115294134D01*
X169115976Y-115419659D01*
X168049608Y-116486026D01*
X167924084Y-116589042D01*
X167828536Y-116640112D01*
X167732990Y-116691183D01*
X167525635Y-116754084D01*
X167429597Y-116763542D01*
X167310000Y-116775322D01*
X167190403Y-116763542D01*
X167094365Y-116754084D01*
X166887010Y-116691183D01*
X166791464Y-116640113D01*
X166695916Y-116589042D01*
X166615680Y-116523193D01*
X166528419Y-116451581D01*
X166417264Y-116316137D01*
X166390958Y-116284084D01*
X166330390Y-116170768D01*
X166288817Y-116092990D01*
X166225916Y-115885635D01*
X166216458Y-115789597D01*
X166204678Y-115670000D01*
X166216458Y-115550403D01*
X166225916Y-115454365D01*
X166288817Y-115247010D01*
X166365771Y-115103039D01*
X166390958Y-115055916D01*
X166493974Y-114930392D01*
X167560341Y-113864024D01*
X167685866Y-113761008D01*
X167876961Y-113658866D01*
X167999198Y-113621786D01*
X168084314Y-113595966D01*
X168299950Y-113574728D01*
X168515589Y-113595966D01*
X168515589Y-113595966D01*
G37*
G36*
X144349024Y-115128955D02*
G01*
X144381738Y-115138879D01*
X144411885Y-115154993D01*
X144438315Y-115176685D01*
X144460007Y-115203115D01*
X144476121Y-115233262D01*
X144486045Y-115265976D01*
X144490000Y-115306138D01*
X144490000Y-115893862D01*
X144486045Y-115934024D01*
X144476121Y-115966738D01*
X144460007Y-115996885D01*
X144438315Y-116023315D01*
X144411885Y-116045007D01*
X144381738Y-116061121D01*
X144349024Y-116071045D01*
X144308862Y-116075000D01*
X143621138Y-116075000D01*
X143580976Y-116071045D01*
X143548262Y-116061121D01*
X143518115Y-116045007D01*
X143491685Y-116023315D01*
X143469993Y-115996885D01*
X143453879Y-115966738D01*
X143443955Y-115934024D01*
X143440000Y-115893862D01*
X143440000Y-115306138D01*
X143443955Y-115265976D01*
X143453879Y-115233262D01*
X143469993Y-115203115D01*
X143491685Y-115176685D01*
X143518115Y-115154993D01*
X143548262Y-115138879D01*
X143580976Y-115128955D01*
X143621138Y-115125000D01*
X144308862Y-115125000D01*
X144349024Y-115128955D01*
X144349024Y-115128955D01*
G37*
G36*
X146099024Y-115128955D02*
G01*
X146131738Y-115138879D01*
X146161885Y-115154993D01*
X146188315Y-115176685D01*
X146210007Y-115203115D01*
X146226121Y-115233262D01*
X146236045Y-115265976D01*
X146240000Y-115306138D01*
X146240000Y-115893862D01*
X146236045Y-115934024D01*
X146226121Y-115966738D01*
X146210007Y-115996885D01*
X146188315Y-116023315D01*
X146161885Y-116045007D01*
X146131738Y-116061121D01*
X146099024Y-116071045D01*
X146058862Y-116075000D01*
X145371138Y-116075000D01*
X145330976Y-116071045D01*
X145298262Y-116061121D01*
X145268115Y-116045007D01*
X145241685Y-116023315D01*
X145219993Y-115996885D01*
X145203879Y-115966738D01*
X145193955Y-115934024D01*
X145190000Y-115893862D01*
X145190000Y-115306138D01*
X145193955Y-115265976D01*
X145203879Y-115233262D01*
X145219993Y-115203115D01*
X145241685Y-115176685D01*
X145268115Y-115154993D01*
X145298262Y-115138879D01*
X145330976Y-115128955D01*
X145371138Y-115125000D01*
X146058862Y-115125000D01*
X146099024Y-115128955D01*
X146099024Y-115128955D01*
G37*
G36*
X125192520Y-114132586D02*
G01*
X125316312Y-114183862D01*
X125356310Y-114200430D01*
X125503717Y-114298924D01*
X125629076Y-114424283D01*
X125727570Y-114571690D01*
X125727571Y-114571692D01*
X125795414Y-114735480D01*
X125830000Y-114909356D01*
X125830000Y-115086644D01*
X125801375Y-115230552D01*
X125795414Y-115260520D01*
X125727570Y-115424310D01*
X125629076Y-115571717D01*
X125503717Y-115697076D01*
X125356310Y-115795570D01*
X125356309Y-115795571D01*
X125356308Y-115795571D01*
X125192520Y-115863414D01*
X125018644Y-115898000D01*
X124841356Y-115898000D01*
X124667480Y-115863414D01*
X124503692Y-115795571D01*
X124503691Y-115795571D01*
X124503690Y-115795570D01*
X124356283Y-115697076D01*
X124230924Y-115571717D01*
X124132430Y-115424310D01*
X124064586Y-115260520D01*
X124058625Y-115230552D01*
X124030000Y-115086644D01*
X124030000Y-114909356D01*
X124064586Y-114735480D01*
X124132429Y-114571692D01*
X124132430Y-114571690D01*
X124230924Y-114424283D01*
X124356283Y-114298924D01*
X124503690Y-114200430D01*
X124543689Y-114183862D01*
X124667480Y-114132586D01*
X124841356Y-114098000D01*
X125018644Y-114098000D01*
X125192520Y-114132586D01*
X125192520Y-114132586D01*
G37*
G36*
X122692520Y-114132586D02*
G01*
X122816312Y-114183862D01*
X122856310Y-114200430D01*
X123003717Y-114298924D01*
X123129076Y-114424283D01*
X123227570Y-114571690D01*
X123227571Y-114571692D01*
X123295414Y-114735480D01*
X123330000Y-114909356D01*
X123330000Y-115086644D01*
X123301375Y-115230552D01*
X123295414Y-115260520D01*
X123227570Y-115424310D01*
X123129076Y-115571717D01*
X123003717Y-115697076D01*
X122856310Y-115795570D01*
X122856309Y-115795571D01*
X122856308Y-115795571D01*
X122692520Y-115863414D01*
X122518644Y-115898000D01*
X122341356Y-115898000D01*
X122167480Y-115863414D01*
X122003692Y-115795571D01*
X122003691Y-115795571D01*
X122003690Y-115795570D01*
X121856283Y-115697076D01*
X121730924Y-115571717D01*
X121632430Y-115424310D01*
X121564586Y-115260520D01*
X121558625Y-115230552D01*
X121530000Y-115086644D01*
X121530000Y-114909356D01*
X121564586Y-114735480D01*
X121632429Y-114571692D01*
X121632430Y-114571690D01*
X121730924Y-114424283D01*
X121856283Y-114298924D01*
X122003690Y-114200430D01*
X122043689Y-114183862D01*
X122167480Y-114132586D01*
X122341356Y-114098000D01*
X122518644Y-114098000D01*
X122692520Y-114132586D01*
X122692520Y-114132586D01*
G37*
G36*
X127692520Y-114132586D02*
G01*
X127816312Y-114183862D01*
X127856310Y-114200430D01*
X128003717Y-114298924D01*
X128129076Y-114424283D01*
X128227570Y-114571690D01*
X128227571Y-114571692D01*
X128295414Y-114735480D01*
X128330000Y-114909356D01*
X128330000Y-115086644D01*
X128301375Y-115230552D01*
X128295414Y-115260520D01*
X128227570Y-115424310D01*
X128129076Y-115571717D01*
X128003717Y-115697076D01*
X127856310Y-115795570D01*
X127856309Y-115795571D01*
X127856308Y-115795571D01*
X127692520Y-115863414D01*
X127518644Y-115898000D01*
X127341356Y-115898000D01*
X127167480Y-115863414D01*
X127003692Y-115795571D01*
X127003691Y-115795571D01*
X127003690Y-115795570D01*
X126856283Y-115697076D01*
X126730924Y-115571717D01*
X126632430Y-115424310D01*
X126564586Y-115260520D01*
X126558625Y-115230552D01*
X126530000Y-115086644D01*
X126530000Y-114909356D01*
X126564586Y-114735480D01*
X126632429Y-114571692D01*
X126632430Y-114571690D01*
X126730924Y-114424283D01*
X126856283Y-114298924D01*
X127003690Y-114200430D01*
X127043689Y-114183862D01*
X127167480Y-114132586D01*
X127341356Y-114098000D01*
X127518644Y-114098000D01*
X127692520Y-114132586D01*
X127692520Y-114132586D01*
G37*
G36*
X176064385Y-111327525D02*
G01*
X176136268Y-111352804D01*
X176268794Y-111399408D01*
X176316582Y-111427698D01*
X176455254Y-111509790D01*
X176567121Y-111610076D01*
X176616596Y-111654428D01*
X176746619Y-111827760D01*
X176840329Y-112023129D01*
X176851451Y-112066527D01*
X176894124Y-112233026D01*
X176905324Y-112438185D01*
X176905935Y-112449385D01*
X176875312Y-112663891D01*
X176842829Y-112756257D01*
X176821443Y-112817072D01*
X176184097Y-114183862D01*
X176101381Y-114323588D01*
X175956743Y-114484930D01*
X175783415Y-114614951D01*
X175783411Y-114614953D01*
X175588041Y-114708663D01*
X175588039Y-114708664D01*
X175588038Y-114708664D01*
X175378146Y-114762458D01*
X175161786Y-114774270D01*
X174994925Y-114750448D01*
X174947281Y-114743646D01*
X174742871Y-114671761D01*
X174742868Y-114671760D01*
X174556412Y-114561381D01*
X174395070Y-114416743D01*
X174265049Y-114243415D01*
X174236480Y-114183853D01*
X174171337Y-114048041D01*
X174165190Y-114024056D01*
X174117542Y-113838146D01*
X174105730Y-113621786D01*
X174136354Y-113407283D01*
X174136354Y-113407281D01*
X174165575Y-113324190D01*
X174190224Y-113254097D01*
X174827567Y-111887312D01*
X174862821Y-111827760D01*
X174910285Y-111747582D01*
X175054922Y-111586242D01*
X175228254Y-111456217D01*
X175423623Y-111362507D01*
X175503314Y-111342083D01*
X175633520Y-111308712D01*
X175849880Y-111296901D01*
X176064385Y-111327525D01*
X176064385Y-111327525D01*
G37*
G36*
X163873979Y-112799778D02*
G01*
X164038677Y-112867998D01*
X164186902Y-112967039D01*
X164312961Y-113093098D01*
X164412002Y-113241323D01*
X164480222Y-113406021D01*
X164515000Y-113580864D01*
X164515000Y-113759136D01*
X164480222Y-113933979D01*
X164412002Y-114098677D01*
X164312961Y-114246902D01*
X164186902Y-114372961D01*
X164038677Y-114472002D01*
X163873979Y-114540222D01*
X163699136Y-114575000D01*
X163520864Y-114575000D01*
X163346021Y-114540222D01*
X163181323Y-114472002D01*
X163033098Y-114372961D01*
X162907039Y-114246902D01*
X162807998Y-114098677D01*
X162739778Y-113933979D01*
X162705000Y-113759136D01*
X162705000Y-113580864D01*
X162739778Y-113406021D01*
X162807998Y-113241323D01*
X162907039Y-113093098D01*
X163033098Y-112967039D01*
X163181323Y-112867998D01*
X163346021Y-112799778D01*
X163520864Y-112765000D01*
X163699136Y-112765000D01*
X163873979Y-112799778D01*
X163873979Y-112799778D01*
G37*
G36*
X144087000Y-114468860D02*
G01*
X143187000Y-114468860D01*
X143187000Y-113668860D01*
X144087000Y-113668860D01*
X144087000Y-114468860D01*
X144087000Y-114468860D01*
G37*
G36*
X147553304Y-113563205D02*
G01*
X147594551Y-113571409D01*
X147617377Y-113580864D01*
X147672262Y-113603598D01*
X147741961Y-113650169D01*
X147742197Y-113650327D01*
X147801673Y-113709803D01*
X147801675Y-113709806D01*
X147848402Y-113779738D01*
X147880591Y-113857450D01*
X147897000Y-113939943D01*
X147897000Y-114024057D01*
X147880591Y-114106550D01*
X147848402Y-114184262D01*
X147808880Y-114243411D01*
X147801673Y-114254197D01*
X147742197Y-114313673D01*
X147742194Y-114313675D01*
X147672262Y-114360402D01*
X147620454Y-114381861D01*
X147594551Y-114392591D01*
X147553304Y-114400795D01*
X147512057Y-114409000D01*
X147427943Y-114409000D01*
X147386696Y-114400795D01*
X147345449Y-114392591D01*
X147319546Y-114381861D01*
X147267738Y-114360402D01*
X147197806Y-114313675D01*
X147197803Y-114313673D01*
X147138327Y-114254197D01*
X147131120Y-114243411D01*
X147091598Y-114184262D01*
X147059409Y-114106550D01*
X147043000Y-114024057D01*
X147043000Y-113939943D01*
X147059409Y-113857450D01*
X147091598Y-113779738D01*
X147138325Y-113709806D01*
X147138327Y-113709803D01*
X147197803Y-113650327D01*
X147198039Y-113650169D01*
X147267738Y-113603598D01*
X147322623Y-113580864D01*
X147345449Y-113571409D01*
X147386696Y-113563205D01*
X147427943Y-113555000D01*
X147512057Y-113555000D01*
X147553304Y-113563205D01*
X147553304Y-113563205D01*
G37*
G36*
X146087000Y-113518860D02*
G01*
X145187000Y-113518860D01*
X145187000Y-112718860D01*
X146087000Y-112718860D01*
X146087000Y-113518860D01*
X146087000Y-113518860D01*
G37*
G36*
X115992767Y-108038925D02*
G01*
X116140885Y-108068387D01*
X116405290Y-108177907D01*
X116556379Y-108240490D01*
X116559459Y-108241766D01*
X116936165Y-108493473D01*
X117256527Y-108813835D01*
X117508234Y-109190541D01*
X117508235Y-109190543D01*
X117559016Y-109313140D01*
X117637718Y-109503142D01*
X117681613Y-109609116D01*
X117770000Y-110053468D01*
X117770000Y-110506532D01*
X117725830Y-110728591D01*
X117681613Y-110950885D01*
X117508234Y-111369459D01*
X117256527Y-111746165D01*
X116936165Y-112066527D01*
X116559459Y-112318234D01*
X116140885Y-112491613D01*
X115992767Y-112521075D01*
X115696532Y-112580000D01*
X115243468Y-112580000D01*
X114947233Y-112521075D01*
X114799115Y-112491613D01*
X114380541Y-112318234D01*
X114003835Y-112066527D01*
X113683473Y-111746165D01*
X113431766Y-111369459D01*
X113258387Y-110950885D01*
X113214170Y-110728591D01*
X113170000Y-110506532D01*
X113170000Y-110053468D01*
X113258387Y-109609116D01*
X113302283Y-109503142D01*
X113380984Y-109313140D01*
X113431765Y-109190543D01*
X113431766Y-109190541D01*
X113683473Y-108813835D01*
X114003835Y-108493473D01*
X114380541Y-108241766D01*
X114383622Y-108240490D01*
X114534710Y-108177907D01*
X114799115Y-108068387D01*
X114947233Y-108038925D01*
X115243468Y-107980000D01*
X115696532Y-107980000D01*
X115992767Y-108038925D01*
X115992767Y-108038925D01*
G37*
G36*
X144087000Y-112568860D02*
G01*
X143187000Y-112568860D01*
X143187000Y-111768860D01*
X144087000Y-111768860D01*
X144087000Y-112568860D01*
X144087000Y-112568860D01*
G37*
G36*
X173146627Y-106522299D02*
G01*
X173226742Y-106546601D01*
X173306855Y-106570903D01*
X173306857Y-106570904D01*
X173454518Y-106649831D01*
X173583949Y-106756051D01*
X173690169Y-106885482D01*
X173769096Y-107033143D01*
X173817701Y-107193373D01*
X173834112Y-107360000D01*
X173817701Y-107526627D01*
X173769096Y-107686857D01*
X173690169Y-107834518D01*
X173577232Y-107972133D01*
X173563619Y-107992507D01*
X173554241Y-108015146D01*
X173549461Y-108039179D01*
X173549461Y-108063683D01*
X173554241Y-108087717D01*
X173563619Y-108110355D01*
X173577233Y-108130730D01*
X173594560Y-108148057D01*
X173614934Y-108161670D01*
X173637573Y-108171048D01*
X173661606Y-108175828D01*
X173686110Y-108175828D01*
X173721693Y-108166915D01*
X173801635Y-108133802D01*
X174072111Y-108080001D01*
X174347889Y-108080001D01*
X174618365Y-108133802D01*
X174858762Y-108233377D01*
X174882211Y-108240490D01*
X174906597Y-108242892D01*
X174930983Y-108240490D01*
X174954432Y-108233377D01*
X174976043Y-108221826D01*
X174981777Y-108217120D01*
X174979085Y-108230654D01*
X174979085Y-108255158D01*
X174983865Y-108279191D01*
X174993243Y-108301830D01*
X175006857Y-108322205D01*
X175034036Y-108346839D01*
X175102447Y-108392550D01*
X175297451Y-108587554D01*
X175450664Y-108816853D01*
X175512484Y-108966101D01*
X175556198Y-109071635D01*
X175609999Y-109342112D01*
X175609999Y-109617888D01*
X175556198Y-109888365D01*
X175518773Y-109978716D01*
X175450664Y-110143147D01*
X175297451Y-110372446D01*
X175102446Y-110567451D01*
X174873147Y-110720664D01*
X174814394Y-110745000D01*
X174618365Y-110826198D01*
X174483126Y-110853099D01*
X174347889Y-110879999D01*
X174072111Y-110879999D01*
X173936874Y-110853099D01*
X173801635Y-110826198D01*
X173605606Y-110745000D01*
X173546853Y-110720664D01*
X173317554Y-110567451D01*
X173122549Y-110372446D01*
X172969336Y-110143147D01*
X172901227Y-109978716D01*
X172863802Y-109888365D01*
X172810001Y-109617888D01*
X172810001Y-109342112D01*
X172863802Y-109071635D01*
X172907516Y-108966101D01*
X172969336Y-108816853D01*
X173122549Y-108587554D01*
X173318809Y-108391294D01*
X173334354Y-108372352D01*
X173345905Y-108350741D01*
X173353018Y-108327292D01*
X173355420Y-108302906D01*
X173353018Y-108278520D01*
X173345905Y-108255071D01*
X173334354Y-108233460D01*
X173318809Y-108214518D01*
X173299867Y-108198973D01*
X173278256Y-108187422D01*
X173254807Y-108180309D01*
X173230421Y-108177907D01*
X173206035Y-108180309D01*
X173194135Y-108183290D01*
X173146630Y-108197701D01*
X173021752Y-108210000D01*
X172938248Y-108210000D01*
X172813373Y-108197701D01*
X172725509Y-108171048D01*
X172653145Y-108149097D01*
X172651199Y-108148057D01*
X172505482Y-108070169D01*
X172376051Y-107963949D01*
X172269831Y-107834518D01*
X172190904Y-107686857D01*
X172142299Y-107526627D01*
X172125888Y-107360000D01*
X172142299Y-107193373D01*
X172190904Y-107033143D01*
X172269831Y-106885482D01*
X172376051Y-106756051D01*
X172505482Y-106649831D01*
X172653143Y-106570904D01*
X172653145Y-106570903D01*
X172733258Y-106546601D01*
X172813373Y-106522299D01*
X172938248Y-106510000D01*
X173021752Y-106510000D01*
X173146627Y-106522299D01*
X173146627Y-106522299D01*
G37*
G36*
X147553304Y-109899205D02*
G01*
X147594551Y-109907409D01*
X147620454Y-109918139D01*
X147672262Y-109939598D01*
X147730806Y-109978716D01*
X147742197Y-109986327D01*
X147801673Y-110045803D01*
X147801675Y-110045806D01*
X147848402Y-110115738D01*
X147880591Y-110193450D01*
X147897000Y-110275943D01*
X147897000Y-110360057D01*
X147880591Y-110442550D01*
X147848402Y-110520262D01*
X147816872Y-110567450D01*
X147801673Y-110590197D01*
X147742197Y-110649673D01*
X147742194Y-110649675D01*
X147672262Y-110696402D01*
X147620454Y-110717861D01*
X147594551Y-110728591D01*
X147553304Y-110736795D01*
X147512057Y-110745000D01*
X147427943Y-110745000D01*
X147386696Y-110736795D01*
X147345449Y-110728591D01*
X147319546Y-110717861D01*
X147267738Y-110696402D01*
X147197806Y-110649675D01*
X147197803Y-110649673D01*
X147138327Y-110590197D01*
X147123128Y-110567450D01*
X147091598Y-110520262D01*
X147059409Y-110442550D01*
X147043000Y-110360057D01*
X147043000Y-110275943D01*
X147059409Y-110193450D01*
X147091598Y-110115738D01*
X147138325Y-110045806D01*
X147138327Y-110045803D01*
X147197803Y-109986327D01*
X147209194Y-109978716D01*
X147267738Y-109939598D01*
X147319546Y-109918139D01*
X147345449Y-109907409D01*
X147386696Y-109899205D01*
X147427943Y-109891000D01*
X147512057Y-109891000D01*
X147553304Y-109899205D01*
X147553304Y-109899205D01*
G37*
G36*
X144753304Y-109899205D02*
G01*
X144794551Y-109907409D01*
X144820454Y-109918139D01*
X144872262Y-109939598D01*
X144930806Y-109978716D01*
X144942197Y-109986327D01*
X145001673Y-110045803D01*
X145001675Y-110045806D01*
X145048402Y-110115738D01*
X145080591Y-110193450D01*
X145097000Y-110275943D01*
X145097000Y-110360057D01*
X145080591Y-110442550D01*
X145048402Y-110520262D01*
X145016872Y-110567450D01*
X145001673Y-110590197D01*
X144942197Y-110649673D01*
X144942194Y-110649675D01*
X144872262Y-110696402D01*
X144820454Y-110717861D01*
X144794551Y-110728591D01*
X144753304Y-110736795D01*
X144712057Y-110745000D01*
X144627943Y-110745000D01*
X144586696Y-110736795D01*
X144545449Y-110728591D01*
X144519546Y-110717861D01*
X144467738Y-110696402D01*
X144397806Y-110649675D01*
X144397803Y-110649673D01*
X144338327Y-110590197D01*
X144323128Y-110567450D01*
X144291598Y-110520262D01*
X144259409Y-110442550D01*
X144243000Y-110360057D01*
X144243000Y-110275943D01*
X144259409Y-110193450D01*
X144291598Y-110115738D01*
X144338325Y-110045806D01*
X144338327Y-110045803D01*
X144397803Y-109986327D01*
X144409194Y-109978716D01*
X144467738Y-109939598D01*
X144519546Y-109918139D01*
X144545449Y-109907409D01*
X144586696Y-109899205D01*
X144627943Y-109891000D01*
X144712057Y-109891000D01*
X144753304Y-109899205D01*
X144753304Y-109899205D01*
G37*
G36*
X165867289Y-107817415D02*
G01*
X166131194Y-107897470D01*
X166270878Y-107972133D01*
X166374404Y-108027469D01*
X166587581Y-108202419D01*
X166762531Y-108415596D01*
X166762532Y-108415598D01*
X166892530Y-108658806D01*
X166972585Y-108922711D01*
X166999615Y-109197157D01*
X166972585Y-109471603D01*
X166892530Y-109735508D01*
X166783441Y-109939598D01*
X166762531Y-109978718D01*
X166587581Y-110191895D01*
X166374404Y-110366845D01*
X166374402Y-110366846D01*
X166131194Y-110496844D01*
X165867289Y-110576899D01*
X165661614Y-110597156D01*
X165524072Y-110597156D01*
X165318397Y-110576899D01*
X165054492Y-110496844D01*
X164811284Y-110366846D01*
X164811282Y-110366845D01*
X164598105Y-110191895D01*
X164423155Y-109978718D01*
X164402245Y-109939598D01*
X164293156Y-109735508D01*
X164213101Y-109471603D01*
X164186071Y-109197157D01*
X164213101Y-108922711D01*
X164293156Y-108658806D01*
X164423154Y-108415598D01*
X164423155Y-108415596D01*
X164598105Y-108202419D01*
X164811282Y-108027469D01*
X164914808Y-107972133D01*
X165054492Y-107897470D01*
X165318397Y-107817415D01*
X165524072Y-107797158D01*
X165661614Y-107797158D01*
X165867289Y-107817415D01*
X165867289Y-107817415D01*
G37*
G36*
X129913377Y-105656858D02*
G01*
X130277353Y-105807622D01*
X130277355Y-105807623D01*
X130350217Y-105856308D01*
X130604925Y-106026498D01*
X130883502Y-106305075D01*
X131102378Y-106632647D01*
X131253142Y-106996623D01*
X131330000Y-107383016D01*
X131330000Y-107776984D01*
X131253142Y-108163377D01*
X131102378Y-108527353D01*
X130910957Y-108813836D01*
X130883501Y-108854926D01*
X130604926Y-109133501D01*
X130277355Y-109352377D01*
X130277354Y-109352378D01*
X130277353Y-109352378D01*
X129913377Y-109503142D01*
X129526984Y-109580000D01*
X129133016Y-109580000D01*
X128746623Y-109503142D01*
X128382647Y-109352378D01*
X128382646Y-109352378D01*
X128382645Y-109352377D01*
X128055074Y-109133501D01*
X127776499Y-108854926D01*
X127749044Y-108813836D01*
X127557622Y-108527353D01*
X127406858Y-108163377D01*
X127330000Y-107776984D01*
X127330000Y-107383016D01*
X127406858Y-106996623D01*
X127557622Y-106632647D01*
X127776498Y-106305075D01*
X128055075Y-106026498D01*
X128309783Y-105856308D01*
X128382645Y-105807623D01*
X128382647Y-105807622D01*
X128746623Y-105656858D01*
X129133016Y-105580000D01*
X129526984Y-105580000D01*
X129913377Y-105656858D01*
X129913377Y-105656858D01*
G37*
G36*
X121113377Y-105656858D02*
G01*
X121477353Y-105807622D01*
X121477355Y-105807623D01*
X121550217Y-105856308D01*
X121804925Y-106026498D01*
X122083502Y-106305075D01*
X122302378Y-106632647D01*
X122453142Y-106996623D01*
X122530000Y-107383016D01*
X122530000Y-107776984D01*
X122453142Y-108163377D01*
X122302378Y-108527353D01*
X122110957Y-108813836D01*
X122083501Y-108854926D01*
X121804926Y-109133501D01*
X121477355Y-109352377D01*
X121477354Y-109352378D01*
X121477353Y-109352378D01*
X121113377Y-109503142D01*
X120726984Y-109580000D01*
X120333016Y-109580000D01*
X119946623Y-109503142D01*
X119582647Y-109352378D01*
X119582646Y-109352378D01*
X119582645Y-109352377D01*
X119255074Y-109133501D01*
X118976499Y-108854926D01*
X118949044Y-108813836D01*
X118757622Y-108527353D01*
X118606858Y-108163377D01*
X118530000Y-107776984D01*
X118530000Y-107383016D01*
X118606858Y-106996623D01*
X118757622Y-106632647D01*
X118976498Y-106305075D01*
X119255075Y-106026498D01*
X119509783Y-105856308D01*
X119582645Y-105807623D01*
X119582647Y-105807622D01*
X119946623Y-105656858D01*
X120333016Y-105580000D01*
X120726984Y-105580000D01*
X121113377Y-105656858D01*
X121113377Y-105656858D01*
G37*
G36*
X112432520Y-107064586D02*
G01*
X112596310Y-107132430D01*
X112743717Y-107230924D01*
X112869076Y-107356283D01*
X112967570Y-107503690D01*
X112967571Y-107503692D01*
X113035414Y-107667480D01*
X113070000Y-107841356D01*
X113070000Y-108018644D01*
X113035414Y-108192520D01*
X113018491Y-108233377D01*
X112967570Y-108356310D01*
X112869076Y-108503717D01*
X112743717Y-108629076D01*
X112596310Y-108727570D01*
X112596309Y-108727571D01*
X112596308Y-108727571D01*
X112432520Y-108795414D01*
X112258644Y-108830000D01*
X112081356Y-108830000D01*
X111907480Y-108795414D01*
X111743692Y-108727571D01*
X111743691Y-108727571D01*
X111743690Y-108727570D01*
X111596283Y-108629076D01*
X111470924Y-108503717D01*
X111372430Y-108356310D01*
X111321510Y-108233377D01*
X111304586Y-108192520D01*
X111270000Y-108018644D01*
X111270000Y-107841356D01*
X111304586Y-107667480D01*
X111372429Y-107503692D01*
X111372430Y-107503690D01*
X111470924Y-107356283D01*
X111596283Y-107230924D01*
X111743690Y-107132430D01*
X111907480Y-107064586D01*
X112081356Y-107030000D01*
X112258644Y-107030000D01*
X112432520Y-107064586D01*
X112432520Y-107064586D01*
G37*
G36*
X175686627Y-106522299D02*
G01*
X175766742Y-106546601D01*
X175846855Y-106570903D01*
X175846857Y-106570904D01*
X175994518Y-106649831D01*
X176123949Y-106756051D01*
X176230169Y-106885482D01*
X176309096Y-107033143D01*
X176357701Y-107193373D01*
X176374112Y-107360000D01*
X176357701Y-107526627D01*
X176309096Y-107686857D01*
X176230169Y-107834518D01*
X176123949Y-107963949D01*
X175994518Y-108070169D01*
X175848801Y-108148057D01*
X175846855Y-108149097D01*
X175774491Y-108171048D01*
X175686627Y-108197701D01*
X175561752Y-108210000D01*
X175478248Y-108210000D01*
X175353373Y-108197701D01*
X175193142Y-108149096D01*
X175162406Y-108132667D01*
X175139767Y-108123289D01*
X175115734Y-108118509D01*
X175091230Y-108118509D01*
X175067197Y-108123289D01*
X175044558Y-108132667D01*
X175028945Y-108143099D01*
X175029194Y-108142279D01*
X175031596Y-108117893D01*
X175029194Y-108093507D01*
X175022081Y-108070058D01*
X175010530Y-108048447D01*
X174994984Y-108029505D01*
X174985895Y-108021267D01*
X174916051Y-107963948D01*
X174809831Y-107834518D01*
X174730904Y-107686857D01*
X174682299Y-107526627D01*
X174665888Y-107360000D01*
X174682299Y-107193373D01*
X174730904Y-107033143D01*
X174809831Y-106885482D01*
X174916051Y-106756051D01*
X175045482Y-106649831D01*
X175193143Y-106570904D01*
X175193145Y-106570903D01*
X175273258Y-106546601D01*
X175353373Y-106522299D01*
X175478248Y-106510000D01*
X175561752Y-106510000D01*
X175686627Y-106522299D01*
X175686627Y-106522299D01*
G37*
G36*
X168019040Y-107960400D02*
G01*
X167219040Y-107960400D01*
X167219040Y-107560400D01*
X168019040Y-107560400D01*
X168019040Y-107960400D01*
X168019040Y-107960400D01*
G37*
G36*
X145129024Y-106028955D02*
G01*
X145161738Y-106038879D01*
X145191885Y-106054993D01*
X145218315Y-106076685D01*
X145240007Y-106103115D01*
X145256121Y-106133262D01*
X145266045Y-106165976D01*
X145270000Y-106206138D01*
X145270000Y-106793862D01*
X145266045Y-106834024D01*
X145256121Y-106866738D01*
X145240007Y-106896885D01*
X145218315Y-106923315D01*
X145191885Y-106945007D01*
X145161738Y-106961121D01*
X145129024Y-106971045D01*
X145088862Y-106975000D01*
X144401138Y-106975000D01*
X144360976Y-106971045D01*
X144328262Y-106961121D01*
X144298115Y-106945007D01*
X144271685Y-106923315D01*
X144249993Y-106896885D01*
X144233879Y-106866738D01*
X144223955Y-106834024D01*
X144220000Y-106793862D01*
X144220000Y-106206138D01*
X144223955Y-106165976D01*
X144233879Y-106133262D01*
X144249993Y-106103115D01*
X144271685Y-106076685D01*
X144298115Y-106054993D01*
X144328262Y-106038879D01*
X144360976Y-106028955D01*
X144401138Y-106025000D01*
X145088862Y-106025000D01*
X145129024Y-106028955D01*
X145129024Y-106028955D01*
G37*
G36*
X146879024Y-106028955D02*
G01*
X146911738Y-106038879D01*
X146941885Y-106054993D01*
X146968315Y-106076685D01*
X146990007Y-106103115D01*
X147006121Y-106133262D01*
X147016045Y-106165976D01*
X147020000Y-106206138D01*
X147020000Y-106793862D01*
X147016045Y-106834024D01*
X147006121Y-106866738D01*
X146990007Y-106896885D01*
X146968315Y-106923315D01*
X146941885Y-106945007D01*
X146911738Y-106961121D01*
X146879024Y-106971045D01*
X146838862Y-106975000D01*
X146151138Y-106975000D01*
X146110976Y-106971045D01*
X146078262Y-106961121D01*
X146048115Y-106945007D01*
X146021685Y-106923315D01*
X145999993Y-106896885D01*
X145983879Y-106866738D01*
X145973955Y-106834024D01*
X145970000Y-106793862D01*
X145970000Y-106206138D01*
X145973955Y-106165976D01*
X145983879Y-106133262D01*
X145999993Y-106103115D01*
X146021685Y-106076685D01*
X146048115Y-106054993D01*
X146078262Y-106038879D01*
X146110976Y-106028955D01*
X146151138Y-106025000D01*
X146838862Y-106025000D01*
X146879024Y-106028955D01*
X146879024Y-106028955D01*
G37*
G36*
X170519040Y-106910400D02*
G01*
X169719040Y-106910400D01*
X169719040Y-102110400D01*
X170519040Y-102110400D01*
X170519040Y-106910400D01*
X170519040Y-106910400D01*
G37*
G36*
X112432520Y-104564586D02*
G01*
X112517052Y-104599600D01*
X112596310Y-104632430D01*
X112743717Y-104730924D01*
X112869076Y-104856283D01*
X112956169Y-104986627D01*
X112967571Y-105003692D01*
X113035414Y-105167480D01*
X113070000Y-105341356D01*
X113070000Y-105518644D01*
X113042508Y-105656858D01*
X113035414Y-105692520D01*
X112967570Y-105856310D01*
X112869076Y-106003717D01*
X112743717Y-106129076D01*
X112596310Y-106227570D01*
X112596309Y-106227571D01*
X112596308Y-106227571D01*
X112432520Y-106295414D01*
X112258644Y-106330000D01*
X112081356Y-106330000D01*
X111907480Y-106295414D01*
X111743692Y-106227571D01*
X111743691Y-106227571D01*
X111743690Y-106227570D01*
X111596283Y-106129076D01*
X111470924Y-106003717D01*
X111372430Y-105856310D01*
X111304586Y-105692520D01*
X111297492Y-105656858D01*
X111270000Y-105518644D01*
X111270000Y-105341356D01*
X111304586Y-105167480D01*
X111372429Y-105003692D01*
X111383831Y-104986627D01*
X111470924Y-104856283D01*
X111596283Y-104730924D01*
X111743690Y-104632430D01*
X111822949Y-104599600D01*
X111907480Y-104564586D01*
X112081356Y-104530000D01*
X112258644Y-104530000D01*
X112432520Y-104564586D01*
X112432520Y-104564586D01*
G37*
G36*
X165330460Y-105899600D02*
G01*
X163930460Y-105899600D01*
X163930460Y-103599600D01*
X165330460Y-103599600D01*
X165330460Y-105899600D01*
X165330460Y-105899600D01*
G37*
G36*
X160930460Y-105899600D02*
G01*
X159530460Y-105899600D01*
X159530460Y-103599600D01*
X160930460Y-103599600D01*
X160930460Y-105899600D01*
X160930460Y-105899600D01*
G37*
G36*
X173146627Y-103982299D02*
G01*
X173226742Y-104006601D01*
X173306855Y-104030903D01*
X173306857Y-104030904D01*
X173454518Y-104109831D01*
X173583949Y-104216051D01*
X173690169Y-104345482D01*
X173769096Y-104493143D01*
X173769097Y-104493145D01*
X173790768Y-104564586D01*
X173817701Y-104653373D01*
X173834112Y-104820000D01*
X173817701Y-104986627D01*
X173769096Y-105146857D01*
X173690169Y-105294518D01*
X173583949Y-105423949D01*
X173454518Y-105530169D01*
X173306857Y-105609096D01*
X173306855Y-105609097D01*
X173226742Y-105633399D01*
X173146627Y-105657701D01*
X173021752Y-105670000D01*
X172938248Y-105670000D01*
X172813373Y-105657701D01*
X172733258Y-105633399D01*
X172653145Y-105609097D01*
X172653143Y-105609096D01*
X172505482Y-105530169D01*
X172376051Y-105423949D01*
X172269831Y-105294518D01*
X172190904Y-105146857D01*
X172142299Y-104986627D01*
X172125888Y-104820000D01*
X172142299Y-104653373D01*
X172169232Y-104564586D01*
X172190903Y-104493145D01*
X172190904Y-104493143D01*
X172269831Y-104345482D01*
X172376051Y-104216051D01*
X172505482Y-104109831D01*
X172653143Y-104030904D01*
X172653145Y-104030903D01*
X172733258Y-104006601D01*
X172813373Y-103982299D01*
X172938248Y-103970000D01*
X173021752Y-103970000D01*
X173146627Y-103982299D01*
X173146627Y-103982299D01*
G37*
G36*
X175686627Y-103982299D02*
G01*
X175766742Y-104006601D01*
X175846855Y-104030903D01*
X175846857Y-104030904D01*
X175994518Y-104109831D01*
X176123949Y-104216051D01*
X176230169Y-104345482D01*
X176309096Y-104493143D01*
X176309097Y-104493145D01*
X176330768Y-104564586D01*
X176357701Y-104653373D01*
X176374112Y-104820000D01*
X176357701Y-104986627D01*
X176309096Y-105146857D01*
X176230169Y-105294518D01*
X176123949Y-105423949D01*
X175994518Y-105530169D01*
X175846857Y-105609096D01*
X175846855Y-105609097D01*
X175766742Y-105633399D01*
X175686627Y-105657701D01*
X175561752Y-105670000D01*
X175478248Y-105670000D01*
X175353373Y-105657701D01*
X175273258Y-105633399D01*
X175193145Y-105609097D01*
X175193143Y-105609096D01*
X175045482Y-105530169D01*
X174916051Y-105423949D01*
X174809831Y-105294518D01*
X174730904Y-105146857D01*
X174682299Y-104986627D01*
X174665888Y-104820000D01*
X174682299Y-104653373D01*
X174709232Y-104564586D01*
X174730903Y-104493145D01*
X174730904Y-104493143D01*
X174809831Y-104345482D01*
X174916051Y-104216051D01*
X175045482Y-104109831D01*
X175193143Y-104030904D01*
X175193145Y-104030903D01*
X175273258Y-104006601D01*
X175353373Y-103982299D01*
X175478248Y-103970000D01*
X175561752Y-103970000D01*
X175686627Y-103982299D01*
X175686627Y-103982299D01*
G37*
G36*
X112432520Y-102064586D02*
G01*
X112550303Y-102113373D01*
X112596310Y-102132430D01*
X112743717Y-102230924D01*
X112869076Y-102356283D01*
X112929443Y-102446629D01*
X112967571Y-102503692D01*
X113035414Y-102667480D01*
X113070000Y-102841356D01*
X113070000Y-103018644D01*
X113050296Y-103117701D01*
X113035414Y-103192520D01*
X112967570Y-103356310D01*
X112869076Y-103503717D01*
X112743717Y-103629076D01*
X112596310Y-103727570D01*
X112596309Y-103727571D01*
X112596308Y-103727571D01*
X112432520Y-103795414D01*
X112258644Y-103830000D01*
X112081356Y-103830000D01*
X111907480Y-103795414D01*
X111743692Y-103727571D01*
X111743691Y-103727571D01*
X111743690Y-103727570D01*
X111596283Y-103629076D01*
X111470924Y-103503717D01*
X111372430Y-103356310D01*
X111304586Y-103192520D01*
X111289704Y-103117701D01*
X111270000Y-103018644D01*
X111270000Y-102841356D01*
X111304586Y-102667480D01*
X111372429Y-102503692D01*
X111410557Y-102446629D01*
X111470924Y-102356283D01*
X111596283Y-102230924D01*
X111743690Y-102132430D01*
X111789698Y-102113373D01*
X111907480Y-102064586D01*
X112081356Y-102030000D01*
X112258644Y-102030000D01*
X112432520Y-102064586D01*
X112432520Y-102064586D01*
G37*
G36*
X176370000Y-101230000D02*
G01*
X175829447Y-101230000D01*
X175805061Y-101232402D01*
X175781612Y-101239515D01*
X175760001Y-101251066D01*
X175741059Y-101266611D01*
X175725514Y-101285553D01*
X175713963Y-101307164D01*
X175706850Y-101330613D01*
X175704448Y-101354999D01*
X175706850Y-101379385D01*
X175713963Y-101402834D01*
X175725514Y-101424445D01*
X175741059Y-101443387D01*
X175760001Y-101458932D01*
X175781612Y-101470483D01*
X175793157Y-101474614D01*
X175846855Y-101490903D01*
X175846857Y-101490904D01*
X175994518Y-101569831D01*
X176123949Y-101676051D01*
X176230169Y-101805482D01*
X176309096Y-101953143D01*
X176357701Y-102113373D01*
X176374112Y-102280000D01*
X176357701Y-102446627D01*
X176309096Y-102606857D01*
X176230169Y-102754518D01*
X176123949Y-102883949D01*
X175994518Y-102990169D01*
X175941249Y-103018642D01*
X175846855Y-103069097D01*
X175766742Y-103093398D01*
X175686627Y-103117701D01*
X175561752Y-103130000D01*
X175478248Y-103130000D01*
X175353373Y-103117701D01*
X175273258Y-103093398D01*
X175193145Y-103069097D01*
X175098751Y-103018642D01*
X175045482Y-102990169D01*
X174916051Y-102883949D01*
X174809831Y-102754518D01*
X174730904Y-102606857D01*
X174682299Y-102446627D01*
X174665888Y-102280000D01*
X174682299Y-102113373D01*
X174730904Y-101953143D01*
X174809831Y-101805482D01*
X174916051Y-101676051D01*
X175045482Y-101569831D01*
X175193143Y-101490904D01*
X175193145Y-101490903D01*
X175246840Y-101474615D01*
X175269477Y-101465239D01*
X175289851Y-101451625D01*
X175307178Y-101434298D01*
X175320792Y-101413924D01*
X175330169Y-101391285D01*
X175334950Y-101367252D01*
X175334950Y-101342748D01*
X175330170Y-101318714D01*
X175320793Y-101296075D01*
X175307179Y-101275701D01*
X175289852Y-101258374D01*
X175269478Y-101244760D01*
X175246839Y-101235383D01*
X175222806Y-101230602D01*
X175210553Y-101230000D01*
X174670000Y-101230000D01*
X174670000Y-99530000D01*
X176370000Y-99530000D01*
X176370000Y-101230000D01*
X176370000Y-101230000D01*
G37*
G36*
X173146627Y-99542299D02*
G01*
X173226742Y-99566601D01*
X173306855Y-99590903D01*
X173306857Y-99590904D01*
X173454518Y-99669831D01*
X173583949Y-99776051D01*
X173690169Y-99905482D01*
X173769096Y-100053143D01*
X173817701Y-100213373D01*
X173834112Y-100380000D01*
X173817701Y-100546627D01*
X173817700Y-100546629D01*
X173780689Y-100668642D01*
X173769096Y-100706857D01*
X173690169Y-100854518D01*
X173583949Y-100983949D01*
X173454518Y-101090169D01*
X173335629Y-101153717D01*
X173306855Y-101169097D01*
X173253160Y-101185385D01*
X173230523Y-101194761D01*
X173210149Y-101208375D01*
X173192822Y-101225702D01*
X173179208Y-101246076D01*
X173169831Y-101268715D01*
X173165050Y-101292748D01*
X173165050Y-101317252D01*
X173169830Y-101341286D01*
X173179207Y-101363925D01*
X173192821Y-101384299D01*
X173210148Y-101401626D01*
X173230522Y-101415240D01*
X173253161Y-101424617D01*
X173277194Y-101429398D01*
X173289447Y-101430000D01*
X173830000Y-101430000D01*
X173830000Y-103130000D01*
X172130000Y-103130000D01*
X172130000Y-101430000D01*
X172670553Y-101430000D01*
X172694939Y-101427598D01*
X172718388Y-101420485D01*
X172739999Y-101408934D01*
X172758941Y-101393389D01*
X172774486Y-101374447D01*
X172786037Y-101352836D01*
X172793150Y-101329387D01*
X172795552Y-101305001D01*
X172793150Y-101280615D01*
X172786037Y-101257166D01*
X172774486Y-101235555D01*
X172758941Y-101216613D01*
X172739999Y-101201068D01*
X172718388Y-101189517D01*
X172706843Y-101185386D01*
X172653145Y-101169097D01*
X172624371Y-101153717D01*
X172505482Y-101090169D01*
X172376051Y-100983949D01*
X172269831Y-100854518D01*
X172190904Y-100706857D01*
X172179312Y-100668642D01*
X172142300Y-100546629D01*
X172142299Y-100546627D01*
X172125888Y-100380000D01*
X172142299Y-100213373D01*
X172190904Y-100053143D01*
X172269831Y-99905482D01*
X172376051Y-99776051D01*
X172505482Y-99669831D01*
X172653143Y-99590904D01*
X172653145Y-99590903D01*
X172733258Y-99566601D01*
X172813373Y-99542299D01*
X172938248Y-99530000D01*
X173021752Y-99530000D01*
X173146627Y-99542299D01*
X173146627Y-99542299D01*
G37*
G36*
X115992767Y-98338925D02*
G01*
X116140885Y-98368387D01*
X116559459Y-98541766D01*
X116936165Y-98793473D01*
X117256527Y-99113835D01*
X117508234Y-99490541D01*
X117508235Y-99490543D01*
X117529673Y-99542299D01*
X117680108Y-99905481D01*
X117681613Y-99909116D01*
X117770000Y-100353468D01*
X117770000Y-100806532D01*
X117730262Y-101006308D01*
X117681613Y-101250885D01*
X117508234Y-101669459D01*
X117256527Y-102046165D01*
X116936165Y-102366527D01*
X116559459Y-102618234D01*
X116140885Y-102791613D01*
X115992767Y-102821075D01*
X115696532Y-102880000D01*
X115243468Y-102880000D01*
X114947233Y-102821075D01*
X114799115Y-102791613D01*
X114380541Y-102618234D01*
X114003835Y-102366527D01*
X113683473Y-102046165D01*
X113431766Y-101669459D01*
X113258387Y-101250885D01*
X113209738Y-101006308D01*
X113170000Y-100806532D01*
X113170000Y-100353468D01*
X113258387Y-99909116D01*
X113259893Y-99905481D01*
X113410327Y-99542299D01*
X113431765Y-99490543D01*
X113431766Y-99490541D01*
X113683473Y-99113835D01*
X114003835Y-98793473D01*
X114380541Y-98541766D01*
X114799115Y-98368387D01*
X114947233Y-98338925D01*
X115243468Y-98280000D01*
X115696532Y-98280000D01*
X115992767Y-98338925D01*
X115992767Y-98338925D01*
G37*
G36*
X122692520Y-99714586D02*
G01*
X122840913Y-99776052D01*
X122856310Y-99782430D01*
X123003717Y-99880924D01*
X123129076Y-100006283D01*
X123160388Y-100053145D01*
X123227571Y-100153692D01*
X123295414Y-100317480D01*
X123330000Y-100491358D01*
X123330000Y-100668642D01*
X123295414Y-100842520D01*
X123227570Y-101006310D01*
X123129076Y-101153717D01*
X123003717Y-101279076D01*
X122856310Y-101377570D01*
X122856309Y-101377571D01*
X122856308Y-101377571D01*
X122692520Y-101445414D01*
X122518644Y-101480000D01*
X122341356Y-101480000D01*
X122167480Y-101445414D01*
X122003692Y-101377571D01*
X122003691Y-101377571D01*
X122003690Y-101377570D01*
X121856283Y-101279076D01*
X121730924Y-101153717D01*
X121632430Y-101006310D01*
X121564586Y-100842520D01*
X121530000Y-100668642D01*
X121530000Y-100491358D01*
X121564586Y-100317480D01*
X121632429Y-100153692D01*
X121699612Y-100053145D01*
X121730924Y-100006283D01*
X121856283Y-99880924D01*
X122003690Y-99782430D01*
X122019088Y-99776052D01*
X122167480Y-99714586D01*
X122341356Y-99680000D01*
X122518644Y-99680000D01*
X122692520Y-99714586D01*
X122692520Y-99714586D01*
G37*
G36*
X127692520Y-99714586D02*
G01*
X127840913Y-99776052D01*
X127856310Y-99782430D01*
X128003717Y-99880924D01*
X128129076Y-100006283D01*
X128160388Y-100053145D01*
X128227571Y-100153692D01*
X128295414Y-100317480D01*
X128330000Y-100491358D01*
X128330000Y-100668642D01*
X128295414Y-100842520D01*
X128227570Y-101006310D01*
X128129076Y-101153717D01*
X128003717Y-101279076D01*
X127856310Y-101377570D01*
X127856309Y-101377571D01*
X127856308Y-101377571D01*
X127692520Y-101445414D01*
X127518644Y-101480000D01*
X127341356Y-101480000D01*
X127167480Y-101445414D01*
X127003692Y-101377571D01*
X127003691Y-101377571D01*
X127003690Y-101377570D01*
X126856283Y-101279076D01*
X126730924Y-101153717D01*
X126632430Y-101006310D01*
X126564586Y-100842520D01*
X126530000Y-100668642D01*
X126530000Y-100491358D01*
X126564586Y-100317480D01*
X126632429Y-100153692D01*
X126699612Y-100053145D01*
X126730924Y-100006283D01*
X126856283Y-99880924D01*
X127003690Y-99782430D01*
X127019088Y-99776052D01*
X127167480Y-99714586D01*
X127341356Y-99680000D01*
X127518644Y-99680000D01*
X127692520Y-99714586D01*
X127692520Y-99714586D01*
G37*
G36*
X125192520Y-99714586D02*
G01*
X125340913Y-99776052D01*
X125356310Y-99782430D01*
X125503717Y-99880924D01*
X125629076Y-100006283D01*
X125660388Y-100053145D01*
X125727571Y-100153692D01*
X125795414Y-100317480D01*
X125830000Y-100491358D01*
X125830000Y-100668642D01*
X125795414Y-100842520D01*
X125727570Y-101006310D01*
X125629076Y-101153717D01*
X125503717Y-101279076D01*
X125356310Y-101377570D01*
X125356309Y-101377571D01*
X125356308Y-101377571D01*
X125192520Y-101445414D01*
X125018644Y-101480000D01*
X124841356Y-101480000D01*
X124667480Y-101445414D01*
X124503692Y-101377571D01*
X124503691Y-101377571D01*
X124503690Y-101377570D01*
X124356283Y-101279076D01*
X124230924Y-101153717D01*
X124132430Y-101006310D01*
X124064586Y-100842520D01*
X124030000Y-100668642D01*
X124030000Y-100491358D01*
X124064586Y-100317480D01*
X124132429Y-100153692D01*
X124199612Y-100053145D01*
X124230924Y-100006283D01*
X124356283Y-99880924D01*
X124503690Y-99782430D01*
X124519088Y-99776052D01*
X124667480Y-99714586D01*
X124841356Y-99680000D01*
X125018644Y-99680000D01*
X125192520Y-99714586D01*
X125192520Y-99714586D01*
G37*
G36*
X168019040Y-101460400D02*
G01*
X167219040Y-101460400D01*
X167219040Y-101060400D01*
X168019040Y-101060400D01*
X168019040Y-101460400D01*
X168019040Y-101460400D01*
G37*
G36*
X142146000Y-101366000D02*
G01*
X139606000Y-101366000D01*
X139606000Y-99334000D01*
X142146000Y-99334000D01*
X142146000Y-101366000D01*
X142146000Y-101366000D01*
G37*
G36*
X147376000Y-101366000D02*
G01*
X144376000Y-101366000D01*
X144376000Y-99334000D01*
X147376000Y-99334000D01*
X147376000Y-101366000D01*
X147376000Y-101366000D01*
G37*
G36*
X167113167Y-96808701D02*
G01*
X167113170Y-96808702D01*
X167113171Y-96808702D01*
X167304687Y-96866798D01*
X167304689Y-96866799D01*
X167304692Y-96866800D01*
X167481190Y-96961139D01*
X167635896Y-97088104D01*
X167762861Y-97242810D01*
X167857200Y-97419308D01*
X167857201Y-97419311D01*
X167857202Y-97419313D01*
X167901758Y-97566194D01*
X167915299Y-97610833D01*
X167934915Y-97810000D01*
X167915299Y-98009167D01*
X167915298Y-98009170D01*
X167915298Y-98009171D01*
X167865769Y-98172446D01*
X167857200Y-98200692D01*
X167762861Y-98377190D01*
X167635896Y-98531896D01*
X167481190Y-98658861D01*
X167304692Y-98753200D01*
X167304689Y-98753201D01*
X167304687Y-98753202D01*
X167113171Y-98811298D01*
X167113170Y-98811298D01*
X167113167Y-98811299D01*
X166963906Y-98826000D01*
X165896094Y-98826000D01*
X165746833Y-98811299D01*
X165746830Y-98811298D01*
X165746829Y-98811298D01*
X165555313Y-98753202D01*
X165555311Y-98753201D01*
X165555308Y-98753200D01*
X165378810Y-98658861D01*
X165224104Y-98531896D01*
X165097139Y-98377190D01*
X165002800Y-98200692D01*
X164994232Y-98172446D01*
X164944702Y-98009171D01*
X164944702Y-98009170D01*
X164944701Y-98009167D01*
X164925085Y-97810000D01*
X164944701Y-97610833D01*
X164958242Y-97566194D01*
X165002798Y-97419313D01*
X165002799Y-97419311D01*
X165002800Y-97419308D01*
X165097139Y-97242810D01*
X165224104Y-97088104D01*
X165378810Y-96961139D01*
X165555308Y-96866800D01*
X165555311Y-96866799D01*
X165555313Y-96866798D01*
X165746829Y-96808702D01*
X165746830Y-96808702D01*
X165746833Y-96808701D01*
X165896094Y-96794000D01*
X166963906Y-96794000D01*
X167113167Y-96808701D01*
X167113167Y-96808701D01*
G37*
G36*
X146049975Y-96808701D02*
G01*
X146172356Y-96833044D01*
X146357256Y-96909632D01*
X146523662Y-97020821D01*
X146665179Y-97162338D01*
X146776368Y-97328744D01*
X146813293Y-97417888D01*
X146852956Y-97513645D01*
X146892000Y-97709931D01*
X146892000Y-97910069D01*
X146885420Y-97943147D01*
X146852956Y-98106356D01*
X146776368Y-98291256D01*
X146665179Y-98457662D01*
X146523662Y-98599179D01*
X146357256Y-98710368D01*
X146172356Y-98786956D01*
X146106926Y-98799971D01*
X145976069Y-98826000D01*
X145775931Y-98826000D01*
X145645074Y-98799971D01*
X145579644Y-98786956D01*
X145394744Y-98710368D01*
X145228338Y-98599179D01*
X145086821Y-98457662D01*
X144975632Y-98291256D01*
X144899044Y-98106356D01*
X144866580Y-97943147D01*
X144860000Y-97910069D01*
X144860000Y-97709931D01*
X144899044Y-97513645D01*
X144938708Y-97417888D01*
X144975632Y-97328744D01*
X145086821Y-97162338D01*
X145228338Y-97020821D01*
X145394744Y-96909632D01*
X145579644Y-96833044D01*
X145702025Y-96808701D01*
X145775931Y-96794000D01*
X145976069Y-96794000D01*
X146049975Y-96808701D01*
X146049975Y-96808701D01*
G37*
G36*
X141049975Y-96808701D02*
G01*
X141172356Y-96833044D01*
X141357256Y-96909632D01*
X141523662Y-97020821D01*
X141665179Y-97162338D01*
X141776368Y-97328744D01*
X141813293Y-97417888D01*
X141852956Y-97513645D01*
X141892000Y-97709931D01*
X141892000Y-97910069D01*
X141885420Y-97943147D01*
X141852956Y-98106356D01*
X141776368Y-98291256D01*
X141665179Y-98457662D01*
X141523662Y-98599179D01*
X141357256Y-98710368D01*
X141172356Y-98786956D01*
X141106926Y-98799971D01*
X140976069Y-98826000D01*
X140775931Y-98826000D01*
X140645074Y-98799971D01*
X140579644Y-98786956D01*
X140394744Y-98710368D01*
X140228338Y-98599179D01*
X140086821Y-98457662D01*
X139975632Y-98291256D01*
X139899044Y-98106356D01*
X139866580Y-97943147D01*
X139860000Y-97910069D01*
X139860000Y-97709931D01*
X139899044Y-97513645D01*
X139938708Y-97417888D01*
X139975632Y-97328744D01*
X140086821Y-97162338D01*
X140228338Y-97020821D01*
X140394744Y-96909632D01*
X140579644Y-96833044D01*
X140702025Y-96808701D01*
X140775931Y-96794000D01*
X140976069Y-96794000D01*
X141049975Y-96808701D01*
X141049975Y-96808701D01*
G37*
G36*
X175645836Y-95899483D02*
G01*
X175818365Y-95933801D01*
X176073149Y-96039336D01*
X176302448Y-96192549D01*
X176497451Y-96387552D01*
X176650664Y-96616851D01*
X176756199Y-96871635D01*
X176810000Y-97142112D01*
X176810000Y-97417888D01*
X176756199Y-97688365D01*
X176720261Y-97775126D01*
X176652266Y-97939283D01*
X176650664Y-97943149D01*
X176497451Y-98172448D01*
X176302448Y-98367451D01*
X176073149Y-98520664D01*
X175818365Y-98626199D01*
X175683126Y-98653100D01*
X175547889Y-98680000D01*
X175272111Y-98680000D01*
X175136874Y-98653100D01*
X175001635Y-98626199D01*
X174746851Y-98520664D01*
X174517552Y-98367451D01*
X174322549Y-98172448D01*
X174169336Y-97943149D01*
X174167735Y-97939283D01*
X174099739Y-97775126D01*
X174063801Y-97688365D01*
X174010000Y-97417888D01*
X174010000Y-97142112D01*
X174063801Y-96871635D01*
X174169336Y-96616851D01*
X174322549Y-96387552D01*
X174517552Y-96192549D01*
X174746851Y-96039336D01*
X175001635Y-95933801D01*
X175174164Y-95899483D01*
X175272111Y-95880000D01*
X175547889Y-95880000D01*
X175645836Y-95899483D01*
X175645836Y-95899483D01*
G37*
G36*
X172147534Y-95167643D02*
G01*
X172394644Y-95270000D01*
X172420517Y-95280717D01*
X172486499Y-95324805D01*
X172666193Y-95444873D01*
X172875127Y-95653807D01*
X173039284Y-95899485D01*
X173152357Y-96172466D01*
X173210000Y-96462262D01*
X173210000Y-96757738D01*
X173152357Y-97047534D01*
X173045664Y-97305112D01*
X173039283Y-97320517D01*
X172875126Y-97566194D01*
X172666194Y-97775126D01*
X172420517Y-97939283D01*
X172420516Y-97939284D01*
X172420515Y-97939284D01*
X172147534Y-98052357D01*
X171857738Y-98110000D01*
X171562262Y-98110000D01*
X171272466Y-98052357D01*
X170999485Y-97939284D01*
X170999484Y-97939284D01*
X170999483Y-97939283D01*
X170753806Y-97775126D01*
X170544874Y-97566194D01*
X170380717Y-97320517D01*
X170374336Y-97305112D01*
X170267643Y-97047534D01*
X170210000Y-96757738D01*
X170210000Y-96462262D01*
X170267643Y-96172466D01*
X170380716Y-95899485D01*
X170544873Y-95653807D01*
X170753807Y-95444873D01*
X170933501Y-95324805D01*
X170999483Y-95280717D01*
X171025356Y-95270000D01*
X171272466Y-95167643D01*
X171562262Y-95110000D01*
X171857738Y-95110000D01*
X172147534Y-95167643D01*
X172147534Y-95167643D01*
G37*
G36*
X141049975Y-94268701D02*
G01*
X141172356Y-94293044D01*
X141357256Y-94369632D01*
X141523662Y-94480821D01*
X141665179Y-94622338D01*
X141776368Y-94788744D01*
X141852956Y-94973644D01*
X141865971Y-95039074D01*
X141891545Y-95167643D01*
X141892000Y-95169933D01*
X141892000Y-95370067D01*
X141852956Y-95566356D01*
X141776368Y-95751256D01*
X141665179Y-95917662D01*
X141523662Y-96059179D01*
X141357256Y-96170368D01*
X141172356Y-96246956D01*
X141106926Y-96259971D01*
X140976069Y-96286000D01*
X140775931Y-96286000D01*
X140645074Y-96259971D01*
X140579644Y-96246956D01*
X140394744Y-96170368D01*
X140228338Y-96059179D01*
X140086821Y-95917662D01*
X139975632Y-95751256D01*
X139899044Y-95566356D01*
X139860000Y-95370067D01*
X139860000Y-95169933D01*
X139860456Y-95167643D01*
X139886029Y-95039074D01*
X139899044Y-94973644D01*
X139975632Y-94788744D01*
X140086821Y-94622338D01*
X140228338Y-94480821D01*
X140394744Y-94369632D01*
X140579644Y-94293044D01*
X140702025Y-94268701D01*
X140775931Y-94254000D01*
X140976069Y-94254000D01*
X141049975Y-94268701D01*
X141049975Y-94268701D01*
G37*
G36*
X167113167Y-94268701D02*
G01*
X167113170Y-94268702D01*
X167113171Y-94268702D01*
X167304687Y-94326798D01*
X167304689Y-94326799D01*
X167304692Y-94326800D01*
X167481190Y-94421139D01*
X167635896Y-94548104D01*
X167762861Y-94702810D01*
X167857200Y-94879308D01*
X167857201Y-94879311D01*
X167857202Y-94879313D01*
X167886710Y-94976588D01*
X167915299Y-95070833D01*
X167934915Y-95270000D01*
X167915299Y-95469167D01*
X167857200Y-95660692D01*
X167762861Y-95837190D01*
X167635896Y-95991896D01*
X167481190Y-96118861D01*
X167304692Y-96213200D01*
X167304689Y-96213201D01*
X167304687Y-96213202D01*
X167113171Y-96271298D01*
X167113170Y-96271298D01*
X167113167Y-96271299D01*
X166963906Y-96286000D01*
X165896094Y-96286000D01*
X165746833Y-96271299D01*
X165746830Y-96271298D01*
X165746829Y-96271298D01*
X165555313Y-96213202D01*
X165555311Y-96213201D01*
X165555308Y-96213200D01*
X165378810Y-96118861D01*
X165224104Y-95991896D01*
X165097139Y-95837190D01*
X165002800Y-95660692D01*
X164944701Y-95469167D01*
X164925085Y-95270000D01*
X164944701Y-95070833D01*
X164973290Y-94976588D01*
X165002798Y-94879313D01*
X165002799Y-94879311D01*
X165002800Y-94879308D01*
X165097139Y-94702810D01*
X165224104Y-94548104D01*
X165378810Y-94421139D01*
X165555308Y-94326800D01*
X165555311Y-94326799D01*
X165555313Y-94326798D01*
X165746829Y-94268702D01*
X165746830Y-94268702D01*
X165746833Y-94268701D01*
X165896094Y-94254000D01*
X166963906Y-94254000D01*
X167113167Y-94268701D01*
X167113167Y-94268701D01*
G37*
G36*
X146049975Y-94268701D02*
G01*
X146172356Y-94293044D01*
X146357256Y-94369632D01*
X146523662Y-94480821D01*
X146665179Y-94622338D01*
X146776368Y-94788744D01*
X146852956Y-94973644D01*
X146865971Y-95039074D01*
X146891545Y-95167643D01*
X146892000Y-95169933D01*
X146892000Y-95370067D01*
X146852956Y-95566356D01*
X146776368Y-95751256D01*
X146665179Y-95917662D01*
X146523662Y-96059179D01*
X146357256Y-96170368D01*
X146172356Y-96246956D01*
X146106926Y-96259971D01*
X145976069Y-96286000D01*
X145775931Y-96286000D01*
X145645074Y-96259971D01*
X145579644Y-96246956D01*
X145394744Y-96170368D01*
X145228338Y-96059179D01*
X145086821Y-95917662D01*
X144975632Y-95751256D01*
X144899044Y-95566356D01*
X144860000Y-95370067D01*
X144860000Y-95169933D01*
X144860456Y-95167643D01*
X144886029Y-95039074D01*
X144899044Y-94973644D01*
X144975632Y-94788744D01*
X145086821Y-94622338D01*
X145228338Y-94480821D01*
X145394744Y-94369632D01*
X145579644Y-94293044D01*
X145702025Y-94268701D01*
X145775931Y-94254000D01*
X145976069Y-94254000D01*
X146049975Y-94268701D01*
X146049975Y-94268701D01*
G37*
G36*
X117402520Y-94024586D02*
G01*
X117521691Y-94073948D01*
X117566310Y-94092430D01*
X117713717Y-94190924D01*
X117839076Y-94316283D01*
X117909138Y-94421139D01*
X117937571Y-94463692D01*
X118005414Y-94627480D01*
X118040000Y-94801356D01*
X118040000Y-94978644D01*
X118013872Y-95110000D01*
X118005414Y-95152520D01*
X117937570Y-95316310D01*
X117839076Y-95463717D01*
X117713717Y-95589076D01*
X117566310Y-95687570D01*
X117566309Y-95687571D01*
X117566308Y-95687571D01*
X117402520Y-95755414D01*
X117228644Y-95790000D01*
X117051356Y-95790000D01*
X116877480Y-95755414D01*
X116713692Y-95687571D01*
X116713691Y-95687571D01*
X116713690Y-95687570D01*
X116566283Y-95589076D01*
X116440924Y-95463717D01*
X116342430Y-95316310D01*
X116274586Y-95152520D01*
X116266128Y-95110000D01*
X116240000Y-94978644D01*
X116240000Y-94801356D01*
X116274586Y-94627480D01*
X116342429Y-94463692D01*
X116370862Y-94421139D01*
X116440924Y-94316283D01*
X116566283Y-94190924D01*
X116713690Y-94092430D01*
X116758310Y-94073948D01*
X116877480Y-94024586D01*
X117051356Y-93990000D01*
X117228644Y-93990000D01*
X117402520Y-94024586D01*
X117402520Y-94024586D01*
G37*
G36*
X115500000Y-95790000D02*
G01*
X113700000Y-95790000D01*
X113700000Y-93990000D01*
X115500000Y-93990000D01*
X115500000Y-95790000D01*
X115500000Y-95790000D01*
G37*
G36*
X130036646Y-92711040D02*
G01*
X130171885Y-92737941D01*
X130426669Y-92843476D01*
X130655968Y-92996689D01*
X130850971Y-93191692D01*
X131004184Y-93420991D01*
X131109719Y-93675775D01*
X131133803Y-93796855D01*
X131163520Y-93946251D01*
X131163520Y-94222029D01*
X131156147Y-94259096D01*
X131109719Y-94492505D01*
X131004184Y-94747289D01*
X130850971Y-94976588D01*
X130655968Y-95171591D01*
X130426669Y-95324804D01*
X130171885Y-95430339D01*
X130098817Y-95444873D01*
X129901409Y-95484140D01*
X129625631Y-95484140D01*
X129428223Y-95444873D01*
X129355155Y-95430339D01*
X129100371Y-95324804D01*
X128871072Y-95171591D01*
X128676069Y-94976588D01*
X128522856Y-94747289D01*
X128417321Y-94492505D01*
X128370893Y-94259096D01*
X128363520Y-94222029D01*
X128363520Y-93946251D01*
X128393237Y-93796855D01*
X128417321Y-93675775D01*
X128522856Y-93420991D01*
X128676069Y-93191692D01*
X128871072Y-92996689D01*
X129100371Y-92843476D01*
X129355155Y-92737941D01*
X129490394Y-92711040D01*
X129625631Y-92684140D01*
X129901409Y-92684140D01*
X130036646Y-92711040D01*
X130036646Y-92711040D01*
G37*
G36*
X173636627Y-92632299D02*
G01*
X173716742Y-92656602D01*
X173796855Y-92680903D01*
X173796857Y-92680904D01*
X173944518Y-92759831D01*
X174073949Y-92866051D01*
X174180169Y-92995482D01*
X174259096Y-93143143D01*
X174307701Y-93303373D01*
X174324112Y-93470000D01*
X174307701Y-93636627D01*
X174259096Y-93796857D01*
X174180169Y-93944518D01*
X174073949Y-94073949D01*
X173944518Y-94180169D01*
X173866204Y-94222029D01*
X173796855Y-94259097D01*
X173716742Y-94283398D01*
X173636627Y-94307701D01*
X173511752Y-94320000D01*
X173428248Y-94320000D01*
X173303373Y-94307701D01*
X173223258Y-94283398D01*
X173143145Y-94259097D01*
X173073796Y-94222029D01*
X172995482Y-94180169D01*
X172866051Y-94073949D01*
X172759831Y-93944518D01*
X172680904Y-93796857D01*
X172632299Y-93636627D01*
X172615888Y-93470000D01*
X172632299Y-93303373D01*
X172680904Y-93143143D01*
X172759831Y-92995482D01*
X172866051Y-92866051D01*
X172995482Y-92759831D01*
X173143143Y-92680904D01*
X173143145Y-92680903D01*
X173223258Y-92656602D01*
X173303373Y-92632299D01*
X173428248Y-92620000D01*
X173511752Y-92620000D01*
X173636627Y-92632299D01*
X173636627Y-92632299D01*
G37*
G36*
X171780000Y-94320000D02*
G01*
X170080000Y-94320000D01*
X170080000Y-92620000D01*
X171780000Y-92620000D01*
X171780000Y-94320000D01*
X171780000Y-94320000D01*
G37*
G36*
X141049975Y-91728701D02*
G01*
X141172356Y-91753044D01*
X141253845Y-91786798D01*
X141357256Y-91829632D01*
X141523662Y-91940821D01*
X141665179Y-92082338D01*
X141776368Y-92248744D01*
X141852956Y-92433645D01*
X141892000Y-92629931D01*
X141892000Y-92830069D01*
X141884842Y-92866052D01*
X141852956Y-93026356D01*
X141776368Y-93211256D01*
X141665179Y-93377662D01*
X141523662Y-93519179D01*
X141357256Y-93630368D01*
X141172356Y-93706956D01*
X141106926Y-93719971D01*
X140976069Y-93746000D01*
X140775931Y-93746000D01*
X140645074Y-93719971D01*
X140579644Y-93706956D01*
X140394744Y-93630368D01*
X140228338Y-93519179D01*
X140086821Y-93377662D01*
X139975632Y-93211256D01*
X139899044Y-93026356D01*
X139867158Y-92866052D01*
X139860000Y-92830069D01*
X139860000Y-92629931D01*
X139899044Y-92433645D01*
X139975632Y-92248744D01*
X140086821Y-92082338D01*
X140228338Y-91940821D01*
X140394744Y-91829632D01*
X140498155Y-91786798D01*
X140579644Y-91753044D01*
X140702025Y-91728701D01*
X140775931Y-91714000D01*
X140976069Y-91714000D01*
X141049975Y-91728701D01*
X141049975Y-91728701D01*
G37*
G36*
X167113167Y-91728701D02*
G01*
X167113170Y-91728702D01*
X167113171Y-91728702D01*
X167304687Y-91786798D01*
X167304689Y-91786799D01*
X167304692Y-91786800D01*
X167481190Y-91881139D01*
X167635896Y-92008104D01*
X167762861Y-92162810D01*
X167857200Y-92339308D01*
X167915299Y-92530833D01*
X167934915Y-92730000D01*
X167915299Y-92929167D01*
X167915298Y-92929170D01*
X167915298Y-92929171D01*
X167894817Y-92996689D01*
X167857200Y-93120692D01*
X167762861Y-93297190D01*
X167635896Y-93451896D01*
X167481190Y-93578861D01*
X167304692Y-93673200D01*
X167304689Y-93673201D01*
X167304687Y-93673202D01*
X167113171Y-93731298D01*
X167113170Y-93731298D01*
X167113167Y-93731299D01*
X166963906Y-93746000D01*
X165896094Y-93746000D01*
X165746833Y-93731299D01*
X165746830Y-93731298D01*
X165746829Y-93731298D01*
X165555313Y-93673202D01*
X165555311Y-93673201D01*
X165555308Y-93673200D01*
X165378810Y-93578861D01*
X165224104Y-93451896D01*
X165097139Y-93297190D01*
X165002800Y-93120692D01*
X164965184Y-92996689D01*
X164944702Y-92929171D01*
X164944702Y-92929170D01*
X164944701Y-92929167D01*
X164925085Y-92730000D01*
X164944701Y-92530833D01*
X165002800Y-92339308D01*
X165097139Y-92162810D01*
X165224104Y-92008104D01*
X165378810Y-91881139D01*
X165555308Y-91786800D01*
X165555311Y-91786799D01*
X165555313Y-91786798D01*
X165746829Y-91728702D01*
X165746830Y-91728702D01*
X165746833Y-91728701D01*
X165896094Y-91714000D01*
X166963906Y-91714000D01*
X167113167Y-91728701D01*
X167113167Y-91728701D01*
G37*
G36*
X146049975Y-91728701D02*
G01*
X146172356Y-91753044D01*
X146253845Y-91786798D01*
X146357256Y-91829632D01*
X146523662Y-91940821D01*
X146665179Y-92082338D01*
X146776368Y-92248744D01*
X146852956Y-92433645D01*
X146892000Y-92629931D01*
X146892000Y-92830069D01*
X146884842Y-92866052D01*
X146852956Y-93026356D01*
X146776368Y-93211256D01*
X146665179Y-93377662D01*
X146523662Y-93519179D01*
X146357256Y-93630368D01*
X146172356Y-93706956D01*
X146106926Y-93719971D01*
X145976069Y-93746000D01*
X145775931Y-93746000D01*
X145645074Y-93719971D01*
X145579644Y-93706956D01*
X145394744Y-93630368D01*
X145228338Y-93519179D01*
X145086821Y-93377662D01*
X144975632Y-93211256D01*
X144899044Y-93026356D01*
X144867158Y-92866052D01*
X144860000Y-92830069D01*
X144860000Y-92629931D01*
X144899044Y-92433645D01*
X144975632Y-92248744D01*
X145086821Y-92082338D01*
X145228338Y-91940821D01*
X145394744Y-91829632D01*
X145498155Y-91786798D01*
X145579644Y-91753044D01*
X145702025Y-91728701D01*
X145775931Y-91714000D01*
X145976069Y-91714000D01*
X146049975Y-91728701D01*
X146049975Y-91728701D01*
G37*
G36*
X166035773Y-89139749D02*
G01*
X166048970Y-89141136D01*
X166048973Y-89141108D01*
X166049836Y-89141286D01*
X166065212Y-89142794D01*
X166066311Y-89142960D01*
X166094372Y-89145910D01*
X166106406Y-89148381D01*
X166165817Y-89166774D01*
X166165918Y-89166448D01*
X166180207Y-89170864D01*
X166205233Y-89173395D01*
X166657722Y-89173395D01*
X166682108Y-89170993D01*
X166705355Y-89163964D01*
X166722957Y-89156709D01*
X166734724Y-89153156D01*
X166789732Y-89142264D01*
X166801953Y-89141066D01*
X166861100Y-89141065D01*
X166867264Y-89141366D01*
X166999890Y-89154370D01*
X167000180Y-89154400D01*
X167001787Y-89154569D01*
X167008315Y-89155603D01*
X167035258Y-89161330D01*
X167036968Y-89161681D01*
X167064240Y-89167081D01*
X167073192Y-89169313D01*
X167073328Y-89168768D01*
X167104654Y-89173395D01*
X167923863Y-89173395D01*
X167929999Y-89173999D01*
X167930001Y-89174001D01*
X167930605Y-89180137D01*
X167930605Y-91199863D01*
X167930001Y-91205999D01*
X167929999Y-91206001D01*
X167923863Y-91206605D01*
X167106520Y-91206605D01*
X167075857Y-91210424D01*
X167073600Y-91210995D01*
X167046573Y-91216346D01*
X167044855Y-91216699D01*
X167017668Y-91222479D01*
X167011595Y-91223462D01*
X166879001Y-91238336D01*
X166878625Y-91238377D01*
X166877253Y-91238521D01*
X166870653Y-91238867D01*
X166864604Y-91238867D01*
X166851539Y-91239552D01*
X166845313Y-91240206D01*
X166839161Y-91240550D01*
X166832577Y-91240596D01*
X166832297Y-91240597D01*
X166830823Y-91240597D01*
X166824227Y-91240251D01*
X166811030Y-91238864D01*
X166811027Y-91238892D01*
X166810164Y-91238714D01*
X166794788Y-91237206D01*
X166793689Y-91237040D01*
X166765631Y-91234090D01*
X166753600Y-91231620D01*
X166694182Y-91213225D01*
X166694081Y-91213552D01*
X166679793Y-91209136D01*
X166654767Y-91206605D01*
X166202278Y-91206605D01*
X166177892Y-91209007D01*
X166154645Y-91216036D01*
X166137043Y-91223291D01*
X166125276Y-91226844D01*
X166070268Y-91237736D01*
X166058047Y-91238934D01*
X165998900Y-91238935D01*
X165992736Y-91238634D01*
X165860110Y-91225630D01*
X165859820Y-91225600D01*
X165858213Y-91225431D01*
X165851685Y-91224397D01*
X165824742Y-91218670D01*
X165823032Y-91218319D01*
X165795760Y-91212919D01*
X165786808Y-91210687D01*
X165786672Y-91211232D01*
X165755346Y-91206605D01*
X164936137Y-91206605D01*
X164930001Y-91206001D01*
X164929999Y-91205999D01*
X164929395Y-91199863D01*
X164929395Y-89180137D01*
X164929999Y-89174001D01*
X164930001Y-89173999D01*
X164936137Y-89173395D01*
X165753479Y-89173395D01*
X165784142Y-89169576D01*
X165786401Y-89169004D01*
X165813466Y-89163645D01*
X165815175Y-89163294D01*
X165842326Y-89157523D01*
X165848415Y-89156536D01*
X165981026Y-89141661D01*
X165981147Y-89141648D01*
X165982765Y-89141478D01*
X165989339Y-89141133D01*
X165995396Y-89141133D01*
X166008461Y-89140448D01*
X166014687Y-89139794D01*
X166020839Y-89139450D01*
X166027423Y-89139404D01*
X166027703Y-89139403D01*
X166029177Y-89139403D01*
X166035773Y-89139749D01*
X166035773Y-89139749D01*
G37*
G36*
X141106926Y-89200029D02*
G01*
X141172356Y-89213044D01*
X141357256Y-89289632D01*
X141523662Y-89400821D01*
X141665179Y-89542338D01*
X141776368Y-89708744D01*
X141852956Y-89893644D01*
X141892000Y-90089933D01*
X141892000Y-90290067D01*
X141852956Y-90486356D01*
X141776368Y-90671256D01*
X141665179Y-90837662D01*
X141523662Y-90979179D01*
X141357256Y-91090368D01*
X141172356Y-91166956D01*
X141106926Y-91179971D01*
X140976069Y-91206000D01*
X140775931Y-91206000D01*
X140645074Y-91179971D01*
X140579644Y-91166956D01*
X140394744Y-91090368D01*
X140228338Y-90979179D01*
X140086821Y-90837662D01*
X139975632Y-90671256D01*
X139899044Y-90486356D01*
X139860000Y-90290067D01*
X139860000Y-90089933D01*
X139899044Y-89893644D01*
X139975632Y-89708744D01*
X140086821Y-89542338D01*
X140228338Y-89400821D01*
X140394744Y-89289632D01*
X140579644Y-89213044D01*
X140645074Y-89200029D01*
X140775931Y-89174000D01*
X140976069Y-89174000D01*
X141106926Y-89200029D01*
X141106926Y-89200029D01*
G37*
G36*
X146106926Y-89200029D02*
G01*
X146172356Y-89213044D01*
X146357256Y-89289632D01*
X146523662Y-89400821D01*
X146665179Y-89542338D01*
X146776368Y-89708744D01*
X146852956Y-89893644D01*
X146892000Y-90089933D01*
X146892000Y-90290067D01*
X146852956Y-90486356D01*
X146776368Y-90671256D01*
X146665179Y-90837662D01*
X146523662Y-90979179D01*
X146357256Y-91090368D01*
X146172356Y-91166956D01*
X146106926Y-91179971D01*
X145976069Y-91206000D01*
X145775931Y-91206000D01*
X145645074Y-91179971D01*
X145579644Y-91166956D01*
X145394744Y-91090368D01*
X145228338Y-90979179D01*
X145086821Y-90837662D01*
X144975632Y-90671256D01*
X144899044Y-90486356D01*
X144860000Y-90290067D01*
X144860000Y-90089933D01*
X144899044Y-89893644D01*
X144975632Y-89708744D01*
X145086821Y-89542338D01*
X145228338Y-89400821D01*
X145394744Y-89289632D01*
X145579644Y-89213044D01*
X145645074Y-89200029D01*
X145775931Y-89174000D01*
X145976069Y-89174000D01*
X146106926Y-89200029D01*
X146106926Y-89200029D01*
G37*
G36*
X171790000Y-90710000D02*
G01*
X170090000Y-90710000D01*
X170090000Y-89010000D01*
X171790000Y-89010000D01*
X171790000Y-90710000D01*
X171790000Y-90710000D01*
G37*
G36*
X173646627Y-89022299D02*
G01*
X173726742Y-89046602D01*
X173806855Y-89070903D01*
X173806857Y-89070904D01*
X173954518Y-89149831D01*
X174083949Y-89256051D01*
X174190169Y-89385482D01*
X174222050Y-89445127D01*
X174269097Y-89533145D01*
X174292193Y-89609283D01*
X174317701Y-89693373D01*
X174334112Y-89860000D01*
X174317701Y-90026627D01*
X174269096Y-90186857D01*
X174190169Y-90334518D01*
X174083949Y-90463949D01*
X173954518Y-90570169D01*
X173806857Y-90649096D01*
X173806855Y-90649097D01*
X173733805Y-90671256D01*
X173646627Y-90697701D01*
X173521752Y-90710000D01*
X173438248Y-90710000D01*
X173313373Y-90697701D01*
X173226195Y-90671256D01*
X173153145Y-90649097D01*
X173153143Y-90649096D01*
X173005482Y-90570169D01*
X172876051Y-90463949D01*
X172769831Y-90334518D01*
X172690904Y-90186857D01*
X172642299Y-90026627D01*
X172625888Y-89860000D01*
X172642299Y-89693373D01*
X172667807Y-89609283D01*
X172690903Y-89533145D01*
X172737950Y-89445127D01*
X172769831Y-89385482D01*
X172876051Y-89256051D01*
X173005482Y-89149831D01*
X173153143Y-89070904D01*
X173153145Y-89070903D01*
X173233258Y-89046602D01*
X173313373Y-89022299D01*
X173438248Y-89010000D01*
X173521752Y-89010000D01*
X173646627Y-89022299D01*
X173646627Y-89022299D01*
G37*
G36*
X120907534Y-86837643D02*
G01*
X121174559Y-86948249D01*
X121180517Y-86950717D01*
X121426194Y-87114874D01*
X121635126Y-87323806D01*
X121786219Y-87549931D01*
X121799284Y-87569485D01*
X121912357Y-87842466D01*
X121970000Y-88132262D01*
X121970000Y-88427738D01*
X121912357Y-88717534D01*
X121803639Y-88980000D01*
X121799283Y-88990517D01*
X121745570Y-89070904D01*
X121650595Y-89213044D01*
X121635126Y-89236194D01*
X121426194Y-89445126D01*
X121180517Y-89609283D01*
X121180516Y-89609284D01*
X121180515Y-89609284D01*
X120907534Y-89722357D01*
X120617738Y-89780000D01*
X120322262Y-89780000D01*
X120032466Y-89722357D01*
X119759485Y-89609284D01*
X119759484Y-89609284D01*
X119759483Y-89609283D01*
X119513806Y-89445126D01*
X119304874Y-89236194D01*
X119289406Y-89213044D01*
X119194430Y-89070904D01*
X119140717Y-88990517D01*
X119136361Y-88980000D01*
X119027643Y-88717534D01*
X118970000Y-88427738D01*
X118970000Y-88132262D01*
X119027643Y-87842466D01*
X119140716Y-87569485D01*
X119153782Y-87549931D01*
X119304874Y-87323806D01*
X119513806Y-87114874D01*
X119759483Y-86950717D01*
X119765441Y-86948249D01*
X120032466Y-86837643D01*
X120322262Y-86780000D01*
X120617738Y-86780000D01*
X120907534Y-86837643D01*
X120907534Y-86837643D01*
G37*
G36*
X115500000Y-88980000D02*
G01*
X113700000Y-88980000D01*
X113700000Y-87180000D01*
X115500000Y-87180000D01*
X115500000Y-88980000D01*
X115500000Y-88980000D01*
G37*
G36*
X117402520Y-87214586D02*
G01*
X117566310Y-87282430D01*
X117713717Y-87380924D01*
X117839076Y-87506283D01*
X117881306Y-87569485D01*
X117937571Y-87653692D01*
X118005414Y-87817480D01*
X118031049Y-87946355D01*
X118040000Y-87991358D01*
X118040000Y-88168642D01*
X118005414Y-88342520D01*
X117937570Y-88506310D01*
X117839076Y-88653717D01*
X117713717Y-88779076D01*
X117566310Y-88877570D01*
X117566309Y-88877571D01*
X117566308Y-88877571D01*
X117402520Y-88945414D01*
X117228644Y-88980000D01*
X117051356Y-88980000D01*
X116877480Y-88945414D01*
X116713692Y-88877571D01*
X116713691Y-88877571D01*
X116713690Y-88877570D01*
X116566283Y-88779076D01*
X116440924Y-88653717D01*
X116342430Y-88506310D01*
X116274586Y-88342520D01*
X116240000Y-88168642D01*
X116240000Y-87991358D01*
X116248952Y-87946355D01*
X116274586Y-87817480D01*
X116342429Y-87653692D01*
X116398694Y-87569485D01*
X116440924Y-87506283D01*
X116566283Y-87380924D01*
X116713690Y-87282430D01*
X116877480Y-87214586D01*
X117051356Y-87180000D01*
X117228644Y-87180000D01*
X117402520Y-87214586D01*
X117402520Y-87214586D01*
G37*
G36*
X146106926Y-86660029D02*
G01*
X146172356Y-86673044D01*
X146357256Y-86749632D01*
X146523662Y-86860821D01*
X146665179Y-87002338D01*
X146776368Y-87168744D01*
X146852956Y-87353644D01*
X146892000Y-87549933D01*
X146892000Y-87750067D01*
X146852956Y-87946356D01*
X146776368Y-88131256D01*
X146665179Y-88297662D01*
X146523662Y-88439179D01*
X146357256Y-88550368D01*
X146172356Y-88626956D01*
X146106926Y-88639971D01*
X145976069Y-88666000D01*
X145775931Y-88666000D01*
X145645074Y-88639971D01*
X145579644Y-88626956D01*
X145394744Y-88550368D01*
X145228338Y-88439179D01*
X145086821Y-88297662D01*
X144975632Y-88131256D01*
X144899044Y-87946356D01*
X144860000Y-87750067D01*
X144860000Y-87549933D01*
X144899044Y-87353644D01*
X144975632Y-87168744D01*
X145086821Y-87002338D01*
X145228338Y-86860821D01*
X145394744Y-86749632D01*
X145579644Y-86673044D01*
X145645074Y-86660029D01*
X145775931Y-86634000D01*
X145976069Y-86634000D01*
X146106926Y-86660029D01*
X146106926Y-86660029D01*
G37*
G36*
X141106926Y-86660029D02*
G01*
X141172356Y-86673044D01*
X141357256Y-86749632D01*
X141523662Y-86860821D01*
X141665179Y-87002338D01*
X141776368Y-87168744D01*
X141852956Y-87353644D01*
X141892000Y-87549933D01*
X141892000Y-87750067D01*
X141852956Y-87946356D01*
X141776368Y-88131256D01*
X141665179Y-88297662D01*
X141523662Y-88439179D01*
X141357256Y-88550368D01*
X141172356Y-88626956D01*
X141106926Y-88639971D01*
X140976069Y-88666000D01*
X140775931Y-88666000D01*
X140645074Y-88639971D01*
X140579644Y-88626956D01*
X140394744Y-88550368D01*
X140228338Y-88439179D01*
X140086821Y-88297662D01*
X139975632Y-88131256D01*
X139899044Y-87946356D01*
X139860000Y-87750067D01*
X139860000Y-87549933D01*
X139899044Y-87353644D01*
X139975632Y-87168744D01*
X140086821Y-87002338D01*
X140228338Y-86860821D01*
X140394744Y-86749632D01*
X140579644Y-86673044D01*
X140645074Y-86660029D01*
X140775931Y-86634000D01*
X140976069Y-86634000D01*
X141106926Y-86660029D01*
X141106926Y-86660029D01*
G37*
G36*
X157961587Y-85400379D02*
G01*
X158041702Y-85424682D01*
X158121815Y-85448983D01*
X158121817Y-85448984D01*
X158269478Y-85527911D01*
X158398909Y-85634131D01*
X158505129Y-85763562D01*
X158584056Y-85911223D01*
X158632661Y-86071453D01*
X158649072Y-86238080D01*
X158632661Y-86404707D01*
X158584056Y-86564937D01*
X158505129Y-86712598D01*
X158398909Y-86842029D01*
X158269478Y-86948249D01*
X158168285Y-87002338D01*
X158121815Y-87027177D01*
X158041702Y-87051479D01*
X157961587Y-87075781D01*
X157836712Y-87088080D01*
X157753208Y-87088080D01*
X157628333Y-87075781D01*
X157548218Y-87051479D01*
X157468105Y-87027177D01*
X157421635Y-87002338D01*
X157320442Y-86948249D01*
X157191011Y-86842029D01*
X157084791Y-86712598D01*
X157005864Y-86564937D01*
X156957259Y-86404707D01*
X156940848Y-86238080D01*
X156957259Y-86071453D01*
X157005864Y-85911223D01*
X157084791Y-85763562D01*
X157191011Y-85634131D01*
X157320442Y-85527911D01*
X157468103Y-85448984D01*
X157468105Y-85448983D01*
X157548218Y-85424682D01*
X157628333Y-85400379D01*
X157753208Y-85388080D01*
X157836712Y-85388080D01*
X157961587Y-85400379D01*
X157961587Y-85400379D01*
G37*
G36*
X173201587Y-85400379D02*
G01*
X173281702Y-85424682D01*
X173361815Y-85448983D01*
X173361817Y-85448984D01*
X173509478Y-85527911D01*
X173638909Y-85634131D01*
X173745129Y-85763562D01*
X173824056Y-85911223D01*
X173872661Y-86071453D01*
X173889072Y-86238080D01*
X173872661Y-86404707D01*
X173824056Y-86564937D01*
X173745129Y-86712598D01*
X173638909Y-86842029D01*
X173509478Y-86948249D01*
X173408285Y-87002338D01*
X173361815Y-87027177D01*
X173281702Y-87051479D01*
X173201587Y-87075781D01*
X173076712Y-87088080D01*
X172993208Y-87088080D01*
X172868333Y-87075781D01*
X172788218Y-87051479D01*
X172708105Y-87027177D01*
X172661635Y-87002338D01*
X172560442Y-86948249D01*
X172431011Y-86842029D01*
X172324791Y-86712598D01*
X172245864Y-86564937D01*
X172197259Y-86404707D01*
X172180848Y-86238080D01*
X172197259Y-86071453D01*
X172245864Y-85911223D01*
X172324791Y-85763562D01*
X172431011Y-85634131D01*
X172560442Y-85527911D01*
X172708103Y-85448984D01*
X172708105Y-85448983D01*
X172788218Y-85424682D01*
X172868333Y-85400379D01*
X172993208Y-85388080D01*
X173076712Y-85388080D01*
X173201587Y-85400379D01*
X173201587Y-85400379D01*
G37*
G36*
X168121587Y-85400379D02*
G01*
X168201702Y-85424682D01*
X168281815Y-85448983D01*
X168281817Y-85448984D01*
X168429478Y-85527911D01*
X168558909Y-85634131D01*
X168665129Y-85763562D01*
X168744056Y-85911223D01*
X168792661Y-86071453D01*
X168809072Y-86238080D01*
X168792661Y-86404707D01*
X168744056Y-86564937D01*
X168665129Y-86712598D01*
X168558909Y-86842029D01*
X168429478Y-86948249D01*
X168328285Y-87002338D01*
X168281815Y-87027177D01*
X168201702Y-87051479D01*
X168121587Y-87075781D01*
X167996712Y-87088080D01*
X167913208Y-87088080D01*
X167788333Y-87075781D01*
X167708218Y-87051479D01*
X167628105Y-87027177D01*
X167581635Y-87002338D01*
X167480442Y-86948249D01*
X167351011Y-86842029D01*
X167244791Y-86712598D01*
X167165864Y-86564937D01*
X167117259Y-86404707D01*
X167100848Y-86238080D01*
X167117259Y-86071453D01*
X167165864Y-85911223D01*
X167244791Y-85763562D01*
X167351011Y-85634131D01*
X167480442Y-85527911D01*
X167628103Y-85448984D01*
X167628105Y-85448983D01*
X167708218Y-85424682D01*
X167788333Y-85400379D01*
X167913208Y-85388080D01*
X167996712Y-85388080D01*
X168121587Y-85400379D01*
X168121587Y-85400379D01*
G37*
G36*
X165581587Y-85400379D02*
G01*
X165661702Y-85424682D01*
X165741815Y-85448983D01*
X165741817Y-85448984D01*
X165889478Y-85527911D01*
X166018909Y-85634131D01*
X166125129Y-85763562D01*
X166204056Y-85911223D01*
X166252661Y-86071453D01*
X166269072Y-86238080D01*
X166252661Y-86404707D01*
X166204056Y-86564937D01*
X166125129Y-86712598D01*
X166018909Y-86842029D01*
X165889478Y-86948249D01*
X165788285Y-87002338D01*
X165741815Y-87027177D01*
X165661702Y-87051479D01*
X165581587Y-87075781D01*
X165456712Y-87088080D01*
X165373208Y-87088080D01*
X165248333Y-87075781D01*
X165168218Y-87051479D01*
X165088105Y-87027177D01*
X165041635Y-87002338D01*
X164940442Y-86948249D01*
X164811011Y-86842029D01*
X164704791Y-86712598D01*
X164625864Y-86564937D01*
X164577259Y-86404707D01*
X164560848Y-86238080D01*
X164577259Y-86071453D01*
X164625864Y-85911223D01*
X164704791Y-85763562D01*
X164811011Y-85634131D01*
X164940442Y-85527911D01*
X165088103Y-85448984D01*
X165088105Y-85448983D01*
X165168218Y-85424682D01*
X165248333Y-85400379D01*
X165373208Y-85388080D01*
X165456712Y-85388080D01*
X165581587Y-85400379D01*
X165581587Y-85400379D01*
G37*
G36*
X163041587Y-85400379D02*
G01*
X163121702Y-85424682D01*
X163201815Y-85448983D01*
X163201817Y-85448984D01*
X163349478Y-85527911D01*
X163478909Y-85634131D01*
X163585129Y-85763562D01*
X163664056Y-85911223D01*
X163712661Y-86071453D01*
X163729072Y-86238080D01*
X163712661Y-86404707D01*
X163664056Y-86564937D01*
X163585129Y-86712598D01*
X163478909Y-86842029D01*
X163349478Y-86948249D01*
X163248285Y-87002338D01*
X163201815Y-87027177D01*
X163121702Y-87051479D01*
X163041587Y-87075781D01*
X162916712Y-87088080D01*
X162833208Y-87088080D01*
X162708333Y-87075781D01*
X162628218Y-87051479D01*
X162548105Y-87027177D01*
X162501635Y-87002338D01*
X162400442Y-86948249D01*
X162271011Y-86842029D01*
X162164791Y-86712598D01*
X162085864Y-86564937D01*
X162037259Y-86404707D01*
X162020848Y-86238080D01*
X162037259Y-86071453D01*
X162085864Y-85911223D01*
X162164791Y-85763562D01*
X162271011Y-85634131D01*
X162400442Y-85527911D01*
X162548103Y-85448984D01*
X162548105Y-85448983D01*
X162628218Y-85424682D01*
X162708333Y-85400379D01*
X162833208Y-85388080D01*
X162916712Y-85388080D01*
X163041587Y-85400379D01*
X163041587Y-85400379D01*
G37*
G36*
X160501587Y-85400379D02*
G01*
X160581702Y-85424682D01*
X160661815Y-85448983D01*
X160661817Y-85448984D01*
X160809478Y-85527911D01*
X160938909Y-85634131D01*
X161045129Y-85763562D01*
X161124056Y-85911223D01*
X161172661Y-86071453D01*
X161189072Y-86238080D01*
X161172661Y-86404707D01*
X161124056Y-86564937D01*
X161045129Y-86712598D01*
X160938909Y-86842029D01*
X160809478Y-86948249D01*
X160708285Y-87002338D01*
X160661815Y-87027177D01*
X160581702Y-87051479D01*
X160501587Y-87075781D01*
X160376712Y-87088080D01*
X160293208Y-87088080D01*
X160168333Y-87075781D01*
X160088218Y-87051479D01*
X160008105Y-87027177D01*
X159961635Y-87002338D01*
X159860442Y-86948249D01*
X159731011Y-86842029D01*
X159624791Y-86712598D01*
X159545864Y-86564937D01*
X159497259Y-86404707D01*
X159480848Y-86238080D01*
X159497259Y-86071453D01*
X159545864Y-85911223D01*
X159624791Y-85763562D01*
X159731011Y-85634131D01*
X159860442Y-85527911D01*
X160008103Y-85448984D01*
X160008105Y-85448983D01*
X160088218Y-85424682D01*
X160168333Y-85400379D01*
X160293208Y-85388080D01*
X160376712Y-85388080D01*
X160501587Y-85400379D01*
X160501587Y-85400379D01*
G37*
G36*
X155421587Y-85400379D02*
G01*
X155501702Y-85424682D01*
X155581815Y-85448983D01*
X155581817Y-85448984D01*
X155729478Y-85527911D01*
X155858909Y-85634131D01*
X155965129Y-85763562D01*
X156044056Y-85911223D01*
X156092661Y-86071453D01*
X156109072Y-86238080D01*
X156092661Y-86404707D01*
X156044056Y-86564937D01*
X155965129Y-86712598D01*
X155858909Y-86842029D01*
X155729478Y-86948249D01*
X155628285Y-87002338D01*
X155581815Y-87027177D01*
X155501702Y-87051479D01*
X155421587Y-87075781D01*
X155296712Y-87088080D01*
X155213208Y-87088080D01*
X155088333Y-87075781D01*
X155008218Y-87051479D01*
X154928105Y-87027177D01*
X154881635Y-87002338D01*
X154780442Y-86948249D01*
X154651011Y-86842029D01*
X154544791Y-86712598D01*
X154465864Y-86564937D01*
X154417259Y-86404707D01*
X154400848Y-86238080D01*
X154417259Y-86071453D01*
X154465864Y-85911223D01*
X154544791Y-85763562D01*
X154651011Y-85634131D01*
X154780442Y-85527911D01*
X154928103Y-85448984D01*
X154928105Y-85448983D01*
X155008218Y-85424682D01*
X155088333Y-85400379D01*
X155213208Y-85388080D01*
X155296712Y-85388080D01*
X155421587Y-85400379D01*
X155421587Y-85400379D01*
G37*
G36*
X153564960Y-87088080D02*
G01*
X151864960Y-87088080D01*
X151864960Y-85388080D01*
X153564960Y-85388080D01*
X153564960Y-87088080D01*
X153564960Y-87088080D01*
G37*
G36*
X170661587Y-85400379D02*
G01*
X170741702Y-85424682D01*
X170821815Y-85448983D01*
X170821817Y-85448984D01*
X170969478Y-85527911D01*
X171098909Y-85634131D01*
X171205129Y-85763562D01*
X171284056Y-85911223D01*
X171332661Y-86071453D01*
X171349072Y-86238080D01*
X171332661Y-86404707D01*
X171284056Y-86564937D01*
X171205129Y-86712598D01*
X171098909Y-86842029D01*
X170969478Y-86948249D01*
X170868285Y-87002338D01*
X170821815Y-87027177D01*
X170741702Y-87051479D01*
X170661587Y-87075781D01*
X170536712Y-87088080D01*
X170453208Y-87088080D01*
X170328333Y-87075781D01*
X170248218Y-87051479D01*
X170168105Y-87027177D01*
X170121635Y-87002338D01*
X170020442Y-86948249D01*
X169891011Y-86842029D01*
X169784791Y-86712598D01*
X169705864Y-86564937D01*
X169657259Y-86404707D01*
X169640848Y-86238080D01*
X169657259Y-86071453D01*
X169705864Y-85911223D01*
X169784791Y-85763562D01*
X169891011Y-85634131D01*
X170020442Y-85527911D01*
X170168103Y-85448984D01*
X170168105Y-85448983D01*
X170248218Y-85424682D01*
X170328333Y-85400379D01*
X170453208Y-85388080D01*
X170536712Y-85388080D01*
X170661587Y-85400379D01*
X170661587Y-85400379D01*
G37*
G36*
X116384116Y-84708595D02*
G01*
X116413311Y-84717452D01*
X116440223Y-84731837D01*
X116463808Y-84751192D01*
X116483163Y-84774777D01*
X116497548Y-84801689D01*
X116506405Y-84830884D01*
X116510000Y-84867390D01*
X116510000Y-85492610D01*
X116506405Y-85529116D01*
X116497548Y-85558311D01*
X116483163Y-85585223D01*
X116463808Y-85608808D01*
X116440223Y-85628163D01*
X116413311Y-85642548D01*
X116384116Y-85651405D01*
X116347610Y-85655000D01*
X115797390Y-85655000D01*
X115760884Y-85651405D01*
X115731689Y-85642548D01*
X115704777Y-85628163D01*
X115681192Y-85608808D01*
X115661837Y-85585223D01*
X115647452Y-85558311D01*
X115638595Y-85529116D01*
X115635000Y-85492610D01*
X115635000Y-84867390D01*
X115638595Y-84830884D01*
X115647452Y-84801689D01*
X115661837Y-84774777D01*
X115681192Y-84751192D01*
X115704777Y-84731837D01*
X115731689Y-84717452D01*
X115760884Y-84708595D01*
X115797390Y-84705000D01*
X116347610Y-84705000D01*
X116384116Y-84708595D01*
X116384116Y-84708595D01*
G37*
G36*
X117959116Y-84708595D02*
G01*
X117988311Y-84717452D01*
X118015223Y-84731837D01*
X118038808Y-84751192D01*
X118058163Y-84774777D01*
X118072548Y-84801689D01*
X118081405Y-84830884D01*
X118085000Y-84867390D01*
X118085000Y-85492610D01*
X118081405Y-85529116D01*
X118072548Y-85558311D01*
X118058163Y-85585223D01*
X118038808Y-85608808D01*
X118015223Y-85628163D01*
X117988311Y-85642548D01*
X117959116Y-85651405D01*
X117922610Y-85655000D01*
X117372390Y-85655000D01*
X117335884Y-85651405D01*
X117306689Y-85642548D01*
X117279777Y-85628163D01*
X117256192Y-85608808D01*
X117236837Y-85585223D01*
X117222452Y-85558311D01*
X117213595Y-85529116D01*
X117210000Y-85492610D01*
X117210000Y-84867390D01*
X117213595Y-84830884D01*
X117222452Y-84801689D01*
X117236837Y-84774777D01*
X117256192Y-84751192D01*
X117279777Y-84731837D01*
X117306689Y-84717452D01*
X117335884Y-84708595D01*
X117372390Y-84705000D01*
X117922610Y-84705000D01*
X117959116Y-84708595D01*
X117959116Y-84708595D01*
G37*
G36*
X121399116Y-83878595D02*
G01*
X121428311Y-83887452D01*
X121455223Y-83901837D01*
X121478808Y-83921192D01*
X121498163Y-83944777D01*
X121512548Y-83971689D01*
X121521405Y-84000884D01*
X121525000Y-84037390D01*
X121525000Y-84662610D01*
X121521405Y-84699116D01*
X121512548Y-84728311D01*
X121498163Y-84755223D01*
X121478808Y-84778808D01*
X121455223Y-84798163D01*
X121428311Y-84812548D01*
X121399116Y-84821405D01*
X121362610Y-84825000D01*
X120812390Y-84825000D01*
X120775884Y-84821405D01*
X120746689Y-84812548D01*
X120719777Y-84798163D01*
X120696192Y-84778808D01*
X120676837Y-84755223D01*
X120662452Y-84728311D01*
X120653595Y-84699116D01*
X120650000Y-84662610D01*
X120650000Y-84037390D01*
X120653595Y-84000884D01*
X120662452Y-83971689D01*
X120676837Y-83944777D01*
X120696192Y-83921192D01*
X120719777Y-83901837D01*
X120746689Y-83887452D01*
X120775884Y-83878595D01*
X120812390Y-83875000D01*
X121362610Y-83875000D01*
X121399116Y-83878595D01*
X121399116Y-83878595D01*
G37*
G36*
X119824116Y-83878595D02*
G01*
X119853311Y-83887452D01*
X119880223Y-83901837D01*
X119903808Y-83921192D01*
X119923163Y-83944777D01*
X119937548Y-83971689D01*
X119946405Y-84000884D01*
X119950000Y-84037390D01*
X119950000Y-84662610D01*
X119946405Y-84699116D01*
X119937548Y-84728311D01*
X119923163Y-84755223D01*
X119903808Y-84778808D01*
X119880223Y-84798163D01*
X119853311Y-84812548D01*
X119824116Y-84821405D01*
X119787610Y-84825000D01*
X119237390Y-84825000D01*
X119200884Y-84821405D01*
X119171689Y-84812548D01*
X119144777Y-84798163D01*
X119121192Y-84778808D01*
X119101837Y-84755223D01*
X119087452Y-84728311D01*
X119078595Y-84699116D01*
X119075000Y-84662610D01*
X119075000Y-84037390D01*
X119078595Y-84000884D01*
X119087452Y-83971689D01*
X119101837Y-83944777D01*
X119121192Y-83921192D01*
X119144777Y-83901837D01*
X119171689Y-83887452D01*
X119200884Y-83878595D01*
X119237390Y-83875000D01*
X119787610Y-83875000D01*
X119824116Y-83878595D01*
X119824116Y-83878595D01*
G37*
G36*
X124883126Y-80666900D02*
G01*
X125018365Y-80693801D01*
X125273149Y-80799336D01*
X125502448Y-80952549D01*
X125697451Y-81147552D01*
X125850664Y-81376851D01*
X125946194Y-81607480D01*
X125956199Y-81631636D01*
X126010000Y-81902111D01*
X126010000Y-82177889D01*
X125983099Y-82313127D01*
X125956199Y-82448365D01*
X125850664Y-82703149D01*
X125697451Y-82932448D01*
X125502448Y-83127451D01*
X125273149Y-83280664D01*
X125018365Y-83386199D01*
X124883126Y-83413100D01*
X124747889Y-83440000D01*
X124472111Y-83440000D01*
X124336873Y-83413099D01*
X124201635Y-83386199D01*
X123946851Y-83280664D01*
X123717552Y-83127451D01*
X123522549Y-82932448D01*
X123369336Y-82703149D01*
X123263801Y-82448365D01*
X123236900Y-82313126D01*
X123210000Y-82177889D01*
X123210000Y-81902111D01*
X123263801Y-81631636D01*
X123273807Y-81607480D01*
X123369336Y-81376851D01*
X123522549Y-81147552D01*
X123717552Y-80952549D01*
X123946851Y-80799336D01*
X124201635Y-80693801D01*
X124336874Y-80666900D01*
X124472111Y-80640000D01*
X124747889Y-80640000D01*
X124883126Y-80666900D01*
X124883126Y-80666900D01*
G37*
G36*
X130872627Y-81202299D02*
G01*
X130952742Y-81226601D01*
X131032855Y-81250903D01*
X131032857Y-81250904D01*
X131180518Y-81329831D01*
X131309949Y-81436051D01*
X131416169Y-81565482D01*
X131495096Y-81713143D01*
X131543701Y-81873373D01*
X131560112Y-82040000D01*
X131543701Y-82206627D01*
X131495096Y-82366857D01*
X131416169Y-82514518D01*
X131309949Y-82643949D01*
X131180518Y-82750169D01*
X131032857Y-82829096D01*
X131032855Y-82829097D01*
X130952742Y-82853398D01*
X130872627Y-82877701D01*
X130747752Y-82890000D01*
X130664248Y-82890000D01*
X130539373Y-82877701D01*
X130459258Y-82853398D01*
X130379145Y-82829097D01*
X130379143Y-82829096D01*
X130231482Y-82750169D01*
X130102051Y-82643949D01*
X129995831Y-82514518D01*
X129916904Y-82366857D01*
X129868299Y-82206627D01*
X129851888Y-82040000D01*
X129868299Y-81873373D01*
X129916904Y-81713143D01*
X129995831Y-81565482D01*
X130102051Y-81436051D01*
X130231482Y-81329831D01*
X130379143Y-81250904D01*
X130379145Y-81250903D01*
X130459258Y-81226601D01*
X130539373Y-81202299D01*
X130664248Y-81190000D01*
X130747752Y-81190000D01*
X130872627Y-81202299D01*
X130872627Y-81202299D01*
G37*
G36*
X170496627Y-81202299D02*
G01*
X170576742Y-81226601D01*
X170656855Y-81250903D01*
X170656857Y-81250904D01*
X170804518Y-81329831D01*
X170933949Y-81436051D01*
X171040169Y-81565482D01*
X171119096Y-81713143D01*
X171167701Y-81873373D01*
X171184112Y-82040000D01*
X171167701Y-82206627D01*
X171119096Y-82366857D01*
X171040169Y-82514518D01*
X170933949Y-82643949D01*
X170804518Y-82750169D01*
X170656857Y-82829096D01*
X170656855Y-82829097D01*
X170576742Y-82853398D01*
X170496627Y-82877701D01*
X170371752Y-82890000D01*
X170288248Y-82890000D01*
X170163373Y-82877701D01*
X170083258Y-82853398D01*
X170003145Y-82829097D01*
X170003143Y-82829096D01*
X169855482Y-82750169D01*
X169726051Y-82643949D01*
X169619831Y-82514518D01*
X169540904Y-82366857D01*
X169492299Y-82206627D01*
X169475888Y-82040000D01*
X169492299Y-81873373D01*
X169540904Y-81713143D01*
X169619831Y-81565482D01*
X169726051Y-81436051D01*
X169855482Y-81329831D01*
X170003143Y-81250904D01*
X170003145Y-81250903D01*
X170083258Y-81226601D01*
X170163373Y-81202299D01*
X170288248Y-81190000D01*
X170371752Y-81190000D01*
X170496627Y-81202299D01*
X170496627Y-81202299D01*
G37*
G36*
X167956627Y-81202299D02*
G01*
X168036742Y-81226601D01*
X168116855Y-81250903D01*
X168116857Y-81250904D01*
X168264518Y-81329831D01*
X168393949Y-81436051D01*
X168500169Y-81565482D01*
X168579096Y-81713143D01*
X168627701Y-81873373D01*
X168644112Y-82040000D01*
X168627701Y-82206627D01*
X168579096Y-82366857D01*
X168500169Y-82514518D01*
X168393949Y-82643949D01*
X168264518Y-82750169D01*
X168116857Y-82829096D01*
X168116855Y-82829097D01*
X168036742Y-82853398D01*
X167956627Y-82877701D01*
X167831752Y-82890000D01*
X167748248Y-82890000D01*
X167623373Y-82877701D01*
X167543258Y-82853398D01*
X167463145Y-82829097D01*
X167463143Y-82829096D01*
X167315482Y-82750169D01*
X167186051Y-82643949D01*
X167079831Y-82514518D01*
X167000904Y-82366857D01*
X166952299Y-82206627D01*
X166935888Y-82040000D01*
X166952299Y-81873373D01*
X167000904Y-81713143D01*
X167079831Y-81565482D01*
X167186051Y-81436051D01*
X167315482Y-81329831D01*
X167463143Y-81250904D01*
X167463145Y-81250903D01*
X167543258Y-81226601D01*
X167623373Y-81202299D01*
X167748248Y-81190000D01*
X167831752Y-81190000D01*
X167956627Y-81202299D01*
X167956627Y-81202299D01*
G37*
G36*
X165416627Y-81202299D02*
G01*
X165496742Y-81226601D01*
X165576855Y-81250903D01*
X165576857Y-81250904D01*
X165724518Y-81329831D01*
X165853949Y-81436051D01*
X165960169Y-81565482D01*
X166039096Y-81713143D01*
X166087701Y-81873373D01*
X166104112Y-82040000D01*
X166087701Y-82206627D01*
X166039096Y-82366857D01*
X165960169Y-82514518D01*
X165853949Y-82643949D01*
X165724518Y-82750169D01*
X165576857Y-82829096D01*
X165576855Y-82829097D01*
X165496742Y-82853398D01*
X165416627Y-82877701D01*
X165291752Y-82890000D01*
X165208248Y-82890000D01*
X165083373Y-82877701D01*
X165003258Y-82853398D01*
X164923145Y-82829097D01*
X164923143Y-82829096D01*
X164775482Y-82750169D01*
X164646051Y-82643949D01*
X164539831Y-82514518D01*
X164460904Y-82366857D01*
X164412299Y-82206627D01*
X164395888Y-82040000D01*
X164412299Y-81873373D01*
X164460904Y-81713143D01*
X164539831Y-81565482D01*
X164646051Y-81436051D01*
X164775482Y-81329831D01*
X164923143Y-81250904D01*
X164923145Y-81250903D01*
X165003258Y-81226601D01*
X165083373Y-81202299D01*
X165208248Y-81190000D01*
X165291752Y-81190000D01*
X165416627Y-81202299D01*
X165416627Y-81202299D01*
G37*
G36*
X162876627Y-81202299D02*
G01*
X162956742Y-81226601D01*
X163036855Y-81250903D01*
X163036857Y-81250904D01*
X163184518Y-81329831D01*
X163313949Y-81436051D01*
X163420169Y-81565482D01*
X163499096Y-81713143D01*
X163547701Y-81873373D01*
X163564112Y-82040000D01*
X163547701Y-82206627D01*
X163499096Y-82366857D01*
X163420169Y-82514518D01*
X163313949Y-82643949D01*
X163184518Y-82750169D01*
X163036857Y-82829096D01*
X163036855Y-82829097D01*
X162956742Y-82853398D01*
X162876627Y-82877701D01*
X162751752Y-82890000D01*
X162668248Y-82890000D01*
X162543373Y-82877701D01*
X162463258Y-82853398D01*
X162383145Y-82829097D01*
X162383143Y-82829096D01*
X162235482Y-82750169D01*
X162106051Y-82643949D01*
X161999831Y-82514518D01*
X161920904Y-82366857D01*
X161872299Y-82206627D01*
X161855888Y-82040000D01*
X161872299Y-81873373D01*
X161920904Y-81713143D01*
X161999831Y-81565482D01*
X162106051Y-81436051D01*
X162235482Y-81329831D01*
X162383143Y-81250904D01*
X162383145Y-81250903D01*
X162463258Y-81226601D01*
X162543373Y-81202299D01*
X162668248Y-81190000D01*
X162751752Y-81190000D01*
X162876627Y-81202299D01*
X162876627Y-81202299D01*
G37*
G36*
X160336627Y-81202299D02*
G01*
X160416742Y-81226601D01*
X160496855Y-81250903D01*
X160496857Y-81250904D01*
X160644518Y-81329831D01*
X160773949Y-81436051D01*
X160880169Y-81565482D01*
X160959096Y-81713143D01*
X161007701Y-81873373D01*
X161024112Y-82040000D01*
X161007701Y-82206627D01*
X160959096Y-82366857D01*
X160880169Y-82514518D01*
X160773949Y-82643949D01*
X160644518Y-82750169D01*
X160496857Y-82829096D01*
X160496855Y-82829097D01*
X160416742Y-82853398D01*
X160336627Y-82877701D01*
X160211752Y-82890000D01*
X160128248Y-82890000D01*
X160003373Y-82877701D01*
X159923258Y-82853398D01*
X159843145Y-82829097D01*
X159843143Y-82829096D01*
X159695482Y-82750169D01*
X159566051Y-82643949D01*
X159459831Y-82514518D01*
X159380904Y-82366857D01*
X159332299Y-82206627D01*
X159315888Y-82040000D01*
X159332299Y-81873373D01*
X159380904Y-81713143D01*
X159459831Y-81565482D01*
X159566051Y-81436051D01*
X159695482Y-81329831D01*
X159843143Y-81250904D01*
X159843145Y-81250903D01*
X159923258Y-81226601D01*
X160003373Y-81202299D01*
X160128248Y-81190000D01*
X160211752Y-81190000D01*
X160336627Y-81202299D01*
X160336627Y-81202299D01*
G37*
G36*
X157796627Y-81202299D02*
G01*
X157876742Y-81226601D01*
X157956855Y-81250903D01*
X157956857Y-81250904D01*
X158104518Y-81329831D01*
X158233949Y-81436051D01*
X158340169Y-81565482D01*
X158419096Y-81713143D01*
X158467701Y-81873373D01*
X158484112Y-82040000D01*
X158467701Y-82206627D01*
X158419096Y-82366857D01*
X158340169Y-82514518D01*
X158233949Y-82643949D01*
X158104518Y-82750169D01*
X157956857Y-82829096D01*
X157956855Y-82829097D01*
X157876742Y-82853398D01*
X157796627Y-82877701D01*
X157671752Y-82890000D01*
X157588248Y-82890000D01*
X157463373Y-82877701D01*
X157383258Y-82853398D01*
X157303145Y-82829097D01*
X157303143Y-82829096D01*
X157155482Y-82750169D01*
X157026051Y-82643949D01*
X156919831Y-82514518D01*
X156840904Y-82366857D01*
X156792299Y-82206627D01*
X156775888Y-82040000D01*
X156792299Y-81873373D01*
X156840904Y-81713143D01*
X156919831Y-81565482D01*
X157026051Y-81436051D01*
X157155482Y-81329831D01*
X157303143Y-81250904D01*
X157303145Y-81250903D01*
X157383258Y-81226601D01*
X157463373Y-81202299D01*
X157588248Y-81190000D01*
X157671752Y-81190000D01*
X157796627Y-81202299D01*
X157796627Y-81202299D01*
G37*
G36*
X155940000Y-82890000D02*
G01*
X154240000Y-82890000D01*
X154240000Y-81190000D01*
X155940000Y-81190000D01*
X155940000Y-82890000D01*
X155940000Y-82890000D01*
G37*
G36*
X129016000Y-82890000D02*
G01*
X127316000Y-82890000D01*
X127316000Y-81190000D01*
X129016000Y-81190000D01*
X129016000Y-82890000D01*
X129016000Y-82890000D01*
G37*
G36*
X133412627Y-81202299D02*
G01*
X133492742Y-81226601D01*
X133572855Y-81250903D01*
X133572857Y-81250904D01*
X133720518Y-81329831D01*
X133849949Y-81436051D01*
X133956169Y-81565482D01*
X134035096Y-81713143D01*
X134083701Y-81873373D01*
X134100112Y-82040000D01*
X134083701Y-82206627D01*
X134035096Y-82366857D01*
X133956169Y-82514518D01*
X133849949Y-82643949D01*
X133720518Y-82750169D01*
X133572857Y-82829096D01*
X133572855Y-82829097D01*
X133492742Y-82853398D01*
X133412627Y-82877701D01*
X133287752Y-82890000D01*
X133204248Y-82890000D01*
X133079373Y-82877701D01*
X132999258Y-82853398D01*
X132919145Y-82829097D01*
X132919143Y-82829096D01*
X132771482Y-82750169D01*
X132642051Y-82643949D01*
X132535831Y-82514518D01*
X132456904Y-82366857D01*
X132408299Y-82206627D01*
X132391888Y-82040000D01*
X132408299Y-81873373D01*
X132456904Y-81713143D01*
X132535831Y-81565482D01*
X132642051Y-81436051D01*
X132771482Y-81329831D01*
X132919143Y-81250904D01*
X132919145Y-81250903D01*
X132999258Y-81226601D01*
X133079373Y-81202299D01*
X133204248Y-81190000D01*
X133287752Y-81190000D01*
X133412627Y-81202299D01*
X133412627Y-81202299D01*
G37*
G36*
X135952627Y-81202299D02*
G01*
X136032742Y-81226601D01*
X136112855Y-81250903D01*
X136112857Y-81250904D01*
X136260518Y-81329831D01*
X136389949Y-81436051D01*
X136496169Y-81565482D01*
X136575096Y-81713143D01*
X136623701Y-81873373D01*
X136640112Y-82040000D01*
X136623701Y-82206627D01*
X136575096Y-82366857D01*
X136496169Y-82514518D01*
X136389949Y-82643949D01*
X136260518Y-82750169D01*
X136112857Y-82829096D01*
X136112855Y-82829097D01*
X136032742Y-82853398D01*
X135952627Y-82877701D01*
X135827752Y-82890000D01*
X135744248Y-82890000D01*
X135619373Y-82877701D01*
X135539258Y-82853398D01*
X135459145Y-82829097D01*
X135459143Y-82829096D01*
X135311482Y-82750169D01*
X135182051Y-82643949D01*
X135075831Y-82514518D01*
X134996904Y-82366857D01*
X134948299Y-82206627D01*
X134931888Y-82040000D01*
X134948299Y-81873373D01*
X134996904Y-81713143D01*
X135075831Y-81565482D01*
X135182051Y-81436051D01*
X135311482Y-81329831D01*
X135459143Y-81250904D01*
X135459145Y-81250903D01*
X135539258Y-81226601D01*
X135619373Y-81202299D01*
X135744248Y-81190000D01*
X135827752Y-81190000D01*
X135952627Y-81202299D01*
X135952627Y-81202299D01*
G37*
G36*
X138492627Y-81202299D02*
G01*
X138572742Y-81226601D01*
X138652855Y-81250903D01*
X138652857Y-81250904D01*
X138800518Y-81329831D01*
X138929949Y-81436051D01*
X139036169Y-81565482D01*
X139115096Y-81713143D01*
X139163701Y-81873373D01*
X139180112Y-82040000D01*
X139163701Y-82206627D01*
X139115096Y-82366857D01*
X139036169Y-82514518D01*
X138929949Y-82643949D01*
X138800518Y-82750169D01*
X138652857Y-82829096D01*
X138652855Y-82829097D01*
X138572742Y-82853398D01*
X138492627Y-82877701D01*
X138367752Y-82890000D01*
X138284248Y-82890000D01*
X138159373Y-82877701D01*
X138079258Y-82853398D01*
X137999145Y-82829097D01*
X137999143Y-82829096D01*
X137851482Y-82750169D01*
X137722051Y-82643949D01*
X137615831Y-82514518D01*
X137536904Y-82366857D01*
X137488299Y-82206627D01*
X137471888Y-82040000D01*
X137488299Y-81873373D01*
X137536904Y-81713143D01*
X137615831Y-81565482D01*
X137722051Y-81436051D01*
X137851482Y-81329831D01*
X137999143Y-81250904D01*
X137999145Y-81250903D01*
X138079258Y-81226601D01*
X138159373Y-81202299D01*
X138284248Y-81190000D01*
X138367752Y-81190000D01*
X138492627Y-81202299D01*
X138492627Y-81202299D01*
G37*
G36*
X151192627Y-81202299D02*
G01*
X151272742Y-81226601D01*
X151352855Y-81250903D01*
X151352857Y-81250904D01*
X151500518Y-81329831D01*
X151629949Y-81436051D01*
X151736169Y-81565482D01*
X151815096Y-81713143D01*
X151863701Y-81873373D01*
X151880112Y-82040000D01*
X151863701Y-82206627D01*
X151815096Y-82366857D01*
X151736169Y-82514518D01*
X151629949Y-82643949D01*
X151500518Y-82750169D01*
X151352857Y-82829096D01*
X151352855Y-82829097D01*
X151272742Y-82853398D01*
X151192627Y-82877701D01*
X151067752Y-82890000D01*
X150984248Y-82890000D01*
X150859373Y-82877701D01*
X150779258Y-82853398D01*
X150699145Y-82829097D01*
X150699143Y-82829096D01*
X150551482Y-82750169D01*
X150422051Y-82643949D01*
X150315831Y-82514518D01*
X150236904Y-82366857D01*
X150188299Y-82206627D01*
X150171888Y-82040000D01*
X150188299Y-81873373D01*
X150236904Y-81713143D01*
X150315831Y-81565482D01*
X150422051Y-81436051D01*
X150551482Y-81329831D01*
X150699143Y-81250904D01*
X150699145Y-81250903D01*
X150779258Y-81226601D01*
X150859373Y-81202299D01*
X150984248Y-81190000D01*
X151067752Y-81190000D01*
X151192627Y-81202299D01*
X151192627Y-81202299D01*
G37*
G36*
X148652627Y-81202299D02*
G01*
X148732742Y-81226601D01*
X148812855Y-81250903D01*
X148812857Y-81250904D01*
X148960518Y-81329831D01*
X149089949Y-81436051D01*
X149196169Y-81565482D01*
X149275096Y-81713143D01*
X149323701Y-81873373D01*
X149340112Y-82040000D01*
X149323701Y-82206627D01*
X149275096Y-82366857D01*
X149196169Y-82514518D01*
X149089949Y-82643949D01*
X148960518Y-82750169D01*
X148812857Y-82829096D01*
X148812855Y-82829097D01*
X148732742Y-82853398D01*
X148652627Y-82877701D01*
X148527752Y-82890000D01*
X148444248Y-82890000D01*
X148319373Y-82877701D01*
X148239258Y-82853398D01*
X148159145Y-82829097D01*
X148159143Y-82829096D01*
X148011482Y-82750169D01*
X147882051Y-82643949D01*
X147775831Y-82514518D01*
X147696904Y-82366857D01*
X147648299Y-82206627D01*
X147631888Y-82040000D01*
X147648299Y-81873373D01*
X147696904Y-81713143D01*
X147775831Y-81565482D01*
X147882051Y-81436051D01*
X148011482Y-81329831D01*
X148159143Y-81250904D01*
X148159145Y-81250903D01*
X148239258Y-81226601D01*
X148319373Y-81202299D01*
X148444248Y-81190000D01*
X148527752Y-81190000D01*
X148652627Y-81202299D01*
X148652627Y-81202299D01*
G37*
G36*
X146112627Y-81202299D02*
G01*
X146192742Y-81226601D01*
X146272855Y-81250903D01*
X146272857Y-81250904D01*
X146420518Y-81329831D01*
X146549949Y-81436051D01*
X146656169Y-81565482D01*
X146735096Y-81713143D01*
X146783701Y-81873373D01*
X146800112Y-82040000D01*
X146783701Y-82206627D01*
X146735096Y-82366857D01*
X146656169Y-82514518D01*
X146549949Y-82643949D01*
X146420518Y-82750169D01*
X146272857Y-82829096D01*
X146272855Y-82829097D01*
X146192742Y-82853398D01*
X146112627Y-82877701D01*
X145987752Y-82890000D01*
X145904248Y-82890000D01*
X145779373Y-82877701D01*
X145699258Y-82853398D01*
X145619145Y-82829097D01*
X145619143Y-82829096D01*
X145471482Y-82750169D01*
X145342051Y-82643949D01*
X145235831Y-82514518D01*
X145156904Y-82366857D01*
X145108299Y-82206627D01*
X145091888Y-82040000D01*
X145108299Y-81873373D01*
X145156904Y-81713143D01*
X145235831Y-81565482D01*
X145342051Y-81436051D01*
X145471482Y-81329831D01*
X145619143Y-81250904D01*
X145619145Y-81250903D01*
X145699258Y-81226601D01*
X145779373Y-81202299D01*
X145904248Y-81190000D01*
X145987752Y-81190000D01*
X146112627Y-81202299D01*
X146112627Y-81202299D01*
G37*
G36*
X141032627Y-81202299D02*
G01*
X141112742Y-81226601D01*
X141192855Y-81250903D01*
X141192857Y-81250904D01*
X141340518Y-81329831D01*
X141469949Y-81436051D01*
X141576169Y-81565482D01*
X141655096Y-81713143D01*
X141703701Y-81873373D01*
X141720112Y-82040000D01*
X141703701Y-82206627D01*
X141655096Y-82366857D01*
X141576169Y-82514518D01*
X141469949Y-82643949D01*
X141340518Y-82750169D01*
X141192857Y-82829096D01*
X141192855Y-82829097D01*
X141112742Y-82853398D01*
X141032627Y-82877701D01*
X140907752Y-82890000D01*
X140824248Y-82890000D01*
X140699373Y-82877701D01*
X140619258Y-82853398D01*
X140539145Y-82829097D01*
X140539143Y-82829096D01*
X140391482Y-82750169D01*
X140262051Y-82643949D01*
X140155831Y-82514518D01*
X140076904Y-82366857D01*
X140028299Y-82206627D01*
X140011888Y-82040000D01*
X140028299Y-81873373D01*
X140076904Y-81713143D01*
X140155831Y-81565482D01*
X140262051Y-81436051D01*
X140391482Y-81329831D01*
X140539143Y-81250904D01*
X140539145Y-81250903D01*
X140619258Y-81226601D01*
X140699373Y-81202299D01*
X140824248Y-81190000D01*
X140907752Y-81190000D01*
X141032627Y-81202299D01*
X141032627Y-81202299D01*
G37*
G36*
X143572627Y-81202299D02*
G01*
X143652742Y-81226601D01*
X143732855Y-81250903D01*
X143732857Y-81250904D01*
X143880518Y-81329831D01*
X144009949Y-81436051D01*
X144116169Y-81565482D01*
X144195096Y-81713143D01*
X144243701Y-81873373D01*
X144260112Y-82040000D01*
X144243701Y-82206627D01*
X144195096Y-82366857D01*
X144116169Y-82514518D01*
X144009949Y-82643949D01*
X143880518Y-82750169D01*
X143732857Y-82829096D01*
X143732855Y-82829097D01*
X143652742Y-82853398D01*
X143572627Y-82877701D01*
X143447752Y-82890000D01*
X143364248Y-82890000D01*
X143239373Y-82877701D01*
X143159258Y-82853398D01*
X143079145Y-82829097D01*
X143079143Y-82829096D01*
X142931482Y-82750169D01*
X142802051Y-82643949D01*
X142695831Y-82514518D01*
X142616904Y-82366857D01*
X142568299Y-82206627D01*
X142551888Y-82040000D01*
X142568299Y-81873373D01*
X142616904Y-81713143D01*
X142695831Y-81565482D01*
X142802051Y-81436051D01*
X142931482Y-81329831D01*
X143079143Y-81250904D01*
X143079145Y-81250903D01*
X143159258Y-81226601D01*
X143239373Y-81202299D01*
X143364248Y-81190000D01*
X143447752Y-81190000D01*
X143572627Y-81202299D01*
X143572627Y-81202299D01*
G37*
G36*
X173036627Y-81202299D02*
G01*
X173116742Y-81226601D01*
X173196855Y-81250903D01*
X173196857Y-81250904D01*
X173344518Y-81329831D01*
X173473949Y-81436051D01*
X173580169Y-81565482D01*
X173659096Y-81713143D01*
X173707701Y-81873373D01*
X173724112Y-82040000D01*
X173707701Y-82206627D01*
X173659096Y-82366857D01*
X173580169Y-82514518D01*
X173473949Y-82643949D01*
X173344518Y-82750169D01*
X173196857Y-82829096D01*
X173196855Y-82829097D01*
X173116742Y-82853398D01*
X173036627Y-82877701D01*
X172911752Y-82890000D01*
X172828248Y-82890000D01*
X172703373Y-82877701D01*
X172623258Y-82853398D01*
X172543145Y-82829097D01*
X172543143Y-82829096D01*
X172395482Y-82750169D01*
X172266051Y-82643949D01*
X172159831Y-82514518D01*
X172080904Y-82366857D01*
X172032299Y-82206627D01*
X172015888Y-82040000D01*
X172032299Y-81873373D01*
X172080904Y-81713143D01*
X172159831Y-81565482D01*
X172266051Y-81436051D01*
X172395482Y-81329831D01*
X172543143Y-81250904D01*
X172543145Y-81250903D01*
X172623258Y-81226601D01*
X172703373Y-81202299D01*
X172828248Y-81190000D01*
X172911752Y-81190000D01*
X173036627Y-81202299D01*
X173036627Y-81202299D01*
G37*
G36*
X117402520Y-81004586D02*
G01*
X117566310Y-81072430D01*
X117713717Y-81170924D01*
X117839076Y-81296283D01*
X117932466Y-81436052D01*
X117937571Y-81443692D01*
X118005414Y-81607480D01*
X118026432Y-81713143D01*
X118040000Y-81781358D01*
X118040000Y-81958642D01*
X118005414Y-82132520D01*
X117937570Y-82296310D01*
X117839076Y-82443717D01*
X117713717Y-82569076D01*
X117566310Y-82667570D01*
X117566309Y-82667571D01*
X117566308Y-82667571D01*
X117402520Y-82735414D01*
X117228644Y-82770000D01*
X117051356Y-82770000D01*
X116877480Y-82735414D01*
X116713692Y-82667571D01*
X116713691Y-82667571D01*
X116713690Y-82667570D01*
X116566283Y-82569076D01*
X116440924Y-82443717D01*
X116342430Y-82296310D01*
X116274586Y-82132520D01*
X116240000Y-81958642D01*
X116240000Y-81781358D01*
X116253569Y-81713143D01*
X116274586Y-81607480D01*
X116342429Y-81443692D01*
X116347534Y-81436052D01*
X116440924Y-81296283D01*
X116566283Y-81170924D01*
X116713690Y-81072430D01*
X116877480Y-81004586D01*
X117051356Y-80970000D01*
X117228644Y-80970000D01*
X117402520Y-81004586D01*
X117402520Y-81004586D01*
G37*
G36*
X115500000Y-82770000D02*
G01*
X113700000Y-82770000D01*
X113700000Y-80970000D01*
X115500000Y-80970000D01*
X115500000Y-82770000D01*
X115500000Y-82770000D01*
G37*
M02*
