<?xml version="1.0" standalone="no"?>
 <!DOCTYPE svg PUBLIC "-//W3C//DTD SVG 1.1//EN" 
 "http://www.w3.org/Graphics/SVG/1.1/DTD/svg11.dtd"> 
<svg xmlns="http://www.w3.org/2000/svg" version="1.1" 
    width="8.80872cm" height="6.48462cm" viewBox="0 0 34680 25530 ">
<title>SVG Picture created as uno shield v.8 project SMD-brd.svg date 2019/10/07 18:08:04 </title>
  <desc>Picture generated by PCBNEW </desc>
<g style="fill:#000000; fill-opacity:1;stroke:#000000; stroke-opacity:1;
stroke-linecap:round; stroke-linejoin:round; "
 transform="translate(0 0) scale(1 1)">
</g>
<g style="fill:#000000; fill-opacity:0.0; 
stroke:#000000; stroke-width:-0.000393701; stroke-opacity:1; 
stroke-linecap:round; stroke-linejoin:round;">
</g>
<g style="fill:#0B00C2; fill-opacity:0.0; 
stroke:#0B00C2; stroke-width:-0.000393701; stroke-opacity:1; 
stroke-linecap:round; stroke-linejoin:round;">
</g>
<g style="fill:#0B00C2; fill-opacity:0.0; 
stroke:#0B00C2; stroke-width:31.4961; stroke-opacity:1; 
stroke-linecap:round; stroke-linejoin:round;">
<circle cx="15285.1" cy="15963" r="153.739" /> 
<circle cx="18221.1" cy="15440" r="153.739" /> 
<circle cx="19021.1" cy="17608" r="153.739" /> 
<circle cx="18990.1" cy="19371" r="153.739" /> 
<circle cx="21333.1" cy="17581" r="153.739" /> 
<circle cx="23567.1" cy="18127" r="153.739" /> 
<circle cx="23565.1" cy="16990" r="153.739" /> 
<circle cx="18200" cy="13999.3" r="124.128" /> 
<circle cx="19304" cy="14001.8" r="124.128" /> 
<circle cx="19304.9" cy="15446.1" r="124.128" /> 
<circle cx="15763.9" cy="20116.8" r="124.128" /> 
<circle cx="22275.7" cy="20112.9" r="124.128" /> 
<circle cx="24228.5" cy="18317.6" r="124.128" /> 
<circle cx="24228.5" cy="13829.4" r="124.128" /> 
<circle cx="22319" cy="11750.7" r="124.128" /> 
<circle cx="15370.2" cy="11750.7" r="124.128" /> 
<circle cx="13287.5" cy="13573.5" r="124.128" /> 
<circle cx="13287.5" cy="18002.6" r="124.128" /> 
<circle cx="20140.8" cy="20131.7" r="124.128" /> 
<circle cx="20857.8" cy="20135.6" r="124.128" /> 
<circle cx="21179.7" cy="13605.5" r="124.128" /> 
<circle cx="23437.1" cy="14434" r="153.739" /> 
<circle cx="21180.4" cy="15257.1" r="124.128" /> 
<circle cx="20537.3" cy="20007.4" r="124.128" /> 
<circle cx="19017.3" cy="18199.7" r="181.72" /> 
<circle cx="15361.4" cy="18208.4" r="124.128" /> 
<g >
</g>
<g >
</g>
<g >
</g>
<g >
</g>
<g style="fill:#008400; fill-opacity:0.0; 
stroke:#008400; stroke-width:31.4961; stroke-opacity:1; 
stroke-linecap:round; stroke-linejoin:round;">
</g>
<g style="fill:#008400; fill-opacity:0.0; 
stroke:#008400; stroke-width:0; stroke-opacity:1; 
stroke-linecap:round; stroke-linejoin:round;">
</g>
<g style="fill:#008400; fill-opacity:1.0; 
stroke:#008400; stroke-width:0; stroke-opacity:1; 
stroke-linecap:round; stroke-linejoin:round;">
<path style="fill:#008400; fill-opacity:1.0; 
stroke:#008400; stroke-width:0; stroke-opacity:1; 
stroke-linecap:round; stroke-linejoin:round;fill-rule:evenodd;"
d="M 27393,13072
27078,13072
27078,12914
27393,12914
27393,13072
Z" /> 
<path style="fill:#008400; fill-opacity:1.0; 
stroke:#008400; stroke-width:0; stroke-opacity:1; 
stroke-linecap:round; stroke-linejoin:round;fill-rule:evenodd;"
d="M 27393,10512
27078,10512
27078,10355
27393,10355
27393,10512
Z" /> 
<path style="fill:#008400; fill-opacity:1.0; 
stroke:#008400; stroke-width:0; stroke-opacity:1; 
stroke-linecap:round; stroke-linejoin:round;fill-rule:evenodd;"
d="M 28377,12658
28062,12658
28062,12540
28377,12540
28377,12658
Z" /> 
<path style="fill:#008400; fill-opacity:1.0; 
stroke:#008400; stroke-width:0; stroke-opacity:1; 
stroke-linecap:round; stroke-linejoin:round;fill-rule:evenodd;"
d="M 28377,12461
28062,12461
28062,12343
28377,12343
28377,12461
Z" /> 
<path style="fill:#008400; fill-opacity:1.0; 
stroke:#008400; stroke-width:0; stroke-opacity:1; 
stroke-linecap:round; stroke-linejoin:round;fill-rule:evenodd;"
d="M 28377,12264
28062,12264
28062,12146
28377,12146
28377,12264
Z" /> 
<path style="fill:#008400; fill-opacity:1.0; 
stroke:#008400; stroke-width:0; stroke-opacity:1; 
stroke-linecap:round; stroke-linejoin:round;fill-rule:evenodd;"
d="M 28377,12068
28062,12068
28062,11950
28377,11950
28377,12068
Z" /> 
<path style="fill:#008400; fill-opacity:1.0; 
stroke:#008400; stroke-width:0; stroke-opacity:1; 
stroke-linecap:round; stroke-linejoin:round;fill-rule:evenodd;"
d="M 28377,11871
28062,11871
28062,11753
28377,11753
28377,11871
Z" /> 
<path style="fill:#008400; fill-opacity:1.0; 
stroke:#008400; stroke-width:0; stroke-opacity:1; 
stroke-linecap:round; stroke-linejoin:round;fill-rule:evenodd;"
d="M 28377,11674
28062,11674
28062,11556
28377,11556
28377,11674
Z" /> 
<path style="fill:#008400; fill-opacity:1.0; 
stroke:#008400; stroke-width:0; stroke-opacity:1; 
stroke-linecap:round; stroke-linejoin:round;fill-rule:evenodd;"
d="M 28377,11477
28062,11477
28062,11359
28377,11359
28377,11477
Z" /> 
<path style="fill:#008400; fill-opacity:1.0; 
stroke:#008400; stroke-width:0; stroke-opacity:1; 
stroke-linecap:round; stroke-linejoin:round;fill-rule:evenodd;"
d="M 28377,11280
28062,11280
28062,11162
28377,11162
28377,11280
Z" /> 
<path style="fill:#008400; fill-opacity:1.0; 
stroke:#008400; stroke-width:0; stroke-opacity:1; 
stroke-linecap:round; stroke-linejoin:round;fill-rule:evenodd;"
d="M 28377,11083
28062,11083
28062,10965
28377,10965
28377,11083
Z" /> 
<path style="fill:#008400; fill-opacity:1.0; 
stroke:#008400; stroke-width:0; stroke-opacity:1; 
stroke-linecap:round; stroke-linejoin:round;fill-rule:evenodd;"
d="M 28377,10887
28062,10887
28062,10768
28377,10768
28377,10887
Z" /> 
</g>
<g >
</g>
<g >
</g>
<g >
</g>
<g style="fill:#008400; fill-opacity:1.0; 
stroke:#008400; stroke-width:0; stroke-opacity:1; 
stroke-linecap:round; stroke-linejoin:round;">
<path style="fill:#008400; fill-opacity:1.0; 
stroke:#008400; stroke-width:0; stroke-opacity:1; 
stroke-linecap:round; stroke-linejoin:round;fill-rule:evenodd;"
d="M 18404,15260
18404,14945
18758,14945
18758,15260
18404,15260
Z" /> 
<path style="fill:#008400; fill-opacity:1.0; 
stroke:#008400; stroke-width:0; stroke-opacity:1; 
stroke-linecap:round; stroke-linejoin:round;fill-rule:evenodd;"
d="M 17616,14886
17616,14571
17971,14571
17971,14886
17616,14886
Z" /> 
<path style="fill:#008400; fill-opacity:1.0; 
stroke:#008400; stroke-width:0; stroke-opacity:1; 
stroke-linecap:round; stroke-linejoin:round;fill-rule:evenodd;"
d="M 17616,15634
17616,15319
17971,15319
17971,15634
17616,15634
Z" /> 
</g>
<g >
</g>
<g >
</g>
<g >
</g>
<g >
</g>
<g >
</g>
<g >
</g>
<g >
</g>
<g >
</g>
<g >
</g>
<g >
</g>
<g >
</g>
<g >
</g>
<g >
</g>
<g >
</g>
<g >
</g>
<g >
</g>
<g >
</g>
<g >
</g>
<g >
</g>
<g >
</g>
<g >
</g>
<g >
</g>
<g >
</g>
<g >
</g>
<g style="fill:#008400; fill-opacity:1.0; 
stroke:#008400; stroke-width:0; stroke-opacity:1; 
stroke-linecap:round; stroke-linejoin:round;">
<path style="fill:#008400; fill-opacity:1.0; 
stroke:#008400; stroke-width:0; stroke-opacity:1; 
stroke-linecap:round; stroke-linejoin:round;fill-rule:evenodd;"
d="M 26334,11355
26334,11473
25783,11473
25783,11355
26334,11355
Z" /> 
<path style="fill:#008400; fill-opacity:1.0; 
stroke:#008400; stroke-width:0; stroke-opacity:1; 
stroke-linecap:round; stroke-linejoin:round;fill-rule:evenodd;"
d="M 26334,11552
26334,11670
25783,11670
25783,11552
26334,11552
Z" /> 
<path style="fill:#008400; fill-opacity:1.0; 
stroke:#008400; stroke-width:0; stroke-opacity:1; 
stroke-linecap:round; stroke-linejoin:round;fill-rule:evenodd;"
d="M 26334,11748
26334,11867
25783,11867
25783,11748
26334,11748
Z" /> 
<path style="fill:#008400; fill-opacity:1.0; 
stroke:#008400; stroke-width:0; stroke-opacity:1; 
stroke-linecap:round; stroke-linejoin:round;fill-rule:evenodd;"
d="M 26334,11945
26334,12063
25783,12063
25783,11945
26334,11945
Z" /> 
<path style="fill:#008400; fill-opacity:1.0; 
stroke:#008400; stroke-width:0; stroke-opacity:1; 
stroke-linecap:round; stroke-linejoin:round;fill-rule:evenodd;"
d="M 26334,12142
26334,12260
25783,12260
25783,12142
26334,12142
Z" /> 
<path style="fill:#008400; fill-opacity:1.0; 
stroke:#008400; stroke-width:0; stroke-opacity:1; 
stroke-linecap:round; stroke-linejoin:round;fill-rule:evenodd;"
d="M 24602,12142
24602,12260
24051,12260
24051,12142
24602,12142
Z" /> 
<path style="fill:#008400; fill-opacity:1.0; 
stroke:#008400; stroke-width:0; stroke-opacity:1; 
stroke-linecap:round; stroke-linejoin:round;fill-rule:evenodd;"
d="M 24602,11945
24602,12063
24051,12063
24051,11945
24602,11945
Z" /> 
<path style="fill:#008400; fill-opacity:1.0; 
stroke:#008400; stroke-width:0; stroke-opacity:1; 
stroke-linecap:round; stroke-linejoin:round;fill-rule:evenodd;"
d="M 24602,11748
24602,11867
24051,11867
24051,11748
24602,11748
Z" /> 
<path style="fill:#008400; fill-opacity:1.0; 
stroke:#008400; stroke-width:0; stroke-opacity:1; 
stroke-linecap:round; stroke-linejoin:round;fill-rule:evenodd;"
d="M 24602,11552
24602,11670
24051,11670
24051,11552
24602,11552
Z" /> 
<path style="fill:#008400; fill-opacity:1.0; 
stroke:#008400; stroke-width:0; stroke-opacity:1; 
stroke-linecap:round; stroke-linejoin:round;fill-rule:evenodd;"
d="M 24602,11355
24602,11473
24051,11473
24051,11355
24602,11355
Z" /> 
</g>
<g >
</g>
<g >
</g>
<g >
</g>
<g style="fill:#008400; fill-opacity:1.0; 
stroke:#008400; stroke-width:0; stroke-opacity:1; 
stroke-linecap:round; stroke-linejoin:round;">
<path style="fill:#008400; fill-opacity:1.0; 
stroke:#008400; stroke-width:0; stroke-opacity:1; 
stroke-linecap:round; stroke-linejoin:round;fill-rule:evenodd;"
d="M 19041,12310
19050,12311
19059,12314
19068,12317
19076,12321
19084,12325
19091,12331
19098,12337
19104,12344
19110,12351
19114,12359
19118,12367
19121,12376
19124,12385
19125,12394
19125,12403
19125,12590
19125,12599
19124,12608
19121,12617
19118,12626
19114,12634
19110,12642
19104,12649
19098,12656
19091,12662
19084,12668
19076,12673
19068,12676
19059,12680
19050,12682
19041,12683
19032,12684
18806,12684
18796,12683
18787,12682
18778,12680
18770,12676
18762,12673
18754,12668
18746,12662
18739,12656
18733,12649
18728,12642
18723,12634
18719,12626
18716,12617
18714,12608
18713,12599
18712,12590
18712,12403
18713,12394
18714,12385
18716,12376
18719,12367
18723,12359
18728,12351
18733,12344
18739,12337
18746,12331
18754,12325
18762,12321
18770,12317
18778,12314
18787,12311
18796,12310
18806,12310
19032,12310
19041,12310
Z" /> 
<path style="fill:#008400; fill-opacity:1.0; 
stroke:#008400; stroke-width:0; stroke-opacity:1; 
stroke-linecap:round; stroke-linejoin:round;fill-rule:evenodd;"
d="M 18352,12310
18361,12311
18370,12314
18379,12317
18387,12321
18395,12325
18402,12331
18409,12337
18415,12344
18421,12351
18425,12359
18429,12367
18432,12376
18435,12385
18436,12394
18437,12403
18437,12590
18436,12599
18435,12608
18432,12617
18429,12626
18425,12634
18421,12642
18415,12649
18409,12656
18402,12662
18395,12668
18387,12673
18379,12676
18370,12680
18361,12682
18352,12683
18343,12684
18117,12684
18107,12683
18098,12682
18089,12680
18081,12676
18073,12673
18065,12668
18057,12662
18051,12656
18044,12649
18039,12642
18034,12634
18030,12626
18027,12617
18025,12608
18024,12599
18023,12590
18023,12403
18024,12394
18025,12385
18027,12376
18030,12367
18034,12359
18039,12351
18044,12344
18051,12337
18057,12331
18065,12325
18073,12321
18081,12317
18089,12314
18098,12311
18107,12310
18117,12310
18343,12310
18352,12310
Z" /> 
</g>
<g >
</g>
<g >
</g>
<g style="fill:#008400; fill-opacity:1.0; 
stroke:#008400; stroke-width:0; stroke-opacity:1; 
stroke-linecap:round; stroke-linejoin:round;">
<path style="fill:#008400; fill-opacity:1.0; 
stroke:#008400; stroke-width:0; stroke-opacity:1; 
stroke-linecap:round; stroke-linejoin:round;fill-rule:evenodd;"
d="M 18734,15893
18743,15894
18752,15896
18761,15899
18769,15903
18777,15908
18784,15913
18791,15920
18797,15926
18803,15934
18807,15942
18811,15950
18814,15959
18817,15968
18818,15977
18818,15986
18818,16173
18818,16182
18817,16191
18814,16200
18811,16209
18807,16217
18803,16225
18797,16232
18791,16239
18784,16245
18777,16251
18769,16255
18761,16259
18752,16262
18743,16264
18734,16266
18725,16266
18499,16266
18489,16266
18480,16264
18471,16262
18463,16259
18454,16255
18447,16251
18439,16245
18432,16239
18426,16232
18421,16225
18416,16217
18412,16209
18409,16200
18407,16191
18405,16182
18405,16173
18405,15986
18405,15977
18407,15968
18409,15959
18412,15950
18416,15942
18421,15934
18426,15926
18432,15920
18439,15913
18447,15908
18454,15903
18463,15899
18471,15896
18480,15894
18489,15893
18499,15892
18725,15892
18734,15893
Z" /> 
<path style="fill:#008400; fill-opacity:1.0; 
stroke:#008400; stroke-width:0; stroke-opacity:1; 
stroke-linecap:round; stroke-linejoin:round;fill-rule:evenodd;"
d="M 18045,15893
18054,15894
18063,15896
18072,15899
18080,15903
18088,15908
18095,15913
18102,15920
18108,15926
18114,15934
18118,15942
18122,15950
18125,15959
18128,15968
18129,15977
18129,15986
18129,16173
18129,16182
18128,16191
18125,16200
18122,16209
18118,16217
18114,16225
18108,16232
18102,16239
18095,16245
18088,16251
18080,16255
18072,16259
18063,16262
18054,16264
18045,16266
18036,16266
17810,16266
17800,16266
17791,16264
17782,16262
17774,16259
17765,16255
17758,16251
17750,16245
17743,16239
17737,16232
17732,16225
17727,16217
17723,16209
17720,16200
17718,16191
17716,16182
17716,16173
17716,15986
17716,15977
17718,15968
17720,15959
17723,15950
17727,15942
17732,15934
17737,15926
17743,15920
17750,15913
17758,15908
17765,15903
17774,15899
17782,15896
17791,15894
17800,15893
17810,15892
18036,15892
18045,15893
Z" /> 
</g>
<g >
</g>
<g >
</g>
<g >
</g>
<g >
</g>
<g >
</g>
<g >
</g>
<g >
</g>
<g >
</g>
<g >
</g>
<g >
</g>
<g >
</g>
<g >
</g>
<g >
</g>
<g style="fill:#008400; fill-opacity:1.0; 
stroke:#008400; stroke-width:0; stroke-opacity:1; 
stroke-linecap:round; stroke-linejoin:round;">
<path style="fill:#008400; fill-opacity:1.0; 
stroke:#008400; stroke-width:0; stroke-opacity:1; 
stroke-linecap:round; stroke-linejoin:round;fill-rule:evenodd;"
d="M 7036,3916
7044,3918
7053,3920
7061,3922
7068,3926
7075,3930
7082,3935
7088,3941
7094,3947
7099,3954
7104,3961
7107,3969
7110,3977
7112,3985
7113,3994
7114,4002
7114,4204
7113,4212
7112,4221
7110,4229
7107,4237
7104,4244
7099,4252
7094,4258
7088,4265
7082,4270
7075,4275
7068,4280
7061,4283
7053,4286
7044,4288
7036,4289
7028,4290
6855,4290
6847,4289
6839,4288
6830,4286
6822,4283
6815,4280
6807,4275
6801,4270
6794,4265
6789,4258
6784,4252
6779,4244
6776,4237
6773,4229
6771,4221
6770,4212
6769,4204
6769,4002
6770,3994
6771,3985
6773,3977
6776,3969
6779,3961
6784,3954
6789,3947
6794,3941
6801,3935
6807,3930
6815,3926
6822,3922
6830,3920
6839,3918
6847,3916
6855,3916
7028,3916
7036,3916
Z" /> 
<path style="fill:#008400; fill-opacity:1.0; 
stroke:#008400; stroke-width:0; stroke-opacity:1; 
stroke-linecap:round; stroke-linejoin:round;fill-rule:evenodd;"
d="M 7656,3916
7664,3918
7673,3920
7681,3922
7688,3926
7695,3930
7702,3935
7709,3941
7714,3947
7719,3954
7724,3961
7727,3969
7730,3977
7732,3985
7733,3994
7734,4002
7734,4204
7733,4212
7732,4221
7730,4229
7727,4237
7724,4244
7719,4252
7714,4258
7709,4265
7702,4270
7695,4275
7688,4280
7681,4283
7673,4286
7664,4288
7656,4289
7648,4290
7475,4290
7467,4289
7459,4288
7450,4286
7442,4283
7435,4280
7428,4275
7421,4270
7414,4265
7409,4258
7404,4252
7399,4244
7396,4237
7393,4229
7391,4221
7390,4212
7389,4204
7389,4002
7390,3994
7391,3985
7393,3977
7396,3969
7399,3961
7404,3954
7409,3947
7414,3941
7421,3935
7428,3930
7435,3926
7442,3922
7450,3920
7459,3918
7467,3916
7475,3916
7648,3916
7656,3916
Z" /> 
</g>
<g >
</g>
<g >
</g>
<g >
</g>
<g style="fill:#008400; fill-opacity:1.0; 
stroke:#008400; stroke-width:0; stroke-opacity:1; 
stroke-linecap:round; stroke-linejoin:round;">
<path style="fill:#008400; fill-opacity:1.0; 
stroke:#008400; stroke-width:0; stroke-opacity:1; 
stroke-linecap:round; stroke-linejoin:round;fill-rule:evenodd;"
d="M 9010,3590
9019,3591
9027,3593
9035,3596
9043,3599
9050,3604
9057,3609
9063,3614
9069,3621
9074,3627
9078,3635
9082,3642
9084,3650
9086,3658
9088,3667
9088,3675
9088,3877
9088,3885
9086,3894
9084,3902
9082,3910
9078,3918
9074,3925
9069,3932
9063,3938
9057,3944
9050,3949
9043,3953
9035,3957
9027,3959
9019,3961
9010,3963
9002,3963
8830,3963
8821,3963
8813,3961
8805,3959
8797,3957
8789,3953
8782,3949
8775,3944
8769,3938
8763,3932
8758,3925
8754,3918
8750,3910
8747,3902
8745,3894
8744,3885
8744,3877
8744,3675
8744,3667
8745,3658
8747,3650
8750,3642
8754,3635
8758,3627
8763,3621
8769,3614
8775,3609
8782,3604
8789,3599
8797,3596
8805,3593
8813,3591
8821,3590
8830,3589
9002,3589
9010,3590
Z" /> 
<path style="fill:#008400; fill-opacity:1.0; 
stroke:#008400; stroke-width:0; stroke-opacity:1; 
stroke-linecap:round; stroke-linejoin:round;fill-rule:evenodd;"
d="M 8390,3590
8399,3591
8407,3593
8415,3596
8422,3599
8430,3604
8437,3609
8443,3614
8448,3621
8453,3627
8458,3635
8461,3642
8464,3650
8466,3658
8468,3667
8468,3675
8468,3877
8468,3885
8466,3894
8464,3902
8461,3910
8458,3918
8453,3925
8448,3932
8443,3938
8437,3944
8430,3949
8422,3953
8415,3957
8407,3959
8399,3961
8390,3963
8382,3963
8210,3963
8201,3963
8193,3961
8185,3959
8177,3957
8169,3953
8162,3949
8155,3944
8149,3938
8143,3932
8138,3925
8134,3918
8130,3910
8127,3902
8125,3894
8124,3885
8124,3877
8124,3675
8124,3667
8125,3658
8127,3650
8130,3642
8134,3635
8138,3627
8143,3621
8149,3614
8155,3609
8162,3604
8169,3599
8177,3596
8185,3593
8193,3591
8201,3590
8210,3589
8382,3589
8390,3590
Z" /> 
</g>
<g >
</g>
<g >
</g>
<g >
</g>
<g style="fill:#008400; fill-opacity:1.0; 
stroke:#008400; stroke-width:0; stroke-opacity:1; 
stroke-linecap:round; stroke-linejoin:round;">
<path style="fill:#008400; fill-opacity:1.0; 
stroke:#008400; stroke-width:0; stroke-opacity:1; 
stroke-linecap:round; stroke-linejoin:round;fill-rule:evenodd;"
d="M 23124,20338
23132,20339
23140,20341
23148,20344
23156,20347
23163,20352
23170,20357
23176,20362
23182,20369
23187,20375
23191,20383
23195,20390
23198,20398
23200,20406
23201,20415
23201,20423
23201,20625
23201,20633
23200,20642
23198,20650
23195,20658
23191,20666
23187,20673
23182,20680
23176,20686
23170,20692
23163,20697
23156,20701
23148,20705
23140,20707
23132,20710
23124,20711
23115,20711
22943,20711
22934,20711
22926,20710
22918,20707
22910,20705
22902,20701
22895,20697
22888,20692
22882,20686
22876,20680
22871,20673
22867,20666
22863,20658
22860,20650
22858,20642
22857,20633
22857,20625
22857,20423
22857,20415
22858,20406
22860,20398
22863,20390
22867,20383
22871,20375
22876,20369
22882,20362
22888,20357
22895,20352
22902,20347
22910,20344
22918,20341
22926,20339
22934,20338
22943,20337
23115,20337
23124,20338
Z" /> 
<path style="fill:#008400; fill-opacity:1.0; 
stroke:#008400; stroke-width:0; stroke-opacity:1; 
stroke-linecap:round; stroke-linejoin:round;fill-rule:evenodd;"
d="M 23744,20338
23752,20339
23760,20341
23768,20344
23776,20347
23783,20352
23790,20357
23796,20362
23802,20369
23807,20375
23811,20383
23815,20390
23818,20398
23820,20406
23821,20415
23821,20423
23821,20625
23821,20633
23820,20642
23818,20650
23815,20658
23811,20666
23807,20673
23802,20680
23796,20686
23790,20692
23783,20697
23776,20701
23768,20705
23760,20707
23752,20710
23744,20711
23735,20711
23563,20711
23555,20711
23546,20710
23538,20707
23530,20705
23522,20701
23515,20697
23508,20692
23502,20686
23496,20680
23491,20673
23487,20666
23483,20658
23481,20650
23479,20642
23477,20633
23477,20625
23477,20423
23477,20415
23479,20406
23481,20398
23483,20390
23487,20383
23491,20375
23496,20369
23502,20362
23508,20357
23515,20352
23522,20347
23530,20344
23538,20341
23546,20339
23555,20338
23563,20337
23735,20337
23744,20338
Z" /> 
</g>
<g >
</g>
<g >
</g>
<g >
</g>
<g >
</g>
<g >
</g>
<g >
</g>
<g >
</g>
<g >
</g>
<g >
</g>
<g >
</g>
<g >
</g>
<g >
</g>
<g >
</g>
<g >
</g>
<g >
</g>
<g >
</g>
<g >
</g>
<g >
</g>
<g >
</g>
<g >
</g>
<g >
</g>
<g >
</g>
<g >
</g>
<g >
</g>
<g >
</g>
<g >
</g>
<g >
</g>
<g >
</g>
<g >
</g>
<g >
</g>
</g>
<g style="fill:#000000; fill-opacity:1.0; 
stroke:#000000; stroke-width:0; stroke-opacity:1; 
stroke-linecap:round; stroke-linejoin:round;">
</g>
<g style="fill:#26FF16; fill-opacity:1.0; 
stroke:#26FF16; stroke-width:0; stroke-opacity:1; 
stroke-linecap:round; stroke-linejoin:round;">
</g>
<g style="fill:#26FF16; fill-opacity:0.0; 
stroke:#26FF16; stroke-width:31.4961; stroke-opacity:1; 
stroke-linecap:round; stroke-linejoin:round;">
<circle cx="15361.4" cy="18208.4" r="124.128" /> 
<circle cx="19017.2" cy="18198.4" r="181.72" /> 
<circle cx="21180.4" cy="15257.1" r="124.128" /> 
<circle cx="23437.1" cy="14434" r="153.739" /> 
<circle cx="21179.7" cy="13605.5" r="124.128" /> 
<circle cx="19304.9" cy="15446.1" r="124.128" /> 
<circle cx="19304" cy="14001.8" r="124.128" /> 
<circle cx="18200" cy="13999.3" r="124.128" /> 
<circle cx="23565.1" cy="16990" r="153.739" /> 
<circle cx="23567.1" cy="18127" r="153.739" /> 
<circle cx="21333.1" cy="17581" r="153.739" /> 
<circle cx="18990.1" cy="19371" r="153.739" /> 
<circle cx="19021.1" cy="17608" r="153.739" /> 
<circle cx="15285.1" cy="15963" r="153.739" /> 
<circle cx="18221.1" cy="15442" r="153.739" /> 
</g>
<g style="fill:#26FF16; fill-opacity:0.0; 
stroke:#26FF16; stroke-width:0.393701; stroke-opacity:1; 
stroke-linecap:round; stroke-linejoin:round;">
<path d="M21122 16713
L20990 16713
" />
<path d="M20990 16713
L20990 16626
" />
<path d="M21122 16626
L21122 16713
" />
<path d="M20990 16626
L21122 16626
" />
</g>
<g style="fill:#26FF16; fill-opacity:1.0; 
stroke:#26FF16; stroke-width:0.393701; stroke-opacity:1; 
stroke-linecap:round; stroke-linejoin:round;">
<path style="fill:#26FF16; fill-opacity:1.0; 
stroke:#26FF16; stroke-width:0.393701; stroke-opacity:1; 
stroke-linecap:round; stroke-linejoin:round;fill-rule:evenodd;"
d="M 19110,18731
19110,18235
18881,18235
18881,18731
Z" /> 
<g >
</g>
<g >
</g>
<g >
</g>
<g >
</g>
<g >
</g>
<g style="fill:#FF080E; fill-opacity:1.0; 
stroke:#FF080E; stroke-width:0.393701; stroke-opacity:1; 
stroke-linecap:round; stroke-linejoin:round;">
</g>
<g style="fill:#FF080E; fill-opacity:1.0; 
stroke:#FF080E; stroke-width:0; stroke-opacity:1; 
stroke-linecap:round; stroke-linejoin:round;">
<path style="fill:#FF080E; fill-opacity:1.0; 
stroke:#FF080E; stroke-width:0; stroke-opacity:1; 
stroke-linecap:round; stroke-linejoin:round;fill-rule:evenodd;"
d="M 18994,16493
19002,16494
19011,16496
19019,16499
19026,16503
19034,16507
19040,16512
19047,16518
19052,16524
19057,16531
19062,16538
19065,16546
19068,16554
19070,16562
19071,16570
19072,16579
19072,16780
19071,16789
19070,16797
19068,16805
19065,16813
19062,16821
19057,16828
19052,16835
19047,16841
19040,16847
19034,16852
19026,16856
19019,16860
19011,16863
19002,16865
18994,16866
18986,16866
18813,16866
18805,16866
18797,16865
18788,16863
18780,16860
18773,16856
18766,16852
18759,16847
18753,16841
18747,16835
18742,16828
18737,16821
18734,16813
18731,16805
18729,16797
18728,16789
18727,16780
18727,16579
18728,16570
18729,16562
18731,16554
18734,16546
18737,16538
18742,16531
18747,16524
18753,16518
18759,16512
18766,16507
18773,16503
18780,16499
18788,16496
18797,16494
18805,16493
18813,16492
18986,16492
18994,16493
Z" /> 
<path style="fill:#FF080E; fill-opacity:1.0; 
stroke:#FF080E; stroke-width:0; stroke-opacity:1; 
stroke-linecap:round; stroke-linejoin:round;fill-rule:evenodd;"
d="M 19614,16493
19623,16494
19631,16496
19639,16499
19646,16503
19654,16507
19660,16512
19667,16518
19672,16524
19677,16531
19682,16538
19685,16546
19688,16554
19690,16562
19691,16570
19692,16579
19692,16780
19691,16789
19690,16797
19688,16805
19685,16813
19682,16821
19677,16828
19672,16835
19667,16841
19660,16847
19654,16852
19646,16856
19639,16860
19631,16863
19623,16865
19614,16866
19606,16866
19434,16866
19425,16866
19417,16865
19409,16863
19401,16860
19393,16856
19386,16852
19379,16847
19373,16841
19367,16835
19362,16828
19358,16821
19354,16813
19351,16805
19349,16797
19348,16789
19347,16780
19347,16579
19348,16570
19349,16562
19351,16554
19354,16546
19358,16538
19362,16531
19367,16524
19373,16518
19379,16512
19386,16507
19393,16503
19401,16499
19409,16496
19417,16494
19425,16493
19434,16492
19606,16492
19614,16493
Z" /> 
</g>
<g >
</g>
<g style="fill:#FF080E; fill-opacity:1.0; 
stroke:#FF080E; stroke-width:0; stroke-opacity:1; 
stroke-linecap:round; stroke-linejoin:round;">
<path style="fill:#FF080E; fill-opacity:1.0; 
stroke:#FF080E; stroke-width:0; stroke-opacity:1; 
stroke-linecap:round; stroke-linejoin:round;fill-rule:evenodd;"
d="M 17890,16608
17899,16609
17908,16611
17917,16614
17925,16618
17933,16623
17940,16629
17947,16635
17953,16641
17959,16649
17964,16657
17967,16665
17971,16674
17973,16683
17974,16692
17975,16701
17975,16927
17974,16936
17973,16945
17971,16954
17967,16963
17964,16971
17959,16979
17953,16986
17947,16993
17940,16999
17933,17005
17925,17010
17917,17014
17908,17017
17899,17019
17890,17020
17881,17021
17694,17021
17685,17020
17676,17019
17667,17017
17658,17014
17650,17010
17642,17005
17635,16999
17628,16993
17622,16986
17616,16979
17612,16971
17608,16963
17605,16954
17602,16945
17601,16936
17601,16927
17601,16701
17601,16692
17602,16683
17605,16674
17608,16665
17612,16657
17616,16649
17622,16641
17628,16635
17635,16629
17642,16623
17650,16618
17658,16614
17667,16611
17676,16609
17685,16608
17694,16607
17881,16607
17890,16608
Z" /> 
<path style="fill:#FF080E; fill-opacity:1.0; 
stroke:#FF080E; stroke-width:0; stroke-opacity:1; 
stroke-linecap:round; stroke-linejoin:round;fill-rule:evenodd;"
d="M 17890,17297
17899,17298
17908,17300
17917,17303
17925,17307
17933,17312
17940,17317
17947,17324
17953,17330
17959,17338
17964,17346
17967,17354
17971,17363
17973,17372
17974,17381
17975,17390
17975,17616
17974,17625
17973,17634
17971,17643
17967,17652
17964,17660
17959,17668
17953,17675
17947,17682
17940,17688
17933,17694
17925,17699
17917,17703
17908,17706
17899,17708
17890,17709
17881,17710
17694,17710
17685,17709
17676,17708
17667,17706
17658,17703
17650,17699
17642,17694
17635,17688
17628,17682
17622,17675
17616,17668
17612,17660
17608,17652
17605,17643
17602,17634
17601,17625
17601,17616
17601,17390
17601,17381
17602,17372
17605,17363
17608,17354
17612,17346
17616,17338
17622,17330
17628,17324
17635,17317
17642,17312
17650,17307
17658,17303
17667,17300
17676,17298
17685,17297
17694,17296
17881,17296
17890,17297
Z" /> 
</g>
<g >
</g>
<g >
</g>
<g style="fill:#FF080E; fill-opacity:1.0; 
stroke:#FF080E; stroke-width:0; stroke-opacity:1; 
stroke-linecap:round; stroke-linejoin:round;">
<path style="fill:#FF080E; fill-opacity:1.0; 
stroke:#FF080E; stroke-width:0; stroke-opacity:1; 
stroke-linecap:round; stroke-linejoin:round;fill-rule:evenodd;"
d="M 23060,10810
23068,10811
23076,10813
23084,10816
23092,10820
23099,10824
23106,10829
23112,10835
23118,10841
23123,10848
23127,10855
23131,10863
23134,10871
23136,10879
23137,10887
23137,10896
23137,11097
23137,11106
23136,11114
23134,11122
23131,11130
23127,11138
23123,11145
23118,11152
23112,11158
23106,11164
23099,11169
23092,11173
23084,11177
23076,11180
23068,11182
23060,11183
23051,11184
22879,11184
22870,11183
22862,11182
22854,11180
22846,11177
22838,11173
22831,11169
22824,11164
22818,11158
22812,11152
22807,11145
22803,11138
22799,11130
22797,11122
22794,11114
22793,11106
22793,11097
22793,10896
22793,10887
22794,10879
22797,10871
22799,10863
22803,10855
22807,10848
22812,10841
22818,10835
22824,10829
22831,10824
22838,10820
22846,10816
22854,10813
22862,10811
22870,10810
22879,10810
23051,10810
23060,10810
Z" /> 
<path style="fill:#FF080E; fill-opacity:1.0; 
stroke:#FF080E; stroke-width:0; stroke-opacity:1; 
stroke-linecap:round; stroke-linejoin:round;fill-rule:evenodd;"
d="M 23680,10810
23688,10811
23696,10813
23704,10816
23712,10820
23719,10824
23726,10829
23732,10835
23738,10841
23743,10848
23747,10855
23751,10863
23754,10871
23756,10879
23757,10887
23757,10896
23757,11097
23757,11106
23756,11114
23754,11122
23751,11130
23747,11138
23743,11145
23738,11152
23732,11158
23726,11164
23719,11169
23712,11173
23704,11177
23696,11180
23688,11182
23680,11183
23671,11184
23499,11184
23491,11183
23482,11182
23474,11180
23466,11177
23458,11173
23451,11169
23444,11164
23438,11158
23432,11152
23427,11145
23423,11138
23419,11130
23417,11122
23415,11114
23413,11106
23413,11097
23413,10896
23413,10887
23415,10879
23417,10871
23419,10863
23423,10855
23427,10848
23432,10841
23438,10835
23444,10829
23451,10824
23458,10820
23466,10816
23474,10813
23482,10811
23491,10810
23499,10810
23671,10810
23680,10810
Z" /> 
</g>
<g >
</g>
<g >
</g>
<g >
</g>
<g >
</g>
<g >
</g>
<g >
</g>
<g >
</g>
<g >
</g>
<g >
</g>
<g >
</g>
<g >
</g>
<g >
</g>
<g >
</g>
<g >
</g>
<g >
</g>
<g >
</g>
<g >
</g>
<g >
</g>
<g >
</g>
<g >
</g>
<g style="fill:#FF080E; fill-opacity:1.0; 
stroke:#FF080E; stroke-width:0; stroke-opacity:1; 
stroke-linecap:round; stroke-linejoin:round;">
<path style="fill:#FF080E; fill-opacity:1.0; 
stroke:#FF080E; stroke-width:0; stroke-opacity:1; 
stroke-linecap:round; stroke-linejoin:round;fill-rule:evenodd;"
d="M 17610,14386
17610,14268
18161,14268
18161,14386
17610,14386
Z" /> 
<path style="fill:#FF080E; fill-opacity:1.0; 
stroke:#FF080E; stroke-width:0; stroke-opacity:1; 
stroke-linecap:round; stroke-linejoin:round;fill-rule:evenodd;"
d="M 17610,14583
17610,14465
18161,14465
18161,14583
17610,14583
Z" /> 
<path style="fill:#FF080E; fill-opacity:1.0; 
stroke:#FF080E; stroke-width:0; stroke-opacity:1; 
stroke-linecap:round; stroke-linejoin:round;fill-rule:evenodd;"
d="M 17610,14780
17610,14662
18161,14662
18161,14780
17610,14780
Z" /> 
<path style="fill:#FF080E; fill-opacity:1.0; 
stroke:#FF080E; stroke-width:0; stroke-opacity:1; 
stroke-linecap:round; stroke-linejoin:round;fill-rule:evenodd;"
d="M 17610,14977
17610,14859
18161,14859
18161,14977
17610,14977
Z" /> 
<path style="fill:#FF080E; fill-opacity:1.0; 
stroke:#FF080E; stroke-width:0; stroke-opacity:1; 
stroke-linecap:round; stroke-linejoin:round;fill-rule:evenodd;"
d="M 17610,15174
17610,15056
18161,15056
18161,15174
17610,15174
Z" /> 
<path style="fill:#FF080E; fill-opacity:1.0; 
stroke:#FF080E; stroke-width:0; stroke-opacity:1; 
stroke-linecap:round; stroke-linejoin:round;fill-rule:evenodd;"
d="M 19342,15174
19342,15056
19893,15056
19893,15174
19342,15174
Z" /> 
<path style="fill:#FF080E; fill-opacity:1.0; 
stroke:#FF080E; stroke-width:0; stroke-opacity:1; 
stroke-linecap:round; stroke-linejoin:round;fill-rule:evenodd;"
d="M 19342,14977
19342,14859
19893,14859
19893,14977
19342,14977
Z" /> 
<path style="fill:#FF080E; fill-opacity:1.0; 
stroke:#FF080E; stroke-width:0; stroke-opacity:1; 
stroke-linecap:round; stroke-linejoin:round;fill-rule:evenodd;"
d="M 19342,14780
19342,14662
19893,14662
19893,14780
19342,14780
Z" /> 
<path style="fill:#FF080E; fill-opacity:1.0; 
stroke:#FF080E; stroke-width:0; stroke-opacity:1; 
stroke-linecap:round; stroke-linejoin:round;fill-rule:evenodd;"
d="M 19342,14583
19342,14465
19893,14465
19893,14583
19342,14583
Z" /> 
<path style="fill:#FF080E; fill-opacity:1.0; 
stroke:#FF080E; stroke-width:0; stroke-opacity:1; 
stroke-linecap:round; stroke-linejoin:round;fill-rule:evenodd;"
d="M 19342,14386
19342,14268
19893,14268
19893,14386
19342,14386
Z" /> 
</g>
<g >
</g>
<g >
</g>
<g style="fill:#FF080E; fill-opacity:1.0; 
stroke:#FF080E; stroke-width:0; stroke-opacity:1; 
stroke-linecap:round; stroke-linejoin:round;">
<path style="fill:#FF080E; fill-opacity:1.0; 
stroke:#FF080E; stroke-width:0; stroke-opacity:1; 
stroke-linecap:round; stroke-linejoin:round;fill-rule:evenodd;"
d="M 18771,18723
18771,18841
18431,18841
18431,18723
18771,18723
Z" /> 
<path style="fill:#FF080E; fill-opacity:1.0; 
stroke:#FF080E; stroke-width:0; stroke-opacity:1; 
stroke-linecap:round; stroke-linejoin:round;fill-rule:evenodd;"
d="M 18756,18526
18756,18644
18416,18644
18416,18526
18756,18526
Z" /> 
<path style="fill:#FF080E; fill-opacity:1.0; 
stroke:#FF080E; stroke-width:0; stroke-opacity:1; 
stroke-linecap:round; stroke-linejoin:round;fill-rule:evenodd;"
d="M 18756,18329
18756,18447
18416,18447
18416,18329
18756,18329
Z" /> 
<path style="fill:#FF080E; fill-opacity:1.0; 
stroke:#FF080E; stroke-width:0; stroke-opacity:1; 
stroke-linecap:round; stroke-linejoin:round;fill-rule:evenodd;"
d="M 18771,18132
18771,18251
18431,18251
18431,18132
18771,18132
Z" /> 
<path style="fill:#FF080E; fill-opacity:1.0; 
stroke:#FF080E; stroke-width:0; stroke-opacity:1; 
stroke-linecap:round; stroke-linejoin:round;fill-rule:evenodd;"
d="M 19561,18132
19561,18251
19221,18251
19221,18132
19561,18132
Z" /> 
<path style="fill:#FF080E; fill-opacity:1.0; 
stroke:#FF080E; stroke-width:0; stroke-opacity:1; 
stroke-linecap:round; stroke-linejoin:round;fill-rule:evenodd;"
d="M 19575,18329
19575,18447
19235,18447
19235,18329
19575,18329
Z" /> 
<path style="fill:#FF080E; fill-opacity:1.0; 
stroke:#FF080E; stroke-width:0; stroke-opacity:1; 
stroke-linecap:round; stroke-linejoin:round;fill-rule:evenodd;"
d="M 19575,18526
19575,18644
19235,18644
19235,18526
19575,18526
Z" /> 
<path style="fill:#FF080E; fill-opacity:1.0; 
stroke:#FF080E; stroke-width:0; stroke-opacity:1; 
stroke-linecap:round; stroke-linejoin:round;fill-rule:evenodd;"
d="M 19561,18723
19561,18841
19221,18841
19221,18723
19561,18723
Z" /> 
</g>
<g >
</g>
<g >
</g>
<g >
</g>
<g style="fill:#FF080E; fill-opacity:1.0; 
stroke:#FF080E; stroke-width:0; stroke-opacity:1; 
stroke-linecap:round; stroke-linejoin:round;">
<path style="fill:#FF080E; fill-opacity:1.0; 
stroke:#FF080E; stroke-width:0; stroke-opacity:1; 
stroke-linecap:round; stroke-linejoin:round;fill-rule:evenodd;"
d="M 21812,9551
21821,9552
21830,9554
21839,9557
21847,9561
21855,9566
21862,9572
21869,9578
21875,9584
21881,9592
21886,9600
21889,9608
21893,9617
21895,9626
21896,9635
21897,9644
21897,9870
21896,9879
21895,9888
21893,9897
21889,9906
21886,9914
21881,9922
21875,9929
21869,9936
21862,9942
21855,9948
21847,9953
21839,9957
21830,9960
21821,9962
21812,9963
21803,9964
21616,9964
21607,9963
21598,9962
21589,9960
21580,9957
21572,9953
21564,9948
21557,9942
21550,9936
21544,9929
21538,9922
21534,9914
21530,9906
21527,9897
21524,9888
21523,9879
21523,9870
21523,9644
21523,9635
21524,9626
21527,9617
21530,9608
21534,9600
21538,9592
21544,9584
21550,9578
21557,9572
21564,9566
21572,9561
21580,9557
21589,9554
21598,9552
21607,9551
21616,9550
21803,9550
21812,9551
Z" /> 
<path style="fill:#FF080E; fill-opacity:1.0; 
stroke:#FF080E; stroke-width:0; stroke-opacity:1; 
stroke-linecap:round; stroke-linejoin:round;fill-rule:evenodd;"
d="M 21812,10240
21821,10241
21830,10243
21839,10246
21847,10250
21855,10255
21862,10260
21869,10267
21875,10273
21881,10281
21886,10289
21889,10297
21893,10306
21895,10315
21896,10324
21897,10333
21897,10559
21896,10568
21895,10577
21893,10586
21889,10595
21886,10603
21881,10611
21875,10618
21869,10625
21862,10631
21855,10637
21847,10642
21839,10646
21830,10649
21821,10651
21812,10652
21803,10653
21616,10653
21607,10652
21598,10651
21589,10649
21580,10646
21572,10642
21564,10637
21557,10631
21550,10625
21544,10618
21538,10611
21534,10603
21530,10595
21527,10586
21524,10577
21523,10568
21523,10559
21523,10333
21523,10324
21524,10315
21527,10306
21530,10297
21534,10289
21538,10281
21544,10273
21550,10267
21557,10260
21564,10255
21572,10250
21580,10246
21589,10243
21598,10241
21607,10240
21616,10239
21803,10239
21812,10240
Z" /> 
</g>
<g >
</g>
<g >
</g>
<g style="fill:#FF080E; fill-opacity:1.0; 
stroke:#FF080E; stroke-width:0; stroke-opacity:1; 
stroke-linecap:round; stroke-linejoin:round;">
<path style="fill:#FF080E; fill-opacity:1.0; 
stroke:#FF080E; stroke-width:0; stroke-opacity:1; 
stroke-linecap:round; stroke-linejoin:round;fill-rule:evenodd;"
d="M 24051,9454
24060,9455
24069,9457
24078,9460
24086,9464
24094,9469
24101,9475
24108,9481
24114,9487
24120,9495
24124,9503
24128,9511
24131,9520
24134,9529
24135,9538
24135,9547
24135,9773
24135,9782
24134,9791
24131,9800
24128,9809
24124,9817
24120,9825
24114,9832
24108,9839
24101,9845
24094,9851
24086,9856
24078,9860
24069,9863
24060,9865
24051,9866
24042,9867
23855,9867
23846,9866
23837,9865
23828,9863
23819,9860
23811,9856
23803,9851
23795,9845
23789,9839
23783,9832
23777,9825
23772,9817
23768,9809
23765,9800
23763,9791
23762,9782
23761,9773
23761,9547
23762,9538
23763,9529
23765,9520
23768,9511
23772,9503
23777,9495
23783,9487
23789,9481
23795,9475
23803,9469
23811,9464
23819,9460
23828,9457
23837,9455
23846,9454
23855,9453
24042,9453
24051,9454
Z" /> 
<path style="fill:#FF080E; fill-opacity:1.0; 
stroke:#FF080E; stroke-width:0; stroke-opacity:1; 
stroke-linecap:round; stroke-linejoin:round;fill-rule:evenodd;"
d="M 24051,8765
24060,8766
24069,8768
24078,8771
24086,8775
24094,8780
24101,8786
24108,8792
24114,8798
24120,8806
24124,8814
24128,8822
24131,8831
24134,8840
24135,8849
24135,8858
24135,9084
24135,9093
24134,9102
24131,9111
24128,9120
24124,9128
24120,9136
24114,9144
24108,9150
24101,9156
24094,9162
24086,9167
24078,9171
24069,9174
24060,9176
24051,9177
24042,9178
23855,9178
23846,9177
23837,9176
23828,9174
23819,9171
23811,9167
23803,9162
23795,9156
23789,9150
23783,9144
23777,9136
23772,9128
23768,9120
23765,9111
23763,9102
23762,9093
23761,9084
23761,8858
23762,8849
23763,8840
23765,8831
23768,8822
23772,8814
23777,8806
23783,8798
23789,8792
23795,8786
23803,8780
23811,8775
23819,8771
23828,8768
23837,8766
23846,8765
23855,8764
24042,8764
24051,8765
Z" /> 
</g>
<g >
</g>
<g >
</g>
<g >
</g>
<g >
</g>
<g >
</g>
<g >
</g>
<g >
</g>
<g style="fill:#FF080E; fill-opacity:1.0; 
stroke:#FF080E; stroke-width:0; stroke-opacity:1; 
stroke-linecap:round; stroke-linejoin:round;">
<path style="fill:#FF080E; fill-opacity:1.0; 
stroke:#FF080E; stroke-width:0; stroke-opacity:1; 
stroke-linecap:round; stroke-linejoin:round;fill-rule:evenodd;"
d="M 20834,17152
20843,17153
20852,17156
20861,17159
20869,17163
20877,17167
20884,17173
20891,17179
20897,17186
20903,17193
20908,17201
20912,17209
20915,17218
20917,17227
20918,17236
20919,17245
20919,17471
20918,17481
20917,17490
20915,17499
20912,17507
20908,17515
20903,17523
20897,17531
20891,17538
20884,17544
20877,17549
20869,17554
20861,17558
20852,17561
20843,17563
20834,17564
20825,17565
20638,17565
20629,17564
20620,17563
20611,17561
20602,17558
20594,17554
20586,17549
20579,17544
20572,17538
20566,17531
20560,17523
20556,17515
20552,17507
20549,17499
20546,17490
20545,17481
20545,17471
20545,17245
20545,17236
20546,17227
20549,17218
20552,17209
20556,17201
20560,17193
20566,17186
20572,17179
20579,17173
20586,17167
20594,17163
20602,17159
20611,17156
20620,17153
20629,17152
20638,17152
20825,17152
20834,17152
Z" /> 
<path style="fill:#FF080E; fill-opacity:1.0; 
stroke:#FF080E; stroke-width:0; stroke-opacity:1; 
stroke-linecap:round; stroke-linejoin:round;fill-rule:evenodd;"
d="M 20834,16463
20843,16464
20852,16467
20861,16470
20869,16474
20877,16478
20884,16484
20891,16490
20897,16497
20903,16504
20908,16512
20912,16520
20915,16529
20917,16538
20918,16547
20919,16556
20919,16782
20918,16792
20917,16801
20915,16810
20912,16818
20908,16826
20903,16834
20897,16842
20891,16849
20884,16855
20877,16860
20869,16865
20861,16869
20852,16872
20843,16874
20834,16875
20825,16876
20638,16876
20629,16875
20620,16874
20611,16872
20602,16869
20594,16865
20586,16860
20579,16855
20572,16849
20566,16842
20560,16834
20556,16826
20552,16818
20549,16810
20546,16801
20545,16792
20545,16782
20545,16556
20545,16547
20546,16538
20549,16529
20552,16520
20556,16512
20560,16504
20566,16497
20572,16490
20579,16484
20586,16478
20594,16474
20602,16470
20611,16467
20620,16464
20629,16463
20638,16463
20825,16463
20834,16463
Z" /> 
</g>
<g >
</g>
<g style="fill:#FF080E; fill-opacity:1.0; 
stroke:#FF080E; stroke-width:0; stroke-opacity:1; 
stroke-linecap:round; stroke-linejoin:round;">
<path style="fill:#FF080E; fill-opacity:1.0; 
stroke:#FF080E; stroke-width:0; stroke-opacity:1; 
stroke-linecap:round; stroke-linejoin:round;fill-rule:evenodd;"
d="M 10448,4768
10448,5083
9700,5083
9700,4768
10448,4768
Z" /> 
<path style="fill:#FF080E; fill-opacity:1.0; 
stroke:#FF080E; stroke-width:0; stroke-opacity:1; 
stroke-linecap:round; stroke-linejoin:round;fill-rule:evenodd;"
d="M 10448,4020
10448,4335
9700,4335
9700,4020
10448,4020
Z" /> 
<path style="fill:#FF080E; fill-opacity:1.0; 
stroke:#FF080E; stroke-width:0; stroke-opacity:1; 
stroke-linecap:round; stroke-linejoin:round;fill-rule:evenodd;"
d="M 9267,4394
9267,4709
8519,4709
8519,4394
9267,4394
Z" /> 
</g>
<g >
</g>
<g style="fill:#FF080E; fill-opacity:1.0; 
stroke:#FF080E; stroke-width:0; stroke-opacity:1; 
stroke-linecap:round; stroke-linejoin:round;">
<path style="fill:#FF080E; fill-opacity:1.0; 
stroke:#FF080E; stroke-width:0; stroke-opacity:1; 
stroke-linecap:round; stroke-linejoin:round;fill-rule:evenodd;"
d="M 10448,6158
10448,6473
9700,6473
9700,6158
10448,6158
Z" /> 
<path style="fill:#FF080E; fill-opacity:1.0; 
stroke:#FF080E; stroke-width:0; stroke-opacity:1; 
stroke-linecap:round; stroke-linejoin:round;fill-rule:evenodd;"
d="M 10448,5410
10448,5725
9700,5725
9700,5410
10448,5410
Z" /> 
<path style="fill:#FF080E; fill-opacity:1.0; 
stroke:#FF080E; stroke-width:0; stroke-opacity:1; 
stroke-linecap:round; stroke-linejoin:round;fill-rule:evenodd;"
d="M 9267,5784
9267,6099
8519,6099
8519,5784
9267,5784
Z" /> 
</g>
<g >
</g>
<g style="fill:#FF080E; fill-opacity:1.0; 
stroke:#FF080E; stroke-width:0; stroke-opacity:1; 
stroke-linecap:round; stroke-linejoin:round;">
<path style="fill:#FF080E; fill-opacity:1.0; 
stroke:#FF080E; stroke-width:0; stroke-opacity:1; 
stroke-linecap:round; stroke-linejoin:round;fill-rule:evenodd;"
d="M 8519,7103
8519,6788
9267,6788
9267,7103
8519,7103
Z" /> 
<path style="fill:#FF080E; fill-opacity:1.0; 
stroke:#FF080E; stroke-width:0; stroke-opacity:1; 
stroke-linecap:round; stroke-linejoin:round;fill-rule:evenodd;"
d="M 8519,7851
8519,7536
9267,7536
9267,7851
8519,7851
Z" /> 
<path style="fill:#FF080E; fill-opacity:1.0; 
stroke:#FF080E; stroke-width:0; stroke-opacity:1; 
stroke-linecap:round; stroke-linejoin:round;fill-rule:evenodd;"
d="M 9700,7477
9700,7162
10448,7162
10448,7477
9700,7477
Z" /> 
</g>
<g >
</g>
<g style="fill:#FF080E; fill-opacity:1.0; 
stroke:#FF080E; stroke-width:0; stroke-opacity:1; 
stroke-linecap:round; stroke-linejoin:round;">
<path style="fill:#FF080E; fill-opacity:1.0; 
stroke:#FF080E; stroke-width:0; stroke-opacity:1; 
stroke-linecap:round; stroke-linejoin:round;fill-rule:evenodd;"
d="M 14248,5607
14248,5922
13500,5922
13500,5607
14248,5607
Z" /> 
<path style="fill:#FF080E; fill-opacity:1.0; 
stroke:#FF080E; stroke-width:0; stroke-opacity:1; 
stroke-linecap:round; stroke-linejoin:round;fill-rule:evenodd;"
d="M 14248,4859
14248,5174
13500,5174
13500,4859
14248,4859
Z" /> 
<path style="fill:#FF080E; fill-opacity:1.0; 
stroke:#FF080E; stroke-width:0; stroke-opacity:1; 
stroke-linecap:round; stroke-linejoin:round;fill-rule:evenodd;"
d="M 13066,5233
13066,5548
12318,5548
12318,5233
13066,5233
Z" /> 
</g>
<g >
</g>
<g style="fill:#FF080E; fill-opacity:1.0; 
stroke:#FF080E; stroke-width:0; stroke-opacity:1; 
stroke-linecap:round; stroke-linejoin:round;">
<path style="fill:#FF080E; fill-opacity:1.0; 
stroke:#FF080E; stroke-width:0; stroke-opacity:1; 
stroke-linecap:round; stroke-linejoin:round;fill-rule:evenodd;"
d="M 14259,7016
14259,7331
13511,7331
13511,7016
14259,7016
Z" /> 
<path style="fill:#FF080E; fill-opacity:1.0; 
stroke:#FF080E; stroke-width:0; stroke-opacity:1; 
stroke-linecap:round; stroke-linejoin:round;fill-rule:evenodd;"
d="M 14259,6268
14259,6583
13511,6583
13511,6268
14259,6268
Z" /> 
<path style="fill:#FF080E; fill-opacity:1.0; 
stroke:#FF080E; stroke-width:0; stroke-opacity:1; 
stroke-linecap:round; stroke-linejoin:round;fill-rule:evenodd;"
d="M 13078,6642
13078,6957
12330,6957
12330,6642
13078,6642
Z" /> 
</g>
<g >
</g>
<g >
</g>
<g >
</g>
<g style="fill:#FF080E; fill-opacity:1.0; 
stroke:#FF080E; stroke-width:0; stroke-opacity:1; 
stroke-linecap:round; stroke-linejoin:round;">
<path style="fill:#FF080E; fill-opacity:1.0; 
stroke:#FF080E; stroke-width:0; stroke-opacity:1; 
stroke-linecap:round; stroke-linejoin:round;fill-rule:evenodd;"
d="M 6749,6877
6757,6878
6765,6880
6773,6883
6781,6887
6788,6891
6795,6896
6801,6902
6807,6908
6812,6915
6816,6922
6820,6930
6823,6938
6825,6946
6826,6954
6826,6963
6826,7164
6826,7173
6825,7181
6823,7189
6820,7197
6816,7205
6812,7212
6807,7219
6801,7225
6795,7231
6788,7236
6781,7240
6773,7244
6765,7247
6757,7249
6749,7250
6740,7251
6568,7251
6559,7250
6551,7249
6543,7247
6535,7244
6527,7240
6520,7236
6513,7231
6507,7225
6501,7219
6496,7212
6492,7205
6488,7197
6485,7189
6483,7181
6482,7173
6482,7164
6482,6963
6482,6954
6483,6946
6485,6938
6488,6930
6492,6922
6496,6915
6501,6908
6507,6902
6513,6896
6520,6891
6527,6887
6535,6883
6543,6880
6551,6878
6559,6877
6568,6877
6740,6877
6749,6877
Z" /> 
<path style="fill:#FF080E; fill-opacity:1.0; 
stroke:#FF080E; stroke-width:0; stroke-opacity:1; 
stroke-linecap:round; stroke-linejoin:round;fill-rule:evenodd;"
d="M 7369,6877
7377,6878
7385,6880
7393,6883
7401,6887
7408,6891
7415,6896
7421,6902
7427,6908
7432,6915
7436,6922
7440,6930
7443,6938
7445,6946
7446,6954
7446,6963
7446,7164
7446,7173
7445,7181
7443,7189
7440,7197
7436,7205
7432,7212
7427,7219
7421,7225
7415,7231
7408,7236
7401,7240
7393,7244
7385,7247
7377,7249
7369,7250
7360,7251
7188,7251
7180,7250
7171,7249
7163,7247
7155,7244
7147,7240
7140,7236
7133,7231
7127,7225
7121,7219
7116,7212
7112,7205
7108,7197
7106,7189
7104,7181
7102,7173
7102,7164
7102,6963
7102,6954
7104,6946
7106,6938
7108,6930
7112,6922
7116,6915
7121,6908
7127,6902
7133,6896
7140,6891
7147,6887
7155,6883
7163,6880
7171,6878
7180,6877
7188,6877
7360,6877
7369,6877
Z" /> 
</g>
<g >
</g>
<g style="fill:#FF080E; fill-opacity:1.0; 
stroke:#FF080E; stroke-width:0; stroke-opacity:1; 
stroke-linecap:round; stroke-linejoin:round;">
<path style="fill:#FF080E; fill-opacity:1.0; 
stroke:#FF080E; stroke-width:0; stroke-opacity:1; 
stroke-linecap:round; stroke-linejoin:round;fill-rule:evenodd;"
d="M 7302,3645
7310,3646
7318,3648
7326,3651
7334,3654
7341,3659
7348,3664
7354,3669
7360,3676
7365,3683
7369,3690
7373,3697
7376,3705
7378,3714
7379,3722
7379,3730
7379,3903
7379,3911
7378,3919
7376,3928
7373,3936
7369,3943
7365,3950
7360,3957
7354,3963
7348,3969
7341,3974
7334,3979
7326,3982
7318,3985
7310,3987
7302,3988
7293,3989
7092,3989
7083,3988
7075,3987
7067,3985
7059,3982
7051,3979
7044,3974
7037,3969
7031,3963
7025,3957
7020,3950
7016,3943
7012,3936
7009,3928
7007,3919
7006,3911
7005,3903
7005,3730
7006,3722
7007,3714
7009,3705
7012,3697
7016,3690
7020,3683
7025,3676
7031,3669
7037,3664
7044,3659
7051,3654
7059,3651
7067,3648
7075,3646
7083,3645
7092,3644
7293,3644
7302,3645
Z" /> 
<path style="fill:#FF080E; fill-opacity:1.0; 
stroke:#FF080E; stroke-width:0; stroke-opacity:1; 
stroke-linecap:round; stroke-linejoin:round;fill-rule:evenodd;"
d="M 7302,4265
7310,4266
7318,4268
7326,4271
7334,4274
7341,4279
7348,4284
7354,4290
7360,4296
7365,4303
7369,4310
7373,4317
7376,4325
7378,4334
7379,4342
7379,4350
7379,4523
7379,4531
7378,4539
7376,4548
7373,4556
7369,4563
7365,4571
7360,4577
7354,4584
7348,4589
7341,4594
7334,4599
7326,4602
7318,4605
7310,4607
7302,4608
7293,4609
7092,4609
7083,4608
7075,4607
7067,4605
7059,4602
7051,4599
7044,4594
7037,4589
7031,4584
7025,4577
7020,4571
7016,4563
7012,4556
7009,4548
7007,4539
7006,4531
7005,4523
7005,4350
7006,4342
7007,4334
7009,4325
7012,4317
7016,4310
7020,4303
7025,4296
7031,4290
7037,4284
7044,4279
7051,4274
7059,4271
7067,4268
7075,4266
7083,4265
7092,4264
7293,4264
7302,4265
Z" /> 
</g>
<g >
</g>
<g >
</g>
<g style="fill:#FF080E; fill-opacity:1.0; 
stroke:#FF080E; stroke-width:0; stroke-opacity:1; 
stroke-linecap:round; stroke-linejoin:round;">
<path style="fill:#FF080E; fill-opacity:1.0; 
stroke:#FF080E; stroke-width:0; stroke-opacity:1; 
stroke-linecap:round; stroke-linejoin:round;fill-rule:evenodd;"
d="M 6763,6043
6771,6044
6780,6046
6788,6049
6795,6053
6803,6057
6809,6062
6816,6068
6821,6074
6826,6081
6831,6088
6834,6096
6837,6104
6839,6112
6840,6120
6841,6129
6841,6330
6840,6339
6839,6347
6837,6355
6834,6363
6831,6371
6826,6378
6821,6385
6816,6391
6809,6397
6803,6402
6795,6406
6788,6410
6780,6413
6771,6415
6763,6416
6755,6416
6582,6416
6574,6416
6566,6415
6557,6413
6549,6410
6542,6406
6535,6402
6528,6397
6522,6391
6516,6385
6511,6378
6506,6371
6503,6363
6500,6355
6498,6347
6497,6339
6496,6330
6496,6129
6497,6120
6498,6112
6500,6104
6503,6096
6506,6088
6511,6081
6516,6074
6522,6068
6528,6062
6535,6057
6542,6053
6549,6049
6557,6046
6566,6044
6574,6043
6582,6042
6755,6042
6763,6043
Z" /> 
<path style="fill:#FF080E; fill-opacity:1.0; 
stroke:#FF080E; stroke-width:0; stroke-opacity:1; 
stroke-linecap:round; stroke-linejoin:round;fill-rule:evenodd;"
d="M 7383,6043
7392,6044
7400,6046
7408,6049
7415,6053
7423,6057
7429,6062
7436,6068
7441,6074
7446,6081
7451,6088
7454,6096
7457,6104
7459,6112
7460,6120
7461,6129
7461,6330
7460,6339
7459,6347
7457,6355
7454,6363
7451,6371
7446,6378
7441,6385
7436,6391
7429,6397
7423,6402
7415,6406
7408,6410
7400,6413
7392,6415
7383,6416
7375,6416
7203,6416
7194,6416
7186,6415
7178,6413
7170,6410
7162,6406
7155,6402
7148,6397
7142,6391
7136,6385
7131,6378
7127,6371
7123,6363
7120,6355
7118,6347
7117,6339
7116,6330
7116,6129
7117,6120
7118,6112
7120,6104
7123,6096
7127,6088
7131,6081
7136,6074
7142,6068
7148,6062
7155,6057
7162,6053
7170,6049
7178,6046
7186,6044
7194,6043
7203,6042
7375,6042
7383,6043
Z" /> 
</g>
<g >
</g>
<g style="fill:#FF080E; fill-opacity:1.0; 
stroke:#FF080E; stroke-width:0; stroke-opacity:1; 
stroke-linecap:round; stroke-linejoin:round;">
<path style="fill:#FF080E; fill-opacity:1.0; 
stroke:#FF080E; stroke-width:0; stroke-opacity:1; 
stroke-linecap:round; stroke-linejoin:round;fill-rule:evenodd;"
d="M 14160,14752
14168,14753
14177,14755
14185,14758
14192,14762
14199,14766
14206,14771
14212,14777
14218,14783
14223,14790
14228,14797
14231,14805
14234,14813
14236,14821
14237,14829
14238,14838
14238,15010
14237,15018
14236,15027
14234,15035
14231,15043
14228,15050
14223,15058
14218,15065
14212,15071
14206,15076
14199,15081
14192,15086
14185,15089
14177,15092
14168,15094
14160,15096
14152,15096
13950,15096
13941,15096
13933,15094
13925,15092
13917,15089
13909,15086
13902,15081
13895,15076
13889,15071
13883,15065
13878,15058
13874,15050
13870,15043
13867,15035
13865,15027
13864,15018
13864,15010
13864,14838
13864,14829
13865,14821
13867,14813
13870,14805
13874,14797
13878,14790
13883,14783
13889,14777
13895,14771
13902,14766
13909,14762
13917,14758
13925,14755
13933,14753
13941,14752
13950,14752
14152,14752
14160,14752
Z" /> 
<path style="fill:#FF080E; fill-opacity:1.0; 
stroke:#FF080E; stroke-width:0; stroke-opacity:1; 
stroke-linecap:round; stroke-linejoin:round;fill-rule:evenodd;"
d="M 14160,15372
14168,15373
14177,15375
14185,15378
14192,15382
14199,15386
14206,15391
14212,15397
14218,15403
14223,15410
14228,15417
14231,15425
14234,15433
14236,15441
14237,15449
14238,15458
14238,15630
14237,15638
14236,15647
14234,15655
14231,15663
14228,15671
14223,15678
14218,15685
14212,15691
14206,15697
14199,15702
14192,15706
14185,15710
14177,15712
14168,15714
14160,15716
14152,15716
13950,15716
13941,15716
13933,15714
13925,15712
13917,15710
13909,15706
13902,15702
13895,15697
13889,15691
13883,15685
13878,15678
13874,15671
13870,15663
13867,15655
13865,15647
13864,15638
13864,15630
13864,15458
13864,15449
13865,15441
13867,15433
13870,15425
13874,15417
13878,15410
13883,15403
13889,15397
13895,15391
13902,15386
13909,15382
13917,15378
13925,15375
13933,15373
13941,15372
13950,15372
14152,15372
14160,15372
Z" /> 
</g>
<g >
</g>
<g >
</g>
<g >
</g>
<g >
</g>
<g >
</g>
<g style="fill:#FF080E; fill-opacity:1.0; 
stroke:#FF080E; stroke-width:0; stroke-opacity:1; 
stroke-linecap:round; stroke-linejoin:round;">
<path style="fill:#FF080E; fill-opacity:1.0; 
stroke:#FF080E; stroke-width:0; stroke-opacity:1; 
stroke-linecap:round; stroke-linejoin:round;fill-rule:evenodd;"
d="M 19477,13038
19485,13040
19493,13042
19501,13044
19509,13048
19516,13052
19523,13057
19529,13063
19535,13069
19540,13076
19544,13083
19548,13091
19551,13099
19553,13107
19554,13116
19555,13124
19555,13326
19554,13334
19553,13343
19551,13351
19548,13359
19544,13366
19540,13374
19535,13380
19529,13387
19523,13392
19516,13397
19509,13402
19501,13405
19493,13408
19485,13410
19477,13412
19468,13412
19296,13412
19288,13412
19279,13410
19271,13408
19263,13405
19256,13402
19248,13397
19242,13392
19235,13387
19230,13380
19225,13374
19220,13366
19217,13359
19214,13351
19212,13343
19211,13334
19210,13326
19210,13124
19211,13116
19212,13107
19214,13099
19217,13091
19220,13083
19225,13076
19230,13069
19235,13063
19242,13057
19248,13052
19256,13048
19263,13044
19271,13042
19279,13040
19288,13038
19296,13038
19468,13038
19477,13038
Z" /> 
<path style="fill:#FF080E; fill-opacity:1.0; 
stroke:#FF080E; stroke-width:0; stroke-opacity:1; 
stroke-linecap:round; stroke-linejoin:round;fill-rule:evenodd;"
d="M 20097,13038
20105,13040
20114,13042
20122,13044
20129,13048
20136,13052
20143,13057
20149,13063
20155,13069
20160,13076
20165,13083
20168,13091
20171,13099
20173,13107
20174,13116
20175,13124
20175,13326
20174,13334
20173,13343
20171,13351
20168,13359
20165,13366
20160,13374
20155,13380
20149,13387
20143,13392
20136,13397
20129,13402
20122,13405
20114,13408
20105,13410
20097,13412
20089,13412
19916,13412
19908,13412
19900,13410
19891,13408
19883,13405
19876,13402
19868,13397
19862,13392
19855,13387
19850,13380
19845,13374
19840,13366
19837,13359
19834,13351
19832,13343
19831,13334
19830,13326
19830,13124
19831,13116
19832,13107
19834,13099
19837,13091
19840,13083
19845,13076
19850,13069
19855,13063
19862,13057
19868,13052
19876,13048
19883,13044
19891,13042
19900,13040
19908,13038
19916,13038
20089,13038
20097,13038
Z" /> 
</g>
<g >
</g>
<g style="fill:#FF080E; fill-opacity:1.0; 
stroke:#FF080E; stroke-width:0; stroke-opacity:1; 
stroke-linecap:round; stroke-linejoin:round;">
<path style="fill:#FF080E; fill-opacity:1.0; 
stroke:#FF080E; stroke-width:0; stroke-opacity:1; 
stroke-linecap:round; stroke-linejoin:round;fill-rule:evenodd;"
d="M 23080,16235
23316,16235
23316,16845
23080,16845
23080,16235
Z" /> 
<path style="fill:#FF080E; fill-opacity:1.0; 
stroke:#FF080E; stroke-width:0; stroke-opacity:1; 
stroke-linecap:round; stroke-linejoin:round;fill-rule:evenodd;"
d="M 22580,16235
22816,16235
22816,16845
22580,16845
22580,16235
Z" /> 
<path style="fill:#FF080E; fill-opacity:1.0; 
stroke:#FF080E; stroke-width:0; stroke-opacity:1; 
stroke-linecap:round; stroke-linejoin:round;fill-rule:evenodd;"
d="M 22080,16235
22316,16235
22316,16845
22080,16845
22080,16235
Z" /> 
<path style="fill:#FF080E; fill-opacity:1.0; 
stroke:#FF080E; stroke-width:0; stroke-opacity:1; 
stroke-linecap:round; stroke-linejoin:round;fill-rule:evenodd;"
d="M 21580,16235
21816,16235
21816,16845
21580,16845
21580,16235
Z" /> 
<path style="fill:#FF080E; fill-opacity:1.0; 
stroke:#FF080E; stroke-width:0; stroke-opacity:1; 
stroke-linecap:round; stroke-linejoin:round;fill-rule:evenodd;"
d="M 21580,18361
21816,18361
21816,18971
21580,18971
21580,18361
Z" /> 
<path style="fill:#FF080E; fill-opacity:1.0; 
stroke:#FF080E; stroke-width:0; stroke-opacity:1; 
stroke-linecap:round; stroke-linejoin:round;fill-rule:evenodd;"
d="M 22080,18361
22316,18361
22316,18971
22080,18971
22080,18361
Z" /> 
<path style="fill:#FF080E; fill-opacity:1.0; 
stroke:#FF080E; stroke-width:0; stroke-opacity:1; 
stroke-linecap:round; stroke-linejoin:round;fill-rule:evenodd;"
d="M 22580,18361
22816,18361
22816,18971
22580,18971
22580,18361
Z" /> 
<path style="fill:#FF080E; fill-opacity:1.0; 
stroke:#FF080E; stroke-width:0; stroke-opacity:1; 
stroke-linecap:round; stroke-linejoin:round;fill-rule:evenodd;"
d="M 23080,18361
23316,18361
23316,18971
23080,18971
23080,18361
Z" /> 
</g>
<g >
</g>
<g style="fill:#FF080E; fill-opacity:1.0; 
stroke:#FF080E; stroke-width:0; stroke-opacity:1; 
stroke-linecap:round; stroke-linejoin:round;">
<path style="fill:#FF080E; fill-opacity:1.0; 
stroke:#FF080E; stroke-width:0; stroke-opacity:1; 
stroke-linecap:round; stroke-linejoin:round;fill-rule:evenodd;"
d="M 22927,13077
23163,13077
23163,13688
22927,13688
22927,13077
Z" /> 
<path style="fill:#FF080E; fill-opacity:1.0; 
stroke:#FF080E; stroke-width:0; stroke-opacity:1; 
stroke-linecap:round; stroke-linejoin:round;fill-rule:evenodd;"
d="M 22427,13077
22663,13077
22663,13688
22427,13688
22427,13077
Z" /> 
<path style="fill:#FF080E; fill-opacity:1.0; 
stroke:#FF080E; stroke-width:0; stroke-opacity:1; 
stroke-linecap:round; stroke-linejoin:round;fill-rule:evenodd;"
d="M 21927,13077
22163,13077
22163,13688
21927,13688
21927,13077
Z" /> 
<path style="fill:#FF080E; fill-opacity:1.0; 
stroke:#FF080E; stroke-width:0; stroke-opacity:1; 
stroke-linecap:round; stroke-linejoin:round;fill-rule:evenodd;"
d="M 21427,13077
21663,13077
21663,13688
21427,13688
21427,13077
Z" /> 
<path style="fill:#FF080E; fill-opacity:1.0; 
stroke:#FF080E; stroke-width:0; stroke-opacity:1; 
stroke-linecap:round; stroke-linejoin:round;fill-rule:evenodd;"
d="M 21427,15203
21663,15203
21663,15814
21427,15814
21427,15203
Z" /> 
<path style="fill:#FF080E; fill-opacity:1.0; 
stroke:#FF080E; stroke-width:0; stroke-opacity:1; 
stroke-linecap:round; stroke-linejoin:round;fill-rule:evenodd;"
d="M 21927,15203
22163,15203
22163,15814
21927,15814
21927,15203
Z" /> 
<path style="fill:#FF080E; fill-opacity:1.0; 
stroke:#FF080E; stroke-width:0; stroke-opacity:1; 
stroke-linecap:round; stroke-linejoin:round;fill-rule:evenodd;"
d="M 22427,15203
22663,15203
22663,15814
22427,15814
22427,15203
Z" /> 
<path style="fill:#FF080E; fill-opacity:1.0; 
stroke:#FF080E; stroke-width:0; stroke-opacity:1; 
stroke-linecap:round; stroke-linejoin:round;fill-rule:evenodd;"
d="M 22927,15203
23163,15203
23163,15814
22927,15814
22927,15203
Z" /> 
</g>
<g >
</g>
<g >
</g>
<g style="fill:#FF080E; fill-opacity:1.0; 
stroke:#FF080E; stroke-width:0; stroke-opacity:1; 
stroke-linecap:round; stroke-linejoin:round;">
<path style="fill:#FF080E; fill-opacity:1.0; 
stroke:#FF080E; stroke-width:0; stroke-opacity:1; 
stroke-linecap:round; stroke-linejoin:round;fill-rule:evenodd;"
d="M 14517,17733
14517,17969
13907,17969
13907,17733
14517,17733
Z" /> 
<path style="fill:#FF080E; fill-opacity:1.0; 
stroke:#FF080E; stroke-width:0; stroke-opacity:1; 
stroke-linecap:round; stroke-linejoin:round;fill-rule:evenodd;"
d="M 14517,17233
14517,17469
13907,17469
13907,17233
14517,17233
Z" /> 
<path style="fill:#FF080E; fill-opacity:1.0; 
stroke:#FF080E; stroke-width:0; stroke-opacity:1; 
stroke-linecap:round; stroke-linejoin:round;fill-rule:evenodd;"
d="M 14517,16733
14517,16969
13907,16969
13907,16733
14517,16733
Z" /> 
<path style="fill:#FF080E; fill-opacity:1.0; 
stroke:#FF080E; stroke-width:0; stroke-opacity:1; 
stroke-linecap:round; stroke-linejoin:round;fill-rule:evenodd;"
d="M 14517,16233
14517,16469
13907,16469
13907,16233
14517,16233
Z" /> 
<path style="fill:#FF080E; fill-opacity:1.0; 
stroke:#FF080E; stroke-width:0; stroke-opacity:1; 
stroke-linecap:round; stroke-linejoin:round;fill-rule:evenodd;"
d="M 16643,16233
16643,16469
16033,16469
16033,16233
16643,16233
Z" /> 
<path style="fill:#FF080E; fill-opacity:1.0; 
stroke:#FF080E; stroke-width:0; stroke-opacity:1; 
stroke-linecap:round; stroke-linejoin:round;fill-rule:evenodd;"
d="M 16643,16733
16643,16969
16033,16969
16033,16733
16643,16733
Z" /> 
<path style="fill:#FF080E; fill-opacity:1.0; 
stroke:#FF080E; stroke-width:0; stroke-opacity:1; 
stroke-linecap:round; stroke-linejoin:round;fill-rule:evenodd;"
d="M 16643,17233
16643,17469
16033,17469
16033,17233
16643,17233
Z" /> 
<path style="fill:#FF080E; fill-opacity:1.0; 
stroke:#FF080E; stroke-width:0; stroke-opacity:1; 
stroke-linecap:round; stroke-linejoin:round;fill-rule:evenodd;"
d="M 16643,17733
16643,17969
16033,17969
16033,17733
16643,17733
Z" /> 
</g>
<g >
</g>
<g style="fill:#FF080E; fill-opacity:1.0; 
stroke:#FF080E; stroke-width:0; stroke-opacity:1; 
stroke-linecap:round; stroke-linejoin:round;">
<path style="fill:#FF080E; fill-opacity:1.0; 
stroke:#FF080E; stroke-width:0; stroke-opacity:1; 
stroke-linecap:round; stroke-linejoin:round;fill-rule:evenodd;"
d="M 14837,18954
14846,18955
14854,18957
14862,18960
14869,18963
14877,18968
14883,18973
14890,18979
14895,18985
14900,18992
14905,18999
14908,19006
14911,19014
14913,19023
14914,19031
14915,19039
14915,19212
14914,19220
14913,19228
14911,19237
14908,19245
14905,19252
14900,19260
14895,19266
14890,19273
14883,19278
14877,19283
14869,19288
14862,19291
14854,19294
14846,19296
14837,19297
14829,19298
14627,19298
14619,19297
14610,19296
14602,19294
14594,19291
14586,19288
14579,19283
14572,19278
14566,19273
14560,19266
14555,19260
14551,19252
14547,19245
14545,19237
14542,19228
14541,19220
14541,19212
14541,19039
14541,19031
14542,19023
14545,19014
14547,19006
14551,18999
14555,18992
14560,18985
14566,18979
14572,18973
14579,18968
14586,18963
14594,18960
14602,18957
14610,18955
14619,18954
14627,18953
14829,18953
14837,18954
Z" /> 
<path style="fill:#FF080E; fill-opacity:1.0; 
stroke:#FF080E; stroke-width:0; stroke-opacity:1; 
stroke-linecap:round; stroke-linejoin:round;fill-rule:evenodd;"
d="M 14837,18334
14846,18335
14854,18337
14862,18340
14869,18343
14877,18348
14883,18353
14890,18358
14895,18365
14900,18371
14905,18379
14908,18386
14911,18394
14913,18403
14914,18411
14915,18419
14915,18592
14914,18600
14913,18608
14911,18617
14908,18625
14905,18632
14900,18639
14895,18646
14890,18652
14883,18658
14877,18663
14869,18668
14862,18671
14854,18674
14846,18676
14837,18677
14829,18678
14627,18678
14619,18677
14610,18676
14602,18674
14594,18671
14586,18668
14579,18663
14572,18658
14566,18652
14560,18646
14555,18639
14551,18632
14547,18625
14545,18617
14542,18608
14541,18600
14541,18592
14541,18419
14541,18411
14542,18403
14545,18394
14547,18386
14551,18379
14555,18371
14560,18365
14566,18358
14572,18353
14579,18348
14586,18343
14594,18340
14602,18337
14610,18335
14619,18334
14627,18333
14829,18333
14837,18334
Z" /> 
</g>
<g >
</g>
<g style="fill:#FF080E; fill-opacity:1.0; 
stroke:#FF080E; stroke-width:0; stroke-opacity:1; 
stroke-linecap:round; stroke-linejoin:round;">
<path style="fill:#FF080E; fill-opacity:1.0; 
stroke:#FF080E; stroke-width:0; stroke-opacity:1; 
stroke-linecap:round; stroke-linejoin:round;fill-rule:evenodd;"
d="M 20857,17897
20865,17898
20873,17900
20881,17903
20889,17906
20896,17911
20903,17916
20909,17921
20915,17928
20920,17934
20924,17942
20928,17949
20931,17957
20933,17966
20934,17974
20935,17982
20935,18155
20934,18163
20933,18171
20931,18180
20928,18188
20924,18195
20920,18202
20915,18209
20909,18215
20903,18221
20896,18226
20889,18231
20881,18234
20873,18237
20865,18239
20857,18240
20848,18241
20647,18241
20638,18240
20630,18239
20622,18237
20614,18234
20606,18231
20599,18226
20592,18221
20586,18215
20580,18209
20575,18202
20571,18195
20567,18188
20564,18180
20562,18171
20561,18163
20561,18155
20561,17982
20561,17974
20562,17966
20564,17957
20567,17949
20571,17942
20575,17934
20580,17928
20586,17921
20592,17916
20599,17911
20606,17906
20614,17903
20622,17900
20630,17898
20638,17897
20647,17896
20848,17896
20857,17897
Z" /> 
<path style="fill:#FF080E; fill-opacity:1.0; 
stroke:#FF080E; stroke-width:0; stroke-opacity:1; 
stroke-linecap:round; stroke-linejoin:round;fill-rule:evenodd;"
d="M 20857,18517
20865,18518
20873,18520
20881,18523
20889,18526
20896,18531
20903,18536
20909,18542
20915,18548
20920,18555
20924,18562
20928,18569
20931,18577
20933,18586
20934,18594
20935,18602
20935,18775
20934,18783
20933,18791
20931,18800
20928,18808
20924,18815
20920,18822
20915,18829
20909,18836
20903,18841
20896,18846
20889,18851
20881,18854
20873,18857
20865,18859
20857,18860
20848,18861
20647,18861
20638,18860
20630,18859
20622,18857
20614,18854
20606,18851
20599,18846
20592,18841
20586,18836
20580,18829
20575,18822
20571,18815
20567,18808
20564,18800
20562,18791
20561,18783
20561,18775
20561,18602
20561,18594
20562,18586
20564,18577
20567,18569
20571,18562
20575,18555
20580,18548
20586,18542
20592,18536
20599,18531
20606,18526
20614,18523
20622,18520
20630,18518
20638,18517
20647,18516
20848,18516
20857,18517
Z" /> 
</g>
<g >
</g>
<g style="fill:#FF080E; fill-opacity:1.0; 
stroke:#FF080E; stroke-width:0; stroke-opacity:1; 
stroke-linecap:round; stroke-linejoin:round;">
<path style="fill:#FF080E; fill-opacity:1.0; 
stroke:#FF080E; stroke-width:0; stroke-opacity:1; 
stroke-linecap:round; stroke-linejoin:round;fill-rule:evenodd;"
d="M 20228,16909
20236,16910
20244,16912
20252,16915
20260,16919
20267,16923
20274,16928
20280,16934
20286,16940
20291,16947
20295,16954
20299,16962
20302,16970
20304,16978
20305,16986
20305,16995
20305,17167
20305,17176
20304,17184
20302,17192
20299,17200
20295,17208
20291,17215
20286,17222
20280,17228
20274,17234
20267,17239
20260,17243
20252,17247
20244,17250
20236,17252
20228,17253
20219,17253
20018,17253
20009,17253
20001,17252
19993,17250
19985,17247
19977,17243
19970,17239
19963,17234
19957,17228
19951,17222
19946,17215
19942,17208
19938,17200
19935,17192
19933,17184
19932,17176
19931,17167
19931,16995
19932,16986
19933,16978
19935,16970
19938,16962
19942,16954
19946,16947
19951,16940
19957,16934
19963,16928
19970,16923
19977,16919
19985,16915
19993,16912
20001,16910
20009,16909
20018,16909
20219,16909
20228,16909
Z" /> 
<path style="fill:#FF080E; fill-opacity:1.0; 
stroke:#FF080E; stroke-width:0; stroke-opacity:1; 
stroke-linecap:round; stroke-linejoin:round;fill-rule:evenodd;"
d="M 20228,16289
20236,16290
20244,16292
20252,16295
20260,16299
20267,16303
20274,16308
20280,16314
20286,16320
20291,16327
20295,16334
20299,16342
20302,16350
20304,16358
20305,16366
20305,16375
20305,16547
20305,16555
20304,16564
20302,16572
20299,16580
20295,16588
20291,16595
20286,16602
20280,16608
20274,16614
20267,16619
20260,16623
20252,16627
20244,16629
20236,16631
20228,16633
20219,16633
20018,16633
20009,16633
20001,16631
19993,16629
19985,16627
19977,16623
19970,16619
19963,16614
19957,16608
19951,16602
19946,16595
19942,16588
19938,16580
19935,16572
19933,16564
19932,16555
19931,16547
19931,16375
19932,16366
19933,16358
19935,16350
19938,16342
19942,16334
19946,16327
19951,16320
19957,16314
19963,16308
19970,16303
19977,16299
19985,16295
19993,16292
20001,16290
20009,16289
20018,16289
20219,16289
20228,16289
Z" /> 
</g>
<g >
</g>
<g >
</g>
<g >
</g>
<g >
</g>
<g >
</g>
<g >
</g>
<g >
</g>
<g >
</g>
<g >
</g>
<g >
</g>
<g >
</g>
<g style="fill:#FF080E; fill-opacity:1.0; 
stroke:#FF080E; stroke-width:0; stroke-opacity:1; 
stroke-linecap:round; stroke-linejoin:round;">
<path style="fill:#FF080E; fill-opacity:1.0; 
stroke:#FF080E; stroke-width:0; stroke-opacity:1; 
stroke-linecap:round; stroke-linejoin:round;fill-rule:evenodd;"
d="M 26575,12190
26575,12308
26024,12308
26024,12190
26575,12190
Z" /> 
<path style="fill:#FF080E; fill-opacity:1.0; 
stroke:#FF080E; stroke-width:0; stroke-opacity:1; 
stroke-linecap:round; stroke-linejoin:round;fill-rule:evenodd;"
d="M 26575,11993
26575,12111
26024,12111
26024,11993
26575,11993
Z" /> 
<path style="fill:#FF080E; fill-opacity:1.0; 
stroke:#FF080E; stroke-width:0; stroke-opacity:1; 
stroke-linecap:round; stroke-linejoin:round;fill-rule:evenodd;"
d="M 26575,11796
26575,11915
26024,11915
26024,11796
26575,11796
Z" /> 
<path style="fill:#FF080E; fill-opacity:1.0; 
stroke:#FF080E; stroke-width:0; stroke-opacity:1; 
stroke-linecap:round; stroke-linejoin:round;fill-rule:evenodd;"
d="M 26575,11600
26575,11718
26024,11718
26024,11600
26575,11600
Z" /> 
<path style="fill:#FF080E; fill-opacity:1.0; 
stroke:#FF080E; stroke-width:0; stroke-opacity:1; 
stroke-linecap:round; stroke-linejoin:round;fill-rule:evenodd;"
d="M 26575,11403
26575,11521
26024,11521
26024,11403
26575,11403
Z" /> 
<path style="fill:#FF080E; fill-opacity:1.0; 
stroke:#FF080E; stroke-width:0; stroke-opacity:1; 
stroke-linecap:round; stroke-linejoin:round;fill-rule:evenodd;"
d="M 24843,11403
24843,11521
24292,11521
24292,11403
24843,11403
Z" /> 
<path style="fill:#FF080E; fill-opacity:1.0; 
stroke:#FF080E; stroke-width:0; stroke-opacity:1; 
stroke-linecap:round; stroke-linejoin:round;fill-rule:evenodd;"
d="M 24843,11600
24843,11718
24292,11718
24292,11600
24843,11600
Z" /> 
<path style="fill:#FF080E; fill-opacity:1.0; 
stroke:#FF080E; stroke-width:0; stroke-opacity:1; 
stroke-linecap:round; stroke-linejoin:round;fill-rule:evenodd;"
d="M 24843,11796
24843,11915
24292,11915
24292,11796
24843,11796
Z" /> 
<path style="fill:#FF080E; fill-opacity:1.0; 
stroke:#FF080E; stroke-width:0; stroke-opacity:1; 
stroke-linecap:round; stroke-linejoin:round;fill-rule:evenodd;"
d="M 24843,11993
24843,12111
24292,12111
24292,11993
24843,11993
Z" /> 
<path style="fill:#FF080E; fill-opacity:1.0; 
stroke:#FF080E; stroke-width:0; stroke-opacity:1; 
stroke-linecap:round; stroke-linejoin:round;fill-rule:evenodd;"
d="M 24843,12190
24843,12308
24292,12308
24292,12190
24843,12190
Z" /> 
</g>
<g >
</g>
<g style="fill:#FF080E; fill-opacity:1.0; 
stroke:#FF080E; stroke-width:0; stroke-opacity:1; 
stroke-linecap:round; stroke-linejoin:round;">
<path style="fill:#FF080E; fill-opacity:1.0; 
stroke:#FF080E; stroke-width:0; stroke-opacity:1; 
stroke-linecap:round; stroke-linejoin:round;fill-rule:evenodd;"
d="M 17310,16604
17320,16605
17329,16608
17338,16611
17347,16615
17355,16620
17363,16626
17370,16632
17377,16640
17383,16647
17388,16656
17392,16664
17395,16673
17397,16683
17399,16692
17399,16702
17399,16958
17399,16968
17397,16977
17395,16986
17392,16996
17388,17004
17383,17013
17377,17020
17370,17027
17363,17034
17355,17040
17347,17045
17338,17049
17329,17052
17320,17054
17310,17056
17301,17056
16946,17056
16937,17056
16927,17054
16918,17052
16909,17049
16900,17045
16892,17040
16884,17034
16877,17027
16870,17020
16865,17013
16860,17004
16855,16996
16852,16986
16850,16977
16848,16968
16848,16958
16848,16702
16848,16692
16850,16683
16852,16673
16855,16664
16860,16656
16865,16647
16870,16640
16877,16632
16884,16626
16892,16620
16900,16615
16909,16611
16918,16608
16927,16605
16937,16604
16946,16604
17301,16604
17310,16604
Z" /> 
<path style="fill:#FF080E; fill-opacity:1.0; 
stroke:#FF080E; stroke-width:0; stroke-opacity:1; 
stroke-linecap:round; stroke-linejoin:round;fill-rule:evenodd;"
d="M 17310,17411
17320,17413
17329,17415
17338,17418
17347,17422
17355,17427
17363,17433
17370,17439
17377,17447
17383,17454
17388,17463
17392,17471
17395,17480
17397,17490
17399,17499
17399,17509
17399,17765
17399,17775
17397,17784
17395,17794
17392,17803
17388,17811
17383,17820
17377,17827
17370,17835
17363,17841
17355,17847
17347,17852
17338,17856
17329,17859
17320,17861
17310,17863
17301,17863
16946,17863
16937,17863
16927,17861
16918,17859
16909,17856
16900,17852
16892,17847
16884,17841
16877,17835
16870,17827
16865,17820
16860,17811
16855,17803
16852,17794
16850,17784
16848,17775
16848,17765
16848,17509
16848,17499
16850,17490
16852,17480
16855,17471
16860,17463
16865,17454
16870,17447
16877,17439
16884,17433
16892,17427
16900,17422
16909,17418
16918,17415
16927,17413
16937,17411
16946,17411
17301,17411
17310,17411
Z" /> 
</g>
<g >
</g>
<g style="fill:#FF080E; fill-opacity:1.0; 
stroke:#FF080E; stroke-width:0; stroke-opacity:1; 
stroke-linecap:round; stroke-linejoin:round;">
<path style="fill:#FF080E; fill-opacity:1.0; 
stroke:#FF080E; stroke-width:0; stroke-opacity:1; 
stroke-linecap:round; stroke-linejoin:round;fill-rule:evenodd;"
d="M 17286,15855
17295,15857
17305,15859
17314,15862
17322,15866
17331,15871
17338,15877
17346,15884
17352,15891
17358,15899
17363,15907
17367,15916
17370,15925
17373,15934
17374,15944
17374,15953
17374,16308
17374,16317
17373,16327
17370,16336
17367,16345
17363,16354
17358,16362
17352,16370
17346,16377
17338,16384
17331,16389
17322,16394
17314,16399
17305,16402
17295,16404
17286,16406
17276,16406
17020,16406
17010,16406
17001,16404
16992,16402
16982,16399
16974,16394
16965,16389
16958,16384
16951,16377
16944,16370
16938,16362
16933,16354
16929,16345
16926,16336
16924,16327
16922,16317
16922,16308
16922,15953
16922,15944
16924,15934
16926,15925
16929,15916
16933,15907
16938,15899
16944,15891
16951,15884
16958,15877
16965,15871
16974,15866
16982,15862
16992,15859
17001,15857
17010,15855
17020,15855
17276,15855
17286,15855
Z" /> 
<path style="fill:#FF080E; fill-opacity:1.0; 
stroke:#FF080E; stroke-width:0; stroke-opacity:1; 
stroke-linecap:round; stroke-linejoin:round;fill-rule:evenodd;"
d="M 18101,15848
18110,15850
18120,15852
18129,15855
18137,15859
18145,15864
18153,15870
18160,15876
18167,15883
18172,15891
18177,15899
18181,15908
18184,15917
18187,15926
18188,15935
18189,15945
18189,16302
18188,16311
18187,16321
18184,16330
18181,16339
18177,16348
18172,16356
18167,16363
18160,16371
18153,16377
18145,16383
18137,16388
18129,16392
18120,16395
18110,16397
18101,16398
18092,16399
17838,16399
17829,16398
17820,16397
17810,16395
17801,16392
17793,16388
17785,16383
17777,16377
17770,16371
17763,16363
17758,16356
17753,16348
17749,16339
17746,16330
17743,16321
17742,16311
17741,16302
17741,15945
17742,15935
17743,15926
17746,15917
17749,15908
17753,15899
17758,15891
17763,15883
17770,15876
17777,15870
17785,15864
17793,15859
17801,15855
17810,15852
17820,15850
17829,15848
17838,15848
18092,15848
18101,15848
Z" /> 
</g>
<g >
</g>
<g style="fill:#FF080E; fill-opacity:1.0; 
stroke:#FF080E; stroke-width:0; stroke-opacity:1; 
stroke-linecap:round; stroke-linejoin:round;">
<path style="fill:#FF080E; fill-opacity:1.0; 
stroke:#FF080E; stroke-width:0; stroke-opacity:1; 
stroke-linecap:round; stroke-linejoin:round;fill-rule:evenodd;"
d="M 17015,13146
17015,13461
16267,13461
16267,13146
17015,13146
Z" /> 
<path style="fill:#FF080E; fill-opacity:1.0; 
stroke:#FF080E; stroke-width:0; stroke-opacity:1; 
stroke-linecap:round; stroke-linejoin:round;fill-rule:evenodd;"
d="M 17015,12398
17015,12713
16267,12713
16267,12398
17015,12398
Z" /> 
<path style="fill:#FF080E; fill-opacity:1.0; 
stroke:#FF080E; stroke-width:0; stroke-opacity:1; 
stroke-linecap:round; stroke-linejoin:round;fill-rule:evenodd;"
d="M 15834,12772
15834,13087
15086,13087
15086,12772
15834,12772
Z" /> 
</g>
<g >
</g>
<g style="fill:#FF080E; fill-opacity:1.0; 
stroke:#FF080E; stroke-width:0; stroke-opacity:1; 
stroke-linecap:round; stroke-linejoin:round;">
<path style="fill:#FF080E; fill-opacity:1.0; 
stroke:#FF080E; stroke-width:0; stroke-opacity:1; 
stroke-linecap:round; stroke-linejoin:round;fill-rule:evenodd;"
d="M 16952,14607
16952,14922
16204,14922
16204,14607
16952,14607
Z" /> 
<path style="fill:#FF080E; fill-opacity:1.0; 
stroke:#FF080E; stroke-width:0; stroke-opacity:1; 
stroke-linecap:round; stroke-linejoin:round;fill-rule:evenodd;"
d="M 16952,13859
16952,14174
16204,14174
16204,13859
16952,13859
Z" /> 
<path style="fill:#FF080E; fill-opacity:1.0; 
stroke:#FF080E; stroke-width:0; stroke-opacity:1; 
stroke-linecap:round; stroke-linejoin:round;fill-rule:evenodd;"
d="M 15771,14233
15771,14548
15023,14548
15023,14233
15771,14233
Z" /> 
</g>
<g >
</g>
<g style="fill:#FF080E; fill-opacity:1.0; 
stroke:#FF080E; stroke-width:0; stroke-opacity:1; 
stroke-linecap:round; stroke-linejoin:round;">
<path style="fill:#FF080E; fill-opacity:1.0; 
stroke:#FF080E; stroke-width:0; stroke-opacity:1; 
stroke-linecap:round; stroke-linejoin:round;fill-rule:evenodd;"
d="M 19478,15917
19488,15918
19496,15920
19505,15924
19513,15927
19521,15932
19529,15938
19535,15944
19542,15951
19547,15958
19552,15966
19556,15974
19559,15983
19561,15992
19562,16001
19563,16010
19563,16197
19562,16206
19561,16215
19559,16224
19556,16233
19552,16241
19547,16249
19542,16256
19535,16263
19529,16269
19521,16275
19513,16279
19505,16283
19496,16286
19488,16289
19478,16290
19469,16290
19243,16290
19234,16290
19225,16289
19216,16286
19207,16283
19199,16279
19191,16275
19184,16269
19177,16263
19171,16256
19165,16249
19160,16241
19157,16233
19153,16224
19151,16215
19150,16206
19149,16197
19149,16010
19150,16001
19151,15992
19153,15983
19157,15974
19160,15966
19165,15958
19171,15951
19177,15944
19184,15938
19191,15932
19199,15927
19207,15924
19216,15920
19225,15918
19234,15917
19243,15916
19469,15916
19478,15917
Z" /> 
<path style="fill:#FF080E; fill-opacity:1.0; 
stroke:#FF080E; stroke-width:0; stroke-opacity:1; 
stroke-linecap:round; stroke-linejoin:round;fill-rule:evenodd;"
d="M 18789,15917
18799,15918
18807,15920
18816,15924
18824,15927
18832,15932
18840,15938
18846,15944
18853,15951
18858,15958
18863,15966
18867,15974
18870,15983
18872,15992
18873,16001
18874,16010
18874,16197
18873,16206
18872,16215
18870,16224
18867,16233
18863,16241
18858,16249
18853,16256
18846,16263
18840,16269
18832,16275
18824,16279
18816,16283
18807,16286
18799,16289
18789,16290
18780,16290
18554,16290
18545,16290
18536,16289
18527,16286
18518,16283
18510,16279
18502,16275
18495,16269
18488,16263
18482,16256
18476,16249
18471,16241
18468,16233
18464,16224
18462,16215
18461,16206
18460,16197
18460,16010
18461,16001
18462,15992
18464,15983
18468,15974
18471,15966
18476,15958
18482,15951
18488,15944
18495,15938
18502,15932
18510,15927
18518,15924
18527,15920
18536,15918
18545,15917
18554,15916
18780,15916
18789,15917
Z" /> 
</g>
<g >
</g>
<g >
</g>
<g >
</g>
</g>
<g style="fill:#000000; fill-opacity:1.0; 
stroke:#000000; stroke-width:0; stroke-opacity:1; 
stroke-linecap:round; stroke-linejoin:round;">
</g>
<g style="fill:#C2C200; fill-opacity:1.0; 
stroke:#C2C200; stroke-width:0; stroke-opacity:1; 
stroke-linecap:round; stroke-linejoin:round;">
</g>
<g style="fill:#C2C200; fill-opacity:1.0; 
stroke:#C2C200; stroke-width:59.0551; stroke-opacity:1; 
stroke-linecap:round; stroke-linejoin:round;">
</g>
<g style="fill:#C2C200; fill-opacity:0.0; 
stroke:#C2C200; stroke-width:59.0551; stroke-opacity:1; 
stroke-linecap:round; stroke-linejoin:round;">
<path d="M4303 22867
L30303 22867
" />
<path d="M31303 7967
L30303 6967
" />
<path d="M31303 20867
L31303 7967
" />
<path d="M30303 2467
L29703 1867
" />
<path d="M30303 21867
L31303 20867
" />
<path d="M30303 22867
L30303 21867
" />
<path d="M30303 6967
L30303 2467
" />
<path d="M4303 1867
L4303 22867
" />
<path d="M29703 1867
L4303 1867
" />
<g >
</g>
<g >
</g>
<g >
</g>
<g >
</g>
<g >
</g>
<g >
</g>
<g >
</g>
<g >
</g>
<g >
</g>
<g >
</g>
<g >
</g>
<g >
</g>
<g >
</g>
<g >
</g>
<g >
</g>
<g >
</g>
<g >
</g>
<g >
</g>
<g >
</g>
<g >
</g>
<g >
</g>
<g >
</g>
<g >
</g>
<g >
</g>
<g >
</g>
<g >
</g>
<g >
</g>
<g >
</g>
<g >
</g>
<g >
</g>
<g >
</g>
<g >
</g>
<g >
</g>
<g >
</g>
<g >
</g>
<g >
</g>
<g >
</g>
<g >
</g>
<g >
</g>
<g >
</g>
<g >
</g>
<g >
</g>
<g >
</g>
<g >
</g>
<g >
</g>
<g >
</g>
<g >
</g>
<g >
</g>
<g >
</g>
<g >
</g>
<g >
</g>
<g >
</g>
<g >
</g>
<g >
</g>
<g >
</g>
<g >
</g>
<g >
</g>
<g >
</g>
<g >
</g>
<g >
</g>
<g >
</g>
<g >
</g>
<g >
</g>
<g >
</g>
<g >
</g>
<g >
</g>
<g >
</g>
<g >
</g>
<g >
</g>
<g >
</g>
<g >
</g>
<g >
</g>
<g >
</g>
<g >
</g>
<g >
</g>
<g >
</g>
<g >
</g>
<g >
</g>
<g >
</g>
<g >
</g>
<g >
</g>
<g >
</g>
<g >
</g>
</g> 
</svg>
