M48
; DRILL file {KiCad 5.1.4-e60b266~84~ubuntu16.04.1} date Mon 07 Oct 2019 06:08:47 PM CDT
; FORMAT={-:-/ absolute / inch / decimal}
; #@! TF.CreationDate,2019-10-07T18:08:47-05:00
; #@! TF.GenerationSoftware,Kicad,Pcbnew,5.1.4-e60b266~84~ubuntu16.04.1
FMAT,2
INCH
T1C0.0118
T2C0.0157
T3C0.0236
T4C0.0315
T5C0.0354
T6C0.0394
T7C0.0630
T8C0.0709
T9C0.0787
T10C0.0906
T11C0.0236
T12C0.0787
%
G90
G05
T1
X5.1193Y-5.0177
X5.6642Y-5.0201
T2
X4.509Y-3.5352
X4.6276Y-5.1917
X4.6449Y-3.5327
X4.6504Y-3.7843
X4.6533Y-3.5815
X4.6717Y-3.663
X4.6823Y-3.3189
X4.7028Y-3.5747
X4.7152Y-3.7551
X4.7465Y-5.1008
X4.7697Y-3.5972
X4.774Y-3.2748
X4.8087Y-3.3953
X4.8224Y-3.585
X4.902Y-4.3413
X4.9079Y-4.1858
X4.9087Y-3.7036
X4.9496Y-4.6413
X4.9862Y-3.3477
X5.0043Y-3.565
X5.0362Y-3.622
X5.0484Y-3.3768
X5.0496Y-3.4665
X5.1039Y-3.9205
X5.1071Y-4.4886
X5.1709Y-3.5945
X5.1898Y-3.3756
X5.1988Y-3.8713
X5.2083Y-3.6642
X5.2478Y-4.0544
X5.2654Y-4.7575
X5.2689Y-4.3343
X5.3078Y-4.0524
X5.3165Y-4.3965
X5.3444Y-4.4204
X5.3551Y-4.5158
X5.3658Y-4.0504
X5.3705Y-4.587
X5.3772Y-4.8894
X5.378Y-4.4307
X5.3878Y-4.3496
X5.3913Y-4.1862
X5.4496Y-4.8157
X5.4571Y-4.6264
X5.4972Y-4.8724
X5.5232Y-4.7555
X5.5245Y-4.5285
X5.5342Y-4.7901
X5.5705Y-4.8937
X5.5763Y-4.7534
X5.5861Y-4.4712
X5.6175Y-4.6664
X5.665Y-3.9986
X5.6653Y-4.5843
X5.6705Y-4.8894
X5.6766Y-3.3004
X5.6834Y-3.378
X5.6866Y-4.2657
X5.6986Y-4.7707
X5.702Y-4.7366
X5.7035Y-4.6863
X5.7228Y-4.4138
X5.7343Y-4.6357
X5.7646Y-4.0661
X5.7898Y-4.9898
X5.8453Y-5.0154
X5.8626Y-4.3484
X5.8634Y-4.0748
X5.8696Y-4.742
X5.8705Y-4.5476
X5.8898Y-4.9567
X5.9008Y-4.4713
X5.9012Y-4.0213
X5.9047Y-4.5528
X5.9283Y-4.4535
X5.9291Y-4.9437
X5.9311Y-4.5094
X5.9374Y-4.0764
X5.9435Y-3.7464
X5.9483Y-3.959
X5.9618Y-4.9567
X5.963Y-4.5618
X5.9783Y-4.0701
X5.9978Y-4.0109
X6.0023Y-3.2059
X6.0031Y-3.667
X6.0083Y-4.285
X6.0157Y-4.8563
X6.022Y-4.3949
X6.0256Y-3.7744
X6.028Y-4.2291
X6.0283Y-3.1762
X6.0299Y-4.3634
X6.0319Y-4.4429
X6.0493Y-3.26
X6.0543Y-4.8976
X6.0551Y-3.6671
X6.061Y-4.3559
X6.0665Y-3.4807
X6.0677Y-5.0209
X6.0795Y-4.5461
X6.0914Y-3.959
X6.0969Y-4.0778
X6.1051Y-4.3268
X6.1051Y-4.448
X6.116Y-4.163
X6.1496Y-4.0453
X6.1496Y-4.9945
X6.1512Y-4.2118
X6.1537Y-3.9518
X6.1548Y-3.5954
X6.1551Y-4.448
X6.1622Y-3.5162
X6.1654Y-4.8815
X6.1792Y-3.7752
X6.1874Y-4.0811
X6.1874Y-4.4087
X6.1945Y-4.8606
X6.1996Y-4.2157
X6.2094Y-4.0201
X6.2157Y-4.2669
X6.2239Y-4.683
X6.2244Y-5.0272
X6.2295Y-4.2319
X6.2343Y-3.5398
X6.2417Y-4.3539
X6.2445Y-4.1024
X6.2535Y-4.3232
X6.266Y-3.9979
X6.3115Y-3.6723
X6.3161Y-3.7765
X6.3209Y-3.2823
X6.3341Y-4.4993
X6.3351Y-4.289
X6.3378Y-4.7543
X6.3448Y-3.639
X6.3459Y-4.3336
X6.3488Y-4.5996
X6.3508Y-4.252
X6.3539Y-4.4002
X6.3602Y-3.9545
X6.3602Y-4.6868
X6.3744Y-3.502
X6.3783Y-4.0819
X6.3863Y-3.4638
X6.4035Y-3.5445
X6.4255Y-4.8279
X6.4417Y-3.9335
X6.4468Y-4.9352
X6.4524Y-3.7161
X6.4524Y-3.7681
X6.5057Y-3.9204
X6.5368Y-4.8332
X6.5673Y-4.1016
X6.5697Y-4.0701
X6.5906Y-4.9712
X6.6044Y-4.621
X6.634Y-4.0128
X6.6394Y-4.045
X6.6444Y-4.8584
X6.6624Y-3.9565
X6.6645Y-4.1065
X6.6689Y-3.8815
X6.676Y-3.6512
X6.6929Y-4.4551
X6.7091Y-3.8823
X6.717Y-4.9886
X6.7298Y-4.7898
X6.743Y-4.0054
X6.7598Y-4.2807
X6.7601Y-4.1998
X6.7661Y-4.4028
X6.7661Y-4.4524
X6.7819Y-4.3232
X6.7986Y-4.8222
X6.8004Y-4.6814
X6.8118Y-4.765
X6.8449Y-4.8201
X6.8734Y-5.1841
X6.9004Y-4.8372
X6.9575Y-4.9961
X6.9584Y-4.3198
X6.9644Y-4.174
X6.9795Y-4.8819
T3
X5.2043Y-4.3004
X5.2043Y-4.7437
X5.4039Y-4.5398
X5.4122Y-4.7638
X5.4126Y-4.1185
X5.452Y-4.9547
X5.6976Y-4.4875
X5.7748Y-4.8803
X5.7776Y-4.7039
X5.9933Y-4.3039
X5.9933Y-4.4689
X6.0087Y-4.7012
X6.1031Y-4.9547
X6.1075Y-4.1185
X6.2193Y-4.3866
X6.2323Y-4.6421
X6.2323Y-4.7563
X6.2984Y-4.3264
X6.2984Y-4.7748
X6.3634Y-4.0403
X6.3696Y-4.1986
X6.4816Y-4.0415
X6.5992Y-3.9768
X6.5992Y-4.2527
T4
X5.7774Y-4.7632
X5.5463Y-3.4508
X5.7431Y-3.4508
X5.5463Y-3.7508
X5.7431Y-3.7508
X5.5463Y-3.9508
X5.7431Y-3.9508
X5.5463Y-3.5508
X5.7431Y-3.5508
X5.5463Y-3.8508
X5.7431Y-3.8508
X5.5463Y-3.6508
X5.7431Y-3.6508
T5
X4.5118Y-3.4677
X4.6118Y-3.4677
X5.5463Y-3.4508
X5.5463Y-3.5508
X5.5463Y-3.6508
X5.5463Y-3.7508
X5.5463Y-3.8508
X5.5463Y-3.9508
X5.7431Y-3.4508
X5.7431Y-3.5508
X5.7431Y-3.6508
X5.7431Y-3.7508
X5.7431Y-3.8508
X5.7431Y-3.9508
X4.5118Y-3.7358
X4.6118Y-3.7358
X4.5118Y-3.2232
X4.6118Y-3.2232
T6
X6.7299Y-3.5378
X6.8299Y-3.5378
X4.8201Y-3.9598
X4.9185Y-3.9598
X5.0169Y-3.9598
X4.4142Y-4.7
X4.4142Y-4.7984
X4.4142Y-4.8969
X4.8201Y-4.5275
X4.9185Y-4.5275
X5.0169Y-4.5275
X5.4059Y-5.1299
X5.5059Y-5.1299
X5.6059Y-5.1299
X5.7059Y-5.1299
X5.8059Y-5.1299
X5.9059Y-5.1299
X6.0059Y-5.1299
X6.1059Y-5.1299
X6.2059Y-5.1299
X6.7295Y-3.6799
X6.8295Y-3.6799
X6.1059Y-3.2299
X6.2059Y-3.2299
X6.3059Y-3.2299
X6.4059Y-3.2299
X6.5059Y-3.2299
X6.6059Y-3.2299
X6.7059Y-3.2299
X6.8059Y-3.2299
X6.0124Y-3.3952
X6.1124Y-3.3952
X6.2124Y-3.3952
X6.3124Y-3.3952
X6.4124Y-3.3952
X6.5124Y-3.3952
X6.6124Y-3.3952
X6.7124Y-3.3952
X6.8124Y-3.3952
X6.3059Y-5.1299
X6.4059Y-5.1299
X6.5059Y-5.1299
X6.6059Y-5.1299
X6.7059Y-5.1299
X6.8059Y-5.1299
X6.6227Y-4.7151
X6.7227Y-4.7151
X4.4161Y-4.0524
X4.4161Y-4.1508
X4.4161Y-4.2492
X6.8102Y-4.0268
X6.8102Y-4.1268
X6.8102Y-4.2268
X6.9102Y-4.0268
X6.9102Y-4.1268
X6.9102Y-4.2268
X6.9075Y-4.635
X6.9075Y-4.735
X5.0459Y-3.2299
X5.1459Y-3.2299
X5.2459Y-3.2299
X5.3459Y-3.2299
X5.4459Y-3.2299
X5.5459Y-3.2299
X5.6459Y-3.2299
X5.7459Y-3.2299
X5.8459Y-3.2299
X5.9459Y-3.2299
X6.8102Y-3.952
X6.9102Y-3.952
X5.7431Y-3.8508
X6.5524Y-3.8508
X6.5524Y-3.5508
X6.5524Y-3.6508
X6.5524Y-3.7508
X6.5524Y-3.8508
T7
X6.9059Y-3.8299
X6.9059Y-4.9299
X4.8559Y-5.1299
X4.9059Y-3.2299
T8
X6.4413Y-4.4752
X6.5083Y-4.3102
X6.5083Y-4.648
X6.587Y-4.5539
X6.8035Y-4.5539
X6.8587Y-4.3102
X6.898Y-4.4752
T9
X4.5461Y-4.3417
X4.5441Y-4.9894
T10
X4.5461Y-3.9598
X4.5441Y-4.6075
T11
X5.6957Y-4.3432
X5.8059Y-4.3432
X5.8059Y-4.4875
T12
X4.7453Y-4.2354
X5.0917Y-4.2354
X4.7453Y-4.8031
X5.0917Y-4.8031
T0
M30
