G04 #@! TF.GenerationSoftware,KiCad,Pcbnew,5.1.4-e60b266~84~ubuntu16.04.1*
G04 #@! TF.CreationDate,2019-10-13T20:58:43-05:00*
G04 #@! TF.ProjectId,uno shield v1.0 project SMD,756e6f20-7368-4696-956c-642076312e30,rev?*
G04 #@! TF.SameCoordinates,Original*
G04 #@! TF.FileFunction,Paste,Bot*
G04 #@! TF.FilePolarity,Positive*
%FSLAX46Y46*%
G04 Gerber Fmt 4.6, Leading zero omitted, Abs format (unit mm)*
G04 Created by KiCad (PCBNEW 5.1.4-e60b266~84~ubuntu16.04.1) date 2019-10-13 20:58:43*
%MOMM*%
%LPD*%
G04 APERTURE LIST*
%ADD10C,0.080000*%
%ADD11R,0.800000X0.400000*%
%ADD12R,0.800000X0.300000*%
%ADD13R,0.900000X0.800000*%
%ADD14R,1.400000X0.300000*%
%ADD15C,0.100000*%
%ADD16C,0.950000*%
%ADD17C,0.875000*%
G04 APERTURE END LIST*
D10*
X137654638Y-115303300D02*
G75*
G03X137654638Y-115303300I-390498J0D01*
G01*
X145112078Y-113974880D02*
G75*
G03X145112078Y-113974880I-390498J0D01*
G01*
X147144078Y-119481600D02*
G75*
G03X147144078Y-119481600I-390498J0D01*
G01*
X147065338Y-123959620D02*
G75*
G03X147065338Y-123959620I-390498J0D01*
G01*
X153016558Y-119413020D02*
G75*
G03X153016558Y-119413020I-390498J0D01*
G01*
X158690918Y-120799860D02*
G75*
G03X158690918Y-120799860I-390498J0D01*
G01*
X158685838Y-117911880D02*
G75*
G03X158685838Y-117911880I-390498J0D01*
G01*
X144983308Y-110315673D02*
G75*
G03X144983308Y-110315673I-315284J0D01*
G01*
X147787523Y-110322000D02*
G75*
G03X147787523Y-110322000I-315284J0D01*
G01*
X147789772Y-113990414D02*
G75*
G03X147789772Y-113990414I-315284J0D01*
G01*
X138795571Y-125854088D02*
G75*
G03X138795571Y-125854088I-315284J0D01*
G01*
X155335571Y-125844088D02*
G75*
G03X155335571Y-125844088I-315284J0D01*
G01*
X160295571Y-121284088D02*
G75*
G03X160295571Y-121284088I-315284J0D01*
G01*
X160295571Y-109884088D02*
G75*
G03X160295571Y-109884088I-315284J0D01*
G01*
X155445571Y-104604088D02*
G75*
G03X155445571Y-104604088I-315284J0D01*
G01*
X137795571Y-104604088D02*
G75*
G03X137795571Y-104604088I-315284J0D01*
G01*
X132505571Y-109234088D02*
G75*
G03X132505571Y-109234088I-315284J0D01*
G01*
X132505571Y-120484088D02*
G75*
G03X132505571Y-120484088I-315284J0D01*
G01*
X149913017Y-125891840D02*
G75*
G03X149913017Y-125891840I-315284J0D01*
G01*
X151734205Y-125901910D02*
G75*
G03X151734205Y-125901910I-315284J0D01*
G01*
X152551647Y-109315411D02*
G75*
G03X152551647Y-109315411I-315284J0D01*
G01*
X158360718Y-111419640D02*
G75*
G03X158360718Y-111419640I-390498J0D01*
G01*
X152553396Y-113510306D02*
G75*
G03X152553396Y-113510306I-315284J0D01*
G01*
X150920119Y-125576285D02*
G75*
G03X150920119Y-125576285I-315284J0D01*
G01*
X147205419Y-120984542D02*
G75*
G03X147205419Y-120984542I-461570J0D01*
G01*
X137773182Y-121006608D02*
G75*
G03X137773182Y-121006608I-315284J0D01*
G01*
D11*
X167619040Y-107760400D03*
X167619040Y-101260400D03*
D12*
X170119040Y-106760400D03*
X170119040Y-106260400D03*
X170119040Y-105760400D03*
X170119040Y-105260400D03*
X170119040Y-104760400D03*
X170119040Y-104260400D03*
X170119040Y-103760400D03*
X170119040Y-103260400D03*
X170119040Y-102760400D03*
X170119040Y-102260400D03*
D13*
X145637000Y-113118860D03*
X143637000Y-112168860D03*
X143637000Y-114068860D03*
D14*
X164630460Y-103749600D03*
X164630460Y-104249600D03*
X164630460Y-104749600D03*
X164630460Y-105249600D03*
X164630460Y-105749600D03*
X160230460Y-105749600D03*
X160230460Y-105249600D03*
X160230460Y-104749600D03*
X160230460Y-104249600D03*
X160230460Y-103749600D03*
D15*
G36*
X146805779Y-106026144D02*
G01*
X146828834Y-106029563D01*
X146851443Y-106035227D01*
X146873387Y-106043079D01*
X146894457Y-106053044D01*
X146914448Y-106065026D01*
X146933168Y-106078910D01*
X146950438Y-106094562D01*
X146966090Y-106111832D01*
X146979974Y-106130552D01*
X146991956Y-106150543D01*
X147001921Y-106171613D01*
X147009773Y-106193557D01*
X147015437Y-106216166D01*
X147018856Y-106239221D01*
X147020000Y-106262500D01*
X147020000Y-106737500D01*
X147018856Y-106760779D01*
X147015437Y-106783834D01*
X147009773Y-106806443D01*
X147001921Y-106828387D01*
X146991956Y-106849457D01*
X146979974Y-106869448D01*
X146966090Y-106888168D01*
X146950438Y-106905438D01*
X146933168Y-106921090D01*
X146914448Y-106934974D01*
X146894457Y-106946956D01*
X146873387Y-106956921D01*
X146851443Y-106964773D01*
X146828834Y-106970437D01*
X146805779Y-106973856D01*
X146782500Y-106975000D01*
X146207500Y-106975000D01*
X146184221Y-106973856D01*
X146161166Y-106970437D01*
X146138557Y-106964773D01*
X146116613Y-106956921D01*
X146095543Y-106946956D01*
X146075552Y-106934974D01*
X146056832Y-106921090D01*
X146039562Y-106905438D01*
X146023910Y-106888168D01*
X146010026Y-106869448D01*
X145998044Y-106849457D01*
X145988079Y-106828387D01*
X145980227Y-106806443D01*
X145974563Y-106783834D01*
X145971144Y-106760779D01*
X145970000Y-106737500D01*
X145970000Y-106262500D01*
X145971144Y-106239221D01*
X145974563Y-106216166D01*
X145980227Y-106193557D01*
X145988079Y-106171613D01*
X145998044Y-106150543D01*
X146010026Y-106130552D01*
X146023910Y-106111832D01*
X146039562Y-106094562D01*
X146056832Y-106078910D01*
X146075552Y-106065026D01*
X146095543Y-106053044D01*
X146116613Y-106043079D01*
X146138557Y-106035227D01*
X146161166Y-106029563D01*
X146184221Y-106026144D01*
X146207500Y-106025000D01*
X146782500Y-106025000D01*
X146805779Y-106026144D01*
X146805779Y-106026144D01*
G37*
D16*
X146495000Y-106500000D03*
D15*
G36*
X145055779Y-106026144D02*
G01*
X145078834Y-106029563D01*
X145101443Y-106035227D01*
X145123387Y-106043079D01*
X145144457Y-106053044D01*
X145164448Y-106065026D01*
X145183168Y-106078910D01*
X145200438Y-106094562D01*
X145216090Y-106111832D01*
X145229974Y-106130552D01*
X145241956Y-106150543D01*
X145251921Y-106171613D01*
X145259773Y-106193557D01*
X145265437Y-106216166D01*
X145268856Y-106239221D01*
X145270000Y-106262500D01*
X145270000Y-106737500D01*
X145268856Y-106760779D01*
X145265437Y-106783834D01*
X145259773Y-106806443D01*
X145251921Y-106828387D01*
X145241956Y-106849457D01*
X145229974Y-106869448D01*
X145216090Y-106888168D01*
X145200438Y-106905438D01*
X145183168Y-106921090D01*
X145164448Y-106934974D01*
X145144457Y-106946956D01*
X145123387Y-106956921D01*
X145101443Y-106964773D01*
X145078834Y-106970437D01*
X145055779Y-106973856D01*
X145032500Y-106975000D01*
X144457500Y-106975000D01*
X144434221Y-106973856D01*
X144411166Y-106970437D01*
X144388557Y-106964773D01*
X144366613Y-106956921D01*
X144345543Y-106946956D01*
X144325552Y-106934974D01*
X144306832Y-106921090D01*
X144289562Y-106905438D01*
X144273910Y-106888168D01*
X144260026Y-106869448D01*
X144248044Y-106849457D01*
X144238079Y-106828387D01*
X144230227Y-106806443D01*
X144224563Y-106783834D01*
X144221144Y-106760779D01*
X144220000Y-106737500D01*
X144220000Y-106262500D01*
X144221144Y-106239221D01*
X144224563Y-106216166D01*
X144230227Y-106193557D01*
X144238079Y-106171613D01*
X144248044Y-106150543D01*
X144260026Y-106130552D01*
X144273910Y-106111832D01*
X144289562Y-106094562D01*
X144306832Y-106078910D01*
X144325552Y-106065026D01*
X144345543Y-106053044D01*
X144366613Y-106043079D01*
X144388557Y-106035227D01*
X144411166Y-106029563D01*
X144434221Y-106026144D01*
X144457500Y-106025000D01*
X145032500Y-106025000D01*
X145055779Y-106026144D01*
X145055779Y-106026144D01*
G37*
D16*
X144745000Y-106500000D03*
D15*
G36*
X146025779Y-115126144D02*
G01*
X146048834Y-115129563D01*
X146071443Y-115135227D01*
X146093387Y-115143079D01*
X146114457Y-115153044D01*
X146134448Y-115165026D01*
X146153168Y-115178910D01*
X146170438Y-115194562D01*
X146186090Y-115211832D01*
X146199974Y-115230552D01*
X146211956Y-115250543D01*
X146221921Y-115271613D01*
X146229773Y-115293557D01*
X146235437Y-115316166D01*
X146238856Y-115339221D01*
X146240000Y-115362500D01*
X146240000Y-115837500D01*
X146238856Y-115860779D01*
X146235437Y-115883834D01*
X146229773Y-115906443D01*
X146221921Y-115928387D01*
X146211956Y-115949457D01*
X146199974Y-115969448D01*
X146186090Y-115988168D01*
X146170438Y-116005438D01*
X146153168Y-116021090D01*
X146134448Y-116034974D01*
X146114457Y-116046956D01*
X146093387Y-116056921D01*
X146071443Y-116064773D01*
X146048834Y-116070437D01*
X146025779Y-116073856D01*
X146002500Y-116075000D01*
X145427500Y-116075000D01*
X145404221Y-116073856D01*
X145381166Y-116070437D01*
X145358557Y-116064773D01*
X145336613Y-116056921D01*
X145315543Y-116046956D01*
X145295552Y-116034974D01*
X145276832Y-116021090D01*
X145259562Y-116005438D01*
X145243910Y-115988168D01*
X145230026Y-115969448D01*
X145218044Y-115949457D01*
X145208079Y-115928387D01*
X145200227Y-115906443D01*
X145194563Y-115883834D01*
X145191144Y-115860779D01*
X145190000Y-115837500D01*
X145190000Y-115362500D01*
X145191144Y-115339221D01*
X145194563Y-115316166D01*
X145200227Y-115293557D01*
X145208079Y-115271613D01*
X145218044Y-115250543D01*
X145230026Y-115230552D01*
X145243910Y-115211832D01*
X145259562Y-115194562D01*
X145276832Y-115178910D01*
X145295552Y-115165026D01*
X145315543Y-115153044D01*
X145336613Y-115143079D01*
X145358557Y-115135227D01*
X145381166Y-115129563D01*
X145404221Y-115126144D01*
X145427500Y-115125000D01*
X146002500Y-115125000D01*
X146025779Y-115126144D01*
X146025779Y-115126144D01*
G37*
D16*
X145715000Y-115600000D03*
D15*
G36*
X144275779Y-115126144D02*
G01*
X144298834Y-115129563D01*
X144321443Y-115135227D01*
X144343387Y-115143079D01*
X144364457Y-115153044D01*
X144384448Y-115165026D01*
X144403168Y-115178910D01*
X144420438Y-115194562D01*
X144436090Y-115211832D01*
X144449974Y-115230552D01*
X144461956Y-115250543D01*
X144471921Y-115271613D01*
X144479773Y-115293557D01*
X144485437Y-115316166D01*
X144488856Y-115339221D01*
X144490000Y-115362500D01*
X144490000Y-115837500D01*
X144488856Y-115860779D01*
X144485437Y-115883834D01*
X144479773Y-115906443D01*
X144471921Y-115928387D01*
X144461956Y-115949457D01*
X144449974Y-115969448D01*
X144436090Y-115988168D01*
X144420438Y-116005438D01*
X144403168Y-116021090D01*
X144384448Y-116034974D01*
X144364457Y-116046956D01*
X144343387Y-116056921D01*
X144321443Y-116064773D01*
X144298834Y-116070437D01*
X144275779Y-116073856D01*
X144252500Y-116075000D01*
X143677500Y-116075000D01*
X143654221Y-116073856D01*
X143631166Y-116070437D01*
X143608557Y-116064773D01*
X143586613Y-116056921D01*
X143565543Y-116046956D01*
X143545552Y-116034974D01*
X143526832Y-116021090D01*
X143509562Y-116005438D01*
X143493910Y-115988168D01*
X143480026Y-115969448D01*
X143468044Y-115949457D01*
X143458079Y-115928387D01*
X143450227Y-115906443D01*
X143444563Y-115883834D01*
X143441144Y-115860779D01*
X143440000Y-115837500D01*
X143440000Y-115362500D01*
X143441144Y-115339221D01*
X143444563Y-115316166D01*
X143450227Y-115293557D01*
X143458079Y-115271613D01*
X143468044Y-115250543D01*
X143480026Y-115230552D01*
X143493910Y-115211832D01*
X143509562Y-115194562D01*
X143526832Y-115178910D01*
X143545552Y-115165026D01*
X143565543Y-115153044D01*
X143586613Y-115143079D01*
X143608557Y-115135227D01*
X143631166Y-115129563D01*
X143654221Y-115126144D01*
X143677500Y-115125000D01*
X144252500Y-115125000D01*
X144275779Y-115126144D01*
X144275779Y-115126144D01*
G37*
D16*
X143965000Y-115600000D03*
D15*
G36*
X116312691Y-84706053D02*
G01*
X116333926Y-84709203D01*
X116354750Y-84714419D01*
X116374962Y-84721651D01*
X116394368Y-84730830D01*
X116412781Y-84741866D01*
X116430024Y-84754654D01*
X116445930Y-84769070D01*
X116460346Y-84784976D01*
X116473134Y-84802219D01*
X116484170Y-84820632D01*
X116493349Y-84840038D01*
X116500581Y-84860250D01*
X116505797Y-84881074D01*
X116508947Y-84902309D01*
X116510000Y-84923750D01*
X116510000Y-85436250D01*
X116508947Y-85457691D01*
X116505797Y-85478926D01*
X116500581Y-85499750D01*
X116493349Y-85519962D01*
X116484170Y-85539368D01*
X116473134Y-85557781D01*
X116460346Y-85575024D01*
X116445930Y-85590930D01*
X116430024Y-85605346D01*
X116412781Y-85618134D01*
X116394368Y-85629170D01*
X116374962Y-85638349D01*
X116354750Y-85645581D01*
X116333926Y-85650797D01*
X116312691Y-85653947D01*
X116291250Y-85655000D01*
X115853750Y-85655000D01*
X115832309Y-85653947D01*
X115811074Y-85650797D01*
X115790250Y-85645581D01*
X115770038Y-85638349D01*
X115750632Y-85629170D01*
X115732219Y-85618134D01*
X115714976Y-85605346D01*
X115699070Y-85590930D01*
X115684654Y-85575024D01*
X115671866Y-85557781D01*
X115660830Y-85539368D01*
X115651651Y-85519962D01*
X115644419Y-85499750D01*
X115639203Y-85478926D01*
X115636053Y-85457691D01*
X115635000Y-85436250D01*
X115635000Y-84923750D01*
X115636053Y-84902309D01*
X115639203Y-84881074D01*
X115644419Y-84860250D01*
X115651651Y-84840038D01*
X115660830Y-84820632D01*
X115671866Y-84802219D01*
X115684654Y-84784976D01*
X115699070Y-84769070D01*
X115714976Y-84754654D01*
X115732219Y-84741866D01*
X115750632Y-84730830D01*
X115770038Y-84721651D01*
X115790250Y-84714419D01*
X115811074Y-84709203D01*
X115832309Y-84706053D01*
X115853750Y-84705000D01*
X116291250Y-84705000D01*
X116312691Y-84706053D01*
X116312691Y-84706053D01*
G37*
D17*
X116072500Y-85180000D03*
D15*
G36*
X117887691Y-84706053D02*
G01*
X117908926Y-84709203D01*
X117929750Y-84714419D01*
X117949962Y-84721651D01*
X117969368Y-84730830D01*
X117987781Y-84741866D01*
X118005024Y-84754654D01*
X118020930Y-84769070D01*
X118035346Y-84784976D01*
X118048134Y-84802219D01*
X118059170Y-84820632D01*
X118068349Y-84840038D01*
X118075581Y-84860250D01*
X118080797Y-84881074D01*
X118083947Y-84902309D01*
X118085000Y-84923750D01*
X118085000Y-85436250D01*
X118083947Y-85457691D01*
X118080797Y-85478926D01*
X118075581Y-85499750D01*
X118068349Y-85519962D01*
X118059170Y-85539368D01*
X118048134Y-85557781D01*
X118035346Y-85575024D01*
X118020930Y-85590930D01*
X118005024Y-85605346D01*
X117987781Y-85618134D01*
X117969368Y-85629170D01*
X117949962Y-85638349D01*
X117929750Y-85645581D01*
X117908926Y-85650797D01*
X117887691Y-85653947D01*
X117866250Y-85655000D01*
X117428750Y-85655000D01*
X117407309Y-85653947D01*
X117386074Y-85650797D01*
X117365250Y-85645581D01*
X117345038Y-85638349D01*
X117325632Y-85629170D01*
X117307219Y-85618134D01*
X117289976Y-85605346D01*
X117274070Y-85590930D01*
X117259654Y-85575024D01*
X117246866Y-85557781D01*
X117235830Y-85539368D01*
X117226651Y-85519962D01*
X117219419Y-85499750D01*
X117214203Y-85478926D01*
X117211053Y-85457691D01*
X117210000Y-85436250D01*
X117210000Y-84923750D01*
X117211053Y-84902309D01*
X117214203Y-84881074D01*
X117219419Y-84860250D01*
X117226651Y-84840038D01*
X117235830Y-84820632D01*
X117246866Y-84802219D01*
X117259654Y-84784976D01*
X117274070Y-84769070D01*
X117289976Y-84754654D01*
X117307219Y-84741866D01*
X117325632Y-84730830D01*
X117345038Y-84721651D01*
X117365250Y-84714419D01*
X117386074Y-84709203D01*
X117407309Y-84706053D01*
X117428750Y-84705000D01*
X117866250Y-84705000D01*
X117887691Y-84706053D01*
X117887691Y-84706053D01*
G37*
D17*
X117647500Y-85180000D03*
D15*
G36*
X121327691Y-83876053D02*
G01*
X121348926Y-83879203D01*
X121369750Y-83884419D01*
X121389962Y-83891651D01*
X121409368Y-83900830D01*
X121427781Y-83911866D01*
X121445024Y-83924654D01*
X121460930Y-83939070D01*
X121475346Y-83954976D01*
X121488134Y-83972219D01*
X121499170Y-83990632D01*
X121508349Y-84010038D01*
X121515581Y-84030250D01*
X121520797Y-84051074D01*
X121523947Y-84072309D01*
X121525000Y-84093750D01*
X121525000Y-84606250D01*
X121523947Y-84627691D01*
X121520797Y-84648926D01*
X121515581Y-84669750D01*
X121508349Y-84689962D01*
X121499170Y-84709368D01*
X121488134Y-84727781D01*
X121475346Y-84745024D01*
X121460930Y-84760930D01*
X121445024Y-84775346D01*
X121427781Y-84788134D01*
X121409368Y-84799170D01*
X121389962Y-84808349D01*
X121369750Y-84815581D01*
X121348926Y-84820797D01*
X121327691Y-84823947D01*
X121306250Y-84825000D01*
X120868750Y-84825000D01*
X120847309Y-84823947D01*
X120826074Y-84820797D01*
X120805250Y-84815581D01*
X120785038Y-84808349D01*
X120765632Y-84799170D01*
X120747219Y-84788134D01*
X120729976Y-84775346D01*
X120714070Y-84760930D01*
X120699654Y-84745024D01*
X120686866Y-84727781D01*
X120675830Y-84709368D01*
X120666651Y-84689962D01*
X120659419Y-84669750D01*
X120654203Y-84648926D01*
X120651053Y-84627691D01*
X120650000Y-84606250D01*
X120650000Y-84093750D01*
X120651053Y-84072309D01*
X120654203Y-84051074D01*
X120659419Y-84030250D01*
X120666651Y-84010038D01*
X120675830Y-83990632D01*
X120686866Y-83972219D01*
X120699654Y-83954976D01*
X120714070Y-83939070D01*
X120729976Y-83924654D01*
X120747219Y-83911866D01*
X120765632Y-83900830D01*
X120785038Y-83891651D01*
X120805250Y-83884419D01*
X120826074Y-83879203D01*
X120847309Y-83876053D01*
X120868750Y-83875000D01*
X121306250Y-83875000D01*
X121327691Y-83876053D01*
X121327691Y-83876053D01*
G37*
D17*
X121087500Y-84350000D03*
D15*
G36*
X119752691Y-83876053D02*
G01*
X119773926Y-83879203D01*
X119794750Y-83884419D01*
X119814962Y-83891651D01*
X119834368Y-83900830D01*
X119852781Y-83911866D01*
X119870024Y-83924654D01*
X119885930Y-83939070D01*
X119900346Y-83954976D01*
X119913134Y-83972219D01*
X119924170Y-83990632D01*
X119933349Y-84010038D01*
X119940581Y-84030250D01*
X119945797Y-84051074D01*
X119948947Y-84072309D01*
X119950000Y-84093750D01*
X119950000Y-84606250D01*
X119948947Y-84627691D01*
X119945797Y-84648926D01*
X119940581Y-84669750D01*
X119933349Y-84689962D01*
X119924170Y-84709368D01*
X119913134Y-84727781D01*
X119900346Y-84745024D01*
X119885930Y-84760930D01*
X119870024Y-84775346D01*
X119852781Y-84788134D01*
X119834368Y-84799170D01*
X119814962Y-84808349D01*
X119794750Y-84815581D01*
X119773926Y-84820797D01*
X119752691Y-84823947D01*
X119731250Y-84825000D01*
X119293750Y-84825000D01*
X119272309Y-84823947D01*
X119251074Y-84820797D01*
X119230250Y-84815581D01*
X119210038Y-84808349D01*
X119190632Y-84799170D01*
X119172219Y-84788134D01*
X119154976Y-84775346D01*
X119139070Y-84760930D01*
X119124654Y-84745024D01*
X119111866Y-84727781D01*
X119100830Y-84709368D01*
X119091651Y-84689962D01*
X119084419Y-84669750D01*
X119079203Y-84648926D01*
X119076053Y-84627691D01*
X119075000Y-84606250D01*
X119075000Y-84093750D01*
X119076053Y-84072309D01*
X119079203Y-84051074D01*
X119084419Y-84030250D01*
X119091651Y-84010038D01*
X119100830Y-83990632D01*
X119111866Y-83972219D01*
X119124654Y-83954976D01*
X119139070Y-83939070D01*
X119154976Y-83924654D01*
X119172219Y-83911866D01*
X119190632Y-83900830D01*
X119210038Y-83891651D01*
X119230250Y-83884419D01*
X119251074Y-83879203D01*
X119272309Y-83876053D01*
X119293750Y-83875000D01*
X119731250Y-83875000D01*
X119752691Y-83876053D01*
X119752691Y-83876053D01*
G37*
D17*
X119512500Y-84350000D03*
D15*
G36*
X157175191Y-126416053D02*
G01*
X157196426Y-126419203D01*
X157217250Y-126424419D01*
X157237462Y-126431651D01*
X157256868Y-126440830D01*
X157275281Y-126451866D01*
X157292524Y-126464654D01*
X157308430Y-126479070D01*
X157322846Y-126494976D01*
X157335634Y-126512219D01*
X157346670Y-126530632D01*
X157355849Y-126550038D01*
X157363081Y-126570250D01*
X157368297Y-126591074D01*
X157371447Y-126612309D01*
X157372500Y-126633750D01*
X157372500Y-127146250D01*
X157371447Y-127167691D01*
X157368297Y-127188926D01*
X157363081Y-127209750D01*
X157355849Y-127229962D01*
X157346670Y-127249368D01*
X157335634Y-127267781D01*
X157322846Y-127285024D01*
X157308430Y-127300930D01*
X157292524Y-127315346D01*
X157275281Y-127328134D01*
X157256868Y-127339170D01*
X157237462Y-127348349D01*
X157217250Y-127355581D01*
X157196426Y-127360797D01*
X157175191Y-127363947D01*
X157153750Y-127365000D01*
X156716250Y-127365000D01*
X156694809Y-127363947D01*
X156673574Y-127360797D01*
X156652750Y-127355581D01*
X156632538Y-127348349D01*
X156613132Y-127339170D01*
X156594719Y-127328134D01*
X156577476Y-127315346D01*
X156561570Y-127300930D01*
X156547154Y-127285024D01*
X156534366Y-127267781D01*
X156523330Y-127249368D01*
X156514151Y-127229962D01*
X156506919Y-127209750D01*
X156501703Y-127188926D01*
X156498553Y-127167691D01*
X156497500Y-127146250D01*
X156497500Y-126633750D01*
X156498553Y-126612309D01*
X156501703Y-126591074D01*
X156506919Y-126570250D01*
X156514151Y-126550038D01*
X156523330Y-126530632D01*
X156534366Y-126512219D01*
X156547154Y-126494976D01*
X156561570Y-126479070D01*
X156577476Y-126464654D01*
X156594719Y-126451866D01*
X156613132Y-126440830D01*
X156632538Y-126431651D01*
X156652750Y-126424419D01*
X156673574Y-126419203D01*
X156694809Y-126416053D01*
X156716250Y-126415000D01*
X157153750Y-126415000D01*
X157175191Y-126416053D01*
X157175191Y-126416053D01*
G37*
D17*
X156935000Y-126890000D03*
D15*
G36*
X158750191Y-126416053D02*
G01*
X158771426Y-126419203D01*
X158792250Y-126424419D01*
X158812462Y-126431651D01*
X158831868Y-126440830D01*
X158850281Y-126451866D01*
X158867524Y-126464654D01*
X158883430Y-126479070D01*
X158897846Y-126494976D01*
X158910634Y-126512219D01*
X158921670Y-126530632D01*
X158930849Y-126550038D01*
X158938081Y-126570250D01*
X158943297Y-126591074D01*
X158946447Y-126612309D01*
X158947500Y-126633750D01*
X158947500Y-127146250D01*
X158946447Y-127167691D01*
X158943297Y-127188926D01*
X158938081Y-127209750D01*
X158930849Y-127229962D01*
X158921670Y-127249368D01*
X158910634Y-127267781D01*
X158897846Y-127285024D01*
X158883430Y-127300930D01*
X158867524Y-127315346D01*
X158850281Y-127328134D01*
X158831868Y-127339170D01*
X158812462Y-127348349D01*
X158792250Y-127355581D01*
X158771426Y-127360797D01*
X158750191Y-127363947D01*
X158728750Y-127365000D01*
X158291250Y-127365000D01*
X158269809Y-127363947D01*
X158248574Y-127360797D01*
X158227750Y-127355581D01*
X158207538Y-127348349D01*
X158188132Y-127339170D01*
X158169719Y-127328134D01*
X158152476Y-127315346D01*
X158136570Y-127300930D01*
X158122154Y-127285024D01*
X158109366Y-127267781D01*
X158098330Y-127249368D01*
X158089151Y-127229962D01*
X158081919Y-127209750D01*
X158076703Y-127188926D01*
X158073553Y-127167691D01*
X158072500Y-127146250D01*
X158072500Y-126633750D01*
X158073553Y-126612309D01*
X158076703Y-126591074D01*
X158081919Y-126570250D01*
X158089151Y-126550038D01*
X158098330Y-126530632D01*
X158109366Y-126512219D01*
X158122154Y-126494976D01*
X158136570Y-126479070D01*
X158152476Y-126464654D01*
X158169719Y-126451866D01*
X158188132Y-126440830D01*
X158207538Y-126431651D01*
X158227750Y-126424419D01*
X158248574Y-126419203D01*
X158269809Y-126416053D01*
X158291250Y-126415000D01*
X158728750Y-126415000D01*
X158750191Y-126416053D01*
X158750191Y-126416053D01*
G37*
D17*
X158510000Y-126890000D03*
M02*
