<?xml version="1.0" standalone="no"?>
 <!DOCTYPE svg PUBLIC "-//W3C//DTD SVG 1.1//EN" 
 "http://www.w3.org/Graphics/SVG/1.1/DTD/svg11.dtd"> 
<svg xmlns="http://www.w3.org/2000/svg" version="1.1" 
    width="8.80872cm" height="6.48462cm" viewBox="0 0 34680 25530 ">
<title>SVG Picture created as uno shield v.8 project SMD-B_Paste.svg date 2019/10/07 18:08:29 </title>
  <desc>Picture generated by PCBNEW </desc>
<g style="fill:#000000; fill-opacity:1;stroke:#000000; stroke-opacity:1;
stroke-linecap:round; stroke-linejoin:round; "
 transform="translate(0 0) scale(1 1)">
</g>
<g style="fill:#000000; fill-opacity:0.0; 
stroke:#000000; stroke-width:-0.000393701; stroke-opacity:1; 
stroke-linecap:round; stroke-linejoin:round;">
</g>
<g style="fill:#0B00C2; fill-opacity:0.0; 
stroke:#0B00C2; stroke-width:-0.000393701; stroke-opacity:1; 
stroke-linecap:round; stroke-linejoin:round;">
</g>
<g style="fill:#0B00C2; fill-opacity:0.0; 
stroke:#0B00C2; stroke-width:31.4961; stroke-opacity:1; 
stroke-linecap:round; stroke-linejoin:round;">
<circle cx="15285.1" cy="15963" r="153.739" /> 
<circle cx="18221.1" cy="15440" r="153.739" /> 
<circle cx="19021.1" cy="17608" r="153.739" /> 
<circle cx="18990.1" cy="19371" r="153.739" /> 
<circle cx="21333.1" cy="17581" r="153.739" /> 
<circle cx="23567.1" cy="18127" r="153.739" /> 
<circle cx="23565.1" cy="16990" r="153.739" /> 
<circle cx="18200" cy="13999.3" r="124.128" /> 
<circle cx="19304" cy="14001.8" r="124.128" /> 
<circle cx="19304.9" cy="15446.1" r="124.128" /> 
<circle cx="15763.9" cy="20116.8" r="124.128" /> 
<circle cx="22275.7" cy="20112.9" r="124.128" /> 
<circle cx="24228.5" cy="18317.6" r="124.128" /> 
<circle cx="24228.5" cy="13829.4" r="124.128" /> 
<circle cx="22319" cy="11750.7" r="124.128" /> 
<circle cx="15370.2" cy="11750.7" r="124.128" /> 
<circle cx="13287.5" cy="13573.5" r="124.128" /> 
<circle cx="13287.5" cy="18002.6" r="124.128" /> 
<circle cx="20140.8" cy="20131.7" r="124.128" /> 
<circle cx="20857.8" cy="20135.6" r="124.128" /> 
<circle cx="21179.7" cy="13605.5" r="124.128" /> 
<circle cx="23437.1" cy="14434" r="153.739" /> 
<circle cx="21180.4" cy="15257.1" r="124.128" /> 
<circle cx="20537.3" cy="20007.4" r="124.128" /> 
<circle cx="19017.3" cy="18199.7" r="181.72" /> 
<circle cx="15361.4" cy="18208.4" r="124.128" /> 
<g >
</g>
<g >
</g>
<g >
</g>
<g >
</g>
<g style="fill:#008400; fill-opacity:0.0; 
stroke:#008400; stroke-width:31.4961; stroke-opacity:1; 
stroke-linecap:round; stroke-linejoin:round;">
</g>
<g style="fill:#008400; fill-opacity:0.0; 
stroke:#008400; stroke-width:0; stroke-opacity:1; 
stroke-linecap:round; stroke-linejoin:round;">
</g>
<g style="fill:#008400; fill-opacity:1.0; 
stroke:#008400; stroke-width:0; stroke-opacity:1; 
stroke-linecap:round; stroke-linejoin:round;">
<path style="fill:#008400; fill-opacity:1.0; 
stroke:#008400; stroke-width:0; stroke-opacity:1; 
stroke-linecap:round; stroke-linejoin:round;fill-rule:evenodd;"
d="M 27393,13072
27078,13072
27078,12914
27393,12914
27393,13072
Z" /> 
<path style="fill:#008400; fill-opacity:1.0; 
stroke:#008400; stroke-width:0; stroke-opacity:1; 
stroke-linecap:round; stroke-linejoin:round;fill-rule:evenodd;"
d="M 27393,10512
27078,10512
27078,10355
27393,10355
27393,10512
Z" /> 
<path style="fill:#008400; fill-opacity:1.0; 
stroke:#008400; stroke-width:0; stroke-opacity:1; 
stroke-linecap:round; stroke-linejoin:round;fill-rule:evenodd;"
d="M 28377,12658
28062,12658
28062,12540
28377,12540
28377,12658
Z" /> 
<path style="fill:#008400; fill-opacity:1.0; 
stroke:#008400; stroke-width:0; stroke-opacity:1; 
stroke-linecap:round; stroke-linejoin:round;fill-rule:evenodd;"
d="M 28377,12461
28062,12461
28062,12343
28377,12343
28377,12461
Z" /> 
<path style="fill:#008400; fill-opacity:1.0; 
stroke:#008400; stroke-width:0; stroke-opacity:1; 
stroke-linecap:round; stroke-linejoin:round;fill-rule:evenodd;"
d="M 28377,12264
28062,12264
28062,12146
28377,12146
28377,12264
Z" /> 
<path style="fill:#008400; fill-opacity:1.0; 
stroke:#008400; stroke-width:0; stroke-opacity:1; 
stroke-linecap:round; stroke-linejoin:round;fill-rule:evenodd;"
d="M 28377,12068
28062,12068
28062,11950
28377,11950
28377,12068
Z" /> 
<path style="fill:#008400; fill-opacity:1.0; 
stroke:#008400; stroke-width:0; stroke-opacity:1; 
stroke-linecap:round; stroke-linejoin:round;fill-rule:evenodd;"
d="M 28377,11871
28062,11871
28062,11753
28377,11753
28377,11871
Z" /> 
<path style="fill:#008400; fill-opacity:1.0; 
stroke:#008400; stroke-width:0; stroke-opacity:1; 
stroke-linecap:round; stroke-linejoin:round;fill-rule:evenodd;"
d="M 28377,11674
28062,11674
28062,11556
28377,11556
28377,11674
Z" /> 
<path style="fill:#008400; fill-opacity:1.0; 
stroke:#008400; stroke-width:0; stroke-opacity:1; 
stroke-linecap:round; stroke-linejoin:round;fill-rule:evenodd;"
d="M 28377,11477
28062,11477
28062,11359
28377,11359
28377,11477
Z" /> 
<path style="fill:#008400; fill-opacity:1.0; 
stroke:#008400; stroke-width:0; stroke-opacity:1; 
stroke-linecap:round; stroke-linejoin:round;fill-rule:evenodd;"
d="M 28377,11280
28062,11280
28062,11162
28377,11162
28377,11280
Z" /> 
<path style="fill:#008400; fill-opacity:1.0; 
stroke:#008400; stroke-width:0; stroke-opacity:1; 
stroke-linecap:round; stroke-linejoin:round;fill-rule:evenodd;"
d="M 28377,11083
28062,11083
28062,10965
28377,10965
28377,11083
Z" /> 
<path style="fill:#008400; fill-opacity:1.0; 
stroke:#008400; stroke-width:0; stroke-opacity:1; 
stroke-linecap:round; stroke-linejoin:round;fill-rule:evenodd;"
d="M 28377,10887
28062,10887
28062,10768
28377,10768
28377,10887
Z" /> 
</g>
<g >
</g>
<g >
</g>
<g >
</g>
<g style="fill:#008400; fill-opacity:1.0; 
stroke:#008400; stroke-width:0; stroke-opacity:1; 
stroke-linecap:round; stroke-linejoin:round;">
<path style="fill:#008400; fill-opacity:1.0; 
stroke:#008400; stroke-width:0; stroke-opacity:1; 
stroke-linecap:round; stroke-linejoin:round;fill-rule:evenodd;"
d="M 18404,15260
18404,14945
18758,14945
18758,15260
18404,15260
Z" /> 
<path style="fill:#008400; fill-opacity:1.0; 
stroke:#008400; stroke-width:0; stroke-opacity:1; 
stroke-linecap:round; stroke-linejoin:round;fill-rule:evenodd;"
d="M 17616,14886
17616,14571
17971,14571
17971,14886
17616,14886
Z" /> 
<path style="fill:#008400; fill-opacity:1.0; 
stroke:#008400; stroke-width:0; stroke-opacity:1; 
stroke-linecap:round; stroke-linejoin:round;fill-rule:evenodd;"
d="M 17616,15634
17616,15319
17971,15319
17971,15634
17616,15634
Z" /> 
</g>
<g >
</g>
<g >
</g>
<g >
</g>
<g >
</g>
<g >
</g>
<g >
</g>
<g >
</g>
<g >
</g>
<g >
</g>
<g >
</g>
<g >
</g>
<g >
</g>
<g >
</g>
<g >
</g>
<g >
</g>
<g >
</g>
<g >
</g>
<g >
</g>
<g >
</g>
<g >
</g>
<g >
</g>
<g >
</g>
<g >
</g>
<g >
</g>
<g style="fill:#008400; fill-opacity:1.0; 
stroke:#008400; stroke-width:0; stroke-opacity:1; 
stroke-linecap:round; stroke-linejoin:round;">
<path style="fill:#008400; fill-opacity:1.0; 
stroke:#008400; stroke-width:0; stroke-opacity:1; 
stroke-linecap:round; stroke-linejoin:round;fill-rule:evenodd;"
d="M 26334,11355
26334,11473
25783,11473
25783,11355
26334,11355
Z" /> 
<path style="fill:#008400; fill-opacity:1.0; 
stroke:#008400; stroke-width:0; stroke-opacity:1; 
stroke-linecap:round; stroke-linejoin:round;fill-rule:evenodd;"
d="M 26334,11552
26334,11670
25783,11670
25783,11552
26334,11552
Z" /> 
<path style="fill:#008400; fill-opacity:1.0; 
stroke:#008400; stroke-width:0; stroke-opacity:1; 
stroke-linecap:round; stroke-linejoin:round;fill-rule:evenodd;"
d="M 26334,11748
26334,11867
25783,11867
25783,11748
26334,11748
Z" /> 
<path style="fill:#008400; fill-opacity:1.0; 
stroke:#008400; stroke-width:0; stroke-opacity:1; 
stroke-linecap:round; stroke-linejoin:round;fill-rule:evenodd;"
d="M 26334,11945
26334,12063
25783,12063
25783,11945
26334,11945
Z" /> 
<path style="fill:#008400; fill-opacity:1.0; 
stroke:#008400; stroke-width:0; stroke-opacity:1; 
stroke-linecap:round; stroke-linejoin:round;fill-rule:evenodd;"
d="M 26334,12142
26334,12260
25783,12260
25783,12142
26334,12142
Z" /> 
<path style="fill:#008400; fill-opacity:1.0; 
stroke:#008400; stroke-width:0; stroke-opacity:1; 
stroke-linecap:round; stroke-linejoin:round;fill-rule:evenodd;"
d="M 24602,12142
24602,12260
24051,12260
24051,12142
24602,12142
Z" /> 
<path style="fill:#008400; fill-opacity:1.0; 
stroke:#008400; stroke-width:0; stroke-opacity:1; 
stroke-linecap:round; stroke-linejoin:round;fill-rule:evenodd;"
d="M 24602,11945
24602,12063
24051,12063
24051,11945
24602,11945
Z" /> 
<path style="fill:#008400; fill-opacity:1.0; 
stroke:#008400; stroke-width:0; stroke-opacity:1; 
stroke-linecap:round; stroke-linejoin:round;fill-rule:evenodd;"
d="M 24602,11748
24602,11867
24051,11867
24051,11748
24602,11748
Z" /> 
<path style="fill:#008400; fill-opacity:1.0; 
stroke:#008400; stroke-width:0; stroke-opacity:1; 
stroke-linecap:round; stroke-linejoin:round;fill-rule:evenodd;"
d="M 24602,11552
24602,11670
24051,11670
24051,11552
24602,11552
Z" /> 
<path style="fill:#008400; fill-opacity:1.0; 
stroke:#008400; stroke-width:0; stroke-opacity:1; 
stroke-linecap:round; stroke-linejoin:round;fill-rule:evenodd;"
d="M 24602,11355
24602,11473
24051,11473
24051,11355
24602,11355
Z" /> 
</g>
<g >
</g>
<g >
</g>
<g >
</g>
<g style="fill:#008400; fill-opacity:1.0; 
stroke:#008400; stroke-width:0; stroke-opacity:1; 
stroke-linecap:round; stroke-linejoin:round;">
<path style="fill:#008400; fill-opacity:1.0; 
stroke:#008400; stroke-width:0; stroke-opacity:1; 
stroke-linecap:round; stroke-linejoin:round;fill-rule:evenodd;"
d="M 19041,12310
19050,12311
19059,12314
19068,12317
19076,12321
19084,12325
19091,12331
19098,12337
19104,12344
19110,12351
19114,12359
19118,12367
19121,12376
19124,12385
19125,12394
19125,12403
19125,12590
19125,12599
19124,12608
19121,12617
19118,12626
19114,12634
19110,12642
19104,12649
19098,12656
19091,12662
19084,12668
19076,12673
19068,12676
19059,12680
19050,12682
19041,12683
19032,12684
18806,12684
18796,12683
18787,12682
18778,12680
18770,12676
18762,12673
18754,12668
18746,12662
18739,12656
18733,12649
18728,12642
18723,12634
18719,12626
18716,12617
18714,12608
18713,12599
18712,12590
18712,12403
18713,12394
18714,12385
18716,12376
18719,12367
18723,12359
18728,12351
18733,12344
18739,12337
18746,12331
18754,12325
18762,12321
18770,12317
18778,12314
18787,12311
18796,12310
18806,12310
19032,12310
19041,12310
Z" /> 
<path style="fill:#008400; fill-opacity:1.0; 
stroke:#008400; stroke-width:0; stroke-opacity:1; 
stroke-linecap:round; stroke-linejoin:round;fill-rule:evenodd;"
d="M 18352,12310
18361,12311
18370,12314
18379,12317
18387,12321
18395,12325
18402,12331
18409,12337
18415,12344
18421,12351
18425,12359
18429,12367
18432,12376
18435,12385
18436,12394
18437,12403
18437,12590
18436,12599
18435,12608
18432,12617
18429,12626
18425,12634
18421,12642
18415,12649
18409,12656
18402,12662
18395,12668
18387,12673
18379,12676
18370,12680
18361,12682
18352,12683
18343,12684
18117,12684
18107,12683
18098,12682
18089,12680
18081,12676
18073,12673
18065,12668
18057,12662
18051,12656
18044,12649
18039,12642
18034,12634
18030,12626
18027,12617
18025,12608
18024,12599
18023,12590
18023,12403
18024,12394
18025,12385
18027,12376
18030,12367
18034,12359
18039,12351
18044,12344
18051,12337
18057,12331
18065,12325
18073,12321
18081,12317
18089,12314
18098,12311
18107,12310
18117,12310
18343,12310
18352,12310
Z" /> 
</g>
<g >
</g>
<g >
</g>
<g style="fill:#008400; fill-opacity:1.0; 
stroke:#008400; stroke-width:0; stroke-opacity:1; 
stroke-linecap:round; stroke-linejoin:round;">
<path style="fill:#008400; fill-opacity:1.0; 
stroke:#008400; stroke-width:0; stroke-opacity:1; 
stroke-linecap:round; stroke-linejoin:round;fill-rule:evenodd;"
d="M 18734,15893
18743,15894
18752,15896
18761,15899
18769,15903
18777,15908
18784,15913
18791,15920
18797,15926
18803,15934
18807,15942
18811,15950
18814,15959
18817,15968
18818,15977
18818,15986
18818,16173
18818,16182
18817,16191
18814,16200
18811,16209
18807,16217
18803,16225
18797,16232
18791,16239
18784,16245
18777,16251
18769,16255
18761,16259
18752,16262
18743,16264
18734,16266
18725,16266
18499,16266
18489,16266
18480,16264
18471,16262
18463,16259
18454,16255
18447,16251
18439,16245
18432,16239
18426,16232
18421,16225
18416,16217
18412,16209
18409,16200
18407,16191
18405,16182
18405,16173
18405,15986
18405,15977
18407,15968
18409,15959
18412,15950
18416,15942
18421,15934
18426,15926
18432,15920
18439,15913
18447,15908
18454,15903
18463,15899
18471,15896
18480,15894
18489,15893
18499,15892
18725,15892
18734,15893
Z" /> 
<path style="fill:#008400; fill-opacity:1.0; 
stroke:#008400; stroke-width:0; stroke-opacity:1; 
stroke-linecap:round; stroke-linejoin:round;fill-rule:evenodd;"
d="M 18045,15893
18054,15894
18063,15896
18072,15899
18080,15903
18088,15908
18095,15913
18102,15920
18108,15926
18114,15934
18118,15942
18122,15950
18125,15959
18128,15968
18129,15977
18129,15986
18129,16173
18129,16182
18128,16191
18125,16200
18122,16209
18118,16217
18114,16225
18108,16232
18102,16239
18095,16245
18088,16251
18080,16255
18072,16259
18063,16262
18054,16264
18045,16266
18036,16266
17810,16266
17800,16266
17791,16264
17782,16262
17774,16259
17765,16255
17758,16251
17750,16245
17743,16239
17737,16232
17732,16225
17727,16217
17723,16209
17720,16200
17718,16191
17716,16182
17716,16173
17716,15986
17716,15977
17718,15968
17720,15959
17723,15950
17727,15942
17732,15934
17737,15926
17743,15920
17750,15913
17758,15908
17765,15903
17774,15899
17782,15896
17791,15894
17800,15893
17810,15892
18036,15892
18045,15893
Z" /> 
</g>
<g >
</g>
<g >
</g>
<g >
</g>
<g >
</g>
<g >
</g>
<g >
</g>
<g >
</g>
<g >
</g>
<g >
</g>
<g >
</g>
<g >
</g>
<g >
</g>
<g >
</g>
<g style="fill:#008400; fill-opacity:1.0; 
stroke:#008400; stroke-width:0; stroke-opacity:1; 
stroke-linecap:round; stroke-linejoin:round;">
<path style="fill:#008400; fill-opacity:1.0; 
stroke:#008400; stroke-width:0; stroke-opacity:1; 
stroke-linecap:round; stroke-linejoin:round;fill-rule:evenodd;"
d="M 7036,3916
7044,3918
7053,3920
7061,3922
7068,3926
7075,3930
7082,3935
7088,3941
7094,3947
7099,3954
7104,3961
7107,3969
7110,3977
7112,3985
7113,3994
7114,4002
7114,4204
7113,4212
7112,4221
7110,4229
7107,4237
7104,4244
7099,4252
7094,4258
7088,4265
7082,4270
7075,4275
7068,4280
7061,4283
7053,4286
7044,4288
7036,4289
7028,4290
6855,4290
6847,4289
6839,4288
6830,4286
6822,4283
6815,4280
6807,4275
6801,4270
6794,4265
6789,4258
6784,4252
6779,4244
6776,4237
6773,4229
6771,4221
6770,4212
6769,4204
6769,4002
6770,3994
6771,3985
6773,3977
6776,3969
6779,3961
6784,3954
6789,3947
6794,3941
6801,3935
6807,3930
6815,3926
6822,3922
6830,3920
6839,3918
6847,3916
6855,3916
7028,3916
7036,3916
Z" /> 
<path style="fill:#008400; fill-opacity:1.0; 
stroke:#008400; stroke-width:0; stroke-opacity:1; 
stroke-linecap:round; stroke-linejoin:round;fill-rule:evenodd;"
d="M 7656,3916
7664,3918
7673,3920
7681,3922
7688,3926
7695,3930
7702,3935
7709,3941
7714,3947
7719,3954
7724,3961
7727,3969
7730,3977
7732,3985
7733,3994
7734,4002
7734,4204
7733,4212
7732,4221
7730,4229
7727,4237
7724,4244
7719,4252
7714,4258
7709,4265
7702,4270
7695,4275
7688,4280
7681,4283
7673,4286
7664,4288
7656,4289
7648,4290
7475,4290
7467,4289
7459,4288
7450,4286
7442,4283
7435,4280
7428,4275
7421,4270
7414,4265
7409,4258
7404,4252
7399,4244
7396,4237
7393,4229
7391,4221
7390,4212
7389,4204
7389,4002
7390,3994
7391,3985
7393,3977
7396,3969
7399,3961
7404,3954
7409,3947
7414,3941
7421,3935
7428,3930
7435,3926
7442,3922
7450,3920
7459,3918
7467,3916
7475,3916
7648,3916
7656,3916
Z" /> 
</g>
<g >
</g>
<g >
</g>
<g >
</g>
<g style="fill:#008400; fill-opacity:1.0; 
stroke:#008400; stroke-width:0; stroke-opacity:1; 
stroke-linecap:round; stroke-linejoin:round;">
<path style="fill:#008400; fill-opacity:1.0; 
stroke:#008400; stroke-width:0; stroke-opacity:1; 
stroke-linecap:round; stroke-linejoin:round;fill-rule:evenodd;"
d="M 9010,3590
9019,3591
9027,3593
9035,3596
9043,3599
9050,3604
9057,3609
9063,3614
9069,3621
9074,3627
9078,3635
9082,3642
9084,3650
9086,3658
9088,3667
9088,3675
9088,3877
9088,3885
9086,3894
9084,3902
9082,3910
9078,3918
9074,3925
9069,3932
9063,3938
9057,3944
9050,3949
9043,3953
9035,3957
9027,3959
9019,3961
9010,3963
9002,3963
8830,3963
8821,3963
8813,3961
8805,3959
8797,3957
8789,3953
8782,3949
8775,3944
8769,3938
8763,3932
8758,3925
8754,3918
8750,3910
8747,3902
8745,3894
8744,3885
8744,3877
8744,3675
8744,3667
8745,3658
8747,3650
8750,3642
8754,3635
8758,3627
8763,3621
8769,3614
8775,3609
8782,3604
8789,3599
8797,3596
8805,3593
8813,3591
8821,3590
8830,3589
9002,3589
9010,3590
Z" /> 
<path style="fill:#008400; fill-opacity:1.0; 
stroke:#008400; stroke-width:0; stroke-opacity:1; 
stroke-linecap:round; stroke-linejoin:round;fill-rule:evenodd;"
d="M 8390,3590
8399,3591
8407,3593
8415,3596
8422,3599
8430,3604
8437,3609
8443,3614
8448,3621
8453,3627
8458,3635
8461,3642
8464,3650
8466,3658
8468,3667
8468,3675
8468,3877
8468,3885
8466,3894
8464,3902
8461,3910
8458,3918
8453,3925
8448,3932
8443,3938
8437,3944
8430,3949
8422,3953
8415,3957
8407,3959
8399,3961
8390,3963
8382,3963
8210,3963
8201,3963
8193,3961
8185,3959
8177,3957
8169,3953
8162,3949
8155,3944
8149,3938
8143,3932
8138,3925
8134,3918
8130,3910
8127,3902
8125,3894
8124,3885
8124,3877
8124,3675
8124,3667
8125,3658
8127,3650
8130,3642
8134,3635
8138,3627
8143,3621
8149,3614
8155,3609
8162,3604
8169,3599
8177,3596
8185,3593
8193,3591
8201,3590
8210,3589
8382,3589
8390,3590
Z" /> 
</g>
<g >
</g>
<g >
</g>
<g >
</g>
<g style="fill:#008400; fill-opacity:1.0; 
stroke:#008400; stroke-width:0; stroke-opacity:1; 
stroke-linecap:round; stroke-linejoin:round;">
<path style="fill:#008400; fill-opacity:1.0; 
stroke:#008400; stroke-width:0; stroke-opacity:1; 
stroke-linecap:round; stroke-linejoin:round;fill-rule:evenodd;"
d="M 23124,20338
23132,20339
23140,20341
23148,20344
23156,20347
23163,20352
23170,20357
23176,20362
23182,20369
23187,20375
23191,20383
23195,20390
23198,20398
23200,20406
23201,20415
23201,20423
23201,20625
23201,20633
23200,20642
23198,20650
23195,20658
23191,20666
23187,20673
23182,20680
23176,20686
23170,20692
23163,20697
23156,20701
23148,20705
23140,20707
23132,20710
23124,20711
23115,20711
22943,20711
22934,20711
22926,20710
22918,20707
22910,20705
22902,20701
22895,20697
22888,20692
22882,20686
22876,20680
22871,20673
22867,20666
22863,20658
22860,20650
22858,20642
22857,20633
22857,20625
22857,20423
22857,20415
22858,20406
22860,20398
22863,20390
22867,20383
22871,20375
22876,20369
22882,20362
22888,20357
22895,20352
22902,20347
22910,20344
22918,20341
22926,20339
22934,20338
22943,20337
23115,20337
23124,20338
Z" /> 
<path style="fill:#008400; fill-opacity:1.0; 
stroke:#008400; stroke-width:0; stroke-opacity:1; 
stroke-linecap:round; stroke-linejoin:round;fill-rule:evenodd;"
d="M 23744,20338
23752,20339
23760,20341
23768,20344
23776,20347
23783,20352
23790,20357
23796,20362
23802,20369
23807,20375
23811,20383
23815,20390
23818,20398
23820,20406
23821,20415
23821,20423
23821,20625
23821,20633
23820,20642
23818,20650
23815,20658
23811,20666
23807,20673
23802,20680
23796,20686
23790,20692
23783,20697
23776,20701
23768,20705
23760,20707
23752,20710
23744,20711
23735,20711
23563,20711
23555,20711
23546,20710
23538,20707
23530,20705
23522,20701
23515,20697
23508,20692
23502,20686
23496,20680
23491,20673
23487,20666
23483,20658
23481,20650
23479,20642
23477,20633
23477,20625
23477,20423
23477,20415
23479,20406
23481,20398
23483,20390
23487,20383
23491,20375
23496,20369
23502,20362
23508,20357
23515,20352
23522,20347
23530,20344
23538,20341
23546,20339
23555,20338
23563,20337
23735,20337
23744,20338
Z" /> 
</g>
<g >
</g>
<g >
</g>
<g >
</g>
<g >
</g>
<g >
</g>
<g >
</g>
<g >
</g>
<g >
</g>
<g >
</g>
<g >
</g>
<g >
</g>
<g >
</g>
<g >
</g>
<g >
</g>
<g >
</g>
<g >
</g>
<g >
</g>
<g >
</g>
<g >
</g>
<g >
</g>
<g >
</g>
<g >
</g>
<g >
</g>
<g >
</g>
<g >
</g>
<g >
</g>
<g >
</g>
<g >
</g>
<g >
</g>
<g >
</g>
</g>
<g style="fill:#000000; fill-opacity:1.0; 
stroke:#000000; stroke-width:0; stroke-opacity:1; 
stroke-linecap:round; stroke-linejoin:round;">
</g>
<g style="fill:#C2C200; fill-opacity:1.0; 
stroke:#C2C200; stroke-width:0; stroke-opacity:1; 
stroke-linecap:round; stroke-linejoin:round;">
</g>
<g style="fill:#C2C200; fill-opacity:1.0; 
stroke:#C2C200; stroke-width:59.0551; stroke-opacity:1; 
stroke-linecap:round; stroke-linejoin:round;">
</g>
<g style="fill:#C2C200; fill-opacity:0.0; 
stroke:#C2C200; stroke-width:59.0551; stroke-opacity:1; 
stroke-linecap:round; stroke-linejoin:round;">
<path d="M4303 22867
L30303 22867
" />
<path d="M31303 7967
L30303 6967
" />
<path d="M31303 20867
L31303 7967
" />
<path d="M30303 2467
L29703 1867
" />
<path d="M30303 21867
L31303 20867
" />
<path d="M30303 22867
L30303 21867
" />
<path d="M30303 6967
L30303 2467
" />
<path d="M4303 1867
L4303 22867
" />
<path d="M29703 1867
L4303 1867
" />
<g >
</g>
<g >
</g>
<g >
</g>
<g >
</g>
<g >
</g>
<g >
</g>
<g >
</g>
<g >
</g>
<g >
</g>
<g >
</g>
<g >
</g>
<g >
</g>
<g >
</g>
<g >
</g>
<g >
</g>
<g >
</g>
<g >
</g>
<g >
</g>
<g >
</g>
<g >
</g>
<g >
</g>
<g >
</g>
<g >
</g>
<g >
</g>
<g >
</g>
<g >
</g>
<g >
</g>
<g >
</g>
<g >
</g>
<g >
</g>
<g >
</g>
<g >
</g>
<g >
</g>
<g >
</g>
<g >
</g>
<g >
</g>
<g >
</g>
<g >
</g>
<g >
</g>
<g >
</g>
<g >
</g>
<g >
</g>
<g >
</g>
<g >
</g>
<g >
</g>
<g >
</g>
<g >
</g>
<g >
</g>
<g >
</g>
<g >
</g>
<g >
</g>
<g >
</g>
<g >
</g>
<g >
</g>
<g >
</g>
<g >
</g>
<g >
</g>
<g >
</g>
<g >
</g>
<g >
</g>
<g >
</g>
<g >
</g>
<g >
</g>
<g >
</g>
<g >
</g>
<g >
</g>
<g >
</g>
<g >
</g>
<g >
</g>
<g >
</g>
<g >
</g>
<g >
</g>
<g >
</g>
<g >
</g>
<g >
</g>
<g >
</g>
<g >
</g>
<g >
</g>
<g >
</g>
<g >
</g>
<g >
</g>
<g >
</g>
<g >
</g>
</g> 
</svg>
