<?xml version="1.0" standalone="no"?>
 <!DOCTYPE svg PUBLIC "-//W3C//DTD SVG 1.1//EN" 
 "http://www.w3.org/Graphics/SVG/1.1/DTD/svg11.dtd"> 
<svg xmlns="http://www.w3.org/2000/svg" version="1.1" 
    width="15.5753cm" height="6.48462cm" viewBox="0 0 61320 25530 ">
<title>SVG Picture created as uno shield v.6 project SMD-B_Paste.svg date 2019/08/02 21:39:39 </title>
  <desc>Picture generated by PCBNEW </desc>
<g style="fill:#000000; fill-opacity:1;stroke:#000000; stroke-opacity:1;
stroke-linecap:round; stroke-linejoin:round; "
 transform="translate(0 0) scale(1 1)">
</g>
<g style="fill:#000000; fill-opacity:0.0; 
stroke:#000000; stroke-width:-0.000393701; stroke-opacity:1; 
stroke-linecap:round; stroke-linejoin:round;">
</g>
<g style="fill:#0B00C2; fill-opacity:0.0; 
stroke:#0B00C2; stroke-width:-0.000393701; stroke-opacity:1; 
stroke-linecap:round; stroke-linejoin:round;">
</g>
<g style="fill:#0B00C2; fill-opacity:0.0; 
stroke:#0B00C2; stroke-width:31.4961; stroke-opacity:1; 
stroke-linecap:round; stroke-linejoin:round;">
<circle cx="42490" cy="12297.2" r="124.128" /> 
<circle cx="39792.2" cy="17946.8" r="124.128" /> 
<circle cx="42959.4" cy="19167.7" r="124.128" /> 
<circle cx="41170.9" cy="19127.3" r="124.128" /> 
<circle cx="37878.9" cy="13230.3" r="124.128" /> 
<circle cx="42655" cy="19386.1" r="124.128" /> 
<circle cx="41558.2" cy="19545.6" r="124.128" /> 
<circle cx="37967.4" cy="13999.3" r="124.128" /> 
<circle cx="39071.5" cy="14001.8" r="124.128" /> 
<circle cx="39072.4" cy="15446.1" r="124.128" /> 
<circle cx="35531.3" cy="20116.8" r="124.128" /> 
<circle cx="42043.1" cy="20112.9" r="124.128" /> 
<circle cx="43995.9" cy="18317.6" r="124.128" /> 
<circle cx="43995.9" cy="13829.4" r="124.128" /> 
<circle cx="42086.4" cy="11750.7" r="124.128" /> 
<circle cx="35137.6" cy="11750.7" r="124.128" /> 
<circle cx="33054.9" cy="13573.5" r="124.128" /> 
<circle cx="33054.9" cy="18002.6" r="124.128" /> 
<circle cx="38788.8" cy="17608.4" r="124.128" /> 
<circle cx="34891.9" cy="14070.4" r="124.128" /> 
<circle cx="40019.9" cy="15280.5" r="124.128" /> 
<circle cx="41291.1" cy="12868.4" r="124.128" /> 
<circle cx="41805.3" cy="16031.2" r="124.128" /> 
<circle cx="41091.6" cy="13419.9" r="124.128" /> 
<circle cx="41326" cy="14993" r="124.128" /> 
<circle cx="41228.9" cy="14517.6" r="124.128" /> 
<circle cx="41097.7" cy="17576.3" r="124.128" /> 
<circle cx="36712.8" cy="19502.9" r="124.128" /> 
<circle cx="39908.3" cy="20131.7" r="124.128" /> 
<circle cx="40625.3" cy="20135.6" r="124.128" /> 
<circle cx="40321.5" cy="15656.8" r="124.128" /> 
<circle cx="39635.8" cy="14054.6" r="124.128" /> 
<circle cx="40947.1" cy="13605.5" r="124.128" /> 
<circle cx="42522.7" cy="12685.8" r="124.128" /> 
<circle cx="42868.6" cy="12672.6" r="124.128" /> 
<circle cx="43081.5" cy="12926" r="124.128" /> 
<circle cx="43170" cy="13238.4" r="124.128" /> 
<circle cx="42063.6" cy="13840.1" r="124.128" /> 
<circle cx="41619.8" cy="14125.4" r="124.128" /> 
<circle cx="41307" cy="14199.1" r="124.128" /> 
<circle cx="43545.2" cy="13801.1" r="124.128" /> 
<circle cx="43429.6" cy="14102.8" r="124.128" /> 
<circle cx="43202.1" cy="14431.4" r="124.128" /> 
<circle cx="42884.7" cy="14654.8" r="124.128" /> 
<circle cx="42559.8" cy="15049.7" r="124.128" /> 
<circle cx="42055.8" cy="15051.8" r="124.128" /> 
<circle cx="38238" cy="14702.8" r="124.128" /> 
<circle cx="40290.2" cy="15107.1" r="124.128" /> 
<circle cx="40947.8" cy="15257.1" r="124.128" /> 
<circle cx="40641.3" cy="16188.3" r="124.128" /> 
<circle cx="43333.5" cy="16991" r="124.128" /> 
<circle cx="43238.2" cy="17402.8" r="124.128" /> 
<circle cx="43332.6" cy="18131.2" r="124.128" /> 
<circle cx="40304.8" cy="20007.4" r="124.128" /> 
<circle cx="38757.5" cy="19369.4" r="124.128" /> 
<circle cx="40060.4" cy="16095.3" r="124.128" /> 
<circle cx="39720.2" cy="16042" r="124.128" /> 
<circle cx="38763.8" cy="18491.6" r="124.128" /> 
<circle cx="38032.1" cy="17941.5" r="124.128" /> 
<circle cx="37999.2" cy="18274.4" r="124.128" /> 
<circle cx="36655.1" cy="18073" r="124.128" /> 
<circle cx="36241.6" cy="18128.4" r="124.128" /> 
<circle cx="36614.9" cy="17525" r="124.128" /> 
<circle cx="37988.8" cy="15442.8" r="124.128" /> 
<circle cx="34923.4" cy="12432.6" r="124.128" /> 
<circle cx="33699.5" cy="13909.9" r="124.128" /> 
<circle cx="34174" cy="14538.1" r="124.128" /> 
<circle cx="34450.4" cy="14775.8" r="124.128" /> 
<circle cx="34791.9" cy="14873.6" r="124.128" /> 
<circle cx="35050.3" cy="15966.7" r="124.128" /> 
<circle cx="34556.5" cy="15726.5" r="124.128" /> 
<circle cx="35585.5" cy="16835.3" r="124.128" /> 
<circle cx="35128.8" cy="18208.4" r="124.128" /> 
<circle cx="35981.9" cy="19294.8" r="124.128" /> 
<circle cx="35504.5" cy="18730.3" r="124.128" /> 
<circle cx="37720.3" cy="19465.2" r="124.128" /> 
<circle cx="34714.3" cy="16440.5" r="124.128" /> 
<circle cx="33665.2" cy="18140.4" r="124.128" /> 
<circle cx="34781.8" cy="19461.4" r="124.128" /> 
<g >
</g>
<g >
</g>
<g >
</g>
<g >
</g>
<g >
</g>
<g >
</g>
<g >
</g>
<g >
</g>
<g >
</g>
<g >
</g>
<g >
</g>
<g >
</g>
<g >
</g>
<g >
</g>
<g >
</g>
<g >
</g>
<g >
</g>
<g >
</g>
<g >
</g>
<g >
</g>
<g >
</g>
<g >
</g>
<g >
</g>
<g style="fill:#008400; fill-opacity:0.0; 
stroke:#008400; stroke-width:31.4961; stroke-opacity:1; 
stroke-linecap:round; stroke-linejoin:round;">
</g>
<g style="fill:#008400; fill-opacity:0.0; 
stroke:#008400; stroke-width:0; stroke-opacity:1; 
stroke-linecap:round; stroke-linejoin:round;">
</g>
<g style="fill:#008400; fill-opacity:1.0; 
stroke:#008400; stroke-width:0; stroke-opacity:1; 
stroke-linecap:round; stroke-linejoin:round;">
<path style="fill:#008400; fill-opacity:1.0; 
stroke:#008400; stroke-width:0; stroke-opacity:1; 
stroke-linecap:round; stroke-linejoin:round;fill-rule:evenodd;"
d="M 38809,12310
38818,12311
38827,12314
38835,12317
38843,12321
38851,12325
38859,12331
38866,12337
38872,12344
38877,12351
38882,12359
38886,12367
38889,12376
38891,12385
38892,12394
38893,12403
38893,12590
38892,12599
38891,12608
38889,12617
38886,12626
38882,12634
38877,12642
38872,12649
38866,12656
38859,12662
38851,12668
38843,12673
38835,12676
38827,12680
38818,12682
38809,12683
38799,12684
38573,12684
38564,12683
38555,12682
38546,12680
38537,12676
38529,12673
38521,12668
38514,12662
38507,12656
38501,12649
38495,12642
38491,12634
38487,12626
38484,12617
38481,12608
38480,12599
38480,12590
38480,12403
38480,12394
38481,12385
38484,12376
38487,12367
38491,12359
38495,12351
38501,12344
38507,12337
38514,12331
38521,12325
38529,12321
38537,12317
38546,12314
38555,12311
38564,12310
38573,12310
38799,12310
38809,12310
Z" /> 
<path style="fill:#008400; fill-opacity:1.0; 
stroke:#008400; stroke-width:0; stroke-opacity:1; 
stroke-linecap:round; stroke-linejoin:round;fill-rule:evenodd;"
d="M 38120,12310
38129,12311
38138,12314
38146,12317
38155,12321
38162,12325
38170,12331
38177,12337
38183,12344
38188,12351
38193,12359
38197,12367
38200,12376
38202,12385
38203,12394
38204,12403
38204,12590
38203,12599
38202,12608
38200,12617
38197,12626
38193,12634
38188,12642
38183,12649
38177,12656
38170,12662
38162,12668
38155,12673
38146,12676
38138,12680
38129,12682
38120,12683
38110,12684
37884,12684
37875,12683
37866,12682
37857,12680
37848,12676
37840,12673
37832,12668
37825,12662
37818,12656
37812,12649
37806,12642
37802,12634
37798,12626
37795,12617
37792,12608
37791,12599
37791,12590
37791,12403
37791,12394
37792,12385
37795,12376
37798,12367
37802,12359
37806,12351
37812,12344
37818,12337
37825,12331
37832,12325
37840,12321
37848,12317
37857,12314
37866,12311
37875,12310
37884,12310
38110,12310
38120,12310
Z" /> 
</g>
<g >
</g>
<g >
<path style="fill:#008400; fill-opacity:1.0; 
stroke:#008400; stroke-width:0; stroke-opacity:1; 
stroke-linecap:round; stroke-linejoin:round;fill-rule:evenodd;"
d="M 38501,15893
38511,15894
38519,15896
38528,15899
38536,15903
38544,15908
38552,15913
38558,15920
38565,15926
38570,15934
38575,15942
38579,15950
38582,15959
38584,15968
38585,15977
38586,15986
38586,16173
38585,16182
38584,16191
38582,16200
38579,16209
38575,16217
38570,16225
38565,16232
38558,16239
38552,16245
38544,16251
38536,16255
38528,16259
38519,16262
38511,16264
38501,16266
38492,16266
38266,16266
38257,16266
38248,16264
38239,16262
38230,16259
38222,16255
38214,16251
38207,16245
38200,16239
38194,16232
38188,16225
38183,16217
38180,16209
38176,16200
38174,16191
38173,16182
38172,16173
38172,15986
38173,15977
38174,15968
38176,15959
38180,15950
38183,15942
38188,15934
38194,15926
38200,15920
38207,15913
38214,15908
38222,15903
38230,15899
38239,15896
38248,15894
38257,15893
38266,15892
38492,15892
38501,15893
Z" /> 
<path style="fill:#008400; fill-opacity:1.0; 
stroke:#008400; stroke-width:0; stroke-opacity:1; 
stroke-linecap:round; stroke-linejoin:round;fill-rule:evenodd;"
d="M 37813,15893
37822,15894
37830,15896
37839,15899
37847,15903
37855,15908
37863,15913
37869,15920
37876,15926
37881,15934
37886,15942
37890,15950
37893,15959
37895,15968
37896,15977
37897,15986
37897,16173
37896,16182
37895,16191
37893,16200
37890,16209
37886,16217
37881,16225
37876,16232
37869,16239
37863,16245
37855,16251
37847,16255
37839,16259
37830,16262
37822,16264
37813,16266
37803,16266
37577,16266
37568,16266
37559,16264
37550,16262
37541,16259
37533,16255
37525,16251
37518,16245
37511,16239
37505,16232
37499,16225
37495,16217
37491,16209
37487,16200
37485,16191
37484,16182
37483,16173
37483,15986
37484,15977
37485,15968
37487,15959
37491,15950
37495,15942
37499,15934
37505,15926
37511,15920
37518,15913
37525,15908
37533,15903
37541,15899
37550,15896
37559,15894
37568,15893
37577,15892
37803,15892
37813,15893
Z" /> 
</g>
<g >
</g>
<g >
</g>
<g >
</g>
<g >
</g>
<g >
</g>
<g >
</g>
<g >
</g>
<g >
</g>
<g >
</g>
<g >
</g>
<g >
</g>
<g >
</g>
<g >
</g>
<g >
</g>
<g >
</g>
<g >
</g>
<g >
<path style="fill:#008400; fill-opacity:1.0; 
stroke:#008400; stroke-width:0; stroke-opacity:1; 
stroke-linecap:round; stroke-linejoin:round;fill-rule:evenodd;"
d="M 26803,3916
26812,3918
26820,3920
26828,3922
26836,3926
26843,3930
26850,3935
26856,3941
26862,3947
26867,3954
26871,3961
26875,3969
26877,3977
26879,3985
26881,3994
26881,4002
26881,4204
26881,4212
26879,4221
26877,4229
26875,4237
26871,4244
26867,4252
26862,4258
26856,4265
26850,4270
26843,4275
26836,4280
26828,4283
26820,4286
26812,4288
26803,4289
26795,4290
26623,4290
26614,4289
26606,4288
26598,4286
26590,4283
26582,4280
26575,4275
26568,4270
26562,4265
26556,4258
26551,4252
26547,4244
26543,4237
26540,4229
26538,4221
26537,4212
26537,4204
26537,4002
26537,3994
26538,3985
26540,3977
26543,3969
26547,3961
26551,3954
26556,3947
26562,3941
26568,3935
26575,3930
26582,3926
26590,3922
26598,3920
26606,3918
26614,3916
26623,3916
26795,3916
26803,3916
Z" /> 
<path style="fill:#008400; fill-opacity:1.0; 
stroke:#008400; stroke-width:0; stroke-opacity:1; 
stroke-linecap:round; stroke-linejoin:round;fill-rule:evenodd;"
d="M 27424,3916
27432,3918
27440,3920
27448,3922
27456,3926
27463,3930
27470,3935
27476,3941
27482,3947
27487,3954
27491,3961
27495,3969
27497,3977
27500,3985
27501,3994
27501,4002
27501,4204
27501,4212
27500,4221
27497,4229
27495,4237
27491,4244
27487,4252
27482,4258
27476,4265
27470,4270
27463,4275
27456,4280
27448,4283
27440,4286
27432,4288
27424,4289
27415,4290
27243,4290
27234,4289
27226,4288
27218,4286
27210,4283
27202,4280
27195,4275
27188,4270
27182,4265
27176,4258
27171,4252
27167,4244
27163,4237
27160,4229
27158,4221
27157,4212
27157,4204
27157,4002
27157,3994
27158,3985
27160,3977
27163,3969
27167,3961
27171,3954
27176,3947
27182,3941
27188,3935
27195,3930
27202,3926
27210,3922
27218,3920
27226,3918
27234,3916
27243,3916
27415,3916
27424,3916
Z" /> 
</g>
<g >
</g>
<g >
</g>
<g >
<path style="fill:#008400; fill-opacity:1.0; 
stroke:#008400; stroke-width:0; stroke-opacity:1; 
stroke-linecap:round; stroke-linejoin:round;fill-rule:evenodd;"
d="M 28778,3590
28786,3591
28794,3593
28802,3596
28810,3599
28817,3604
28824,3609
28830,3614
28836,3621
28841,3627
28845,3635
28849,3642
28852,3650
28854,3658
28855,3667
28856,3675
28856,3877
28855,3885
28854,3894
28852,3902
28849,3910
28845,3918
28841,3925
28836,3932
28830,3938
28824,3944
28817,3949
28810,3953
28802,3957
28794,3959
28786,3961
28778,3963
28769,3963
28597,3963
28589,3963
28580,3961
28572,3959
28564,3957
28557,3953
28549,3949
28543,3944
28536,3938
28531,3932
28526,3925
28521,3918
28518,3910
28515,3902
28513,3894
28511,3885
28511,3877
28511,3675
28511,3667
28513,3658
28515,3650
28518,3642
28521,3635
28526,3627
28531,3621
28536,3614
28543,3609
28549,3604
28557,3599
28564,3596
28572,3593
28580,3591
28589,3590
28597,3589
28769,3589
28778,3590
Z" /> 
<path style="fill:#008400; fill-opacity:1.0; 
stroke:#008400; stroke-width:0; stroke-opacity:1; 
stroke-linecap:round; stroke-linejoin:round;fill-rule:evenodd;"
d="M 28158,3590
28166,3591
28174,3593
28182,3596
28190,3599
28197,3604
28204,3609
28210,3614
28216,3621
28221,3627
28225,3635
28229,3642
28232,3650
28234,3658
28235,3667
28235,3675
28235,3877
28235,3885
28234,3894
28232,3902
28229,3910
28225,3918
28221,3925
28216,3932
28210,3938
28204,3944
28197,3949
28190,3953
28182,3957
28174,3959
28166,3961
28158,3963
28149,3963
27977,3963
27969,3963
27960,3961
27952,3959
27944,3957
27936,3953
27929,3949
27922,3944
27916,3938
27910,3932
27905,3925
27901,3918
27898,3910
27895,3902
27893,3894
27891,3885
27891,3877
27891,3675
27891,3667
27893,3658
27895,3650
27898,3642
27901,3635
27905,3627
27910,3621
27916,3614
27922,3609
27929,3604
27936,3599
27944,3596
27952,3593
27960,3591
27969,3590
27977,3589
28149,3589
28158,3590
Z" /> 
</g>
<g >
<path style="fill:#008400; fill-opacity:1.0; 
stroke:#008400; stroke-width:0; stroke-opacity:1; 
stroke-linecap:round; stroke-linejoin:round;fill-rule:evenodd;"
d="M 26492,6436
26501,6437
26509,6439
26517,6442
26525,6446
26532,6450
26539,6455
26545,6461
26551,6467
26556,6474
26560,6481
26564,6489
26566,6497
26568,6505
26570,6513
26570,6522
26570,6723
26570,6732
26568,6740
26566,6748
26564,6756
26560,6764
26556,6771
26551,6778
26545,6784
26539,6790
26532,6795
26525,6799
26517,6803
26509,6806
26501,6808
26492,6809
26484,6810
26312,6810
26303,6809
26295,6808
26287,6806
26279,6803
26271,6799
26264,6795
26257,6790
26251,6784
26245,6778
26240,6771
26236,6764
26232,6756
26229,6748
26227,6740
26226,6732
26226,6723
26226,6522
26226,6513
26227,6505
26229,6497
26232,6489
26236,6481
26240,6474
26245,6467
26251,6461
26257,6455
26264,6450
26271,6446
26279,6442
26287,6439
26295,6437
26303,6436
26312,6436
26484,6436
26492,6436
Z" /> 
<path style="fill:#008400; fill-opacity:1.0; 
stroke:#008400; stroke-width:0; stroke-opacity:1; 
stroke-linecap:round; stroke-linejoin:round;fill-rule:evenodd;"
d="M 27112,6436
27121,6437
27129,6439
27137,6442
27145,6446
27152,6450
27159,6455
27165,6461
27171,6467
27176,6474
27180,6481
27184,6489
27186,6497
27189,6505
27190,6513
27190,6522
27190,6723
27190,6732
27189,6740
27186,6748
27184,6756
27180,6764
27176,6771
27171,6778
27165,6784
27159,6790
27152,6795
27145,6799
27137,6803
27129,6806
27121,6808
27112,6809
27104,6810
26932,6810
26923,6809
26915,6808
26907,6806
26899,6803
26891,6799
26884,6795
26877,6790
26871,6784
26865,6778
26860,6771
26856,6764
26852,6756
26849,6748
26847,6740
26846,6732
26846,6723
26846,6522
26846,6513
26847,6505
26849,6497
26852,6489
26856,6481
26860,6474
26865,6467
26871,6461
26877,6455
26884,6450
26891,6446
26899,6442
26907,6439
26915,6437
26923,6436
26932,6436
27104,6436
27112,6436
Z" /> 
</g>
<g >
</g>
<g >
<path style="fill:#008400; fill-opacity:1.0; 
stroke:#008400; stroke-width:0; stroke-opacity:1; 
stroke-linecap:round; stroke-linejoin:round;fill-rule:evenodd;"
d="M 44666,12908
44674,12910
44682,12912
44690,12915
44698,12918
44705,12923
44712,12928
44718,12933
44724,12939
44729,12946
44733,12954
44737,12961
44740,12969
44742,12977
44743,12986
44743,12994
44743,13196
44743,13204
44742,13213
44740,13221
44737,13229
44733,13237
44729,13244
44724,13251
44718,13257
44712,13262
44705,13268
44698,13272
44690,13275
44682,13278
44674,13280
44666,13282
44657,13282
44485,13282
44477,13282
44468,13280
44460,13278
44452,13275
44444,13272
44437,13268
44430,13262
44424,13257
44418,13251
44413,13244
44409,13237
44405,13229
44403,13221
44400,13213
44399,13204
44399,13196
44399,12994
44399,12986
44400,12977
44403,12969
44405,12961
44409,12954
44413,12946
44418,12939
44424,12933
44430,12928
44437,12923
44444,12918
44452,12915
44460,12912
44468,12910
44477,12908
44485,12908
44657,12908
44666,12908
Z" /> 
<path style="fill:#008400; fill-opacity:1.0; 
stroke:#008400; stroke-width:0; stroke-opacity:1; 
stroke-linecap:round; stroke-linejoin:round;fill-rule:evenodd;"
d="M 45286,12908
45294,12910
45302,12912
45310,12915
45318,12918
45325,12923
45332,12928
45338,12933
45344,12939
45349,12946
45353,12954
45357,12961
45360,12969
45362,12977
45363,12986
45363,12994
45363,13196
45363,13204
45362,13213
45360,13221
45357,13229
45353,13237
45349,13244
45344,13251
45338,13257
45332,13262
45325,13268
45318,13272
45310,13275
45302,13278
45294,13280
45286,13282
45277,13282
45105,13282
45097,13282
45088,13280
45080,13278
45072,13275
45064,13272
45057,13268
45050,13262
45044,13257
45038,13251
45033,13244
45029,13237
45025,13229
45023,13221
45021,13213
45019,13204
45019,13196
45019,12994
45019,12986
45021,12977
45023,12969
45025,12961
45029,12954
45033,12946
45038,12939
45044,12933
45050,12928
45057,12923
45064,12918
45072,12915
45080,12912
45088,12910
45097,12908
45105,12908
45277,12908
45286,12908
Z" /> 
</g>
<g >
<path style="fill:#008400; fill-opacity:1.0; 
stroke:#008400; stroke-width:0; stroke-opacity:1; 
stroke-linecap:round; stroke-linejoin:round;fill-rule:evenodd;"
d="M 42891,20338
42899,20339
42908,20341
42916,20344
42923,20347
42930,20352
42937,20357
42943,20362
42949,20369
42954,20375
42959,20383
42962,20390
42965,20398
42967,20406
42968,20415
42969,20423
42969,20625
42968,20633
42967,20642
42965,20650
42962,20658
42959,20666
42954,20673
42949,20680
42943,20686
42937,20692
42930,20697
42923,20701
42916,20705
42908,20707
42899,20710
42891,20711
42883,20711
42710,20711
42702,20711
42694,20710
42685,20707
42677,20705
42670,20701
42662,20697
42656,20692
42649,20686
42644,20680
42639,20673
42634,20666
42631,20658
42628,20650
42626,20642
42625,20633
42624,20625
42624,20423
42625,20415
42626,20406
42628,20398
42631,20390
42634,20383
42639,20375
42644,20369
42649,20362
42656,20357
42662,20352
42670,20347
42677,20344
42685,20341
42694,20339
42702,20338
42710,20337
42883,20337
42891,20338
Z" /> 
<path style="fill:#008400; fill-opacity:1.0; 
stroke:#008400; stroke-width:0; stroke-opacity:1; 
stroke-linecap:round; stroke-linejoin:round;fill-rule:evenodd;"
d="M 43511,20338
43519,20339
43528,20341
43536,20344
43543,20347
43551,20352
43557,20357
43564,20362
43569,20369
43574,20375
43579,20383
43582,20390
43585,20398
43587,20406
43588,20415
43589,20423
43589,20625
43588,20633
43587,20642
43585,20650
43582,20658
43579,20666
43574,20673
43569,20680
43564,20686
43557,20692
43551,20697
43543,20701
43536,20705
43528,20707
43519,20710
43511,20711
43503,20711
43330,20711
43322,20711
43314,20710
43305,20707
43297,20705
43290,20701
43283,20697
43276,20692
43270,20686
43264,20680
43259,20673
43254,20666
43251,20658
43248,20650
43246,20642
43245,20633
43244,20625
43244,20423
43245,20415
43246,20406
43248,20398
43251,20390
43254,20383
43259,20375
43264,20369
43270,20362
43276,20357
43283,20352
43290,20347
43297,20344
43305,20341
43314,20339
43322,20338
43330,20337
43503,20337
43511,20338
Z" /> 
</g>
<g >
</g>
<g >
</g>
<g >
</g>
<g >
</g>
<g >
</g>
<g >
</g>
<g >
</g>
<g >
</g>
<g >
</g>
<g >
</g>
<g >
</g>
<g >
</g>
<g >
</g>
<g >
</g>
<g >
</g>
<g >
</g>
<g >
</g>
<g >
</g>
<g >
</g>
<g >
</g>
<g >
</g>
<g >
</g>
<g >
</g>
<g >
<path style="fill:#008400; fill-opacity:1.0; 
stroke:#008400; stroke-width:0; stroke-opacity:1; 
stroke-linecap:round; stroke-linejoin:round;fill-rule:evenodd;"
d="M 46558,11351
46558,11469
46007,11469
46007,11351
46558,11351
Z" /> 
<path style="fill:#008400; fill-opacity:1.0; 
stroke:#008400; stroke-width:0; stroke-opacity:1; 
stroke-linecap:round; stroke-linejoin:round;fill-rule:evenodd;"
d="M 46558,11548
46558,11666
46007,11666
46007,11548
46558,11548
Z" /> 
<path style="fill:#008400; fill-opacity:1.0; 
stroke:#008400; stroke-width:0; stroke-opacity:1; 
stroke-linecap:round; stroke-linejoin:round;fill-rule:evenodd;"
d="M 46558,11745
46558,11863
46007,11863
46007,11745
46558,11745
Z" /> 
<path style="fill:#008400; fill-opacity:1.0; 
stroke:#008400; stroke-width:0; stroke-opacity:1; 
stroke-linecap:round; stroke-linejoin:round;fill-rule:evenodd;"
d="M 46558,11941
46558,12060
46007,12060
46007,11941
46558,11941
Z" /> 
<path style="fill:#008400; fill-opacity:1.0; 
stroke:#008400; stroke-width:0; stroke-opacity:1; 
stroke-linecap:round; stroke-linejoin:round;fill-rule:evenodd;"
d="M 46558,12138
46558,12256
46007,12256
46007,12138
46558,12138
Z" /> 
<path style="fill:#008400; fill-opacity:1.0; 
stroke:#008400; stroke-width:0; stroke-opacity:1; 
stroke-linecap:round; stroke-linejoin:round;fill-rule:evenodd;"
d="M 44826,12138
44826,12256
44275,12256
44275,12138
44826,12138
Z" /> 
<path style="fill:#008400; fill-opacity:1.0; 
stroke:#008400; stroke-width:0; stroke-opacity:1; 
stroke-linecap:round; stroke-linejoin:round;fill-rule:evenodd;"
d="M 44826,11941
44826,12060
44275,12060
44275,11941
44826,11941
Z" /> 
<path style="fill:#008400; fill-opacity:1.0; 
stroke:#008400; stroke-width:0; stroke-opacity:1; 
stroke-linecap:round; stroke-linejoin:round;fill-rule:evenodd;"
d="M 44826,11745
44826,11863
44275,11863
44275,11745
44826,11745
Z" /> 
<path style="fill:#008400; fill-opacity:1.0; 
stroke:#008400; stroke-width:0; stroke-opacity:1; 
stroke-linecap:round; stroke-linejoin:round;fill-rule:evenodd;"
d="M 44826,11548
44826,11666
44275,11666
44275,11548
44826,11548
Z" /> 
<path style="fill:#008400; fill-opacity:1.0; 
stroke:#008400; stroke-width:0; stroke-opacity:1; 
stroke-linecap:round; stroke-linejoin:round;fill-rule:evenodd;"
d="M 44826,11351
44826,11469
44275,11469
44275,11351
44826,11351
Z" /> 
</g>
<g >
</g>
<g >
</g>
<g >
</g>
<g >
</g>
<g >
</g>
<g >
</g>
<g >
</g>
<g >
</g>
<g >
</g>
</g>
<g style="fill:#000000; fill-opacity:1.0; 
stroke:#000000; stroke-width:0; stroke-opacity:1; 
stroke-linecap:round; stroke-linejoin:round;">
</g>
<g style="fill:#C2C200; fill-opacity:1.0; 
stroke:#C2C200; stroke-width:0; stroke-opacity:1; 
stroke-linecap:round; stroke-linejoin:round;">
</g>
<g style="fill:#C2C200; fill-opacity:1.0; 
stroke:#C2C200; stroke-width:59.0551; stroke-opacity:1; 
stroke-linecap:round; stroke-linejoin:round;">
</g>
<g style="fill:#C2C200; fill-opacity:0.0; 
stroke:#C2C200; stroke-width:59.0551; stroke-opacity:1; 
stroke-linecap:round; stroke-linejoin:round;">
<path d="M24070 22867
L50070 22867
" />
<path d="M51070 7967
L50070 6967
" />
<path d="M51070 20867
L51070 7967
" />
<path d="M50070 2467
L49470 1867
" />
<path d="M50070 21867
L51070 20867
" />
<path d="M50070 22867
L50070 21867
" />
<path d="M50070 6967
L50070 2467
" />
<path d="M24070 1867
L24070 22867
" />
<path d="M49470 1867
L24070 1867
" />
<g >
</g>
<g >
</g>
<g >
</g>
<g >
</g>
<g >
</g>
<g >
</g>
<g >
</g>
<g >
</g>
<g >
</g>
<g >
</g>
<g >
</g>
<g >
</g>
<g >
</g>
<g >
</g>
<g >
</g>
<g >
</g>
<g >
</g>
<g >
</g>
<g >
</g>
<g >
</g>
<g >
</g>
<g >
</g>
<g >
</g>
<g >
</g>
<g >
</g>
<g >
</g>
<g >
</g>
<g >
</g>
<g >
</g>
<g >
</g>
<g >
</g>
<g >
</g>
<g >
</g>
<g >
</g>
<g >
</g>
<g >
</g>
<g >
</g>
<g >
</g>
<g >
</g>
<g >
</g>
<g >
</g>
<g >
</g>
<g >
</g>
<g >
</g>
<g >
</g>
<g >
</g>
<g >
</g>
<g >
</g>
<g >
</g>
<g >
</g>
<g >
</g>
<g >
</g>
<g >
</g>
<g >
</g>
<g >
</g>
<g >
</g>
<g >
</g>
<g >
</g>
<g >
</g>
<g >
</g>
<g >
</g>
<g >
</g>
<g >
</g>
<g >
</g>
<g >
</g>
<g >
</g>
<g >
</g>
<g >
</g>
<g >
</g>
<g >
</g>
<g >
</g>
<g >
</g>
<g >
</g>
<g >
</g>
<g >
</g>
<g >
</g>
<g >
</g>
<g >
</g>
<g >
</g>
<g >
</g>
</g> 
</svg>
