<?xml version="1.0" standalone="no"?>
 <!DOCTYPE svg PUBLIC "-//W3C//DTD SVG 1.1//EN" 
 "http://www.w3.org/Graphics/SVG/1.1/DTD/svg11.dtd"> 
<svg xmlns="http://www.w3.org/2000/svg" version="1.1" 
    width="13.8303cm" height="6.10362cm" viewBox="0 0 54450 24030 ">
<title>SVG Picture created as uno shield v.6 project SMD-B_Paste.svg date 2019/07/29 23:19:02 </title>
  <desc>Picture generated by PCBNEW </desc>
<g style="fill:#000000; fill-opacity:1;stroke:#000000; stroke-opacity:1;
stroke-linecap:round; stroke-linejoin:round; "
 transform="translate(0 0) scale(1 1)">
</g>
<g style="fill:#000000; fill-opacity:0.0; 
stroke:#000000; stroke-width:-0.000393701; stroke-opacity:1; 
stroke-linecap:round; stroke-linejoin:round;">
</g>
<g style="fill:#0B00C2; fill-opacity:0.0; 
stroke:#0B00C2; stroke-width:-0.000393701; stroke-opacity:1; 
stroke-linecap:round; stroke-linejoin:round;">
</g>
<g style="fill:#0B00C2; fill-opacity:0.0; 
stroke:#0B00C2; stroke-width:31.4961; stroke-opacity:1; 
stroke-linecap:round; stroke-linejoin:round;">
<circle cx="39792.2" cy="16445.9" r="124.128" /> 
<circle cx="42959.4" cy="17666.7" r="124.128" /> 
<circle cx="41170.9" cy="17626.3" r="124.128" /> 
<circle cx="37878.9" cy="11729.4" r="124.128" /> 
<circle cx="42655" cy="17885.2" r="124.128" /> 
<circle cx="41558.2" cy="18044.7" r="124.128" /> 
<circle cx="37967.4" cy="12498.4" r="124.128" /> 
<circle cx="39071.5" cy="12500.9" r="124.128" /> 
<circle cx="39072.4" cy="13945.1" r="124.128" /> 
<circle cx="35531.3" cy="18615.9" r="124.128" /> 
<circle cx="42043.1" cy="18611.9" r="124.128" /> 
<circle cx="43995.9" cy="16816.7" r="124.128" /> 
<circle cx="43995.9" cy="12328.5" r="124.128" /> 
<circle cx="42086.4" cy="10249.7" r="124.128" /> 
<circle cx="35137.6" cy="10249.7" r="124.128" /> 
<circle cx="33054.9" cy="12072.6" r="124.128" /> 
<circle cx="33054.9" cy="16501.7" r="124.128" /> 
<circle cx="38788.8" cy="16107.5" r="124.128" /> 
<circle cx="34891.9" cy="12569.5" r="124.128" /> 
<circle cx="40019.9" cy="13779.6" r="124.128" /> 
<circle cx="41291.1" cy="11367.5" r="124.128" /> 
<circle cx="41805.3" cy="14530.3" r="124.128" /> 
<circle cx="41091.6" cy="11918.9" r="124.128" /> 
<circle cx="41326" cy="13492.1" r="124.128" /> 
<circle cx="41228.9" cy="13016.7" r="124.128" /> 
<circle cx="41097.7" cy="16075.4" r="124.128" /> 
<circle cx="36712.8" cy="18002" r="124.128" /> 
<circle cx="39908.3" cy="18630.7" r="124.128" /> 
<circle cx="40625.3" cy="18634.7" r="124.128" /> 
<circle cx="40321.5" cy="14155.9" r="124.128" /> 
<circle cx="39635.8" cy="12553.6" r="124.128" /> 
<circle cx="40947.1" cy="12104.6" r="124.128" /> 
<circle cx="42754.8" cy="11043.2" r="124.128" /> 
<circle cx="42608.5" cy="11391.5" r="124.128" /> 
<circle cx="43081.5" cy="11425.1" r="124.128" /> 
<circle cx="43170" cy="11737.5" r="124.128" /> 
<circle cx="42063.6" cy="12339.2" r="124.128" /> 
<circle cx="41619.8" cy="12624.5" r="124.128" /> 
<circle cx="41307" cy="12698.2" r="124.128" /> 
<circle cx="43545.2" cy="12300.2" r="124.128" /> 
<circle cx="43429.6" cy="12601.9" r="124.128" /> 
<circle cx="43202.1" cy="12930.4" r="124.128" /> 
<circle cx="42884.7" cy="13153.8" r="124.128" /> 
<circle cx="42559.8" cy="13548.7" r="124.128" /> 
<circle cx="42055.8" cy="13550.8" r="124.128" /> 
<circle cx="38238" cy="13201.8" r="124.128" /> 
<circle cx="40290.2" cy="13606.2" r="124.128" /> 
<circle cx="40947.8" cy="13756.1" r="124.128" /> 
<circle cx="40641.3" cy="14687.3" r="124.128" /> 
<circle cx="43333.5" cy="15490.1" r="124.128" /> 
<circle cx="43238.2" cy="15901.8" r="124.128" /> 
<circle cx="43332.6" cy="16630.3" r="124.128" /> 
<circle cx="40304.8" cy="18506.5" r="124.128" /> 
<circle cx="38757.5" cy="17868.5" r="124.128" /> 
<circle cx="40060.4" cy="14594.3" r="124.128" /> 
<circle cx="39720.2" cy="14541.1" r="124.128" /> 
<circle cx="38763.8" cy="16990.7" r="124.128" /> 
<circle cx="38032.1" cy="16440.6" r="124.128" /> 
<circle cx="37999.2" cy="16773.5" r="124.128" /> 
<circle cx="36655.1" cy="16572.1" r="124.128" /> 
<circle cx="36241.6" cy="16627.4" r="124.128" /> 
<circle cx="36614.9" cy="16024" r="124.128" /> 
<circle cx="37988.8" cy="13941.8" r="124.128" /> 
<circle cx="34923.4" cy="10931.7" r="124.128" /> 
<circle cx="33699.5" cy="12409" r="124.128" /> 
<circle cx="34174" cy="13037.2" r="124.128" /> 
<circle cx="34450.4" cy="13274.8" r="124.128" /> 
<circle cx="34791.9" cy="13372.7" r="124.128" /> 
<circle cx="35050.3" cy="14465.8" r="124.128" /> 
<circle cx="34556.5" cy="14225.5" r="124.128" /> 
<circle cx="35585.5" cy="15334.4" r="124.128" /> 
<circle cx="35128.8" cy="16707.4" r="124.128" /> 
<circle cx="35981.9" cy="17793.8" r="124.128" /> 
<circle cx="35504.5" cy="17229.3" r="124.128" /> 
<circle cx="37720.3" cy="17964.2" r="124.128" /> 
<circle cx="34714.3" cy="14939.5" r="124.128" /> 
<circle cx="33665.2" cy="16639.5" r="124.128" /> 
<circle cx="34781.8" cy="17960.5" r="124.128" /> 
<g >
</g>
<g >
</g>
<g >
</g>
<g >
</g>
<g >
</g>
<g >
</g>
<g >
</g>
<g >
</g>
<g >
</g>
<g >
</g>
<g >
</g>
<g >
</g>
<g >
</g>
<g >
</g>
<g >
</g>
<g >
</g>
<g >
</g>
<g style="fill:#008400; fill-opacity:0.0; 
stroke:#008400; stroke-width:31.4961; stroke-opacity:1; 
stroke-linecap:round; stroke-linejoin:round;">
</g>
<g style="fill:#008400; fill-opacity:0.0; 
stroke:#008400; stroke-width:0; stroke-opacity:1; 
stroke-linecap:round; stroke-linejoin:round;">
</g>
<g style="fill:#008400; fill-opacity:1.0; 
stroke:#008400; stroke-width:0; stroke-opacity:1; 
stroke-linecap:round; stroke-linejoin:round;">
<path style="fill:#008400; fill-opacity:1.0; 
stroke:#008400; stroke-width:0; stroke-opacity:1; 
stroke-linecap:round; stroke-linejoin:round;fill-rule:evenodd;"
d="M 38809,10809
38818,10810
38827,10813
38835,10816
38843,10820
38851,10824
38859,10830
38866,10836
38872,10843
38877,10850
38882,10858
38886,10866
38889,10875
38891,10884
38892,10893
38893,10902
38893,11089
38892,11098
38891,11107
38889,11116
38886,11125
38882,11133
38877,11141
38872,11148
38866,11155
38859,11161
38851,11167
38843,11172
38835,11176
38827,11179
38818,11181
38809,11182
38799,11183
38573,11183
38564,11182
38555,11181
38546,11179
38537,11176
38529,11172
38521,11167
38514,11161
38507,11155
38501,11148
38495,11141
38491,11133
38487,11125
38484,11116
38481,11107
38480,11098
38480,11089
38480,10902
38480,10893
38481,10884
38484,10875
38487,10866
38491,10858
38495,10850
38501,10843
38507,10836
38514,10830
38521,10824
38529,10820
38537,10816
38546,10813
38555,10810
38564,10809
38573,10809
38799,10809
38809,10809
Z" /> 
<path style="fill:#008400; fill-opacity:1.0; 
stroke:#008400; stroke-width:0; stroke-opacity:1; 
stroke-linecap:round; stroke-linejoin:round;fill-rule:evenodd;"
d="M 38120,10809
38129,10810
38138,10813
38146,10816
38155,10820
38162,10824
38170,10830
38177,10836
38183,10843
38188,10850
38193,10858
38197,10866
38200,10875
38202,10884
38203,10893
38204,10902
38204,11089
38203,11098
38202,11107
38200,11116
38197,11125
38193,11133
38188,11141
38183,11148
38177,11155
38170,11161
38162,11167
38155,11172
38146,11176
38138,11179
38129,11181
38120,11182
38110,11183
37884,11183
37875,11182
37866,11181
37857,11179
37848,11176
37840,11172
37832,11167
37825,11161
37818,11155
37812,11148
37806,11141
37802,11133
37798,11125
37795,11116
37792,11107
37791,11098
37791,11089
37791,10902
37791,10893
37792,10884
37795,10875
37798,10866
37802,10858
37806,10850
37812,10843
37818,10836
37825,10830
37832,10824
37840,10820
37848,10816
37857,10813
37866,10810
37875,10809
37884,10809
38110,10809
38120,10809
Z" /> 
</g>
<g >
</g>
<g >
<path style="fill:#008400; fill-opacity:1.0; 
stroke:#008400; stroke-width:0; stroke-opacity:1; 
stroke-linecap:round; stroke-linejoin:round;fill-rule:evenodd;"
d="M 38501,14392
38511,14393
38519,14395
38528,14398
38536,14402
38544,14407
38552,14413
38558,14419
38565,14426
38570,14433
38575,14441
38579,14449
38582,14458
38584,14467
38585,14476
38586,14485
38586,14672
38585,14681
38584,14690
38582,14699
38579,14708
38575,14716
38570,14724
38565,14731
38558,14738
38552,14744
38544,14750
38536,14754
38528,14758
38519,14761
38511,14764
38501,14765
38492,14765
38266,14765
38257,14765
38248,14764
38239,14761
38230,14758
38222,14754
38214,14750
38207,14744
38200,14738
38194,14731
38188,14724
38183,14716
38180,14708
38176,14699
38174,14690
38173,14681
38172,14672
38172,14485
38173,14476
38174,14467
38176,14458
38180,14449
38183,14441
38188,14433
38194,14426
38200,14419
38207,14413
38214,14407
38222,14402
38230,14398
38239,14395
38248,14393
38257,14392
38266,14391
38492,14391
38501,14392
Z" /> 
<path style="fill:#008400; fill-opacity:1.0; 
stroke:#008400; stroke-width:0; stroke-opacity:1; 
stroke-linecap:round; stroke-linejoin:round;fill-rule:evenodd;"
d="M 37813,14392
37822,14393
37830,14395
37839,14398
37847,14402
37855,14407
37863,14413
37869,14419
37876,14426
37881,14433
37886,14441
37890,14449
37893,14458
37895,14467
37896,14476
37897,14485
37897,14672
37896,14681
37895,14690
37893,14699
37890,14708
37886,14716
37881,14724
37876,14731
37869,14738
37863,14744
37855,14750
37847,14754
37839,14758
37830,14761
37822,14764
37813,14765
37803,14765
37577,14765
37568,14765
37559,14764
37550,14761
37541,14758
37533,14754
37525,14750
37518,14744
37511,14738
37505,14731
37499,14724
37495,14716
37491,14708
37487,14699
37485,14690
37484,14681
37483,14672
37483,14485
37484,14476
37485,14467
37487,14458
37491,14449
37495,14441
37499,14433
37505,14426
37511,14419
37518,14413
37525,14407
37533,14402
37541,14398
37550,14395
37559,14393
37568,14392
37577,14391
37803,14391
37813,14392
Z" /> 
</g>
<g >
</g>
<g >
</g>
<g >
</g>
<g >
</g>
<g >
</g>
<g >
</g>
<g >
</g>
<g >
</g>
<g >
</g>
<g >
</g>
<g >
</g>
<g >
</g>
<g >
</g>
<g >
</g>
<g >
</g>
<g >
</g>
<g >
</g>
<g >
<path style="fill:#008400; fill-opacity:1.0; 
stroke:#008400; stroke-width:0; stroke-opacity:1; 
stroke-linecap:round; stroke-linejoin:round;fill-rule:evenodd;"
d="M 26803,2415
26812,2417
26820,2419
26828,2422
26836,2425
26843,2429
26850,2434
26856,2440
26862,2446
26867,2453
26871,2460
26875,2468
26877,2476
26879,2484
26881,2493
26881,2501
26881,2703
26881,2711
26879,2720
26877,2728
26875,2736
26871,2743
26867,2751
26862,2757
26856,2764
26850,2769
26843,2774
26836,2779
26828,2782
26820,2785
26812,2787
26803,2789
26795,2789
26623,2789
26614,2789
26606,2787
26598,2785
26590,2782
26582,2779
26575,2774
26568,2769
26562,2764
26556,2757
26551,2751
26547,2743
26543,2736
26540,2728
26538,2720
26537,2711
26537,2703
26537,2501
26537,2493
26538,2484
26540,2476
26543,2468
26547,2460
26551,2453
26556,2446
26562,2440
26568,2434
26575,2429
26582,2425
26590,2422
26598,2419
26606,2417
26614,2415
26623,2415
26795,2415
26803,2415
Z" /> 
<path style="fill:#008400; fill-opacity:1.0; 
stroke:#008400; stroke-width:0; stroke-opacity:1; 
stroke-linecap:round; stroke-linejoin:round;fill-rule:evenodd;"
d="M 27424,2415
27432,2417
27440,2419
27448,2422
27456,2425
27463,2429
27470,2434
27476,2440
27482,2446
27487,2453
27491,2460
27495,2468
27497,2476
27500,2484
27501,2493
27501,2501
27501,2703
27501,2711
27500,2720
27497,2728
27495,2736
27491,2743
27487,2751
27482,2757
27476,2764
27470,2769
27463,2774
27456,2779
27448,2782
27440,2785
27432,2787
27424,2789
27415,2789
27243,2789
27234,2789
27226,2787
27218,2785
27210,2782
27202,2779
27195,2774
27188,2769
27182,2764
27176,2757
27171,2751
27167,2743
27163,2736
27160,2728
27158,2720
27157,2711
27157,2703
27157,2501
27157,2493
27158,2484
27160,2476
27163,2468
27167,2460
27171,2453
27176,2446
27182,2440
27188,2434
27195,2429
27202,2425
27210,2422
27218,2419
27226,2417
27234,2415
27243,2415
27415,2415
27424,2415
Z" /> 
</g>
<g >
</g>
<g >
</g>
<g >
<path style="fill:#008400; fill-opacity:1.0; 
stroke:#008400; stroke-width:0; stroke-opacity:1; 
stroke-linecap:round; stroke-linejoin:round;fill-rule:evenodd;"
d="M 28778,2089
28786,2090
28794,2092
28802,2095
28810,2098
28817,2103
28824,2108
28830,2113
28836,2120
28841,2126
28845,2134
28849,2141
28852,2149
28854,2157
28855,2166
28856,2174
28856,2376
28855,2385
28854,2393
28852,2401
28849,2409
28845,2417
28841,2424
28836,2431
28830,2437
28824,2443
28817,2448
28810,2452
28802,2456
28794,2458
28786,2461
28778,2462
28769,2462
28597,2462
28589,2462
28580,2461
28572,2458
28564,2456
28557,2452
28549,2448
28543,2443
28536,2437
28531,2431
28526,2424
28521,2417
28518,2409
28515,2401
28513,2393
28511,2385
28511,2376
28511,2174
28511,2166
28513,2157
28515,2149
28518,2141
28521,2134
28526,2126
28531,2120
28536,2113
28543,2108
28549,2103
28557,2098
28564,2095
28572,2092
28580,2090
28589,2089
28597,2088
28769,2088
28778,2089
Z" /> 
<path style="fill:#008400; fill-opacity:1.0; 
stroke:#008400; stroke-width:0; stroke-opacity:1; 
stroke-linecap:round; stroke-linejoin:round;fill-rule:evenodd;"
d="M 28158,2089
28166,2090
28174,2092
28182,2095
28190,2098
28197,2103
28204,2108
28210,2113
28216,2120
28221,2126
28225,2134
28229,2141
28232,2149
28234,2157
28235,2166
28235,2174
28235,2376
28235,2385
28234,2393
28232,2401
28229,2409
28225,2417
28221,2424
28216,2431
28210,2437
28204,2443
28197,2448
28190,2452
28182,2456
28174,2458
28166,2461
28158,2462
28149,2462
27977,2462
27969,2462
27960,2461
27952,2458
27944,2456
27936,2452
27929,2448
27922,2443
27916,2437
27910,2431
27905,2424
27901,2417
27898,2409
27895,2401
27893,2393
27891,2385
27891,2376
27891,2174
27891,2166
27893,2157
27895,2149
27898,2141
27901,2134
27905,2126
27910,2120
27916,2113
27922,2108
27929,2103
27936,2098
27944,2095
27952,2092
27960,2090
27969,2089
27977,2088
28149,2088
28158,2089
Z" /> 
</g>
<g >
<path style="fill:#008400; fill-opacity:1.0; 
stroke:#008400; stroke-width:0; stroke-opacity:1; 
stroke-linecap:round; stroke-linejoin:round;fill-rule:evenodd;"
d="M 26492,4935
26501,4936
26509,4938
26517,4941
26525,4945
26532,4949
26539,4954
26545,4960
26551,4966
26556,4973
26560,4980
26564,4988
26566,4996
26568,5004
26570,5012
26570,5021
26570,5223
26570,5231
26568,5239
26566,5248
26564,5255
26560,5263
26556,5270
26551,5277
26545,5283
26539,5289
26532,5294
26525,5298
26517,5302
26509,5305
26501,5307
26492,5308
26484,5309
26312,5309
26303,5308
26295,5307
26287,5305
26279,5302
26271,5298
26264,5294
26257,5289
26251,5283
26245,5277
26240,5270
26236,5263
26232,5255
26229,5248
26227,5239
26226,5231
26226,5223
26226,5021
26226,5012
26227,5004
26229,4996
26232,4988
26236,4980
26240,4973
26245,4966
26251,4960
26257,4954
26264,4949
26271,4945
26279,4941
26287,4938
26295,4936
26303,4935
26312,4935
26484,4935
26492,4935
Z" /> 
<path style="fill:#008400; fill-opacity:1.0; 
stroke:#008400; stroke-width:0; stroke-opacity:1; 
stroke-linecap:round; stroke-linejoin:round;fill-rule:evenodd;"
d="M 27112,4935
27121,4936
27129,4938
27137,4941
27145,4945
27152,4949
27159,4954
27165,4960
27171,4966
27176,4973
27180,4980
27184,4988
27186,4996
27189,5004
27190,5012
27190,5021
27190,5223
27190,5231
27189,5239
27186,5248
27184,5255
27180,5263
27176,5270
27171,5277
27165,5283
27159,5289
27152,5294
27145,5298
27137,5302
27129,5305
27121,5307
27112,5308
27104,5309
26932,5309
26923,5308
26915,5307
26907,5305
26899,5302
26891,5298
26884,5294
26877,5289
26871,5283
26865,5277
26860,5270
26856,5263
26852,5255
26849,5248
26847,5239
26846,5231
26846,5223
26846,5021
26846,5012
26847,5004
26849,4996
26852,4988
26856,4980
26860,4973
26865,4966
26871,4960
26877,4954
26884,4949
26891,4945
26899,4941
26907,4938
26915,4936
26923,4935
26932,4935
27104,4935
27112,4935
Z" /> 
</g>
<g >
</g>
<g >
<path style="fill:#008400; fill-opacity:1.0; 
stroke:#008400; stroke-width:0; stroke-opacity:1; 
stroke-linecap:round; stroke-linejoin:round;fill-rule:evenodd;"
d="M 44666,11407
44674,11409
44682,11411
44690,11414
44698,11417
44705,11422
44712,11427
44718,11432
44724,11439
44729,11445
44733,11453
44737,11460
44740,11468
44742,11476
44743,11485
44743,11493
44743,11695
44743,11703
44742,11712
44740,11720
44737,11728
44733,11736
44729,11743
44724,11750
44718,11756
44712,11762
44705,11767
44698,11771
44690,11775
44682,11777
44674,11779
44666,11781
44657,11781
44485,11781
44477,11781
44468,11779
44460,11777
44452,11775
44444,11771
44437,11767
44430,11762
44424,11756
44418,11750
44413,11743
44409,11736
44405,11728
44403,11720
44400,11712
44399,11703
44399,11695
44399,11493
44399,11485
44400,11476
44403,11468
44405,11460
44409,11453
44413,11445
44418,11439
44424,11432
44430,11427
44437,11422
44444,11417
44452,11414
44460,11411
44468,11409
44477,11407
44485,11407
44657,11407
44666,11407
Z" /> 
<path style="fill:#008400; fill-opacity:1.0; 
stroke:#008400; stroke-width:0; stroke-opacity:1; 
stroke-linecap:round; stroke-linejoin:round;fill-rule:evenodd;"
d="M 45286,11407
45294,11409
45302,11411
45310,11414
45318,11417
45325,11422
45332,11427
45338,11432
45344,11439
45349,11445
45353,11453
45357,11460
45360,11468
45362,11476
45363,11485
45363,11493
45363,11695
45363,11703
45362,11712
45360,11720
45357,11728
45353,11736
45349,11743
45344,11750
45338,11756
45332,11762
45325,11767
45318,11771
45310,11775
45302,11777
45294,11779
45286,11781
45277,11781
45105,11781
45097,11781
45088,11779
45080,11777
45072,11775
45064,11771
45057,11767
45050,11762
45044,11756
45038,11750
45033,11743
45029,11736
45025,11728
45023,11720
45021,11712
45019,11703
45019,11695
45019,11493
45019,11485
45021,11476
45023,11468
45025,11460
45029,11453
45033,11445
45038,11439
45044,11432
45050,11427
45057,11422
45064,11417
45072,11414
45080,11411
45088,11409
45097,11407
45105,11407
45277,11407
45286,11407
Z" /> 
</g>
<g >
<path style="fill:#008400; fill-opacity:1.0; 
stroke:#008400; stroke-width:0; stroke-opacity:1; 
stroke-linecap:round; stroke-linejoin:round;fill-rule:evenodd;"
d="M 42891,18837
42899,18838
42908,18840
42916,18843
42923,18846
42930,18851
42937,18856
42943,18861
42949,18868
42954,18874
42959,18882
42962,18889
42965,18897
42967,18906
42968,18914
42969,18922
42969,19124
42968,19133
42967,19141
42965,19149
42962,19157
42959,19165
42954,19172
42949,19179
42943,19185
42937,19191
42930,19196
42923,19200
42916,19204
42908,19207
42899,19209
42891,19210
42883,19210
42710,19210
42702,19210
42694,19209
42685,19207
42677,19204
42670,19200
42662,19196
42656,19191
42649,19185
42644,19179
42639,19172
42634,19165
42631,19157
42628,19149
42626,19141
42625,19133
42624,19124
42624,18922
42625,18914
42626,18906
42628,18897
42631,18889
42634,18882
42639,18874
42644,18868
42649,18861
42656,18856
42662,18851
42670,18846
42677,18843
42685,18840
42694,18838
42702,18837
42710,18836
42883,18836
42891,18837
Z" /> 
<path style="fill:#008400; fill-opacity:1.0; 
stroke:#008400; stroke-width:0; stroke-opacity:1; 
stroke-linecap:round; stroke-linejoin:round;fill-rule:evenodd;"
d="M 43511,18837
43519,18838
43528,18840
43536,18843
43543,18846
43551,18851
43557,18856
43564,18861
43569,18868
43574,18874
43579,18882
43582,18889
43585,18897
43587,18906
43588,18914
43589,18922
43589,19124
43588,19133
43587,19141
43585,19149
43582,19157
43579,19165
43574,19172
43569,19179
43564,19185
43557,19191
43551,19196
43543,19200
43536,19204
43528,19207
43519,19209
43511,19210
43503,19210
43330,19210
43322,19210
43314,19209
43305,19207
43297,19204
43290,19200
43283,19196
43276,19191
43270,19185
43264,19179
43259,19172
43254,19165
43251,19157
43248,19149
43246,19141
43245,19133
43244,19124
43244,18922
43245,18914
43246,18906
43248,18897
43251,18889
43254,18882
43259,18874
43264,18868
43270,18861
43276,18856
43283,18851
43290,18846
43297,18843
43305,18840
43314,18838
43322,18837
43330,18836
43503,18836
43511,18837
Z" /> 
</g>
<g >
</g>
<g >
</g>
<g >
</g>
<g >
</g>
<g >
</g>
<g >
</g>
<g >
</g>
<g >
</g>
<g >
</g>
<g >
</g>
<g >
</g>
<g >
</g>
<g >
</g>
<g >
</g>
<g >
</g>
<g >
</g>
<g >
</g>
<g >
</g>
<g >
</g>
<g >
</g>
<g >
</g>
<g >
</g>
<g >
</g>
<g >
</g>
<g >
<path style="fill:#008400; fill-opacity:1.0; 
stroke:#008400; stroke-width:0; stroke-opacity:1; 
stroke-linecap:round; stroke-linejoin:round;fill-rule:evenodd;"
d="M 46558,9850
46558,9968
46007,9968
46007,9850
46558,9850
Z" /> 
<path style="fill:#008400; fill-opacity:1.0; 
stroke:#008400; stroke-width:0; stroke-opacity:1; 
stroke-linecap:round; stroke-linejoin:round;fill-rule:evenodd;"
d="M 46558,10047
46558,10165
46007,10165
46007,10047
46558,10047
Z" /> 
<path style="fill:#008400; fill-opacity:1.0; 
stroke:#008400; stroke-width:0; stroke-opacity:1; 
stroke-linecap:round; stroke-linejoin:round;fill-rule:evenodd;"
d="M 46558,10244
46558,10362
46007,10362
46007,10244
46558,10244
Z" /> 
<path style="fill:#008400; fill-opacity:1.0; 
stroke:#008400; stroke-width:0; stroke-opacity:1; 
stroke-linecap:round; stroke-linejoin:round;fill-rule:evenodd;"
d="M 46558,10441
46558,10559
46007,10559
46007,10441
46558,10441
Z" /> 
<path style="fill:#008400; fill-opacity:1.0; 
stroke:#008400; stroke-width:0; stroke-opacity:1; 
stroke-linecap:round; stroke-linejoin:round;fill-rule:evenodd;"
d="M 46558,10637
46558,10755
46007,10755
46007,10637
46558,10637
Z" /> 
<path style="fill:#008400; fill-opacity:1.0; 
stroke:#008400; stroke-width:0; stroke-opacity:1; 
stroke-linecap:round; stroke-linejoin:round;fill-rule:evenodd;"
d="M 44826,10637
44826,10755
44275,10755
44275,10637
44826,10637
Z" /> 
<path style="fill:#008400; fill-opacity:1.0; 
stroke:#008400; stroke-width:0; stroke-opacity:1; 
stroke-linecap:round; stroke-linejoin:round;fill-rule:evenodd;"
d="M 44826,10441
44826,10559
44275,10559
44275,10441
44826,10441
Z" /> 
<path style="fill:#008400; fill-opacity:1.0; 
stroke:#008400; stroke-width:0; stroke-opacity:1; 
stroke-linecap:round; stroke-linejoin:round;fill-rule:evenodd;"
d="M 44826,10244
44826,10362
44275,10362
44275,10244
44826,10244
Z" /> 
<path style="fill:#008400; fill-opacity:1.0; 
stroke:#008400; stroke-width:0; stroke-opacity:1; 
stroke-linecap:round; stroke-linejoin:round;fill-rule:evenodd;"
d="M 44826,10047
44826,10165
44275,10165
44275,10047
44826,10047
Z" /> 
<path style="fill:#008400; fill-opacity:1.0; 
stroke:#008400; stroke-width:0; stroke-opacity:1; 
stroke-linecap:round; stroke-linejoin:round;fill-rule:evenodd;"
d="M 44826,9850
44826,9968
44275,9968
44275,9850
44826,9850
Z" /> 
</g>
<g >
</g>
<g >
</g>
<g >
</g>
<g >
</g>
<g >
</g>
<g >
</g>
<g >
</g>
<g >
</g>
<g >
</g>
</g>
<g style="fill:#000000; fill-opacity:1.0; 
stroke:#000000; stroke-width:0; stroke-opacity:1; 
stroke-linecap:round; stroke-linejoin:round;">
</g>
<g style="fill:#C2C200; fill-opacity:1.0; 
stroke:#C2C200; stroke-width:0; stroke-opacity:1; 
stroke-linecap:round; stroke-linejoin:round;">
</g>
<g style="fill:#C2C200; fill-opacity:1.0; 
stroke:#C2C200; stroke-width:59.0551; stroke-opacity:1; 
stroke-linecap:round; stroke-linejoin:round;">
</g>
<g style="fill:#C2C200; fill-opacity:0.0; 
stroke:#C2C200; stroke-width:59.0551; stroke-opacity:1; 
stroke-linecap:round; stroke-linejoin:round;">
<path d="M24070 21366
L50070 21366
" />
<path d="M51070 6466
L50070 5466
" />
<path d="M51070 19366
L51070 6466
" />
<path d="M50070 966
L49470 366
" />
<path d="M50070 20366
L51070 19366
" />
<path d="M50070 21366
L50070 20366
" />
<path d="M50070 5466
L50070 966
" />
<path d="M24070 366
L24070 21366
" />
<path d="M49470 366
L24070 366
" />
<g >
</g>
<g >
</g>
<g >
</g>
<g >
</g>
<g >
</g>
<g >
</g>
<g >
</g>
<g >
</g>
<g >
</g>
<g >
</g>
<g >
</g>
<g >
</g>
<g >
</g>
<g >
</g>
<g >
</g>
<g >
</g>
<g >
</g>
<g >
</g>
<g >
</g>
<g >
</g>
<g >
</g>
<g >
</g>
<g >
</g>
<g >
</g>
<g >
</g>
<g >
</g>
<g >
</g>
<g >
</g>
<g >
</g>
<g >
</g>
<g >
</g>
<g >
</g>
<g >
</g>
<g >
</g>
<g >
</g>
<g >
</g>
<g >
</g>
<g >
</g>
<g >
</g>
<g >
</g>
<g >
</g>
<g >
</g>
<g >
</g>
<g >
</g>
<g >
</g>
<g >
</g>
<g >
</g>
<g >
</g>
<g >
</g>
<g >
</g>
<g >
</g>
<g >
</g>
<g >
</g>
<g >
</g>
<g >
</g>
<g >
</g>
<g >
</g>
<g >
</g>
<g >
</g>
<g >
</g>
<g >
</g>
<g >
</g>
<g >
</g>
<g >
</g>
<g >
</g>
<g >
</g>
<g >
</g>
<g >
</g>
<g >
</g>
<g >
</g>
<g >
</g>
<g >
</g>
<g >
</g>
<g >
</g>
<g >
</g>
<g >
</g>
</g> 
</svg>
