<?xml version="1.0" standalone="no"?>
 <!DOCTYPE svg PUBLIC "-//W3C//DTD SVG 1.1//EN" 
 "http://www.w3.org/Graphics/SVG/1.1/DTD/svg11.dtd"> 
<svg xmlns="http://www.w3.org/2000/svg" version="1.1" 
    width="13.8303cm" height="8.30834cm" viewBox="0 0 54450 32710 ">
<title>SVG Picture created as uno shield v.6 project SMD-B_Paste.svg date 2019/07/30 10:04:23 </title>
  <desc>Picture generated by PCBNEW </desc>
<g style="fill:#000000; fill-opacity:1;stroke:#000000; stroke-opacity:1;
stroke-linecap:round; stroke-linejoin:round; "
 transform="translate(0 0) scale(1 1)">
</g>
<g style="fill:#000000; fill-opacity:0.0; 
stroke:#000000; stroke-width:-0.000393701; stroke-opacity:1; 
stroke-linecap:round; stroke-linejoin:round;">
</g>
<g style="fill:#0B00C2; fill-opacity:0.0; 
stroke:#0B00C2; stroke-width:-0.000393701; stroke-opacity:1; 
stroke-linecap:round; stroke-linejoin:round;">
</g>
<g style="fill:#0B00C2; fill-opacity:0.0; 
stroke:#0B00C2; stroke-width:31.4961; stroke-opacity:1; 
stroke-linecap:round; stroke-linejoin:round;">
<circle cx="39792.2" cy="25122" r="124.128" /> 
<circle cx="42959.4" cy="26342.8" r="124.128" /> 
<circle cx="41170.9" cy="26302.4" r="124.128" /> 
<circle cx="37878.9" cy="20405.5" r="124.128" /> 
<circle cx="42655" cy="26561.3" r="124.128" /> 
<circle cx="41558.2" cy="26720.8" r="124.128" /> 
<circle cx="37967.4" cy="21174.5" r="124.128" /> 
<circle cx="39071.5" cy="21177" r="124.128" /> 
<circle cx="39072.4" cy="22621.2" r="124.128" /> 
<circle cx="35531.3" cy="27292" r="124.128" /> 
<circle cx="42043.1" cy="27288" r="124.128" /> 
<circle cx="43995.9" cy="25492.8" r="124.128" /> 
<circle cx="43995.9" cy="21004.6" r="124.128" /> 
<circle cx="42086.4" cy="18925.8" r="124.128" /> 
<circle cx="35137.6" cy="18925.8" r="124.128" /> 
<circle cx="33054.9" cy="20748.7" r="124.128" /> 
<circle cx="33054.9" cy="25177.8" r="124.128" /> 
<circle cx="38788.8" cy="24783.6" r="124.128" /> 
<circle cx="34891.9" cy="21245.6" r="124.128" /> 
<circle cx="40019.9" cy="22455.7" r="124.128" /> 
<circle cx="41291.1" cy="20043.6" r="124.128" /> 
<circle cx="41805.3" cy="23206.4" r="124.128" /> 
<circle cx="41091.6" cy="20595" r="124.128" /> 
<circle cx="41326" cy="22168.2" r="124.128" /> 
<circle cx="41228.9" cy="21692.8" r="124.128" /> 
<circle cx="41097.7" cy="24751.5" r="124.128" /> 
<circle cx="36712.8" cy="26678.1" r="124.128" /> 
<circle cx="39908.3" cy="27306.8" r="124.128" /> 
<circle cx="40625.3" cy="27310.8" r="124.128" /> 
<circle cx="40321.5" cy="22832" r="124.128" /> 
<circle cx="39635.8" cy="21229.7" r="124.128" /> 
<circle cx="40947.1" cy="20780.7" r="124.128" /> 
<circle cx="42754.8" cy="19719.3" r="124.128" /> 
<circle cx="42608.5" cy="20067.6" r="124.128" /> 
<circle cx="43081.5" cy="20101.2" r="124.128" /> 
<circle cx="43170" cy="20413.5" r="124.128" /> 
<circle cx="42063.6" cy="21015.2" r="124.128" /> 
<circle cx="41619.8" cy="21300.6" r="124.128" /> 
<circle cx="41307" cy="21374.3" r="124.128" /> 
<circle cx="43545.2" cy="20976.3" r="124.128" /> 
<circle cx="43429.6" cy="21278" r="124.128" /> 
<circle cx="43202.1" cy="21606.5" r="124.128" /> 
<circle cx="42884.7" cy="21829.9" r="124.128" /> 
<circle cx="42559.8" cy="22224.8" r="124.128" /> 
<circle cx="42055.8" cy="22226.9" r="124.128" /> 
<circle cx="38238" cy="21877.9" r="124.128" /> 
<circle cx="40290.2" cy="22282.3" r="124.128" /> 
<circle cx="40947.8" cy="22432.2" r="124.128" /> 
<circle cx="40641.3" cy="23363.4" r="124.128" /> 
<circle cx="43333.5" cy="24166.1" r="124.128" /> 
<circle cx="43238.2" cy="24577.9" r="124.128" /> 
<circle cx="43332.6" cy="25306.4" r="124.128" /> 
<circle cx="40304.8" cy="27182.6" r="124.128" /> 
<circle cx="38757.5" cy="26544.6" r="124.128" /> 
<circle cx="40060.4" cy="23270.4" r="124.128" /> 
<circle cx="39720.2" cy="23217.1" r="124.128" /> 
<circle cx="38763.8" cy="25666.8" r="124.128" /> 
<circle cx="38032.1" cy="25116.7" r="124.128" /> 
<circle cx="37999.2" cy="25449.6" r="124.128" /> 
<circle cx="36655.1" cy="25248.2" r="124.128" /> 
<circle cx="36241.6" cy="25303.5" r="124.128" /> 
<circle cx="36614.9" cy="24700.1" r="124.128" /> 
<circle cx="37988.8" cy="22617.9" r="124.128" /> 
<circle cx="34923.4" cy="19607.8" r="124.128" /> 
<circle cx="33699.5" cy="21085.1" r="124.128" /> 
<circle cx="34174" cy="21713.2" r="124.128" /> 
<circle cx="34450.4" cy="21950.9" r="124.128" /> 
<circle cx="34791.9" cy="22048.8" r="124.128" /> 
<circle cx="35050.3" cy="23141.9" r="124.128" /> 
<circle cx="34556.5" cy="22901.6" r="124.128" /> 
<circle cx="35585.5" cy="24010.5" r="124.128" /> 
<circle cx="35128.8" cy="25383.5" r="124.128" /> 
<circle cx="35981.9" cy="26469.9" r="124.128" /> 
<circle cx="35504.5" cy="25905.4" r="124.128" /> 
<circle cx="37720.3" cy="26640.3" r="124.128" /> 
<circle cx="34714.3" cy="23615.6" r="124.128" /> 
<circle cx="33665.2" cy="25315.6" r="124.128" /> 
<circle cx="34781.8" cy="26636.6" r="124.128" /> 
<g >
</g>
<g >
</g>
<g >
</g>
<g >
</g>
<g >
</g>
<g >
</g>
<g >
</g>
<g >
</g>
<g >
</g>
<g >
</g>
<g >
</g>
<g >
</g>
<g >
</g>
<g >
</g>
<g >
</g>
<g >
</g>
<g >
</g>
<g >
</g>
<g >
</g>
<g >
</g>
<g >
</g>
<g >
</g>
<g style="fill:#008400; fill-opacity:0.0; 
stroke:#008400; stroke-width:31.4961; stroke-opacity:1; 
stroke-linecap:round; stroke-linejoin:round;">
</g>
<g style="fill:#008400; fill-opacity:0.0; 
stroke:#008400; stroke-width:0; stroke-opacity:1; 
stroke-linecap:round; stroke-linejoin:round;">
</g>
<g style="fill:#008400; fill-opacity:1.0; 
stroke:#008400; stroke-width:0; stroke-opacity:1; 
stroke-linecap:round; stroke-linejoin:round;">
<path style="fill:#008400; fill-opacity:1.0; 
stroke:#008400; stroke-width:0; stroke-opacity:1; 
stroke-linecap:round; stroke-linejoin:round;fill-rule:evenodd;"
d="M 38809,19485
38818,19487
38827,19489
38835,19492
38843,19496
38851,19500
38859,19506
38866,19512
38872,19519
38877,19526
38882,19534
38886,19542
38889,19551
38891,19560
38892,19569
38893,19578
38893,19765
38892,19774
38891,19783
38889,19792
38886,19801
38882,19809
38877,19817
38872,19825
38866,19831
38859,19838
38851,19843
38843,19848
38835,19852
38827,19855
38818,19857
38809,19858
38799,19859
38573,19859
38564,19858
38555,19857
38546,19855
38537,19852
38529,19848
38521,19843
38514,19838
38507,19831
38501,19825
38495,19817
38491,19809
38487,19801
38484,19792
38481,19783
38480,19774
38480,19765
38480,19578
38480,19569
38481,19560
38484,19551
38487,19542
38491,19534
38495,19526
38501,19519
38507,19512
38514,19506
38521,19500
38529,19496
38537,19492
38546,19489
38555,19487
38564,19485
38573,19485
38799,19485
38809,19485
Z" /> 
<path style="fill:#008400; fill-opacity:1.0; 
stroke:#008400; stroke-width:0; stroke-opacity:1; 
stroke-linecap:round; stroke-linejoin:round;fill-rule:evenodd;"
d="M 38120,19485
38129,19487
38138,19489
38146,19492
38155,19496
38162,19500
38170,19506
38177,19512
38183,19519
38188,19526
38193,19534
38197,19542
38200,19551
38202,19560
38203,19569
38204,19578
38204,19765
38203,19774
38202,19783
38200,19792
38197,19801
38193,19809
38188,19817
38183,19825
38177,19831
38170,19838
38162,19843
38155,19848
38146,19852
38138,19855
38129,19857
38120,19858
38110,19859
37884,19859
37875,19858
37866,19857
37857,19855
37848,19852
37840,19848
37832,19843
37825,19838
37818,19831
37812,19825
37806,19817
37802,19809
37798,19801
37795,19792
37792,19783
37791,19774
37791,19765
37791,19578
37791,19569
37792,19560
37795,19551
37798,19542
37802,19534
37806,19526
37812,19519
37818,19512
37825,19506
37832,19500
37840,19496
37848,19492
37857,19489
37866,19487
37875,19485
37884,19485
38110,19485
38120,19485
Z" /> 
</g>
<g >
</g>
<g >
<path style="fill:#008400; fill-opacity:1.0; 
stroke:#008400; stroke-width:0; stroke-opacity:1; 
stroke-linecap:round; stroke-linejoin:round;fill-rule:evenodd;"
d="M 38501,23068
38511,23069
38519,23071
38528,23075
38536,23078
38544,23083
38552,23089
38558,23095
38565,23102
38570,23109
38575,23117
38579,23125
38582,23134
38584,23143
38585,23152
38586,23161
38586,23348
38585,23357
38584,23366
38582,23375
38579,23384
38575,23392
38570,23400
38565,23407
38558,23414
38552,23420
38544,23426
38536,23430
38528,23434
38519,23437
38511,23440
38501,23441
38492,23441
38266,23441
38257,23441
38248,23440
38239,23437
38230,23434
38222,23430
38214,23426
38207,23420
38200,23414
38194,23407
38188,23400
38183,23392
38180,23384
38176,23375
38174,23366
38173,23357
38172,23348
38172,23161
38173,23152
38174,23143
38176,23134
38180,23125
38183,23117
38188,23109
38194,23102
38200,23095
38207,23089
38214,23083
38222,23078
38230,23075
38239,23071
38248,23069
38257,23068
38266,23067
38492,23067
38501,23068
Z" /> 
<path style="fill:#008400; fill-opacity:1.0; 
stroke:#008400; stroke-width:0; stroke-opacity:1; 
stroke-linecap:round; stroke-linejoin:round;fill-rule:evenodd;"
d="M 37813,23068
37822,23069
37830,23071
37839,23075
37847,23078
37855,23083
37863,23089
37869,23095
37876,23102
37881,23109
37886,23117
37890,23125
37893,23134
37895,23143
37896,23152
37897,23161
37897,23348
37896,23357
37895,23366
37893,23375
37890,23384
37886,23392
37881,23400
37876,23407
37869,23414
37863,23420
37855,23426
37847,23430
37839,23434
37830,23437
37822,23440
37813,23441
37803,23441
37577,23441
37568,23441
37559,23440
37550,23437
37541,23434
37533,23430
37525,23426
37518,23420
37511,23414
37505,23407
37499,23400
37495,23392
37491,23384
37487,23375
37485,23366
37484,23357
37483,23348
37483,23161
37484,23152
37485,23143
37487,23134
37491,23125
37495,23117
37499,23109
37505,23102
37511,23095
37518,23089
37525,23083
37533,23078
37541,23075
37550,23071
37559,23069
37568,23068
37577,23067
37803,23067
37813,23068
Z" /> 
</g>
<g >
</g>
<g >
</g>
<g >
</g>
<g >
</g>
<g >
</g>
<g >
</g>
<g >
</g>
<g >
</g>
<g >
</g>
<g >
</g>
<g >
</g>
<g >
</g>
<g >
</g>
<g >
</g>
<g >
</g>
<g >
</g>
<g >
</g>
<g >
<path style="fill:#008400; fill-opacity:1.0; 
stroke:#008400; stroke-width:0; stroke-opacity:1; 
stroke-linecap:round; stroke-linejoin:round;fill-rule:evenodd;"
d="M 26803,11091
26812,11093
26820,11095
26828,11098
26836,11101
26843,11106
26850,11111
26856,11116
26862,11123
26867,11129
26871,11137
26875,11144
26877,11152
26879,11160
26881,11169
26881,11177
26881,11379
26881,11387
26879,11396
26877,11404
26875,11412
26871,11420
26867,11427
26862,11434
26856,11440
26850,11446
26843,11451
26836,11455
26828,11458
26820,11461
26812,11463
26803,11465
26795,11465
26623,11465
26614,11465
26606,11463
26598,11461
26590,11458
26582,11455
26575,11451
26568,11446
26562,11440
26556,11434
26551,11427
26547,11420
26543,11412
26540,11404
26538,11396
26537,11387
26537,11379
26537,11177
26537,11169
26538,11160
26540,11152
26543,11144
26547,11137
26551,11129
26556,11123
26562,11116
26568,11111
26575,11106
26582,11101
26590,11098
26598,11095
26606,11093
26614,11091
26623,11091
26795,11091
26803,11091
Z" /> 
<path style="fill:#008400; fill-opacity:1.0; 
stroke:#008400; stroke-width:0; stroke-opacity:1; 
stroke-linecap:round; stroke-linejoin:round;fill-rule:evenodd;"
d="M 27424,11091
27432,11093
27440,11095
27448,11098
27456,11101
27463,11106
27470,11111
27476,11116
27482,11123
27487,11129
27491,11137
27495,11144
27497,11152
27500,11160
27501,11169
27501,11177
27501,11379
27501,11387
27500,11396
27497,11404
27495,11412
27491,11420
27487,11427
27482,11434
27476,11440
27470,11446
27463,11451
27456,11455
27448,11458
27440,11461
27432,11463
27424,11465
27415,11465
27243,11465
27234,11465
27226,11463
27218,11461
27210,11458
27202,11455
27195,11451
27188,11446
27182,11440
27176,11434
27171,11427
27167,11420
27163,11412
27160,11404
27158,11396
27157,11387
27157,11379
27157,11177
27157,11169
27158,11160
27160,11152
27163,11144
27167,11137
27171,11129
27176,11123
27182,11116
27188,11111
27195,11106
27202,11101
27210,11098
27218,11095
27226,11093
27234,11091
27243,11091
27415,11091
27424,11091
Z" /> 
</g>
<g >
</g>
<g >
</g>
<g >
<path style="fill:#008400; fill-opacity:1.0; 
stroke:#008400; stroke-width:0; stroke-opacity:1; 
stroke-linecap:round; stroke-linejoin:round;fill-rule:evenodd;"
d="M 28778,10765
28786,10766
28794,10768
28802,10771
28810,10774
28817,10779
28824,10784
28830,10789
28836,10796
28841,10803
28845,10810
28849,10817
28852,10825
28854,10834
28855,10842
28856,10850
28856,11052
28855,11061
28854,11069
28852,11077
28849,11085
28845,11093
28841,11100
28836,11107
28830,11113
28824,11119
28817,11124
28810,11128
28802,11132
28794,11135
28786,11137
28778,11138
28769,11138
28597,11138
28589,11138
28580,11137
28572,11135
28564,11132
28557,11128
28549,11124
28543,11119
28536,11113
28531,11107
28526,11100
28521,11093
28518,11085
28515,11077
28513,11069
28511,11061
28511,11052
28511,10850
28511,10842
28513,10834
28515,10825
28518,10817
28521,10810
28526,10803
28531,10796
28536,10789
28543,10784
28549,10779
28557,10774
28564,10771
28572,10768
28580,10766
28589,10765
28597,10764
28769,10764
28778,10765
Z" /> 
<path style="fill:#008400; fill-opacity:1.0; 
stroke:#008400; stroke-width:0; stroke-opacity:1; 
stroke-linecap:round; stroke-linejoin:round;fill-rule:evenodd;"
d="M 28158,10765
28166,10766
28174,10768
28182,10771
28190,10774
28197,10779
28204,10784
28210,10789
28216,10796
28221,10803
28225,10810
28229,10817
28232,10825
28234,10834
28235,10842
28235,10850
28235,11052
28235,11061
28234,11069
28232,11077
28229,11085
28225,11093
28221,11100
28216,11107
28210,11113
28204,11119
28197,11124
28190,11128
28182,11132
28174,11135
28166,11137
28158,11138
28149,11138
27977,11138
27969,11138
27960,11137
27952,11135
27944,11132
27936,11128
27929,11124
27922,11119
27916,11113
27910,11107
27905,11100
27901,11093
27898,11085
27895,11077
27893,11069
27891,11061
27891,11052
27891,10850
27891,10842
27893,10834
27895,10825
27898,10817
27901,10810
27905,10803
27910,10796
27916,10789
27922,10784
27929,10779
27936,10774
27944,10771
27952,10768
27960,10766
27969,10765
27977,10764
28149,10764
28158,10765
Z" /> 
</g>
<g >
<path style="fill:#008400; fill-opacity:1.0; 
stroke:#008400; stroke-width:0; stroke-opacity:1; 
stroke-linecap:round; stroke-linejoin:round;fill-rule:evenodd;"
d="M 26492,13611
26501,13612
26509,13614
26517,13617
26525,13621
26532,13625
26539,13630
26545,13636
26551,13642
26556,13649
26560,13656
26564,13664
26566,13672
26568,13680
26570,13688
26570,13697
26570,13899
26570,13907
26568,13915
26566,13924
26564,13932
26560,13939
26556,13946
26551,13953
26545,13960
26539,13965
26532,13970
26525,13975
26517,13978
26509,13981
26501,13983
26492,13984
26484,13985
26312,13985
26303,13984
26295,13983
26287,13981
26279,13978
26271,13975
26264,13970
26257,13965
26251,13960
26245,13953
26240,13946
26236,13939
26232,13932
26229,13924
26227,13915
26226,13907
26226,13899
26226,13697
26226,13688
26227,13680
26229,13672
26232,13664
26236,13656
26240,13649
26245,13642
26251,13636
26257,13630
26264,13625
26271,13621
26279,13617
26287,13614
26295,13612
26303,13611
26312,13611
26484,13611
26492,13611
Z" /> 
<path style="fill:#008400; fill-opacity:1.0; 
stroke:#008400; stroke-width:0; stroke-opacity:1; 
stroke-linecap:round; stroke-linejoin:round;fill-rule:evenodd;"
d="M 27112,13611
27121,13612
27129,13614
27137,13617
27145,13621
27152,13625
27159,13630
27165,13636
27171,13642
27176,13649
27180,13656
27184,13664
27186,13672
27189,13680
27190,13688
27190,13697
27190,13899
27190,13907
27189,13915
27186,13924
27184,13932
27180,13939
27176,13946
27171,13953
27165,13960
27159,13965
27152,13970
27145,13975
27137,13978
27129,13981
27121,13983
27112,13984
27104,13985
26932,13985
26923,13984
26915,13983
26907,13981
26899,13978
26891,13975
26884,13970
26877,13965
26871,13960
26865,13953
26860,13946
26856,13939
26852,13932
26849,13924
26847,13915
26846,13907
26846,13899
26846,13697
26846,13688
26847,13680
26849,13672
26852,13664
26856,13656
26860,13649
26865,13642
26871,13636
26877,13630
26884,13625
26891,13621
26899,13617
26907,13614
26915,13612
26923,13611
26932,13611
27104,13611
27112,13611
Z" /> 
</g>
<g >
</g>
<g >
<path style="fill:#008400; fill-opacity:1.0; 
stroke:#008400; stroke-width:0; stroke-opacity:1; 
stroke-linecap:round; stroke-linejoin:round;fill-rule:evenodd;"
d="M 44666,20084
44674,20085
44682,20087
44690,20090
44698,20093
44705,20098
44712,20103
44718,20108
44724,20115
44729,20121
44733,20129
44737,20136
44740,20144
44742,20152
44743,20161
44743,20169
44743,20371
44743,20379
44742,20388
44740,20396
44737,20404
44733,20412
44729,20419
44724,20426
44718,20432
44712,20438
44705,20443
44698,20447
44690,20451
44682,20453
44674,20456
44666,20457
44657,20457
44485,20457
44477,20457
44468,20456
44460,20453
44452,20451
44444,20447
44437,20443
44430,20438
44424,20432
44418,20426
44413,20419
44409,20412
44405,20404
44403,20396
44400,20388
44399,20379
44399,20371
44399,20169
44399,20161
44400,20152
44403,20144
44405,20136
44409,20129
44413,20121
44418,20115
44424,20108
44430,20103
44437,20098
44444,20093
44452,20090
44460,20087
44468,20085
44477,20084
44485,20083
44657,20083
44666,20084
Z" /> 
<path style="fill:#008400; fill-opacity:1.0; 
stroke:#008400; stroke-width:0; stroke-opacity:1; 
stroke-linecap:round; stroke-linejoin:round;fill-rule:evenodd;"
d="M 45286,20084
45294,20085
45302,20087
45310,20090
45318,20093
45325,20098
45332,20103
45338,20108
45344,20115
45349,20121
45353,20129
45357,20136
45360,20144
45362,20152
45363,20161
45363,20169
45363,20371
45363,20379
45362,20388
45360,20396
45357,20404
45353,20412
45349,20419
45344,20426
45338,20432
45332,20438
45325,20443
45318,20447
45310,20451
45302,20453
45294,20456
45286,20457
45277,20457
45105,20457
45097,20457
45088,20456
45080,20453
45072,20451
45064,20447
45057,20443
45050,20438
45044,20432
45038,20426
45033,20419
45029,20412
45025,20404
45023,20396
45021,20388
45019,20379
45019,20371
45019,20169
45019,20161
45021,20152
45023,20144
45025,20136
45029,20129
45033,20121
45038,20115
45044,20108
45050,20103
45057,20098
45064,20093
45072,20090
45080,20087
45088,20085
45097,20084
45105,20083
45277,20083
45286,20084
Z" /> 
</g>
<g >
<path style="fill:#008400; fill-opacity:1.0; 
stroke:#008400; stroke-width:0; stroke-opacity:1; 
stroke-linecap:round; stroke-linejoin:round;fill-rule:evenodd;"
d="M 42891,27513
42899,27514
42908,27516
42916,27519
42923,27522
42930,27527
42937,27532
42943,27538
42949,27544
42954,27551
42959,27558
42962,27565
42965,27573
42967,27582
42968,27590
42969,27598
42969,27800
42968,27809
42967,27817
42965,27825
42962,27833
42959,27841
42954,27848
42949,27855
42943,27861
42937,27867
42930,27872
42923,27876
42916,27880
42908,27883
42899,27885
42891,27886
42883,27886
42710,27886
42702,27886
42694,27885
42685,27883
42677,27880
42670,27876
42662,27872
42656,27867
42649,27861
42644,27855
42639,27848
42634,27841
42631,27833
42628,27825
42626,27817
42625,27809
42624,27800
42624,27598
42625,27590
42626,27582
42628,27573
42631,27565
42634,27558
42639,27551
42644,27544
42649,27538
42656,27532
42662,27527
42670,27522
42677,27519
42685,27516
42694,27514
42702,27513
42710,27512
42883,27512
42891,27513
Z" /> 
<path style="fill:#008400; fill-opacity:1.0; 
stroke:#008400; stroke-width:0; stroke-opacity:1; 
stroke-linecap:round; stroke-linejoin:round;fill-rule:evenodd;"
d="M 43511,27513
43519,27514
43528,27516
43536,27519
43543,27522
43551,27527
43557,27532
43564,27538
43569,27544
43574,27551
43579,27558
43582,27565
43585,27573
43587,27582
43588,27590
43589,27598
43589,27800
43588,27809
43587,27817
43585,27825
43582,27833
43579,27841
43574,27848
43569,27855
43564,27861
43557,27867
43551,27872
43543,27876
43536,27880
43528,27883
43519,27885
43511,27886
43503,27886
43330,27886
43322,27886
43314,27885
43305,27883
43297,27880
43290,27876
43283,27872
43276,27867
43270,27861
43264,27855
43259,27848
43254,27841
43251,27833
43248,27825
43246,27817
43245,27809
43244,27800
43244,27598
43245,27590
43246,27582
43248,27573
43251,27565
43254,27558
43259,27551
43264,27544
43270,27538
43276,27532
43283,27527
43290,27522
43297,27519
43305,27516
43314,27514
43322,27513
43330,27512
43503,27512
43511,27513
Z" /> 
</g>
<g >
</g>
<g >
</g>
<g >
</g>
<g >
</g>
<g >
</g>
<g >
</g>
<g >
</g>
<g >
</g>
<g >
</g>
<g >
</g>
<g >
</g>
<g >
</g>
<g >
</g>
<g >
</g>
<g >
</g>
<g >
</g>
<g >
</g>
<g >
</g>
<g >
</g>
<g >
</g>
<g >
</g>
<g >
</g>
<g >
</g>
<g >
</g>
<g >
<path style="fill:#008400; fill-opacity:1.0; 
stroke:#008400; stroke-width:0; stroke-opacity:1; 
stroke-linecap:round; stroke-linejoin:round;fill-rule:evenodd;"
d="M 46558,18526
46558,18644
46007,18644
46007,18526
46558,18526
Z" /> 
<path style="fill:#008400; fill-opacity:1.0; 
stroke:#008400; stroke-width:0; stroke-opacity:1; 
stroke-linecap:round; stroke-linejoin:round;fill-rule:evenodd;"
d="M 46558,18723
46558,18841
46007,18841
46007,18723
46558,18723
Z" /> 
<path style="fill:#008400; fill-opacity:1.0; 
stroke:#008400; stroke-width:0; stroke-opacity:1; 
stroke-linecap:round; stroke-linejoin:round;fill-rule:evenodd;"
d="M 46558,18920
46558,19038
46007,19038
46007,18920
46558,18920
Z" /> 
<path style="fill:#008400; fill-opacity:1.0; 
stroke:#008400; stroke-width:0; stroke-opacity:1; 
stroke-linecap:round; stroke-linejoin:round;fill-rule:evenodd;"
d="M 46558,19117
46558,19235
46007,19235
46007,19117
46558,19117
Z" /> 
<path style="fill:#008400; fill-opacity:1.0; 
stroke:#008400; stroke-width:0; stroke-opacity:1; 
stroke-linecap:round; stroke-linejoin:round;fill-rule:evenodd;"
d="M 46558,19313
46558,19432
46007,19432
46007,19313
46558,19313
Z" /> 
<path style="fill:#008400; fill-opacity:1.0; 
stroke:#008400; stroke-width:0; stroke-opacity:1; 
stroke-linecap:round; stroke-linejoin:round;fill-rule:evenodd;"
d="M 44826,19313
44826,19432
44275,19432
44275,19313
44826,19313
Z" /> 
<path style="fill:#008400; fill-opacity:1.0; 
stroke:#008400; stroke-width:0; stroke-opacity:1; 
stroke-linecap:round; stroke-linejoin:round;fill-rule:evenodd;"
d="M 44826,19117
44826,19235
44275,19235
44275,19117
44826,19117
Z" /> 
<path style="fill:#008400; fill-opacity:1.0; 
stroke:#008400; stroke-width:0; stroke-opacity:1; 
stroke-linecap:round; stroke-linejoin:round;fill-rule:evenodd;"
d="M 44826,18920
44826,19038
44275,19038
44275,18920
44826,18920
Z" /> 
<path style="fill:#008400; fill-opacity:1.0; 
stroke:#008400; stroke-width:0; stroke-opacity:1; 
stroke-linecap:round; stroke-linejoin:round;fill-rule:evenodd;"
d="M 44826,18723
44826,18841
44275,18841
44275,18723
44826,18723
Z" /> 
<path style="fill:#008400; fill-opacity:1.0; 
stroke:#008400; stroke-width:0; stroke-opacity:1; 
stroke-linecap:round; stroke-linejoin:round;fill-rule:evenodd;"
d="M 44826,18526
44826,18644
44275,18644
44275,18526
44826,18526
Z" /> 
</g>
<g >
</g>
<g >
</g>
<g >
</g>
<g >
</g>
<g >
</g>
<g >
</g>
<g >
</g>
<g >
</g>
<g >
</g>
</g>
<g style="fill:#000000; fill-opacity:1.0; 
stroke:#000000; stroke-width:0; stroke-opacity:1; 
stroke-linecap:round; stroke-linejoin:round;">
</g>
<g style="fill:#C2C200; fill-opacity:1.0; 
stroke:#C2C200; stroke-width:0; stroke-opacity:1; 
stroke-linecap:round; stroke-linejoin:round;">
</g>
<g style="fill:#C2C200; fill-opacity:1.0; 
stroke:#C2C200; stroke-width:59.0551; stroke-opacity:1; 
stroke-linecap:round; stroke-linejoin:round;">
</g>
<g style="fill:#C2C200; fill-opacity:0.0; 
stroke:#C2C200; stroke-width:59.0551; stroke-opacity:1; 
stroke-linecap:round; stroke-linejoin:round;">
<path d="M24070 30042
L50070 30042
" />
<path d="M51070 15142
L50070 14142
" />
<path d="M51070 28042
L51070 15142
" />
<path d="M50070 9642
L49470 9042
" />
<path d="M50070 29042
L51070 28042
" />
<path d="M50070 30042
L50070 29042
" />
<path d="M50070 14142
L50070 9642
" />
<path d="M24070 9042
L24070 30042
" />
<path d="M49470 9042
L24070 9042
" />
<g >
</g>
<g >
</g>
<g >
</g>
<g >
</g>
<g >
</g>
<g >
</g>
<g >
</g>
<g >
</g>
<g >
</g>
<g >
</g>
<g >
</g>
<g >
</g>
<g >
</g>
<g >
</g>
<g >
</g>
<g >
</g>
<g >
</g>
<g >
</g>
<g >
</g>
<g >
</g>
<g >
</g>
<g >
</g>
<g >
</g>
<g >
</g>
<g >
</g>
<g >
</g>
<g >
</g>
<g >
</g>
<g >
</g>
<g >
</g>
<g >
</g>
<g >
</g>
<g >
</g>
<g >
</g>
<g >
</g>
<g >
</g>
<g >
</g>
<g >
</g>
<g >
</g>
<g >
</g>
<g >
</g>
<g >
</g>
<g >
</g>
<g >
</g>
<g >
</g>
<g >
</g>
<g >
</g>
<g >
</g>
<g >
</g>
<g >
</g>
<g >
</g>
<g >
</g>
<g >
</g>
<g >
</g>
<g >
</g>
<g >
</g>
<g >
</g>
<g >
</g>
<g >
</g>
<g >
</g>
<g >
</g>
<g >
</g>
<g >
</g>
<g >
</g>
<g >
</g>
<g >
</g>
<g >
</g>
<g >
</g>
<g >
</g>
<g >
</g>
<g >
</g>
<g >
</g>
<g >
</g>
<g >
</g>
<g >
</g>
<g >
</g>
<g >
</g>
<g >
</g>
<g >
</g>
<g >
</g>
<g >
</g>
</g> 
</svg>
