<?xml version="1.0" standalone="no"?>
 <!DOCTYPE svg PUBLIC "-//W3C//DTD SVG 1.1//EN" 
 "http://www.w3.org/Graphics/SVG/1.1/DTD/svg11.dtd"> 
<svg xmlns="http://www.w3.org/2000/svg" version="1.1" 
    width="13.8303cm" height="6.10362cm" viewBox="0 0 54450 24030 ">
<title>SVG Picture created as uno shield v.6 project SMD-F_Paste.svg date 2019/07/29 23:19:02 </title>
  <desc>Picture generated by PCBNEW </desc>
<g style="fill:#000000; fill-opacity:1;stroke:#000000; stroke-opacity:1;
stroke-linecap:round; stroke-linejoin:round; "
 transform="translate(0 0) scale(1 1)">
</g>
<g style="fill:#000000; fill-opacity:0.0; 
stroke:#000000; stroke-width:-0.000393701; stroke-opacity:1; 
stroke-linecap:round; stroke-linejoin:round;">
</g>
<g style="fill:#26FF16; fill-opacity:0.0; 
stroke:#26FF16; stroke-width:-0.000393701; stroke-opacity:1; 
stroke-linecap:round; stroke-linejoin:round;">
</g>
<g style="fill:#26FF16; fill-opacity:0.0; 
stroke:#26FF16; stroke-width:0.393701; stroke-opacity:1; 
stroke-linecap:round; stroke-linejoin:round;">
<path d="M40645 15181
L40540 15181
" />
<path d="M40540 15181
L40540 15094
" />
<path d="M40645 15094
L40645 15181
" />
<path d="M40540 15094
L40645 15094
" />
</g>
<g style="fill:#26FF16; fill-opacity:1.0; 
stroke:#26FF16; stroke-width:0.393701; stroke-opacity:1; 
stroke-linecap:round; stroke-linejoin:round;">
<path style="fill:#26FF16; fill-opacity:1.0; 
stroke:#26FF16; stroke-width:0.393701; stroke-opacity:1; 
stroke-linecap:round; stroke-linejoin:round;fill-rule:evenodd;"
d="M 38877,17230
38877,16734
38649,16734
38649,17230
Z" /> 
<g >
</g>
<g >
</g>
<g >
</g>
<g >
</g>
<g >
</g>
<g >
</g>
<g >
</g>
<g >
</g>
<g style="fill:#FF080E; fill-opacity:1.0; 
stroke:#FF080E; stroke-width:0.393701; stroke-opacity:1; 
stroke-linecap:round; stroke-linejoin:round;">
</g>
<g style="fill:#FF080E; fill-opacity:1.0; 
stroke:#FF080E; stroke-width:0; stroke-opacity:1; 
stroke-linecap:round; stroke-linejoin:round;">
<path style="fill:#FF080E; fill-opacity:1.0; 
stroke:#FF080E; stroke-width:0; stroke-opacity:1; 
stroke-linecap:round; stroke-linejoin:round;fill-rule:evenodd;"
d="M 37377,12885
37377,12767
37928,12767
37928,12885
37377,12885
Z" /> 
<path style="fill:#FF080E; fill-opacity:1.0; 
stroke:#FF080E; stroke-width:0; stroke-opacity:1; 
stroke-linecap:round; stroke-linejoin:round;fill-rule:evenodd;"
d="M 37377,13082
37377,12964
37928,12964
37928,13082
37377,13082
Z" /> 
<path style="fill:#FF080E; fill-opacity:1.0; 
stroke:#FF080E; stroke-width:0; stroke-opacity:1; 
stroke-linecap:round; stroke-linejoin:round;fill-rule:evenodd;"
d="M 37377,13279
37377,13161
37928,13161
37928,13279
37377,13279
Z" /> 
<path style="fill:#FF080E; fill-opacity:1.0; 
stroke:#FF080E; stroke-width:0; stroke-opacity:1; 
stroke-linecap:round; stroke-linejoin:round;fill-rule:evenodd;"
d="M 37377,13476
37377,13358
37928,13358
37928,13476
37377,13476
Z" /> 
<path style="fill:#FF080E; fill-opacity:1.0; 
stroke:#FF080E; stroke-width:0; stroke-opacity:1; 
stroke-linecap:round; stroke-linejoin:round;fill-rule:evenodd;"
d="M 37377,13673
37377,13555
37928,13555
37928,13673
37377,13673
Z" /> 
<path style="fill:#FF080E; fill-opacity:1.0; 
stroke:#FF080E; stroke-width:0; stroke-opacity:1; 
stroke-linecap:round; stroke-linejoin:round;fill-rule:evenodd;"
d="M 39109,13673
39109,13555
39661,13555
39661,13673
39109,13673
Z" /> 
<path style="fill:#FF080E; fill-opacity:1.0; 
stroke:#FF080E; stroke-width:0; stroke-opacity:1; 
stroke-linecap:round; stroke-linejoin:round;fill-rule:evenodd;"
d="M 39109,13476
39109,13358
39661,13358
39661,13476
39109,13476
Z" /> 
<path style="fill:#FF080E; fill-opacity:1.0; 
stroke:#FF080E; stroke-width:0; stroke-opacity:1; 
stroke-linecap:round; stroke-linejoin:round;fill-rule:evenodd;"
d="M 39109,13279
39109,13161
39661,13161
39661,13279
39109,13279
Z" /> 
<path style="fill:#FF080E; fill-opacity:1.0; 
stroke:#FF080E; stroke-width:0; stroke-opacity:1; 
stroke-linecap:round; stroke-linejoin:round;fill-rule:evenodd;"
d="M 39109,13082
39109,12964
39661,12964
39661,13082
39109,13082
Z" /> 
<path style="fill:#FF080E; fill-opacity:1.0; 
stroke:#FF080E; stroke-width:0; stroke-opacity:1; 
stroke-linecap:round; stroke-linejoin:round;fill-rule:evenodd;"
d="M 39109,12885
39109,12767
39661,12767
39661,12885
39109,12885
Z" /> 
</g>
<g >
</g>
<g >
<path style="fill:#FF080E; fill-opacity:1.0; 
stroke:#FF080E; stroke-width:0; stroke-opacity:1; 
stroke-linecap:round; stroke-linejoin:round;fill-rule:evenodd;"
d="M 38538,17222
38538,17340
38198,17340
38198,17222
38538,17222
Z" /> 
<path style="fill:#FF080E; fill-opacity:1.0; 
stroke:#FF080E; stroke-width:0; stroke-opacity:1; 
stroke-linecap:round; stroke-linejoin:round;fill-rule:evenodd;"
d="M 38524,17025
38524,17143
38184,17143
38184,17025
38524,17025
Z" /> 
<path style="fill:#FF080E; fill-opacity:1.0; 
stroke:#FF080E; stroke-width:0; stroke-opacity:1; 
stroke-linecap:round; stroke-linejoin:round;fill-rule:evenodd;"
d="M 38524,16828
38524,16946
38184,16946
38184,16828
38524,16828
Z" /> 
<path style="fill:#FF080E; fill-opacity:1.0; 
stroke:#FF080E; stroke-width:0; stroke-opacity:1; 
stroke-linecap:round; stroke-linejoin:round;fill-rule:evenodd;"
d="M 38538,16631
38538,16750
38198,16750
38198,16631
38538,16631
Z" /> 
<path style="fill:#FF080E; fill-opacity:1.0; 
stroke:#FF080E; stroke-width:0; stroke-opacity:1; 
stroke-linecap:round; stroke-linejoin:round;fill-rule:evenodd;"
d="M 39328,16631
39328,16750
38988,16750
38988,16631
39328,16631
Z" /> 
<path style="fill:#FF080E; fill-opacity:1.0; 
stroke:#FF080E; stroke-width:0; stroke-opacity:1; 
stroke-linecap:round; stroke-linejoin:round;fill-rule:evenodd;"
d="M 39342,16828
39342,16946
39002,16946
39002,16828
39342,16828
Z" /> 
<path style="fill:#FF080E; fill-opacity:1.0; 
stroke:#FF080E; stroke-width:0; stroke-opacity:1; 
stroke-linecap:round; stroke-linejoin:round;fill-rule:evenodd;"
d="M 39342,17025
39342,17143
39002,17143
39002,17025
39342,17025
Z" /> 
<path style="fill:#FF080E; fill-opacity:1.0; 
stroke:#FF080E; stroke-width:0; stroke-opacity:1; 
stroke-linecap:round; stroke-linejoin:round;fill-rule:evenodd;"
d="M 39328,17222
39328,17340
38988,17340
38988,17222
39328,17222
Z" /> 
</g>
<g >
<path style="fill:#FF080E; fill-opacity:1.0; 
stroke:#FF080E; stroke-width:0; stroke-opacity:1; 
stroke-linecap:round; stroke-linejoin:round;fill-rule:evenodd;"
d="M 44826,10578
44826,10696
44275,10696
44275,10578
44826,10578
Z" /> 
<path style="fill:#FF080E; fill-opacity:1.0; 
stroke:#FF080E; stroke-width:0; stroke-opacity:1; 
stroke-linecap:round; stroke-linejoin:round;fill-rule:evenodd;"
d="M 44826,10381
44826,10500
44275,10500
44275,10381
44826,10381
Z" /> 
<path style="fill:#FF080E; fill-opacity:1.0; 
stroke:#FF080E; stroke-width:0; stroke-opacity:1; 
stroke-linecap:round; stroke-linejoin:round;fill-rule:evenodd;"
d="M 44826,10185
44826,10303
44275,10303
44275,10185
44826,10185
Z" /> 
<path style="fill:#FF080E; fill-opacity:1.0; 
stroke:#FF080E; stroke-width:0; stroke-opacity:1; 
stroke-linecap:round; stroke-linejoin:round;fill-rule:evenodd;"
d="M 44826,9988
44826,10106
44275,10106
44275,9988
44826,9988
Z" /> 
<path style="fill:#FF080E; fill-opacity:1.0; 
stroke:#FF080E; stroke-width:0; stroke-opacity:1; 
stroke-linecap:round; stroke-linejoin:round;fill-rule:evenodd;"
d="M 44826,9791
44826,9909
44275,9909
44275,9791
44826,9791
Z" /> 
<path style="fill:#FF080E; fill-opacity:1.0; 
stroke:#FF080E; stroke-width:0; stroke-opacity:1; 
stroke-linecap:round; stroke-linejoin:round;fill-rule:evenodd;"
d="M 46558,9791
46558,9909
46007,9909
46007,9791
46558,9791
Z" /> 
<path style="fill:#FF080E; fill-opacity:1.0; 
stroke:#FF080E; stroke-width:0; stroke-opacity:1; 
stroke-linecap:round; stroke-linejoin:round;fill-rule:evenodd;"
d="M 46558,9988
46558,10106
46007,10106
46007,9988
46558,9988
Z" /> 
<path style="fill:#FF080E; fill-opacity:1.0; 
stroke:#FF080E; stroke-width:0; stroke-opacity:1; 
stroke-linecap:round; stroke-linejoin:round;fill-rule:evenodd;"
d="M 46558,10185
46558,10303
46007,10303
46007,10185
46558,10185
Z" /> 
<path style="fill:#FF080E; fill-opacity:1.0; 
stroke:#FF080E; stroke-width:0; stroke-opacity:1; 
stroke-linecap:round; stroke-linejoin:round;fill-rule:evenodd;"
d="M 46558,10381
46558,10500
46007,10500
46007,10381
46558,10381
Z" /> 
<path style="fill:#FF080E; fill-opacity:1.0; 
stroke:#FF080E; stroke-width:0; stroke-opacity:1; 
stroke-linecap:round; stroke-linejoin:round;fill-rule:evenodd;"
d="M 46558,10578
46558,10696
46007,10696
46007,10578
46558,10578
Z" /> 
</g>
<g >
</g>
<g >
</g>
<g >
</g>
<g >
</g>
<g >
<path style="fill:#FF080E; fill-opacity:1.0; 
stroke:#FF080E; stroke-width:0; stroke-opacity:1; 
stroke-linecap:round; stroke-linejoin:round;fill-rule:evenodd;"
d="M 41791,8154
41800,8155
41809,8157
41817,8160
41826,8164
41834,8169
41841,8174
41848,8181
41854,8187
41859,8195
41864,8203
41868,8211
41871,8219
41873,8228
41875,8237
41875,8247
41875,8473
41875,8482
41873,8491
41871,8500
41868,8509
41864,8517
41859,8525
41854,8532
41848,8539
41841,8545
41834,8551
41826,8555
41817,8559
41809,8562
41800,8565
41791,8566
41782,8567
41595,8567
41586,8566
41576,8565
41568,8562
41559,8559
41551,8555
41543,8551
41535,8545
41529,8539
41522,8532
41517,8525
41512,8517
41508,8509
41505,8500
41503,8491
41502,8482
41501,8473
41501,8247
41502,8237
41503,8228
41505,8219
41508,8211
41512,8203
41517,8195
41522,8187
41529,8181
41535,8174
41543,8169
41551,8164
41559,8160
41568,8157
41576,8155
41586,8154
41595,8153
41782,8153
41791,8154
Z" /> 
<path style="fill:#FF080E; fill-opacity:1.0; 
stroke:#FF080E; stroke-width:0; stroke-opacity:1; 
stroke-linecap:round; stroke-linejoin:round;fill-rule:evenodd;"
d="M 41791,8843
41800,8844
41809,8846
41817,8849
41826,8853
41834,8858
41841,8863
41848,8870
41854,8876
41859,8884
41864,8892
41868,8900
41871,8908
41873,8917
41875,8926
41875,8936
41875,9162
41875,9171
41873,9180
41871,9189
41868,9198
41864,9206
41859,9214
41854,9221
41848,9228
41841,9234
41834,9240
41826,9244
41817,9248
41809,9251
41800,9254
41791,9255
41782,9255
41595,9255
41586,9255
41576,9254
41568,9251
41559,9248
41551,9244
41543,9240
41535,9234
41529,9228
41522,9221
41517,9214
41512,9206
41508,9198
41505,9189
41503,9180
41502,9171
41501,9162
41501,8936
41502,8926
41503,8917
41505,8908
41508,8900
41512,8892
41517,8884
41522,8876
41529,8870
41535,8863
41543,8858
41551,8853
41559,8849
41568,8846
41576,8844
41586,8843
41595,8842
41782,8842
41791,8843
Z" /> 
</g>
<g >
</g>
<g >
<path style="fill:#FF080E; fill-opacity:1.0; 
stroke:#FF080E; stroke-width:0; stroke-opacity:1; 
stroke-linecap:round; stroke-linejoin:round;fill-rule:evenodd;"
d="M 43818,7953
43827,7954
43836,7956
43845,7959
43853,7963
43861,7968
43869,7974
43875,7980
43882,7987
43887,7994
43892,8002
43896,8010
43899,8019
43901,8028
43902,8037
43903,8046
43903,8272
43902,8281
43901,8290
43899,8299
43896,8308
43892,8316
43887,8324
43882,8332
43875,8338
43869,8345
43861,8350
43853,8355
43845,8359
43836,8362
43827,8364
43818,8365
43809,8366
43622,8366
43613,8365
43604,8364
43595,8362
43586,8359
43578,8355
43570,8350
43563,8345
43556,8338
43550,8332
43545,8324
43540,8316
43536,8308
43533,8299
43531,8290
43529,8281
43529,8272
43529,8046
43529,8037
43531,8028
43533,8019
43536,8010
43540,8002
43545,7994
43550,7987
43556,7980
43563,7974
43570,7968
43578,7963
43586,7959
43595,7956
43604,7954
43613,7953
43622,7952
43809,7952
43818,7953
Z" /> 
<path style="fill:#FF080E; fill-opacity:1.0; 
stroke:#FF080E; stroke-width:0; stroke-opacity:1; 
stroke-linecap:round; stroke-linejoin:round;fill-rule:evenodd;"
d="M 43818,7264
43827,7265
43836,7267
43845,7270
43853,7274
43861,7279
43869,7285
43875,7291
43882,7298
43887,7305
43892,7313
43896,7321
43899,7330
43901,7339
43902,7348
43903,7357
43903,7583
43902,7592
43901,7601
43899,7610
43896,7619
43892,7627
43887,7635
43882,7643
43875,7649
43869,7656
43861,7661
43853,7666
43845,7670
43836,7673
43827,7675
43818,7676
43809,7677
43622,7677
43613,7676
43604,7675
43595,7673
43586,7670
43578,7666
43570,7661
43563,7656
43556,7649
43550,7643
43545,7635
43540,7627
43536,7619
43533,7610
43531,7601
43529,7592
43529,7583
43529,7357
43529,7348
43531,7339
43533,7330
43536,7321
43540,7313
43545,7305
43550,7298
43556,7291
43563,7285
43570,7279
43578,7274
43586,7270
43595,7267
43604,7265
43613,7264
43622,7263
43809,7263
43818,7264
Z" /> 
</g>
<g >
</g>
<g >
</g>
<g >
</g>
<g >
</g>
<g >
</g>
<g >
</g>
<g >
</g>
<g >
</g>
<g >
</g>
<g >
<path style="fill:#FF080E; fill-opacity:1.0; 
stroke:#FF080E; stroke-width:0; stroke-opacity:1; 
stroke-linecap:round; stroke-linejoin:round;fill-rule:evenodd;"
d="M 40362,15626
40371,15627
40380,15630
40388,15633
40397,15637
40405,15641
40412,15647
40419,15653
40425,15660
40430,15667
40435,15675
40439,15683
40442,15692
40444,15701
40446,15710
40446,15719
40446,15945
40446,15955
40444,15964
40442,15973
40439,15981
40435,15990
40430,15997
40425,16005
40419,16012
40412,16018
40405,16023
40397,16028
40388,16032
40380,16035
40371,16037
40362,16039
40353,16039
40166,16039
40156,16039
40147,16037
40138,16035
40130,16032
40121,16028
40114,16023
40106,16018
40099,16012
40093,16005
40088,15997
40083,15990
40079,15981
40076,15973
40074,15964
40073,15955
40072,15945
40072,15719
40073,15710
40074,15701
40076,15692
40079,15683
40083,15675
40088,15667
40093,15660
40099,15653
40106,15647
40114,15641
40121,15637
40130,15633
40138,15630
40147,15627
40156,15626
40166,15626
40353,15626
40362,15626
Z" /> 
<path style="fill:#FF080E; fill-opacity:1.0; 
stroke:#FF080E; stroke-width:0; stroke-opacity:1; 
stroke-linecap:round; stroke-linejoin:round;fill-rule:evenodd;"
d="M 40362,14937
40371,14938
40380,14941
40388,14944
40397,14948
40405,14952
40412,14958
40419,14964
40425,14971
40430,14978
40435,14986
40439,14994
40442,15003
40444,15012
40446,15021
40446,15030
40446,15256
40446,15266
40444,15275
40442,15284
40439,15292
40435,15301
40430,15308
40425,15316
40419,15323
40412,15329
40405,15334
40397,15339
40388,15343
40380,15346
40371,15348
40362,15350
40353,15350
40166,15350
40156,15350
40147,15348
40138,15346
40130,15343
40121,15339
40114,15334
40106,15329
40099,15323
40093,15316
40088,15308
40083,15301
40079,15292
40076,15284
40074,15275
40073,15266
40072,15256
40072,15030
40073,15021
40074,15012
40076,15003
40079,14994
40083,14986
40088,14978
40093,14971
40099,14964
40106,14958
40114,14952
40121,14948
40130,14944
40138,14941
40147,14938
40156,14937
40166,14937
40353,14937
40362,14937
Z" /> 
</g>
<g >
<path style="fill:#FF080E; fill-opacity:1.0; 
stroke:#FF080E; stroke-width:0; stroke-opacity:1; 
stroke-linecap:round; stroke-linejoin:round;fill-rule:evenodd;"
d="M 30216,3267
30216,3582
29468,3582
29468,3267
30216,3267
Z" /> 
<path style="fill:#FF080E; fill-opacity:1.0; 
stroke:#FF080E; stroke-width:0; stroke-opacity:1; 
stroke-linecap:round; stroke-linejoin:round;fill-rule:evenodd;"
d="M 30216,2519
30216,2834
29468,2834
29468,2519
30216,2519
Z" /> 
<path style="fill:#FF080E; fill-opacity:1.0; 
stroke:#FF080E; stroke-width:0; stroke-opacity:1; 
stroke-linecap:round; stroke-linejoin:round;fill-rule:evenodd;"
d="M 29035,2893
29035,3208
28287,3208
28287,2893
29035,2893
Z" /> 
</g>
<g >
<path style="fill:#FF080E; fill-opacity:1.0; 
stroke:#FF080E; stroke-width:0; stroke-opacity:1; 
stroke-linecap:round; stroke-linejoin:round;fill-rule:evenodd;"
d="M 30216,4657
30216,4972
29468,4972
29468,4657
30216,4657
Z" /> 
<path style="fill:#FF080E; fill-opacity:1.0; 
stroke:#FF080E; stroke-width:0; stroke-opacity:1; 
stroke-linecap:round; stroke-linejoin:round;fill-rule:evenodd;"
d="M 30216,3909
30216,4224
29468,4224
29468,3909
30216,3909
Z" /> 
<path style="fill:#FF080E; fill-opacity:1.0; 
stroke:#FF080E; stroke-width:0; stroke-opacity:1; 
stroke-linecap:round; stroke-linejoin:round;fill-rule:evenodd;"
d="M 29035,4283
29035,4598
28287,4598
28287,4283
29035,4283
Z" /> 
</g>
<g >
<path style="fill:#FF080E; fill-opacity:1.0; 
stroke:#FF080E; stroke-width:0; stroke-opacity:1; 
stroke-linecap:round; stroke-linejoin:round;fill-rule:evenodd;"
d="M 28287,5602
28287,5287
29035,5287
29035,5602
28287,5602
Z" /> 
<path style="fill:#FF080E; fill-opacity:1.0; 
stroke:#FF080E; stroke-width:0; stroke-opacity:1; 
stroke-linecap:round; stroke-linejoin:round;fill-rule:evenodd;"
d="M 28287,6350
28287,6035
29035,6035
29035,6350
28287,6350
Z" /> 
<path style="fill:#FF080E; fill-opacity:1.0; 
stroke:#FF080E; stroke-width:0; stroke-opacity:1; 
stroke-linecap:round; stroke-linejoin:round;fill-rule:evenodd;"
d="M 29468,5976
29468,5661
30216,5661
30216,5976
29468,5976
Z" /> 
</g>
<g >
<path style="fill:#FF080E; fill-opacity:1.0; 
stroke:#FF080E; stroke-width:0; stroke-opacity:1; 
stroke-linecap:round; stroke-linejoin:round;fill-rule:evenodd;"
d="M 34015,4106
34015,4421
33267,4421
33267,4106
34015,4106
Z" /> 
<path style="fill:#FF080E; fill-opacity:1.0; 
stroke:#FF080E; stroke-width:0; stroke-opacity:1; 
stroke-linecap:round; stroke-linejoin:round;fill-rule:evenodd;"
d="M 34015,3358
34015,3673
33267,3673
33267,3358
34015,3358
Z" /> 
<path style="fill:#FF080E; fill-opacity:1.0; 
stroke:#FF080E; stroke-width:0; stroke-opacity:1; 
stroke-linecap:round; stroke-linejoin:round;fill-rule:evenodd;"
d="M 32834,3732
32834,4047
32086,4047
32086,3732
32834,3732
Z" /> 
</g>
<g >
<path style="fill:#FF080E; fill-opacity:1.0; 
stroke:#FF080E; stroke-width:0; stroke-opacity:1; 
stroke-linecap:round; stroke-linejoin:round;fill-rule:evenodd;"
d="M 34027,5515
34027,5830
33279,5830
33279,5515
34027,5515
Z" /> 
<path style="fill:#FF080E; fill-opacity:1.0; 
stroke:#FF080E; stroke-width:0; stroke-opacity:1; 
stroke-linecap:round; stroke-linejoin:round;fill-rule:evenodd;"
d="M 34027,4767
34027,5082
33279,5082
33279,4767
34027,4767
Z" /> 
<path style="fill:#FF080E; fill-opacity:1.0; 
stroke:#FF080E; stroke-width:0; stroke-opacity:1; 
stroke-linecap:round; stroke-linejoin:round;fill-rule:evenodd;"
d="M 32846,5141
32846,5456
32098,5456
32098,5141
32846,5141
Z" /> 
</g>
<g >
</g>
<g >
</g>
<g >
</g>
<g >
</g>
<g >
<path style="fill:#FF080E; fill-opacity:1.0; 
stroke:#FF080E; stroke-width:0; stroke-opacity:1; 
stroke-linecap:round; stroke-linejoin:round;fill-rule:evenodd;"
d="M 26516,5376
26524,5377
26533,5379
26541,5382
26548,5386
26555,5390
26562,5395
26568,5401
26574,5407
26579,5414
26584,5421
26587,5429
26590,5437
26592,5445
26593,5453
26594,5462
26594,5663
26593,5672
26592,5680
26590,5688
26587,5696
26584,5704
26579,5711
26574,5718
26568,5724
26562,5730
26555,5735
26548,5739
26541,5743
26533,5746
26524,5748
26516,5749
26508,5750
26335,5750
26327,5749
26319,5748
26310,5746
26302,5743
26295,5739
26287,5735
26281,5730
26274,5724
26269,5718
26264,5711
26259,5704
26256,5696
26253,5688
26251,5680
26250,5672
26249,5663
26249,5462
26250,5453
26251,5445
26253,5437
26256,5429
26259,5421
26264,5414
26269,5407
26274,5401
26281,5395
26287,5390
26295,5386
26302,5382
26310,5379
26319,5377
26327,5376
26335,5376
26508,5376
26516,5376
Z" /> 
<path style="fill:#FF080E; fill-opacity:1.0; 
stroke:#FF080E; stroke-width:0; stroke-opacity:1; 
stroke-linecap:round; stroke-linejoin:round;fill-rule:evenodd;"
d="M 27136,5376
27144,5377
27153,5379
27161,5382
27168,5386
27176,5390
27182,5395
27189,5401
27194,5407
27199,5414
27204,5421
27207,5429
27210,5437
27212,5445
27213,5453
27214,5462
27214,5663
27213,5672
27212,5680
27210,5688
27207,5696
27204,5704
27199,5711
27194,5718
27189,5724
27182,5730
27176,5735
27168,5739
27161,5743
27153,5746
27144,5748
27136,5749
27128,5750
26955,5750
26947,5749
26939,5748
26930,5746
26922,5743
26915,5739
26908,5735
26901,5730
26895,5724
26889,5718
26884,5711
26879,5704
26876,5696
26873,5688
26871,5680
26870,5672
26869,5663
26869,5462
26870,5453
26871,5445
26873,5437
26876,5429
26879,5421
26884,5414
26889,5407
26895,5401
26901,5395
26908,5390
26915,5386
26922,5382
26930,5379
26939,5377
26947,5376
26955,5376
27128,5376
27136,5376
Z" /> 
</g>
<g >
<path style="fill:#FF080E; fill-opacity:1.0; 
stroke:#FF080E; stroke-width:0; stroke-opacity:1; 
stroke-linecap:round; stroke-linejoin:round;fill-rule:evenodd;"
d="M 27069,2144
27078,2145
27086,2147
27094,2150
27101,2153
27109,2158
27115,2163
27122,2169
27127,2175
27132,2182
27137,2189
27140,2196
27143,2204
27145,2213
27146,2221
27147,2229
27147,2402
27146,2410
27145,2418
27143,2427
27140,2435
27137,2442
27132,2450
27127,2456
27122,2463
27115,2468
27109,2473
27101,2478
27094,2481
27086,2484
27078,2486
27069,2487
27061,2488
26859,2488
26851,2487
26842,2486
26834,2484
26826,2481
26818,2478
26811,2473
26804,2468
26798,2463
26792,2456
26787,2450
26783,2442
26779,2435
26777,2427
26774,2418
26773,2410
26773,2402
26773,2229
26773,2221
26774,2213
26777,2204
26779,2196
26783,2189
26787,2182
26792,2175
26798,2169
26804,2163
26811,2158
26818,2153
26826,2150
26834,2147
26842,2145
26851,2144
26859,2143
27061,2143
27069,2144
Z" /> 
<path style="fill:#FF080E; fill-opacity:1.0; 
stroke:#FF080E; stroke-width:0; stroke-opacity:1; 
stroke-linecap:round; stroke-linejoin:round;fill-rule:evenodd;"
d="M 27069,2764
27078,2765
27086,2767
27094,2770
27101,2774
27109,2778
27115,2783
27122,2789
27127,2795
27132,2802
27137,2809
27140,2817
27143,2824
27145,2833
27146,2841
27147,2849
27147,3022
27146,3030
27145,3039
27143,3047
27140,3055
27137,3062
27132,3070
27127,3076
27122,3083
27115,3088
27109,3093
27101,3098
27094,3101
27086,3104
27078,3106
27069,3107
27061,3108
26859,3108
26851,3107
26842,3106
26834,3104
26826,3101
26818,3098
26811,3093
26804,3088
26798,3083
26792,3076
26787,3070
26783,3062
26779,3055
26777,3047
26774,3039
26773,3030
26773,3022
26773,2849
26773,2841
26774,2833
26777,2824
26779,2817
26783,2809
26787,2802
26792,2795
26798,2789
26804,2783
26811,2778
26818,2774
26826,2770
26834,2767
26842,2765
26851,2764
26859,2763
27061,2763
27069,2764
Z" /> 
</g>
<g >
</g>
<g >
</g>
<g >
<path style="fill:#FF080E; fill-opacity:1.0; 
stroke:#FF080E; stroke-width:0; stroke-opacity:1; 
stroke-linecap:round; stroke-linejoin:round;fill-rule:evenodd;"
d="M 33927,13251
33936,13252
33944,13254
33952,13257
33960,13261
33967,13265
33974,13270
33980,13276
33986,13282
33991,13289
33995,13296
33999,13304
34001,13312
34003,13320
34005,13328
34005,13337
34005,13509
34005,13517
34003,13526
34001,13534
33999,13542
33995,13550
33991,13557
33986,13564
33980,13570
33974,13576
33967,13581
33960,13585
33952,13589
33944,13591
33936,13593
33927,13595
33919,13595
33717,13595
33709,13595
33700,13593
33692,13591
33684,13589
33677,13585
33669,13581
33663,13576
33656,13570
33651,13564
33646,13557
33641,13550
33638,13542
33635,13534
33633,13526
33632,13517
33631,13509
33631,13337
33632,13328
33633,13320
33635,13312
33638,13304
33641,13296
33646,13289
33651,13282
33656,13276
33663,13270
33669,13265
33677,13261
33684,13257
33692,13254
33700,13252
33709,13251
33717,13251
33919,13251
33927,13251
Z" /> 
<path style="fill:#FF080E; fill-opacity:1.0; 
stroke:#FF080E; stroke-width:0; stroke-opacity:1; 
stroke-linecap:round; stroke-linejoin:round;fill-rule:evenodd;"
d="M 33927,13871
33936,13872
33944,13874
33952,13877
33960,13881
33967,13885
33974,13890
33980,13896
33986,13902
33991,13909
33995,13916
33999,13924
34001,13932
34003,13940
34005,13948
34005,13957
34005,14129
34005,14137
34003,14146
34001,14154
33999,14162
33995,14170
33991,14177
33986,14184
33980,14190
33974,14196
33967,14201
33960,14205
33952,14209
33944,14211
33936,14213
33927,14215
33919,14215
33717,14215
33709,14215
33700,14213
33692,14211
33684,14209
33677,14205
33669,14201
33663,14196
33656,14190
33651,14184
33646,14177
33641,14170
33638,14162
33635,14154
33633,14146
33632,14137
33631,14129
33631,13957
33632,13948
33633,13940
33635,13932
33638,13924
33641,13916
33646,13909
33651,13902
33656,13896
33663,13890
33669,13885
33677,13881
33684,13877
33692,13874
33700,13872
33709,13871
33717,13871
33919,13871
33927,13871
Z" /> 
</g>
<g >
</g>
<g >
</g>
<g >
</g>
<g >
</g>
<g >
</g>
<g >
<path style="fill:#FF080E; fill-opacity:1.0; 
stroke:#FF080E; stroke-width:0; stroke-opacity:1; 
stroke-linecap:round; stroke-linejoin:round;fill-rule:evenodd;"
d="M 39244,11537
39253,11539
39261,11541
39269,11544
39277,11547
39284,11552
39291,11557
39297,11562
39303,11568
39308,11575
39312,11583
39315,11590
39318,11598
39320,11606
39322,11615
39322,11623
39322,11825
39322,11833
39320,11842
39318,11850
39315,11858
39312,11865
39308,11873
39303,11880
39297,11886
39291,11891
39284,11896
39277,11901
39269,11904
39261,11907
39253,11909
39244,11911
39236,11911
39064,11911
39055,11911
39047,11909
39039,11907
39031,11904
39023,11901
39016,11896
39009,11891
39003,11886
38997,11880
38992,11873
38988,11865
38984,11858
38981,11850
38979,11842
38978,11833
38978,11825
38978,11623
38978,11615
38979,11606
38981,11598
38984,11590
38988,11583
38992,11575
38997,11568
39003,11562
39009,11557
39016,11552
39023,11547
39031,11544
39039,11541
39047,11539
39055,11537
39064,11537
39236,11537
39244,11537
Z" /> 
<path style="fill:#FF080E; fill-opacity:1.0; 
stroke:#FF080E; stroke-width:0; stroke-opacity:1; 
stroke-linecap:round; stroke-linejoin:round;fill-rule:evenodd;"
d="M 39864,11537
39873,11539
39881,11541
39889,11544
39897,11547
39904,11552
39911,11557
39917,11562
39923,11568
39928,11575
39932,11583
39936,11590
39938,11598
39940,11606
39942,11615
39942,11623
39942,11825
39942,11833
39940,11842
39938,11850
39936,11858
39932,11865
39928,11873
39923,11880
39917,11886
39911,11891
39904,11896
39897,11901
39889,11904
39881,11907
39873,11909
39864,11911
39856,11911
39684,11911
39675,11911
39667,11909
39659,11907
39651,11904
39643,11901
39636,11896
39629,11891
39623,11886
39617,11880
39612,11873
39608,11865
39604,11858
39601,11850
39599,11842
39598,11833
39598,11825
39598,11623
39598,11615
39599,11606
39601,11598
39604,11590
39608,11583
39612,11575
39617,11568
39623,11562
39629,11557
39636,11552
39643,11547
39651,11544
39659,11541
39667,11539
39675,11537
39684,11537
39856,11537
39864,11537
Z" /> 
</g>
<g >
</g>
<g >
<path style="fill:#FF080E; fill-opacity:1.0; 
stroke:#FF080E; stroke-width:0; stroke-opacity:1; 
stroke-linecap:round; stroke-linejoin:round;fill-rule:evenodd;"
d="M 42848,14734
43084,14734
43084,15344
42848,15344
42848,14734
Z" /> 
<path style="fill:#FF080E; fill-opacity:1.0; 
stroke:#FF080E; stroke-width:0; stroke-opacity:1; 
stroke-linecap:round; stroke-linejoin:round;fill-rule:evenodd;"
d="M 42348,14734
42584,14734
42584,15344
42348,15344
42348,14734
Z" /> 
<path style="fill:#FF080E; fill-opacity:1.0; 
stroke:#FF080E; stroke-width:0; stroke-opacity:1; 
stroke-linecap:round; stroke-linejoin:round;fill-rule:evenodd;"
d="M 41848,14734
42084,14734
42084,15344
41848,15344
41848,14734
Z" /> 
<path style="fill:#FF080E; fill-opacity:1.0; 
stroke:#FF080E; stroke-width:0; stroke-opacity:1; 
stroke-linecap:round; stroke-linejoin:round;fill-rule:evenodd;"
d="M 41348,14734
41584,14734
41584,15344
41348,15344
41348,14734
Z" /> 
<path style="fill:#FF080E; fill-opacity:1.0; 
stroke:#FF080E; stroke-width:0; stroke-opacity:1; 
stroke-linecap:round; stroke-linejoin:round;fill-rule:evenodd;"
d="M 41348,16860
41584,16860
41584,17470
41348,17470
41348,16860
Z" /> 
<path style="fill:#FF080E; fill-opacity:1.0; 
stroke:#FF080E; stroke-width:0; stroke-opacity:1; 
stroke-linecap:round; stroke-linejoin:round;fill-rule:evenodd;"
d="M 41848,16860
42084,16860
42084,17470
41848,17470
41848,16860
Z" /> 
<path style="fill:#FF080E; fill-opacity:1.0; 
stroke:#FF080E; stroke-width:0; stroke-opacity:1; 
stroke-linecap:round; stroke-linejoin:round;fill-rule:evenodd;"
d="M 42348,16860
42584,16860
42584,17470
42348,17470
42348,16860
Z" /> 
<path style="fill:#FF080E; fill-opacity:1.0; 
stroke:#FF080E; stroke-width:0; stroke-opacity:1; 
stroke-linecap:round; stroke-linejoin:round;fill-rule:evenodd;"
d="M 42848,16860
43084,16860
43084,17470
42848,17470
42848,16860
Z" /> 
</g>
<g >
<path style="fill:#FF080E; fill-opacity:1.0; 
stroke:#FF080E; stroke-width:0; stroke-opacity:1; 
stroke-linecap:round; stroke-linejoin:round;fill-rule:evenodd;"
d="M 42694,11576
42930,11576
42930,12187
42694,12187
42694,11576
Z" /> 
<path style="fill:#FF080E; fill-opacity:1.0; 
stroke:#FF080E; stroke-width:0; stroke-opacity:1; 
stroke-linecap:round; stroke-linejoin:round;fill-rule:evenodd;"
d="M 42194,11576
42430,11576
42430,12187
42194,12187
42194,11576
Z" /> 
<path style="fill:#FF080E; fill-opacity:1.0; 
stroke:#FF080E; stroke-width:0; stroke-opacity:1; 
stroke-linecap:round; stroke-linejoin:round;fill-rule:evenodd;"
d="M 41694,11576
41930,11576
41930,12187
41694,12187
41694,11576
Z" /> 
<path style="fill:#FF080E; fill-opacity:1.0; 
stroke:#FF080E; stroke-width:0; stroke-opacity:1; 
stroke-linecap:round; stroke-linejoin:round;fill-rule:evenodd;"
d="M 41194,11576
41430,11576
41430,12187
41194,12187
41194,11576
Z" /> 
<path style="fill:#FF080E; fill-opacity:1.0; 
stroke:#FF080E; stroke-width:0; stroke-opacity:1; 
stroke-linecap:round; stroke-linejoin:round;fill-rule:evenodd;"
d="M 41194,13702
41430,13702
41430,14313
41194,14313
41194,13702
Z" /> 
<path style="fill:#FF080E; fill-opacity:1.0; 
stroke:#FF080E; stroke-width:0; stroke-opacity:1; 
stroke-linecap:round; stroke-linejoin:round;fill-rule:evenodd;"
d="M 41694,13702
41930,13702
41930,14313
41694,14313
41694,13702
Z" /> 
<path style="fill:#FF080E; fill-opacity:1.0; 
stroke:#FF080E; stroke-width:0; stroke-opacity:1; 
stroke-linecap:round; stroke-linejoin:round;fill-rule:evenodd;"
d="M 42194,13702
42430,13702
42430,14313
42194,14313
42194,13702
Z" /> 
<path style="fill:#FF080E; fill-opacity:1.0; 
stroke:#FF080E; stroke-width:0; stroke-opacity:1; 
stroke-linecap:round; stroke-linejoin:round;fill-rule:evenodd;"
d="M 42694,13702
42930,13702
42930,14313
42694,14313
42694,13702
Z" /> 
</g>
<g >
</g>
<g >
<path style="fill:#FF080E; fill-opacity:1.0; 
stroke:#FF080E; stroke-width:0; stroke-opacity:1; 
stroke-linecap:round; stroke-linejoin:round;fill-rule:evenodd;"
d="M 34285,16232
34285,16468
33674,16468
33674,16232
34285,16232
Z" /> 
<path style="fill:#FF080E; fill-opacity:1.0; 
stroke:#FF080E; stroke-width:0; stroke-opacity:1; 
stroke-linecap:round; stroke-linejoin:round;fill-rule:evenodd;"
d="M 34285,15732
34285,15968
33674,15968
33674,15732
34285,15732
Z" /> 
<path style="fill:#FF080E; fill-opacity:1.0; 
stroke:#FF080E; stroke-width:0; stroke-opacity:1; 
stroke-linecap:round; stroke-linejoin:round;fill-rule:evenodd;"
d="M 34285,15232
34285,15468
33674,15468
33674,15232
34285,15232
Z" /> 
<path style="fill:#FF080E; fill-opacity:1.0; 
stroke:#FF080E; stroke-width:0; stroke-opacity:1; 
stroke-linecap:round; stroke-linejoin:round;fill-rule:evenodd;"
d="M 34285,14732
34285,14968
33674,14968
33674,14732
34285,14732
Z" /> 
<path style="fill:#FF080E; fill-opacity:1.0; 
stroke:#FF080E; stroke-width:0; stroke-opacity:1; 
stroke-linecap:round; stroke-linejoin:round;fill-rule:evenodd;"
d="M 36411,14732
36411,14968
35800,14968
35800,14732
36411,14732
Z" /> 
<path style="fill:#FF080E; fill-opacity:1.0; 
stroke:#FF080E; stroke-width:0; stroke-opacity:1; 
stroke-linecap:round; stroke-linejoin:round;fill-rule:evenodd;"
d="M 36411,15232
36411,15468
35800,15468
35800,15232
36411,15232
Z" /> 
<path style="fill:#FF080E; fill-opacity:1.0; 
stroke:#FF080E; stroke-width:0; stroke-opacity:1; 
stroke-linecap:round; stroke-linejoin:round;fill-rule:evenodd;"
d="M 36411,15732
36411,15968
35800,15968
35800,15732
36411,15732
Z" /> 
<path style="fill:#FF080E; fill-opacity:1.0; 
stroke:#FF080E; stroke-width:0; stroke-opacity:1; 
stroke-linecap:round; stroke-linejoin:round;fill-rule:evenodd;"
d="M 36411,16232
36411,16468
35800,16468
35800,16232
36411,16232
Z" /> 
</g>
<g >
</g>
<g >
</g>
<g >
<path style="fill:#FF080E; fill-opacity:1.0; 
stroke:#FF080E; stroke-width:0; stroke-opacity:1; 
stroke-linecap:round; stroke-linejoin:round;fill-rule:evenodd;"
d="M 34605,17453
34613,17454
34621,17456
34629,17459
34637,17463
34644,17467
34651,17472
34657,17478
34663,17484
34668,17491
34672,17498
34676,17506
34679,17513
34681,17522
34682,17530
34682,17538
34682,17711
34682,17719
34681,17728
34679,17736
34676,17744
34672,17751
34668,17759
34663,17765
34657,17772
34651,17777
34644,17782
34637,17787
34629,17790
34621,17793
34613,17795
34605,17796
34596,17797
34394,17797
34386,17796
34378,17795
34369,17793
34361,17790
34354,17787
34347,17782
34340,17777
34333,17772
34328,17765
34323,17759
34318,17751
34315,17744
34312,17736
34310,17728
34309,17719
34308,17711
34308,17538
34309,17530
34310,17522
34312,17513
34315,17506
34318,17498
34323,17491
34328,17484
34333,17478
34340,17472
34347,17467
34354,17463
34361,17459
34369,17456
34378,17454
34386,17453
34394,17452
34596,17452
34605,17453
Z" /> 
<path style="fill:#FF080E; fill-opacity:1.0; 
stroke:#FF080E; stroke-width:0; stroke-opacity:1; 
stroke-linecap:round; stroke-linejoin:round;fill-rule:evenodd;"
d="M 34605,16833
34613,16834
34621,16836
34629,16839
34637,16842
34644,16847
34651,16852
34657,16857
34663,16864
34668,16871
34672,16878
34676,16885
34679,16893
34681,16902
34682,16910
34682,16918
34682,17091
34682,17099
34681,17107
34679,17116
34676,17124
34672,17131
34668,17138
34663,17145
34657,17152
34651,17157
34644,17162
34637,17167
34629,17170
34621,17173
34613,17175
34605,17176
34596,17177
34394,17177
34386,17176
34378,17175
34369,17173
34361,17170
34354,17167
34347,17162
34340,17157
34333,17152
34328,17145
34323,17138
34318,17131
34315,17124
34312,17116
34310,17107
34309,17099
34308,17091
34308,16918
34309,16910
34310,16902
34312,16893
34315,16885
34318,16878
34323,16871
34328,16864
34333,16857
34340,16852
34347,16847
34354,16842
34361,16839
34369,16836
34378,16834
34386,16833
34394,16832
34596,16832
34605,16833
Z" /> 
</g>
<g >
<path style="fill:#FF080E; fill-opacity:1.0; 
stroke:#FF080E; stroke-width:0; stroke-opacity:1; 
stroke-linecap:round; stroke-linejoin:round;fill-rule:evenodd;"
d="M 40624,16396
40633,16397
40641,16399
40649,16402
40656,16405
40664,16410
40670,16415
40677,16420
40682,16427
40687,16434
40692,16441
40695,16448
40698,16456
40700,16465
40702,16473
40702,16481
40702,16654
40702,16662
40700,16670
40698,16679
40695,16687
40692,16694
40687,16701
40682,16708
40677,16715
40670,16720
40664,16725
40656,16730
40649,16733
40641,16736
40633,16738
40624,16739
40616,16740
40414,16740
40406,16739
40397,16738
40389,16736
40381,16733
40373,16730
40366,16725
40359,16720
40353,16715
40348,16708
40342,16701
40338,16694
40335,16687
40332,16679
40330,16670
40328,16662
40328,16654
40328,16481
40328,16473
40330,16465
40332,16456
40335,16448
40338,16441
40342,16434
40348,16427
40353,16420
40359,16415
40366,16410
40373,16405
40381,16402
40389,16399
40397,16397
40406,16396
40414,16395
40616,16395
40624,16396
Z" /> 
<path style="fill:#FF080E; fill-opacity:1.0; 
stroke:#FF080E; stroke-width:0; stroke-opacity:1; 
stroke-linecap:round; stroke-linejoin:round;fill-rule:evenodd;"
d="M 40624,17016
40633,17017
40641,17019
40649,17022
40656,17026
40664,17030
40670,17035
40677,17041
40682,17047
40687,17054
40692,17061
40695,17069
40698,17076
40700,17085
40702,17093
40702,17101
40702,17274
40702,17282
40700,17291
40698,17299
40695,17307
40692,17314
40687,17322
40682,17328
40677,17335
40670,17340
40664,17345
40656,17350
40649,17353
40641,17356
40633,17358
40624,17359
40616,17360
40414,17360
40406,17359
40397,17358
40389,17356
40381,17353
40373,17350
40366,17345
40359,17340
40353,17335
40348,17328
40342,17322
40338,17314
40335,17307
40332,17299
40330,17291
40328,17282
40328,17274
40328,17101
40328,17093
40330,17085
40332,17076
40335,17069
40338,17061
40342,17054
40348,17047
40353,17041
40359,17035
40366,17030
40373,17026
40381,17022
40389,17019
40397,17017
40406,17016
40414,17015
40616,17015
40624,17016
Z" /> 
</g>
<g >
<path style="fill:#FF080E; fill-opacity:1.0; 
stroke:#FF080E; stroke-width:0; stroke-opacity:1; 
stroke-linecap:round; stroke-linejoin:round;fill-rule:evenodd;"
d="M 39754,15362
39763,15363
39771,15366
39779,15368
39786,15372
39794,15376
39800,15381
39807,15387
39812,15393
39817,15400
39822,15407
39825,15415
39828,15423
39830,15431
39831,15439
39832,15448
39832,15620
39831,15629
39830,15637
39828,15645
39825,15653
39822,15661
39817,15668
39812,15675
39807,15681
39800,15687
39794,15692
39786,15696
39779,15700
39771,15703
39763,15705
39754,15706
39746,15706
39544,15706
39536,15706
39527,15705
39519,15703
39511,15700
39503,15696
39496,15692
39489,15687
39483,15681
39477,15675
39472,15668
39468,15661
39464,15653
39462,15645
39460,15637
39458,15629
39458,15620
39458,15448
39458,15439
39460,15431
39462,15423
39464,15415
39468,15407
39472,15400
39477,15393
39483,15387
39489,15381
39496,15376
39503,15372
39511,15368
39519,15366
39527,15363
39536,15362
39544,15362
39746,15362
39754,15362
Z" /> 
<path style="fill:#FF080E; fill-opacity:1.0; 
stroke:#FF080E; stroke-width:0; stroke-opacity:1; 
stroke-linecap:round; stroke-linejoin:round;fill-rule:evenodd;"
d="M 39754,14742
39763,14743
39771,14745
39779,14748
39786,14752
39794,14756
39800,14761
39807,14767
39812,14773
39817,14780
39822,14787
39825,14795
39828,14803
39830,14811
39831,14819
39832,14828
39832,15000
39831,15009
39830,15017
39828,15025
39825,15033
39822,15041
39817,15048
39812,15055
39807,15061
39800,15067
39794,15072
39786,15076
39779,15080
39771,15082
39763,15085
39754,15086
39746,15086
39544,15086
39536,15086
39527,15085
39519,15082
39511,15080
39503,15076
39496,15072
39489,15067
39483,15061
39477,15055
39472,15048
39468,15041
39464,15033
39462,15025
39460,15017
39458,15009
39458,15000
39458,14828
39458,14819
39460,14811
39462,14803
39464,14795
39468,14787
39472,14780
39477,14773
39483,14767
39489,14761
39496,14756
39503,14752
39511,14748
39519,14745
39527,14743
39536,14742
39544,14742
39746,14742
39754,14742
Z" /> 
</g>
<g >
</g>
<g >
</g>
<g >
</g>
<g >
</g>
<g >
</g>
<g >
</g>
<g >
</g>
<g >
</g>
<g >
</g>
<g >
</g>
<g >
</g>
<g >
<path style="fill:#FF080E; fill-opacity:1.0; 
stroke:#FF080E; stroke-width:0; stroke-opacity:1; 
stroke-linecap:round; stroke-linejoin:round;fill-rule:evenodd;"
d="M 38143,14287
38152,14289
38162,14291
38171,14294
38179,14299
38188,14304
38196,14309
38203,14316
38209,14323
38215,14331
38220,14339
38224,14348
38227,14357
38230,14366
38231,14376
38232,14385
38232,14641
38231,14651
38230,14661
38227,14670
38224,14679
38220,14688
38215,14696
38209,14704
38203,14711
38196,14717
38188,14723
38179,14728
38171,14732
38162,14736
38152,14738
38143,14739
38133,14740
37779,14740
37769,14739
37760,14738
37750,14736
37741,14732
37732,14728
37724,14723
37716,14717
37709,14711
37703,14704
37697,14696
37692,14688
37688,14679
37685,14670
37682,14661
37681,14651
37680,14641
37680,14385
37681,14376
37682,14366
37685,14357
37688,14348
37692,14339
37697,14331
37703,14323
37709,14316
37716,14309
37724,14304
37732,14299
37741,14294
37750,14291
37760,14289
37769,14287
37779,14287
38133,14287
38143,14287
Z" /> 
<path style="fill:#FF080E; fill-opacity:1.0; 
stroke:#FF080E; stroke-width:0; stroke-opacity:1; 
stroke-linecap:round; stroke-linejoin:round;fill-rule:evenodd;"
d="M 38143,15095
38152,15096
38162,15098
38171,15102
38179,15106
38188,15111
38196,15116
38203,15123
38209,15130
38215,15138
38220,15146
38224,15155
38227,15164
38230,15173
38231,15183
38232,15193
38232,15448
38231,15458
38230,15468
38227,15477
38224,15486
38220,15495
38215,15503
38209,15511
38203,15518
38196,15524
38188,15530
38179,15535
38171,15539
38162,15543
38152,15545
38143,15546
38133,15547
37779,15547
37769,15546
37760,15545
37750,15543
37741,15539
37732,15535
37724,15530
37716,15524
37709,15518
37703,15511
37697,15503
37692,15495
37688,15486
37685,15477
37682,15468
37681,15458
37680,15448
37680,15193
37681,15183
37682,15173
37685,15164
37688,15155
37692,15146
37697,15138
37703,15130
37709,15123
37716,15116
37724,15111
37732,15106
37741,15102
37750,15098
37760,15096
37769,15095
37779,15094
38133,15094
38143,15095
Z" /> 
</g>
<g >
<path style="fill:#FF080E; fill-opacity:1.0; 
stroke:#FF080E; stroke-width:0; stroke-opacity:1; 
stroke-linecap:round; stroke-linejoin:round;fill-rule:evenodd;"
d="M 37111,14453
37121,14454
37130,14457
37139,14460
37148,14464
37156,14469
37164,14475
37171,14481
37178,14488
37183,14496
37188,14504
37193,14513
37196,14522
37198,14532
37200,14541
37200,14551
37200,14807
37200,14816
37198,14826
37196,14835
37193,14844
37188,14853
37183,14861
37178,14869
37171,14876
37164,14883
37156,14889
37148,14893
37139,14898
37130,14901
37121,14903
37111,14905
37102,14905
36747,14905
36738,14905
36728,14903
36719,14901
36710,14898
36701,14893
36693,14889
36685,14883
36678,14876
36671,14869
36665,14861
36660,14853
36656,14844
36653,14835
36651,14826
36649,14816
36649,14807
36649,14551
36649,14541
36651,14532
36653,14522
36656,14513
36660,14504
36665,14496
36671,14488
36678,14481
36685,14475
36693,14469
36701,14464
36710,14460
36719,14457
36728,14454
36738,14453
36747,14452
37102,14452
37111,14453
Z" /> 
<path style="fill:#FF080E; fill-opacity:1.0; 
stroke:#FF080E; stroke-width:0; stroke-opacity:1; 
stroke-linecap:round; stroke-linejoin:round;fill-rule:evenodd;"
d="M 37120,15273
37129,15274
37138,15276
37147,15279
37156,15284
37164,15288
37172,15294
37179,15300
37185,15308
37191,15315
37196,15323
37200,15332
37203,15341
37205,15350
37207,15360
37207,15369
37207,15622
37207,15632
37205,15641
37203,15650
37200,15659
37196,15668
37191,15676
37185,15684
37179,15691
37172,15697
37164,15703
37156,15708
37147,15712
37138,15715
37129,15717
37120,15719
37110,15719
36753,15719
36743,15719
36734,15717
36725,15715
36716,15712
36707,15708
36699,15703
36691,15697
36684,15691
36678,15684
36672,15676
36667,15668
36663,15659
36660,15650
36658,15641
36656,15632
36656,15622
36656,15369
36656,15360
36658,15350
36660,15341
36663,15332
36667,15323
36672,15315
36678,15308
36684,15300
36691,15294
36699,15288
36707,15284
36716,15279
36725,15276
36734,15274
36743,15273
36753,15272
37110,15272
37120,15273
Z" /> 
</g>
<g >
<path style="fill:#FF080E; fill-opacity:1.0; 
stroke:#FF080E; stroke-width:0; stroke-opacity:1; 
stroke-linecap:round; stroke-linejoin:round;fill-rule:evenodd;"
d="M 36783,11645
36783,11960
36035,11960
36035,11645
36783,11645
Z" /> 
<path style="fill:#FF080E; fill-opacity:1.0; 
stroke:#FF080E; stroke-width:0; stroke-opacity:1; 
stroke-linecap:round; stroke-linejoin:round;fill-rule:evenodd;"
d="M 36783,10897
36783,11212
36035,11212
36035,10897
36783,10897
Z" /> 
<path style="fill:#FF080E; fill-opacity:1.0; 
stroke:#FF080E; stroke-width:0; stroke-opacity:1; 
stroke-linecap:round; stroke-linejoin:round;fill-rule:evenodd;"
d="M 35602,11271
35602,11586
34854,11586
34854,11271
35602,11271
Z" /> 
</g>
<g >
<path style="fill:#FF080E; fill-opacity:1.0; 
stroke:#FF080E; stroke-width:0; stroke-opacity:1; 
stroke-linecap:round; stroke-linejoin:round;fill-rule:evenodd;"
d="M 36720,13106
36720,13421
35972,13421
35972,13106
36720,13106
Z" /> 
<path style="fill:#FF080E; fill-opacity:1.0; 
stroke:#FF080E; stroke-width:0; stroke-opacity:1; 
stroke-linecap:round; stroke-linejoin:round;fill-rule:evenodd;"
d="M 36720,12358
36720,12673
35972,12673
35972,12358
36720,12358
Z" /> 
<path style="fill:#FF080E; fill-opacity:1.0; 
stroke:#FF080E; stroke-width:0; stroke-opacity:1; 
stroke-linecap:round; stroke-linejoin:round;fill-rule:evenodd;"
d="M 35539,12732
35539,13047
34791,13047
34791,12732
35539,12732
Z" /> 
</g>
<g >
</g>
<g >
<path style="fill:#FF080E; fill-opacity:1.0; 
stroke:#FF080E; stroke-width:0; stroke-opacity:1; 
stroke-linecap:round; stroke-linejoin:round;fill-rule:evenodd;"
d="M 38763,14606
38772,14608
38781,14610
38790,14613
38798,14617
38806,14622
38813,14627
38820,14633
38826,14640
38832,14647
38837,14655
38841,14664
38844,14672
38846,14681
38847,14690
38848,14699
38848,14926
38847,14935
38846,14944
38844,14953
38841,14962
38837,14970
38832,14978
38826,14985
38820,14992
38813,14998
38806,15004
38798,15008
38790,15012
38781,15015
38772,15017
38763,15019
38754,15019
38567,15019
38558,15019
38549,15017
38540,15015
38531,15012
38523,15008
38515,15004
38508,14998
38501,14992
38495,14985
38489,14978
38485,14970
38481,14962
38478,14953
38475,14944
38474,14935
38474,14926
38474,14699
38474,14690
38475,14681
38478,14672
38481,14664
38485,14655
38489,14647
38495,14640
38501,14633
38508,14627
38515,14622
38523,14617
38531,14613
38540,14610
38549,14608
38558,14606
38567,14606
38754,14606
38763,14606
Z" /> 
<path style="fill:#FF080E; fill-opacity:1.0; 
stroke:#FF080E; stroke-width:0; stroke-opacity:1; 
stroke-linecap:round; stroke-linejoin:round;fill-rule:evenodd;"
d="M 38763,15295
38772,15297
38781,15299
38790,15302
38798,15306
38806,15311
38813,15316
38820,15322
38826,15329
38832,15336
38837,15344
38841,15353
38844,15361
38846,15370
38847,15379
38848,15388
38848,15615
38847,15624
38846,15633
38844,15642
38841,15651
38837,15659
38832,15667
38826,15674
38820,15681
38813,15687
38806,15692
38798,15697
38790,15701
38781,15704
38772,15706
38763,15708
38754,15708
38567,15708
38558,15708
38549,15706
38540,15704
38531,15701
38523,15697
38515,15692
38508,15687
38501,15681
38495,15674
38489,15667
38485,15659
38481,15651
38478,15642
38475,15633
38474,15624
38474,15615
38474,15388
38474,15379
38475,15370
38478,15361
38481,15353
38485,15344
38489,15336
38495,15329
38501,15322
38508,15316
38515,15311
38523,15306
38531,15302
38540,15299
38549,15297
38558,15295
38567,15295
38754,15295
38763,15295
Z" /> 
</g>
<g >
</g>
<g >
</g>
<g >
</g>
</g>
<g style="fill:#000000; fill-opacity:1.0; 
stroke:#000000; stroke-width:0; stroke-opacity:1; 
stroke-linecap:round; stroke-linejoin:round;">
</g>
<g style="fill:#C2C200; fill-opacity:1.0; 
stroke:#C2C200; stroke-width:0; stroke-opacity:1; 
stroke-linecap:round; stroke-linejoin:round;">
</g>
<g style="fill:#C2C200; fill-opacity:1.0; 
stroke:#C2C200; stroke-width:59.0551; stroke-opacity:1; 
stroke-linecap:round; stroke-linejoin:round;">
</g>
<g style="fill:#C2C200; fill-opacity:0.0; 
stroke:#C2C200; stroke-width:59.0551; stroke-opacity:1; 
stroke-linecap:round; stroke-linejoin:round;">
<path d="M24070 21366
L50070 21366
" />
<path d="M51070 6466
L50070 5466
" />
<path d="M51070 19366
L51070 6466
" />
<path d="M50070 966
L49470 366
" />
<path d="M50070 20366
L51070 19366
" />
<path d="M50070 21366
L50070 20366
" />
<path d="M50070 5466
L50070 966
" />
<path d="M24070 366
L24070 21366
" />
<path d="M49470 366
L24070 366
" />
<g >
</g>
<g >
</g>
<g >
</g>
<g >
</g>
<g >
</g>
<g >
</g>
<g >
</g>
<g >
</g>
<g >
</g>
<g >
</g>
<g >
</g>
<g >
</g>
<g >
</g>
<g >
</g>
<g >
</g>
<g >
</g>
<g >
</g>
<g >
</g>
<g >
</g>
<g >
</g>
<g >
</g>
<g >
</g>
<g >
</g>
<g >
</g>
<g >
</g>
<g >
</g>
<g >
</g>
<g >
</g>
<g >
</g>
<g >
</g>
<g >
</g>
<g >
</g>
<g >
</g>
<g >
</g>
<g >
</g>
<g >
</g>
<g >
</g>
<g >
</g>
<g >
</g>
<g >
</g>
<g >
</g>
<g >
</g>
<g >
</g>
<g >
</g>
<g >
</g>
<g >
</g>
<g >
</g>
<g >
</g>
<g >
</g>
<g >
</g>
<g >
</g>
<g >
</g>
<g >
</g>
<g >
</g>
<g >
</g>
<g >
</g>
<g >
</g>
<g >
</g>
<g >
</g>
<g >
</g>
<g >
</g>
<g >
</g>
<g >
</g>
<g >
</g>
<g >
</g>
<g >
</g>
<g >
</g>
<g >
</g>
<g >
</g>
<g >
</g>
<g >
</g>
<g >
</g>
<g >
</g>
<g >
</g>
<g >
</g>
<g >
</g>
</g> 
</svg>
