<?xml version="1.0" standalone="no"?>
 <!DOCTYPE svg PUBLIC "-//W3C//DTD SVG 1.1//EN" 
 "http://www.w3.org/Graphics/SVG/1.1/DTD/svg11.dtd"> 
<svg xmlns="http://www.w3.org/2000/svg" version="1.1" 
    width="13.8303cm" height="8.30834cm" viewBox="0 0 54450 32710 ">
<title>SVG Picture created as uno shield v.6 project SMD-F_Paste.svg date 2019/07/30 10:04:23 </title>
  <desc>Picture generated by PCBNEW </desc>
<g style="fill:#000000; fill-opacity:1;stroke:#000000; stroke-opacity:1;
stroke-linecap:round; stroke-linejoin:round; "
 transform="translate(0 0) scale(1 1)">
</g>
<g style="fill:#000000; fill-opacity:0.0; 
stroke:#000000; stroke-width:-0.000393701; stroke-opacity:1; 
stroke-linecap:round; stroke-linejoin:round;">
</g>
<g style="fill:#26FF16; fill-opacity:0.0; 
stroke:#26FF16; stroke-width:-0.000393701; stroke-opacity:1; 
stroke-linecap:round; stroke-linejoin:round;">
</g>
<g style="fill:#26FF16; fill-opacity:0.0; 
stroke:#26FF16; stroke-width:0.393701; stroke-opacity:1; 
stroke-linecap:round; stroke-linejoin:round;">
<path d="M40645 23857
L40540 23857
" />
<path d="M40540 23857
L40540 23770
" />
<path d="M40645 23770
L40645 23857
" />
<path d="M40540 23770
L40645 23770
" />
</g>
<g style="fill:#26FF16; fill-opacity:1.0; 
stroke:#26FF16; stroke-width:0.393701; stroke-opacity:1; 
stroke-linecap:round; stroke-linejoin:round;">
<path style="fill:#26FF16; fill-opacity:1.0; 
stroke:#26FF16; stroke-width:0.393701; stroke-opacity:1; 
stroke-linecap:round; stroke-linejoin:round;fill-rule:evenodd;"
d="M 38877,25906
38877,25410
38649,25410
38649,25906
Z" /> 
<g >
</g>
<g >
</g>
<g >
</g>
<g >
</g>
<g >
</g>
<g >
</g>
<g >
</g>
<g >
</g>
<g >
</g>
<g >
</g>
<g >
</g>
<g >
</g>
<g >
</g>
<g style="fill:#FF080E; fill-opacity:1.0; 
stroke:#FF080E; stroke-width:0.393701; stroke-opacity:1; 
stroke-linecap:round; stroke-linejoin:round;">
</g>
<g style="fill:#FF080E; fill-opacity:1.0; 
stroke:#FF080E; stroke-width:0; stroke-opacity:1; 
stroke-linecap:round; stroke-linejoin:round;">
<path style="fill:#FF080E; fill-opacity:1.0; 
stroke:#FF080E; stroke-width:0; stroke-opacity:1; 
stroke-linecap:round; stroke-linejoin:round;fill-rule:evenodd;"
d="M 37377,21562
37377,21443
37928,21443
37928,21562
37377,21562
Z" /> 
<path style="fill:#FF080E; fill-opacity:1.0; 
stroke:#FF080E; stroke-width:0; stroke-opacity:1; 
stroke-linecap:round; stroke-linejoin:round;fill-rule:evenodd;"
d="M 37377,21758
37377,21640
37928,21640
37928,21758
37377,21758
Z" /> 
<path style="fill:#FF080E; fill-opacity:1.0; 
stroke:#FF080E; stroke-width:0; stroke-opacity:1; 
stroke-linecap:round; stroke-linejoin:round;fill-rule:evenodd;"
d="M 37377,21955
37377,21837
37928,21837
37928,21955
37377,21955
Z" /> 
<path style="fill:#FF080E; fill-opacity:1.0; 
stroke:#FF080E; stroke-width:0; stroke-opacity:1; 
stroke-linecap:round; stroke-linejoin:round;fill-rule:evenodd;"
d="M 37377,22152
37377,22034
37928,22034
37928,22152
37377,22152
Z" /> 
<path style="fill:#FF080E; fill-opacity:1.0; 
stroke:#FF080E; stroke-width:0; stroke-opacity:1; 
stroke-linecap:round; stroke-linejoin:round;fill-rule:evenodd;"
d="M 37377,22349
37377,22231
37928,22231
37928,22349
37377,22349
Z" /> 
<path style="fill:#FF080E; fill-opacity:1.0; 
stroke:#FF080E; stroke-width:0; stroke-opacity:1; 
stroke-linecap:round; stroke-linejoin:round;fill-rule:evenodd;"
d="M 39109,22349
39109,22231
39661,22231
39661,22349
39109,22349
Z" /> 
<path style="fill:#FF080E; fill-opacity:1.0; 
stroke:#FF080E; stroke-width:0; stroke-opacity:1; 
stroke-linecap:round; stroke-linejoin:round;fill-rule:evenodd;"
d="M 39109,22152
39109,22034
39661,22034
39661,22152
39109,22152
Z" /> 
<path style="fill:#FF080E; fill-opacity:1.0; 
stroke:#FF080E; stroke-width:0; stroke-opacity:1; 
stroke-linecap:round; stroke-linejoin:round;fill-rule:evenodd;"
d="M 39109,21955
39109,21837
39661,21837
39661,21955
39109,21955
Z" /> 
<path style="fill:#FF080E; fill-opacity:1.0; 
stroke:#FF080E; stroke-width:0; stroke-opacity:1; 
stroke-linecap:round; stroke-linejoin:round;fill-rule:evenodd;"
d="M 39109,21758
39109,21640
39661,21640
39661,21758
39109,21758
Z" /> 
<path style="fill:#FF080E; fill-opacity:1.0; 
stroke:#FF080E; stroke-width:0; stroke-opacity:1; 
stroke-linecap:round; stroke-linejoin:round;fill-rule:evenodd;"
d="M 39109,21562
39109,21443
39661,21443
39661,21562
39109,21562
Z" /> 
</g>
<g >
</g>
<g >
<path style="fill:#FF080E; fill-opacity:1.0; 
stroke:#FF080E; stroke-width:0; stroke-opacity:1; 
stroke-linecap:round; stroke-linejoin:round;fill-rule:evenodd;"
d="M 38538,25898
38538,26016
38198,26016
38198,25898
38538,25898
Z" /> 
<path style="fill:#FF080E; fill-opacity:1.0; 
stroke:#FF080E; stroke-width:0; stroke-opacity:1; 
stroke-linecap:round; stroke-linejoin:round;fill-rule:evenodd;"
d="M 38524,25701
38524,25819
38184,25819
38184,25701
38524,25701
Z" /> 
<path style="fill:#FF080E; fill-opacity:1.0; 
stroke:#FF080E; stroke-width:0; stroke-opacity:1; 
stroke-linecap:round; stroke-linejoin:round;fill-rule:evenodd;"
d="M 38524,25504
38524,25623
38184,25623
38184,25504
38524,25504
Z" /> 
<path style="fill:#FF080E; fill-opacity:1.0; 
stroke:#FF080E; stroke-width:0; stroke-opacity:1; 
stroke-linecap:round; stroke-linejoin:round;fill-rule:evenodd;"
d="M 38538,25308
38538,25426
38198,25426
38198,25308
38538,25308
Z" /> 
<path style="fill:#FF080E; fill-opacity:1.0; 
stroke:#FF080E; stroke-width:0; stroke-opacity:1; 
stroke-linecap:round; stroke-linejoin:round;fill-rule:evenodd;"
d="M 39328,25308
39328,25426
38988,25426
38988,25308
39328,25308
Z" /> 
<path style="fill:#FF080E; fill-opacity:1.0; 
stroke:#FF080E; stroke-width:0; stroke-opacity:1; 
stroke-linecap:round; stroke-linejoin:round;fill-rule:evenodd;"
d="M 39342,25504
39342,25623
39002,25623
39002,25504
39342,25504
Z" /> 
<path style="fill:#FF080E; fill-opacity:1.0; 
stroke:#FF080E; stroke-width:0; stroke-opacity:1; 
stroke-linecap:round; stroke-linejoin:round;fill-rule:evenodd;"
d="M 39342,25701
39342,25819
39002,25819
39002,25701
39342,25701
Z" /> 
<path style="fill:#FF080E; fill-opacity:1.0; 
stroke:#FF080E; stroke-width:0; stroke-opacity:1; 
stroke-linecap:round; stroke-linejoin:round;fill-rule:evenodd;"
d="M 39328,25898
39328,26016
38988,26016
38988,25898
39328,25898
Z" /> 
</g>
<g >
<path style="fill:#FF080E; fill-opacity:1.0; 
stroke:#FF080E; stroke-width:0; stroke-opacity:1; 
stroke-linecap:round; stroke-linejoin:round;fill-rule:evenodd;"
d="M 44826,19254
44826,19373
44275,19373
44275,19254
44826,19254
Z" /> 
<path style="fill:#FF080E; fill-opacity:1.0; 
stroke:#FF080E; stroke-width:0; stroke-opacity:1; 
stroke-linecap:round; stroke-linejoin:round;fill-rule:evenodd;"
d="M 44826,19058
44826,19176
44275,19176
44275,19058
44826,19058
Z" /> 
<path style="fill:#FF080E; fill-opacity:1.0; 
stroke:#FF080E; stroke-width:0; stroke-opacity:1; 
stroke-linecap:round; stroke-linejoin:round;fill-rule:evenodd;"
d="M 44826,18861
44826,18979
44275,18979
44275,18861
44826,18861
Z" /> 
<path style="fill:#FF080E; fill-opacity:1.0; 
stroke:#FF080E; stroke-width:0; stroke-opacity:1; 
stroke-linecap:round; stroke-linejoin:round;fill-rule:evenodd;"
d="M 44826,18664
44826,18782
44275,18782
44275,18664
44826,18664
Z" /> 
<path style="fill:#FF080E; fill-opacity:1.0; 
stroke:#FF080E; stroke-width:0; stroke-opacity:1; 
stroke-linecap:round; stroke-linejoin:round;fill-rule:evenodd;"
d="M 44826,18467
44826,18585
44275,18585
44275,18467
44826,18467
Z" /> 
<path style="fill:#FF080E; fill-opacity:1.0; 
stroke:#FF080E; stroke-width:0; stroke-opacity:1; 
stroke-linecap:round; stroke-linejoin:round;fill-rule:evenodd;"
d="M 46558,18467
46558,18585
46007,18585
46007,18467
46558,18467
Z" /> 
<path style="fill:#FF080E; fill-opacity:1.0; 
stroke:#FF080E; stroke-width:0; stroke-opacity:1; 
stroke-linecap:round; stroke-linejoin:round;fill-rule:evenodd;"
d="M 46558,18664
46558,18782
46007,18782
46007,18664
46558,18664
Z" /> 
<path style="fill:#FF080E; fill-opacity:1.0; 
stroke:#FF080E; stroke-width:0; stroke-opacity:1; 
stroke-linecap:round; stroke-linejoin:round;fill-rule:evenodd;"
d="M 46558,18861
46558,18979
46007,18979
46007,18861
46558,18861
Z" /> 
<path style="fill:#FF080E; fill-opacity:1.0; 
stroke:#FF080E; stroke-width:0; stroke-opacity:1; 
stroke-linecap:round; stroke-linejoin:round;fill-rule:evenodd;"
d="M 46558,19058
46558,19176
46007,19176
46007,19058
46558,19058
Z" /> 
<path style="fill:#FF080E; fill-opacity:1.0; 
stroke:#FF080E; stroke-width:0; stroke-opacity:1; 
stroke-linecap:round; stroke-linejoin:round;fill-rule:evenodd;"
d="M 46558,19254
46558,19373
46007,19373
46007,19254
46558,19254
Z" /> 
</g>
<g >
</g>
<g >
</g>
<g >
</g>
<g >
</g>
<g >
<path style="fill:#FF080E; fill-opacity:1.0; 
stroke:#FF080E; stroke-width:0; stroke-opacity:1; 
stroke-linecap:round; stroke-linejoin:round;fill-rule:evenodd;"
d="M 41791,16830
41800,16831
41809,16833
41817,16836
41826,16840
41834,16845
41841,16850
41848,16857
41854,16863
41859,16871
41864,16879
41868,16887
41871,16896
41873,16904
41875,16914
41875,16923
41875,17149
41875,17158
41873,17167
41871,17176
41868,17185
41864,17193
41859,17201
41854,17208
41848,17215
41841,17221
41834,17227
41826,17232
41817,17235
41809,17239
41800,17241
41791,17242
41782,17243
41595,17243
41586,17242
41576,17241
41568,17239
41559,17235
41551,17232
41543,17227
41535,17221
41529,17215
41522,17208
41517,17201
41512,17193
41508,17185
41505,17176
41503,17167
41502,17158
41501,17149
41501,16923
41502,16914
41503,16904
41505,16896
41508,16887
41512,16879
41517,16871
41522,16863
41529,16857
41535,16850
41543,16845
41551,16840
41559,16836
41568,16833
41576,16831
41586,16830
41595,16829
41782,16829
41791,16830
Z" /> 
<path style="fill:#FF080E; fill-opacity:1.0; 
stroke:#FF080E; stroke-width:0; stroke-opacity:1; 
stroke-linecap:round; stroke-linejoin:round;fill-rule:evenodd;"
d="M 41791,17519
41800,17520
41809,17522
41817,17525
41826,17529
41834,17534
41841,17539
41848,17546
41854,17552
41859,17560
41864,17568
41868,17576
41871,17585
41873,17593
41875,17603
41875,17612
41875,17838
41875,17847
41873,17856
41871,17865
41868,17874
41864,17882
41859,17890
41854,17897
41848,17904
41841,17910
41834,17916
41826,17921
41817,17924
41809,17928
41800,17930
41791,17931
41782,17932
41595,17932
41586,17931
41576,17930
41568,17928
41559,17924
41551,17921
41543,17916
41535,17910
41529,17904
41522,17897
41517,17890
41512,17882
41508,17874
41505,17865
41503,17856
41502,17847
41501,17838
41501,17612
41502,17603
41503,17593
41505,17585
41508,17576
41512,17568
41517,17560
41522,17552
41529,17546
41535,17539
41543,17534
41551,17529
41559,17525
41568,17522
41576,17520
41586,17519
41595,17518
41782,17518
41791,17519
Z" /> 
</g>
<g >
</g>
<g >
<path style="fill:#FF080E; fill-opacity:1.0; 
stroke:#FF080E; stroke-width:0; stroke-opacity:1; 
stroke-linecap:round; stroke-linejoin:round;fill-rule:evenodd;"
d="M 43818,16629
43827,16630
43836,16632
43845,16636
43853,16639
43861,16644
43869,16650
43875,16656
43882,16663
43887,16670
43892,16678
43896,16686
43899,16695
43901,16704
43902,16713
43903,16722
43903,16948
43902,16957
43901,16967
43899,16975
43896,16984
43892,16992
43887,17000
43882,17008
43875,17014
43869,17021
43861,17026
43853,17031
43845,17035
43836,17038
43827,17040
43818,17041
43809,17042
43622,17042
43613,17041
43604,17040
43595,17038
43586,17035
43578,17031
43570,17026
43563,17021
43556,17014
43550,17008
43545,17000
43540,16992
43536,16984
43533,16975
43531,16967
43529,16957
43529,16948
43529,16722
43529,16713
43531,16704
43533,16695
43536,16686
43540,16678
43545,16670
43550,16663
43556,16656
43563,16650
43570,16644
43578,16639
43586,16636
43595,16632
43604,16630
43613,16629
43622,16628
43809,16628
43818,16629
Z" /> 
<path style="fill:#FF080E; fill-opacity:1.0; 
stroke:#FF080E; stroke-width:0; stroke-opacity:1; 
stroke-linecap:round; stroke-linejoin:round;fill-rule:evenodd;"
d="M 43818,15940
43827,15941
43836,15943
43845,15947
43853,15951
43861,15955
43869,15961
43875,15967
43882,15974
43887,15981
43892,15989
43896,15997
43899,16006
43901,16015
43902,16024
43903,16033
43903,16259
43902,16269
43901,16278
43899,16286
43896,16295
43892,16303
43887,16311
43882,16319
43875,16325
43869,16332
43861,16337
43853,16342
43845,16346
43836,16349
43827,16351
43818,16352
43809,16353
43622,16353
43613,16352
43604,16351
43595,16349
43586,16346
43578,16342
43570,16337
43563,16332
43556,16325
43550,16319
43545,16311
43540,16303
43536,16295
43533,16286
43531,16278
43529,16269
43529,16259
43529,16033
43529,16024
43531,16015
43533,16006
43536,15997
43540,15989
43545,15981
43550,15974
43556,15967
43563,15961
43570,15955
43578,15951
43586,15947
43595,15943
43604,15941
43613,15940
43622,15939
43809,15939
43818,15940
Z" /> 
</g>
<g >
</g>
<g >
</g>
<g >
</g>
<g >
</g>
<g >
</g>
<g >
</g>
<g >
</g>
<g >
</g>
<g >
</g>
<g >
<path style="fill:#FF080E; fill-opacity:1.0; 
stroke:#FF080E; stroke-width:0; stroke-opacity:1; 
stroke-linecap:round; stroke-linejoin:round;fill-rule:evenodd;"
d="M 40362,24302
40371,24303
40380,24306
40388,24309
40397,24313
40405,24317
40412,24323
40419,24329
40425,24336
40430,24343
40435,24351
40439,24359
40442,24368
40444,24377
40446,24386
40446,24395
40446,24622
40446,24631
40444,24640
40442,24649
40439,24657
40435,24666
40430,24673
40425,24681
40419,24688
40412,24694
40405,24699
40397,24704
40388,24708
40380,24711
40371,24713
40362,24715
40353,24715
40166,24715
40156,24715
40147,24713
40138,24711
40130,24708
40121,24704
40114,24699
40106,24694
40099,24688
40093,24681
40088,24673
40083,24666
40079,24657
40076,24649
40074,24640
40073,24631
40072,24622
40072,24395
40073,24386
40074,24377
40076,24368
40079,24359
40083,24351
40088,24343
40093,24336
40099,24329
40106,24323
40114,24317
40121,24313
40130,24309
40138,24306
40147,24303
40156,24302
40166,24302
40353,24302
40362,24302
Z" /> 
<path style="fill:#FF080E; fill-opacity:1.0; 
stroke:#FF080E; stroke-width:0; stroke-opacity:1; 
stroke-linecap:round; stroke-linejoin:round;fill-rule:evenodd;"
d="M 40362,23613
40371,23614
40380,23617
40388,23620
40397,23624
40405,23628
40412,23634
40419,23640
40425,23647
40430,23654
40435,23662
40439,23670
40442,23679
40444,23688
40446,23697
40446,23706
40446,23933
40446,23942
40444,23951
40442,23960
40439,23968
40435,23977
40430,23985
40425,23992
40419,23999
40412,24005
40405,24010
40397,24015
40388,24019
40380,24022
40371,24024
40362,24026
40353,24026
40166,24026
40156,24026
40147,24024
40138,24022
40130,24019
40121,24015
40114,24010
40106,24005
40099,23999
40093,23992
40088,23985
40083,23977
40079,23968
40076,23960
40074,23951
40073,23942
40072,23933
40072,23706
40073,23697
40074,23688
40076,23679
40079,23670
40083,23662
40088,23654
40093,23647
40099,23640
40106,23634
40114,23628
40121,23624
40130,23620
40138,23617
40147,23614
40156,23613
40166,23613
40353,23613
40362,23613
Z" /> 
</g>
<g >
<path style="fill:#FF080E; fill-opacity:1.0; 
stroke:#FF080E; stroke-width:0; stroke-opacity:1; 
stroke-linecap:round; stroke-linejoin:round;fill-rule:evenodd;"
d="M 30216,11943
30216,12258
29468,12258
29468,11943
30216,11943
Z" /> 
<path style="fill:#FF080E; fill-opacity:1.0; 
stroke:#FF080E; stroke-width:0; stroke-opacity:1; 
stroke-linecap:round; stroke-linejoin:round;fill-rule:evenodd;"
d="M 30216,11195
30216,11510
29468,11510
29468,11195
30216,11195
Z" /> 
<path style="fill:#FF080E; fill-opacity:1.0; 
stroke:#FF080E; stroke-width:0; stroke-opacity:1; 
stroke-linecap:round; stroke-linejoin:round;fill-rule:evenodd;"
d="M 29035,11569
29035,11884
28287,11884
28287,11569
29035,11569
Z" /> 
</g>
<g >
<path style="fill:#FF080E; fill-opacity:1.0; 
stroke:#FF080E; stroke-width:0; stroke-opacity:1; 
stroke-linecap:round; stroke-linejoin:round;fill-rule:evenodd;"
d="M 30216,13333
30216,13648
29468,13648
29468,13333
30216,13333
Z" /> 
<path style="fill:#FF080E; fill-opacity:1.0; 
stroke:#FF080E; stroke-width:0; stroke-opacity:1; 
stroke-linecap:round; stroke-linejoin:round;fill-rule:evenodd;"
d="M 30216,12585
30216,12900
29468,12900
29468,12585
30216,12585
Z" /> 
<path style="fill:#FF080E; fill-opacity:1.0; 
stroke:#FF080E; stroke-width:0; stroke-opacity:1; 
stroke-linecap:round; stroke-linejoin:round;fill-rule:evenodd;"
d="M 29035,12959
29035,13274
28287,13274
28287,12959
29035,12959
Z" /> 
</g>
<g >
<path style="fill:#FF080E; fill-opacity:1.0; 
stroke:#FF080E; stroke-width:0; stroke-opacity:1; 
stroke-linecap:round; stroke-linejoin:round;fill-rule:evenodd;"
d="M 28287,14278
28287,13963
29035,13963
29035,14278
28287,14278
Z" /> 
<path style="fill:#FF080E; fill-opacity:1.0; 
stroke:#FF080E; stroke-width:0; stroke-opacity:1; 
stroke-linecap:round; stroke-linejoin:round;fill-rule:evenodd;"
d="M 28287,15026
28287,14711
29035,14711
29035,15026
28287,15026
Z" /> 
<path style="fill:#FF080E; fill-opacity:1.0; 
stroke:#FF080E; stroke-width:0; stroke-opacity:1; 
stroke-linecap:round; stroke-linejoin:round;fill-rule:evenodd;"
d="M 29468,14652
29468,14337
30216,14337
30216,14652
29468,14652
Z" /> 
</g>
<g >
<path style="fill:#FF080E; fill-opacity:1.0; 
stroke:#FF080E; stroke-width:0; stroke-opacity:1; 
stroke-linecap:round; stroke-linejoin:round;fill-rule:evenodd;"
d="M 34015,12782
34015,13097
33267,13097
33267,12782
34015,12782
Z" /> 
<path style="fill:#FF080E; fill-opacity:1.0; 
stroke:#FF080E; stroke-width:0; stroke-opacity:1; 
stroke-linecap:round; stroke-linejoin:round;fill-rule:evenodd;"
d="M 34015,12034
34015,12349
33267,12349
33267,12034
34015,12034
Z" /> 
<path style="fill:#FF080E; fill-opacity:1.0; 
stroke:#FF080E; stroke-width:0; stroke-opacity:1; 
stroke-linecap:round; stroke-linejoin:round;fill-rule:evenodd;"
d="M 32834,12408
32834,12723
32086,12723
32086,12408
32834,12408
Z" /> 
</g>
<g >
<path style="fill:#FF080E; fill-opacity:1.0; 
stroke:#FF080E; stroke-width:0; stroke-opacity:1; 
stroke-linecap:round; stroke-linejoin:round;fill-rule:evenodd;"
d="M 34027,14191
34027,14506
33279,14506
33279,14191
34027,14191
Z" /> 
<path style="fill:#FF080E; fill-opacity:1.0; 
stroke:#FF080E; stroke-width:0; stroke-opacity:1; 
stroke-linecap:round; stroke-linejoin:round;fill-rule:evenodd;"
d="M 34027,13443
34027,13758
33279,13758
33279,13443
34027,13443
Z" /> 
<path style="fill:#FF080E; fill-opacity:1.0; 
stroke:#FF080E; stroke-width:0; stroke-opacity:1; 
stroke-linecap:round; stroke-linejoin:round;fill-rule:evenodd;"
d="M 32846,13817
32846,14132
32098,14132
32098,13817
32846,13817
Z" /> 
</g>
<g >
</g>
<g >
</g>
<g >
</g>
<g >
</g>
<g >
<path style="fill:#FF080E; fill-opacity:1.0; 
stroke:#FF080E; stroke-width:0; stroke-opacity:1; 
stroke-linecap:round; stroke-linejoin:round;fill-rule:evenodd;"
d="M 26516,14052
26524,14053
26533,14055
26541,14058
26548,14062
26555,14066
26562,14071
26568,14077
26574,14083
26579,14090
26584,14097
26587,14105
26590,14113
26592,14121
26593,14129
26594,14138
26594,14340
26593,14348
26592,14356
26590,14365
26587,14373
26584,14380
26579,14387
26574,14394
26568,14400
26562,14406
26555,14411
26548,14416
26541,14419
26533,14422
26524,14424
26516,14425
26508,14426
26335,14426
26327,14425
26319,14424
26310,14422
26302,14419
26295,14416
26287,14411
26281,14406
26274,14400
26269,14394
26264,14387
26259,14380
26256,14373
26253,14365
26251,14356
26250,14348
26249,14340
26249,14138
26250,14129
26251,14121
26253,14113
26256,14105
26259,14097
26264,14090
26269,14083
26274,14077
26281,14071
26287,14066
26295,14062
26302,14058
26310,14055
26319,14053
26327,14052
26335,14052
26508,14052
26516,14052
Z" /> 
<path style="fill:#FF080E; fill-opacity:1.0; 
stroke:#FF080E; stroke-width:0; stroke-opacity:1; 
stroke-linecap:round; stroke-linejoin:round;fill-rule:evenodd;"
d="M 27136,14052
27144,14053
27153,14055
27161,14058
27168,14062
27176,14066
27182,14071
27189,14077
27194,14083
27199,14090
27204,14097
27207,14105
27210,14113
27212,14121
27213,14129
27214,14138
27214,14340
27213,14348
27212,14356
27210,14365
27207,14373
27204,14380
27199,14387
27194,14394
27189,14400
27182,14406
27176,14411
27168,14416
27161,14419
27153,14422
27144,14424
27136,14425
27128,14426
26955,14426
26947,14425
26939,14424
26930,14422
26922,14419
26915,14416
26908,14411
26901,14406
26895,14400
26889,14394
26884,14387
26879,14380
26876,14373
26873,14365
26871,14356
26870,14348
26869,14340
26869,14138
26870,14129
26871,14121
26873,14113
26876,14105
26879,14097
26884,14090
26889,14083
26895,14077
26901,14071
26908,14066
26915,14062
26922,14058
26930,14055
26939,14053
26947,14052
26955,14052
27128,14052
27136,14052
Z" /> 
</g>
<g >
<path style="fill:#FF080E; fill-opacity:1.0; 
stroke:#FF080E; stroke-width:0; stroke-opacity:1; 
stroke-linecap:round; stroke-linejoin:round;fill-rule:evenodd;"
d="M 27069,10820
27078,10821
27086,10823
27094,10826
27101,10830
27109,10834
27115,10839
27122,10845
27127,10851
27132,10858
27137,10865
27140,10873
27143,10881
27145,10889
27146,10897
27147,10906
27147,11078
27146,11086
27145,11095
27143,11103
27140,11111
27137,11118
27132,11126
27127,11132
27122,11139
27115,11144
27109,11149
27101,11154
27094,11157
27086,11160
27078,11162
27069,11163
27061,11164
26859,11164
26851,11163
26842,11162
26834,11160
26826,11157
26818,11154
26811,11149
26804,11144
26798,11139
26792,11132
26787,11126
26783,11118
26779,11111
26777,11103
26774,11095
26773,11086
26773,11078
26773,10906
26773,10897
26774,10889
26777,10881
26779,10873
26783,10865
26787,10858
26792,10851
26798,10845
26804,10839
26811,10834
26818,10830
26826,10826
26834,10823
26842,10821
26851,10820
26859,10819
27061,10819
27069,10820
Z" /> 
<path style="fill:#FF080E; fill-opacity:1.0; 
stroke:#FF080E; stroke-width:0; stroke-opacity:1; 
stroke-linecap:round; stroke-linejoin:round;fill-rule:evenodd;"
d="M 27069,11440
27078,11441
27086,11443
27094,11446
27101,11450
27109,11454
27115,11459
27122,11465
27127,11471
27132,11478
27137,11485
27140,11493
27143,11501
27145,11509
27146,11517
27147,11526
27147,11698
27146,11706
27145,11715
27143,11723
27140,11731
27137,11738
27132,11746
27127,11752
27122,11759
27115,11764
27109,11769
27101,11774
27094,11777
27086,11780
27078,11782
27069,11784
27061,11784
26859,11784
26851,11784
26842,11782
26834,11780
26826,11777
26818,11774
26811,11769
26804,11764
26798,11759
26792,11752
26787,11746
26783,11738
26779,11731
26777,11723
26774,11715
26773,11706
26773,11698
26773,11526
26773,11517
26774,11509
26777,11501
26779,11493
26783,11485
26787,11478
26792,11471
26798,11465
26804,11459
26811,11454
26818,11450
26826,11446
26834,11443
26842,11441
26851,11440
26859,11439
27061,11439
27069,11440
Z" /> 
</g>
<g >
</g>
<g >
</g>
<g >
<path style="fill:#FF080E; fill-opacity:1.0; 
stroke:#FF080E; stroke-width:0; stroke-opacity:1; 
stroke-linecap:round; stroke-linejoin:round;fill-rule:evenodd;"
d="M 33927,21927
33936,21928
33944,21930
33952,21933
33960,21937
33967,21941
33974,21946
33980,21952
33986,21958
33991,21965
33995,21972
33999,21980
34001,21988
34003,21996
34005,22004
34005,22013
34005,22185
34005,22193
34003,22202
34001,22210
33999,22218
33995,22226
33991,22233
33986,22240
33980,22246
33974,22252
33967,22257
33960,22261
33952,22265
33944,22267
33936,22269
33927,22271
33919,22271
33717,22271
33709,22271
33700,22269
33692,22267
33684,22265
33677,22261
33669,22257
33663,22252
33656,22246
33651,22240
33646,22233
33641,22226
33638,22218
33635,22210
33633,22202
33632,22193
33631,22185
33631,22013
33632,22004
33633,21996
33635,21988
33638,21980
33641,21972
33646,21965
33651,21958
33656,21952
33663,21946
33669,21941
33677,21937
33684,21933
33692,21930
33700,21928
33709,21927
33717,21927
33919,21927
33927,21927
Z" /> 
<path style="fill:#FF080E; fill-opacity:1.0; 
stroke:#FF080E; stroke-width:0; stroke-opacity:1; 
stroke-linecap:round; stroke-linejoin:round;fill-rule:evenodd;"
d="M 33927,22547
33936,22548
33944,22550
33952,22553
33960,22557
33967,22561
33974,22566
33980,22572
33986,22578
33991,22585
33995,22592
33999,22600
34001,22608
34003,22616
34005,22624
34005,22633
34005,22805
34005,22814
34003,22822
34001,22830
33999,22838
33995,22846
33991,22853
33986,22860
33980,22866
33974,22872
33967,22877
33960,22881
33952,22885
33944,22888
33936,22890
33927,22891
33919,22891
33717,22891
33709,22891
33700,22890
33692,22888
33684,22885
33677,22881
33669,22877
33663,22872
33656,22866
33651,22860
33646,22853
33641,22846
33638,22838
33635,22830
33633,22822
33632,22814
33631,22805
33631,22633
33632,22624
33633,22616
33635,22608
33638,22600
33641,22592
33646,22585
33651,22578
33656,22572
33663,22566
33669,22561
33677,22557
33684,22553
33692,22550
33700,22548
33709,22547
33717,22547
33919,22547
33927,22547
Z" /> 
</g>
<g >
</g>
<g >
</g>
<g >
</g>
<g >
</g>
<g >
</g>
<g >
<path style="fill:#FF080E; fill-opacity:1.0; 
stroke:#FF080E; stroke-width:0; stroke-opacity:1; 
stroke-linecap:round; stroke-linejoin:round;fill-rule:evenodd;"
d="M 39244,20213
39253,20215
39261,20217
39269,20220
39277,20223
39284,20228
39291,20233
39297,20238
39303,20245
39308,20251
39312,20259
39315,20266
39318,20274
39320,20282
39322,20291
39322,20299
39322,20501
39322,20509
39320,20518
39318,20526
39315,20534
39312,20542
39308,20549
39303,20556
39297,20562
39291,20568
39284,20573
39277,20577
39269,20581
39261,20583
39253,20585
39244,20587
39236,20587
39064,20587
39055,20587
39047,20585
39039,20583
39031,20581
39023,20577
39016,20573
39009,20568
39003,20562
38997,20556
38992,20549
38988,20542
38984,20534
38981,20526
38979,20518
38978,20509
38978,20501
38978,20299
38978,20291
38979,20282
38981,20274
38984,20266
38988,20259
38992,20251
38997,20245
39003,20238
39009,20233
39016,20228
39023,20223
39031,20220
39039,20217
39047,20215
39055,20213
39064,20213
39236,20213
39244,20213
Z" /> 
<path style="fill:#FF080E; fill-opacity:1.0; 
stroke:#FF080E; stroke-width:0; stroke-opacity:1; 
stroke-linecap:round; stroke-linejoin:round;fill-rule:evenodd;"
d="M 39864,20213
39873,20215
39881,20217
39889,20220
39897,20223
39904,20228
39911,20233
39917,20238
39923,20245
39928,20251
39932,20259
39936,20266
39938,20274
39940,20282
39942,20291
39942,20299
39942,20501
39942,20509
39940,20518
39938,20526
39936,20534
39932,20542
39928,20549
39923,20556
39917,20562
39911,20568
39904,20573
39897,20577
39889,20581
39881,20583
39873,20585
39864,20587
39856,20587
39684,20587
39675,20587
39667,20585
39659,20583
39651,20581
39643,20577
39636,20573
39629,20568
39623,20562
39617,20556
39612,20549
39608,20542
39604,20534
39601,20526
39599,20518
39598,20509
39598,20501
39598,20299
39598,20291
39599,20282
39601,20274
39604,20266
39608,20259
39612,20251
39617,20245
39623,20238
39629,20233
39636,20228
39643,20223
39651,20220
39659,20217
39667,20215
39675,20213
39684,20213
39856,20213
39864,20213
Z" /> 
</g>
<g >
</g>
<g >
<path style="fill:#FF080E; fill-opacity:1.0; 
stroke:#FF080E; stroke-width:0; stroke-opacity:1; 
stroke-linecap:round; stroke-linejoin:round;fill-rule:evenodd;"
d="M 42848,23410
43084,23410
43084,24020
42848,24020
42848,23410
Z" /> 
<path style="fill:#FF080E; fill-opacity:1.0; 
stroke:#FF080E; stroke-width:0; stroke-opacity:1; 
stroke-linecap:round; stroke-linejoin:round;fill-rule:evenodd;"
d="M 42348,23410
42584,23410
42584,24020
42348,24020
42348,23410
Z" /> 
<path style="fill:#FF080E; fill-opacity:1.0; 
stroke:#FF080E; stroke-width:0; stroke-opacity:1; 
stroke-linecap:round; stroke-linejoin:round;fill-rule:evenodd;"
d="M 41848,23410
42084,23410
42084,24020
41848,24020
41848,23410
Z" /> 
<path style="fill:#FF080E; fill-opacity:1.0; 
stroke:#FF080E; stroke-width:0; stroke-opacity:1; 
stroke-linecap:round; stroke-linejoin:round;fill-rule:evenodd;"
d="M 41348,23410
41584,23410
41584,24020
41348,24020
41348,23410
Z" /> 
<path style="fill:#FF080E; fill-opacity:1.0; 
stroke:#FF080E; stroke-width:0; stroke-opacity:1; 
stroke-linecap:round; stroke-linejoin:round;fill-rule:evenodd;"
d="M 41348,25536
41584,25536
41584,26146
41348,26146
41348,25536
Z" /> 
<path style="fill:#FF080E; fill-opacity:1.0; 
stroke:#FF080E; stroke-width:0; stroke-opacity:1; 
stroke-linecap:round; stroke-linejoin:round;fill-rule:evenodd;"
d="M 41848,25536
42084,25536
42084,26146
41848,26146
41848,25536
Z" /> 
<path style="fill:#FF080E; fill-opacity:1.0; 
stroke:#FF080E; stroke-width:0; stroke-opacity:1; 
stroke-linecap:round; stroke-linejoin:round;fill-rule:evenodd;"
d="M 42348,25536
42584,25536
42584,26146
42348,26146
42348,25536
Z" /> 
<path style="fill:#FF080E; fill-opacity:1.0; 
stroke:#FF080E; stroke-width:0; stroke-opacity:1; 
stroke-linecap:round; stroke-linejoin:round;fill-rule:evenodd;"
d="M 42848,25536
43084,25536
43084,26146
42848,26146
42848,25536
Z" /> 
</g>
<g >
<path style="fill:#FF080E; fill-opacity:1.0; 
stroke:#FF080E; stroke-width:0; stroke-opacity:1; 
stroke-linecap:round; stroke-linejoin:round;fill-rule:evenodd;"
d="M 42694,20252
42930,20252
42930,20863
42694,20863
42694,20252
Z" /> 
<path style="fill:#FF080E; fill-opacity:1.0; 
stroke:#FF080E; stroke-width:0; stroke-opacity:1; 
stroke-linecap:round; stroke-linejoin:round;fill-rule:evenodd;"
d="M 42194,20252
42430,20252
42430,20863
42194,20863
42194,20252
Z" /> 
<path style="fill:#FF080E; fill-opacity:1.0; 
stroke:#FF080E; stroke-width:0; stroke-opacity:1; 
stroke-linecap:round; stroke-linejoin:round;fill-rule:evenodd;"
d="M 41694,20252
41930,20252
41930,20863
41694,20863
41694,20252
Z" /> 
<path style="fill:#FF080E; fill-opacity:1.0; 
stroke:#FF080E; stroke-width:0; stroke-opacity:1; 
stroke-linecap:round; stroke-linejoin:round;fill-rule:evenodd;"
d="M 41194,20252
41430,20252
41430,20863
41194,20863
41194,20252
Z" /> 
<path style="fill:#FF080E; fill-opacity:1.0; 
stroke:#FF080E; stroke-width:0; stroke-opacity:1; 
stroke-linecap:round; stroke-linejoin:round;fill-rule:evenodd;"
d="M 41194,22378
41430,22378
41430,22989
41194,22989
41194,22378
Z" /> 
<path style="fill:#FF080E; fill-opacity:1.0; 
stroke:#FF080E; stroke-width:0; stroke-opacity:1; 
stroke-linecap:round; stroke-linejoin:round;fill-rule:evenodd;"
d="M 41694,22378
41930,22378
41930,22989
41694,22989
41694,22378
Z" /> 
<path style="fill:#FF080E; fill-opacity:1.0; 
stroke:#FF080E; stroke-width:0; stroke-opacity:1; 
stroke-linecap:round; stroke-linejoin:round;fill-rule:evenodd;"
d="M 42194,22378
42430,22378
42430,22989
42194,22989
42194,22378
Z" /> 
<path style="fill:#FF080E; fill-opacity:1.0; 
stroke:#FF080E; stroke-width:0; stroke-opacity:1; 
stroke-linecap:round; stroke-linejoin:round;fill-rule:evenodd;"
d="M 42694,22378
42930,22378
42930,22989
42694,22989
42694,22378
Z" /> 
</g>
<g >
</g>
<g >
<path style="fill:#FF080E; fill-opacity:1.0; 
stroke:#FF080E; stroke-width:0; stroke-opacity:1; 
stroke-linecap:round; stroke-linejoin:round;fill-rule:evenodd;"
d="M 34285,24908
34285,25144
33674,25144
33674,24908
34285,24908
Z" /> 
<path style="fill:#FF080E; fill-opacity:1.0; 
stroke:#FF080E; stroke-width:0; stroke-opacity:1; 
stroke-linecap:round; stroke-linejoin:round;fill-rule:evenodd;"
d="M 34285,24408
34285,24644
33674,24644
33674,24408
34285,24408
Z" /> 
<path style="fill:#FF080E; fill-opacity:1.0; 
stroke:#FF080E; stroke-width:0; stroke-opacity:1; 
stroke-linecap:round; stroke-linejoin:round;fill-rule:evenodd;"
d="M 34285,23908
34285,24144
33674,24144
33674,23908
34285,23908
Z" /> 
<path style="fill:#FF080E; fill-opacity:1.0; 
stroke:#FF080E; stroke-width:0; stroke-opacity:1; 
stroke-linecap:round; stroke-linejoin:round;fill-rule:evenodd;"
d="M 34285,23408
34285,23644
33674,23644
33674,23408
34285,23408
Z" /> 
<path style="fill:#FF080E; fill-opacity:1.0; 
stroke:#FF080E; stroke-width:0; stroke-opacity:1; 
stroke-linecap:round; stroke-linejoin:round;fill-rule:evenodd;"
d="M 36411,23408
36411,23644
35800,23644
35800,23408
36411,23408
Z" /> 
<path style="fill:#FF080E; fill-opacity:1.0; 
stroke:#FF080E; stroke-width:0; stroke-opacity:1; 
stroke-linecap:round; stroke-linejoin:round;fill-rule:evenodd;"
d="M 36411,23908
36411,24144
35800,24144
35800,23908
36411,23908
Z" /> 
<path style="fill:#FF080E; fill-opacity:1.0; 
stroke:#FF080E; stroke-width:0; stroke-opacity:1; 
stroke-linecap:round; stroke-linejoin:round;fill-rule:evenodd;"
d="M 36411,24408
36411,24644
35800,24644
35800,24408
36411,24408
Z" /> 
<path style="fill:#FF080E; fill-opacity:1.0; 
stroke:#FF080E; stroke-width:0; stroke-opacity:1; 
stroke-linecap:round; stroke-linejoin:round;fill-rule:evenodd;"
d="M 36411,24908
36411,25144
35800,25144
35800,24908
36411,24908
Z" /> 
</g>
<g >
</g>
<g >
</g>
<g >
<path style="fill:#FF080E; fill-opacity:1.0; 
stroke:#FF080E; stroke-width:0; stroke-opacity:1; 
stroke-linecap:round; stroke-linejoin:round;fill-rule:evenodd;"
d="M 34605,26129
34613,26130
34621,26132
34629,26135
34637,26139
34644,26143
34651,26148
34657,26154
34663,26160
34668,26167
34672,26174
34676,26182
34679,26190
34681,26198
34682,26206
34682,26215
34682,26387
34682,26395
34681,26404
34679,26412
34676,26420
34672,26427
34668,26435
34663,26441
34657,26448
34651,26453
34644,26458
34637,26463
34629,26466
34621,26469
34613,26471
34605,26473
34596,26473
34394,26473
34386,26473
34378,26471
34369,26469
34361,26466
34354,26463
34347,26458
34340,26453
34333,26448
34328,26441
34323,26435
34318,26427
34315,26420
34312,26412
34310,26404
34309,26395
34308,26387
34308,26215
34309,26206
34310,26198
34312,26190
34315,26182
34318,26174
34323,26167
34328,26160
34333,26154
34340,26148
34347,26143
34354,26139
34361,26135
34369,26132
34378,26130
34386,26129
34394,26128
34596,26128
34605,26129
Z" /> 
<path style="fill:#FF080E; fill-opacity:1.0; 
stroke:#FF080E; stroke-width:0; stroke-opacity:1; 
stroke-linecap:round; stroke-linejoin:round;fill-rule:evenodd;"
d="M 34605,25509
34613,25510
34621,25512
34629,25515
34637,25519
34644,25523
34651,25528
34657,25534
34663,25540
34668,25547
34672,25554
34676,25562
34679,25569
34681,25578
34682,25586
34682,25594
34682,25767
34682,25775
34681,25784
34679,25792
34676,25800
34672,25807
34668,25815
34663,25821
34657,25828
34651,25833
34644,25838
34637,25843
34629,25846
34621,25849
34613,25851
34605,25852
34596,25853
34394,25853
34386,25852
34378,25851
34369,25849
34361,25846
34354,25843
34347,25838
34340,25833
34333,25828
34328,25821
34323,25815
34318,25807
34315,25800
34312,25792
34310,25784
34309,25775
34308,25767
34308,25594
34309,25586
34310,25578
34312,25569
34315,25562
34318,25554
34323,25547
34328,25540
34333,25534
34340,25528
34347,25523
34354,25519
34361,25515
34369,25512
34378,25510
34386,25509
34394,25508
34596,25508
34605,25509
Z" /> 
</g>
<g >
<path style="fill:#FF080E; fill-opacity:1.0; 
stroke:#FF080E; stroke-width:0; stroke-opacity:1; 
stroke-linecap:round; stroke-linejoin:round;fill-rule:evenodd;"
d="M 40624,25072
40633,25073
40641,25075
40649,25078
40656,25082
40664,25086
40670,25091
40677,25097
40682,25103
40687,25110
40692,25117
40695,25125
40698,25132
40700,25141
40702,25149
40702,25157
40702,25330
40702,25338
40700,25347
40698,25355
40695,25363
40692,25370
40687,25378
40682,25384
40677,25391
40670,25396
40664,25401
40656,25406
40649,25409
40641,25412
40633,25414
40624,25415
40616,25416
40414,25416
40406,25415
40397,25414
40389,25412
40381,25409
40373,25406
40366,25401
40359,25396
40353,25391
40348,25384
40342,25378
40338,25370
40335,25363
40332,25355
40330,25347
40328,25338
40328,25330
40328,25157
40328,25149
40330,25141
40332,25132
40335,25125
40338,25117
40342,25110
40348,25103
40353,25097
40359,25091
40366,25086
40373,25082
40381,25078
40389,25075
40397,25073
40406,25072
40414,25071
40616,25071
40624,25072
Z" /> 
<path style="fill:#FF080E; fill-opacity:1.0; 
stroke:#FF080E; stroke-width:0; stroke-opacity:1; 
stroke-linecap:round; stroke-linejoin:round;fill-rule:evenodd;"
d="M 40624,25692
40633,25693
40641,25695
40649,25698
40656,25702
40664,25706
40670,25711
40677,25717
40682,25723
40687,25730
40692,25737
40695,25745
40698,25753
40700,25761
40702,25769
40702,25778
40702,25950
40702,25958
40700,25967
40698,25975
40695,25983
40692,25990
40687,25998
40682,26004
40677,26011
40670,26016
40664,26021
40656,26026
40649,26029
40641,26032
40633,26034
40624,26036
40616,26036
40414,26036
40406,26036
40397,26034
40389,26032
40381,26029
40373,26026
40366,26021
40359,26016
40353,26011
40348,26004
40342,25998
40338,25990
40335,25983
40332,25975
40330,25967
40328,25958
40328,25950
40328,25778
40328,25769
40330,25761
40332,25753
40335,25745
40338,25737
40342,25730
40348,25723
40353,25717
40359,25711
40366,25706
40373,25702
40381,25698
40389,25695
40397,25693
40406,25692
40414,25691
40616,25691
40624,25692
Z" /> 
</g>
<g >
<path style="fill:#FF080E; fill-opacity:1.0; 
stroke:#FF080E; stroke-width:0; stroke-opacity:1; 
stroke-linecap:round; stroke-linejoin:round;fill-rule:evenodd;"
d="M 39754,24038
39763,24040
39771,24042
39779,24044
39786,24048
39794,24052
39800,24057
39807,24063
39812,24069
39817,24076
39822,24083
39825,24091
39828,24099
39830,24107
39831,24116
39832,24124
39832,24296
39831,24305
39830,24313
39828,24321
39825,24329
39822,24337
39817,24344
39812,24351
39807,24357
39800,24363
39794,24368
39786,24372
39779,24376
39771,24379
39763,24381
39754,24382
39746,24382
39544,24382
39536,24382
39527,24381
39519,24379
39511,24376
39503,24372
39496,24368
39489,24363
39483,24357
39477,24351
39472,24344
39468,24337
39464,24329
39462,24321
39460,24313
39458,24305
39458,24296
39458,24124
39458,24116
39460,24107
39462,24099
39464,24091
39468,24083
39472,24076
39477,24069
39483,24063
39489,24057
39496,24052
39503,24048
39511,24044
39519,24042
39527,24040
39536,24038
39544,24038
39746,24038
39754,24038
Z" /> 
<path style="fill:#FF080E; fill-opacity:1.0; 
stroke:#FF080E; stroke-width:0; stroke-opacity:1; 
stroke-linecap:round; stroke-linejoin:round;fill-rule:evenodd;"
d="M 39754,23418
39763,23419
39771,23422
39779,23424
39786,23428
39794,23432
39800,23437
39807,23443
39812,23449
39817,23456
39822,23463
39825,23471
39828,23479
39830,23487
39831,23495
39832,23504
39832,23676
39831,23685
39830,23693
39828,23701
39825,23709
39822,23717
39817,23724
39812,23731
39807,23737
39800,23743
39794,23748
39786,23752
39779,23756
39771,23759
39763,23761
39754,23762
39746,23762
39544,23762
39536,23762
39527,23761
39519,23759
39511,23756
39503,23752
39496,23748
39489,23743
39483,23737
39477,23731
39472,23724
39468,23717
39464,23709
39462,23701
39460,23693
39458,23685
39458,23676
39458,23504
39458,23495
39460,23487
39462,23479
39464,23471
39468,23463
39472,23456
39477,23449
39483,23443
39489,23437
39496,23432
39503,23428
39511,23424
39519,23422
39527,23419
39536,23418
39544,23418
39746,23418
39754,23418
Z" /> 
</g>
<g >
</g>
<g >
</g>
<g >
</g>
<g >
</g>
<g >
</g>
<g >
</g>
<g >
</g>
<g >
</g>
<g >
</g>
<g >
</g>
<g >
</g>
<g >
<path style="fill:#FF080E; fill-opacity:1.0; 
stroke:#FF080E; stroke-width:0; stroke-opacity:1; 
stroke-linecap:round; stroke-linejoin:round;fill-rule:evenodd;"
d="M 38143,22964
38152,22965
38162,22967
38171,22971
38179,22975
38188,22980
38196,22985
38203,22992
38209,22999
38215,23007
38220,23015
38224,23024
38227,23033
38230,23042
38231,23052
38232,23062
38232,23317
38231,23327
38230,23337
38227,23346
38224,23355
38220,23364
38215,23372
38209,23380
38203,23387
38196,23393
38188,23399
38179,23404
38171,23408
38162,23412
38152,23414
38143,23415
38133,23416
37779,23416
37769,23415
37760,23414
37750,23412
37741,23408
37732,23404
37724,23399
37716,23393
37709,23387
37703,23380
37697,23372
37692,23364
37688,23355
37685,23346
37682,23337
37681,23327
37680,23317
37680,23062
37681,23052
37682,23042
37685,23033
37688,23024
37692,23015
37697,23007
37703,22999
37709,22992
37716,22985
37724,22980
37732,22975
37741,22971
37750,22967
37760,22965
37769,22964
37779,22963
38133,22963
38143,22964
Z" /> 
<path style="fill:#FF080E; fill-opacity:1.0; 
stroke:#FF080E; stroke-width:0; stroke-opacity:1; 
stroke-linecap:round; stroke-linejoin:round;fill-rule:evenodd;"
d="M 38143,23771
38152,23772
38162,23774
38171,23778
38179,23782
38188,23787
38196,23793
38203,23799
38209,23806
38215,23814
38220,23822
38224,23831
38227,23840
38230,23849
38231,23859
38232,23869
38232,24125
38231,24134
38230,24144
38227,24153
38224,24162
38220,24171
38215,24179
38209,24187
38203,24194
38196,24201
38188,24206
38179,24211
38171,24215
38162,24219
38152,24221
38143,24222
38133,24223
37779,24223
37769,24222
37760,24221
37750,24219
37741,24215
37732,24211
37724,24206
37716,24201
37709,24194
37703,24187
37697,24179
37692,24171
37688,24162
37685,24153
37682,24144
37681,24134
37680,24125
37680,23869
37681,23859
37682,23849
37685,23840
37688,23831
37692,23822
37697,23814
37703,23806
37709,23799
37716,23793
37724,23787
37732,23782
37741,23778
37750,23774
37760,23772
37769,23771
37779,23770
38133,23770
38143,23771
Z" /> 
</g>
<g >
<path style="fill:#FF080E; fill-opacity:1.0; 
stroke:#FF080E; stroke-width:0; stroke-opacity:1; 
stroke-linecap:round; stroke-linejoin:round;fill-rule:evenodd;"
d="M 37111,23129
37121,23130
37130,23133
37139,23136
37148,23140
37156,23145
37164,23151
37171,23157
37178,23164
37183,23172
37188,23180
37193,23189
37196,23198
37198,23208
37200,23217
37200,23227
37200,23483
37200,23492
37198,23502
37196,23511
37193,23520
37188,23529
37183,23537
37178,23545
37171,23552
37164,23559
37156,23565
37148,23570
37139,23574
37130,23577
37121,23579
37111,23581
37102,23581
36747,23581
36738,23581
36728,23579
36719,23577
36710,23574
36701,23570
36693,23565
36685,23559
36678,23552
36671,23545
36665,23537
36660,23529
36656,23520
36653,23511
36651,23502
36649,23492
36649,23483
36649,23227
36649,23217
36651,23208
36653,23198
36656,23189
36660,23180
36665,23172
36671,23164
36678,23157
36685,23151
36693,23145
36701,23140
36710,23136
36719,23133
36728,23130
36738,23129
36747,23128
37102,23128
37111,23129
Z" /> 
<path style="fill:#FF080E; fill-opacity:1.0; 
stroke:#FF080E; stroke-width:0; stroke-opacity:1; 
stroke-linecap:round; stroke-linejoin:round;fill-rule:evenodd;"
d="M 37120,23949
37129,23950
37138,23952
37147,23956
37156,23960
37164,23965
37172,23970
37179,23977
37185,23984
37191,23991
37196,23999
37200,24008
37203,24017
37205,24026
37207,24036
37207,24045
37207,24298
37207,24308
37205,24317
37203,24326
37200,24335
37196,24344
37191,24352
37185,24360
37179,24367
37172,24373
37164,24379
37156,24384
37147,24388
37138,24391
37129,24393
37120,24395
37110,24395
36753,24395
36743,24395
36734,24393
36725,24391
36716,24388
36707,24384
36699,24379
36691,24373
36684,24367
36678,24360
36672,24352
36667,24344
36663,24335
36660,24326
36658,24317
36656,24308
36656,24298
36656,24045
36656,24036
36658,24026
36660,24017
36663,24008
36667,23999
36672,23991
36678,23984
36684,23977
36691,23970
36699,23965
36707,23960
36716,23956
36725,23952
36734,23950
36743,23949
36753,23948
37110,23948
37120,23949
Z" /> 
</g>
<g >
<path style="fill:#FF080E; fill-opacity:1.0; 
stroke:#FF080E; stroke-width:0; stroke-opacity:1; 
stroke-linecap:round; stroke-linejoin:round;fill-rule:evenodd;"
d="M 36783,20321
36783,20636
36035,20636
36035,20321
36783,20321
Z" /> 
<path style="fill:#FF080E; fill-opacity:1.0; 
stroke:#FF080E; stroke-width:0; stroke-opacity:1; 
stroke-linecap:round; stroke-linejoin:round;fill-rule:evenodd;"
d="M 36783,19573
36783,19888
36035,19888
36035,19573
36783,19573
Z" /> 
<path style="fill:#FF080E; fill-opacity:1.0; 
stroke:#FF080E; stroke-width:0; stroke-opacity:1; 
stroke-linecap:round; stroke-linejoin:round;fill-rule:evenodd;"
d="M 35602,19947
35602,20262
34854,20262
34854,19947
35602,19947
Z" /> 
</g>
<g >
<path style="fill:#FF080E; fill-opacity:1.0; 
stroke:#FF080E; stroke-width:0; stroke-opacity:1; 
stroke-linecap:round; stroke-linejoin:round;fill-rule:evenodd;"
d="M 36720,21782
36720,22097
35972,22097
35972,21782
36720,21782
Z" /> 
<path style="fill:#FF080E; fill-opacity:1.0; 
stroke:#FF080E; stroke-width:0; stroke-opacity:1; 
stroke-linecap:round; stroke-linejoin:round;fill-rule:evenodd;"
d="M 36720,21034
36720,21349
35972,21349
35972,21034
36720,21034
Z" /> 
<path style="fill:#FF080E; fill-opacity:1.0; 
stroke:#FF080E; stroke-width:0; stroke-opacity:1; 
stroke-linecap:round; stroke-linejoin:round;fill-rule:evenodd;"
d="M 35539,21408
35539,21723
34791,21723
34791,21408
35539,21408
Z" /> 
</g>
<g >
</g>
<g >
<path style="fill:#FF080E; fill-opacity:1.0; 
stroke:#FF080E; stroke-width:0; stroke-opacity:1; 
stroke-linecap:round; stroke-linejoin:round;fill-rule:evenodd;"
d="M 38763,23282
38772,23284
38781,23286
38790,23289
38798,23293
38806,23298
38813,23303
38820,23309
38826,23316
38832,23324
38837,23331
38841,23340
38844,23348
38846,23357
38847,23366
38848,23375
38848,23602
38847,23611
38846,23620
38844,23629
38841,23638
38837,23646
38832,23654
38826,23661
38820,23668
38813,23674
38806,23680
38798,23684
38790,23688
38781,23691
38772,23694
38763,23695
38754,23695
38567,23695
38558,23695
38549,23694
38540,23691
38531,23688
38523,23684
38515,23680
38508,23674
38501,23668
38495,23661
38489,23654
38485,23646
38481,23638
38478,23629
38475,23620
38474,23611
38474,23602
38474,23375
38474,23366
38475,23357
38478,23348
38481,23340
38485,23331
38489,23324
38495,23316
38501,23309
38508,23303
38515,23298
38523,23293
38531,23289
38540,23286
38549,23284
38558,23282
38567,23282
38754,23282
38763,23282
Z" /> 
<path style="fill:#FF080E; fill-opacity:1.0; 
stroke:#FF080E; stroke-width:0; stroke-opacity:1; 
stroke-linecap:round; stroke-linejoin:round;fill-rule:evenodd;"
d="M 38763,23971
38772,23973
38781,23975
38790,23978
38798,23982
38806,23987
38813,23992
38820,23998
38826,24005
38832,24013
38837,24020
38841,24029
38844,24037
38846,24046
38847,24055
38848,24064
38848,24291
38847,24300
38846,24309
38844,24318
38841,24327
38837,24335
38832,24343
38826,24350
38820,24357
38813,24363
38806,24369
38798,24373
38790,24377
38781,24380
38772,24383
38763,24384
38754,24384
38567,24384
38558,24384
38549,24383
38540,24380
38531,24377
38523,24373
38515,24369
38508,24363
38501,24357
38495,24350
38489,24343
38485,24335
38481,24327
38478,24318
38475,24309
38474,24300
38474,24291
38474,24064
38474,24055
38475,24046
38478,24037
38481,24029
38485,24020
38489,24013
38495,24005
38501,23998
38508,23992
38515,23987
38523,23982
38531,23978
38540,23975
38549,23973
38558,23971
38567,23971
38754,23971
38763,23971
Z" /> 
</g>
<g >
</g>
<g >
</g>
<g >
</g>
</g>
<g style="fill:#000000; fill-opacity:1.0; 
stroke:#000000; stroke-width:0; stroke-opacity:1; 
stroke-linecap:round; stroke-linejoin:round;">
</g>
<g style="fill:#C2C200; fill-opacity:1.0; 
stroke:#C2C200; stroke-width:0; stroke-opacity:1; 
stroke-linecap:round; stroke-linejoin:round;">
</g>
<g style="fill:#C2C200; fill-opacity:1.0; 
stroke:#C2C200; stroke-width:59.0551; stroke-opacity:1; 
stroke-linecap:round; stroke-linejoin:round;">
</g>
<g style="fill:#C2C200; fill-opacity:0.0; 
stroke:#C2C200; stroke-width:59.0551; stroke-opacity:1; 
stroke-linecap:round; stroke-linejoin:round;">
<path d="M24070 30042
L50070 30042
" />
<path d="M51070 15142
L50070 14142
" />
<path d="M51070 28042
L51070 15142
" />
<path d="M50070 9642
L49470 9042
" />
<path d="M50070 29042
L51070 28042
" />
<path d="M50070 30042
L50070 29042
" />
<path d="M50070 14142
L50070 9642
" />
<path d="M24070 9042
L24070 30042
" />
<path d="M49470 9042
L24070 9042
" />
<g >
</g>
<g >
</g>
<g >
</g>
<g >
</g>
<g >
</g>
<g >
</g>
<g >
</g>
<g >
</g>
<g >
</g>
<g >
</g>
<g >
</g>
<g >
</g>
<g >
</g>
<g >
</g>
<g >
</g>
<g >
</g>
<g >
</g>
<g >
</g>
<g >
</g>
<g >
</g>
<g >
</g>
<g >
</g>
<g >
</g>
<g >
</g>
<g >
</g>
<g >
</g>
<g >
</g>
<g >
</g>
<g >
</g>
<g >
</g>
<g >
</g>
<g >
</g>
<g >
</g>
<g >
</g>
<g >
</g>
<g >
</g>
<g >
</g>
<g >
</g>
<g >
</g>
<g >
</g>
<g >
</g>
<g >
</g>
<g >
</g>
<g >
</g>
<g >
</g>
<g >
</g>
<g >
</g>
<g >
</g>
<g >
</g>
<g >
</g>
<g >
</g>
<g >
</g>
<g >
</g>
<g >
</g>
<g >
</g>
<g >
</g>
<g >
</g>
<g >
</g>
<g >
</g>
<g >
</g>
<g >
</g>
<g >
</g>
<g >
</g>
<g >
</g>
<g >
</g>
<g >
</g>
<g >
</g>
<g >
</g>
<g >
</g>
<g >
</g>
<g >
</g>
<g >
</g>
<g >
</g>
<g >
</g>
<g >
</g>
<g >
</g>
<g >
</g>
<g >
</g>
<g >
</g>
<g >
</g>
<g >
</g>
</g> 
</svg>
