<?xml version="1.0" standalone="no"?>
 <!DOCTYPE svg PUBLIC "-//W3C//DTD SVG 1.1//EN" 
 "http://www.w3.org/Graphics/SVG/1.1/DTD/svg11.dtd"> 
<svg xmlns="http://www.w3.org/2000/svg" version="1.1" 
    width="13.8303cm" height="6.48462cm" viewBox="0 0 54450 25530 ">
<title>SVG Picture created as uno shield v.6 project SMD-F_Paste.svg date 2019/08/02 02:21:23 </title>
  <desc>Picture generated by PCBNEW </desc>
<g style="fill:#000000; fill-opacity:1;stroke:#000000; stroke-opacity:1;
stroke-linecap:round; stroke-linejoin:round; "
 transform="translate(0 0) scale(1 1)">
</g>
<g style="fill:#000000; fill-opacity:0.0; 
stroke:#000000; stroke-width:-0.000393701; stroke-opacity:1; 
stroke-linecap:round; stroke-linejoin:round;">
</g>
<g style="fill:#26FF16; fill-opacity:0.0; 
stroke:#26FF16; stroke-width:-0.000393701; stroke-opacity:1; 
stroke-linecap:round; stroke-linejoin:round;">
</g>
<g style="fill:#26FF16; fill-opacity:0.0; 
stroke:#26FF16; stroke-width:0.393701; stroke-opacity:1; 
stroke-linecap:round; stroke-linejoin:round;">
<path d="M40657 16682
L40524 16682
" />
<path d="M40524 16682
L40524 16595
" />
<path d="M40657 16595
L40657 16682
" />
<path d="M40524 16595
L40657 16595
" />
</g>
<g style="fill:#26FF16; fill-opacity:1.0; 
stroke:#26FF16; stroke-width:0.393701; stroke-opacity:1; 
stroke-linecap:round; stroke-linejoin:round;">
<path style="fill:#26FF16; fill-opacity:1.0; 
stroke:#26FF16; stroke-width:0.393701; stroke-opacity:1; 
stroke-linecap:round; stroke-linejoin:round;fill-rule:evenodd;"
d="M 38877,18731
38877,18235
38649,18235
38649,18731
Z" /> 
<g >
</g>
<g >
</g>
<g >
</g>
<g >
</g>
<g >
</g>
<g >
</g>
<g >
</g>
<g >
</g>
<g >
</g>
<g >
</g>
<g >
</g>
<g >
</g>
<g >
</g>
<g >
</g>
<g style="fill:#FF080E; fill-opacity:1.0; 
stroke:#FF080E; stroke-width:0.393701; stroke-opacity:1; 
stroke-linecap:round; stroke-linejoin:round;">
</g>
<g style="fill:#FF080E; fill-opacity:1.0; 
stroke:#FF080E; stroke-width:0; stroke-opacity:1; 
stroke-linecap:round; stroke-linejoin:round;">
<path style="fill:#FF080E; fill-opacity:1.0; 
stroke:#FF080E; stroke-width:0; stroke-opacity:1; 
stroke-linecap:round; stroke-linejoin:round;fill-rule:evenodd;"
d="M 37377,14386
37377,14268
37928,14268
37928,14386
37377,14386
Z" /> 
<path style="fill:#FF080E; fill-opacity:1.0; 
stroke:#FF080E; stroke-width:0; stroke-opacity:1; 
stroke-linecap:round; stroke-linejoin:round;fill-rule:evenodd;"
d="M 37377,14583
37377,14465
37928,14465
37928,14583
37377,14583
Z" /> 
<path style="fill:#FF080E; fill-opacity:1.0; 
stroke:#FF080E; stroke-width:0; stroke-opacity:1; 
stroke-linecap:round; stroke-linejoin:round;fill-rule:evenodd;"
d="M 37377,14780
37377,14662
37928,14662
37928,14780
37377,14780
Z" /> 
<path style="fill:#FF080E; fill-opacity:1.0; 
stroke:#FF080E; stroke-width:0; stroke-opacity:1; 
stroke-linecap:round; stroke-linejoin:round;fill-rule:evenodd;"
d="M 37377,14977
37377,14859
37928,14859
37928,14977
37377,14977
Z" /> 
<path style="fill:#FF080E; fill-opacity:1.0; 
stroke:#FF080E; stroke-width:0; stroke-opacity:1; 
stroke-linecap:round; stroke-linejoin:round;fill-rule:evenodd;"
d="M 37377,15174
37377,15056
37928,15056
37928,15174
37377,15174
Z" /> 
<path style="fill:#FF080E; fill-opacity:1.0; 
stroke:#FF080E; stroke-width:0; stroke-opacity:1; 
stroke-linecap:round; stroke-linejoin:round;fill-rule:evenodd;"
d="M 39109,15174
39109,15056
39661,15056
39661,15174
39109,15174
Z" /> 
<path style="fill:#FF080E; fill-opacity:1.0; 
stroke:#FF080E; stroke-width:0; stroke-opacity:1; 
stroke-linecap:round; stroke-linejoin:round;fill-rule:evenodd;"
d="M 39109,14977
39109,14859
39661,14859
39661,14977
39109,14977
Z" /> 
<path style="fill:#FF080E; fill-opacity:1.0; 
stroke:#FF080E; stroke-width:0; stroke-opacity:1; 
stroke-linecap:round; stroke-linejoin:round;fill-rule:evenodd;"
d="M 39109,14780
39109,14662
39661,14662
39661,14780
39109,14780
Z" /> 
<path style="fill:#FF080E; fill-opacity:1.0; 
stroke:#FF080E; stroke-width:0; stroke-opacity:1; 
stroke-linecap:round; stroke-linejoin:round;fill-rule:evenodd;"
d="M 39109,14583
39109,14465
39661,14465
39661,14583
39109,14583
Z" /> 
<path style="fill:#FF080E; fill-opacity:1.0; 
stroke:#FF080E; stroke-width:0; stroke-opacity:1; 
stroke-linecap:round; stroke-linejoin:round;fill-rule:evenodd;"
d="M 39109,14386
39109,14268
39661,14268
39661,14386
39109,14386
Z" /> 
</g>
<g >
</g>
<g >
<path style="fill:#FF080E; fill-opacity:1.0; 
stroke:#FF080E; stroke-width:0; stroke-opacity:1; 
stroke-linecap:round; stroke-linejoin:round;fill-rule:evenodd;"
d="M 38538,18723
38538,18841
38198,18841
38198,18723
38538,18723
Z" /> 
<path style="fill:#FF080E; fill-opacity:1.0; 
stroke:#FF080E; stroke-width:0; stroke-opacity:1; 
stroke-linecap:round; stroke-linejoin:round;fill-rule:evenodd;"
d="M 38524,18526
38524,18644
38184,18644
38184,18526
38524,18526
Z" /> 
<path style="fill:#FF080E; fill-opacity:1.0; 
stroke:#FF080E; stroke-width:0; stroke-opacity:1; 
stroke-linecap:round; stroke-linejoin:round;fill-rule:evenodd;"
d="M 38524,18329
38524,18447
38184,18447
38184,18329
38524,18329
Z" /> 
<path style="fill:#FF080E; fill-opacity:1.0; 
stroke:#FF080E; stroke-width:0; stroke-opacity:1; 
stroke-linecap:round; stroke-linejoin:round;fill-rule:evenodd;"
d="M 38538,18132
38538,18251
38198,18251
38198,18132
38538,18132
Z" /> 
<path style="fill:#FF080E; fill-opacity:1.0; 
stroke:#FF080E; stroke-width:0; stroke-opacity:1; 
stroke-linecap:round; stroke-linejoin:round;fill-rule:evenodd;"
d="M 39328,18132
39328,18251
38988,18251
38988,18132
39328,18132
Z" /> 
<path style="fill:#FF080E; fill-opacity:1.0; 
stroke:#FF080E; stroke-width:0; stroke-opacity:1; 
stroke-linecap:round; stroke-linejoin:round;fill-rule:evenodd;"
d="M 39342,18329
39342,18447
39002,18447
39002,18329
39342,18329
Z" /> 
<path style="fill:#FF080E; fill-opacity:1.0; 
stroke:#FF080E; stroke-width:0; stroke-opacity:1; 
stroke-linecap:round; stroke-linejoin:round;fill-rule:evenodd;"
d="M 39342,18526
39342,18644
39002,18644
39002,18526
39342,18526
Z" /> 
<path style="fill:#FF080E; fill-opacity:1.0; 
stroke:#FF080E; stroke-width:0; stroke-opacity:1; 
stroke-linecap:round; stroke-linejoin:round;fill-rule:evenodd;"
d="M 39328,18723
39328,18841
38988,18841
38988,18723
39328,18723
Z" /> 
</g>
<g >
<path style="fill:#FF080E; fill-opacity:1.0; 
stroke:#FF080E; stroke-width:0; stroke-opacity:1; 
stroke-linecap:round; stroke-linejoin:round;fill-rule:evenodd;"
d="M 44826,12079
44826,12197
44275,12197
44275,12079
44826,12079
Z" /> 
<path style="fill:#FF080E; fill-opacity:1.0; 
stroke:#FF080E; stroke-width:0; stroke-opacity:1; 
stroke-linecap:round; stroke-linejoin:round;fill-rule:evenodd;"
d="M 44826,11882
44826,12001
44275,12001
44275,11882
44826,11882
Z" /> 
<path style="fill:#FF080E; fill-opacity:1.0; 
stroke:#FF080E; stroke-width:0; stroke-opacity:1; 
stroke-linecap:round; stroke-linejoin:round;fill-rule:evenodd;"
d="M 44826,11686
44826,11804
44275,11804
44275,11686
44826,11686
Z" /> 
<path style="fill:#FF080E; fill-opacity:1.0; 
stroke:#FF080E; stroke-width:0; stroke-opacity:1; 
stroke-linecap:round; stroke-linejoin:round;fill-rule:evenodd;"
d="M 44826,11489
44826,11607
44275,11607
44275,11489
44826,11489
Z" /> 
<path style="fill:#FF080E; fill-opacity:1.0; 
stroke:#FF080E; stroke-width:0; stroke-opacity:1; 
stroke-linecap:round; stroke-linejoin:round;fill-rule:evenodd;"
d="M 44826,11292
44826,11410
44275,11410
44275,11292
44826,11292
Z" /> 
<path style="fill:#FF080E; fill-opacity:1.0; 
stroke:#FF080E; stroke-width:0; stroke-opacity:1; 
stroke-linecap:round; stroke-linejoin:round;fill-rule:evenodd;"
d="M 46558,11292
46558,11410
46007,11410
46007,11292
46558,11292
Z" /> 
<path style="fill:#FF080E; fill-opacity:1.0; 
stroke:#FF080E; stroke-width:0; stroke-opacity:1; 
stroke-linecap:round; stroke-linejoin:round;fill-rule:evenodd;"
d="M 46558,11489
46558,11607
46007,11607
46007,11489
46558,11489
Z" /> 
<path style="fill:#FF080E; fill-opacity:1.0; 
stroke:#FF080E; stroke-width:0; stroke-opacity:1; 
stroke-linecap:round; stroke-linejoin:round;fill-rule:evenodd;"
d="M 46558,11686
46558,11804
46007,11804
46007,11686
46558,11686
Z" /> 
<path style="fill:#FF080E; fill-opacity:1.0; 
stroke:#FF080E; stroke-width:0; stroke-opacity:1; 
stroke-linecap:round; stroke-linejoin:round;fill-rule:evenodd;"
d="M 46558,11882
46558,12001
46007,12001
46007,11882
46558,11882
Z" /> 
<path style="fill:#FF080E; fill-opacity:1.0; 
stroke:#FF080E; stroke-width:0; stroke-opacity:1; 
stroke-linecap:round; stroke-linejoin:round;fill-rule:evenodd;"
d="M 46558,12079
46558,12197
46007,12197
46007,12079
46558,12079
Z" /> 
</g>
<g >
</g>
<g >
</g>
<g >
</g>
<g >
</g>
<g >
<path style="fill:#FF080E; fill-opacity:1.0; 
stroke:#FF080E; stroke-width:0; stroke-opacity:1; 
stroke-linecap:round; stroke-linejoin:round;fill-rule:evenodd;"
d="M 41791,9655
41800,9656
41809,9658
41817,9661
41826,9665
41834,9670
41841,9675
41848,9681
41854,9688
41859,9696
41864,9704
41868,9712
41871,9720
41873,9729
41875,9738
41875,9748
41875,9974
41875,9983
41873,9992
41871,10001
41868,10010
41864,10018
41859,10026
41854,10033
41848,10040
41841,10046
41834,10052
41826,10056
41817,10060
41809,10063
41800,10066
41791,10067
41782,10067
41595,10067
41586,10067
41576,10066
41568,10063
41559,10060
41551,10056
41543,10052
41535,10046
41529,10040
41522,10033
41517,10026
41512,10018
41508,10010
41505,10001
41503,9992
41502,9983
41501,9974
41501,9748
41502,9738
41503,9729
41505,9720
41508,9712
41512,9704
41517,9696
41522,9688
41529,9681
41535,9675
41543,9670
41551,9665
41559,9661
41568,9658
41576,9656
41586,9655
41595,9654
41782,9654
41791,9655
Z" /> 
<path style="fill:#FF080E; fill-opacity:1.0; 
stroke:#FF080E; stroke-width:0; stroke-opacity:1; 
stroke-linecap:round; stroke-linejoin:round;fill-rule:evenodd;"
d="M 41791,10344
41800,10345
41809,10347
41817,10350
41826,10354
41834,10359
41841,10364
41848,10370
41854,10377
41859,10385
41864,10392
41868,10401
41871,10409
41873,10418
41875,10427
41875,10437
41875,10663
41875,10672
41873,10681
41871,10690
41868,10699
41864,10707
41859,10715
41854,10722
41848,10729
41841,10735
41834,10741
41826,10745
41817,10749
41809,10752
41800,10755
41791,10756
41782,10756
41595,10756
41586,10756
41576,10755
41568,10752
41559,10749
41551,10745
41543,10741
41535,10735
41529,10729
41522,10722
41517,10715
41512,10707
41508,10699
41505,10690
41503,10681
41502,10672
41501,10663
41501,10437
41502,10427
41503,10418
41505,10409
41508,10401
41512,10392
41517,10385
41522,10377
41529,10370
41535,10364
41543,10359
41551,10354
41559,10350
41568,10347
41576,10345
41586,10344
41595,10343
41782,10343
41791,10344
Z" /> 
</g>
<g >
</g>
<g >
<path style="fill:#FF080E; fill-opacity:1.0; 
stroke:#FF080E; stroke-width:0; stroke-opacity:1; 
stroke-linecap:round; stroke-linejoin:round;fill-rule:evenodd;"
d="M 43818,9454
43827,9455
43836,9457
43845,9460
43853,9464
43861,9469
43869,9475
43875,9481
43882,9487
43887,9495
43892,9503
43896,9511
43899,9520
43901,9529
43902,9538
43903,9547
43903,9773
43902,9782
43901,9791
43899,9800
43896,9809
43892,9817
43887,9825
43882,9832
43875,9839
43869,9845
43861,9851
43853,9856
43845,9860
43836,9863
43827,9865
43818,9866
43809,9867
43622,9867
43613,9866
43604,9865
43595,9863
43586,9860
43578,9856
43570,9851
43563,9845
43556,9839
43550,9832
43545,9825
43540,9817
43536,9809
43533,9800
43531,9791
43529,9782
43529,9773
43529,9547
43529,9538
43531,9529
43533,9520
43536,9511
43540,9503
43545,9495
43550,9487
43556,9481
43563,9475
43570,9469
43578,9464
43586,9460
43595,9457
43604,9455
43613,9454
43622,9453
43809,9453
43818,9454
Z" /> 
<path style="fill:#FF080E; fill-opacity:1.0; 
stroke:#FF080E; stroke-width:0; stroke-opacity:1; 
stroke-linecap:round; stroke-linejoin:round;fill-rule:evenodd;"
d="M 43818,8765
43827,8766
43836,8768
43845,8771
43853,8775
43861,8780
43869,8786
43875,8792
43882,8798
43887,8806
43892,8814
43896,8822
43899,8831
43901,8840
43902,8849
43903,8858
43903,9084
43902,9093
43901,9102
43899,9111
43896,9120
43892,9128
43887,9136
43882,9144
43875,9150
43869,9156
43861,9162
43853,9167
43845,9171
43836,9174
43827,9176
43818,9177
43809,9178
43622,9178
43613,9177
43604,9176
43595,9174
43586,9171
43578,9167
43570,9162
43563,9156
43556,9150
43550,9144
43545,9136
43540,9128
43536,9120
43533,9111
43531,9102
43529,9093
43529,9084
43529,8858
43529,8849
43531,8840
43533,8831
43536,8822
43540,8814
43545,8806
43550,8798
43556,8792
43563,8786
43570,8780
43578,8775
43586,8771
43595,8768
43604,8766
43613,8765
43622,8764
43809,8764
43818,8765
Z" /> 
</g>
<g >
</g>
<g >
</g>
<g >
</g>
<g >
</g>
<g >
</g>
<g >
</g>
<g >
</g>
<g >
</g>
<g >
<path style="fill:#FF080E; fill-opacity:1.0; 
stroke:#FF080E; stroke-width:0; stroke-opacity:1; 
stroke-linecap:round; stroke-linejoin:round;fill-rule:evenodd;"
d="M 40362,17127
40371,17128
40380,17131
40388,17134
40397,17138
40405,17142
40412,17148
40419,17154
40425,17161
40430,17168
40435,17176
40439,17184
40442,17193
40444,17202
40446,17211
40446,17220
40446,17446
40446,17456
40444,17465
40442,17474
40439,17482
40435,17490
40430,17498
40425,17506
40419,17513
40412,17519
40405,17524
40397,17529
40388,17533
40380,17536
40371,17538
40362,17539
40353,17540
40166,17540
40156,17539
40147,17538
40138,17536
40130,17533
40121,17529
40114,17524
40106,17519
40099,17513
40093,17506
40088,17498
40083,17490
40079,17482
40076,17474
40074,17465
40073,17456
40072,17446
40072,17220
40073,17211
40074,17202
40076,17193
40079,17184
40083,17176
40088,17168
40093,17161
40099,17154
40106,17148
40114,17142
40121,17138
40130,17134
40138,17131
40147,17128
40156,17127
40166,17127
40353,17127
40362,17127
Z" /> 
<path style="fill:#FF080E; fill-opacity:1.0; 
stroke:#FF080E; stroke-width:0; stroke-opacity:1; 
stroke-linecap:round; stroke-linejoin:round;fill-rule:evenodd;"
d="M 40362,16438
40371,16439
40380,16442
40388,16445
40397,16449
40405,16453
40412,16459
40419,16465
40425,16472
40430,16479
40435,16487
40439,16495
40442,16504
40444,16513
40446,16522
40446,16531
40446,16757
40446,16767
40444,16776
40442,16785
40439,16793
40435,16801
40430,16809
40425,16817
40419,16824
40412,16830
40405,16835
40397,16840
40388,16844
40380,16847
40371,16849
40362,16850
40353,16851
40166,16851
40156,16850
40147,16849
40138,16847
40130,16844
40121,16840
40114,16835
40106,16830
40099,16824
40093,16817
40088,16809
40083,16801
40079,16793
40076,16785
40074,16776
40073,16767
40072,16757
40072,16531
40073,16522
40074,16513
40076,16504
40079,16495
40083,16487
40088,16479
40093,16472
40099,16465
40106,16459
40114,16453
40121,16449
40130,16445
40138,16442
40147,16439
40156,16438
40166,16438
40353,16438
40362,16438
Z" /> 
</g>
<g >
<path style="fill:#FF080E; fill-opacity:1.0; 
stroke:#FF080E; stroke-width:0; stroke-opacity:1; 
stroke-linecap:round; stroke-linejoin:round;fill-rule:evenodd;"
d="M 30216,4768
30216,5083
29468,5083
29468,4768
30216,4768
Z" /> 
<path style="fill:#FF080E; fill-opacity:1.0; 
stroke:#FF080E; stroke-width:0; stroke-opacity:1; 
stroke-linecap:round; stroke-linejoin:round;fill-rule:evenodd;"
d="M 30216,4020
30216,4335
29468,4335
29468,4020
30216,4020
Z" /> 
<path style="fill:#FF080E; fill-opacity:1.0; 
stroke:#FF080E; stroke-width:0; stroke-opacity:1; 
stroke-linecap:round; stroke-linejoin:round;fill-rule:evenodd;"
d="M 29035,4394
29035,4709
28287,4709
28287,4394
29035,4394
Z" /> 
</g>
<g >
<path style="fill:#FF080E; fill-opacity:1.0; 
stroke:#FF080E; stroke-width:0; stroke-opacity:1; 
stroke-linecap:round; stroke-linejoin:round;fill-rule:evenodd;"
d="M 30216,6158
30216,6473
29468,6473
29468,6158
30216,6158
Z" /> 
<path style="fill:#FF080E; fill-opacity:1.0; 
stroke:#FF080E; stroke-width:0; stroke-opacity:1; 
stroke-linecap:round; stroke-linejoin:round;fill-rule:evenodd;"
d="M 30216,5410
30216,5725
29468,5725
29468,5410
30216,5410
Z" /> 
<path style="fill:#FF080E; fill-opacity:1.0; 
stroke:#FF080E; stroke-width:0; stroke-opacity:1; 
stroke-linecap:round; stroke-linejoin:round;fill-rule:evenodd;"
d="M 29035,5784
29035,6099
28287,6099
28287,5784
29035,5784
Z" /> 
</g>
<g >
<path style="fill:#FF080E; fill-opacity:1.0; 
stroke:#FF080E; stroke-width:0; stroke-opacity:1; 
stroke-linecap:round; stroke-linejoin:round;fill-rule:evenodd;"
d="M 28287,7103
28287,6788
29035,6788
29035,7103
28287,7103
Z" /> 
<path style="fill:#FF080E; fill-opacity:1.0; 
stroke:#FF080E; stroke-width:0; stroke-opacity:1; 
stroke-linecap:round; stroke-linejoin:round;fill-rule:evenodd;"
d="M 28287,7851
28287,7536
29035,7536
29035,7851
28287,7851
Z" /> 
<path style="fill:#FF080E; fill-opacity:1.0; 
stroke:#FF080E; stroke-width:0; stroke-opacity:1; 
stroke-linecap:round; stroke-linejoin:round;fill-rule:evenodd;"
d="M 29468,7477
29468,7162
30216,7162
30216,7477
29468,7477
Z" /> 
</g>
<g >
<path style="fill:#FF080E; fill-opacity:1.0; 
stroke:#FF080E; stroke-width:0; stroke-opacity:1; 
stroke-linecap:round; stroke-linejoin:round;fill-rule:evenodd;"
d="M 34015,5607
34015,5922
33267,5922
33267,5607
34015,5607
Z" /> 
<path style="fill:#FF080E; fill-opacity:1.0; 
stroke:#FF080E; stroke-width:0; stroke-opacity:1; 
stroke-linecap:round; stroke-linejoin:round;fill-rule:evenodd;"
d="M 34015,4859
34015,5174
33267,5174
33267,4859
34015,4859
Z" /> 
<path style="fill:#FF080E; fill-opacity:1.0; 
stroke:#FF080E; stroke-width:0; stroke-opacity:1; 
stroke-linecap:round; stroke-linejoin:round;fill-rule:evenodd;"
d="M 32834,5233
32834,5548
32086,5548
32086,5233
32834,5233
Z" /> 
</g>
<g >
<path style="fill:#FF080E; fill-opacity:1.0; 
stroke:#FF080E; stroke-width:0; stroke-opacity:1; 
stroke-linecap:round; stroke-linejoin:round;fill-rule:evenodd;"
d="M 34027,7016
34027,7331
33279,7331
33279,7016
34027,7016
Z" /> 
<path style="fill:#FF080E; fill-opacity:1.0; 
stroke:#FF080E; stroke-width:0; stroke-opacity:1; 
stroke-linecap:round; stroke-linejoin:round;fill-rule:evenodd;"
d="M 34027,6268
34027,6583
33279,6583
33279,6268
34027,6268
Z" /> 
<path style="fill:#FF080E; fill-opacity:1.0; 
stroke:#FF080E; stroke-width:0; stroke-opacity:1; 
stroke-linecap:round; stroke-linejoin:round;fill-rule:evenodd;"
d="M 32846,6642
32846,6957
32098,6957
32098,6642
32846,6642
Z" /> 
</g>
<g >
</g>
<g >
</g>
<g >
</g>
<g >
</g>
<g >
<path style="fill:#FF080E; fill-opacity:1.0; 
stroke:#FF080E; stroke-width:0; stroke-opacity:1; 
stroke-linecap:round; stroke-linejoin:round;fill-rule:evenodd;"
d="M 26516,6877
26524,6878
26533,6880
26541,6883
26548,6887
26555,6891
26562,6896
26568,6902
26574,6908
26579,6915
26584,6922
26587,6930
26590,6938
26592,6946
26593,6954
26594,6963
26594,7164
26593,7173
26592,7181
26590,7189
26587,7197
26584,7205
26579,7212
26574,7219
26568,7225
26562,7231
26555,7236
26548,7240
26541,7244
26533,7247
26524,7249
26516,7250
26508,7251
26335,7251
26327,7250
26319,7249
26310,7247
26302,7244
26295,7240
26287,7236
26281,7231
26274,7225
26269,7219
26264,7212
26259,7205
26256,7197
26253,7189
26251,7181
26250,7173
26249,7164
26249,6963
26250,6954
26251,6946
26253,6938
26256,6930
26259,6922
26264,6915
26269,6908
26274,6902
26281,6896
26287,6891
26295,6887
26302,6883
26310,6880
26319,6878
26327,6877
26335,6877
26508,6877
26516,6877
Z" /> 
<path style="fill:#FF080E; fill-opacity:1.0; 
stroke:#FF080E; stroke-width:0; stroke-opacity:1; 
stroke-linecap:round; stroke-linejoin:round;fill-rule:evenodd;"
d="M 27136,6877
27144,6878
27153,6880
27161,6883
27168,6887
27176,6891
27182,6896
27189,6902
27194,6908
27199,6915
27204,6922
27207,6930
27210,6938
27212,6946
27213,6954
27214,6963
27214,7164
27213,7173
27212,7181
27210,7189
27207,7197
27204,7205
27199,7212
27194,7219
27189,7225
27182,7231
27176,7236
27168,7240
27161,7244
27153,7247
27144,7249
27136,7250
27128,7251
26955,7251
26947,7250
26939,7249
26930,7247
26922,7244
26915,7240
26908,7236
26901,7231
26895,7225
26889,7219
26884,7212
26879,7205
26876,7197
26873,7189
26871,7181
26870,7173
26869,7164
26869,6963
26870,6954
26871,6946
26873,6938
26876,6930
26879,6922
26884,6915
26889,6908
26895,6902
26901,6896
26908,6891
26915,6887
26922,6883
26930,6880
26939,6878
26947,6877
26955,6877
27128,6877
27136,6877
Z" /> 
</g>
<g >
<path style="fill:#FF080E; fill-opacity:1.0; 
stroke:#FF080E; stroke-width:0; stroke-opacity:1; 
stroke-linecap:round; stroke-linejoin:round;fill-rule:evenodd;"
d="M 27069,3645
27078,3646
27086,3648
27094,3651
27101,3654
27109,3659
27115,3664
27122,3669
27127,3676
27132,3683
27137,3690
27140,3697
27143,3705
27145,3714
27146,3722
27147,3730
27147,3903
27146,3911
27145,3919
27143,3928
27140,3936
27137,3943
27132,3950
27127,3957
27122,3963
27115,3969
27109,3974
27101,3979
27094,3982
27086,3985
27078,3987
27069,3988
27061,3989
26859,3989
26851,3988
26842,3987
26834,3985
26826,3982
26818,3979
26811,3974
26804,3969
26798,3963
26792,3957
26787,3950
26783,3943
26779,3936
26777,3928
26774,3919
26773,3911
26773,3903
26773,3730
26773,3722
26774,3714
26777,3705
26779,3697
26783,3690
26787,3683
26792,3676
26798,3669
26804,3664
26811,3659
26818,3654
26826,3651
26834,3648
26842,3646
26851,3645
26859,3644
27061,3644
27069,3645
Z" /> 
<path style="fill:#FF080E; fill-opacity:1.0; 
stroke:#FF080E; stroke-width:0; stroke-opacity:1; 
stroke-linecap:round; stroke-linejoin:round;fill-rule:evenodd;"
d="M 27069,4265
27078,4266
27086,4268
27094,4271
27101,4274
27109,4279
27115,4284
27122,4290
27127,4296
27132,4303
27137,4310
27140,4317
27143,4325
27145,4334
27146,4342
27147,4350
27147,4523
27146,4531
27145,4539
27143,4548
27140,4556
27137,4563
27132,4571
27127,4577
27122,4584
27115,4589
27109,4594
27101,4599
27094,4602
27086,4605
27078,4607
27069,4608
27061,4609
26859,4609
26851,4608
26842,4607
26834,4605
26826,4602
26818,4599
26811,4594
26804,4589
26798,4584
26792,4577
26787,4571
26783,4563
26779,4556
26777,4548
26774,4539
26773,4531
26773,4523
26773,4350
26773,4342
26774,4334
26777,4325
26779,4317
26783,4310
26787,4303
26792,4296
26798,4290
26804,4284
26811,4279
26818,4274
26826,4271
26834,4268
26842,4266
26851,4265
26859,4264
27061,4264
27069,4265
Z" /> 
</g>
<g >
</g>
<g >
</g>
<g >
<path style="fill:#FF080E; fill-opacity:1.0; 
stroke:#FF080E; stroke-width:0; stroke-opacity:1; 
stroke-linecap:round; stroke-linejoin:round;fill-rule:evenodd;"
d="M 33927,14752
33936,14753
33944,14755
33952,14758
33960,14762
33967,14766
33974,14771
33980,14777
33986,14783
33991,14790
33995,14797
33999,14805
34001,14813
34003,14821
34005,14829
34005,14838
34005,15010
34005,15018
34003,15027
34001,15035
33999,15043
33995,15050
33991,15058
33986,15065
33980,15071
33974,15076
33967,15081
33960,15086
33952,15089
33944,15092
33936,15094
33927,15096
33919,15096
33717,15096
33709,15096
33700,15094
33692,15092
33684,15089
33677,15086
33669,15081
33663,15076
33656,15071
33651,15065
33646,15058
33641,15050
33638,15043
33635,15035
33633,15027
33632,15018
33631,15010
33631,14838
33632,14829
33633,14821
33635,14813
33638,14805
33641,14797
33646,14790
33651,14783
33656,14777
33663,14771
33669,14766
33677,14762
33684,14758
33692,14755
33700,14753
33709,14752
33717,14752
33919,14752
33927,14752
Z" /> 
<path style="fill:#FF080E; fill-opacity:1.0; 
stroke:#FF080E; stroke-width:0; stroke-opacity:1; 
stroke-linecap:round; stroke-linejoin:round;fill-rule:evenodd;"
d="M 33927,15372
33936,15373
33944,15375
33952,15378
33960,15382
33967,15386
33974,15391
33980,15397
33986,15403
33991,15410
33995,15417
33999,15425
34001,15433
34003,15441
34005,15449
34005,15458
34005,15630
34005,15638
34003,15647
34001,15655
33999,15663
33995,15671
33991,15678
33986,15685
33980,15691
33974,15697
33967,15702
33960,15706
33952,15710
33944,15712
33936,15714
33927,15716
33919,15716
33717,15716
33709,15716
33700,15714
33692,15712
33684,15710
33677,15706
33669,15702
33663,15697
33656,15691
33651,15685
33646,15678
33641,15671
33638,15663
33635,15655
33633,15647
33632,15638
33631,15630
33631,15458
33632,15449
33633,15441
33635,15433
33638,15425
33641,15417
33646,15410
33651,15403
33656,15397
33663,15391
33669,15386
33677,15382
33684,15378
33692,15375
33700,15373
33709,15372
33717,15372
33919,15372
33927,15372
Z" /> 
</g>
<g >
</g>
<g >
</g>
<g >
</g>
<g >
</g>
<g >
</g>
<g >
<path style="fill:#FF080E; fill-opacity:1.0; 
stroke:#FF080E; stroke-width:0; stroke-opacity:1; 
stroke-linecap:round; stroke-linejoin:round;fill-rule:evenodd;"
d="M 39244,13038
39253,13040
39261,13042
39269,13044
39277,13048
39284,13052
39291,13057
39297,13063
39303,13069
39308,13076
39312,13083
39315,13091
39318,13099
39320,13107
39322,13116
39322,13124
39322,13326
39322,13334
39320,13343
39318,13351
39315,13359
39312,13366
39308,13374
39303,13380
39297,13387
39291,13392
39284,13397
39277,13402
39269,13405
39261,13408
39253,13410
39244,13412
39236,13412
39064,13412
39055,13412
39047,13410
39039,13408
39031,13405
39023,13402
39016,13397
39009,13392
39003,13387
38997,13380
38992,13374
38988,13366
38984,13359
38981,13351
38979,13343
38978,13334
38978,13326
38978,13124
38978,13116
38979,13107
38981,13099
38984,13091
38988,13083
38992,13076
38997,13069
39003,13063
39009,13057
39016,13052
39023,13048
39031,13044
39039,13042
39047,13040
39055,13038
39064,13038
39236,13038
39244,13038
Z" /> 
<path style="fill:#FF080E; fill-opacity:1.0; 
stroke:#FF080E; stroke-width:0; stroke-opacity:1; 
stroke-linecap:round; stroke-linejoin:round;fill-rule:evenodd;"
d="M 39864,13038
39873,13040
39881,13042
39889,13044
39897,13048
39904,13052
39911,13057
39917,13063
39923,13069
39928,13076
39932,13083
39936,13091
39938,13099
39940,13107
39942,13116
39942,13124
39942,13326
39942,13334
39940,13343
39938,13351
39936,13359
39932,13366
39928,13374
39923,13380
39917,13387
39911,13392
39904,13397
39897,13402
39889,13405
39881,13408
39873,13410
39864,13412
39856,13412
39684,13412
39675,13412
39667,13410
39659,13408
39651,13405
39643,13402
39636,13397
39629,13392
39623,13387
39617,13380
39612,13374
39608,13366
39604,13359
39601,13351
39599,13343
39598,13334
39598,13326
39598,13124
39598,13116
39599,13107
39601,13099
39604,13091
39608,13083
39612,13076
39617,13069
39623,13063
39629,13057
39636,13052
39643,13048
39651,13044
39659,13042
39667,13040
39675,13038
39684,13038
39856,13038
39864,13038
Z" /> 
</g>
<g >
<path style="fill:#FF080E; fill-opacity:1.0; 
stroke:#FF080E; stroke-width:0; stroke-opacity:1; 
stroke-linecap:round; stroke-linejoin:round;fill-rule:evenodd;"
d="M 42848,16235
43084,16235
43084,16845
42848,16845
42848,16235
Z" /> 
<path style="fill:#FF080E; fill-opacity:1.0; 
stroke:#FF080E; stroke-width:0; stroke-opacity:1; 
stroke-linecap:round; stroke-linejoin:round;fill-rule:evenodd;"
d="M 42348,16235
42584,16235
42584,16845
42348,16845
42348,16235
Z" /> 
<path style="fill:#FF080E; fill-opacity:1.0; 
stroke:#FF080E; stroke-width:0; stroke-opacity:1; 
stroke-linecap:round; stroke-linejoin:round;fill-rule:evenodd;"
d="M 41848,16235
42084,16235
42084,16845
41848,16845
41848,16235
Z" /> 
<path style="fill:#FF080E; fill-opacity:1.0; 
stroke:#FF080E; stroke-width:0; stroke-opacity:1; 
stroke-linecap:round; stroke-linejoin:round;fill-rule:evenodd;"
d="M 41348,16235
41584,16235
41584,16845
41348,16845
41348,16235
Z" /> 
<path style="fill:#FF080E; fill-opacity:1.0; 
stroke:#FF080E; stroke-width:0; stroke-opacity:1; 
stroke-linecap:round; stroke-linejoin:round;fill-rule:evenodd;"
d="M 41348,18361
41584,18361
41584,18971
41348,18971
41348,18361
Z" /> 
<path style="fill:#FF080E; fill-opacity:1.0; 
stroke:#FF080E; stroke-width:0; stroke-opacity:1; 
stroke-linecap:round; stroke-linejoin:round;fill-rule:evenodd;"
d="M 41848,18361
42084,18361
42084,18971
41848,18971
41848,18361
Z" /> 
<path style="fill:#FF080E; fill-opacity:1.0; 
stroke:#FF080E; stroke-width:0; stroke-opacity:1; 
stroke-linecap:round; stroke-linejoin:round;fill-rule:evenodd;"
d="M 42348,18361
42584,18361
42584,18971
42348,18971
42348,18361
Z" /> 
<path style="fill:#FF080E; fill-opacity:1.0; 
stroke:#FF080E; stroke-width:0; stroke-opacity:1; 
stroke-linecap:round; stroke-linejoin:round;fill-rule:evenodd;"
d="M 42848,18361
43084,18361
43084,18971
42848,18971
42848,18361
Z" /> 
</g>
<g >
<path style="fill:#FF080E; fill-opacity:1.0; 
stroke:#FF080E; stroke-width:0; stroke-opacity:1; 
stroke-linecap:round; stroke-linejoin:round;fill-rule:evenodd;"
d="M 42694,13077
42930,13077
42930,13688
42694,13688
42694,13077
Z" /> 
<path style="fill:#FF080E; fill-opacity:1.0; 
stroke:#FF080E; stroke-width:0; stroke-opacity:1; 
stroke-linecap:round; stroke-linejoin:round;fill-rule:evenodd;"
d="M 42194,13077
42430,13077
42430,13688
42194,13688
42194,13077
Z" /> 
<path style="fill:#FF080E; fill-opacity:1.0; 
stroke:#FF080E; stroke-width:0; stroke-opacity:1; 
stroke-linecap:round; stroke-linejoin:round;fill-rule:evenodd;"
d="M 41694,13077
41930,13077
41930,13688
41694,13688
41694,13077
Z" /> 
<path style="fill:#FF080E; fill-opacity:1.0; 
stroke:#FF080E; stroke-width:0; stroke-opacity:1; 
stroke-linecap:round; stroke-linejoin:round;fill-rule:evenodd;"
d="M 41194,13077
41430,13077
41430,13688
41194,13688
41194,13077
Z" /> 
<path style="fill:#FF080E; fill-opacity:1.0; 
stroke:#FF080E; stroke-width:0; stroke-opacity:1; 
stroke-linecap:round; stroke-linejoin:round;fill-rule:evenodd;"
d="M 41194,15203
41430,15203
41430,15814
41194,15814
41194,15203
Z" /> 
<path style="fill:#FF080E; fill-opacity:1.0; 
stroke:#FF080E; stroke-width:0; stroke-opacity:1; 
stroke-linecap:round; stroke-linejoin:round;fill-rule:evenodd;"
d="M 41694,15203
41930,15203
41930,15814
41694,15814
41694,15203
Z" /> 
<path style="fill:#FF080E; fill-opacity:1.0; 
stroke:#FF080E; stroke-width:0; stroke-opacity:1; 
stroke-linecap:round; stroke-linejoin:round;fill-rule:evenodd;"
d="M 42194,15203
42430,15203
42430,15814
42194,15814
42194,15203
Z" /> 
<path style="fill:#FF080E; fill-opacity:1.0; 
stroke:#FF080E; stroke-width:0; stroke-opacity:1; 
stroke-linecap:round; stroke-linejoin:round;fill-rule:evenodd;"
d="M 42694,15203
42930,15203
42930,15814
42694,15814
42694,15203
Z" /> 
</g>
<g >
</g>
<g >
<path style="fill:#FF080E; fill-opacity:1.0; 
stroke:#FF080E; stroke-width:0; stroke-opacity:1; 
stroke-linecap:round; stroke-linejoin:round;fill-rule:evenodd;"
d="M 34285,17733
34285,17969
33674,17969
33674,17733
34285,17733
Z" /> 
<path style="fill:#FF080E; fill-opacity:1.0; 
stroke:#FF080E; stroke-width:0; stroke-opacity:1; 
stroke-linecap:round; stroke-linejoin:round;fill-rule:evenodd;"
d="M 34285,17233
34285,17469
33674,17469
33674,17233
34285,17233
Z" /> 
<path style="fill:#FF080E; fill-opacity:1.0; 
stroke:#FF080E; stroke-width:0; stroke-opacity:1; 
stroke-linecap:round; stroke-linejoin:round;fill-rule:evenodd;"
d="M 34285,16733
34285,16969
33674,16969
33674,16733
34285,16733
Z" /> 
<path style="fill:#FF080E; fill-opacity:1.0; 
stroke:#FF080E; stroke-width:0; stroke-opacity:1; 
stroke-linecap:round; stroke-linejoin:round;fill-rule:evenodd;"
d="M 34285,16233
34285,16469
33674,16469
33674,16233
34285,16233
Z" /> 
<path style="fill:#FF080E; fill-opacity:1.0; 
stroke:#FF080E; stroke-width:0; stroke-opacity:1; 
stroke-linecap:round; stroke-linejoin:round;fill-rule:evenodd;"
d="M 36411,16233
36411,16469
35800,16469
35800,16233
36411,16233
Z" /> 
<path style="fill:#FF080E; fill-opacity:1.0; 
stroke:#FF080E; stroke-width:0; stroke-opacity:1; 
stroke-linecap:round; stroke-linejoin:round;fill-rule:evenodd;"
d="M 36411,16733
36411,16969
35800,16969
35800,16733
36411,16733
Z" /> 
<path style="fill:#FF080E; fill-opacity:1.0; 
stroke:#FF080E; stroke-width:0; stroke-opacity:1; 
stroke-linecap:round; stroke-linejoin:round;fill-rule:evenodd;"
d="M 36411,17233
36411,17469
35800,17469
35800,17233
36411,17233
Z" /> 
<path style="fill:#FF080E; fill-opacity:1.0; 
stroke:#FF080E; stroke-width:0; stroke-opacity:1; 
stroke-linecap:round; stroke-linejoin:round;fill-rule:evenodd;"
d="M 36411,17733
36411,17969
35800,17969
35800,17733
36411,17733
Z" /> 
</g>
<g >
</g>
<g >
</g>
<g >
<path style="fill:#FF080E; fill-opacity:1.0; 
stroke:#FF080E; stroke-width:0; stroke-opacity:1; 
stroke-linecap:round; stroke-linejoin:round;fill-rule:evenodd;"
d="M 34605,18954
34613,18955
34621,18957
34629,18960
34637,18963
34644,18968
34651,18973
34657,18979
34663,18985
34668,18992
34672,18999
34676,19006
34679,19014
34681,19023
34682,19031
34682,19039
34682,19212
34682,19220
34681,19228
34679,19237
34676,19245
34672,19252
34668,19260
34663,19266
34657,19273
34651,19278
34644,19283
34637,19288
34629,19291
34621,19294
34613,19296
34605,19297
34596,19298
34394,19298
34386,19297
34378,19296
34369,19294
34361,19291
34354,19288
34347,19283
34340,19278
34333,19273
34328,19266
34323,19260
34318,19252
34315,19245
34312,19237
34310,19228
34309,19220
34308,19212
34308,19039
34309,19031
34310,19023
34312,19014
34315,19006
34318,18999
34323,18992
34328,18985
34333,18979
34340,18973
34347,18968
34354,18963
34361,18960
34369,18957
34378,18955
34386,18954
34394,18953
34596,18953
34605,18954
Z" /> 
<path style="fill:#FF080E; fill-opacity:1.0; 
stroke:#FF080E; stroke-width:0; stroke-opacity:1; 
stroke-linecap:round; stroke-linejoin:round;fill-rule:evenodd;"
d="M 34605,18334
34613,18335
34621,18337
34629,18340
34637,18343
34644,18348
34651,18353
34657,18358
34663,18365
34668,18371
34672,18379
34676,18386
34679,18394
34681,18403
34682,18411
34682,18419
34682,18592
34682,18600
34681,18608
34679,18617
34676,18625
34672,18632
34668,18639
34663,18646
34657,18652
34651,18658
34644,18663
34637,18668
34629,18671
34621,18674
34613,18676
34605,18677
34596,18678
34394,18678
34386,18677
34378,18676
34369,18674
34361,18671
34354,18668
34347,18663
34340,18658
34333,18652
34328,18646
34323,18639
34318,18632
34315,18625
34312,18617
34310,18608
34309,18600
34308,18592
34308,18419
34309,18411
34310,18403
34312,18394
34315,18386
34318,18379
34323,18371
34328,18365
34333,18358
34340,18353
34347,18348
34354,18343
34361,18340
34369,18337
34378,18335
34386,18334
34394,18333
34596,18333
34605,18334
Z" /> 
</g>
<g >
<path style="fill:#FF080E; fill-opacity:1.0; 
stroke:#FF080E; stroke-width:0; stroke-opacity:1; 
stroke-linecap:round; stroke-linejoin:round;fill-rule:evenodd;"
d="M 40624,17897
40633,17898
40641,17900
40649,17903
40656,17906
40664,17911
40670,17916
40677,17921
40682,17928
40687,17934
40692,17942
40695,17949
40698,17957
40700,17966
40702,17974
40702,17982
40702,18155
40702,18163
40700,18171
40698,18180
40695,18188
40692,18195
40687,18202
40682,18209
40677,18215
40670,18221
40664,18226
40656,18231
40649,18234
40641,18237
40633,18239
40624,18240
40616,18241
40414,18241
40406,18240
40397,18239
40389,18237
40381,18234
40373,18231
40366,18226
40359,18221
40353,18215
40348,18209
40342,18202
40338,18195
40335,18188
40332,18180
40330,18171
40328,18163
40328,18155
40328,17982
40328,17974
40330,17966
40332,17957
40335,17949
40338,17942
40342,17934
40348,17928
40353,17921
40359,17916
40366,17911
40373,17906
40381,17903
40389,17900
40397,17898
40406,17897
40414,17896
40616,17896
40624,17897
Z" /> 
<path style="fill:#FF080E; fill-opacity:1.0; 
stroke:#FF080E; stroke-width:0; stroke-opacity:1; 
stroke-linecap:round; stroke-linejoin:round;fill-rule:evenodd;"
d="M 40624,18517
40633,18518
40641,18520
40649,18523
40656,18526
40664,18531
40670,18536
40677,18542
40682,18548
40687,18555
40692,18562
40695,18569
40698,18577
40700,18586
40702,18594
40702,18602
40702,18775
40702,18783
40700,18791
40698,18800
40695,18808
40692,18815
40687,18822
40682,18829
40677,18836
40670,18841
40664,18846
40656,18851
40649,18854
40641,18857
40633,18859
40624,18860
40616,18861
40414,18861
40406,18860
40397,18859
40389,18857
40381,18854
40373,18851
40366,18846
40359,18841
40353,18836
40348,18829
40342,18822
40338,18815
40335,18808
40332,18800
40330,18791
40328,18783
40328,18775
40328,18602
40328,18594
40330,18586
40332,18577
40335,18569
40338,18562
40342,18555
40348,18548
40353,18542
40359,18536
40366,18531
40373,18526
40381,18523
40389,18520
40397,18518
40406,18517
40414,18516
40616,18516
40624,18517
Z" /> 
</g>
<g >
<path style="fill:#FF080E; fill-opacity:1.0; 
stroke:#FF080E; stroke-width:0; stroke-opacity:1; 
stroke-linecap:round; stroke-linejoin:round;fill-rule:evenodd;"
d="M 39754,16863
39763,16864
39771,16866
39779,16869
39786,16873
39794,16877
39800,16882
39807,16888
39812,16894
39817,16901
39822,16908
39825,16916
39828,16924
39830,16932
39831,16940
39832,16949
39832,17121
39831,17130
39830,17138
39828,17146
39825,17154
39822,17162
39817,17169
39812,17176
39807,17182
39800,17188
39794,17193
39786,17197
39779,17201
39771,17204
39763,17206
39754,17207
39746,17207
39544,17207
39536,17207
39527,17206
39519,17204
39511,17201
39503,17197
39496,17193
39489,17188
39483,17182
39477,17176
39472,17169
39468,17162
39464,17154
39462,17146
39460,17138
39458,17130
39458,17121
39458,16949
39458,16940
39460,16932
39462,16924
39464,16916
39468,16908
39472,16901
39477,16894
39483,16888
39489,16882
39496,16877
39503,16873
39511,16869
39519,16866
39527,16864
39536,16863
39544,16863
39746,16863
39754,16863
Z" /> 
<path style="fill:#FF080E; fill-opacity:1.0; 
stroke:#FF080E; stroke-width:0; stroke-opacity:1; 
stroke-linecap:round; stroke-linejoin:round;fill-rule:evenodd;"
d="M 39754,16243
39763,16244
39771,16246
39779,16249
39786,16253
39794,16257
39800,16262
39807,16268
39812,16274
39817,16281
39822,16288
39825,16296
39828,16304
39830,16312
39831,16320
39832,16329
39832,16501
39831,16509
39830,16518
39828,16526
39825,16534
39822,16542
39817,16549
39812,16556
39807,16562
39800,16568
39794,16573
39786,16577
39779,16581
39771,16583
39763,16585
39754,16587
39746,16587
39544,16587
39536,16587
39527,16585
39519,16583
39511,16581
39503,16577
39496,16573
39489,16568
39483,16562
39477,16556
39472,16549
39468,16542
39464,16534
39462,16526
39460,16518
39458,16509
39458,16501
39458,16329
39458,16320
39460,16312
39462,16304
39464,16296
39468,16288
39472,16281
39477,16274
39483,16268
39489,16262
39496,16257
39503,16253
39511,16249
39519,16246
39527,16244
39536,16243
39544,16243
39746,16243
39754,16243
Z" /> 
</g>
<g >
</g>
<g >
</g>
<g >
</g>
<g >
</g>
<g >
</g>
<g >
</g>
<g >
</g>
<g >
</g>
<g >
</g>
<g >
</g>
<g >
</g>
<g >
<path style="fill:#FF080E; fill-opacity:1.0; 
stroke:#FF080E; stroke-width:0; stroke-opacity:1; 
stroke-linecap:round; stroke-linejoin:round;fill-rule:evenodd;"
d="M 38143,15788
38152,15790
38162,15792
38171,15795
38179,15800
38188,15805
38196,15810
38203,15817
38209,15824
38215,15832
38220,15840
38224,15849
38227,15858
38230,15867
38231,15877
38232,15886
38232,16142
38231,16152
38230,16161
38227,16171
38224,16180
38220,16189
38215,16197
38209,16205
38203,16212
38196,16218
38188,16224
38179,16229
38171,16233
38162,16236
38152,16239
38143,16240
38133,16241
37779,16241
37769,16240
37760,16239
37750,16236
37741,16233
37732,16229
37724,16224
37716,16218
37709,16212
37703,16205
37697,16197
37692,16189
37688,16180
37685,16171
37682,16161
37681,16152
37680,16142
37680,15886
37681,15877
37682,15867
37685,15858
37688,15849
37692,15840
37697,15832
37703,15824
37709,15817
37716,15810
37724,15805
37732,15800
37741,15795
37750,15792
37760,15790
37769,15788
37779,15788
38133,15788
38143,15788
Z" /> 
<path style="fill:#FF080E; fill-opacity:1.0; 
stroke:#FF080E; stroke-width:0; stroke-opacity:1; 
stroke-linecap:round; stroke-linejoin:round;fill-rule:evenodd;"
d="M 38143,16595
38152,16597
38162,16599
38171,16603
38179,16607
38188,16612
38196,16617
38203,16624
38209,16631
38215,16639
38220,16647
38224,16656
38227,16665
38230,16674
38231,16684
38232,16693
38232,16949
38231,16959
38230,16969
38227,16978
38224,16987
38220,16996
38215,17004
38209,17012
38203,17019
38196,17025
38188,17031
38179,17036
38171,17040
38162,17044
38152,17046
38143,17047
38133,17048
37779,17048
37769,17047
37760,17046
37750,17044
37741,17040
37732,17036
37724,17031
37716,17025
37709,17019
37703,17012
37697,17004
37692,16996
37688,16987
37685,16978
37682,16969
37681,16959
37680,16949
37680,16693
37681,16684
37682,16674
37685,16665
37688,16656
37692,16647
37697,16639
37703,16631
37709,16624
37716,16617
37724,16612
37732,16607
37741,16603
37750,16599
37760,16597
37769,16595
37779,16595
38133,16595
38143,16595
Z" /> 
</g>
<g >
<path style="fill:#FF080E; fill-opacity:1.0; 
stroke:#FF080E; stroke-width:0; stroke-opacity:1; 
stroke-linecap:round; stroke-linejoin:round;fill-rule:evenodd;"
d="M 37111,15954
37121,15955
37130,15958
37139,15961
37148,15965
37156,15970
37164,15976
37171,15982
37178,15989
37183,15997
37188,16005
37193,16014
37196,16023
37198,16033
37200,16042
37200,16052
37200,16308
37200,16317
37198,16327
37196,16336
37193,16345
37188,16354
37183,16362
37178,16370
37171,16377
37164,16384
37156,16389
37148,16394
37139,16399
37130,16402
37121,16404
37111,16406
37102,16406
36747,16406
36738,16406
36728,16404
36719,16402
36710,16399
36701,16394
36693,16389
36685,16384
36678,16377
36671,16370
36665,16362
36660,16354
36656,16345
36653,16336
36651,16327
36649,16317
36649,16308
36649,16052
36649,16042
36651,16033
36653,16023
36656,16014
36660,16005
36665,15997
36671,15989
36678,15982
36685,15976
36693,15970
36701,15965
36710,15961
36719,15958
36728,15955
36738,15954
36747,15953
37102,15953
37111,15954
Z" /> 
<path style="fill:#FF080E; fill-opacity:1.0; 
stroke:#FF080E; stroke-width:0; stroke-opacity:1; 
stroke-linecap:round; stroke-linejoin:round;fill-rule:evenodd;"
d="M 37120,16773
37129,16775
37138,16777
37147,16780
37156,16784
37164,16789
37172,16795
37179,16801
37185,16808
37191,16816
37196,16824
37200,16833
37203,16842
37205,16851
37207,16861
37207,16870
37207,17123
37207,17133
37205,17142
37203,17151
37200,17160
37196,17169
37191,17177
37185,17185
37179,17192
37172,17198
37164,17204
37156,17209
37147,17213
37138,17216
37129,17218
37120,17220
37110,17220
36753,17220
36743,17220
36734,17218
36725,17216
36716,17213
36707,17209
36699,17204
36691,17198
36684,17192
36678,17185
36672,17177
36667,17169
36663,17160
36660,17151
36658,17142
36656,17133
36656,17123
36656,16870
36656,16861
36658,16851
36660,16842
36663,16833
36667,16824
36672,16816
36678,16808
36684,16801
36691,16795
36699,16789
36707,16784
36716,16780
36725,16777
36734,16775
36743,16773
36753,16773
37110,16773
37120,16773
Z" /> 
</g>
<g >
<path style="fill:#FF080E; fill-opacity:1.0; 
stroke:#FF080E; stroke-width:0; stroke-opacity:1; 
stroke-linecap:round; stroke-linejoin:round;fill-rule:evenodd;"
d="M 36783,13146
36783,13461
36035,13461
36035,13146
36783,13146
Z" /> 
<path style="fill:#FF080E; fill-opacity:1.0; 
stroke:#FF080E; stroke-width:0; stroke-opacity:1; 
stroke-linecap:round; stroke-linejoin:round;fill-rule:evenodd;"
d="M 36783,12398
36783,12713
36035,12713
36035,12398
36783,12398
Z" /> 
<path style="fill:#FF080E; fill-opacity:1.0; 
stroke:#FF080E; stroke-width:0; stroke-opacity:1; 
stroke-linecap:round; stroke-linejoin:round;fill-rule:evenodd;"
d="M 35602,12772
35602,13087
34854,13087
34854,12772
35602,12772
Z" /> 
</g>
<g >
<path style="fill:#FF080E; fill-opacity:1.0; 
stroke:#FF080E; stroke-width:0; stroke-opacity:1; 
stroke-linecap:round; stroke-linejoin:round;fill-rule:evenodd;"
d="M 36720,14607
36720,14922
35972,14922
35972,14607
36720,14607
Z" /> 
<path style="fill:#FF080E; fill-opacity:1.0; 
stroke:#FF080E; stroke-width:0; stroke-opacity:1; 
stroke-linecap:round; stroke-linejoin:round;fill-rule:evenodd;"
d="M 36720,13859
36720,14174
35972,14174
35972,13859
36720,13859
Z" /> 
<path style="fill:#FF080E; fill-opacity:1.0; 
stroke:#FF080E; stroke-width:0; stroke-opacity:1; 
stroke-linecap:round; stroke-linejoin:round;fill-rule:evenodd;"
d="M 35539,14233
35539,14548
34791,14548
34791,14233
35539,14233
Z" /> 
</g>
<g >
</g>
<g >
<path style="fill:#FF080E; fill-opacity:1.0; 
stroke:#FF080E; stroke-width:0; stroke-opacity:1; 
stroke-linecap:round; stroke-linejoin:round;fill-rule:evenodd;"
d="M 38763,16107
38772,16109
38781,16111
38790,16114
38798,16118
38806,16123
38813,16128
38820,16134
38826,16141
38832,16148
38837,16156
38841,16165
38844,16173
38846,16182
38847,16191
38848,16200
38848,16427
38847,16436
38846,16445
38844,16454
38841,16462
38837,16471
38832,16479
38826,16486
38820,16493
38813,16499
38806,16504
38798,16509
38790,16513
38781,16516
38772,16518
38763,16520
38754,16520
38567,16520
38558,16520
38549,16518
38540,16516
38531,16513
38523,16509
38515,16504
38508,16499
38501,16493
38495,16486
38489,16479
38485,16471
38481,16462
38478,16454
38475,16445
38474,16436
38474,16427
38474,16200
38474,16191
38475,16182
38478,16173
38481,16165
38485,16156
38489,16148
38495,16141
38501,16134
38508,16128
38515,16123
38523,16118
38531,16114
38540,16111
38549,16109
38558,16107
38567,16107
38754,16107
38763,16107
Z" /> 
<path style="fill:#FF080E; fill-opacity:1.0; 
stroke:#FF080E; stroke-width:0; stroke-opacity:1; 
stroke-linecap:round; stroke-linejoin:round;fill-rule:evenodd;"
d="M 38763,16796
38772,16798
38781,16800
38790,16803
38798,16807
38806,16812
38813,16817
38820,16823
38826,16830
38832,16837
38837,16845
38841,16854
38844,16862
38846,16871
38847,16880
38848,16889
38848,17116
38847,17125
38846,17134
38844,17143
38841,17151
38837,17160
38832,17168
38826,17175
38820,17182
38813,17188
38806,17193
38798,17198
38790,17202
38781,17205
38772,17207
38763,17209
38754,17209
38567,17209
38558,17209
38549,17207
38540,17205
38531,17202
38523,17198
38515,17193
38508,17188
38501,17182
38495,17175
38489,17168
38485,17160
38481,17151
38478,17143
38475,17134
38474,17125
38474,17116
38474,16889
38474,16880
38475,16871
38478,16862
38481,16854
38485,16845
38489,16837
38495,16830
38501,16823
38508,16817
38515,16812
38523,16807
38531,16803
38540,16800
38549,16798
38558,16796
38567,16796
38754,16796
38763,16796
Z" /> 
</g>
<g >
</g>
<g >
</g>
<g >
</g>
</g>
<g style="fill:#000000; fill-opacity:1.0; 
stroke:#000000; stroke-width:0; stroke-opacity:1; 
stroke-linecap:round; stroke-linejoin:round;">
</g>
<g style="fill:#C2C200; fill-opacity:1.0; 
stroke:#C2C200; stroke-width:0; stroke-opacity:1; 
stroke-linecap:round; stroke-linejoin:round;">
</g>
<g style="fill:#C2C200; fill-opacity:1.0; 
stroke:#C2C200; stroke-width:59.0551; stroke-opacity:1; 
stroke-linecap:round; stroke-linejoin:round;">
</g>
<g style="fill:#C2C200; fill-opacity:0.0; 
stroke:#C2C200; stroke-width:59.0551; stroke-opacity:1; 
stroke-linecap:round; stroke-linejoin:round;">
<path d="M24070 22867
L50070 22867
" />
<path d="M51070 7967
L50070 6967
" />
<path d="M51070 20867
L51070 7967
" />
<path d="M50070 2467
L49470 1867
" />
<path d="M50070 21867
L51070 20867
" />
<path d="M50070 22867
L50070 21867
" />
<path d="M50070 6967
L50070 2467
" />
<path d="M24070 1867
L24070 22867
" />
<path d="M49470 1867
L24070 1867
" />
<g >
</g>
<g >
</g>
<g >
</g>
<g >
</g>
<g >
</g>
<g >
</g>
<g >
</g>
<g >
</g>
<g >
</g>
<g >
</g>
<g >
</g>
<g >
</g>
<g >
</g>
<g >
</g>
<g >
</g>
<g >
</g>
<g >
</g>
<g >
</g>
<g >
</g>
<g >
</g>
<g >
</g>
<g >
</g>
<g >
</g>
<g >
</g>
<g >
</g>
<g >
</g>
<g >
</g>
<g >
</g>
<g >
</g>
<g >
</g>
<g >
</g>
<g >
</g>
<g >
</g>
<g >
</g>
<g >
</g>
<g >
</g>
<g >
</g>
<g >
</g>
<g >
</g>
<g >
</g>
<g >
</g>
<g >
</g>
<g >
</g>
<g >
</g>
<g >
</g>
<g >
</g>
<g >
</g>
<g >
</g>
<g >
</g>
<g >
</g>
<g >
</g>
<g >
</g>
<g >
</g>
<g >
</g>
<g >
</g>
<g >
</g>
<g >
</g>
<g >
</g>
<g >
</g>
<g >
</g>
<g >
</g>
<g >
</g>
<g >
</g>
<g >
</g>
<g >
</g>
<g >
</g>
<g >
</g>
<g >
</g>
<g >
</g>
<g >
</g>
<g >
</g>
<g >
</g>
<g >
</g>
<g >
</g>
<g >
</g>
<g >
</g>
<g >
</g>
<g >
</g>
<g >
</g>
<g >
</g>
</g> 
</svg>
