<?xml version="1.0" standalone="no"?>
 <!DOCTYPE svg PUBLIC "-//W3C//DTD SVG 1.1//EN" 
 "http://www.w3.org/Graphics/SVG/1.1/DTD/svg11.dtd"> 
<svg xmlns="http://www.w3.org/2000/svg" version="1.1" 
    width="16.9012cm" height="6.48462cm" viewBox="0 0 66540 25530 ">
<title>SVG Picture created as uno shield v.8 project SMD-brd.svg date 2019/09/23 11:00:08 </title>
  <desc>Picture generated by PCBNEW </desc>
<g style="fill:#000000; fill-opacity:1;stroke:#000000; stroke-opacity:1;
stroke-linecap:round; stroke-linejoin:round; "
 transform="translate(0 0) scale(1 1)">
</g>
<g style="fill:#000000; fill-opacity:0.0; 
stroke:#000000; stroke-width:-0.000393701; stroke-opacity:1; 
stroke-linecap:round; stroke-linejoin:round;">
</g>
<g style="fill:#0B00C2; fill-opacity:0.0; 
stroke:#0B00C2; stroke-width:-0.000393701; stroke-opacity:1; 
stroke-linecap:round; stroke-linejoin:round;">
</g>
<g style="fill:#0B00C2; fill-opacity:0.0; 
stroke:#0B00C2; stroke-width:31.4961; stroke-opacity:1; 
stroke-linecap:round; stroke-linejoin:round;">
<circle cx="35052.5" cy="15963" r="153.739" /> 
<circle cx="37988.5" cy="15440" r="153.739" /> 
<circle cx="38788.5" cy="17608" r="153.739" /> 
<circle cx="38757.5" cy="19371" r="153.739" /> 
<circle cx="41100.5" cy="17581" r="153.739" /> 
<circle cx="43334.5" cy="18127" r="153.739" /> 
<circle cx="43332.5" cy="16990" r="153.739" /> 
<circle cx="37967.4" cy="13999.3" r="124.128" /> 
<circle cx="39071.5" cy="14001.8" r="124.128" /> 
<circle cx="39072.4" cy="15446.1" r="124.128" /> 
<circle cx="35531.3" cy="20116.8" r="124.128" /> 
<circle cx="42043.1" cy="20112.9" r="124.128" /> 
<circle cx="43995.9" cy="18317.6" r="124.128" /> 
<circle cx="43995.9" cy="13829.4" r="124.128" /> 
<circle cx="42086.4" cy="11750.7" r="124.128" /> 
<circle cx="35137.6" cy="11750.7" r="124.128" /> 
<circle cx="33054.9" cy="13573.5" r="124.128" /> 
<circle cx="33054.9" cy="18002.6" r="124.128" /> 
<circle cx="39908.3" cy="20131.7" r="124.128" /> 
<circle cx="40625.3" cy="20135.6" r="124.128" /> 
<circle cx="40947.1" cy="13605.5" r="124.128" /> 
<circle cx="43204.5" cy="14434" r="153.739" /> 
<circle cx="40947.8" cy="15257.1" r="124.128" /> 
<circle cx="40304.8" cy="20007.4" r="124.128" /> 
<circle cx="38763.8" cy="18490" r="181.72" /> 
<circle cx="35128.8" cy="18208.4" r="124.128" /> 
<g >
</g>
<g >
</g>
<g style="fill:#008400; fill-opacity:0.0; 
stroke:#008400; stroke-width:31.4961; stroke-opacity:1; 
stroke-linecap:round; stroke-linejoin:round;">
</g>
<g style="fill:#008400; fill-opacity:0.0; 
stroke:#008400; stroke-width:0; stroke-opacity:1; 
stroke-linecap:round; stroke-linejoin:round;">
</g>
<g style="fill:#008400; fill-opacity:1.0; 
stroke:#008400; stroke-width:0; stroke-opacity:1; 
stroke-linecap:round; stroke-linejoin:round;">
<path style="fill:#008400; fill-opacity:1.0; 
stroke:#008400; stroke-width:0; stroke-opacity:1; 
stroke-linecap:round; stroke-linejoin:round;fill-rule:evenodd;"
d="M 47160,13072
46845,13072
46845,12914
47160,12914
47160,13072
Z" /> 
<path style="fill:#008400; fill-opacity:1.0; 
stroke:#008400; stroke-width:0; stroke-opacity:1; 
stroke-linecap:round; stroke-linejoin:round;fill-rule:evenodd;"
d="M 47160,10512
46845,10512
46845,10355
47160,10355
47160,10512
Z" /> 
<path style="fill:#008400; fill-opacity:1.0; 
stroke:#008400; stroke-width:0; stroke-opacity:1; 
stroke-linecap:round; stroke-linejoin:round;fill-rule:evenodd;"
d="M 48145,12658
47830,12658
47830,12540
48145,12540
48145,12658
Z" /> 
<path style="fill:#008400; fill-opacity:1.0; 
stroke:#008400; stroke-width:0; stroke-opacity:1; 
stroke-linecap:round; stroke-linejoin:round;fill-rule:evenodd;"
d="M 48145,12461
47830,12461
47830,12343
48145,12343
48145,12461
Z" /> 
<path style="fill:#008400; fill-opacity:1.0; 
stroke:#008400; stroke-width:0; stroke-opacity:1; 
stroke-linecap:round; stroke-linejoin:round;fill-rule:evenodd;"
d="M 48145,12264
47830,12264
47830,12146
48145,12146
48145,12264
Z" /> 
<path style="fill:#008400; fill-opacity:1.0; 
stroke:#008400; stroke-width:0; stroke-opacity:1; 
stroke-linecap:round; stroke-linejoin:round;fill-rule:evenodd;"
d="M 48145,12068
47830,12068
47830,11950
48145,11950
48145,12068
Z" /> 
<path style="fill:#008400; fill-opacity:1.0; 
stroke:#008400; stroke-width:0; stroke-opacity:1; 
stroke-linecap:round; stroke-linejoin:round;fill-rule:evenodd;"
d="M 48145,11871
47830,11871
47830,11753
48145,11753
48145,11871
Z" /> 
<path style="fill:#008400; fill-opacity:1.0; 
stroke:#008400; stroke-width:0; stroke-opacity:1; 
stroke-linecap:round; stroke-linejoin:round;fill-rule:evenodd;"
d="M 48145,11674
47830,11674
47830,11556
48145,11556
48145,11674
Z" /> 
<path style="fill:#008400; fill-opacity:1.0; 
stroke:#008400; stroke-width:0; stroke-opacity:1; 
stroke-linecap:round; stroke-linejoin:round;fill-rule:evenodd;"
d="M 48145,11477
47830,11477
47830,11359
48145,11359
48145,11477
Z" /> 
<path style="fill:#008400; fill-opacity:1.0; 
stroke:#008400; stroke-width:0; stroke-opacity:1; 
stroke-linecap:round; stroke-linejoin:round;fill-rule:evenodd;"
d="M 48145,11280
47830,11280
47830,11162
48145,11162
48145,11280
Z" /> 
<path style="fill:#008400; fill-opacity:1.0; 
stroke:#008400; stroke-width:0; stroke-opacity:1; 
stroke-linecap:round; stroke-linejoin:round;fill-rule:evenodd;"
d="M 48145,11083
47830,11083
47830,10965
48145,10965
48145,11083
Z" /> 
<path style="fill:#008400; fill-opacity:1.0; 
stroke:#008400; stroke-width:0; stroke-opacity:1; 
stroke-linecap:round; stroke-linejoin:round;fill-rule:evenodd;"
d="M 48145,10887
47830,10887
47830,10768
48145,10768
48145,10887
Z" /> 
</g>
<g >
</g>
<g >
</g>
<g >
</g>
<g style="fill:#008400; fill-opacity:1.0; 
stroke:#008400; stroke-width:0; stroke-opacity:1; 
stroke-linecap:round; stroke-linejoin:round;">
<path style="fill:#008400; fill-opacity:1.0; 
stroke:#008400; stroke-width:0; stroke-opacity:1; 
stroke-linecap:round; stroke-linejoin:round;fill-rule:evenodd;"
d="M 38171,15260
38171,14945
38526,14945
38526,15260
38171,15260
Z" /> 
<path style="fill:#008400; fill-opacity:1.0; 
stroke:#008400; stroke-width:0; stroke-opacity:1; 
stroke-linecap:round; stroke-linejoin:round;fill-rule:evenodd;"
d="M 37384,14886
37384,14571
37738,14571
37738,14886
37384,14886
Z" /> 
<path style="fill:#008400; fill-opacity:1.0; 
stroke:#008400; stroke-width:0; stroke-opacity:1; 
stroke-linecap:round; stroke-linejoin:round;fill-rule:evenodd;"
d="M 37384,15634
37384,15319
37738,15319
37738,15634
37384,15634
Z" /> 
</g>
<g >
</g>
<g >
</g>
<g >
</g>
<g >
</g>
<g >
</g>
<g >
</g>
<g >
</g>
<g >
</g>
<g >
</g>
<g >
</g>
<g >
</g>
<g >
</g>
<g >
</g>
<g >
</g>
<g >
</g>
<g >
</g>
<g >
</g>
<g >
</g>
<g >
</g>
<g >
</g>
<g >
</g>
<g >
</g>
<g >
</g>
<g >
</g>
<g style="fill:#008400; fill-opacity:1.0; 
stroke:#008400; stroke-width:0; stroke-opacity:1; 
stroke-linecap:round; stroke-linejoin:round;">
<path style="fill:#008400; fill-opacity:1.0; 
stroke:#008400; stroke-width:0; stroke-opacity:1; 
stroke-linecap:round; stroke-linejoin:round;fill-rule:evenodd;"
d="M 46102,11355
46102,11473
45551,11473
45551,11355
46102,11355
Z" /> 
<path style="fill:#008400; fill-opacity:1.0; 
stroke:#008400; stroke-width:0; stroke-opacity:1; 
stroke-linecap:round; stroke-linejoin:round;fill-rule:evenodd;"
d="M 46102,11552
46102,11670
45551,11670
45551,11552
46102,11552
Z" /> 
<path style="fill:#008400; fill-opacity:1.0; 
stroke:#008400; stroke-width:0; stroke-opacity:1; 
stroke-linecap:round; stroke-linejoin:round;fill-rule:evenodd;"
d="M 46102,11748
46102,11867
45551,11867
45551,11748
46102,11748
Z" /> 
<path style="fill:#008400; fill-opacity:1.0; 
stroke:#008400; stroke-width:0; stroke-opacity:1; 
stroke-linecap:round; stroke-linejoin:round;fill-rule:evenodd;"
d="M 46102,11945
46102,12063
45551,12063
45551,11945
46102,11945
Z" /> 
<path style="fill:#008400; fill-opacity:1.0; 
stroke:#008400; stroke-width:0; stroke-opacity:1; 
stroke-linecap:round; stroke-linejoin:round;fill-rule:evenodd;"
d="M 46102,12142
46102,12260
45551,12260
45551,12142
46102,12142
Z" /> 
<path style="fill:#008400; fill-opacity:1.0; 
stroke:#008400; stroke-width:0; stroke-opacity:1; 
stroke-linecap:round; stroke-linejoin:round;fill-rule:evenodd;"
d="M 44369,12142
44369,12260
43818,12260
43818,12142
44369,12142
Z" /> 
<path style="fill:#008400; fill-opacity:1.0; 
stroke:#008400; stroke-width:0; stroke-opacity:1; 
stroke-linecap:round; stroke-linejoin:round;fill-rule:evenodd;"
d="M 44369,11945
44369,12063
43818,12063
43818,11945
44369,11945
Z" /> 
<path style="fill:#008400; fill-opacity:1.0; 
stroke:#008400; stroke-width:0; stroke-opacity:1; 
stroke-linecap:round; stroke-linejoin:round;fill-rule:evenodd;"
d="M 44369,11748
44369,11867
43818,11867
43818,11748
44369,11748
Z" /> 
<path style="fill:#008400; fill-opacity:1.0; 
stroke:#008400; stroke-width:0; stroke-opacity:1; 
stroke-linecap:round; stroke-linejoin:round;fill-rule:evenodd;"
d="M 44369,11552
44369,11670
43818,11670
43818,11552
44369,11552
Z" /> 
<path style="fill:#008400; fill-opacity:1.0; 
stroke:#008400; stroke-width:0; stroke-opacity:1; 
stroke-linecap:round; stroke-linejoin:round;fill-rule:evenodd;"
d="M 44369,11355
44369,11473
43818,11473
43818,11355
44369,11355
Z" /> 
</g>
<g >
</g>
<g >
</g>
<g >
</g>
<g style="fill:#008400; fill-opacity:1.0; 
stroke:#008400; stroke-width:0; stroke-opacity:1; 
stroke-linecap:round; stroke-linejoin:round;">
<path style="fill:#008400; fill-opacity:1.0; 
stroke:#008400; stroke-width:0; stroke-opacity:1; 
stroke-linecap:round; stroke-linejoin:round;fill-rule:evenodd;"
d="M 38809,12310
38818,12311
38827,12314
38835,12317
38843,12321
38851,12325
38859,12331
38866,12337
38872,12344
38877,12351
38882,12359
38886,12367
38889,12376
38891,12385
38892,12394
38893,12403
38893,12590
38892,12599
38891,12608
38889,12617
38886,12626
38882,12634
38877,12642
38872,12649
38866,12656
38859,12662
38851,12668
38843,12673
38835,12676
38827,12680
38818,12682
38809,12683
38799,12684
38573,12684
38564,12683
38555,12682
38546,12680
38537,12676
38529,12673
38521,12668
38514,12662
38507,12656
38501,12649
38495,12642
38491,12634
38487,12626
38484,12617
38481,12608
38480,12599
38480,12590
38480,12403
38480,12394
38481,12385
38484,12376
38487,12367
38491,12359
38495,12351
38501,12344
38507,12337
38514,12331
38521,12325
38529,12321
38537,12317
38546,12314
38555,12311
38564,12310
38573,12310
38799,12310
38809,12310
Z" /> 
<path style="fill:#008400; fill-opacity:1.0; 
stroke:#008400; stroke-width:0; stroke-opacity:1; 
stroke-linecap:round; stroke-linejoin:round;fill-rule:evenodd;"
d="M 38120,12310
38129,12311
38138,12314
38146,12317
38155,12321
38162,12325
38170,12331
38177,12337
38183,12344
38188,12351
38193,12359
38197,12367
38200,12376
38202,12385
38203,12394
38204,12403
38204,12590
38203,12599
38202,12608
38200,12617
38197,12626
38193,12634
38188,12642
38183,12649
38177,12656
38170,12662
38162,12668
38155,12673
38146,12676
38138,12680
38129,12682
38120,12683
38110,12684
37884,12684
37875,12683
37866,12682
37857,12680
37848,12676
37840,12673
37832,12668
37825,12662
37818,12656
37812,12649
37806,12642
37802,12634
37798,12626
37795,12617
37792,12608
37791,12599
37791,12590
37791,12403
37791,12394
37792,12385
37795,12376
37798,12367
37802,12359
37806,12351
37812,12344
37818,12337
37825,12331
37832,12325
37840,12321
37848,12317
37857,12314
37866,12311
37875,12310
37884,12310
38110,12310
38120,12310
Z" /> 
</g>
<g >
</g>
<g >
</g>
<g style="fill:#008400; fill-opacity:1.0; 
stroke:#008400; stroke-width:0; stroke-opacity:1; 
stroke-linecap:round; stroke-linejoin:round;">
<path style="fill:#008400; fill-opacity:1.0; 
stroke:#008400; stroke-width:0; stroke-opacity:1; 
stroke-linecap:round; stroke-linejoin:round;fill-rule:evenodd;"
d="M 38501,15893
38511,15894
38519,15896
38528,15899
38536,15903
38544,15908
38552,15913
38558,15920
38565,15926
38570,15934
38575,15942
38579,15950
38582,15959
38584,15968
38585,15977
38586,15986
38586,16173
38585,16182
38584,16191
38582,16200
38579,16209
38575,16217
38570,16225
38565,16232
38558,16239
38552,16245
38544,16251
38536,16255
38528,16259
38519,16262
38511,16264
38501,16266
38492,16266
38266,16266
38257,16266
38248,16264
38239,16262
38230,16259
38222,16255
38214,16251
38207,16245
38200,16239
38194,16232
38188,16225
38183,16217
38180,16209
38176,16200
38174,16191
38173,16182
38172,16173
38172,15986
38173,15977
38174,15968
38176,15959
38180,15950
38183,15942
38188,15934
38194,15926
38200,15920
38207,15913
38214,15908
38222,15903
38230,15899
38239,15896
38248,15894
38257,15893
38266,15892
38492,15892
38501,15893
Z" /> 
<path style="fill:#008400; fill-opacity:1.0; 
stroke:#008400; stroke-width:0; stroke-opacity:1; 
stroke-linecap:round; stroke-linejoin:round;fill-rule:evenodd;"
d="M 37813,15893
37822,15894
37830,15896
37839,15899
37847,15903
37855,15908
37863,15913
37869,15920
37876,15926
37881,15934
37886,15942
37890,15950
37893,15959
37895,15968
37896,15977
37897,15986
37897,16173
37896,16182
37895,16191
37893,16200
37890,16209
37886,16217
37881,16225
37876,16232
37869,16239
37863,16245
37855,16251
37847,16255
37839,16259
37830,16262
37822,16264
37813,16266
37803,16266
37577,16266
37568,16266
37559,16264
37550,16262
37541,16259
37533,16255
37525,16251
37518,16245
37511,16239
37505,16232
37499,16225
37495,16217
37491,16209
37487,16200
37485,16191
37484,16182
37483,16173
37483,15986
37484,15977
37485,15968
37487,15959
37491,15950
37495,15942
37499,15934
37505,15926
37511,15920
37518,15913
37525,15908
37533,15903
37541,15899
37550,15896
37559,15894
37568,15893
37577,15892
37803,15892
37813,15893
Z" /> 
</g>
<g >
</g>
<g >
</g>
<g >
</g>
<g >
</g>
<g >
</g>
<g >
</g>
<g >
</g>
<g >
</g>
<g >
</g>
<g >
</g>
<g >
</g>
<g >
</g>
<g >
</g>
<g style="fill:#008400; fill-opacity:1.0; 
stroke:#008400; stroke-width:0; stroke-opacity:1; 
stroke-linecap:round; stroke-linejoin:round;">
<path style="fill:#008400; fill-opacity:1.0; 
stroke:#008400; stroke-width:0; stroke-opacity:1; 
stroke-linecap:round; stroke-linejoin:round;fill-rule:evenodd;"
d="M 26803,3916
26812,3918
26820,3920
26828,3922
26836,3926
26843,3930
26850,3935
26856,3941
26862,3947
26867,3954
26871,3961
26875,3969
26877,3977
26879,3985
26881,3994
26881,4002
26881,4204
26881,4212
26879,4221
26877,4229
26875,4237
26871,4244
26867,4252
26862,4258
26856,4265
26850,4270
26843,4275
26836,4280
26828,4283
26820,4286
26812,4288
26803,4289
26795,4290
26623,4290
26614,4289
26606,4288
26598,4286
26590,4283
26582,4280
26575,4275
26568,4270
26562,4265
26556,4258
26551,4252
26547,4244
26543,4237
26540,4229
26538,4221
26537,4212
26537,4204
26537,4002
26537,3994
26538,3985
26540,3977
26543,3969
26547,3961
26551,3954
26556,3947
26562,3941
26568,3935
26575,3930
26582,3926
26590,3922
26598,3920
26606,3918
26614,3916
26623,3916
26795,3916
26803,3916
Z" /> 
<path style="fill:#008400; fill-opacity:1.0; 
stroke:#008400; stroke-width:0; stroke-opacity:1; 
stroke-linecap:round; stroke-linejoin:round;fill-rule:evenodd;"
d="M 27424,3916
27432,3918
27440,3920
27448,3922
27456,3926
27463,3930
27470,3935
27476,3941
27482,3947
27487,3954
27491,3961
27495,3969
27497,3977
27500,3985
27501,3994
27501,4002
27501,4204
27501,4212
27500,4221
27497,4229
27495,4237
27491,4244
27487,4252
27482,4258
27476,4265
27470,4270
27463,4275
27456,4280
27448,4283
27440,4286
27432,4288
27424,4289
27415,4290
27243,4290
27234,4289
27226,4288
27218,4286
27210,4283
27202,4280
27195,4275
27188,4270
27182,4265
27176,4258
27171,4252
27167,4244
27163,4237
27160,4229
27158,4221
27157,4212
27157,4204
27157,4002
27157,3994
27158,3985
27160,3977
27163,3969
27167,3961
27171,3954
27176,3947
27182,3941
27188,3935
27195,3930
27202,3926
27210,3922
27218,3920
27226,3918
27234,3916
27243,3916
27415,3916
27424,3916
Z" /> 
</g>
<g >
</g>
<g >
</g>
<g >
</g>
<g style="fill:#008400; fill-opacity:1.0; 
stroke:#008400; stroke-width:0; stroke-opacity:1; 
stroke-linecap:round; stroke-linejoin:round;">
<path style="fill:#008400; fill-opacity:1.0; 
stroke:#008400; stroke-width:0; stroke-opacity:1; 
stroke-linecap:round; stroke-linejoin:round;fill-rule:evenodd;"
d="M 28778,3590
28786,3591
28794,3593
28802,3596
28810,3599
28817,3604
28824,3609
28830,3614
28836,3621
28841,3627
28845,3635
28849,3642
28852,3650
28854,3658
28855,3667
28856,3675
28856,3877
28855,3885
28854,3894
28852,3902
28849,3910
28845,3918
28841,3925
28836,3932
28830,3938
28824,3944
28817,3949
28810,3953
28802,3957
28794,3959
28786,3961
28778,3963
28769,3963
28597,3963
28589,3963
28580,3961
28572,3959
28564,3957
28557,3953
28549,3949
28543,3944
28536,3938
28531,3932
28526,3925
28521,3918
28518,3910
28515,3902
28513,3894
28511,3885
28511,3877
28511,3675
28511,3667
28513,3658
28515,3650
28518,3642
28521,3635
28526,3627
28531,3621
28536,3614
28543,3609
28549,3604
28557,3599
28564,3596
28572,3593
28580,3591
28589,3590
28597,3589
28769,3589
28778,3590
Z" /> 
<path style="fill:#008400; fill-opacity:1.0; 
stroke:#008400; stroke-width:0; stroke-opacity:1; 
stroke-linecap:round; stroke-linejoin:round;fill-rule:evenodd;"
d="M 28158,3590
28166,3591
28174,3593
28182,3596
28190,3599
28197,3604
28204,3609
28210,3614
28216,3621
28221,3627
28225,3635
28229,3642
28232,3650
28234,3658
28235,3667
28235,3675
28235,3877
28235,3885
28234,3894
28232,3902
28229,3910
28225,3918
28221,3925
28216,3932
28210,3938
28204,3944
28197,3949
28190,3953
28182,3957
28174,3959
28166,3961
28158,3963
28149,3963
27977,3963
27969,3963
27960,3961
27952,3959
27944,3957
27936,3953
27929,3949
27922,3944
27916,3938
27910,3932
27905,3925
27901,3918
27898,3910
27895,3902
27893,3894
27891,3885
27891,3877
27891,3675
27891,3667
27893,3658
27895,3650
27898,3642
27901,3635
27905,3627
27910,3621
27916,3614
27922,3609
27929,3604
27936,3599
27944,3596
27952,3593
27960,3591
27969,3590
27977,3589
28149,3589
28158,3590
Z" /> 
</g>
<g >
</g>
<g style="fill:#008400; fill-opacity:1.0; 
stroke:#008400; stroke-width:0; stroke-opacity:1; 
stroke-linecap:round; stroke-linejoin:round;">
<path style="fill:#008400; fill-opacity:1.0; 
stroke:#008400; stroke-width:0; stroke-opacity:1; 
stroke-linecap:round; stroke-linejoin:round;fill-rule:evenodd;"
d="M 26492,6436
26501,6437
26509,6439
26517,6442
26525,6446
26532,6450
26539,6455
26545,6461
26551,6467
26556,6474
26560,6481
26564,6489
26566,6497
26568,6505
26570,6513
26570,6522
26570,6723
26570,6732
26568,6740
26566,6748
26564,6756
26560,6764
26556,6771
26551,6778
26545,6784
26539,6790
26532,6795
26525,6799
26517,6803
26509,6806
26501,6808
26492,6809
26484,6810
26312,6810
26303,6809
26295,6808
26287,6806
26279,6803
26271,6799
26264,6795
26257,6790
26251,6784
26245,6778
26240,6771
26236,6764
26232,6756
26229,6748
26227,6740
26226,6732
26226,6723
26226,6522
26226,6513
26227,6505
26229,6497
26232,6489
26236,6481
26240,6474
26245,6467
26251,6461
26257,6455
26264,6450
26271,6446
26279,6442
26287,6439
26295,6437
26303,6436
26312,6436
26484,6436
26492,6436
Z" /> 
<path style="fill:#008400; fill-opacity:1.0; 
stroke:#008400; stroke-width:0; stroke-opacity:1; 
stroke-linecap:round; stroke-linejoin:round;fill-rule:evenodd;"
d="M 27112,6436
27121,6437
27129,6439
27137,6442
27145,6446
27152,6450
27159,6455
27165,6461
27171,6467
27176,6474
27180,6481
27184,6489
27186,6497
27189,6505
27190,6513
27190,6522
27190,6723
27190,6732
27189,6740
27186,6748
27184,6756
27180,6764
27176,6771
27171,6778
27165,6784
27159,6790
27152,6795
27145,6799
27137,6803
27129,6806
27121,6808
27112,6809
27104,6810
26932,6810
26923,6809
26915,6808
26907,6806
26899,6803
26891,6799
26884,6795
26877,6790
26871,6784
26865,6778
26860,6771
26856,6764
26852,6756
26849,6748
26847,6740
26846,6732
26846,6723
26846,6522
26846,6513
26847,6505
26849,6497
26852,6489
26856,6481
26860,6474
26865,6467
26871,6461
26877,6455
26884,6450
26891,6446
26899,6442
26907,6439
26915,6437
26923,6436
26932,6436
27104,6436
27112,6436
Z" /> 
</g>
<g >
</g>
<g >
</g>
<g style="fill:#008400; fill-opacity:1.0; 
stroke:#008400; stroke-width:0; stroke-opacity:1; 
stroke-linecap:round; stroke-linejoin:round;">
<path style="fill:#008400; fill-opacity:1.0; 
stroke:#008400; stroke-width:0; stroke-opacity:1; 
stroke-linecap:round; stroke-linejoin:round;fill-rule:evenodd;"
d="M 42891,20338
42899,20339
42908,20341
42916,20344
42923,20347
42930,20352
42937,20357
42943,20362
42949,20369
42954,20375
42959,20383
42962,20390
42965,20398
42967,20406
42968,20415
42969,20423
42969,20625
42968,20633
42967,20642
42965,20650
42962,20658
42959,20666
42954,20673
42949,20680
42943,20686
42937,20692
42930,20697
42923,20701
42916,20705
42908,20707
42899,20710
42891,20711
42883,20711
42710,20711
42702,20711
42694,20710
42685,20707
42677,20705
42670,20701
42662,20697
42656,20692
42649,20686
42644,20680
42639,20673
42634,20666
42631,20658
42628,20650
42626,20642
42625,20633
42624,20625
42624,20423
42625,20415
42626,20406
42628,20398
42631,20390
42634,20383
42639,20375
42644,20369
42649,20362
42656,20357
42662,20352
42670,20347
42677,20344
42685,20341
42694,20339
42702,20338
42710,20337
42883,20337
42891,20338
Z" /> 
<path style="fill:#008400; fill-opacity:1.0; 
stroke:#008400; stroke-width:0; stroke-opacity:1; 
stroke-linecap:round; stroke-linejoin:round;fill-rule:evenodd;"
d="M 43511,20338
43519,20339
43528,20341
43536,20344
43543,20347
43551,20352
43557,20357
43564,20362
43569,20369
43574,20375
43579,20383
43582,20390
43585,20398
43587,20406
43588,20415
43589,20423
43589,20625
43588,20633
43587,20642
43585,20650
43582,20658
43579,20666
43574,20673
43569,20680
43564,20686
43557,20692
43551,20697
43543,20701
43536,20705
43528,20707
43519,20710
43511,20711
43503,20711
43330,20711
43322,20711
43314,20710
43305,20707
43297,20705
43290,20701
43283,20697
43276,20692
43270,20686
43264,20680
43259,20673
43254,20666
43251,20658
43248,20650
43246,20642
43245,20633
43244,20625
43244,20423
43245,20415
43246,20406
43248,20398
43251,20390
43254,20383
43259,20375
43264,20369
43270,20362
43276,20357
43283,20352
43290,20347
43297,20344
43305,20341
43314,20339
43322,20338
43330,20337
43503,20337
43511,20338
Z" /> 
</g>
<g >
</g>
<g >
</g>
<g >
</g>
<g >
</g>
<g >
</g>
<g >
</g>
<g >
</g>
<g >
</g>
<g >
</g>
<g >
</g>
<g >
</g>
<g >
</g>
<g >
</g>
<g >
</g>
<g >
</g>
<g >
</g>
<g >
</g>
<g >
</g>
<g >
</g>
<g >
</g>
<g >
</g>
<g >
</g>
<g >
</g>
<g >
</g>
<g >
</g>
<g >
</g>
<g >
</g>
<g >
</g>
<g >
</g>
<g >
</g>
<g >
</g>
<g >
</g>
</g>
<g style="fill:#000000; fill-opacity:1.0; 
stroke:#000000; stroke-width:0; stroke-opacity:1; 
stroke-linecap:round; stroke-linejoin:round;">
</g>
<g style="fill:#26FF16; fill-opacity:1.0; 
stroke:#26FF16; stroke-width:0; stroke-opacity:1; 
stroke-linecap:round; stroke-linejoin:round;">
</g>
<g style="fill:#26FF16; fill-opacity:0.0; 
stroke:#26FF16; stroke-width:31.4961; stroke-opacity:1; 
stroke-linecap:round; stroke-linejoin:round;">
<circle cx="35128.8" cy="18208.4" r="124.128" /> 
<circle cx="38763.8" cy="18490" r="181.72" /> 
<circle cx="40947.8" cy="15257.1" r="124.128" /> 
<circle cx="43204.5" cy="14434" r="153.739" /> 
<circle cx="40947.1" cy="13605.5" r="124.128" /> 
<circle cx="39072.4" cy="15446.1" r="124.128" /> 
<circle cx="39071.5" cy="14001.8" r="124.128" /> 
<circle cx="37967.4" cy="13999.3" r="124.128" /> 
<circle cx="43332.5" cy="16990" r="153.739" /> 
<circle cx="43334.5" cy="18127" r="153.739" /> 
<circle cx="41100.5" cy="17581" r="153.739" /> 
<circle cx="38757.5" cy="19371" r="153.739" /> 
<circle cx="38788.5" cy="17608" r="153.739" /> 
<circle cx="35052.5" cy="15963" r="153.739" /> 
<circle cx="37988.5" cy="15442" r="153.739" /> 
</g>
<g style="fill:#26FF16; fill-opacity:0.0; 
stroke:#26FF16; stroke-width:0.393701; stroke-opacity:1; 
stroke-linecap:round; stroke-linejoin:round;">
<path d="M40890 16713
L40757 16713
" />
<path d="M40757 16713
L40757 16626
" />
<path d="M40890 16626
L40890 16713
" />
<path d="M40757 16626
L40890 16626
" />
</g>
<g style="fill:#26FF16; fill-opacity:1.0; 
stroke:#26FF16; stroke-width:0.393701; stroke-opacity:1; 
stroke-linecap:round; stroke-linejoin:round;">
<path style="fill:#26FF16; fill-opacity:1.0; 
stroke:#26FF16; stroke-width:0.393701; stroke-opacity:1; 
stroke-linecap:round; stroke-linejoin:round;fill-rule:evenodd;"
d="M 38877,18731
38877,18235
38649,18235
38649,18731
Z" /> 
<g >
</g>
<g >
</g>
<g >
</g>
<g style="fill:#FF080E; fill-opacity:1.0; 
stroke:#FF080E; stroke-width:0.393701; stroke-opacity:1; 
stroke-linecap:round; stroke-linejoin:round;">
</g>
<g style="fill:#FF080E; fill-opacity:1.0; 
stroke:#FF080E; stroke-width:0; stroke-opacity:1; 
stroke-linecap:round; stroke-linejoin:round;">
<path style="fill:#FF080E; fill-opacity:1.0; 
stroke:#FF080E; stroke-width:0; stroke-opacity:1; 
stroke-linecap:round; stroke-linejoin:round;fill-rule:evenodd;"
d="M 38762,16493
38770,16494
38778,16496
38786,16499
38794,16503
38801,16507
38808,16512
38814,16518
38820,16524
38825,16531
38829,16538
38833,16546
38836,16554
38838,16562
38839,16570
38839,16579
38839,16780
38839,16789
38838,16797
38836,16805
38833,16813
38829,16821
38825,16828
38820,16835
38814,16841
38808,16847
38801,16852
38794,16856
38786,16860
38778,16863
38770,16865
38762,16866
38753,16866
38581,16866
38572,16866
38564,16865
38556,16863
38548,16860
38540,16856
38533,16852
38526,16847
38520,16841
38514,16835
38509,16828
38505,16821
38501,16813
38498,16805
38496,16797
38495,16789
38495,16780
38495,16579
38495,16570
38496,16562
38498,16554
38501,16546
38505,16538
38509,16531
38514,16524
38520,16518
38526,16512
38533,16507
38540,16503
38548,16499
38556,16496
38564,16494
38572,16493
38581,16492
38753,16492
38762,16493
Z" /> 
<path style="fill:#FF080E; fill-opacity:1.0; 
stroke:#FF080E; stroke-width:0; stroke-opacity:1; 
stroke-linecap:round; stroke-linejoin:round;fill-rule:evenodd;"
d="M 39382,16493
39390,16494
39398,16496
39406,16499
39414,16503
39421,16507
39428,16512
39434,16518
39440,16524
39445,16531
39449,16538
39453,16546
39456,16554
39458,16562
39459,16570
39459,16579
39459,16780
39459,16789
39458,16797
39456,16805
39453,16813
39449,16821
39445,16828
39440,16835
39434,16841
39428,16847
39421,16852
39414,16856
39406,16860
39398,16863
39390,16865
39382,16866
39373,16866
39201,16866
39193,16866
39184,16865
39176,16863
39168,16860
39160,16856
39153,16852
39146,16847
39140,16841
39134,16835
39129,16828
39125,16821
39121,16813
39119,16805
39116,16797
39115,16789
39115,16780
39115,16579
39115,16570
39116,16562
39119,16554
39121,16546
39125,16538
39129,16531
39134,16524
39140,16518
39146,16512
39153,16507
39160,16503
39168,16499
39176,16496
39184,16494
39193,16493
39201,16492
39373,16492
39382,16493
Z" /> 
</g>
<g >
</g>
<g style="fill:#FF080E; fill-opacity:1.0; 
stroke:#FF080E; stroke-width:0; stroke-opacity:1; 
stroke-linecap:round; stroke-linejoin:round;">
<path style="fill:#FF080E; fill-opacity:1.0; 
stroke:#FF080E; stroke-width:0; stroke-opacity:1; 
stroke-linecap:round; stroke-linejoin:round;fill-rule:evenodd;"
d="M 37658,16608
37667,16609
37676,16611
37684,16614
37693,16618
37700,16623
37708,16629
37715,16635
37721,16641
37726,16649
37731,16657
37735,16665
37738,16674
37740,16683
37742,16692
37742,16701
37742,16927
37742,16936
37740,16945
37738,16954
37735,16963
37731,16971
37726,16979
37721,16986
37715,16993
37708,16999
37700,17005
37693,17010
37684,17014
37676,17017
37667,17019
37658,17020
37649,17021
37462,17021
37452,17020
37443,17019
37434,17017
37426,17014
37417,17010
37410,17005
37402,16999
37395,16993
37389,16986
37384,16979
37379,16971
37375,16963
37372,16954
37370,16945
37368,16936
37368,16927
37368,16701
37368,16692
37370,16683
37372,16674
37375,16665
37379,16657
37384,16649
37389,16641
37395,16635
37402,16629
37410,16623
37417,16618
37426,16614
37434,16611
37443,16609
37452,16608
37462,16607
37649,16607
37658,16608
Z" /> 
<path style="fill:#FF080E; fill-opacity:1.0; 
stroke:#FF080E; stroke-width:0; stroke-opacity:1; 
stroke-linecap:round; stroke-linejoin:round;fill-rule:evenodd;"
d="M 37658,17297
37667,17298
37676,17300
37684,17303
37693,17307
37700,17312
37708,17317
37715,17324
37721,17330
37726,17338
37731,17346
37735,17354
37738,17363
37740,17372
37742,17381
37742,17390
37742,17616
37742,17625
37740,17634
37738,17643
37735,17652
37731,17660
37726,17668
37721,17675
37715,17682
37708,17688
37700,17694
37693,17699
37684,17703
37676,17706
37667,17708
37658,17709
37649,17710
37462,17710
37452,17709
37443,17708
37434,17706
37426,17703
37417,17699
37410,17694
37402,17688
37395,17682
37389,17675
37384,17668
37379,17660
37375,17652
37372,17643
37370,17634
37368,17625
37368,17616
37368,17390
37368,17381
37370,17372
37372,17363
37375,17354
37379,17346
37384,17338
37389,17330
37395,17324
37402,17317
37410,17312
37417,17307
37426,17303
37434,17300
37443,17298
37452,17297
37462,17296
37649,17296
37658,17297
Z" /> 
</g>
<g >
</g>
<g >
</g>
<g style="fill:#FF080E; fill-opacity:1.0; 
stroke:#FF080E; stroke-width:0; stroke-opacity:1; 
stroke-linecap:round; stroke-linejoin:round;">
<path style="fill:#FF080E; fill-opacity:1.0; 
stroke:#FF080E; stroke-width:0; stroke-opacity:1; 
stroke-linecap:round; stroke-linejoin:round;fill-rule:evenodd;"
d="M 42827,10810
42835,10811
42844,10813
42852,10816
42859,10820
42866,10824
42873,10829
42880,10835
42885,10841
42890,10848
42895,10855
42898,10863
42901,10871
42903,10879
42904,10887
42905,10896
42905,11097
42904,11106
42903,11114
42901,11122
42898,11130
42895,11138
42890,11145
42885,11152
42880,11158
42873,11164
42866,11169
42859,11173
42852,11177
42844,11180
42835,11182
42827,11183
42819,11184
42646,11184
42638,11183
42630,11182
42621,11180
42613,11177
42606,11173
42599,11169
42592,11164
42585,11158
42580,11152
42575,11145
42570,11138
42567,11130
42564,11122
42562,11114
42561,11106
42560,11097
42560,10896
42561,10887
42562,10879
42564,10871
42567,10863
42570,10855
42575,10848
42580,10841
42585,10835
42592,10829
42599,10824
42606,10820
42613,10816
42621,10813
42630,10811
42638,10810
42646,10810
42819,10810
42827,10810
Z" /> 
<path style="fill:#FF080E; fill-opacity:1.0; 
stroke:#FF080E; stroke-width:0; stroke-opacity:1; 
stroke-linecap:round; stroke-linejoin:round;fill-rule:evenodd;"
d="M 43447,10810
43455,10811
43464,10813
43472,10816
43479,10820
43487,10824
43493,10829
43500,10835
43505,10841
43510,10848
43515,10855
43518,10863
43521,10871
43523,10879
43524,10887
43525,10896
43525,11097
43524,11106
43523,11114
43521,11122
43518,11130
43515,11138
43510,11145
43505,11152
43500,11158
43493,11164
43487,11169
43479,11173
43472,11177
43464,11180
43455,11182
43447,11183
43439,11184
43266,11184
43258,11183
43250,11182
43241,11180
43233,11177
43226,11173
43219,11169
43212,11164
43206,11158
43200,11152
43195,11145
43190,11138
43187,11130
43184,11122
43182,11114
43181,11106
43180,11097
43180,10896
43181,10887
43182,10879
43184,10871
43187,10863
43190,10855
43195,10848
43200,10841
43206,10835
43212,10829
43219,10824
43226,10820
43233,10816
43241,10813
43250,10811
43258,10810
43266,10810
43439,10810
43447,10810
Z" /> 
</g>
<g >
</g>
<g >
</g>
<g >
</g>
<g >
</g>
<g >
</g>
<g >
</g>
<g >
</g>
<g >
</g>
<g >
</g>
<g >
</g>
<g >
</g>
<g >
</g>
<g >
</g>
<g >
</g>
<g >
</g>
<g >
</g>
<g >
</g>
<g >
</g>
<g >
</g>
<g >
</g>
<g style="fill:#FF080E; fill-opacity:1.0; 
stroke:#FF080E; stroke-width:0; stroke-opacity:1; 
stroke-linecap:round; stroke-linejoin:round;">
<path style="fill:#FF080E; fill-opacity:1.0; 
stroke:#FF080E; stroke-width:0; stroke-opacity:1; 
stroke-linecap:round; stroke-linejoin:round;fill-rule:evenodd;"
d="M 37377,14386
37377,14268
37928,14268
37928,14386
37377,14386
Z" /> 
<path style="fill:#FF080E; fill-opacity:1.0; 
stroke:#FF080E; stroke-width:0; stroke-opacity:1; 
stroke-linecap:round; stroke-linejoin:round;fill-rule:evenodd;"
d="M 37377,14583
37377,14465
37928,14465
37928,14583
37377,14583
Z" /> 
<path style="fill:#FF080E; fill-opacity:1.0; 
stroke:#FF080E; stroke-width:0; stroke-opacity:1; 
stroke-linecap:round; stroke-linejoin:round;fill-rule:evenodd;"
d="M 37377,14780
37377,14662
37928,14662
37928,14780
37377,14780
Z" /> 
<path style="fill:#FF080E; fill-opacity:1.0; 
stroke:#FF080E; stroke-width:0; stroke-opacity:1; 
stroke-linecap:round; stroke-linejoin:round;fill-rule:evenodd;"
d="M 37377,14977
37377,14859
37928,14859
37928,14977
37377,14977
Z" /> 
<path style="fill:#FF080E; fill-opacity:1.0; 
stroke:#FF080E; stroke-width:0; stroke-opacity:1; 
stroke-linecap:round; stroke-linejoin:round;fill-rule:evenodd;"
d="M 37377,15174
37377,15056
37928,15056
37928,15174
37377,15174
Z" /> 
<path style="fill:#FF080E; fill-opacity:1.0; 
stroke:#FF080E; stroke-width:0; stroke-opacity:1; 
stroke-linecap:round; stroke-linejoin:round;fill-rule:evenodd;"
d="M 39109,15174
39109,15056
39661,15056
39661,15174
39109,15174
Z" /> 
<path style="fill:#FF080E; fill-opacity:1.0; 
stroke:#FF080E; stroke-width:0; stroke-opacity:1; 
stroke-linecap:round; stroke-linejoin:round;fill-rule:evenodd;"
d="M 39109,14977
39109,14859
39661,14859
39661,14977
39109,14977
Z" /> 
<path style="fill:#FF080E; fill-opacity:1.0; 
stroke:#FF080E; stroke-width:0; stroke-opacity:1; 
stroke-linecap:round; stroke-linejoin:round;fill-rule:evenodd;"
d="M 39109,14780
39109,14662
39661,14662
39661,14780
39109,14780
Z" /> 
<path style="fill:#FF080E; fill-opacity:1.0; 
stroke:#FF080E; stroke-width:0; stroke-opacity:1; 
stroke-linecap:round; stroke-linejoin:round;fill-rule:evenodd;"
d="M 39109,14583
39109,14465
39661,14465
39661,14583
39109,14583
Z" /> 
<path style="fill:#FF080E; fill-opacity:1.0; 
stroke:#FF080E; stroke-width:0; stroke-opacity:1; 
stroke-linecap:round; stroke-linejoin:round;fill-rule:evenodd;"
d="M 39109,14386
39109,14268
39661,14268
39661,14386
39109,14386
Z" /> 
</g>
<g >
</g>
<g >
</g>
<g style="fill:#FF080E; fill-opacity:1.0; 
stroke:#FF080E; stroke-width:0; stroke-opacity:1; 
stroke-linecap:round; stroke-linejoin:round;">
<path style="fill:#FF080E; fill-opacity:1.0; 
stroke:#FF080E; stroke-width:0; stroke-opacity:1; 
stroke-linecap:round; stroke-linejoin:round;fill-rule:evenodd;"
d="M 38538,18723
38538,18841
38198,18841
38198,18723
38538,18723
Z" /> 
<path style="fill:#FF080E; fill-opacity:1.0; 
stroke:#FF080E; stroke-width:0; stroke-opacity:1; 
stroke-linecap:round; stroke-linejoin:round;fill-rule:evenodd;"
d="M 38524,18526
38524,18644
38184,18644
38184,18526
38524,18526
Z" /> 
<path style="fill:#FF080E; fill-opacity:1.0; 
stroke:#FF080E; stroke-width:0; stroke-opacity:1; 
stroke-linecap:round; stroke-linejoin:round;fill-rule:evenodd;"
d="M 38524,18329
38524,18447
38184,18447
38184,18329
38524,18329
Z" /> 
<path style="fill:#FF080E; fill-opacity:1.0; 
stroke:#FF080E; stroke-width:0; stroke-opacity:1; 
stroke-linecap:round; stroke-linejoin:round;fill-rule:evenodd;"
d="M 38538,18132
38538,18251
38198,18251
38198,18132
38538,18132
Z" /> 
<path style="fill:#FF080E; fill-opacity:1.0; 
stroke:#FF080E; stroke-width:0; stroke-opacity:1; 
stroke-linecap:round; stroke-linejoin:round;fill-rule:evenodd;"
d="M 39328,18132
39328,18251
38988,18251
38988,18132
39328,18132
Z" /> 
<path style="fill:#FF080E; fill-opacity:1.0; 
stroke:#FF080E; stroke-width:0; stroke-opacity:1; 
stroke-linecap:round; stroke-linejoin:round;fill-rule:evenodd;"
d="M 39342,18329
39342,18447
39002,18447
39002,18329
39342,18329
Z" /> 
<path style="fill:#FF080E; fill-opacity:1.0; 
stroke:#FF080E; stroke-width:0; stroke-opacity:1; 
stroke-linecap:round; stroke-linejoin:round;fill-rule:evenodd;"
d="M 39342,18526
39342,18644
39002,18644
39002,18526
39342,18526
Z" /> 
<path style="fill:#FF080E; fill-opacity:1.0; 
stroke:#FF080E; stroke-width:0; stroke-opacity:1; 
stroke-linecap:round; stroke-linejoin:round;fill-rule:evenodd;"
d="M 39328,18723
39328,18841
38988,18841
38988,18723
39328,18723
Z" /> 
</g>
<g >
</g>
<g >
</g>
<g >
</g>
<g style="fill:#FF080E; fill-opacity:1.0; 
stroke:#FF080E; stroke-width:0; stroke-opacity:1; 
stroke-linecap:round; stroke-linejoin:round;">
<path style="fill:#FF080E; fill-opacity:1.0; 
stroke:#FF080E; stroke-width:0; stroke-opacity:1; 
stroke-linecap:round; stroke-linejoin:round;fill-rule:evenodd;"
d="M 41580,9551
41589,9552
41598,9554
41606,9557
41615,9561
41622,9566
41630,9572
41637,9578
41643,9584
41648,9592
41653,9600
41657,9608
41660,9617
41662,9626
41664,9635
41664,9644
41664,9870
41664,9879
41662,9888
41660,9897
41657,9906
41653,9914
41648,9922
41643,9929
41637,9936
41630,9942
41622,9948
41615,9953
41606,9957
41598,9960
41589,9962
41580,9963
41571,9964
41384,9964
41374,9963
41365,9962
41356,9960
41348,9957
41339,9953
41332,9948
41324,9942
41317,9936
41311,9929
41306,9922
41301,9914
41297,9906
41294,9897
41292,9888
41290,9879
41290,9870
41290,9644
41290,9635
41292,9626
41294,9617
41297,9608
41301,9600
41306,9592
41311,9584
41317,9578
41324,9572
41332,9566
41339,9561
41348,9557
41356,9554
41365,9552
41374,9551
41384,9550
41571,9550
41580,9551
Z" /> 
<path style="fill:#FF080E; fill-opacity:1.0; 
stroke:#FF080E; stroke-width:0; stroke-opacity:1; 
stroke-linecap:round; stroke-linejoin:round;fill-rule:evenodd;"
d="M 41580,10240
41589,10241
41598,10243
41606,10246
41615,10250
41622,10255
41630,10260
41637,10267
41643,10273
41648,10281
41653,10289
41657,10297
41660,10306
41662,10315
41664,10324
41664,10333
41664,10559
41664,10568
41662,10577
41660,10586
41657,10595
41653,10603
41648,10611
41643,10618
41637,10625
41630,10631
41622,10637
41615,10642
41606,10646
41598,10649
41589,10651
41580,10652
41571,10653
41384,10653
41374,10652
41365,10651
41356,10649
41348,10646
41339,10642
41332,10637
41324,10631
41317,10625
41311,10618
41306,10611
41301,10603
41297,10595
41294,10586
41292,10577
41290,10568
41290,10559
41290,10333
41290,10324
41292,10315
41294,10306
41297,10297
41301,10289
41306,10281
41311,10273
41317,10267
41324,10260
41332,10255
41339,10250
41348,10246
41356,10243
41365,10241
41374,10240
41384,10239
41571,10239
41580,10240
Z" /> 
</g>
<g >
</g>
<g >
</g>
<g style="fill:#FF080E; fill-opacity:1.0; 
stroke:#FF080E; stroke-width:0; stroke-opacity:1; 
stroke-linecap:round; stroke-linejoin:round;">
<path style="fill:#FF080E; fill-opacity:1.0; 
stroke:#FF080E; stroke-width:0; stroke-opacity:1; 
stroke-linecap:round; stroke-linejoin:round;fill-rule:evenodd;"
d="M 43818,9454
43827,9455
43836,9457
43845,9460
43853,9464
43861,9469
43869,9475
43875,9481
43882,9487
43887,9495
43892,9503
43896,9511
43899,9520
43901,9529
43902,9538
43903,9547
43903,9773
43902,9782
43901,9791
43899,9800
43896,9809
43892,9817
43887,9825
43882,9832
43875,9839
43869,9845
43861,9851
43853,9856
43845,9860
43836,9863
43827,9865
43818,9866
43809,9867
43622,9867
43613,9866
43604,9865
43595,9863
43586,9860
43578,9856
43570,9851
43563,9845
43556,9839
43550,9832
43545,9825
43540,9817
43536,9809
43533,9800
43531,9791
43529,9782
43529,9773
43529,9547
43529,9538
43531,9529
43533,9520
43536,9511
43540,9503
43545,9495
43550,9487
43556,9481
43563,9475
43570,9469
43578,9464
43586,9460
43595,9457
43604,9455
43613,9454
43622,9453
43809,9453
43818,9454
Z" /> 
<path style="fill:#FF080E; fill-opacity:1.0; 
stroke:#FF080E; stroke-width:0; stroke-opacity:1; 
stroke-linecap:round; stroke-linejoin:round;fill-rule:evenodd;"
d="M 43818,8765
43827,8766
43836,8768
43845,8771
43853,8775
43861,8780
43869,8786
43875,8792
43882,8798
43887,8806
43892,8814
43896,8822
43899,8831
43901,8840
43902,8849
43903,8858
43903,9084
43902,9093
43901,9102
43899,9111
43896,9120
43892,9128
43887,9136
43882,9144
43875,9150
43869,9156
43861,9162
43853,9167
43845,9171
43836,9174
43827,9176
43818,9177
43809,9178
43622,9178
43613,9177
43604,9176
43595,9174
43586,9171
43578,9167
43570,9162
43563,9156
43556,9150
43550,9144
43545,9136
43540,9128
43536,9120
43533,9111
43531,9102
43529,9093
43529,9084
43529,8858
43529,8849
43531,8840
43533,8831
43536,8822
43540,8814
43545,8806
43550,8798
43556,8792
43563,8786
43570,8780
43578,8775
43586,8771
43595,8768
43604,8766
43613,8765
43622,8764
43809,8764
43818,8765
Z" /> 
</g>
<g >
</g>
<g >
</g>
<g >
</g>
<g >
</g>
<g >
</g>
<g >
</g>
<g >
</g>
<g style="fill:#FF080E; fill-opacity:1.0; 
stroke:#FF080E; stroke-width:0; stroke-opacity:1; 
stroke-linecap:round; stroke-linejoin:round;">
<path style="fill:#FF080E; fill-opacity:1.0; 
stroke:#FF080E; stroke-width:0; stroke-opacity:1; 
stroke-linecap:round; stroke-linejoin:round;fill-rule:evenodd;"
d="M 40602,17152
40611,17153
40620,17156
40628,17159
40637,17163
40645,17167
40652,17173
40659,17179
40665,17186
40670,17193
40675,17201
40679,17209
40682,17218
40684,17227
40686,17236
40686,17245
40686,17471
40686,17481
40684,17490
40682,17499
40679,17507
40675,17515
40670,17523
40665,17531
40659,17538
40652,17544
40645,17549
40637,17554
40628,17558
40620,17561
40611,17563
40602,17564
40593,17565
40406,17565
40396,17564
40387,17563
40378,17561
40370,17558
40361,17554
40354,17549
40346,17544
40339,17538
40333,17531
40328,17523
40323,17515
40319,17507
40316,17499
40314,17490
40313,17481
40312,17471
40312,17245
40313,17236
40314,17227
40316,17218
40319,17209
40323,17201
40328,17193
40333,17186
40339,17179
40346,17173
40354,17167
40361,17163
40370,17159
40378,17156
40387,17153
40396,17152
40406,17152
40593,17152
40602,17152
Z" /> 
<path style="fill:#FF080E; fill-opacity:1.0; 
stroke:#FF080E; stroke-width:0; stroke-opacity:1; 
stroke-linecap:round; stroke-linejoin:round;fill-rule:evenodd;"
d="M 40602,16463
40611,16464
40620,16467
40628,16470
40637,16474
40645,16478
40652,16484
40659,16490
40665,16497
40670,16504
40675,16512
40679,16520
40682,16529
40684,16538
40686,16547
40686,16556
40686,16782
40686,16792
40684,16801
40682,16810
40679,16818
40675,16826
40670,16834
40665,16842
40659,16849
40652,16855
40645,16860
40637,16865
40628,16869
40620,16872
40611,16874
40602,16875
40593,16876
40406,16876
40396,16875
40387,16874
40378,16872
40370,16869
40361,16865
40354,16860
40346,16855
40339,16849
40333,16842
40328,16834
40323,16826
40319,16818
40316,16810
40314,16801
40313,16792
40312,16782
40312,16556
40313,16547
40314,16538
40316,16529
40319,16520
40323,16512
40328,16504
40333,16497
40339,16490
40346,16484
40354,16478
40361,16474
40370,16470
40378,16467
40387,16464
40396,16463
40406,16463
40593,16463
40602,16463
Z" /> 
</g>
<g >
</g>
<g style="fill:#FF080E; fill-opacity:1.0; 
stroke:#FF080E; stroke-width:0; stroke-opacity:1; 
stroke-linecap:round; stroke-linejoin:round;">
<path style="fill:#FF080E; fill-opacity:1.0; 
stroke:#FF080E; stroke-width:0; stroke-opacity:1; 
stroke-linecap:round; stroke-linejoin:round;fill-rule:evenodd;"
d="M 30216,4768
30216,5083
29468,5083
29468,4768
30216,4768
Z" /> 
<path style="fill:#FF080E; fill-opacity:1.0; 
stroke:#FF080E; stroke-width:0; stroke-opacity:1; 
stroke-linecap:round; stroke-linejoin:round;fill-rule:evenodd;"
d="M 30216,4020
30216,4335
29468,4335
29468,4020
30216,4020
Z" /> 
<path style="fill:#FF080E; fill-opacity:1.0; 
stroke:#FF080E; stroke-width:0; stroke-opacity:1; 
stroke-linecap:round; stroke-linejoin:round;fill-rule:evenodd;"
d="M 29035,4394
29035,4709
28287,4709
28287,4394
29035,4394
Z" /> 
</g>
<g >
</g>
<g style="fill:#FF080E; fill-opacity:1.0; 
stroke:#FF080E; stroke-width:0; stroke-opacity:1; 
stroke-linecap:round; stroke-linejoin:round;">
<path style="fill:#FF080E; fill-opacity:1.0; 
stroke:#FF080E; stroke-width:0; stroke-opacity:1; 
stroke-linecap:round; stroke-linejoin:round;fill-rule:evenodd;"
d="M 30216,6158
30216,6473
29468,6473
29468,6158
30216,6158
Z" /> 
<path style="fill:#FF080E; fill-opacity:1.0; 
stroke:#FF080E; stroke-width:0; stroke-opacity:1; 
stroke-linecap:round; stroke-linejoin:round;fill-rule:evenodd;"
d="M 30216,5410
30216,5725
29468,5725
29468,5410
30216,5410
Z" /> 
<path style="fill:#FF080E; fill-opacity:1.0; 
stroke:#FF080E; stroke-width:0; stroke-opacity:1; 
stroke-linecap:round; stroke-linejoin:round;fill-rule:evenodd;"
d="M 29035,5784
29035,6099
28287,6099
28287,5784
29035,5784
Z" /> 
</g>
<g >
</g>
<g style="fill:#FF080E; fill-opacity:1.0; 
stroke:#FF080E; stroke-width:0; stroke-opacity:1; 
stroke-linecap:round; stroke-linejoin:round;">
<path style="fill:#FF080E; fill-opacity:1.0; 
stroke:#FF080E; stroke-width:0; stroke-opacity:1; 
stroke-linecap:round; stroke-linejoin:round;fill-rule:evenodd;"
d="M 28287,7103
28287,6788
29035,6788
29035,7103
28287,7103
Z" /> 
<path style="fill:#FF080E; fill-opacity:1.0; 
stroke:#FF080E; stroke-width:0; stroke-opacity:1; 
stroke-linecap:round; stroke-linejoin:round;fill-rule:evenodd;"
d="M 28287,7851
28287,7536
29035,7536
29035,7851
28287,7851
Z" /> 
<path style="fill:#FF080E; fill-opacity:1.0; 
stroke:#FF080E; stroke-width:0; stroke-opacity:1; 
stroke-linecap:round; stroke-linejoin:round;fill-rule:evenodd;"
d="M 29468,7477
29468,7162
30216,7162
30216,7477
29468,7477
Z" /> 
</g>
<g >
</g>
<g style="fill:#FF080E; fill-opacity:1.0; 
stroke:#FF080E; stroke-width:0; stroke-opacity:1; 
stroke-linecap:round; stroke-linejoin:round;">
<path style="fill:#FF080E; fill-opacity:1.0; 
stroke:#FF080E; stroke-width:0; stroke-opacity:1; 
stroke-linecap:round; stroke-linejoin:round;fill-rule:evenodd;"
d="M 34015,5607
34015,5922
33267,5922
33267,5607
34015,5607
Z" /> 
<path style="fill:#FF080E; fill-opacity:1.0; 
stroke:#FF080E; stroke-width:0; stroke-opacity:1; 
stroke-linecap:round; stroke-linejoin:round;fill-rule:evenodd;"
d="M 34015,4859
34015,5174
33267,5174
33267,4859
34015,4859
Z" /> 
<path style="fill:#FF080E; fill-opacity:1.0; 
stroke:#FF080E; stroke-width:0; stroke-opacity:1; 
stroke-linecap:round; stroke-linejoin:round;fill-rule:evenodd;"
d="M 32834,5233
32834,5548
32086,5548
32086,5233
32834,5233
Z" /> 
</g>
<g >
</g>
<g style="fill:#FF080E; fill-opacity:1.0; 
stroke:#FF080E; stroke-width:0; stroke-opacity:1; 
stroke-linecap:round; stroke-linejoin:round;">
<path style="fill:#FF080E; fill-opacity:1.0; 
stroke:#FF080E; stroke-width:0; stroke-opacity:1; 
stroke-linecap:round; stroke-linejoin:round;fill-rule:evenodd;"
d="M 34027,7016
34027,7331
33279,7331
33279,7016
34027,7016
Z" /> 
<path style="fill:#FF080E; fill-opacity:1.0; 
stroke:#FF080E; stroke-width:0; stroke-opacity:1; 
stroke-linecap:round; stroke-linejoin:round;fill-rule:evenodd;"
d="M 34027,6268
34027,6583
33279,6583
33279,6268
34027,6268
Z" /> 
<path style="fill:#FF080E; fill-opacity:1.0; 
stroke:#FF080E; stroke-width:0; stroke-opacity:1; 
stroke-linecap:round; stroke-linejoin:round;fill-rule:evenodd;"
d="M 32846,6642
32846,6957
32098,6957
32098,6642
32846,6642
Z" /> 
</g>
<g >
</g>
<g >
</g>
<g >
</g>
<g style="fill:#FF080E; fill-opacity:1.0; 
stroke:#FF080E; stroke-width:0; stroke-opacity:1; 
stroke-linecap:round; stroke-linejoin:round;">
<path style="fill:#FF080E; fill-opacity:1.0; 
stroke:#FF080E; stroke-width:0; stroke-opacity:1; 
stroke-linecap:round; stroke-linejoin:round;fill-rule:evenodd;"
d="M 26516,6877
26524,6878
26533,6880
26541,6883
26548,6887
26555,6891
26562,6896
26568,6902
26574,6908
26579,6915
26584,6922
26587,6930
26590,6938
26592,6946
26593,6954
26594,6963
26594,7164
26593,7173
26592,7181
26590,7189
26587,7197
26584,7205
26579,7212
26574,7219
26568,7225
26562,7231
26555,7236
26548,7240
26541,7244
26533,7247
26524,7249
26516,7250
26508,7251
26335,7251
26327,7250
26319,7249
26310,7247
26302,7244
26295,7240
26287,7236
26281,7231
26274,7225
26269,7219
26264,7212
26259,7205
26256,7197
26253,7189
26251,7181
26250,7173
26249,7164
26249,6963
26250,6954
26251,6946
26253,6938
26256,6930
26259,6922
26264,6915
26269,6908
26274,6902
26281,6896
26287,6891
26295,6887
26302,6883
26310,6880
26319,6878
26327,6877
26335,6877
26508,6877
26516,6877
Z" /> 
<path style="fill:#FF080E; fill-opacity:1.0; 
stroke:#FF080E; stroke-width:0; stroke-opacity:1; 
stroke-linecap:round; stroke-linejoin:round;fill-rule:evenodd;"
d="M 27136,6877
27144,6878
27153,6880
27161,6883
27168,6887
27176,6891
27182,6896
27189,6902
27194,6908
27199,6915
27204,6922
27207,6930
27210,6938
27212,6946
27213,6954
27214,6963
27214,7164
27213,7173
27212,7181
27210,7189
27207,7197
27204,7205
27199,7212
27194,7219
27189,7225
27182,7231
27176,7236
27168,7240
27161,7244
27153,7247
27144,7249
27136,7250
27128,7251
26955,7251
26947,7250
26939,7249
26930,7247
26922,7244
26915,7240
26908,7236
26901,7231
26895,7225
26889,7219
26884,7212
26879,7205
26876,7197
26873,7189
26871,7181
26870,7173
26869,7164
26869,6963
26870,6954
26871,6946
26873,6938
26876,6930
26879,6922
26884,6915
26889,6908
26895,6902
26901,6896
26908,6891
26915,6887
26922,6883
26930,6880
26939,6878
26947,6877
26955,6877
27128,6877
27136,6877
Z" /> 
</g>
<g >
</g>
<g style="fill:#FF080E; fill-opacity:1.0; 
stroke:#FF080E; stroke-width:0; stroke-opacity:1; 
stroke-linecap:round; stroke-linejoin:round;">
<path style="fill:#FF080E; fill-opacity:1.0; 
stroke:#FF080E; stroke-width:0; stroke-opacity:1; 
stroke-linecap:round; stroke-linejoin:round;fill-rule:evenodd;"
d="M 27069,3645
27078,3646
27086,3648
27094,3651
27101,3654
27109,3659
27115,3664
27122,3669
27127,3676
27132,3683
27137,3690
27140,3697
27143,3705
27145,3714
27146,3722
27147,3730
27147,3903
27146,3911
27145,3919
27143,3928
27140,3936
27137,3943
27132,3950
27127,3957
27122,3963
27115,3969
27109,3974
27101,3979
27094,3982
27086,3985
27078,3987
27069,3988
27061,3989
26859,3989
26851,3988
26842,3987
26834,3985
26826,3982
26818,3979
26811,3974
26804,3969
26798,3963
26792,3957
26787,3950
26783,3943
26779,3936
26777,3928
26774,3919
26773,3911
26773,3903
26773,3730
26773,3722
26774,3714
26777,3705
26779,3697
26783,3690
26787,3683
26792,3676
26798,3669
26804,3664
26811,3659
26818,3654
26826,3651
26834,3648
26842,3646
26851,3645
26859,3644
27061,3644
27069,3645
Z" /> 
<path style="fill:#FF080E; fill-opacity:1.0; 
stroke:#FF080E; stroke-width:0; stroke-opacity:1; 
stroke-linecap:round; stroke-linejoin:round;fill-rule:evenodd;"
d="M 27069,4265
27078,4266
27086,4268
27094,4271
27101,4274
27109,4279
27115,4284
27122,4290
27127,4296
27132,4303
27137,4310
27140,4317
27143,4325
27145,4334
27146,4342
27147,4350
27147,4523
27146,4531
27145,4539
27143,4548
27140,4556
27137,4563
27132,4571
27127,4577
27122,4584
27115,4589
27109,4594
27101,4599
27094,4602
27086,4605
27078,4607
27069,4608
27061,4609
26859,4609
26851,4608
26842,4607
26834,4605
26826,4602
26818,4599
26811,4594
26804,4589
26798,4584
26792,4577
26787,4571
26783,4563
26779,4556
26777,4548
26774,4539
26773,4531
26773,4523
26773,4350
26773,4342
26774,4334
26777,4325
26779,4317
26783,4310
26787,4303
26792,4296
26798,4290
26804,4284
26811,4279
26818,4274
26826,4271
26834,4268
26842,4266
26851,4265
26859,4264
27061,4264
27069,4265
Z" /> 
</g>
<g >
</g>
<g >
</g>
<g >
</g>
<g style="fill:#FF080E; fill-opacity:1.0; 
stroke:#FF080E; stroke-width:0; stroke-opacity:1; 
stroke-linecap:round; stroke-linejoin:round;">
<path style="fill:#FF080E; fill-opacity:1.0; 
stroke:#FF080E; stroke-width:0; stroke-opacity:1; 
stroke-linecap:round; stroke-linejoin:round;fill-rule:evenodd;"
d="M 33927,14752
33936,14753
33944,14755
33952,14758
33960,14762
33967,14766
33974,14771
33980,14777
33986,14783
33991,14790
33995,14797
33999,14805
34001,14813
34003,14821
34005,14829
34005,14838
34005,15010
34005,15018
34003,15027
34001,15035
33999,15043
33995,15050
33991,15058
33986,15065
33980,15071
33974,15076
33967,15081
33960,15086
33952,15089
33944,15092
33936,15094
33927,15096
33919,15096
33717,15096
33709,15096
33700,15094
33692,15092
33684,15089
33677,15086
33669,15081
33663,15076
33656,15071
33651,15065
33646,15058
33641,15050
33638,15043
33635,15035
33633,15027
33632,15018
33631,15010
33631,14838
33632,14829
33633,14821
33635,14813
33638,14805
33641,14797
33646,14790
33651,14783
33656,14777
33663,14771
33669,14766
33677,14762
33684,14758
33692,14755
33700,14753
33709,14752
33717,14752
33919,14752
33927,14752
Z" /> 
<path style="fill:#FF080E; fill-opacity:1.0; 
stroke:#FF080E; stroke-width:0; stroke-opacity:1; 
stroke-linecap:round; stroke-linejoin:round;fill-rule:evenodd;"
d="M 33927,15372
33936,15373
33944,15375
33952,15378
33960,15382
33967,15386
33974,15391
33980,15397
33986,15403
33991,15410
33995,15417
33999,15425
34001,15433
34003,15441
34005,15449
34005,15458
34005,15630
34005,15638
34003,15647
34001,15655
33999,15663
33995,15671
33991,15678
33986,15685
33980,15691
33974,15697
33967,15702
33960,15706
33952,15710
33944,15712
33936,15714
33927,15716
33919,15716
33717,15716
33709,15716
33700,15714
33692,15712
33684,15710
33677,15706
33669,15702
33663,15697
33656,15691
33651,15685
33646,15678
33641,15671
33638,15663
33635,15655
33633,15647
33632,15638
33631,15630
33631,15458
33632,15449
33633,15441
33635,15433
33638,15425
33641,15417
33646,15410
33651,15403
33656,15397
33663,15391
33669,15386
33677,15382
33684,15378
33692,15375
33700,15373
33709,15372
33717,15372
33919,15372
33927,15372
Z" /> 
</g>
<g >
</g>
<g >
</g>
<g >
</g>
<g >
</g>
<g >
</g>
<g style="fill:#FF080E; fill-opacity:1.0; 
stroke:#FF080E; stroke-width:0; stroke-opacity:1; 
stroke-linecap:round; stroke-linejoin:round;">
<path style="fill:#FF080E; fill-opacity:1.0; 
stroke:#FF080E; stroke-width:0; stroke-opacity:1; 
stroke-linecap:round; stroke-linejoin:round;fill-rule:evenodd;"
d="M 39244,13038
39253,13040
39261,13042
39269,13044
39277,13048
39284,13052
39291,13057
39297,13063
39303,13069
39308,13076
39312,13083
39315,13091
39318,13099
39320,13107
39322,13116
39322,13124
39322,13326
39322,13334
39320,13343
39318,13351
39315,13359
39312,13366
39308,13374
39303,13380
39297,13387
39291,13392
39284,13397
39277,13402
39269,13405
39261,13408
39253,13410
39244,13412
39236,13412
39064,13412
39055,13412
39047,13410
39039,13408
39031,13405
39023,13402
39016,13397
39009,13392
39003,13387
38997,13380
38992,13374
38988,13366
38984,13359
38981,13351
38979,13343
38978,13334
38978,13326
38978,13124
38978,13116
38979,13107
38981,13099
38984,13091
38988,13083
38992,13076
38997,13069
39003,13063
39009,13057
39016,13052
39023,13048
39031,13044
39039,13042
39047,13040
39055,13038
39064,13038
39236,13038
39244,13038
Z" /> 
<path style="fill:#FF080E; fill-opacity:1.0; 
stroke:#FF080E; stroke-width:0; stroke-opacity:1; 
stroke-linecap:round; stroke-linejoin:round;fill-rule:evenodd;"
d="M 39864,13038
39873,13040
39881,13042
39889,13044
39897,13048
39904,13052
39911,13057
39917,13063
39923,13069
39928,13076
39932,13083
39936,13091
39938,13099
39940,13107
39942,13116
39942,13124
39942,13326
39942,13334
39940,13343
39938,13351
39936,13359
39932,13366
39928,13374
39923,13380
39917,13387
39911,13392
39904,13397
39897,13402
39889,13405
39881,13408
39873,13410
39864,13412
39856,13412
39684,13412
39675,13412
39667,13410
39659,13408
39651,13405
39643,13402
39636,13397
39629,13392
39623,13387
39617,13380
39612,13374
39608,13366
39604,13359
39601,13351
39599,13343
39598,13334
39598,13326
39598,13124
39598,13116
39599,13107
39601,13099
39604,13091
39608,13083
39612,13076
39617,13069
39623,13063
39629,13057
39636,13052
39643,13048
39651,13044
39659,13042
39667,13040
39675,13038
39684,13038
39856,13038
39864,13038
Z" /> 
</g>
<g >
</g>
<g style="fill:#FF080E; fill-opacity:1.0; 
stroke:#FF080E; stroke-width:0; stroke-opacity:1; 
stroke-linecap:round; stroke-linejoin:round;">
<path style="fill:#FF080E; fill-opacity:1.0; 
stroke:#FF080E; stroke-width:0; stroke-opacity:1; 
stroke-linecap:round; stroke-linejoin:round;fill-rule:evenodd;"
d="M 42848,16235
43084,16235
43084,16845
42848,16845
42848,16235
Z" /> 
<path style="fill:#FF080E; fill-opacity:1.0; 
stroke:#FF080E; stroke-width:0; stroke-opacity:1; 
stroke-linecap:round; stroke-linejoin:round;fill-rule:evenodd;"
d="M 42348,16235
42584,16235
42584,16845
42348,16845
42348,16235
Z" /> 
<path style="fill:#FF080E; fill-opacity:1.0; 
stroke:#FF080E; stroke-width:0; stroke-opacity:1; 
stroke-linecap:round; stroke-linejoin:round;fill-rule:evenodd;"
d="M 41848,16235
42084,16235
42084,16845
41848,16845
41848,16235
Z" /> 
<path style="fill:#FF080E; fill-opacity:1.0; 
stroke:#FF080E; stroke-width:0; stroke-opacity:1; 
stroke-linecap:round; stroke-linejoin:round;fill-rule:evenodd;"
d="M 41348,16235
41584,16235
41584,16845
41348,16845
41348,16235
Z" /> 
<path style="fill:#FF080E; fill-opacity:1.0; 
stroke:#FF080E; stroke-width:0; stroke-opacity:1; 
stroke-linecap:round; stroke-linejoin:round;fill-rule:evenodd;"
d="M 41348,18361
41584,18361
41584,18971
41348,18971
41348,18361
Z" /> 
<path style="fill:#FF080E; fill-opacity:1.0; 
stroke:#FF080E; stroke-width:0; stroke-opacity:1; 
stroke-linecap:round; stroke-linejoin:round;fill-rule:evenodd;"
d="M 41848,18361
42084,18361
42084,18971
41848,18971
41848,18361
Z" /> 
<path style="fill:#FF080E; fill-opacity:1.0; 
stroke:#FF080E; stroke-width:0; stroke-opacity:1; 
stroke-linecap:round; stroke-linejoin:round;fill-rule:evenodd;"
d="M 42348,18361
42584,18361
42584,18971
42348,18971
42348,18361
Z" /> 
<path style="fill:#FF080E; fill-opacity:1.0; 
stroke:#FF080E; stroke-width:0; stroke-opacity:1; 
stroke-linecap:round; stroke-linejoin:round;fill-rule:evenodd;"
d="M 42848,18361
43084,18361
43084,18971
42848,18971
42848,18361
Z" /> 
</g>
<g >
</g>
<g style="fill:#FF080E; fill-opacity:1.0; 
stroke:#FF080E; stroke-width:0; stroke-opacity:1; 
stroke-linecap:round; stroke-linejoin:round;">
<path style="fill:#FF080E; fill-opacity:1.0; 
stroke:#FF080E; stroke-width:0; stroke-opacity:1; 
stroke-linecap:round; stroke-linejoin:round;fill-rule:evenodd;"
d="M 42694,13077
42930,13077
42930,13688
42694,13688
42694,13077
Z" /> 
<path style="fill:#FF080E; fill-opacity:1.0; 
stroke:#FF080E; stroke-width:0; stroke-opacity:1; 
stroke-linecap:round; stroke-linejoin:round;fill-rule:evenodd;"
d="M 42194,13077
42430,13077
42430,13688
42194,13688
42194,13077
Z" /> 
<path style="fill:#FF080E; fill-opacity:1.0; 
stroke:#FF080E; stroke-width:0; stroke-opacity:1; 
stroke-linecap:round; stroke-linejoin:round;fill-rule:evenodd;"
d="M 41694,13077
41930,13077
41930,13688
41694,13688
41694,13077
Z" /> 
<path style="fill:#FF080E; fill-opacity:1.0; 
stroke:#FF080E; stroke-width:0; stroke-opacity:1; 
stroke-linecap:round; stroke-linejoin:round;fill-rule:evenodd;"
d="M 41194,13077
41430,13077
41430,13688
41194,13688
41194,13077
Z" /> 
<path style="fill:#FF080E; fill-opacity:1.0; 
stroke:#FF080E; stroke-width:0; stroke-opacity:1; 
stroke-linecap:round; stroke-linejoin:round;fill-rule:evenodd;"
d="M 41194,15203
41430,15203
41430,15814
41194,15814
41194,15203
Z" /> 
<path style="fill:#FF080E; fill-opacity:1.0; 
stroke:#FF080E; stroke-width:0; stroke-opacity:1; 
stroke-linecap:round; stroke-linejoin:round;fill-rule:evenodd;"
d="M 41694,15203
41930,15203
41930,15814
41694,15814
41694,15203
Z" /> 
<path style="fill:#FF080E; fill-opacity:1.0; 
stroke:#FF080E; stroke-width:0; stroke-opacity:1; 
stroke-linecap:round; stroke-linejoin:round;fill-rule:evenodd;"
d="M 42194,15203
42430,15203
42430,15814
42194,15814
42194,15203
Z" /> 
<path style="fill:#FF080E; fill-opacity:1.0; 
stroke:#FF080E; stroke-width:0; stroke-opacity:1; 
stroke-linecap:round; stroke-linejoin:round;fill-rule:evenodd;"
d="M 42694,15203
42930,15203
42930,15814
42694,15814
42694,15203
Z" /> 
</g>
<g >
</g>
<g >
</g>
<g style="fill:#FF080E; fill-opacity:1.0; 
stroke:#FF080E; stroke-width:0; stroke-opacity:1; 
stroke-linecap:round; stroke-linejoin:round;">
<path style="fill:#FF080E; fill-opacity:1.0; 
stroke:#FF080E; stroke-width:0; stroke-opacity:1; 
stroke-linecap:round; stroke-linejoin:round;fill-rule:evenodd;"
d="M 34285,17733
34285,17969
33674,17969
33674,17733
34285,17733
Z" /> 
<path style="fill:#FF080E; fill-opacity:1.0; 
stroke:#FF080E; stroke-width:0; stroke-opacity:1; 
stroke-linecap:round; stroke-linejoin:round;fill-rule:evenodd;"
d="M 34285,17233
34285,17469
33674,17469
33674,17233
34285,17233
Z" /> 
<path style="fill:#FF080E; fill-opacity:1.0; 
stroke:#FF080E; stroke-width:0; stroke-opacity:1; 
stroke-linecap:round; stroke-linejoin:round;fill-rule:evenodd;"
d="M 34285,16733
34285,16969
33674,16969
33674,16733
34285,16733
Z" /> 
<path style="fill:#FF080E; fill-opacity:1.0; 
stroke:#FF080E; stroke-width:0; stroke-opacity:1; 
stroke-linecap:round; stroke-linejoin:round;fill-rule:evenodd;"
d="M 34285,16233
34285,16469
33674,16469
33674,16233
34285,16233
Z" /> 
<path style="fill:#FF080E; fill-opacity:1.0; 
stroke:#FF080E; stroke-width:0; stroke-opacity:1; 
stroke-linecap:round; stroke-linejoin:round;fill-rule:evenodd;"
d="M 36411,16233
36411,16469
35800,16469
35800,16233
36411,16233
Z" /> 
<path style="fill:#FF080E; fill-opacity:1.0; 
stroke:#FF080E; stroke-width:0; stroke-opacity:1; 
stroke-linecap:round; stroke-linejoin:round;fill-rule:evenodd;"
d="M 36411,16733
36411,16969
35800,16969
35800,16733
36411,16733
Z" /> 
<path style="fill:#FF080E; fill-opacity:1.0; 
stroke:#FF080E; stroke-width:0; stroke-opacity:1; 
stroke-linecap:round; stroke-linejoin:round;fill-rule:evenodd;"
d="M 36411,17233
36411,17469
35800,17469
35800,17233
36411,17233
Z" /> 
<path style="fill:#FF080E; fill-opacity:1.0; 
stroke:#FF080E; stroke-width:0; stroke-opacity:1; 
stroke-linecap:round; stroke-linejoin:round;fill-rule:evenodd;"
d="M 36411,17733
36411,17969
35800,17969
35800,17733
36411,17733
Z" /> 
</g>
<g >
</g>
<g >
</g>
<g >
</g>
<g style="fill:#FF080E; fill-opacity:1.0; 
stroke:#FF080E; stroke-width:0; stroke-opacity:1; 
stroke-linecap:round; stroke-linejoin:round;">
<path style="fill:#FF080E; fill-opacity:1.0; 
stroke:#FF080E; stroke-width:0; stroke-opacity:1; 
stroke-linecap:round; stroke-linejoin:round;fill-rule:evenodd;"
d="M 34605,18954
34613,18955
34621,18957
34629,18960
34637,18963
34644,18968
34651,18973
34657,18979
34663,18985
34668,18992
34672,18999
34676,19006
34679,19014
34681,19023
34682,19031
34682,19039
34682,19212
34682,19220
34681,19228
34679,19237
34676,19245
34672,19252
34668,19260
34663,19266
34657,19273
34651,19278
34644,19283
34637,19288
34629,19291
34621,19294
34613,19296
34605,19297
34596,19298
34394,19298
34386,19297
34378,19296
34369,19294
34361,19291
34354,19288
34347,19283
34340,19278
34333,19273
34328,19266
34323,19260
34318,19252
34315,19245
34312,19237
34310,19228
34309,19220
34308,19212
34308,19039
34309,19031
34310,19023
34312,19014
34315,19006
34318,18999
34323,18992
34328,18985
34333,18979
34340,18973
34347,18968
34354,18963
34361,18960
34369,18957
34378,18955
34386,18954
34394,18953
34596,18953
34605,18954
Z" /> 
<path style="fill:#FF080E; fill-opacity:1.0; 
stroke:#FF080E; stroke-width:0; stroke-opacity:1; 
stroke-linecap:round; stroke-linejoin:round;fill-rule:evenodd;"
d="M 34605,18334
34613,18335
34621,18337
34629,18340
34637,18343
34644,18348
34651,18353
34657,18358
34663,18365
34668,18371
34672,18379
34676,18386
34679,18394
34681,18403
34682,18411
34682,18419
34682,18592
34682,18600
34681,18608
34679,18617
34676,18625
34672,18632
34668,18639
34663,18646
34657,18652
34651,18658
34644,18663
34637,18668
34629,18671
34621,18674
34613,18676
34605,18677
34596,18678
34394,18678
34386,18677
34378,18676
34369,18674
34361,18671
34354,18668
34347,18663
34340,18658
34333,18652
34328,18646
34323,18639
34318,18632
34315,18625
34312,18617
34310,18608
34309,18600
34308,18592
34308,18419
34309,18411
34310,18403
34312,18394
34315,18386
34318,18379
34323,18371
34328,18365
34333,18358
34340,18353
34347,18348
34354,18343
34361,18340
34369,18337
34378,18335
34386,18334
34394,18333
34596,18333
34605,18334
Z" /> 
</g>
<g >
</g>
<g style="fill:#FF080E; fill-opacity:1.0; 
stroke:#FF080E; stroke-width:0; stroke-opacity:1; 
stroke-linecap:round; stroke-linejoin:round;">
<path style="fill:#FF080E; fill-opacity:1.0; 
stroke:#FF080E; stroke-width:0; stroke-opacity:1; 
stroke-linecap:round; stroke-linejoin:round;fill-rule:evenodd;"
d="M 40624,17897
40633,17898
40641,17900
40649,17903
40656,17906
40664,17911
40670,17916
40677,17921
40682,17928
40687,17934
40692,17942
40695,17949
40698,17957
40700,17966
40702,17974
40702,17982
40702,18155
40702,18163
40700,18171
40698,18180
40695,18188
40692,18195
40687,18202
40682,18209
40677,18215
40670,18221
40664,18226
40656,18231
40649,18234
40641,18237
40633,18239
40624,18240
40616,18241
40414,18241
40406,18240
40397,18239
40389,18237
40381,18234
40373,18231
40366,18226
40359,18221
40353,18215
40348,18209
40342,18202
40338,18195
40335,18188
40332,18180
40330,18171
40328,18163
40328,18155
40328,17982
40328,17974
40330,17966
40332,17957
40335,17949
40338,17942
40342,17934
40348,17928
40353,17921
40359,17916
40366,17911
40373,17906
40381,17903
40389,17900
40397,17898
40406,17897
40414,17896
40616,17896
40624,17897
Z" /> 
<path style="fill:#FF080E; fill-opacity:1.0; 
stroke:#FF080E; stroke-width:0; stroke-opacity:1; 
stroke-linecap:round; stroke-linejoin:round;fill-rule:evenodd;"
d="M 40624,18517
40633,18518
40641,18520
40649,18523
40656,18526
40664,18531
40670,18536
40677,18542
40682,18548
40687,18555
40692,18562
40695,18569
40698,18577
40700,18586
40702,18594
40702,18602
40702,18775
40702,18783
40700,18791
40698,18800
40695,18808
40692,18815
40687,18822
40682,18829
40677,18836
40670,18841
40664,18846
40656,18851
40649,18854
40641,18857
40633,18859
40624,18860
40616,18861
40414,18861
40406,18860
40397,18859
40389,18857
40381,18854
40373,18851
40366,18846
40359,18841
40353,18836
40348,18829
40342,18822
40338,18815
40335,18808
40332,18800
40330,18791
40328,18783
40328,18775
40328,18602
40328,18594
40330,18586
40332,18577
40335,18569
40338,18562
40342,18555
40348,18548
40353,18542
40359,18536
40366,18531
40373,18526
40381,18523
40389,18520
40397,18518
40406,18517
40414,18516
40616,18516
40624,18517
Z" /> 
</g>
<g >
</g>
<g style="fill:#FF080E; fill-opacity:1.0; 
stroke:#FF080E; stroke-width:0; stroke-opacity:1; 
stroke-linecap:round; stroke-linejoin:round;">
<path style="fill:#FF080E; fill-opacity:1.0; 
stroke:#FF080E; stroke-width:0; stroke-opacity:1; 
stroke-linecap:round; stroke-linejoin:round;fill-rule:evenodd;"
d="M 39995,16909
40004,16910
40012,16912
40020,16915
40027,16919
40035,16923
40041,16928
40048,16934
40053,16940
40058,16947
40063,16954
40066,16962
40069,16970
40071,16978
40072,16986
40073,16995
40073,17167
40072,17176
40071,17184
40069,17192
40066,17200
40063,17208
40058,17215
40053,17222
40048,17228
40041,17234
40035,17239
40027,17243
40020,17247
40012,17250
40004,17252
39995,17253
39987,17253
39785,17253
39777,17253
39768,17252
39760,17250
39752,17247
39744,17243
39737,17239
39730,17234
39724,17228
39718,17222
39713,17215
39709,17208
39705,17200
39703,17192
39701,17184
39699,17176
39699,17167
39699,16995
39699,16986
39701,16978
39703,16970
39705,16962
39709,16954
39713,16947
39718,16940
39724,16934
39730,16928
39737,16923
39744,16919
39752,16915
39760,16912
39768,16910
39777,16909
39785,16909
39987,16909
39995,16909
Z" /> 
<path style="fill:#FF080E; fill-opacity:1.0; 
stroke:#FF080E; stroke-width:0; stroke-opacity:1; 
stroke-linecap:round; stroke-linejoin:round;fill-rule:evenodd;"
d="M 39995,16289
40004,16290
40012,16292
40020,16295
40027,16299
40035,16303
40041,16308
40048,16314
40053,16320
40058,16327
40063,16334
40066,16342
40069,16350
40071,16358
40072,16366
40073,16375
40073,16547
40072,16555
40071,16564
40069,16572
40066,16580
40063,16588
40058,16595
40053,16602
40048,16608
40041,16614
40035,16619
40027,16623
40020,16627
40012,16629
40004,16631
39995,16633
39987,16633
39785,16633
39777,16633
39768,16631
39760,16629
39752,16627
39744,16623
39737,16619
39730,16614
39724,16608
39718,16602
39713,16595
39709,16588
39705,16580
39703,16572
39701,16564
39699,16555
39699,16547
39699,16375
39699,16366
39701,16358
39703,16350
39705,16342
39709,16334
39713,16327
39718,16320
39724,16314
39730,16308
39737,16303
39744,16299
39752,16295
39760,16292
39768,16290
39777,16289
39785,16289
39987,16289
39995,16289
Z" /> 
</g>
<g >
</g>
<g >
</g>
<g >
</g>
<g >
</g>
<g >
</g>
<g >
</g>
<g >
</g>
<g >
</g>
<g >
</g>
<g >
</g>
<g >
</g>
<g style="fill:#FF080E; fill-opacity:1.0; 
stroke:#FF080E; stroke-width:0; stroke-opacity:1; 
stroke-linecap:round; stroke-linejoin:round;">
<path style="fill:#FF080E; fill-opacity:1.0; 
stroke:#FF080E; stroke-width:0; stroke-opacity:1; 
stroke-linecap:round; stroke-linejoin:round;fill-rule:evenodd;"
d="M 46343,12190
46343,12308
45792,12308
45792,12190
46343,12190
Z" /> 
<path style="fill:#FF080E; fill-opacity:1.0; 
stroke:#FF080E; stroke-width:0; stroke-opacity:1; 
stroke-linecap:round; stroke-linejoin:round;fill-rule:evenodd;"
d="M 46343,11993
46343,12111
45792,12111
45792,11993
46343,11993
Z" /> 
<path style="fill:#FF080E; fill-opacity:1.0; 
stroke:#FF080E; stroke-width:0; stroke-opacity:1; 
stroke-linecap:round; stroke-linejoin:round;fill-rule:evenodd;"
d="M 46343,11796
46343,11915
45792,11915
45792,11796
46343,11796
Z" /> 
<path style="fill:#FF080E; fill-opacity:1.0; 
stroke:#FF080E; stroke-width:0; stroke-opacity:1; 
stroke-linecap:round; stroke-linejoin:round;fill-rule:evenodd;"
d="M 46343,11600
46343,11718
45792,11718
45792,11600
46343,11600
Z" /> 
<path style="fill:#FF080E; fill-opacity:1.0; 
stroke:#FF080E; stroke-width:0; stroke-opacity:1; 
stroke-linecap:round; stroke-linejoin:round;fill-rule:evenodd;"
d="M 46343,11403
46343,11521
45792,11521
45792,11403
46343,11403
Z" /> 
<path style="fill:#FF080E; fill-opacity:1.0; 
stroke:#FF080E; stroke-width:0; stroke-opacity:1; 
stroke-linecap:round; stroke-linejoin:round;fill-rule:evenodd;"
d="M 44610,11403
44610,11521
44059,11521
44059,11403
44610,11403
Z" /> 
<path style="fill:#FF080E; fill-opacity:1.0; 
stroke:#FF080E; stroke-width:0; stroke-opacity:1; 
stroke-linecap:round; stroke-linejoin:round;fill-rule:evenodd;"
d="M 44610,11600
44610,11718
44059,11718
44059,11600
44610,11600
Z" /> 
<path style="fill:#FF080E; fill-opacity:1.0; 
stroke:#FF080E; stroke-width:0; stroke-opacity:1; 
stroke-linecap:round; stroke-linejoin:round;fill-rule:evenodd;"
d="M 44610,11796
44610,11915
44059,11915
44059,11796
44610,11796
Z" /> 
<path style="fill:#FF080E; fill-opacity:1.0; 
stroke:#FF080E; stroke-width:0; stroke-opacity:1; 
stroke-linecap:round; stroke-linejoin:round;fill-rule:evenodd;"
d="M 44610,11993
44610,12111
44059,12111
44059,11993
44610,11993
Z" /> 
<path style="fill:#FF080E; fill-opacity:1.0; 
stroke:#FF080E; stroke-width:0; stroke-opacity:1; 
stroke-linecap:round; stroke-linejoin:round;fill-rule:evenodd;"
d="M 44610,12190
44610,12308
44059,12308
44059,12190
44610,12190
Z" /> 
</g>
<g >
</g>
<g style="fill:#FF080E; fill-opacity:1.0; 
stroke:#FF080E; stroke-width:0; stroke-opacity:1; 
stroke-linecap:round; stroke-linejoin:round;">
<path style="fill:#FF080E; fill-opacity:1.0; 
stroke:#FF080E; stroke-width:0; stroke-opacity:1; 
stroke-linecap:round; stroke-linejoin:round;fill-rule:evenodd;"
d="M 37078,16604
37087,16605
37097,16608
37106,16611
37115,16615
37123,16620
37131,16626
37138,16632
37144,16640
37150,16647
37155,16656
37159,16664
37162,16673
37165,16683
37166,16692
37167,16702
37167,16958
37166,16968
37165,16977
37162,16986
37159,16996
37155,17004
37150,17013
37144,17020
37138,17027
37131,17034
37123,17040
37115,17045
37106,17049
37097,17052
37087,17054
37078,17056
37068,17056
36714,17056
36704,17056
36695,17054
36685,17052
36676,17049
36667,17045
36659,17040
36651,17034
36644,17027
36638,17020
36632,17013
36627,17004
36623,16996
36620,16986
36617,16977
36616,16968
36615,16958
36615,16702
36616,16692
36617,16683
36620,16673
36623,16664
36627,16656
36632,16647
36638,16640
36644,16632
36651,16626
36659,16620
36667,16615
36676,16611
36685,16608
36695,16605
36704,16604
36714,16604
37068,16604
37078,16604
Z" /> 
<path style="fill:#FF080E; fill-opacity:1.0; 
stroke:#FF080E; stroke-width:0; stroke-opacity:1; 
stroke-linecap:round; stroke-linejoin:round;fill-rule:evenodd;"
d="M 37078,17411
37087,17413
37097,17415
37106,17418
37115,17422
37123,17427
37131,17433
37138,17439
37144,17447
37150,17454
37155,17463
37159,17471
37162,17480
37165,17490
37166,17499
37167,17509
37167,17765
37166,17775
37165,17784
37162,17794
37159,17803
37155,17811
37150,17820
37144,17827
37138,17835
37131,17841
37123,17847
37115,17852
37106,17856
37097,17859
37087,17861
37078,17863
37068,17863
36714,17863
36704,17863
36695,17861
36685,17859
36676,17856
36667,17852
36659,17847
36651,17841
36644,17835
36638,17827
36632,17820
36627,17811
36623,17803
36620,17794
36617,17784
36616,17775
36615,17765
36615,17509
36616,17499
36617,17490
36620,17480
36623,17471
36627,17463
36632,17454
36638,17447
36644,17439
36651,17433
36659,17427
36667,17422
36676,17418
36685,17415
36695,17413
36704,17411
36714,17411
37068,17411
37078,17411
Z" /> 
</g>
<g >
</g>
<g style="fill:#FF080E; fill-opacity:1.0; 
stroke:#FF080E; stroke-width:0; stroke-opacity:1; 
stroke-linecap:round; stroke-linejoin:round;">
<path style="fill:#FF080E; fill-opacity:1.0; 
stroke:#FF080E; stroke-width:0; stroke-opacity:1; 
stroke-linecap:round; stroke-linejoin:round;fill-rule:evenodd;"
d="M 37053,15855
37063,15857
37072,15859
37081,15862
37090,15866
37098,15871
37106,15877
37113,15884
37120,15891
37125,15899
37130,15907
37134,15916
37138,15925
37140,15934
37141,15944
37142,15953
37142,16308
37141,16317
37140,16327
37138,16336
37134,16345
37130,16354
37125,16362
37120,16370
37113,16377
37106,16384
37098,16389
37090,16394
37081,16399
37072,16402
37063,16404
37053,16406
37043,16406
36788,16406
36778,16406
36768,16404
36759,16402
36750,16399
36741,16394
36733,16389
36725,16384
36718,16377
36711,16370
36706,16362
36701,16354
36697,16345
36693,16336
36691,16327
36690,16317
36689,16308
36689,15953
36690,15944
36691,15934
36693,15925
36697,15916
36701,15907
36706,15899
36711,15891
36718,15884
36725,15877
36733,15871
36741,15866
36750,15862
36759,15859
36768,15857
36778,15855
36788,15855
37043,15855
37053,15855
Z" /> 
<path style="fill:#FF080E; fill-opacity:1.0; 
stroke:#FF080E; stroke-width:0; stroke-opacity:1; 
stroke-linecap:round; stroke-linejoin:round;fill-rule:evenodd;"
d="M 37868,15848
37878,15850
37887,15852
37896,15855
37905,15859
37913,15864
37921,15870
37928,15876
37934,15883
37940,15891
37945,15899
37949,15908
37952,15917
37954,15926
37956,15935
37956,15945
37956,16302
37956,16311
37954,16321
37952,16330
37949,16339
37945,16348
37940,16356
37934,16363
37928,16371
37921,16377
37913,16383
37905,16388
37896,16392
37887,16395
37878,16397
37868,16398
37859,16399
37606,16399
37596,16398
37587,16397
37578,16395
37569,16392
37560,16388
37552,16383
37544,16377
37537,16371
37531,16363
37525,16356
37520,16348
37516,16339
37513,16330
37511,16321
37509,16311
37509,16302
37509,15945
37509,15935
37511,15926
37513,15917
37516,15908
37520,15899
37525,15891
37531,15883
37537,15876
37544,15870
37552,15864
37560,15859
37569,15855
37578,15852
37587,15850
37596,15848
37606,15848
37859,15848
37868,15848
Z" /> 
</g>
<g >
</g>
<g style="fill:#FF080E; fill-opacity:1.0; 
stroke:#FF080E; stroke-width:0; stroke-opacity:1; 
stroke-linecap:round; stroke-linejoin:round;">
<path style="fill:#FF080E; fill-opacity:1.0; 
stroke:#FF080E; stroke-width:0; stroke-opacity:1; 
stroke-linecap:round; stroke-linejoin:round;fill-rule:evenodd;"
d="M 36783,13146
36783,13461
36035,13461
36035,13146
36783,13146
Z" /> 
<path style="fill:#FF080E; fill-opacity:1.0; 
stroke:#FF080E; stroke-width:0; stroke-opacity:1; 
stroke-linecap:round; stroke-linejoin:round;fill-rule:evenodd;"
d="M 36783,12398
36783,12713
36035,12713
36035,12398
36783,12398
Z" /> 
<path style="fill:#FF080E; fill-opacity:1.0; 
stroke:#FF080E; stroke-width:0; stroke-opacity:1; 
stroke-linecap:round; stroke-linejoin:round;fill-rule:evenodd;"
d="M 35602,12772
35602,13087
34854,13087
34854,12772
35602,12772
Z" /> 
</g>
<g >
</g>
<g style="fill:#FF080E; fill-opacity:1.0; 
stroke:#FF080E; stroke-width:0; stroke-opacity:1; 
stroke-linecap:round; stroke-linejoin:round;">
<path style="fill:#FF080E; fill-opacity:1.0; 
stroke:#FF080E; stroke-width:0; stroke-opacity:1; 
stroke-linecap:round; stroke-linejoin:round;fill-rule:evenodd;"
d="M 36720,14607
36720,14922
35972,14922
35972,14607
36720,14607
Z" /> 
<path style="fill:#FF080E; fill-opacity:1.0; 
stroke:#FF080E; stroke-width:0; stroke-opacity:1; 
stroke-linecap:round; stroke-linejoin:round;fill-rule:evenodd;"
d="M 36720,13859
36720,14174
35972,14174
35972,13859
36720,13859
Z" /> 
<path style="fill:#FF080E; fill-opacity:1.0; 
stroke:#FF080E; stroke-width:0; stroke-opacity:1; 
stroke-linecap:round; stroke-linejoin:round;fill-rule:evenodd;"
d="M 35539,14233
35539,14548
34791,14548
34791,14233
35539,14233
Z" /> 
</g>
<g >
</g>
<g style="fill:#FF080E; fill-opacity:1.0; 
stroke:#FF080E; stroke-width:0; stroke-opacity:1; 
stroke-linecap:round; stroke-linejoin:round;">
<path style="fill:#FF080E; fill-opacity:1.0; 
stroke:#FF080E; stroke-width:0; stroke-opacity:1; 
stroke-linecap:round; stroke-linejoin:round;fill-rule:evenodd;"
d="M 39246,15917
39255,15918
39264,15920
39272,15924
39281,15927
39289,15932
39296,15938
39303,15944
39309,15951
39314,15958
39319,15966
39323,15974
39326,15983
39328,15992
39330,16001
39330,16010
39330,16197
39330,16206
39328,16215
39326,16224
39323,16233
39319,16241
39314,16249
39309,16256
39303,16263
39296,16269
39289,16275
39281,16279
39272,16283
39264,16286
39255,16289
39246,16290
39237,16290
39010,16290
39001,16290
38992,16289
38983,16286
38975,16283
38966,16279
38958,16275
38951,16269
38944,16263
38938,16256
38933,16249
38928,16241
38924,16233
38921,16224
38919,16215
38917,16206
38917,16197
38917,16010
38917,16001
38919,15992
38921,15983
38924,15974
38928,15966
38933,15958
38938,15951
38944,15944
38951,15938
38958,15932
38966,15927
38975,15924
38983,15920
38992,15918
39001,15917
39010,15916
39237,15916
39246,15917
Z" /> 
<path style="fill:#FF080E; fill-opacity:1.0; 
stroke:#FF080E; stroke-width:0; stroke-opacity:1; 
stroke-linecap:round; stroke-linejoin:round;fill-rule:evenodd;"
d="M 38557,15917
38566,15918
38575,15920
38584,15924
38592,15927
38600,15932
38607,15938
38614,15944
38620,15951
38625,15958
38630,15966
38634,15974
38637,15983
38639,15992
38641,16001
38641,16010
38641,16197
38641,16206
38639,16215
38637,16224
38634,16233
38630,16241
38625,16249
38620,16256
38614,16263
38607,16269
38600,16275
38592,16279
38584,16283
38575,16286
38566,16289
38557,16290
38548,16290
38321,16290
38312,16290
38303,16289
38294,16286
38286,16283
38277,16279
38269,16275
38262,16269
38255,16263
38249,16256
38244,16249
38239,16241
38235,16233
38232,16224
38230,16215
38228,16206
38228,16197
38228,16010
38228,16001
38230,15992
38232,15983
38235,15974
38239,15966
38244,15958
38249,15951
38255,15944
38262,15938
38269,15932
38277,15927
38286,15924
38294,15920
38303,15918
38312,15917
38321,15916
38548,15916
38557,15917
Z" /> 
</g>
<g >
</g>
<g >
</g>
<g >
</g>
</g>
<g style="fill:#000000; fill-opacity:1.0; 
stroke:#000000; stroke-width:0; stroke-opacity:1; 
stroke-linecap:round; stroke-linejoin:round;">
</g>
<g style="fill:#C2C200; fill-opacity:1.0; 
stroke:#C2C200; stroke-width:0; stroke-opacity:1; 
stroke-linecap:round; stroke-linejoin:round;">
</g>
<g style="fill:#C2C200; fill-opacity:1.0; 
stroke:#C2C200; stroke-width:59.0551; stroke-opacity:1; 
stroke-linecap:round; stroke-linejoin:round;">
</g>
<g style="fill:#C2C200; fill-opacity:0.0; 
stroke:#C2C200; stroke-width:59.0551; stroke-opacity:1; 
stroke-linecap:round; stroke-linejoin:round;">
<path d="M24070 22867
L50070 22867
" />
<path d="M51070 7967
L50070 6967
" />
<path d="M51070 20867
L51070 7967
" />
<path d="M50070 2467
L49470 1867
" />
<path d="M50070 21867
L51070 20867
" />
<path d="M50070 22867
L50070 21867
" />
<path d="M50070 6967
L50070 2467
" />
<path d="M24070 1867
L24070 22867
" />
<path d="M49470 1867
L24070 1867
" />
<g >
</g>
<g >
</g>
<g >
</g>
<g >
</g>
<g >
</g>
<g >
</g>
<g >
</g>
<g >
</g>
<g >
</g>
<g >
</g>
<g >
</g>
<g >
</g>
<g >
</g>
<g >
</g>
<g >
</g>
<g >
</g>
<g >
</g>
<g >
</g>
<g >
</g>
<g >
</g>
<g >
</g>
<g >
</g>
<g >
</g>
<g >
</g>
<g >
</g>
<g >
</g>
<g >
</g>
<g >
</g>
<g >
</g>
<g >
</g>
<g >
</g>
<g >
</g>
<g >
</g>
<g >
</g>
<g >
</g>
<g >
</g>
<g >
</g>
<g >
</g>
<g >
</g>
<g >
</g>
<g >
</g>
<g >
</g>
<g >
</g>
<g >
</g>
<g >
</g>
<g >
</g>
<g >
</g>
<g >
</g>
<g >
</g>
<g >
</g>
<g >
</g>
<g >
</g>
<g >
</g>
<g >
</g>
<g >
</g>
<g >
</g>
<g >
</g>
<g >
</g>
<g >
</g>
<g >
</g>
<g >
</g>
<g >
</g>
<g >
</g>
<g >
</g>
<g >
</g>
<g >
</g>
<g >
</g>
<g >
</g>
<g >
</g>
<g >
</g>
<g >
</g>
<g >
</g>
<g >
</g>
<g >
</g>
<g >
</g>
<g >
</g>
<g >
</g>
<g >
</g>
<g >
</g>
<g >
</g>
<g >
</g>
<g >
</g>
<g >
</g>
</g> 
</svg>
