<?xml version="1.0" standalone="no"?>
 <!DOCTYPE svg PUBLIC "-//W3C//DTD SVG 1.1//EN" 
 "http://www.w3.org/Graphics/SVG/1.1/DTD/svg11.dtd"> 
<svg xmlns="http://www.w3.org/2000/svg" version="1.1" 
    width="16.9012cm" height="6.48462cm" viewBox="0 0 66540 25530 ">
<title>SVG Picture created as uno shield v1.0 project SMD-brd.svg date 2019/11/08 00:15:55 </title>
  <desc>Picture generated by PCBNEW </desc>
<g style="fill:#000000; fill-opacity:1;stroke:#000000; stroke-opacity:1;
stroke-linecap:round; stroke-linejoin:round; "
 transform="translate(0 0) scale(1 1)">
</g>
<g style="fill:#000000; fill-opacity:0.0; 
stroke:#000000; stroke-width:-0.000393701; stroke-opacity:1; 
stroke-linecap:round; stroke-linejoin:round;">
</g>
<g style="fill:#0B00C2; fill-opacity:0.0; 
stroke:#0B00C2; stroke-width:-0.000393701; stroke-opacity:1; 
stroke-linecap:round; stroke-linejoin:round;">
</g>
<g style="fill:#0B00C2; fill-opacity:0.0; 
stroke:#0B00C2; stroke-width:31.4961; stroke-opacity:1; 
stroke-linecap:round; stroke-linejoin:round;">
<circle cx="35052.5" cy="15969.2" r="153.739" /> 
<circle cx="37988.5" cy="15446.2" r="153.739" /> 
<circle cx="38788.5" cy="17614.2" r="153.739" /> 
<circle cx="38757.5" cy="19377.2" r="153.739" /> 
<circle cx="41100.5" cy="17587.2" r="153.739" /> 
<circle cx="43334.5" cy="18133.2" r="153.739" /> 
<circle cx="43332.5" cy="16996.2" r="153.739" /> 
<circle cx="37967.4" cy="14005.6" r="124.128" /> 
<circle cx="39071.5" cy="14008" r="124.128" /> 
<circle cx="39072.4" cy="15452.3" r="124.128" /> 
<circle cx="35531.3" cy="20123" r="124.128" /> 
<circle cx="42043.1" cy="20119.1" r="124.128" /> 
<circle cx="43995.9" cy="18323.8" r="124.128" /> 
<circle cx="43995.9" cy="13835.6" r="124.128" /> 
<circle cx="42086.4" cy="11756.9" r="124.128" /> 
<circle cx="35137.6" cy="11756.9" r="124.128" /> 
<circle cx="33054.9" cy="13579.7" r="124.128" /> 
<circle cx="33054.9" cy="18008.9" r="124.128" /> 
<circle cx="39908.3" cy="20137.9" r="124.128" /> 
<circle cx="40625.3" cy="20141.9" r="124.128" /> 
<circle cx="40947.1" cy="13611.8" r="124.128" /> 
<circle cx="43204.5" cy="14440.2" r="153.739" /> 
<circle cx="40947.8" cy="15263.3" r="124.128" /> 
<circle cx="40304.8" cy="20013.7" r="124.128" /> 
<circle cx="38784.7" cy="18205.9" r="181.72" /> 
<circle cx="35128.8" cy="18214.6" r="124.128" /> 
<g >
</g>
<g >
</g>
<g >
</g>
<g >
</g>
<g >
</g>
<g >
</g>
<g style="fill:#008400; fill-opacity:0.0; 
stroke:#008400; stroke-width:31.4961; stroke-opacity:1; 
stroke-linecap:round; stroke-linejoin:round;">
</g>
<g style="fill:#008400; fill-opacity:0.0; 
stroke:#008400; stroke-width:0; stroke-opacity:1; 
stroke-linecap:round; stroke-linejoin:round;">
</g>
<g style="fill:#008400; fill-opacity:1.0; 
stroke:#008400; stroke-width:0; stroke-opacity:1; 
stroke-linecap:round; stroke-linejoin:round;">
<path style="fill:#008400; fill-opacity:1.0; 
stroke:#008400; stroke-width:0; stroke-opacity:1; 
stroke-linecap:round; stroke-linejoin:round;fill-rule:evenodd;"
d="M 47160,13078
46845,13078
46845,12920
47160,12920
47160,13078
Z" /> 
<path style="fill:#008400; fill-opacity:1.0; 
stroke:#008400; stroke-width:0; stroke-opacity:1; 
stroke-linecap:round; stroke-linejoin:round;fill-rule:evenodd;"
d="M 47160,10519
46845,10519
46845,10361
47160,10361
47160,10519
Z" /> 
<path style="fill:#008400; fill-opacity:1.0; 
stroke:#008400; stroke-width:0; stroke-opacity:1; 
stroke-linecap:round; stroke-linejoin:round;fill-rule:evenodd;"
d="M 48145,12664
47830,12664
47830,12546
48145,12546
48145,12664
Z" /> 
<path style="fill:#008400; fill-opacity:1.0; 
stroke:#008400; stroke-width:0; stroke-opacity:1; 
stroke-linecap:round; stroke-linejoin:round;fill-rule:evenodd;"
d="M 48145,12468
47830,12468
47830,12349
48145,12349
48145,12468
Z" /> 
<path style="fill:#008400; fill-opacity:1.0; 
stroke:#008400; stroke-width:0; stroke-opacity:1; 
stroke-linecap:round; stroke-linejoin:round;fill-rule:evenodd;"
d="M 48145,12271
47830,12271
47830,12153
48145,12153
48145,12271
Z" /> 
<path style="fill:#008400; fill-opacity:1.0; 
stroke:#008400; stroke-width:0; stroke-opacity:1; 
stroke-linecap:round; stroke-linejoin:round;fill-rule:evenodd;"
d="M 48145,12074
47830,12074
47830,11956
48145,11956
48145,12074
Z" /> 
<path style="fill:#008400; fill-opacity:1.0; 
stroke:#008400; stroke-width:0; stroke-opacity:1; 
stroke-linecap:round; stroke-linejoin:round;fill-rule:evenodd;"
d="M 48145,11877
47830,11877
47830,11759
48145,11759
48145,11877
Z" /> 
<path style="fill:#008400; fill-opacity:1.0; 
stroke:#008400; stroke-width:0; stroke-opacity:1; 
stroke-linecap:round; stroke-linejoin:round;fill-rule:evenodd;"
d="M 48145,11680
47830,11680
47830,11562
48145,11562
48145,11680
Z" /> 
<path style="fill:#008400; fill-opacity:1.0; 
stroke:#008400; stroke-width:0; stroke-opacity:1; 
stroke-linecap:round; stroke-linejoin:round;fill-rule:evenodd;"
d="M 48145,11483
47830,11483
47830,11365
48145,11365
48145,11483
Z" /> 
<path style="fill:#008400; fill-opacity:1.0; 
stroke:#008400; stroke-width:0; stroke-opacity:1; 
stroke-linecap:round; stroke-linejoin:round;fill-rule:evenodd;"
d="M 48145,11286
47830,11286
47830,11168
48145,11168
48145,11286
Z" /> 
<path style="fill:#008400; fill-opacity:1.0; 
stroke:#008400; stroke-width:0; stroke-opacity:1; 
stroke-linecap:round; stroke-linejoin:round;fill-rule:evenodd;"
d="M 48145,11090
47830,11090
47830,10971
48145,10971
48145,11090
Z" /> 
<path style="fill:#008400; fill-opacity:1.0; 
stroke:#008400; stroke-width:0; stroke-opacity:1; 
stroke-linecap:round; stroke-linejoin:round;fill-rule:evenodd;"
d="M 48145,10893
47830,10893
47830,10775
48145,10775
48145,10893
Z" /> 
</g>
<g >
</g>
<g >
</g>
<g >
</g>
<g style="fill:#008400; fill-opacity:1.0; 
stroke:#008400; stroke-width:0; stroke-opacity:1; 
stroke-linecap:round; stroke-linejoin:round;">
<path style="fill:#008400; fill-opacity:1.0; 
stroke:#008400; stroke-width:0; stroke-opacity:1; 
stroke-linecap:round; stroke-linejoin:round;fill-rule:evenodd;"
d="M 38171,15266
38171,14951
38526,14951
38526,15266
38171,15266
Z" /> 
<path style="fill:#008400; fill-opacity:1.0; 
stroke:#008400; stroke-width:0; stroke-opacity:1; 
stroke-linecap:round; stroke-linejoin:round;fill-rule:evenodd;"
d="M 37384,14892
37384,14577
37738,14577
37738,14892
37384,14892
Z" /> 
<path style="fill:#008400; fill-opacity:1.0; 
stroke:#008400; stroke-width:0; stroke-opacity:1; 
stroke-linecap:round; stroke-linejoin:round;fill-rule:evenodd;"
d="M 37384,15640
37384,15325
37738,15325
37738,15640
37384,15640
Z" /> 
</g>
<g >
</g>
<g >
</g>
<g >
</g>
<g >
</g>
<g >
</g>
<g >
</g>
<g >
</g>
<g >
</g>
<g >
</g>
<g >
</g>
<g >
</g>
<g >
</g>
<g >
</g>
<g >
</g>
<g >
</g>
<g >
</g>
<g >
</g>
<g >
</g>
<g >
</g>
<g >
</g>
<g >
</g>
<g >
</g>
<g >
</g>
<g >
</g>
<g style="fill:#008400; fill-opacity:1.0; 
stroke:#008400; stroke-width:0; stroke-opacity:1; 
stroke-linecap:round; stroke-linejoin:round;">
<path style="fill:#008400; fill-opacity:1.0; 
stroke:#008400; stroke-width:0; stroke-opacity:1; 
stroke-linecap:round; stroke-linejoin:round;fill-rule:evenodd;"
d="M 46102,11361
46102,11479
45551,11479
45551,11361
46102,11361
Z" /> 
<path style="fill:#008400; fill-opacity:1.0; 
stroke:#008400; stroke-width:0; stroke-opacity:1; 
stroke-linecap:round; stroke-linejoin:round;fill-rule:evenodd;"
d="M 46102,11558
46102,11676
45551,11676
45551,11558
46102,11558
Z" /> 
<path style="fill:#008400; fill-opacity:1.0; 
stroke:#008400; stroke-width:0; stroke-opacity:1; 
stroke-linecap:round; stroke-linejoin:round;fill-rule:evenodd;"
d="M 46102,11755
46102,11873
45551,11873
45551,11755
46102,11755
Z" /> 
<path style="fill:#008400; fill-opacity:1.0; 
stroke:#008400; stroke-width:0; stroke-opacity:1; 
stroke-linecap:round; stroke-linejoin:round;fill-rule:evenodd;"
d="M 46102,11951
46102,12070
45551,12070
45551,11951
46102,11951
Z" /> 
<path style="fill:#008400; fill-opacity:1.0; 
stroke:#008400; stroke-width:0; stroke-opacity:1; 
stroke-linecap:round; stroke-linejoin:round;fill-rule:evenodd;"
d="M 46102,12148
46102,12266
45551,12266
45551,12148
46102,12148
Z" /> 
<path style="fill:#008400; fill-opacity:1.0; 
stroke:#008400; stroke-width:0; stroke-opacity:1; 
stroke-linecap:round; stroke-linejoin:round;fill-rule:evenodd;"
d="M 44369,12148
44369,12266
43818,12266
43818,12148
44369,12148
Z" /> 
<path style="fill:#008400; fill-opacity:1.0; 
stroke:#008400; stroke-width:0; stroke-opacity:1; 
stroke-linecap:round; stroke-linejoin:round;fill-rule:evenodd;"
d="M 44369,11951
44369,12070
43818,12070
43818,11951
44369,11951
Z" /> 
<path style="fill:#008400; fill-opacity:1.0; 
stroke:#008400; stroke-width:0; stroke-opacity:1; 
stroke-linecap:round; stroke-linejoin:round;fill-rule:evenodd;"
d="M 44369,11755
44369,11873
43818,11873
43818,11755
44369,11755
Z" /> 
<path style="fill:#008400; fill-opacity:1.0; 
stroke:#008400; stroke-width:0; stroke-opacity:1; 
stroke-linecap:round; stroke-linejoin:round;fill-rule:evenodd;"
d="M 44369,11558
44369,11676
43818,11676
43818,11558
44369,11558
Z" /> 
<path style="fill:#008400; fill-opacity:1.0; 
stroke:#008400; stroke-width:0; stroke-opacity:1; 
stroke-linecap:round; stroke-linejoin:round;fill-rule:evenodd;"
d="M 44369,11361
44369,11479
43818,11479
43818,11361
44369,11361
Z" /> 
</g>
<g >
</g>
<g >
</g>
<g >
</g>
<g style="fill:#008400; fill-opacity:1.0; 
stroke:#008400; stroke-width:0; stroke-opacity:1; 
stroke-linecap:round; stroke-linejoin:round;">
<path style="fill:#008400; fill-opacity:1.0; 
stroke:#008400; stroke-width:0; stroke-opacity:1; 
stroke-linecap:round; stroke-linejoin:round;fill-rule:evenodd;"
d="M 38809,12316
38818,12318
38827,12320
38835,12323
38843,12327
38851,12332
38859,12337
38866,12343
38872,12350
38877,12357
38882,12365
38886,12374
38889,12382
38891,12391
38892,12400
38893,12409
38893,12596
38892,12605
38891,12615
38889,12623
38886,12632
38882,12640
38877,12648
38872,12656
38866,12662
38859,12669
38851,12674
38843,12679
38835,12683
38827,12686
38818,12688
38809,12689
38799,12690
38573,12690
38564,12689
38555,12688
38546,12686
38537,12683
38529,12679
38521,12674
38514,12669
38507,12662
38501,12656
38495,12648
38491,12640
38487,12632
38484,12623
38481,12615
38480,12605
38480,12596
38480,12409
38480,12400
38481,12391
38484,12382
38487,12374
38491,12365
38495,12357
38501,12350
38507,12343
38514,12337
38521,12332
38529,12327
38537,12323
38546,12320
38555,12318
38564,12316
38573,12316
38799,12316
38809,12316
Z" /> 
<path style="fill:#008400; fill-opacity:1.0; 
stroke:#008400; stroke-width:0; stroke-opacity:1; 
stroke-linecap:round; stroke-linejoin:round;fill-rule:evenodd;"
d="M 38120,12316
38129,12318
38138,12320
38146,12323
38155,12327
38162,12332
38170,12337
38177,12343
38183,12350
38188,12357
38193,12365
38197,12374
38200,12382
38202,12391
38203,12400
38204,12409
38204,12596
38203,12605
38202,12615
38200,12623
38197,12632
38193,12640
38188,12648
38183,12656
38177,12662
38170,12669
38162,12674
38155,12679
38146,12683
38138,12686
38129,12688
38120,12689
38110,12690
37884,12690
37875,12689
37866,12688
37857,12686
37848,12683
37840,12679
37832,12674
37825,12669
37818,12662
37812,12656
37806,12648
37802,12640
37798,12632
37795,12623
37792,12615
37791,12605
37791,12596
37791,12409
37791,12400
37792,12391
37795,12382
37798,12374
37802,12365
37806,12357
37812,12350
37818,12343
37825,12337
37832,12332
37840,12327
37848,12323
37857,12320
37866,12318
37875,12316
37884,12316
38110,12316
38120,12316
Z" /> 
</g>
<g >
</g>
<g >
</g>
<g style="fill:#008400; fill-opacity:1.0; 
stroke:#008400; stroke-width:0; stroke-opacity:1; 
stroke-linecap:round; stroke-linejoin:round;">
<path style="fill:#008400; fill-opacity:1.0; 
stroke:#008400; stroke-width:0; stroke-opacity:1; 
stroke-linecap:round; stroke-linejoin:round;fill-rule:evenodd;"
d="M 38501,15899
38511,15900
38519,15903
38528,15906
38536,15910
38544,15914
38552,15920
38558,15926
38565,15933
38570,15940
38575,15948
38579,15956
38582,15965
38584,15974
38585,15983
38586,15992
38586,16179
38585,16188
38584,16197
38582,16206
38579,16215
38575,16223
38570,16231
38565,16238
38558,16245
38552,16251
38544,16257
38536,16261
38528,16265
38519,16268
38511,16271
38501,16272
38492,16273
38266,16273
38257,16272
38248,16271
38239,16268
38230,16265
38222,16261
38214,16257
38207,16251
38200,16245
38194,16238
38188,16231
38183,16223
38180,16215
38176,16206
38174,16197
38173,16188
38172,16179
38172,15992
38173,15983
38174,15974
38176,15965
38180,15956
38183,15948
38188,15940
38194,15933
38200,15926
38207,15920
38214,15914
38222,15910
38230,15906
38239,15903
38248,15900
38257,15899
38266,15898
38492,15898
38501,15899
Z" /> 
<path style="fill:#008400; fill-opacity:1.0; 
stroke:#008400; stroke-width:0; stroke-opacity:1; 
stroke-linecap:round; stroke-linejoin:round;fill-rule:evenodd;"
d="M 37813,15899
37822,15900
37830,15903
37839,15906
37847,15910
37855,15914
37863,15920
37869,15926
37876,15933
37881,15940
37886,15948
37890,15956
37893,15965
37895,15974
37896,15983
37897,15992
37897,16179
37896,16188
37895,16197
37893,16206
37890,16215
37886,16223
37881,16231
37876,16238
37869,16245
37863,16251
37855,16257
37847,16261
37839,16265
37830,16268
37822,16271
37813,16272
37803,16273
37577,16273
37568,16272
37559,16271
37550,16268
37541,16265
37533,16261
37525,16257
37518,16251
37511,16245
37505,16238
37499,16231
37495,16223
37491,16215
37487,16206
37485,16197
37484,16188
37483,16179
37483,15992
37484,15983
37485,15974
37487,15965
37491,15956
37495,15948
37499,15940
37505,15933
37511,15926
37518,15920
37525,15914
37533,15910
37541,15906
37550,15903
37559,15900
37568,15899
37577,15898
37803,15898
37813,15899
Z" /> 
</g>
<g >
</g>
<g >
</g>
<g >
</g>
<g >
</g>
<g >
</g>
<g >
</g>
<g >
</g>
<g >
</g>
<g >
</g>
<g >
</g>
<g >
</g>
<g >
</g>
<g >
</g>
<g style="fill:#008400; fill-opacity:1.0; 
stroke:#008400; stroke-width:0; stroke-opacity:1; 
stroke-linecap:round; stroke-linejoin:round;">
<path style="fill:#008400; fill-opacity:1.0; 
stroke:#008400; stroke-width:0; stroke-opacity:1; 
stroke-linecap:round; stroke-linejoin:round;fill-rule:evenodd;"
d="M 26803,3923
26812,3924
26820,3926
26828,3929
26836,3932
26843,3937
26850,3942
26856,3947
26862,3954
26867,3960
26871,3968
26875,3975
26877,3983
26879,3991
26881,4000
26881,4008
26881,4210
26881,4218
26879,4227
26877,4235
26875,4243
26871,4251
26867,4258
26862,4265
26856,4271
26850,4277
26843,4282
26836,4286
26828,4290
26820,4292
26812,4294
26803,4296
26795,4296
26623,4296
26614,4296
26606,4294
26598,4292
26590,4290
26582,4286
26575,4282
26568,4277
26562,4271
26556,4265
26551,4258
26547,4251
26543,4243
26540,4235
26538,4227
26537,4218
26537,4210
26537,4008
26537,4000
26538,3991
26540,3983
26543,3975
26547,3968
26551,3960
26556,3954
26562,3947
26568,3942
26575,3937
26582,3932
26590,3929
26598,3926
26606,3924
26614,3923
26623,3922
26795,3922
26803,3923
Z" /> 
<path style="fill:#008400; fill-opacity:1.0; 
stroke:#008400; stroke-width:0; stroke-opacity:1; 
stroke-linecap:round; stroke-linejoin:round;fill-rule:evenodd;"
d="M 27424,3923
27432,3924
27440,3926
27448,3929
27456,3932
27463,3937
27470,3942
27476,3947
27482,3954
27487,3960
27491,3968
27495,3975
27497,3983
27500,3991
27501,4000
27501,4008
27501,4210
27501,4218
27500,4227
27497,4235
27495,4243
27491,4251
27487,4258
27482,4265
27476,4271
27470,4277
27463,4282
27456,4286
27448,4290
27440,4292
27432,4294
27424,4296
27415,4296
27243,4296
27234,4296
27226,4294
27218,4292
27210,4290
27202,4286
27195,4282
27188,4277
27182,4271
27176,4265
27171,4258
27167,4251
27163,4243
27160,4235
27158,4227
27157,4218
27157,4210
27157,4008
27157,4000
27158,3991
27160,3983
27163,3975
27167,3968
27171,3960
27176,3954
27182,3947
27188,3942
27195,3937
27202,3932
27210,3929
27218,3926
27226,3924
27234,3923
27243,3922
27415,3922
27424,3923
Z" /> 
</g>
<g >
</g>
<g >
</g>
<g >
</g>
<g style="fill:#008400; fill-opacity:1.0; 
stroke:#008400; stroke-width:0; stroke-opacity:1; 
stroke-linecap:round; stroke-linejoin:round;">
<path style="fill:#008400; fill-opacity:1.0; 
stroke:#008400; stroke-width:0; stroke-opacity:1; 
stroke-linecap:round; stroke-linejoin:round;fill-rule:evenodd;"
d="M 28778,3596
28786,3597
28794,3599
28802,3602
28810,3606
28817,3610
28824,3615
28830,3621
28836,3627
28841,3634
28845,3641
28849,3649
28852,3656
28854,3665
28855,3673
28856,3681
28856,3883
28855,3892
28854,3900
28852,3908
28849,3916
28845,3924
28841,3931
28836,3938
28830,3944
28824,3950
28817,3955
28810,3959
28802,3963
28794,3966
28786,3968
28778,3969
28769,3969
28597,3969
28589,3969
28580,3968
28572,3966
28564,3963
28557,3959
28549,3955
28543,3950
28536,3944
28531,3938
28526,3931
28521,3924
28518,3916
28515,3908
28513,3900
28511,3892
28511,3883
28511,3681
28511,3673
28513,3665
28515,3656
28518,3649
28521,3641
28526,3634
28531,3627
28536,3621
28543,3615
28549,3610
28557,3606
28564,3602
28572,3599
28580,3597
28589,3596
28597,3595
28769,3595
28778,3596
Z" /> 
<path style="fill:#008400; fill-opacity:1.0; 
stroke:#008400; stroke-width:0; stroke-opacity:1; 
stroke-linecap:round; stroke-linejoin:round;fill-rule:evenodd;"
d="M 28158,3596
28166,3597
28174,3599
28182,3602
28190,3606
28197,3610
28204,3615
28210,3621
28216,3627
28221,3634
28225,3641
28229,3649
28232,3656
28234,3665
28235,3673
28235,3681
28235,3883
28235,3892
28234,3900
28232,3908
28229,3916
28225,3924
28221,3931
28216,3938
28210,3944
28204,3950
28197,3955
28190,3959
28182,3963
28174,3966
28166,3968
28158,3969
28149,3969
27977,3969
27969,3969
27960,3968
27952,3966
27944,3963
27936,3959
27929,3955
27922,3950
27916,3944
27910,3938
27905,3931
27901,3924
27898,3916
27895,3908
27893,3900
27891,3892
27891,3883
27891,3681
27891,3673
27893,3665
27895,3656
27898,3649
27901,3641
27905,3634
27910,3627
27916,3621
27922,3615
27929,3610
27936,3606
27944,3602
27952,3599
27960,3597
27969,3596
27977,3595
28149,3595
28158,3596
Z" /> 
</g>
<g >
</g>
<g >
</g>
<g >
</g>
<g style="fill:#008400; fill-opacity:1.0; 
stroke:#008400; stroke-width:0; stroke-opacity:1; 
stroke-linecap:round; stroke-linejoin:round;">
<path style="fill:#008400; fill-opacity:1.0; 
stroke:#008400; stroke-width:0; stroke-opacity:1; 
stroke-linecap:round; stroke-linejoin:round;fill-rule:evenodd;"
d="M 42891,20344
42899,20345
42908,20347
42916,20350
42923,20354
42930,20358
42937,20363
42943,20369
42949,20375
42954,20382
42959,20389
42962,20397
42965,20404
42967,20413
42968,20421
42969,20429
42969,20631
42968,20640
42967,20648
42965,20656
42962,20664
42959,20672
42954,20679
42949,20686
42943,20692
42937,20698
42930,20703
42923,20707
42916,20711
42908,20714
42899,20716
42891,20717
42883,20717
42710,20717
42702,20717
42694,20716
42685,20714
42677,20711
42670,20707
42662,20703
42656,20698
42649,20692
42644,20686
42639,20679
42634,20672
42631,20664
42628,20656
42626,20648
42625,20640
42624,20631
42624,20429
42625,20421
42626,20413
42628,20404
42631,20397
42634,20389
42639,20382
42644,20375
42649,20369
42656,20363
42662,20358
42670,20354
42677,20350
42685,20347
42694,20345
42702,20344
42710,20343
42883,20343
42891,20344
Z" /> 
<path style="fill:#008400; fill-opacity:1.0; 
stroke:#008400; stroke-width:0; stroke-opacity:1; 
stroke-linecap:round; stroke-linejoin:round;fill-rule:evenodd;"
d="M 43511,20344
43519,20345
43528,20347
43536,20350
43543,20354
43551,20358
43557,20363
43564,20369
43569,20375
43574,20382
43579,20389
43582,20397
43585,20404
43587,20413
43588,20421
43589,20429
43589,20631
43588,20640
43587,20648
43585,20656
43582,20664
43579,20672
43574,20679
43569,20686
43564,20692
43557,20698
43551,20703
43543,20707
43536,20711
43528,20714
43519,20716
43511,20717
43503,20717
43330,20717
43322,20717
43314,20716
43305,20714
43297,20711
43290,20707
43283,20703
43276,20698
43270,20692
43264,20686
43259,20679
43254,20672
43251,20664
43248,20656
43246,20648
43245,20640
43244,20631
43244,20429
43245,20421
43246,20413
43248,20404
43251,20397
43254,20389
43259,20382
43264,20375
43270,20369
43276,20363
43283,20358
43290,20354
43297,20350
43305,20347
43314,20345
43322,20344
43330,20343
43503,20343
43511,20344
Z" /> 
</g>
<g >
</g>
<g >
</g>
<g >
</g>
<g >
</g>
<g >
</g>
<g >
</g>
<g >
</g>
<g >
</g>
<g >
</g>
<g >
</g>
<g >
</g>
<g >
</g>
<g >
</g>
<g >
</g>
<g >
</g>
<g >
</g>
<g >
</g>
<g >
</g>
<g >
</g>
<g >
</g>
<g >
</g>
<g >
</g>
<g >
</g>
<g >
</g>
<g >
</g>
<g >
</g>
<g >
</g>
<g >
</g>
<g >
</g>
</g>
<g style="fill:#000000; fill-opacity:1.0; 
stroke:#000000; stroke-width:0; stroke-opacity:1; 
stroke-linecap:round; stroke-linejoin:round;">
</g>
<g style="fill:#26FF16; fill-opacity:1.0; 
stroke:#26FF16; stroke-width:0; stroke-opacity:1; 
stroke-linecap:round; stroke-linejoin:round;">
</g>
<g style="fill:#26FF16; fill-opacity:0.0; 
stroke:#26FF16; stroke-width:31.4961; stroke-opacity:1; 
stroke-linecap:round; stroke-linejoin:round;">
<circle cx="35128.8" cy="18214.6" r="124.128" /> 
<circle cx="38784.6" cy="18204.6" r="181.72" /> 
<circle cx="40947.8" cy="15263.3" r="124.128" /> 
<circle cx="43204.5" cy="14440.2" r="153.739" /> 
<circle cx="40947.1" cy="13611.8" r="124.128" /> 
<circle cx="39072.4" cy="15452.3" r="124.128" /> 
<circle cx="39071.5" cy="14008" r="124.128" /> 
<circle cx="37967.4" cy="14005.6" r="124.128" /> 
<circle cx="43332.5" cy="16996.2" r="153.739" /> 
<circle cx="43334.5" cy="18133.2" r="153.739" /> 
<circle cx="41100.5" cy="17587.2" r="153.739" /> 
<circle cx="38757.5" cy="19377.2" r="153.739" /> 
<circle cx="38788.5" cy="17614.2" r="153.739" /> 
<circle cx="35052.5" cy="15969.2" r="153.739" /> 
<circle cx="37988.5" cy="15448.2" r="153.739" /> 
</g>
<g style="fill:#26FF16; fill-opacity:0.0; 
stroke:#26FF16; stroke-width:0.393701; stroke-opacity:1; 
stroke-linecap:round; stroke-linejoin:round;">
<path d="M40890 16719
L40757 16719
" />
<path d="M40757 16719
L40757 16632
" />
<path d="M40890 16632
L40890 16719
" />
<path d="M40757 16632
L40890 16632
" />
</g>
<g style="fill:#26FF16; fill-opacity:1.0; 
stroke:#26FF16; stroke-width:0.393701; stroke-opacity:1; 
stroke-linecap:round; stroke-linejoin:round;">
<path style="fill:#26FF16; fill-opacity:1.0; 
stroke:#26FF16; stroke-width:0.393701; stroke-opacity:1; 
stroke-linecap:round; stroke-linejoin:round;fill-rule:evenodd;"
d="M 38877,18737
38877,18241
38649,18241
38649,18737
Z" /> 
<g >
</g>
<g >
</g>
<g >
</g>
<g >
</g>
<g >
</g>
<g >
</g>
<g >
</g>
<g style="fill:#FF080E; fill-opacity:1.0; 
stroke:#FF080E; stroke-width:0.393701; stroke-opacity:1; 
stroke-linecap:round; stroke-linejoin:round;">
</g>
<g style="fill:#FF080E; fill-opacity:1.0; 
stroke:#FF080E; stroke-width:0; stroke-opacity:1; 
stroke-linecap:round; stroke-linejoin:round;">
<path style="fill:#FF080E; fill-opacity:1.0; 
stroke:#FF080E; stroke-width:0; stroke-opacity:1; 
stroke-linecap:round; stroke-linejoin:round;fill-rule:evenodd;"
d="M 38762,16499
38770,16500
38778,16502
38786,16505
38794,16509
38801,16513
38808,16518
38814,16524
38820,16530
38825,16537
38829,16544
38833,16552
38836,16560
38838,16568
38839,16576
38839,16585
38839,16787
38839,16795
38838,16803
38836,16812
38833,16820
38829,16827
38825,16834
38820,16841
38814,16847
38808,16853
38801,16858
38794,16863
38786,16866
38778,16869
38770,16871
38762,16872
38753,16873
38581,16873
38572,16872
38564,16871
38556,16869
38548,16866
38540,16863
38533,16858
38526,16853
38520,16847
38514,16841
38509,16834
38505,16827
38501,16820
38498,16812
38496,16803
38495,16795
38495,16787
38495,16585
38495,16576
38496,16568
38498,16560
38501,16552
38505,16544
38509,16537
38514,16530
38520,16524
38526,16518
38533,16513
38540,16509
38548,16505
38556,16502
38564,16500
38572,16499
38581,16499
38753,16499
38762,16499
Z" /> 
<path style="fill:#FF080E; fill-opacity:1.0; 
stroke:#FF080E; stroke-width:0; stroke-opacity:1; 
stroke-linecap:round; stroke-linejoin:round;fill-rule:evenodd;"
d="M 39382,16499
39390,16500
39398,16502
39406,16505
39414,16509
39421,16513
39428,16518
39434,16524
39440,16530
39445,16537
39449,16544
39453,16552
39456,16560
39458,16568
39459,16576
39459,16585
39459,16787
39459,16795
39458,16803
39456,16812
39453,16820
39449,16827
39445,16834
39440,16841
39434,16847
39428,16853
39421,16858
39414,16863
39406,16866
39398,16869
39390,16871
39382,16872
39373,16873
39201,16873
39193,16872
39184,16871
39176,16869
39168,16866
39160,16863
39153,16858
39146,16853
39140,16847
39134,16841
39129,16834
39125,16827
39121,16820
39119,16812
39116,16803
39115,16795
39115,16787
39115,16585
39115,16576
39116,16568
39119,16560
39121,16552
39125,16544
39129,16537
39134,16530
39140,16524
39146,16518
39153,16513
39160,16509
39168,16505
39176,16502
39184,16500
39193,16499
39201,16499
39373,16499
39382,16499
Z" /> 
</g>
<g >
</g>
<g style="fill:#FF080E; fill-opacity:1.0; 
stroke:#FF080E; stroke-width:0; stroke-opacity:1; 
stroke-linecap:round; stroke-linejoin:round;">
<path style="fill:#FF080E; fill-opacity:1.0; 
stroke:#FF080E; stroke-width:0; stroke-opacity:1; 
stroke-linecap:round; stroke-linejoin:round;fill-rule:evenodd;"
d="M 37658,16614
37667,16615
37676,16618
37684,16621
37693,16625
37700,16629
37708,16635
37715,16641
37721,16648
37726,16655
37731,16663
37735,16671
37738,16680
37740,16689
37742,16698
37742,16707
37742,16933
37742,16943
37740,16952
37738,16961
37735,16969
37731,16977
37726,16985
37721,16993
37715,17000
37708,17006
37700,17011
37693,17016
37684,17020
37676,17023
37667,17025
37658,17026
37649,17027
37462,17027
37452,17026
37443,17025
37434,17023
37426,17020
37417,17016
37410,17011
37402,17006
37395,17000
37389,16993
37384,16985
37379,16977
37375,16969
37372,16961
37370,16952
37368,16943
37368,16933
37368,16707
37368,16698
37370,16689
37372,16680
37375,16671
37379,16663
37384,16655
37389,16648
37395,16641
37402,16635
37410,16629
37417,16625
37426,16621
37434,16618
37443,16615
37452,16614
37462,16614
37649,16614
37658,16614
Z" /> 
<path style="fill:#FF080E; fill-opacity:1.0; 
stroke:#FF080E; stroke-width:0; stroke-opacity:1; 
stroke-linecap:round; stroke-linejoin:round;fill-rule:evenodd;"
d="M 37658,17303
37667,17304
37676,17307
37684,17310
37693,17314
37700,17318
37708,17324
37715,17330
37721,17337
37726,17344
37731,17352
37735,17360
37738,17369
37740,17378
37742,17387
37742,17396
37742,17622
37742,17632
37740,17641
37738,17650
37735,17658
37731,17666
37726,17674
37721,17682
37715,17688
37708,17695
37700,17700
37693,17705
37684,17709
37676,17712
37667,17714
37658,17715
37649,17716
37462,17716
37452,17715
37443,17714
37434,17712
37426,17709
37417,17705
37410,17700
37402,17695
37395,17688
37389,17682
37384,17674
37379,17666
37375,17658
37372,17650
37370,17641
37368,17632
37368,17622
37368,17396
37368,17387
37370,17378
37372,17369
37375,17360
37379,17352
37384,17344
37389,17337
37395,17330
37402,17324
37410,17318
37417,17314
37426,17310
37434,17307
37443,17304
37452,17303
37462,17302
37649,17302
37658,17303
Z" /> 
</g>
<g >
</g>
<g >
</g>
<g style="fill:#FF080E; fill-opacity:1.0; 
stroke:#FF080E; stroke-width:0; stroke-opacity:1; 
stroke-linecap:round; stroke-linejoin:round;">
<path style="fill:#FF080E; fill-opacity:1.0; 
stroke:#FF080E; stroke-width:0; stroke-opacity:1; 
stroke-linecap:round; stroke-linejoin:round;fill-rule:evenodd;"
d="M 42827,10816
42835,10817
42844,10820
42852,10822
42859,10826
42866,10830
42873,10835
42880,10841
42885,10847
42890,10854
42895,10861
42898,10869
42901,10877
42903,10885
42904,10893
42905,10902
42905,11104
42904,11112
42903,11121
42901,11129
42898,11137
42895,11144
42890,11152
42885,11158
42880,11165
42873,11170
42866,11175
42859,11180
42852,11183
42844,11186
42835,11188
42827,11189
42819,11190
42646,11190
42638,11189
42630,11188
42621,11186
42613,11183
42606,11180
42599,11175
42592,11170
42585,11165
42580,11158
42575,11152
42570,11144
42567,11137
42564,11129
42562,11121
42561,11112
42560,11104
42560,10902
42561,10893
42562,10885
42564,10877
42567,10869
42570,10861
42575,10854
42580,10847
42585,10841
42592,10835
42599,10830
42606,10826
42613,10822
42621,10820
42630,10817
42638,10816
42646,10816
42819,10816
42827,10816
Z" /> 
<path style="fill:#FF080E; fill-opacity:1.0; 
stroke:#FF080E; stroke-width:0; stroke-opacity:1; 
stroke-linecap:round; stroke-linejoin:round;fill-rule:evenodd;"
d="M 43447,10816
43455,10817
43464,10820
43472,10822
43479,10826
43487,10830
43493,10835
43500,10841
43505,10847
43510,10854
43515,10861
43518,10869
43521,10877
43523,10885
43524,10893
43525,10902
43525,11104
43524,11112
43523,11121
43521,11129
43518,11137
43515,11144
43510,11152
43505,11158
43500,11165
43493,11170
43487,11175
43479,11180
43472,11183
43464,11186
43455,11188
43447,11189
43439,11190
43266,11190
43258,11189
43250,11188
43241,11186
43233,11183
43226,11180
43219,11175
43212,11170
43206,11165
43200,11158
43195,11152
43190,11144
43187,11137
43184,11129
43182,11121
43181,11112
43180,11104
43180,10902
43181,10893
43182,10885
43184,10877
43187,10869
43190,10861
43195,10854
43200,10847
43206,10841
43212,10835
43219,10830
43226,10826
43233,10822
43241,10820
43250,10817
43258,10816
43266,10816
43439,10816
43447,10816
Z" /> 
</g>
<g >
</g>
<g >
</g>
<g >
</g>
<g >
</g>
<g >
</g>
<g >
</g>
<g >
</g>
<g >
</g>
<g >
</g>
<g >
</g>
<g >
</g>
<g >
</g>
<g >
</g>
<g >
</g>
<g >
</g>
<g >
</g>
<g >
</g>
<g >
</g>
<g >
</g>
<g >
</g>
<g style="fill:#FF080E; fill-opacity:1.0; 
stroke:#FF080E; stroke-width:0; stroke-opacity:1; 
stroke-linecap:round; stroke-linejoin:round;">
<path style="fill:#FF080E; fill-opacity:1.0; 
stroke:#FF080E; stroke-width:0; stroke-opacity:1; 
stroke-linecap:round; stroke-linejoin:round;fill-rule:evenodd;"
d="M 37377,14393
37377,14274
37928,14274
37928,14393
37377,14393
Z" /> 
<path style="fill:#FF080E; fill-opacity:1.0; 
stroke:#FF080E; stroke-width:0; stroke-opacity:1; 
stroke-linecap:round; stroke-linejoin:round;fill-rule:evenodd;"
d="M 37377,14589
37377,14471
37928,14471
37928,14589
37377,14589
Z" /> 
<path style="fill:#FF080E; fill-opacity:1.0; 
stroke:#FF080E; stroke-width:0; stroke-opacity:1; 
stroke-linecap:round; stroke-linejoin:round;fill-rule:evenodd;"
d="M 37377,14786
37377,14668
37928,14668
37928,14786
37377,14786
Z" /> 
<path style="fill:#FF080E; fill-opacity:1.0; 
stroke:#FF080E; stroke-width:0; stroke-opacity:1; 
stroke-linecap:round; stroke-linejoin:round;fill-rule:evenodd;"
d="M 37377,14983
37377,14865
37928,14865
37928,14983
37377,14983
Z" /> 
<path style="fill:#FF080E; fill-opacity:1.0; 
stroke:#FF080E; stroke-width:0; stroke-opacity:1; 
stroke-linecap:round; stroke-linejoin:round;fill-rule:evenodd;"
d="M 37377,15180
37377,15062
37928,15062
37928,15180
37377,15180
Z" /> 
<path style="fill:#FF080E; fill-opacity:1.0; 
stroke:#FF080E; stroke-width:0; stroke-opacity:1; 
stroke-linecap:round; stroke-linejoin:round;fill-rule:evenodd;"
d="M 39109,15180
39109,15062
39661,15062
39661,15180
39109,15180
Z" /> 
<path style="fill:#FF080E; fill-opacity:1.0; 
stroke:#FF080E; stroke-width:0; stroke-opacity:1; 
stroke-linecap:round; stroke-linejoin:round;fill-rule:evenodd;"
d="M 39109,14983
39109,14865
39661,14865
39661,14983
39109,14983
Z" /> 
<path style="fill:#FF080E; fill-opacity:1.0; 
stroke:#FF080E; stroke-width:0; stroke-opacity:1; 
stroke-linecap:round; stroke-linejoin:round;fill-rule:evenodd;"
d="M 39109,14786
39109,14668
39661,14668
39661,14786
39109,14786
Z" /> 
<path style="fill:#FF080E; fill-opacity:1.0; 
stroke:#FF080E; stroke-width:0; stroke-opacity:1; 
stroke-linecap:round; stroke-linejoin:round;fill-rule:evenodd;"
d="M 39109,14589
39109,14471
39661,14471
39661,14589
39109,14589
Z" /> 
<path style="fill:#FF080E; fill-opacity:1.0; 
stroke:#FF080E; stroke-width:0; stroke-opacity:1; 
stroke-linecap:round; stroke-linejoin:round;fill-rule:evenodd;"
d="M 39109,14393
39109,14274
39661,14274
39661,14393
39109,14393
Z" /> 
</g>
<g >
</g>
<g >
</g>
<g style="fill:#FF080E; fill-opacity:1.0; 
stroke:#FF080E; stroke-width:0; stroke-opacity:1; 
stroke-linecap:round; stroke-linejoin:round;">
<path style="fill:#FF080E; fill-opacity:1.0; 
stroke:#FF080E; stroke-width:0; stroke-opacity:1; 
stroke-linecap:round; stroke-linejoin:round;fill-rule:evenodd;"
d="M 38538,18729
38538,18847
38198,18847
38198,18729
38538,18729
Z" /> 
<path style="fill:#FF080E; fill-opacity:1.0; 
stroke:#FF080E; stroke-width:0; stroke-opacity:1; 
stroke-linecap:round; stroke-linejoin:round;fill-rule:evenodd;"
d="M 38524,18532
38524,18650
38184,18650
38184,18532
38524,18532
Z" /> 
<path style="fill:#FF080E; fill-opacity:1.0; 
stroke:#FF080E; stroke-width:0; stroke-opacity:1; 
stroke-linecap:round; stroke-linejoin:round;fill-rule:evenodd;"
d="M 38524,18336
38524,18454
38184,18454
38184,18336
38524,18336
Z" /> 
<path style="fill:#FF080E; fill-opacity:1.0; 
stroke:#FF080E; stroke-width:0; stroke-opacity:1; 
stroke-linecap:round; stroke-linejoin:round;fill-rule:evenodd;"
d="M 38538,18139
38538,18257
38198,18257
38198,18139
38538,18139
Z" /> 
<path style="fill:#FF080E; fill-opacity:1.0; 
stroke:#FF080E; stroke-width:0; stroke-opacity:1; 
stroke-linecap:round; stroke-linejoin:round;fill-rule:evenodd;"
d="M 39328,18139
39328,18257
38988,18257
38988,18139
39328,18139
Z" /> 
<path style="fill:#FF080E; fill-opacity:1.0; 
stroke:#FF080E; stroke-width:0; stroke-opacity:1; 
stroke-linecap:round; stroke-linejoin:round;fill-rule:evenodd;"
d="M 39342,18336
39342,18454
39002,18454
39002,18336
39342,18336
Z" /> 
<path style="fill:#FF080E; fill-opacity:1.0; 
stroke:#FF080E; stroke-width:0; stroke-opacity:1; 
stroke-linecap:round; stroke-linejoin:round;fill-rule:evenodd;"
d="M 39342,18532
39342,18650
39002,18650
39002,18532
39342,18532
Z" /> 
<path style="fill:#FF080E; fill-opacity:1.0; 
stroke:#FF080E; stroke-width:0; stroke-opacity:1; 
stroke-linecap:round; stroke-linejoin:round;fill-rule:evenodd;"
d="M 39328,18729
39328,18847
38988,18847
38988,18729
39328,18729
Z" /> 
</g>
<g >
</g>
<g >
</g>
<g >
</g>
<g style="fill:#FF080E; fill-opacity:1.0; 
stroke:#FF080E; stroke-width:0; stroke-opacity:1; 
stroke-linecap:round; stroke-linejoin:round;">
<path style="fill:#FF080E; fill-opacity:1.0; 
stroke:#FF080E; stroke-width:0; stroke-opacity:1; 
stroke-linecap:round; stroke-linejoin:round;fill-rule:evenodd;"
d="M 41580,9557
41589,9558
41598,9561
41606,9564
41615,9568
41622,9572
41630,9578
41637,9584
41643,9591
41648,9598
41653,9606
41657,9614
41660,9623
41662,9632
41664,9641
41664,9650
41664,9876
41664,9886
41662,9895
41660,9904
41657,9912
41653,9920
41648,9928
41643,9936
41637,9943
41630,9949
41622,9954
41615,9959
41606,9963
41598,9966
41589,9968
41580,9969
41571,9970
41384,9970
41374,9969
41365,9968
41356,9966
41348,9963
41339,9959
41332,9954
41324,9949
41317,9943
41311,9936
41306,9928
41301,9920
41297,9912
41294,9904
41292,9895
41290,9886
41290,9876
41290,9650
41290,9641
41292,9632
41294,9623
41297,9614
41301,9606
41306,9598
41311,9591
41317,9584
41324,9578
41332,9572
41339,9568
41348,9564
41356,9561
41365,9558
41374,9557
41384,9557
41571,9557
41580,9557
Z" /> 
<path style="fill:#FF080E; fill-opacity:1.0; 
stroke:#FF080E; stroke-width:0; stroke-opacity:1; 
stroke-linecap:round; stroke-linejoin:round;fill-rule:evenodd;"
d="M 41580,10246
41589,10247
41598,10250
41606,10253
41615,10257
41622,10261
41630,10267
41637,10273
41643,10280
41648,10287
41653,10295
41657,10303
41660,10312
41662,10321
41664,10330
41664,10339
41664,10565
41664,10575
41662,10584
41660,10593
41657,10601
41653,10609
41648,10617
41643,10625
41637,10631
41630,10638
41622,10643
41615,10648
41606,10652
41598,10655
41589,10657
41580,10658
41571,10659
41384,10659
41374,10658
41365,10657
41356,10655
41348,10652
41339,10648
41332,10643
41324,10638
41317,10631
41311,10625
41306,10617
41301,10609
41297,10601
41294,10593
41292,10584
41290,10575
41290,10565
41290,10339
41290,10330
41292,10321
41294,10312
41297,10303
41301,10295
41306,10287
41311,10280
41317,10273
41324,10267
41332,10261
41339,10257
41348,10253
41356,10250
41365,10247
41374,10246
41384,10245
41571,10245
41580,10246
Z" /> 
</g>
<g >
</g>
<g >
</g>
<g style="fill:#FF080E; fill-opacity:1.0; 
stroke:#FF080E; stroke-width:0; stroke-opacity:1; 
stroke-linecap:round; stroke-linejoin:round;">
<path style="fill:#FF080E; fill-opacity:1.0; 
stroke:#FF080E; stroke-width:0; stroke-opacity:1; 
stroke-linecap:round; stroke-linejoin:round;fill-rule:evenodd;"
d="M 43818,9460
43827,9461
43836,9464
43845,9467
43853,9471
43861,9475
43869,9481
43875,9487
43882,9494
43887,9501
43892,9509
43896,9517
43899,9526
43901,9535
43902,9544
43903,9553
43903,9779
43902,9789
43901,9798
43899,9807
43896,9815
43892,9823
43887,9831
43882,9839
43875,9846
43869,9852
43861,9857
43853,9862
43845,9866
43836,9869
43827,9871
43818,9872
43809,9873
43622,9873
43613,9872
43604,9871
43595,9869
43586,9866
43578,9862
43570,9857
43563,9852
43556,9846
43550,9839
43545,9831
43540,9823
43536,9815
43533,9807
43531,9798
43529,9789
43529,9779
43529,9553
43529,9544
43531,9535
43533,9526
43536,9517
43540,9509
43545,9501
43550,9494
43556,9487
43563,9481
43570,9475
43578,9471
43586,9467
43595,9464
43604,9461
43613,9460
43622,9460
43809,9460
43818,9460
Z" /> 
<path style="fill:#FF080E; fill-opacity:1.0; 
stroke:#FF080E; stroke-width:0; stroke-opacity:1; 
stroke-linecap:round; stroke-linejoin:round;fill-rule:evenodd;"
d="M 43818,8771
43827,8772
43836,8775
43845,8778
43853,8782
43861,8786
43869,8792
43875,8798
43882,8805
43887,8812
43892,8820
43896,8828
43899,8837
43901,8846
43902,8855
43903,8864
43903,9090
43902,9100
43901,9109
43899,9118
43896,9126
43892,9134
43887,9142
43882,9150
43875,9157
43869,9163
43861,9168
43853,9173
43845,9177
43836,9180
43827,9182
43818,9183
43809,9184
43622,9184
43613,9183
43604,9182
43595,9180
43586,9177
43578,9173
43570,9168
43563,9163
43556,9157
43550,9150
43545,9142
43540,9134
43536,9126
43533,9118
43531,9109
43529,9100
43529,9090
43529,8864
43529,8855
43531,8846
43533,8837
43536,8828
43540,8820
43545,8812
43550,8805
43556,8798
43563,8792
43570,8786
43578,8782
43586,8778
43595,8775
43604,8772
43613,8771
43622,8771
43809,8771
43818,8771
Z" /> 
</g>
<g >
</g>
<g >
</g>
<g >
</g>
<g >
</g>
<g >
</g>
<g >
</g>
<g >
</g>
<g style="fill:#FF080E; fill-opacity:1.0; 
stroke:#FF080E; stroke-width:0; stroke-opacity:1; 
stroke-linecap:round; stroke-linejoin:round;">
<path style="fill:#FF080E; fill-opacity:1.0; 
stroke:#FF080E; stroke-width:0; stroke-opacity:1; 
stroke-linecap:round; stroke-linejoin:round;fill-rule:evenodd;"
d="M 40602,17158
40611,17160
40620,17162
40628,17165
40637,17169
40645,17174
40652,17179
40659,17185
40665,17192
40670,17199
40675,17207
40679,17215
40682,17224
40684,17233
40686,17242
40686,17251
40686,17478
40686,17487
40684,17496
40682,17505
40679,17513
40675,17522
40670,17530
40665,17537
40659,17544
40652,17550
40645,17555
40637,17560
40628,17564
40620,17567
40611,17569
40602,17571
40593,17571
40406,17571
40396,17571
40387,17569
40378,17567
40370,17564
40361,17560
40354,17555
40346,17550
40339,17544
40333,17537
40328,17530
40323,17522
40319,17513
40316,17505
40314,17496
40313,17487
40312,17478
40312,17251
40313,17242
40314,17233
40316,17224
40319,17215
40323,17207
40328,17199
40333,17192
40339,17185
40346,17179
40354,17174
40361,17169
40370,17165
40378,17162
40387,17160
40396,17158
40406,17158
40593,17158
40602,17158
Z" /> 
<path style="fill:#FF080E; fill-opacity:1.0; 
stroke:#FF080E; stroke-width:0; stroke-opacity:1; 
stroke-linecap:round; stroke-linejoin:round;fill-rule:evenodd;"
d="M 40602,16469
40611,16471
40620,16473
40628,16476
40637,16480
40645,16485
40652,16490
40659,16496
40665,16503
40670,16510
40675,16518
40679,16526
40682,16535
40684,16544
40686,16553
40686,16562
40686,16789
40686,16798
40684,16807
40682,16816
40679,16824
40675,16833
40670,16841
40665,16848
40659,16855
40652,16861
40645,16866
40637,16871
40628,16875
40620,16878
40611,16880
40602,16882
40593,16882
40406,16882
40396,16882
40387,16880
40378,16878
40370,16875
40361,16871
40354,16866
40346,16861
40339,16855
40333,16848
40328,16841
40323,16833
40319,16824
40316,16816
40314,16807
40313,16798
40312,16789
40312,16562
40313,16553
40314,16544
40316,16535
40319,16526
40323,16518
40328,16510
40333,16503
40339,16496
40346,16490
40354,16485
40361,16480
40370,16476
40378,16473
40387,16471
40396,16469
40406,16469
40593,16469
40602,16469
Z" /> 
</g>
<g >
</g>
<g style="fill:#FF080E; fill-opacity:1.0; 
stroke:#FF080E; stroke-width:0; stroke-opacity:1; 
stroke-linecap:round; stroke-linejoin:round;">
<path style="fill:#FF080E; fill-opacity:1.0; 
stroke:#FF080E; stroke-width:0; stroke-opacity:1; 
stroke-linecap:round; stroke-linejoin:round;fill-rule:evenodd;"
d="M 30216,4774
30216,5089
29468,5089
29468,4774
30216,4774
Z" /> 
<path style="fill:#FF080E; fill-opacity:1.0; 
stroke:#FF080E; stroke-width:0; stroke-opacity:1; 
stroke-linecap:round; stroke-linejoin:round;fill-rule:evenodd;"
d="M 30216,4026
30216,4341
29468,4341
29468,4026
30216,4026
Z" /> 
<path style="fill:#FF080E; fill-opacity:1.0; 
stroke:#FF080E; stroke-width:0; stroke-opacity:1; 
stroke-linecap:round; stroke-linejoin:round;fill-rule:evenodd;"
d="M 29035,4400
29035,4715
28287,4715
28287,4400
29035,4400
Z" /> 
</g>
<g >
</g>
<g style="fill:#FF080E; fill-opacity:1.0; 
stroke:#FF080E; stroke-width:0; stroke-opacity:1; 
stroke-linecap:round; stroke-linejoin:round;">
<path style="fill:#FF080E; fill-opacity:1.0; 
stroke:#FF080E; stroke-width:0; stroke-opacity:1; 
stroke-linecap:round; stroke-linejoin:round;fill-rule:evenodd;"
d="M 30216,6164
30216,6479
29468,6479
29468,6164
30216,6164
Z" /> 
<path style="fill:#FF080E; fill-opacity:1.0; 
stroke:#FF080E; stroke-width:0; stroke-opacity:1; 
stroke-linecap:round; stroke-linejoin:round;fill-rule:evenodd;"
d="M 30216,5416
30216,5731
29468,5731
29468,5416
30216,5416
Z" /> 
<path style="fill:#FF080E; fill-opacity:1.0; 
stroke:#FF080E; stroke-width:0; stroke-opacity:1; 
stroke-linecap:round; stroke-linejoin:round;fill-rule:evenodd;"
d="M 29035,5790
29035,6105
28287,6105
28287,5790
29035,5790
Z" /> 
</g>
<g >
</g>
<g style="fill:#FF080E; fill-opacity:1.0; 
stroke:#FF080E; stroke-width:0; stroke-opacity:1; 
stroke-linecap:round; stroke-linejoin:round;">
<path style="fill:#FF080E; fill-opacity:1.0; 
stroke:#FF080E; stroke-width:0; stroke-opacity:1; 
stroke-linecap:round; stroke-linejoin:round;fill-rule:evenodd;"
d="M 28287,7109
28287,6794
29035,6794
29035,7109
28287,7109
Z" /> 
<path style="fill:#FF080E; fill-opacity:1.0; 
stroke:#FF080E; stroke-width:0; stroke-opacity:1; 
stroke-linecap:round; stroke-linejoin:round;fill-rule:evenodd;"
d="M 28287,7857
28287,7542
29035,7542
29035,7857
28287,7857
Z" /> 
<path style="fill:#FF080E; fill-opacity:1.0; 
stroke:#FF080E; stroke-width:0; stroke-opacity:1; 
stroke-linecap:round; stroke-linejoin:round;fill-rule:evenodd;"
d="M 29468,7483
29468,7168
30216,7168
30216,7483
29468,7483
Z" /> 
</g>
<g >
</g>
<g style="fill:#FF080E; fill-opacity:1.0; 
stroke:#FF080E; stroke-width:0; stroke-opacity:1; 
stroke-linecap:round; stroke-linejoin:round;">
<path style="fill:#FF080E; fill-opacity:1.0; 
stroke:#FF080E; stroke-width:0; stroke-opacity:1; 
stroke-linecap:round; stroke-linejoin:round;fill-rule:evenodd;"
d="M 34537,5026
34537,5341
33789,5341
33789,5026
34537,5026
Z" /> 
<path style="fill:#FF080E; fill-opacity:1.0; 
stroke:#FF080E; stroke-width:0; stroke-opacity:1; 
stroke-linecap:round; stroke-linejoin:round;fill-rule:evenodd;"
d="M 34537,4278
34537,4593
33789,4593
33789,4278
34537,4278
Z" /> 
<path style="fill:#FF080E; fill-opacity:1.0; 
stroke:#FF080E; stroke-width:0; stroke-opacity:1; 
stroke-linecap:round; stroke-linejoin:round;fill-rule:evenodd;"
d="M 33355,4652
33355,4967
32607,4967
32607,4652
33355,4652
Z" /> 
</g>
<g >
</g>
<g style="fill:#FF080E; fill-opacity:1.0; 
stroke:#FF080E; stroke-width:0; stroke-opacity:1; 
stroke-linecap:round; stroke-linejoin:round;">
<path style="fill:#FF080E; fill-opacity:1.0; 
stroke:#FF080E; stroke-width:0; stroke-opacity:1; 
stroke-linecap:round; stroke-linejoin:round;fill-rule:evenodd;"
d="M 34559,6438
34559,6752
33811,6752
33811,6438
34559,6438
Z" /> 
<path style="fill:#FF080E; fill-opacity:1.0; 
stroke:#FF080E; stroke-width:0; stroke-opacity:1; 
stroke-linecap:round; stroke-linejoin:round;fill-rule:evenodd;"
d="M 34559,5689
34559,6004
33811,6004
33811,5689
34559,5689
Z" /> 
<path style="fill:#FF080E; fill-opacity:1.0; 
stroke:#FF080E; stroke-width:0; stroke-opacity:1; 
stroke-linecap:round; stroke-linejoin:round;fill-rule:evenodd;"
d="M 33378,6063
33378,6378
32630,6378
32630,6063
33378,6063
Z" /> 
</g>
<g >
</g>
<g >
</g>
<g >
</g>
<g style="fill:#FF080E; fill-opacity:1.0; 
stroke:#FF080E; stroke-width:0; stroke-opacity:1; 
stroke-linecap:round; stroke-linejoin:round;">
<path style="fill:#FF080E; fill-opacity:1.0; 
stroke:#FF080E; stroke-width:0; stroke-opacity:1; 
stroke-linecap:round; stroke-linejoin:round;fill-rule:evenodd;"
d="M 26516,6883
26524,6884
26533,6886
26541,6889
26548,6893
26555,6897
26562,6902
26568,6908
26574,6914
26579,6921
26584,6928
26587,6936
26590,6944
26592,6952
26593,6960
26594,6969
26594,7171
26593,7179
26592,7187
26590,7196
26587,7204
26584,7211
26579,7218
26574,7225
26568,7232
26562,7237
26555,7242
26548,7247
26541,7250
26533,7253
26524,7255
26516,7256
26508,7257
26335,7257
26327,7256
26319,7255
26310,7253
26302,7250
26295,7247
26287,7242
26281,7237
26274,7232
26269,7225
26264,7218
26259,7211
26256,7204
26253,7196
26251,7187
26250,7179
26249,7171
26249,6969
26250,6960
26251,6952
26253,6944
26256,6936
26259,6928
26264,6921
26269,6914
26274,6908
26281,6902
26287,6897
26295,6893
26302,6889
26310,6886
26319,6884
26327,6883
26335,6883
26508,6883
26516,6883
Z" /> 
<path style="fill:#FF080E; fill-opacity:1.0; 
stroke:#FF080E; stroke-width:0; stroke-opacity:1; 
stroke-linecap:round; stroke-linejoin:round;fill-rule:evenodd;"
d="M 27136,6883
27144,6884
27153,6886
27161,6889
27168,6893
27176,6897
27182,6902
27189,6908
27194,6914
27199,6921
27204,6928
27207,6936
27210,6944
27212,6952
27213,6960
27214,6969
27214,7171
27213,7179
27212,7187
27210,7196
27207,7204
27204,7211
27199,7218
27194,7225
27189,7232
27182,7237
27176,7242
27168,7247
27161,7250
27153,7253
27144,7255
27136,7256
27128,7257
26955,7257
26947,7256
26939,7255
26930,7253
26922,7250
26915,7247
26908,7242
26901,7237
26895,7232
26889,7225
26884,7218
26879,7211
26876,7204
26873,7196
26871,7187
26870,7179
26869,7171
26869,6969
26870,6960
26871,6952
26873,6944
26876,6936
26879,6928
26884,6921
26889,6914
26895,6908
26901,6902
26908,6897
26915,6893
26922,6889
26930,6886
26939,6884
26947,6883
26955,6883
27128,6883
27136,6883
Z" /> 
</g>
<g >
</g>
<g style="fill:#FF080E; fill-opacity:1.0; 
stroke:#FF080E; stroke-width:0; stroke-opacity:1; 
stroke-linecap:round; stroke-linejoin:round;">
<path style="fill:#FF080E; fill-opacity:1.0; 
stroke:#FF080E; stroke-width:0; stroke-opacity:1; 
stroke-linecap:round; stroke-linejoin:round;fill-rule:evenodd;"
d="M 27069,3651
27078,3652
27086,3654
27094,3657
27101,3661
27109,3665
27115,3670
27122,3676
27127,3682
27132,3689
27137,3696
27140,3704
27143,3712
27145,3720
27146,3728
27147,3737
27147,3909
27146,3917
27145,3926
27143,3934
27140,3942
27137,3949
27132,3957
27127,3963
27122,3970
27115,3975
27109,3980
27101,3985
27094,3988
27086,3991
27078,3993
27069,3995
27061,3995
26859,3995
26851,3995
26842,3993
26834,3991
26826,3988
26818,3985
26811,3980
26804,3975
26798,3970
26792,3963
26787,3957
26783,3949
26779,3942
26777,3934
26774,3926
26773,3917
26773,3909
26773,3737
26773,3728
26774,3720
26777,3712
26779,3704
26783,3696
26787,3689
26792,3682
26798,3676
26804,3670
26811,3665
26818,3661
26826,3657
26834,3654
26842,3652
26851,3651
26859,3650
27061,3650
27069,3651
Z" /> 
<path style="fill:#FF080E; fill-opacity:1.0; 
stroke:#FF080E; stroke-width:0; stroke-opacity:1; 
stroke-linecap:round; stroke-linejoin:round;fill-rule:evenodd;"
d="M 27069,4271
27078,4272
27086,4274
27094,4277
27101,4281
27109,4285
27115,4290
27122,4296
27127,4302
27132,4309
27137,4316
27140,4324
27143,4332
27145,4340
27146,4348
27147,4357
27147,4529
27146,4537
27145,4546
27143,4554
27140,4562
27137,4570
27132,4577
27127,4584
27122,4590
27115,4595
27109,4601
27101,4605
27094,4608
27086,4611
27078,4613
27069,4615
27061,4615
26859,4615
26851,4615
26842,4613
26834,4611
26826,4608
26818,4605
26811,4601
26804,4595
26798,4590
26792,4584
26787,4577
26783,4570
26779,4562
26777,4554
26774,4546
26773,4537
26773,4529
26773,4357
26773,4348
26774,4340
26777,4332
26779,4324
26783,4316
26787,4309
26792,4302
26798,4296
26804,4290
26811,4285
26818,4281
26826,4277
26834,4274
26842,4272
26851,4271
26859,4271
27061,4271
27069,4271
Z" /> 
</g>
<g >
</g>
<g >
</g>
<g style="fill:#FF080E; fill-opacity:1.0; 
stroke:#FF080E; stroke-width:0; stroke-opacity:1; 
stroke-linecap:round; stroke-linejoin:round;">
<path style="fill:#FF080E; fill-opacity:1.0; 
stroke:#FF080E; stroke-width:0; stroke-opacity:1; 
stroke-linecap:round; stroke-linejoin:round;fill-rule:evenodd;"
d="M 26531,6049
26539,6050
26547,6052
26555,6055
26563,6059
26570,6063
26577,6068
26583,6074
26589,6080
26594,6087
26598,6094
26602,6102
26605,6110
26607,6118
26608,6126
26608,6135
26608,6337
26608,6345
26607,6353
26605,6362
26602,6370
26598,6377
26594,6384
26589,6391
26583,6397
26577,6403
26570,6408
26563,6413
26555,6416
26547,6419
26539,6421
26531,6422
26522,6423
26350,6423
26341,6422
26333,6421
26325,6419
26317,6416
26309,6413
26302,6408
26295,6403
26289,6397
26283,6391
26278,6384
26274,6377
26270,6370
26267,6362
26265,6353
26264,6345
26264,6337
26264,6135
26264,6126
26265,6118
26267,6110
26270,6102
26274,6094
26278,6087
26283,6080
26289,6074
26295,6068
26302,6063
26309,6059
26317,6055
26325,6052
26333,6050
26341,6049
26350,6049
26522,6049
26531,6049
Z" /> 
<path style="fill:#FF080E; fill-opacity:1.0; 
stroke:#FF080E; stroke-width:0; stroke-opacity:1; 
stroke-linecap:round; stroke-linejoin:round;fill-rule:evenodd;"
d="M 27151,6049
27159,6050
27167,6052
27175,6055
27183,6059
27190,6063
27197,6068
27203,6074
27209,6080
27214,6087
27218,6094
27222,6102
27225,6110
27227,6118
27228,6126
27228,6135
27228,6337
27228,6345
27227,6353
27225,6362
27222,6370
27218,6377
27214,6384
27209,6391
27203,6397
27197,6403
27190,6408
27183,6413
27175,6416
27167,6419
27159,6421
27151,6422
27142,6423
26970,6423
26962,6422
26953,6421
26945,6419
26937,6416
26929,6413
26922,6408
26915,6403
26909,6397
26903,6391
26898,6384
26894,6377
26890,6370
26888,6362
26885,6353
26884,6345
26884,6337
26884,6135
26884,6126
26885,6118
26888,6110
26890,6102
26894,6094
26898,6087
26903,6080
26909,6074
26915,6068
26922,6063
26929,6059
26937,6055
26945,6052
26953,6050
26962,6049
26970,6049
27142,6049
27151,6049
Z" /> 
</g>
<g >
</g>
<g style="fill:#FF080E; fill-opacity:1.0; 
stroke:#FF080E; stroke-width:0; stroke-opacity:1; 
stroke-linecap:round; stroke-linejoin:round;">
<path style="fill:#FF080E; fill-opacity:1.0; 
stroke:#FF080E; stroke-width:0; stroke-opacity:1; 
stroke-linecap:round; stroke-linejoin:round;fill-rule:evenodd;"
d="M 33927,14758
33936,14759
33944,14761
33952,14764
33960,14768
33967,14772
33974,14777
33980,14783
33986,14789
33991,14796
33995,14803
33999,14811
34001,14819
34003,14827
34005,14835
34005,14844
34005,15016
34005,15025
34003,15033
34001,15041
33999,15049
33995,15057
33991,15064
33986,15071
33980,15077
33974,15083
33967,15088
33960,15092
33952,15096
33944,15099
33936,15101
33927,15102
33919,15102
33717,15102
33709,15102
33700,15101
33692,15099
33684,15096
33677,15092
33669,15088
33663,15083
33656,15077
33651,15071
33646,15064
33641,15057
33638,15049
33635,15041
33633,15033
33632,15025
33631,15016
33631,14844
33632,14835
33633,14827
33635,14819
33638,14811
33641,14803
33646,14796
33651,14789
33656,14783
33663,14777
33669,14772
33677,14768
33684,14764
33692,14761
33700,14759
33709,14758
33717,14758
33919,14758
33927,14758
Z" /> 
<path style="fill:#FF080E; fill-opacity:1.0; 
stroke:#FF080E; stroke-width:0; stroke-opacity:1; 
stroke-linecap:round; stroke-linejoin:round;fill-rule:evenodd;"
d="M 33927,15378
33936,15379
33944,15382
33952,15384
33960,15388
33967,15392
33974,15397
33980,15403
33986,15409
33991,15416
33995,15423
33999,15431
34001,15439
34003,15447
34005,15456
34005,15464
34005,15636
34005,15645
34003,15653
34001,15661
33999,15669
33995,15677
33991,15684
33986,15691
33980,15697
33974,15703
33967,15708
33960,15712
33952,15716
33944,15719
33936,15721
33927,15722
33919,15722
33717,15722
33709,15722
33700,15721
33692,15719
33684,15716
33677,15712
33669,15708
33663,15703
33656,15697
33651,15691
33646,15684
33641,15677
33638,15669
33635,15661
33633,15653
33632,15645
33631,15636
33631,15464
33632,15456
33633,15447
33635,15439
33638,15431
33641,15423
33646,15416
33651,15409
33656,15403
33663,15397
33669,15392
33677,15388
33684,15384
33692,15382
33700,15379
33709,15378
33717,15378
33919,15378
33927,15378
Z" /> 
</g>
<g >
</g>
<g >
</g>
<g >
</g>
<g >
</g>
<g style="fill:#FF080E; fill-opacity:1.0; 
stroke:#FF080E; stroke-width:0; stroke-opacity:1; 
stroke-linecap:round; stroke-linejoin:round;">
<path style="fill:#FF080E; fill-opacity:1.0; 
stroke:#FF080E; stroke-width:0; stroke-opacity:1; 
stroke-linecap:round; stroke-linejoin:round;fill-rule:evenodd;"
d="M 39244,13045
39253,13046
39261,13048
39269,13051
39277,13054
39284,13059
39291,13064
39297,13069
39303,13076
39308,13082
39312,13090
39315,13097
39318,13105
39320,13113
39322,13122
39322,13130
39322,13332
39322,13340
39320,13349
39318,13357
39315,13365
39312,13373
39308,13380
39303,13387
39297,13393
39291,13399
39284,13404
39277,13408
39269,13412
39261,13414
39253,13417
39244,13418
39236,13418
39064,13418
39055,13418
39047,13417
39039,13414
39031,13412
39023,13408
39016,13404
39009,13399
39003,13393
38997,13387
38992,13380
38988,13373
38984,13365
38981,13357
38979,13349
38978,13340
38978,13332
38978,13130
38978,13122
38979,13113
38981,13105
38984,13097
38988,13090
38992,13082
38997,13076
39003,13069
39009,13064
39016,13059
39023,13054
39031,13051
39039,13048
39047,13046
39055,13045
39064,13044
39236,13044
39244,13045
Z" /> 
<path style="fill:#FF080E; fill-opacity:1.0; 
stroke:#FF080E; stroke-width:0; stroke-opacity:1; 
stroke-linecap:round; stroke-linejoin:round;fill-rule:evenodd;"
d="M 39864,13045
39873,13046
39881,13048
39889,13051
39897,13054
39904,13059
39911,13064
39917,13069
39923,13076
39928,13082
39932,13090
39936,13097
39938,13105
39940,13113
39942,13122
39942,13130
39942,13332
39942,13340
39940,13349
39938,13357
39936,13365
39932,13373
39928,13380
39923,13387
39917,13393
39911,13399
39904,13404
39897,13408
39889,13412
39881,13414
39873,13417
39864,13418
39856,13418
39684,13418
39675,13418
39667,13417
39659,13414
39651,13412
39643,13408
39636,13404
39629,13399
39623,13393
39617,13387
39612,13380
39608,13373
39604,13365
39601,13357
39599,13349
39598,13340
39598,13332
39598,13130
39598,13122
39599,13113
39601,13105
39604,13097
39608,13090
39612,13082
39617,13076
39623,13069
39629,13064
39636,13059
39643,13054
39651,13051
39659,13048
39667,13046
39675,13045
39684,13044
39856,13044
39864,13045
Z" /> 
</g>
<g >
</g>
<g style="fill:#FF080E; fill-opacity:1.0; 
stroke:#FF080E; stroke-width:0; stroke-opacity:1; 
stroke-linecap:round; stroke-linejoin:round;">
<path style="fill:#FF080E; fill-opacity:1.0; 
stroke:#FF080E; stroke-width:0; stroke-opacity:1; 
stroke-linecap:round; stroke-linejoin:round;fill-rule:evenodd;"
d="M 42848,16241
43084,16241
43084,16851
42848,16851
42848,16241
Z" /> 
<path style="fill:#FF080E; fill-opacity:1.0; 
stroke:#FF080E; stroke-width:0; stroke-opacity:1; 
stroke-linecap:round; stroke-linejoin:round;fill-rule:evenodd;"
d="M 42348,16241
42584,16241
42584,16851
42348,16851
42348,16241
Z" /> 
<path style="fill:#FF080E; fill-opacity:1.0; 
stroke:#FF080E; stroke-width:0; stroke-opacity:1; 
stroke-linecap:round; stroke-linejoin:round;fill-rule:evenodd;"
d="M 41848,16241
42084,16241
42084,16851
41848,16851
41848,16241
Z" /> 
<path style="fill:#FF080E; fill-opacity:1.0; 
stroke:#FF080E; stroke-width:0; stroke-opacity:1; 
stroke-linecap:round; stroke-linejoin:round;fill-rule:evenodd;"
d="M 41348,16241
41584,16241
41584,16851
41348,16851
41348,16241
Z" /> 
<path style="fill:#FF080E; fill-opacity:1.0; 
stroke:#FF080E; stroke-width:0; stroke-opacity:1; 
stroke-linecap:round; stroke-linejoin:round;fill-rule:evenodd;"
d="M 41348,18367
41584,18367
41584,18977
41348,18977
41348,18367
Z" /> 
<path style="fill:#FF080E; fill-opacity:1.0; 
stroke:#FF080E; stroke-width:0; stroke-opacity:1; 
stroke-linecap:round; stroke-linejoin:round;fill-rule:evenodd;"
d="M 41848,18367
42084,18367
42084,18977
41848,18977
41848,18367
Z" /> 
<path style="fill:#FF080E; fill-opacity:1.0; 
stroke:#FF080E; stroke-width:0; stroke-opacity:1; 
stroke-linecap:round; stroke-linejoin:round;fill-rule:evenodd;"
d="M 42348,18367
42584,18367
42584,18977
42348,18977
42348,18367
Z" /> 
<path style="fill:#FF080E; fill-opacity:1.0; 
stroke:#FF080E; stroke-width:0; stroke-opacity:1; 
stroke-linecap:round; stroke-linejoin:round;fill-rule:evenodd;"
d="M 42848,18367
43084,18367
43084,18977
42848,18977
42848,18367
Z" /> 
</g>
<g >
</g>
<g style="fill:#FF080E; fill-opacity:1.0; 
stroke:#FF080E; stroke-width:0; stroke-opacity:1; 
stroke-linecap:round; stroke-linejoin:round;">
<path style="fill:#FF080E; fill-opacity:1.0; 
stroke:#FF080E; stroke-width:0; stroke-opacity:1; 
stroke-linecap:round; stroke-linejoin:round;fill-rule:evenodd;"
d="M 42694,13084
42930,13084
42930,13694
42694,13694
42694,13084
Z" /> 
<path style="fill:#FF080E; fill-opacity:1.0; 
stroke:#FF080E; stroke-width:0; stroke-opacity:1; 
stroke-linecap:round; stroke-linejoin:round;fill-rule:evenodd;"
d="M 42194,13084
42430,13084
42430,13694
42194,13694
42194,13084
Z" /> 
<path style="fill:#FF080E; fill-opacity:1.0; 
stroke:#FF080E; stroke-width:0; stroke-opacity:1; 
stroke-linecap:round; stroke-linejoin:round;fill-rule:evenodd;"
d="M 41694,13084
41930,13084
41930,13694
41694,13694
41694,13084
Z" /> 
<path style="fill:#FF080E; fill-opacity:1.0; 
stroke:#FF080E; stroke-width:0; stroke-opacity:1; 
stroke-linecap:round; stroke-linejoin:round;fill-rule:evenodd;"
d="M 41194,13084
41430,13084
41430,13694
41194,13694
41194,13084
Z" /> 
<path style="fill:#FF080E; fill-opacity:1.0; 
stroke:#FF080E; stroke-width:0; stroke-opacity:1; 
stroke-linecap:round; stroke-linejoin:round;fill-rule:evenodd;"
d="M 41194,15210
41430,15210
41430,15820
41194,15820
41194,15210
Z" /> 
<path style="fill:#FF080E; fill-opacity:1.0; 
stroke:#FF080E; stroke-width:0; stroke-opacity:1; 
stroke-linecap:round; stroke-linejoin:round;fill-rule:evenodd;"
d="M 41694,15210
41930,15210
41930,15820
41694,15820
41694,15210
Z" /> 
<path style="fill:#FF080E; fill-opacity:1.0; 
stroke:#FF080E; stroke-width:0; stroke-opacity:1; 
stroke-linecap:round; stroke-linejoin:round;fill-rule:evenodd;"
d="M 42194,15210
42430,15210
42430,15820
42194,15820
42194,15210
Z" /> 
<path style="fill:#FF080E; fill-opacity:1.0; 
stroke:#FF080E; stroke-width:0; stroke-opacity:1; 
stroke-linecap:round; stroke-linejoin:round;fill-rule:evenodd;"
d="M 42694,15210
42930,15210
42930,15820
42694,15820
42694,15210
Z" /> 
</g>
<g >
</g>
<g >
</g>
<g style="fill:#FF080E; fill-opacity:1.0; 
stroke:#FF080E; stroke-width:0; stroke-opacity:1; 
stroke-linecap:round; stroke-linejoin:round;">
<path style="fill:#FF080E; fill-opacity:1.0; 
stroke:#FF080E; stroke-width:0; stroke-opacity:1; 
stroke-linecap:round; stroke-linejoin:round;fill-rule:evenodd;"
d="M 34285,17739
34285,17975
33674,17975
33674,17739
34285,17739
Z" /> 
<path style="fill:#FF080E; fill-opacity:1.0; 
stroke:#FF080E; stroke-width:0; stroke-opacity:1; 
stroke-linecap:round; stroke-linejoin:round;fill-rule:evenodd;"
d="M 34285,17239
34285,17475
33674,17475
33674,17239
34285,17239
Z" /> 
<path style="fill:#FF080E; fill-opacity:1.0; 
stroke:#FF080E; stroke-width:0; stroke-opacity:1; 
stroke-linecap:round; stroke-linejoin:round;fill-rule:evenodd;"
d="M 34285,16739
34285,16975
33674,16975
33674,16739
34285,16739
Z" /> 
<path style="fill:#FF080E; fill-opacity:1.0; 
stroke:#FF080E; stroke-width:0; stroke-opacity:1; 
stroke-linecap:round; stroke-linejoin:round;fill-rule:evenodd;"
d="M 34285,16239
34285,16475
33674,16475
33674,16239
34285,16239
Z" /> 
<path style="fill:#FF080E; fill-opacity:1.0; 
stroke:#FF080E; stroke-width:0; stroke-opacity:1; 
stroke-linecap:round; stroke-linejoin:round;fill-rule:evenodd;"
d="M 36411,16239
36411,16475
35800,16475
35800,16239
36411,16239
Z" /> 
<path style="fill:#FF080E; fill-opacity:1.0; 
stroke:#FF080E; stroke-width:0; stroke-opacity:1; 
stroke-linecap:round; stroke-linejoin:round;fill-rule:evenodd;"
d="M 36411,16739
36411,16975
35800,16975
35800,16739
36411,16739
Z" /> 
<path style="fill:#FF080E; fill-opacity:1.0; 
stroke:#FF080E; stroke-width:0; stroke-opacity:1; 
stroke-linecap:round; stroke-linejoin:round;fill-rule:evenodd;"
d="M 36411,17239
36411,17475
35800,17475
35800,17239
36411,17239
Z" /> 
<path style="fill:#FF080E; fill-opacity:1.0; 
stroke:#FF080E; stroke-width:0; stroke-opacity:1; 
stroke-linecap:round; stroke-linejoin:round;fill-rule:evenodd;"
d="M 36411,17739
36411,17975
35800,17975
35800,17739
36411,17739
Z" /> 
</g>
<g >
</g>
<g style="fill:#FF080E; fill-opacity:1.0; 
stroke:#FF080E; stroke-width:0; stroke-opacity:1; 
stroke-linecap:round; stroke-linejoin:round;">
<path style="fill:#FF080E; fill-opacity:1.0; 
stroke:#FF080E; stroke-width:0; stroke-opacity:1; 
stroke-linecap:round; stroke-linejoin:round;fill-rule:evenodd;"
d="M 34605,18960
34613,18961
34621,18963
34629,18966
34637,18970
34644,18974
34651,18979
34657,18985
34663,18991
34668,18998
34672,19005
34676,19013
34679,19021
34681,19029
34682,19037
34682,19046
34682,19218
34682,19226
34681,19235
34679,19243
34676,19251
34672,19258
34668,19266
34663,19273
34657,19279
34651,19284
34644,19289
34637,19294
34629,19297
34621,19300
34613,19302
34605,19304
34596,19304
34394,19304
34386,19304
34378,19302
34369,19300
34361,19297
34354,19294
34347,19289
34340,19284
34333,19279
34328,19273
34323,19266
34318,19258
34315,19251
34312,19243
34310,19235
34309,19226
34308,19218
34308,19046
34309,19037
34310,19029
34312,19021
34315,19013
34318,19005
34323,18998
34328,18991
34333,18985
34340,18979
34347,18974
34354,18970
34361,18966
34369,18963
34378,18961
34386,18960
34394,18960
34596,18960
34605,18960
Z" /> 
<path style="fill:#FF080E; fill-opacity:1.0; 
stroke:#FF080E; stroke-width:0; stroke-opacity:1; 
stroke-linecap:round; stroke-linejoin:round;fill-rule:evenodd;"
d="M 34605,18340
34613,18341
34621,18343
34629,18346
34637,18350
34644,18354
34651,18359
34657,18365
34663,18371
34668,18378
34672,18385
34676,18393
34679,18401
34681,18409
34682,18417
34682,18426
34682,18598
34682,18606
34681,18615
34679,18623
34676,18631
34672,18638
34668,18646
34663,18652
34657,18659
34651,18664
34644,18669
34637,18674
34629,18677
34621,18680
34613,18682
34605,18684
34596,18684
34394,18684
34386,18684
34378,18682
34369,18680
34361,18677
34354,18674
34347,18669
34340,18664
34333,18659
34328,18652
34323,18646
34318,18638
34315,18631
34312,18623
34310,18615
34309,18606
34308,18598
34308,18426
34309,18417
34310,18409
34312,18401
34315,18393
34318,18385
34323,18378
34328,18371
34333,18365
34340,18359
34347,18354
34354,18350
34361,18346
34369,18343
34378,18341
34386,18340
34394,18339
34596,18339
34605,18340
Z" /> 
</g>
<g >
</g>
<g style="fill:#FF080E; fill-opacity:1.0; 
stroke:#FF080E; stroke-width:0; stroke-opacity:1; 
stroke-linecap:round; stroke-linejoin:round;">
<path style="fill:#FF080E; fill-opacity:1.0; 
stroke:#FF080E; stroke-width:0; stroke-opacity:1; 
stroke-linecap:round; stroke-linejoin:round;fill-rule:evenodd;"
d="M 40624,17903
40633,17904
40641,17906
40649,17909
40656,17913
40664,17917
40670,17922
40677,17928
40682,17934
40687,17941
40692,17948
40695,17956
40698,17964
40700,17972
40702,17980
40702,17989
40702,18161
40702,18169
40700,18178
40698,18186
40695,18194
40692,18201
40687,18209
40682,18215
40677,18222
40670,18227
40664,18232
40656,18237
40649,18240
40641,18243
40633,18245
40624,18247
40616,18247
40414,18247
40406,18247
40397,18245
40389,18243
40381,18240
40373,18237
40366,18232
40359,18227
40353,18222
40348,18215
40342,18209
40338,18201
40335,18194
40332,18186
40330,18178
40328,18169
40328,18161
40328,17989
40328,17980
40330,17972
40332,17964
40335,17956
40338,17948
40342,17941
40348,17934
40353,17928
40359,17922
40366,17917
40373,17913
40381,17909
40389,17906
40397,17904
40406,17903
40414,17902
40616,17902
40624,17903
Z" /> 
<path style="fill:#FF080E; fill-opacity:1.0; 
stroke:#FF080E; stroke-width:0; stroke-opacity:1; 
stroke-linecap:round; stroke-linejoin:round;fill-rule:evenodd;"
d="M 40624,18523
40633,18524
40641,18526
40649,18529
40656,18533
40664,18537
40670,18542
40677,18548
40682,18554
40687,18561
40692,18568
40695,18576
40698,18584
40700,18592
40702,18600
40702,18609
40702,18781
40702,18789
40700,18798
40698,18806
40695,18814
40692,18821
40687,18829
40682,18836
40677,18842
40670,18847
40664,18852
40656,18857
40649,18860
40641,18863
40633,18865
40624,18867
40616,18867
40414,18867
40406,18867
40397,18865
40389,18863
40381,18860
40373,18857
40366,18852
40359,18847
40353,18842
40348,18836
40342,18829
40338,18821
40335,18814
40332,18806
40330,18798
40328,18789
40328,18781
40328,18609
40328,18600
40330,18592
40332,18584
40335,18576
40338,18568
40342,18561
40348,18554
40353,18548
40359,18542
40366,18537
40373,18533
40381,18529
40389,18526
40397,18524
40406,18523
40414,18523
40616,18523
40624,18523
Z" /> 
</g>
<g >
</g>
<g style="fill:#FF080E; fill-opacity:1.0; 
stroke:#FF080E; stroke-width:0; stroke-opacity:1; 
stroke-linecap:round; stroke-linejoin:round;">
<path style="fill:#FF080E; fill-opacity:1.0; 
stroke:#FF080E; stroke-width:0; stroke-opacity:1; 
stroke-linecap:round; stroke-linejoin:round;fill-rule:evenodd;"
d="M 39995,16915
40004,16917
40012,16919
40020,16922
40027,16925
40035,16929
40041,16935
40048,16940
40053,16946
40058,16953
40063,16960
40066,16968
40069,16976
40071,16984
40072,16993
40073,17001
40073,17173
40072,17182
40071,17190
40069,17198
40066,17206
40063,17214
40058,17221
40053,17228
40048,17234
40041,17240
40035,17245
40027,17249
40020,17253
40012,17256
40004,17258
39995,17259
39987,17259
39785,17259
39777,17259
39768,17258
39760,17256
39752,17253
39744,17249
39737,17245
39730,17240
39724,17234
39718,17228
39713,17221
39709,17214
39705,17206
39703,17198
39701,17190
39699,17182
39699,17173
39699,17001
39699,16993
39701,16984
39703,16976
39705,16968
39709,16960
39713,16953
39718,16946
39724,16940
39730,16935
39737,16929
39744,16925
39752,16922
39760,16919
39768,16917
39777,16915
39785,16915
39987,16915
39995,16915
Z" /> 
<path style="fill:#FF080E; fill-opacity:1.0; 
stroke:#FF080E; stroke-width:0; stroke-opacity:1; 
stroke-linecap:round; stroke-linejoin:round;fill-rule:evenodd;"
d="M 39995,16295
40004,16297
40012,16299
40020,16301
40027,16305
40035,16309
40041,16314
40048,16320
40053,16326
40058,16333
40063,16340
40066,16348
40069,16356
40071,16364
40072,16373
40073,16381
40073,16553
40072,16562
40071,16570
40069,16578
40066,16586
40063,16594
40058,16601
40053,16608
40048,16614
40041,16620
40035,16625
40027,16629
40020,16633
40012,16636
40004,16638
39995,16639
39987,16639
39785,16639
39777,16639
39768,16638
39760,16636
39752,16633
39744,16629
39737,16625
39730,16620
39724,16614
39718,16608
39713,16601
39709,16594
39705,16586
39703,16578
39701,16570
39699,16562
39699,16553
39699,16381
39699,16373
39701,16364
39703,16356
39705,16348
39709,16340
39713,16333
39718,16326
39724,16320
39730,16314
39737,16309
39744,16305
39752,16301
39760,16299
39768,16297
39777,16295
39785,16295
39987,16295
39995,16295
Z" /> 
</g>
<g >
</g>
<g >
</g>
<g >
</g>
<g >
</g>
<g >
</g>
<g >
</g>
<g >
</g>
<g >
</g>
<g >
</g>
<g >
</g>
<g >
</g>
<g style="fill:#FF080E; fill-opacity:1.0; 
stroke:#FF080E; stroke-width:0; stroke-opacity:1; 
stroke-linecap:round; stroke-linejoin:round;">
<path style="fill:#FF080E; fill-opacity:1.0; 
stroke:#FF080E; stroke-width:0; stroke-opacity:1; 
stroke-linecap:round; stroke-linejoin:round;fill-rule:evenodd;"
d="M 46343,12196
46343,12314
45792,12314
45792,12196
46343,12196
Z" /> 
<path style="fill:#FF080E; fill-opacity:1.0; 
stroke:#FF080E; stroke-width:0; stroke-opacity:1; 
stroke-linecap:round; stroke-linejoin:round;fill-rule:evenodd;"
d="M 46343,11999
46343,12118
45792,12118
45792,11999
46343,11999
Z" /> 
<path style="fill:#FF080E; fill-opacity:1.0; 
stroke:#FF080E; stroke-width:0; stroke-opacity:1; 
stroke-linecap:round; stroke-linejoin:round;fill-rule:evenodd;"
d="M 46343,11803
46343,11921
45792,11921
45792,11803
46343,11803
Z" /> 
<path style="fill:#FF080E; fill-opacity:1.0; 
stroke:#FF080E; stroke-width:0; stroke-opacity:1; 
stroke-linecap:round; stroke-linejoin:round;fill-rule:evenodd;"
d="M 46343,11606
46343,11724
45792,11724
45792,11606
46343,11606
Z" /> 
<path style="fill:#FF080E; fill-opacity:1.0; 
stroke:#FF080E; stroke-width:0; stroke-opacity:1; 
stroke-linecap:round; stroke-linejoin:round;fill-rule:evenodd;"
d="M 46343,11409
46343,11527
45792,11527
45792,11409
46343,11409
Z" /> 
<path style="fill:#FF080E; fill-opacity:1.0; 
stroke:#FF080E; stroke-width:0; stroke-opacity:1; 
stroke-linecap:round; stroke-linejoin:round;fill-rule:evenodd;"
d="M 44610,11409
44610,11527
44059,11527
44059,11409
44610,11409
Z" /> 
<path style="fill:#FF080E; fill-opacity:1.0; 
stroke:#FF080E; stroke-width:0; stroke-opacity:1; 
stroke-linecap:round; stroke-linejoin:round;fill-rule:evenodd;"
d="M 44610,11606
44610,11724
44059,11724
44059,11606
44610,11606
Z" /> 
<path style="fill:#FF080E; fill-opacity:1.0; 
stroke:#FF080E; stroke-width:0; stroke-opacity:1; 
stroke-linecap:round; stroke-linejoin:round;fill-rule:evenodd;"
d="M 44610,11803
44610,11921
44059,11921
44059,11803
44610,11803
Z" /> 
<path style="fill:#FF080E; fill-opacity:1.0; 
stroke:#FF080E; stroke-width:0; stroke-opacity:1; 
stroke-linecap:round; stroke-linejoin:round;fill-rule:evenodd;"
d="M 44610,11999
44610,12118
44059,12118
44059,11999
44610,11999
Z" /> 
<path style="fill:#FF080E; fill-opacity:1.0; 
stroke:#FF080E; stroke-width:0; stroke-opacity:1; 
stroke-linecap:round; stroke-linejoin:round;fill-rule:evenodd;"
d="M 44610,12196
44610,12314
44059,12314
44059,12196
44610,12196
Z" /> 
</g>
<g >
</g>
<g style="fill:#FF080E; fill-opacity:1.0; 
stroke:#FF080E; stroke-width:0; stroke-opacity:1; 
stroke-linecap:round; stroke-linejoin:round;">
<path style="fill:#FF080E; fill-opacity:1.0; 
stroke:#FF080E; stroke-width:0; stroke-opacity:1; 
stroke-linecap:round; stroke-linejoin:round;fill-rule:evenodd;"
d="M 37078,16610
37087,16612
37097,16614
37106,16617
37115,16621
37123,16626
37131,16632
37138,16639
37144,16646
37150,16654
37155,16662
37159,16671
37162,16680
37165,16689
37166,16699
37167,16708
37167,16964
37166,16974
37165,16983
37162,16993
37159,17002
37155,17010
37150,17019
37144,17027
37138,17034
37131,17040
37123,17046
37115,17051
37106,17055
37097,17058
37087,17061
37078,17062
37068,17063
36714,17063
36704,17062
36695,17061
36685,17058
36676,17055
36667,17051
36659,17046
36651,17040
36644,17034
36638,17027
36632,17019
36627,17010
36623,17002
36620,16993
36617,16983
36616,16974
36615,16964
36615,16708
36616,16699
36617,16689
36620,16680
36623,16671
36627,16662
36632,16654
36638,16646
36644,16639
36651,16632
36659,16626
36667,16621
36676,16617
36685,16614
36695,16612
36704,16610
36714,16610
37068,16610
37078,16610
Z" /> 
<path style="fill:#FF080E; fill-opacity:1.0; 
stroke:#FF080E; stroke-width:0; stroke-opacity:1; 
stroke-linecap:round; stroke-linejoin:round;fill-rule:evenodd;"
d="M 37078,17417
37087,17419
37097,17421
37106,17424
37115,17428
37123,17433
37131,17439
37138,17446
37144,17453
37150,17461
37155,17469
37159,17478
37162,17487
37165,17496
37166,17506
37167,17515
37167,17771
37166,17781
37165,17790
37162,17800
37159,17809
37155,17818
37150,17826
37144,17834
37138,17841
37131,17847
37123,17853
37115,17858
37106,17862
37097,17865
37087,17868
37078,17869
37068,17870
36714,17870
36704,17869
36695,17868
36685,17865
36676,17862
36667,17858
36659,17853
36651,17847
36644,17841
36638,17834
36632,17826
36627,17818
36623,17809
36620,17800
36617,17790
36616,17781
36615,17771
36615,17515
36616,17506
36617,17496
36620,17487
36623,17478
36627,17469
36632,17461
36638,17453
36644,17446
36651,17439
36659,17433
36667,17428
36676,17424
36685,17421
36695,17419
36704,17417
36714,17417
37068,17417
37078,17417
Z" /> 
</g>
<g >
</g>
<g style="fill:#FF080E; fill-opacity:1.0; 
stroke:#FF080E; stroke-width:0; stroke-opacity:1; 
stroke-linecap:round; stroke-linejoin:round;">
<path style="fill:#FF080E; fill-opacity:1.0; 
stroke:#FF080E; stroke-width:0; stroke-opacity:1; 
stroke-linecap:round; stroke-linejoin:round;fill-rule:evenodd;"
d="M 37053,15862
37063,15863
37072,15865
37081,15869
37090,15873
37098,15878
37106,15883
37113,15890
37120,15897
37125,15905
37130,15913
37134,15922
37138,15931
37140,15940
37141,15950
37142,15960
37142,16314
37141,16324
37140,16333
37138,16342
37134,16352
37130,16360
37125,16369
37120,16376
37113,16383
37106,16390
37098,16396
37090,16401
37081,16405
37072,16408
37063,16410
37053,16412
37043,16412
36788,16412
36778,16412
36768,16410
36759,16408
36750,16405
36741,16401
36733,16396
36725,16390
36718,16383
36711,16376
36706,16369
36701,16360
36697,16352
36693,16342
36691,16333
36690,16324
36689,16314
36689,15960
36690,15950
36691,15940
36693,15931
36697,15922
36701,15913
36706,15905
36711,15897
36718,15890
36725,15883
36733,15878
36741,15873
36750,15869
36759,15865
36768,15863
36778,15862
36788,15861
37043,15861
37053,15862
Z" /> 
<path style="fill:#FF080E; fill-opacity:1.0; 
stroke:#FF080E; stroke-width:0; stroke-opacity:1; 
stroke-linecap:round; stroke-linejoin:round;fill-rule:evenodd;"
d="M 37868,15854
37878,15856
37887,15858
37896,15861
37905,15865
37913,15870
37921,15876
37928,15882
37934,15889
37940,15897
37945,15905
37949,15914
37952,15923
37954,15932
37956,15942
37956,15951
37956,16308
37956,16318
37954,16327
37952,16336
37949,16345
37945,16354
37940,16362
37934,16370
37928,16377
37921,16383
37913,16389
37905,16394
37896,16398
37887,16401
37878,16403
37868,16405
37859,16405
37606,16405
37596,16405
37587,16403
37578,16401
37569,16398
37560,16394
37552,16389
37544,16383
37537,16377
37531,16370
37525,16362
37520,16354
37516,16345
37513,16336
37511,16327
37509,16318
37509,16308
37509,15951
37509,15942
37511,15932
37513,15923
37516,15914
37520,15905
37525,15897
37531,15889
37537,15882
37544,15876
37552,15870
37560,15865
37569,15861
37578,15858
37587,15856
37596,15854
37606,15854
37859,15854
37868,15854
Z" /> 
</g>
<g >
</g>
<g style="fill:#FF080E; fill-opacity:1.0; 
stroke:#FF080E; stroke-width:0; stroke-opacity:1; 
stroke-linecap:round; stroke-linejoin:round;">
<path style="fill:#FF080E; fill-opacity:1.0; 
stroke:#FF080E; stroke-width:0; stroke-opacity:1; 
stroke-linecap:round; stroke-linejoin:round;fill-rule:evenodd;"
d="M 36783,13152
36783,13467
36035,13467
36035,13152
36783,13152
Z" /> 
<path style="fill:#FF080E; fill-opacity:1.0; 
stroke:#FF080E; stroke-width:0; stroke-opacity:1; 
stroke-linecap:round; stroke-linejoin:round;fill-rule:evenodd;"
d="M 36783,12404
36783,12719
36035,12719
36035,12404
36783,12404
Z" /> 
<path style="fill:#FF080E; fill-opacity:1.0; 
stroke:#FF080E; stroke-width:0; stroke-opacity:1; 
stroke-linecap:round; stroke-linejoin:round;fill-rule:evenodd;"
d="M 35602,12778
35602,13093
34854,13093
34854,12778
35602,12778
Z" /> 
</g>
<g >
</g>
<g style="fill:#FF080E; fill-opacity:1.0; 
stroke:#FF080E; stroke-width:0; stroke-opacity:1; 
stroke-linecap:round; stroke-linejoin:round;">
<path style="fill:#FF080E; fill-opacity:1.0; 
stroke:#FF080E; stroke-width:0; stroke-opacity:1; 
stroke-linecap:round; stroke-linejoin:round;fill-rule:evenodd;"
d="M 36720,14613
36720,14928
35972,14928
35972,14613
36720,14613
Z" /> 
<path style="fill:#FF080E; fill-opacity:1.0; 
stroke:#FF080E; stroke-width:0; stroke-opacity:1; 
stroke-linecap:round; stroke-linejoin:round;fill-rule:evenodd;"
d="M 36720,13865
36720,14180
35972,14180
35972,13865
36720,13865
Z" /> 
<path style="fill:#FF080E; fill-opacity:1.0; 
stroke:#FF080E; stroke-width:0; stroke-opacity:1; 
stroke-linecap:round; stroke-linejoin:round;fill-rule:evenodd;"
d="M 35539,14239
35539,14554
34791,14554
34791,14239
35539,14239
Z" /> 
</g>
<g >
</g>
<g style="fill:#FF080E; fill-opacity:1.0; 
stroke:#FF080E; stroke-width:0; stroke-opacity:1; 
stroke-linecap:round; stroke-linejoin:round;">
<path style="fill:#FF080E; fill-opacity:1.0; 
stroke:#FF080E; stroke-width:0; stroke-opacity:1; 
stroke-linecap:round; stroke-linejoin:round;fill-rule:evenodd;"
d="M 39246,15923
39255,15924
39264,15927
39272,15930
39281,15934
39289,15938
39296,15944
39303,15950
39309,15957
39314,15964
39319,15972
39323,15980
39326,15989
39328,15998
39330,16007
39330,16016
39330,16203
39330,16212
39328,16221
39326,16230
39323,16239
39319,16247
39314,16255
39309,16263
39303,16269
39296,16275
39289,16281
39281,16286
39272,16290
39264,16293
39255,16295
39246,16296
39237,16297
39010,16297
39001,16296
38992,16295
38983,16293
38975,16290
38966,16286
38958,16281
38951,16275
38944,16269
38938,16263
38933,16255
38928,16247
38924,16239
38921,16230
38919,16221
38917,16212
38917,16203
38917,16016
38917,16007
38919,15998
38921,15989
38924,15980
38928,15972
38933,15964
38938,15957
38944,15950
38951,15944
38958,15938
38966,15934
38975,15930
38983,15927
38992,15924
39001,15923
39010,15923
39237,15923
39246,15923
Z" /> 
<path style="fill:#FF080E; fill-opacity:1.0; 
stroke:#FF080E; stroke-width:0; stroke-opacity:1; 
stroke-linecap:round; stroke-linejoin:round;fill-rule:evenodd;"
d="M 38557,15923
38566,15924
38575,15927
38584,15930
38592,15934
38600,15938
38607,15944
38614,15950
38620,15957
38625,15964
38630,15972
38634,15980
38637,15989
38639,15998
38641,16007
38641,16016
38641,16203
38641,16212
38639,16221
38637,16230
38634,16239
38630,16247
38625,16255
38620,16263
38614,16269
38607,16275
38600,16281
38592,16286
38584,16290
38575,16293
38566,16295
38557,16296
38548,16297
38321,16297
38312,16296
38303,16295
38294,16293
38286,16290
38277,16286
38269,16281
38262,16275
38255,16269
38249,16263
38244,16255
38239,16247
38235,16239
38232,16230
38230,16221
38228,16212
38228,16203
38228,16016
38228,16007
38230,15998
38232,15989
38235,15980
38239,15972
38244,15964
38249,15957
38255,15950
38262,15944
38269,15938
38277,15934
38286,15930
38294,15927
38303,15924
38312,15923
38321,15923
38548,15923
38557,15923
Z" /> 
</g>
<g >
</g>
<g >
</g>
<g >
</g>
</g>
<g style="fill:#000000; fill-opacity:1.0; 
stroke:#000000; stroke-width:0; stroke-opacity:1; 
stroke-linecap:round; stroke-linejoin:round;">
</g>
<g style="fill:#C2C200; fill-opacity:1.0; 
stroke:#C2C200; stroke-width:0; stroke-opacity:1; 
stroke-linecap:round; stroke-linejoin:round;">
</g>
<g style="fill:#C2C200; fill-opacity:1.0; 
stroke:#C2C200; stroke-width:59.0551; stroke-opacity:1; 
stroke-linecap:round; stroke-linejoin:round;">
</g>
<g style="fill:#C2C200; fill-opacity:0.0; 
stroke:#C2C200; stroke-width:59.0551; stroke-opacity:1; 
stroke-linecap:round; stroke-linejoin:round;">
<path d="M24070 22873
L50070 22873
" />
<path d="M51070 7973
L50070 6973
" />
<path d="M51070 20873
L51070 7973
" />
<path d="M50070 2473
L49470 1873
" />
<path d="M50070 21873
L51070 20873
" />
<path d="M50070 22873
L50070 21873
" />
<path d="M50070 6973
L50070 2473
" />
<path d="M24070 1873
L24070 22873
" />
<path d="M49470 1873
L24070 1873
" />
<g >
</g>
<g >
</g>
<g >
</g>
<g >
</g>
<g >
</g>
<g >
</g>
<g >
</g>
<g >
</g>
<g >
</g>
<g >
</g>
<g >
</g>
<g >
</g>
<g >
</g>
<g >
</g>
<g >
</g>
<g >
</g>
<g >
</g>
<g >
</g>
<g >
</g>
<g >
</g>
<g >
</g>
<g >
</g>
<g >
</g>
<g >
</g>
<g >
</g>
<g >
</g>
<g >
</g>
<g >
</g>
<g >
</g>
<g >
</g>
<g >
</g>
<g >
</g>
<g >
</g>
<g >
</g>
<g >
</g>
<g >
</g>
<g >
</g>
<g >
</g>
<g >
</g>
<g >
</g>
<g >
</g>
<g >
</g>
<g >
</g>
<g >
</g>
<g >
</g>
<g >
</g>
<g >
</g>
<g >
</g>
<g >
</g>
<g >
</g>
<g >
</g>
<g >
</g>
<g >
</g>
<g >
</g>
<g >
</g>
<g >
</g>
<g >
</g>
<g >
</g>
<g >
</g>
<g >
</g>
<g >
</g>
<g >
</g>
<g >
</g>
<g >
</g>
<g >
</g>
<g >
</g>
<g >
</g>
<g >
</g>
<g >
</g>
<g >
</g>
<g >
</g>
<g >
</g>
<g >
</g>
<g >
</g>
<g >
</g>
<g >
</g>
<g >
</g>
<g >
</g>
<g >
</g>
<g >
</g>
<g >
</g>
<g >
</g>
<g >
</g>
<g >
</g>
</g> 
</svg>
