<?xml version="1.0" standalone="no"?>
 <!DOCTYPE svg PUBLIC "-//W3C//DTD SVG 1.1//EN" 
 "http://www.w3.org/Graphics/SVG/1.1/DTD/svg11.dtd"> 
<svg xmlns="http://www.w3.org/2000/svg" version="1.1" 
    width="12.6924cm" height="7.69366cm" viewBox="0 0 49970 30290 ">
<title>SVG Picture created as uno shield v1.0 project SMD with aux board-F_Paste.svg date 2020/03/12 14:33:39 </title>
  <desc>Picture generated by PCBNEW </desc>
<g style="fill:#000000; fill-opacity:1;stroke:#000000; stroke-opacity:1;
stroke-linecap:round; stroke-linejoin:round; "
 transform="translate(0 0) scale(1 1)">
</g>
<g style="fill:#000000; fill-opacity:0.0; 
stroke:#000000; stroke-width:-0.000393701; stroke-opacity:1; 
stroke-linecap:round; stroke-linejoin:round;">
</g>
<g style="fill:#26FF16; fill-opacity:0.0; 
stroke:#26FF16; stroke-width:-0.000393701; stroke-opacity:1; 
stroke-linecap:round; stroke-linejoin:round;">
</g>
<g style="fill:#26FF16; fill-opacity:0.0; 
stroke:#26FF16; stroke-width:0.393701; stroke-opacity:1; 
stroke-linecap:round; stroke-linejoin:round;">
<circle cx="32367.4" cy="12517" r="314.961" /> 
<circle cx="32367.4" cy="23517" r="314.961" /> 
<circle cx="12367.4" cy="6516.97" r="314.961" /> 
<circle cx="31367.3" cy="6516.97" r="196.85" /> 
<circle cx="9591.64" cy="6234" r="196.85" /> 
<circle cx="31367.4" cy="25517" r="196.85" /> 
<g >
</g>
<g >
</g>
<g >
</g>
<g >
</g>
<g >
</g>
<g >
</g>
<g >
</g>
<g >
</g>
<g >
</g>
<g >
</g>
<g >
</g>
<g >
</g>
<g >
</g>
<g >
</g>
<g >
</g>
<g >
</g>
<g >
</g>
<g >
</g>
<g >
</g>
<g >
</g>
<g >
</g>
<g >
</g>
<g >
</g>
<g >
</g>
<g >
</g>
<g >
</g>
<g >
</g>
<g >
</g>
<g >
</g>
<g >
</g>
<g >
</g>
<g >
</g>
<g >
</g>
<g >
</g>
<g >
</g>
<g >
</g>
<g >
</g>
<g >
</g>
<g >
</g>
<g >
</g>
<g >
</g>
<g >
</g>
<g >
</g>
<g >
</g>
<g >
</g>
<g >
</g>
<g >
</g>
<g >
</g>
<g >
</g>
<g >
</g>
<g >
</g>
<g >
</g>
<g >
</g>
<g >
</g>
<g >
</g>
<g >
</g>
<g >
</g>
<g >
</g>
<g >
</g>
<g >
</g>
<g >
</g>
<g >
</g>
<g >
</g>
<g >
</g>
<g >
</g>
<g >
</g>
<g >
</g>
<g >
</g>
<g >
</g>
<g >
</g>
<g >
</g>
<g >
</g>
<g >
</g>
<g >
</g>
<g >
</g>
<g >
</g>
<g >
</g>
<g >
</g>
<g >
</g>
<g >
</g>
<g >
</g>
<g >
</g>
<g >
</g>
<g >
</g>
<g >
</g>
<g style="fill:#FF080E; fill-opacity:0.0; 
stroke:#FF080E; stroke-width:0.393701; stroke-opacity:1; 
stroke-linecap:round; stroke-linejoin:round;">
</g>
<g style="fill:#FF080E; fill-opacity:0.0; 
stroke:#FF080E; stroke-width:0; stroke-opacity:1; 
stroke-linecap:round; stroke-linejoin:round;">
</g>
<g style="fill:#FF080E; fill-opacity:1.0; 
stroke:#FF080E; stroke-width:0; stroke-opacity:1; 
stroke-linecap:round; stroke-linejoin:round;">
<path style="fill:#FF080E; fill-opacity:1.0; 
stroke:#FF080E; stroke-width:0; stroke-opacity:1; 
stroke-linecap:round; stroke-linejoin:round;fill-rule:evenodd;"
d="M 29126,20245
29134,20246
29142,20249
29150,20251
29158,20255
29165,20259
29172,20264
29178,20270
29184,20276
29189,20283
29193,20290
29197,20298
29200,20306
29202,20314
29203,20322
29203,20331
29203,20503
29203,20512
29202,20520
29200,20528
29197,20536
29193,20544
29189,20551
29184,20558
29178,20564
29172,20570
29165,20575
29158,20579
29150,20583
29142,20586
29134,20588
29126,20589
29117,20589
28916,20589
28907,20589
28899,20588
28891,20586
28883,20583
28875,20579
28868,20575
28861,20570
28855,20564
28849,20558
28844,20551
28840,20544
28836,20536
28833,20528
28831,20520
28830,20512
28829,20503
28829,20331
28830,20322
28831,20314
28833,20306
28836,20298
28840,20290
28844,20283
28849,20276
28855,20270
28861,20264
28868,20259
28875,20255
28883,20251
28891,20249
28899,20246
28907,20245
28916,20245
29117,20245
29126,20245
Z" /> 
<path style="fill:#FF080E; fill-opacity:1.0; 
stroke:#FF080E; stroke-width:0; stroke-opacity:1; 
stroke-linecap:round; stroke-linejoin:round;fill-rule:evenodd;"
d="M 29126,19625
29134,19626
29142,19628
29150,19631
29158,19635
29165,19639
29172,19644
29178,19650
29184,19656
29189,19663
29193,19670
29197,19678
29200,19686
29202,19694
29203,19702
29203,19711
29203,19883
29203,19892
29202,19900
29200,19908
29197,19916
29193,19924
29189,19931
29184,19938
29178,19944
29172,19950
29165,19955
29158,19959
29150,19963
29142,19966
29134,19968
29126,19969
29117,19969
28916,19969
28907,19969
28899,19968
28891,19966
28883,19963
28875,19959
28868,19955
28861,19950
28855,19944
28849,19938
28844,19931
28840,19924
28836,19916
28833,19908
28831,19900
28830,19892
28829,19883
28829,19711
28830,19702
28831,19694
28833,19686
28836,19678
28840,19670
28844,19663
28849,19656
28855,19650
28861,19644
28868,19639
28875,19635
28883,19631
28891,19628
28899,19626
28907,19625
28916,19625
29117,19625
29126,19625
Z" /> 
</g>
<g >
</g>
<g >
</g>
<g >
</g>
<g >
</g>
<g >
</g>
<g >
</g>
<g >
</g>
<g >
</g>
<g >
</g>
<g >
</g>
<g >
</g>
<g >
</g>
<g >
</g>
<g >
</g>
<g >
</g>
<g style="fill:#FF080E; fill-opacity:1.0; 
stroke:#FF080E; stroke-width:0; stroke-opacity:1; 
stroke-linecap:round; stroke-linejoin:round;">
<path style="fill:#FF080E; fill-opacity:1.0; 
stroke:#FF080E; stroke-width:0; stroke-opacity:1; 
stroke-linecap:round; stroke-linejoin:round;fill-rule:evenodd;"
d="M 16653,19700
16662,19701
16670,19703
16678,19706
16686,19710
16693,19714
16700,19719
16706,19725
16711,19731
16717,19738
16721,19745
16724,19753
16727,19761
16729,19769
16731,19777
16731,19786
16731,19987
16731,19996
16729,20004
16727,20012
16724,20020
16721,20028
16717,20035
16711,20042
16706,20048
16700,20054
16693,20059
16686,20063
16678,20067
16670,20070
16662,20072
16653,20073
16645,20074
16473,20074
16464,20073
16456,20072
16448,20070
16440,20067
16432,20063
16425,20059
16418,20054
16412,20048
16406,20042
16401,20035
16397,20028
16393,20020
16390,20012
16388,20004
16387,19996
16387,19987
16387,19786
16387,19777
16388,19769
16390,19761
16393,19753
16397,19745
16401,19738
16406,19731
16412,19725
16418,19719
16425,19714
16432,19710
16440,19706
16448,19703
16456,19701
16464,19700
16473,19700
16645,19700
16653,19700
Z" /> 
<path style="fill:#FF080E; fill-opacity:1.0; 
stroke:#FF080E; stroke-width:0; stroke-opacity:1; 
stroke-linecap:round; stroke-linejoin:round;fill-rule:evenodd;"
d="M 16033,19700
16042,19701
16050,19703
16058,19706
16065,19710
16073,19714
16079,19719
16086,19725
16091,19731
16096,19738
16101,19745
16104,19753
16107,19761
16109,19769
16111,19777
16111,19786
16111,19987
16111,19996
16109,20004
16107,20012
16104,20020
16101,20028
16096,20035
16091,20042
16086,20048
16079,20054
16073,20059
16065,20063
16058,20067
16050,20070
16042,20072
16033,20073
16025,20074
15853,20074
15844,20073
15836,20072
15828,20070
15820,20067
15812,20063
15805,20059
15798,20054
15792,20048
15786,20042
15781,20035
15777,20028
15773,20020
15770,20012
15768,20004
15767,19996
15766,19987
15766,19786
15767,19777
15768,19769
15770,19761
15773,19753
15777,19745
15781,19738
15786,19731
15792,19725
15798,19719
15805,19714
15812,19710
15820,19706
15828,19703
15836,19701
15844,19700
15853,19700
16025,19700
16033,19700
Z" /> 
</g>
<g >
</g>
<g >
</g>
<g >
</g>
<g >
</g>
<g >
</g>
<g >
</g>
<g >
</g>
<g >
</g>
<g >
</g>
<g >
</g>
<g >
</g>
<g >
</g>
<g >
</g>
<g >
</g>
<g >
</g>
<g >
</g>
<g style="fill:#FF080E; fill-opacity:1.0; 
stroke:#FF080E; stroke-width:0; stroke-opacity:1; 
stroke-linecap:round; stroke-linejoin:round;">
<path style="fill:#FF080E; fill-opacity:1.0; 
stroke:#FF080E; stroke-width:0; stroke-opacity:1; 
stroke-linecap:round; stroke-linejoin:round;fill-rule:evenodd;"
d="M 18228,20998
18237,20999
18245,21001
18253,21004
18260,21008
18268,21012
18274,21017
18281,21023
18286,21029
18291,21036
18296,21043
18299,21051
18302,21059
18304,21067
18305,21075
18306,21084
18306,21256
18305,21265
18304,21273
18302,21281
18299,21289
18296,21297
18291,21304
18286,21311
18281,21317
18274,21323
18268,21328
18260,21332
18253,21336
18245,21339
18237,21341
18228,21342
18220,21342
18018,21342
18010,21342
18001,21341
17993,21339
17985,21336
17977,21332
17970,21328
17963,21323
17957,21317
17951,21311
17946,21304
17942,21297
17938,21289
17936,21281
17933,21273
17932,21265
17932,21256
17932,21084
17932,21075
17933,21067
17936,21059
17938,21051
17942,21043
17946,21036
17951,21029
17957,21023
17963,21017
17970,21012
17977,21008
17985,21004
17993,21001
18001,20999
18010,20998
18018,20998
18220,20998
18228,20998
Z" /> 
<path style="fill:#FF080E; fill-opacity:1.0; 
stroke:#FF080E; stroke-width:0; stroke-opacity:1; 
stroke-linecap:round; stroke-linejoin:round;fill-rule:evenodd;"
d="M 18228,20378
18237,20379
18245,20381
18253,20384
18260,20388
18268,20392
18274,20397
18281,20403
18286,20409
18291,20416
18296,20423
18299,20431
18302,20439
18304,20447
18305,20455
18306,20464
18306,20636
18305,20644
18304,20653
18302,20661
18299,20669
18296,20677
18291,20684
18286,20691
18281,20697
18274,20703
18268,20708
18260,20712
18253,20716
18245,20718
18237,20721
18228,20722
18220,20722
18018,20722
18010,20722
18001,20721
17993,20718
17985,20716
17977,20712
17970,20708
17963,20703
17957,20697
17951,20691
17946,20684
17942,20677
17938,20669
17936,20661
17933,20653
17932,20644
17932,20636
17932,20464
17932,20455
17933,20447
17936,20439
17938,20431
17942,20423
17946,20416
17951,20409
17957,20403
17963,20397
17970,20392
17977,20388
17985,20384
17993,20381
18001,20379
18010,20378
18018,20378
18220,20378
18228,20378
Z" /> 
</g>
<g >
</g>
<g >
</g>
<g >
</g>
<g >
</g>
<g >
</g>
<g >
</g>
<g >
</g>
<g >
</g>
<g style="fill:#FF080E; fill-opacity:1.0; 
stroke:#FF080E; stroke-width:0; stroke-opacity:1; 
stroke-linecap:round; stroke-linejoin:round;">
<path style="fill:#FF080E; fill-opacity:1.0; 
stroke:#FF080E; stroke-width:0; stroke-opacity:1; 
stroke-linecap:round; stroke-linejoin:round;fill-rule:evenodd;"
d="M 15800,20646
15800,20331
16548,20331
16548,20646
15800,20646
Z" /> 
<path style="fill:#FF080E; fill-opacity:1.0; 
stroke:#FF080E; stroke-width:0; stroke-opacity:1; 
stroke-linecap:round; stroke-linejoin:round;fill-rule:evenodd;"
d="M 15800,21394
15800,21079
16548,21079
16548,21394
15800,21394
Z" /> 
<path style="fill:#FF080E; fill-opacity:1.0; 
stroke:#FF080E; stroke-width:0; stroke-opacity:1; 
stroke-linecap:round; stroke-linejoin:round;fill-rule:evenodd;"
d="M 16981,21020
16981,20705
17729,20705
17729,21020
16981,21020
Z" /> 
</g>
<g >
</g>
<g >
</g>
<g >
</g>
<g >
</g>
<g >
</g>
<g >
</g>
<g >
</g>
<g >
</g>
<g >
</g>
<g >
</g>
<g >
</g>
<g >
</g>
<g style="fill:#FF080E; fill-opacity:1.0; 
stroke:#FF080E; stroke-width:0; stroke-opacity:1; 
stroke-linecap:round; stroke-linejoin:round;">
<path style="fill:#FF080E; fill-opacity:1.0; 
stroke:#FF080E; stroke-width:0; stroke-opacity:1; 
stroke-linecap:round; stroke-linejoin:round;fill-rule:evenodd;"
d="M 32407,17271
32416,17272
32425,17274
32433,17278
32441,17281
32449,17286
32457,17292
32463,17298
32470,17305
32475,17312
32480,17320
32484,17328
32487,17337
32489,17346
32490,17355
32491,17364
32491,17590
32490,17599
32489,17609
32487,17617
32484,17626
32480,17634
32475,17642
32470,17650
32463,17656
32457,17663
32449,17668
32441,17673
32433,17677
32425,17680
32416,17682
32407,17683
32397,17684
32210,17684
32201,17683
32192,17682
32183,17680
32175,17677
32166,17673
32158,17668
32151,17663
32144,17656
32138,17650
32133,17642
32128,17634
32124,17626
32121,17617
32119,17609
32117,17599
32117,17590
32117,17364
32117,17355
32119,17346
32121,17337
32124,17328
32128,17320
32133,17312
32138,17305
32144,17298
32151,17292
32158,17286
32166,17281
32175,17278
32183,17274
32192,17272
32201,17271
32210,17270
32397,17270
32407,17271
Z" /> 
<path style="fill:#FF080E; fill-opacity:1.0; 
stroke:#FF080E; stroke-width:0; stroke-opacity:1; 
stroke-linecap:round; stroke-linejoin:round;fill-rule:evenodd;"
d="M 32407,17960
32416,17961
32425,17963
32433,17966
32441,17970
32449,17975
32457,17981
32463,17987
32470,17994
32475,18001
32480,18009
32484,18017
32487,18026
32489,18035
32490,18044
32491,18053
32491,18279
32490,18288
32489,18298
32487,18306
32484,18315
32480,18323
32475,18331
32470,18339
32463,18345
32457,18352
32449,18357
32441,18362
32433,18366
32425,18369
32416,18371
32407,18372
32397,18373
32210,18373
32201,18372
32192,18371
32183,18369
32175,18366
32166,18362
32158,18357
32151,18352
32144,18345
32138,18339
32133,18331
32128,18323
32124,18315
32121,18306
32119,18298
32117,18288
32117,18279
32117,18053
32117,18044
32119,18035
32121,18026
32124,18017
32128,18009
32133,18001
32138,17994
32144,17987
32151,17981
32158,17975
32166,17970
32175,17966
32183,17963
32192,17961
32201,17960
32210,17959
32397,17959
32407,17960
Z" /> 
</g>
<g >
</g>
<g >
</g>
<g >
</g>
<g >
</g>
<g >
</g>
<g >
</g>
<g >
</g>
<g >
</g>
<g >
</g>
<g >
</g>
<g >
</g>
<g >
</g>
<g >
</g>
<g >
</g>
<g >
</g>
<g >
</g>
<g >
</g>
<g >
</g>
<g >
</g>
<g >
</g>
<g >
</g>
<g >
</g>
<g >
</g>
<g >
</g>
<g >
</g>
<g >
</g>
<g >
</g>
<g >
</g>
<g >
</g>
<g >
</g>
<g >
</g>
<g >
</g>
<g >
</g>
<g >
</g>
<g >
</g>
<g >
</g>
<g >
</g>
<g >
</g>
<g >
</g>
<g >
</g>
<g >
</g>
<g >
</g>
<g >
</g>
<g >
</g>
<g >
</g>
<g >
</g>
<g >
</g>
<g >
</g>
</g>
<g style="fill:#000000; fill-opacity:1.0; 
stroke:#000000; stroke-width:0; stroke-opacity:1; 
stroke-linecap:round; stroke-linejoin:round;">
</g>
<g style="fill:#C2C200; fill-opacity:1.0; 
stroke:#C2C200; stroke-width:0; stroke-opacity:1; 
stroke-linecap:round; stroke-linejoin:round;">
</g>
<g style="fill:#C2C200; fill-opacity:0.0; 
stroke:#C2C200; stroke-width:0.393701; stroke-opacity:1; 
stroke-linecap:round; stroke-linejoin:round;">
<path d="M33367.4 11616.3 A393.701 393.701 0.0 1 0 34154.8 11617 " />
<path d="M34154.8 24517 A393.701 393.701 0.0 1 0 33367.4 24517.7 " />
</g>
<g style="fill:#C2C200; fill-opacity:0.0; 
stroke:#C2C200; stroke-width:59.0551; stroke-opacity:1; 
stroke-linecap:round; stroke-linejoin:round;">
<path d="M33282 24602
L33367 24516
" />
<path d="M33292 11540
L33367 11616
" />
<path d="M5934 16737
L5934 26516
" />
<path d="M5934 5516
L5934 6849
" />
<path d="M5934 6849
L5934 16737
" />
<path d="M5934 26516
L32367 26516
" />
<path d="M33292 11540
L32367 10616
" />
<path d="M32367 6116
L31767 5516
" />
<path d="M32367 25516
L33282 24602
" />
<path d="M32367 26516
L32367 25516
" />
<path d="M32367 10616
L32367 6116
" />
<path d="M31767 5516
L5934 5516
" />
</g>
<g style="fill:#C2C200; fill-opacity:0.0; 
stroke:#C2C200; stroke-width:0.393701; stroke-opacity:1; 
stroke-linecap:round; stroke-linejoin:round;">
<path d="M34199.7 5380.87 A908.735 908.735 0.0 0 0 34864.3 5335.89 " />
<path d="M34154.8 6045.29 A908.798 908.798 0.0 0 0 34199.7 5380.66 " />
<path d="M43327 22843
L43327 25807
" />
<path d="M41387 20875
L41387 22843
" />
<path d="M41387 20875
L43327 20875
" />
<path d="M41387 22843
L43327 22843
" />
<path d="M34864 5335
L42618 5335
" />
<path d="M42618 26516
L34864 26516
" />
<path d="M34154 24516
L34154 25807
" />
<path d="M34154 6045
L34154 11617
" />
<path d="M43327 6045
L43327 20875
" />
<path d="M34199.8 26472 A908.735 908.735 0.0 0 0 34154.8 25807.4 " />
<path d="M34864.2 26516.9 A908.798 908.798 0.0 0 0 34199.6 26472 " />
<path d="M43328 25807.5 A908.798 908.798 0.0 0 0 43283 26472.1 " />
<path d="M43283.1 26471.9 A908.735 908.735 0.0 0 0 42618.5 26516.9 " />
<path d="M43283 5380.76 A908.735 908.735 0.0 0 0 43327.9 6045.34 " />
<path d="M42618.5 5335.84 A908.798 908.798 0.0 0 0 43283.2 5380.82 " />
<g >
</g>
<g >
</g>
<g >
</g>
<g >
</g>
<g >
</g>
<g >
</g>
<g >
</g>
<g >
</g>
<g >
</g>
<g >
</g>
<g >
</g>
<g >
</g>
<g >
</g>
<g >
</g>
<g >
</g>
<g >
</g>
<g >
</g>
<g >
</g>
<g >
</g>
<g >
</g>
<g >
</g>
<g >
</g>
<g >
</g>
<g >
</g>
<g >
</g>
<g >
</g>
<g >
</g>
<g >
</g>
<g >
</g>
<g >
</g>
<g >
</g>
<g >
</g>
<g >
</g>
<g >
</g>
<g >
</g>
<g >
</g>
<g >
</g>
<g >
</g>
<g >
</g>
<g >
</g>
<g >
</g>
<g >
</g>
<g >
</g>
<g >
</g>
<g >
</g>
<g >
</g>
<g >
</g>
<g >
</g>
<g >
</g>
<g >
</g>
<g >
</g>
<g >
</g>
<g >
</g>
<g >
</g>
<g >
</g>
<g >
</g>
<g >
</g>
<g >
</g>
<g >
</g>
<g >
</g>
<g >
</g>
<g >
</g>
<g >
</g>
<g >
</g>
<g >
</g>
<g >
</g>
<g >
</g>
<g >
</g>
<g >
</g>
<g >
</g>
<g >
</g>
<g >
</g>
<g >
</g>
<g >
</g>
<g >
</g>
<g >
</g>
<g >
</g>
<g >
</g>
<g >
</g>
<g >
</g>
<g >
</g>
<g >
</g>
<g >
</g>
<g >
</g>
<g >
</g>
<g >
</g>
<g >
</g>
<g >
</g>
<g >
</g>
<g >
</g>
<g >
</g>
<g >
</g>
<g >
</g>
<g >
</g>
<g >
</g>
<g >
</g>
<g >
</g>
<g >
</g>
<g >
</g>
<g >
</g>
<g >
</g>
<g >
</g>
<g >
</g>
<g >
</g>
<g >
</g>
<g >
</g>
<g >
</g>
<g >
</g>
<g >
</g>
<g >
</g>
<g >
</g>
<g >
</g>
<g >
</g>
<g >
</g>
<g >
</g>
<g >
</g>
<g >
</g>
<g >
</g>
<g >
</g>
<g >
</g>
<g >
</g>
<g >
</g>
<g >
</g>
<g >
</g>
<g >
</g>
<g >
</g>
<g >
</g>
<g >
</g>
<g >
</g>
<g >
</g>
<g >
</g>
<g >
</g>
<g >
</g>
<g >
</g>
<g >
</g>
<g >
</g>
<g >
</g>
<g >
</g>
<g >
</g>
<g >
</g>
<g >
</g>
<g >
</g>
<g >
</g>
<g >
</g>
<g >
</g>
<g >
</g>
<g >
</g>
<g >
</g>
<g >
</g>
<g >
</g>
<g >
</g>
<g >
</g>
<g >
</g>
<g >
</g>
<g >
</g>
<g >
</g>
<g >
</g>
<g >
</g>
<g >
</g>
<g >
</g>
<g >
</g>
<g >
</g>
<g >
</g>
<g >
</g>
<g >
</g>
<g >
</g>
<g >
</g>
<g >
</g>
<g >
</g>
<g >
</g>
<g >
</g>
<g >
</g>
<g >
</g>
<g >
</g>
<g >
</g>
<g >
</g>
<g >
</g>
<g >
</g>
<g >
</g>
<g >
</g>
<g >
</g>
<g >
</g>
</g> 
</svg>
