<?xml version="1.0" standalone="no"?>
 <!DOCTYPE svg PUBLIC "-//W3C//DTD SVG 1.1//EN" 
 "http://www.w3.org/Graphics/SVG/1.1/DTD/svg11.dtd"> 
<svg xmlns="http://www.w3.org/2000/svg" version="1.1" 
    width="12.6924cm" height="13.2232cm" viewBox="0 0 49970 52060 ">
<title>SVG Picture created as uno shield v1.0 project SMD with aux board-B_Paste.svg date 2020/03/10 06:25:49 </title>
  <desc>Picture generated by PCBNEW </desc>
<g style="fill:#000000; fill-opacity:1;stroke:#000000; stroke-opacity:1;
stroke-linecap:round; stroke-linejoin:round; "
 transform="translate(0 0) scale(1 1)">
</g>
<g style="fill:#000000; fill-opacity:0.0; 
stroke:#000000; stroke-width:-0.000393701; stroke-opacity:1; 
stroke-linecap:round; stroke-linejoin:round;">
</g>
<g style="fill:#0B00C2; fill-opacity:0.0; 
stroke:#0B00C2; stroke-width:-0.000393701; stroke-opacity:1; 
stroke-linecap:round; stroke-linejoin:round;">
</g>
<g style="fill:#0B00C2; fill-opacity:0.0; 
stroke:#0B00C2; stroke-width:0.393701; stroke-opacity:1; 
stroke-linecap:round; stroke-linejoin:round;">
<circle cx="31367.3" cy="6516.97" r="196.85" /> 
<circle cx="31367.4" cy="25517" r="196.85" /> 
<circle cx="9591.64" cy="6234" r="196.85" /> 
</g>
<g style="fill:#0B00C2; fill-opacity:0.0; 
stroke:#0B00C2; stroke-width:393.701; stroke-opacity:1; 
stroke-linecap:round; stroke-linejoin:round;">
</g>
<g style="fill:#0B00C2; fill-opacity:1.0; 
stroke:#0B00C2; stroke-width:0; stroke-opacity:1; 
stroke-linecap:round; stroke-linejoin:round;">
<circle cx="15247.9" cy="11072.7" r="247.869" /> 
</g>
<g style="fill:#0B00C2; fill-opacity:0.0; 
stroke:#0B00C2; stroke-width:393.701; stroke-opacity:1; 
stroke-linecap:round; stroke-linejoin:round;">
</g>
<g style="fill:#0B00C2; fill-opacity:1.0; 
stroke:#0B00C2; stroke-width:0; stroke-opacity:1; 
stroke-linecap:round; stroke-linejoin:round;">
<circle cx="15736.1" cy="10364" r="247.869" /> 
</g>
<g style="fill:#0B00C2; fill-opacity:0.0; 
stroke:#0B00C2; stroke-width:393.701; stroke-opacity:1; 
stroke-linecap:round; stroke-linejoin:round;">
</g>
<g style="fill:#0B00C2; fill-opacity:1.0; 
stroke:#0B00C2; stroke-width:0; stroke-opacity:1; 
stroke-linecap:round; stroke-linejoin:round;">
<circle cx="18801.1" cy="14395" r="247.869" /> 
</g>
<g style="fill:#0B00C2; fill-opacity:0.0; 
stroke:#0B00C2; stroke-width:393.701; stroke-opacity:1; 
stroke-linecap:round; stroke-linejoin:round;">
</g>
<g style="fill:#0B00C2; fill-opacity:1.0; 
stroke:#0B00C2; stroke-width:0; stroke-opacity:1; 
stroke-linecap:round; stroke-linejoin:round;">
<circle cx="28987.8" cy="19299.9" r="247.869" /> 
</g>
<g style="fill:#0B00C2; fill-opacity:0.0; 
stroke:#0B00C2; stroke-width:393.701; stroke-opacity:1; 
stroke-linecap:round; stroke-linejoin:round;">
</g>
<g style="fill:#0B00C2; fill-opacity:1.0; 
stroke:#0B00C2; stroke-width:0; stroke-opacity:1; 
stroke-linecap:round; stroke-linejoin:round;">
<circle cx="28602.4" cy="19298.6" r="247.869" /> 
</g>
<g style="fill:#0B00C2; fill-opacity:0.0; 
stroke:#0B00C2; stroke-width:393.701; stroke-opacity:1; 
stroke-linecap:round; stroke-linejoin:round;">
</g>
<g style="fill:#0B00C2; fill-opacity:1.0; 
stroke:#0B00C2; stroke-width:0; stroke-opacity:1; 
stroke-linecap:round; stroke-linejoin:round;">
<circle cx="27897.2" cy="19300.5" r="247.869" /> 
</g>
<g style="fill:#0B00C2; fill-opacity:0.0; 
stroke:#0B00C2; stroke-width:393.701; stroke-opacity:1; 
stroke-linecap:round; stroke-linejoin:round;">
</g>
<g style="fill:#0B00C2; fill-opacity:1.0; 
stroke:#0B00C2; stroke-width:0; stroke-opacity:1; 
stroke-linecap:round; stroke-linejoin:round;">
<circle cx="24725.3" cy="19302.8" r="247.869" /> 
</g>
<g style="fill:#0B00C2; fill-opacity:0.0; 
stroke:#0B00C2; stroke-width:393.701; stroke-opacity:1; 
stroke-linecap:round; stroke-linejoin:round;">
</g>
<g style="fill:#0B00C2; fill-opacity:1.0; 
stroke:#0B00C2; stroke-width:0; stroke-opacity:1; 
stroke-linecap:round; stroke-linejoin:round;">
<circle cx="23129.3" cy="19304.8" r="247.869" /> 
</g>
<g style="fill:#0B00C2; fill-opacity:0.0; 
stroke:#0B00C2; stroke-width:393.701; stroke-opacity:1; 
stroke-linecap:round; stroke-linejoin:round;">
</g>
<g style="fill:#0B00C2; fill-opacity:1.0; 
stroke:#0B00C2; stroke-width:0; stroke-opacity:1; 
stroke-linecap:round; stroke-linejoin:round;">
<circle cx="22541.1" cy="19303.4" r="247.869" /> 
</g>
<g style="fill:#0B00C2; fill-opacity:0.0; 
stroke:#0B00C2; stroke-width:393.701; stroke-opacity:1; 
stroke-linecap:round; stroke-linejoin:round;">
</g>
<g style="fill:#0B00C2; fill-opacity:1.0; 
stroke:#0B00C2; stroke-width:0; stroke-opacity:1; 
stroke-linecap:round; stroke-linejoin:round;">
<circle cx="22208.9" cy="19303.4" r="247.869" /> 
</g>
<g style="fill:#0B00C2; fill-opacity:0.0; 
stroke:#0B00C2; stroke-width:393.701; stroke-opacity:1; 
stroke-linecap:round; stroke-linejoin:round;">
</g>
<g style="fill:#0B00C2; fill-opacity:1.0; 
stroke:#0B00C2; stroke-width:0; stroke-opacity:1; 
stroke-linecap:round; stroke-linejoin:round;">
<circle cx="21636.4" cy="19300.8" r="247.869" /> 
</g>
<g style="fill:#0B00C2; fill-opacity:0.0; 
stroke:#0B00C2; stroke-width:393.701; stroke-opacity:1; 
stroke-linecap:round; stroke-linejoin:round;">
</g>
<g style="fill:#0B00C2; fill-opacity:1.0; 
stroke:#0B00C2; stroke-width:0; stroke-opacity:1; 
stroke-linecap:round; stroke-linejoin:round;">
<circle cx="21135.1" cy="19300.7" r="247.869" /> 
</g>
<g style="fill:#0B00C2; fill-opacity:0.0; 
stroke:#0B00C2; stroke-width:393.701; stroke-opacity:1; 
stroke-linecap:round; stroke-linejoin:round;">
</g>
<g style="fill:#0B00C2; fill-opacity:1.0; 
stroke:#0B00C2; stroke-width:0; stroke-opacity:1; 
stroke-linecap:round; stroke-linejoin:round;">
<circle cx="12849.3" cy="19534" r="247.869" /> 
</g>
<g style="fill:#0B00C2; fill-opacity:0.0; 
stroke:#0B00C2; stroke-width:393.701; stroke-opacity:1; 
stroke-linecap:round; stroke-linejoin:round;">
</g>
<g style="fill:#0B00C2; fill-opacity:1.0; 
stroke:#0B00C2; stroke-width:0; stroke-opacity:1; 
stroke-linecap:round; stroke-linejoin:round;">
<circle cx="13906.5" cy="20034.8" r="247.869" /> 
</g>
<g style="fill:#0B00C2; fill-opacity:0.0; 
stroke:#0B00C2; stroke-width:393.701; stroke-opacity:1; 
stroke-linecap:round; stroke-linejoin:round;">
</g>
<g style="fill:#0B00C2; fill-opacity:1.0; 
stroke:#0B00C2; stroke-width:0; stroke-opacity:1; 
stroke-linecap:round; stroke-linejoin:round;">
<circle cx="13868.1" cy="20561.2" r="247.869" /> 
</g>
<g style="fill:#0B00C2; fill-opacity:0.0; 
stroke:#0B00C2; stroke-width:393.701; stroke-opacity:1; 
stroke-linecap:round; stroke-linejoin:round;">
</g>
<g style="fill:#0B00C2; fill-opacity:1.0; 
stroke:#0B00C2; stroke-width:0; stroke-opacity:1; 
stroke-linecap:round; stroke-linejoin:round;">
<circle cx="13638.9" cy="20779.8" r="247.869" /> 
</g>
<g style="fill:#0B00C2; fill-opacity:0.0; 
stroke:#0B00C2; stroke-width:393.701; stroke-opacity:1; 
stroke-linecap:round; stroke-linejoin:round;">
</g>
<g style="fill:#0B00C2; fill-opacity:1.0; 
stroke:#0B00C2; stroke-width:0; stroke-opacity:1; 
stroke-linecap:round; stroke-linejoin:round;">
<circle cx="14390.1" cy="19344.4" r="247.869" /> 
</g>
<g style="fill:#0B00C2; fill-opacity:0.0; 
stroke:#0B00C2; stroke-width:393.701; stroke-opacity:1; 
stroke-linecap:round; stroke-linejoin:round;">
</g>
<g style="fill:#0B00C2; fill-opacity:1.0; 
stroke:#0B00C2; stroke-width:0; stroke-opacity:1; 
stroke-linecap:round; stroke-linejoin:round;">
<circle cx="16011.6" cy="19698.1" r="247.869" /> 
</g>
<g style="fill:#0B00C2; fill-opacity:0.0; 
stroke:#0B00C2; stroke-width:393.701; stroke-opacity:1; 
stroke-linecap:round; stroke-linejoin:round;">
</g>
<g style="fill:#0B00C2; fill-opacity:1.0; 
stroke:#0B00C2; stroke-width:0; stroke-opacity:1; 
stroke-linecap:round; stroke-linejoin:round;">
<circle cx="17397.9" cy="20199.8" r="247.869" /> 
</g>
<g style="fill:#0B00C2; fill-opacity:0.0; 
stroke:#0B00C2; stroke-width:393.701; stroke-opacity:1; 
stroke-linecap:round; stroke-linejoin:round;">
</g>
<g style="fill:#0B00C2; fill-opacity:1.0; 
stroke:#0B00C2; stroke-width:0; stroke-opacity:1; 
stroke-linecap:round; stroke-linejoin:round;">
<circle cx="15854" cy="21330.7" r="247.869" /> 
</g>
<g style="fill:#0B00C2; fill-opacity:0.0; 
stroke:#0B00C2; stroke-width:393.701; stroke-opacity:1; 
stroke-linecap:round; stroke-linejoin:round;">
</g>
<g style="fill:#0B00C2; fill-opacity:1.0; 
stroke:#0B00C2; stroke-width:0; stroke-opacity:1; 
stroke-linecap:round; stroke-linejoin:round;">
<circle cx="16966" cy="21251" r="247.869" /> 
</g>
<g style="fill:#0B00C2; fill-opacity:0.0; 
stroke:#0B00C2; stroke-width:393.701; stroke-opacity:1; 
stroke-linecap:round; stroke-linejoin:round;">
</g>
<g style="fill:#0B00C2; fill-opacity:1.0; 
stroke:#0B00C2; stroke-width:0; stroke-opacity:1; 
stroke-linecap:round; stroke-linejoin:round;">
<circle cx="15631.5" cy="22012.2" r="247.869" /> 
</g>
<g style="fill:#0B00C2; fill-opacity:0.0; 
stroke:#0B00C2; stroke-width:393.701; stroke-opacity:1; 
stroke-linecap:round; stroke-linejoin:round;">
</g>
<g style="fill:#0B00C2; fill-opacity:1.0; 
stroke:#0B00C2; stroke-width:0; stroke-opacity:1; 
stroke-linecap:round; stroke-linejoin:round;">
<circle cx="16073.3" cy="22221.3" r="247.869" /> 
</g>
<g style="fill:#0B00C2; fill-opacity:0.0; 
stroke:#0B00C2; stroke-width:393.701; stroke-opacity:1; 
stroke-linecap:round; stroke-linejoin:round;">
</g>
<g style="fill:#0B00C2; fill-opacity:1.0; 
stroke:#0B00C2; stroke-width:0; stroke-opacity:1; 
stroke-linecap:round; stroke-linejoin:round;">
<circle cx="14789.7" cy="22245.2" r="247.869" /> 
</g>
<g style="fill:#0B00C2; fill-opacity:0.0; 
stroke:#0B00C2; stroke-width:393.701; stroke-opacity:1; 
stroke-linecap:round; stroke-linejoin:round;">
</g>
<g style="fill:#0B00C2; fill-opacity:1.0; 
stroke:#0B00C2; stroke-width:0; stroke-opacity:1; 
stroke-linecap:round; stroke-linejoin:round;">
<circle cx="12690.1" cy="22168.4" r="247.869" /> 
</g>
<g style="fill:#0B00C2; fill-opacity:0.0; 
stroke:#0B00C2; stroke-width:393.701; stroke-opacity:1; 
stroke-linecap:round; stroke-linejoin:round;">
</g>
<g style="fill:#0B00C2; fill-opacity:1.0; 
stroke:#0B00C2; stroke-width:0; stroke-opacity:1; 
stroke-linecap:round; stroke-linejoin:round;">
<circle cx="10084.3" cy="19558.2" r="247.869" /> 
</g>
<g style="fill:#0B00C2; fill-opacity:0.0; 
stroke:#0B00C2; stroke-width:393.701; stroke-opacity:1; 
stroke-linecap:round; stroke-linejoin:round;">
</g>
<g style="fill:#0B00C2; fill-opacity:1.0; 
stroke:#0B00C2; stroke-width:0; stroke-opacity:1; 
stroke-linecap:round; stroke-linejoin:round;">
<circle cx="10509.1" cy="10981.5" r="247.869" /> 
</g>
<g style="fill:#0B00C2; fill-opacity:0.0; 
stroke:#0B00C2; stroke-width:393.701; stroke-opacity:1; 
stroke-linecap:round; stroke-linejoin:round;">
</g>
<g style="fill:#0B00C2; fill-opacity:1.0; 
stroke:#0B00C2; stroke-width:0; stroke-opacity:1; 
stroke-linecap:round; stroke-linejoin:round;">
<circle cx="11385" cy="10013.5" r="247.869" /> 
</g>
<g style="fill:#0B00C2; fill-opacity:0.0; 
stroke:#0B00C2; stroke-width:393.701; stroke-opacity:1; 
stroke-linecap:round; stroke-linejoin:round;">
</g>
<g style="fill:#0B00C2; fill-opacity:1.0; 
stroke:#0B00C2; stroke-width:0; stroke-opacity:1; 
stroke-linecap:round; stroke-linejoin:round;">
<circle cx="12261.1" cy="9851.61" r="247.869" /> 
</g>
<g style="fill:#0B00C2; fill-opacity:0.0; 
stroke:#0B00C2; stroke-width:393.701; stroke-opacity:1; 
stroke-linecap:round; stroke-linejoin:round;">
</g>
<g style="fill:#0B00C2; fill-opacity:1.0; 
stroke:#0B00C2; stroke-width:0; stroke-opacity:1; 
stroke-linecap:round; stroke-linejoin:round;">
<circle cx="16480.2" cy="10147.5" r="247.869" /> 
</g>
<g style="fill:#0B00C2; fill-opacity:0.0; 
stroke:#0B00C2; stroke-width:393.701; stroke-opacity:1; 
stroke-linecap:round; stroke-linejoin:round;">
</g>
<g style="fill:#0B00C2; fill-opacity:1.0; 
stroke:#0B00C2; stroke-width:0; stroke-opacity:1; 
stroke-linecap:round; stroke-linejoin:round;">
<circle cx="14672" cy="10396" r="247.869" /> 
</g>
<g style="fill:#0B00C2; fill-opacity:0.0; 
stroke:#0B00C2; stroke-width:393.701; stroke-opacity:1; 
stroke-linecap:round; stroke-linejoin:round;">
</g>
<g style="fill:#0B00C2; fill-opacity:1.0; 
stroke:#0B00C2; stroke-width:0; stroke-opacity:1; 
stroke-linecap:round; stroke-linejoin:round;">
<circle cx="18851.8" cy="12463.6" r="247.869" /> 
</g>
<g style="fill:#0B00C2; fill-opacity:0.0; 
stroke:#0B00C2; stroke-width:393.701; stroke-opacity:1; 
stroke-linecap:round; stroke-linejoin:round;">
</g>
<g style="fill:#0B00C2; fill-opacity:1.0; 
stroke:#0B00C2; stroke-width:0; stroke-opacity:1; 
stroke-linecap:round; stroke-linejoin:round;">
<circle cx="19146.9" cy="12036.7" r="247.869" /> 
</g>
<g style="fill:#0B00C2; fill-opacity:0.0; 
stroke:#0B00C2; stroke-width:393.701; stroke-opacity:1; 
stroke-linecap:round; stroke-linejoin:round;">
</g>
<g style="fill:#0B00C2; fill-opacity:1.0; 
stroke:#0B00C2; stroke-width:0; stroke-opacity:1; 
stroke-linecap:round; stroke-linejoin:round;">
<circle cx="22633.1" cy="10894.6" r="247.869" /> 
</g>
<g style="fill:#0B00C2; fill-opacity:0.0; 
stroke:#0B00C2; stroke-width:393.701; stroke-opacity:1; 
stroke-linecap:round; stroke-linejoin:round;">
</g>
<g style="fill:#0B00C2; fill-opacity:1.0; 
stroke:#0B00C2; stroke-width:0; stroke-opacity:1; 
stroke-linecap:round; stroke-linejoin:round;">
<circle cx="23568.3" cy="9961.48" r="247.869" /> 
</g>
<g style="fill:#0B00C2; fill-opacity:0.0; 
stroke:#0B00C2; stroke-width:393.701; stroke-opacity:1; 
stroke-linecap:round; stroke-linejoin:round;">
</g>
<g style="fill:#0B00C2; fill-opacity:1.0; 
stroke:#0B00C2; stroke-width:0; stroke-opacity:1; 
stroke-linecap:round; stroke-linejoin:round;">
<circle cx="24371.7" cy="10065.7" r="247.869" /> 
</g>
<g style="fill:#0B00C2; fill-opacity:0.0; 
stroke:#0B00C2; stroke-width:393.701; stroke-opacity:1; 
stroke-linecap:round; stroke-linejoin:round;">
</g>
<g style="fill:#0B00C2; fill-opacity:1.0; 
stroke:#0B00C2; stroke-width:0; stroke-opacity:1; 
stroke-linecap:round; stroke-linejoin:round;">
<circle cx="23687.6" cy="10923.1" r="247.869" /> 
</g>
<g style="fill:#0B00C2; fill-opacity:0.0; 
stroke:#0B00C2; stroke-width:393.701; stroke-opacity:1; 
stroke-linecap:round; stroke-linejoin:round;">
</g>
<g style="fill:#0B00C2; fill-opacity:1.0; 
stroke:#0B00C2; stroke-width:0; stroke-opacity:1; 
stroke-linecap:round; stroke-linejoin:round;">
<circle cx="27084.9" cy="10776.8" r="247.869" /> 
</g>
<g style="fill:#0B00C2; fill-opacity:0.0; 
stroke:#0B00C2; stroke-width:393.701; stroke-opacity:1; 
stroke-linecap:round; stroke-linejoin:round;">
</g>
<g style="fill:#0B00C2; fill-opacity:1.0; 
stroke:#0B00C2; stroke-width:0; stroke-opacity:1; 
stroke-linecap:round; stroke-linejoin:round;">
<circle cx="25804.4" cy="10540.6" r="247.869" /> 
</g>
<g style="fill:#0B00C2; fill-opacity:0.0; 
stroke:#0B00C2; stroke-width:393.701; stroke-opacity:1; 
stroke-linecap:round; stroke-linejoin:round;">
</g>
<g style="fill:#0B00C2; fill-opacity:1.0; 
stroke:#0B00C2; stroke-width:0; stroke-opacity:1; 
stroke-linecap:round; stroke-linejoin:round;">
<circle cx="29854.9" cy="10909" r="247.869" /> 
</g>
<g style="fill:#0B00C2; fill-opacity:0.0; 
stroke:#0B00C2; stroke-width:393.701; stroke-opacity:1; 
stroke-linecap:round; stroke-linejoin:round;">
</g>
<g style="fill:#0B00C2; fill-opacity:1.0; 
stroke:#0B00C2; stroke-width:0; stroke-opacity:1; 
stroke-linecap:round; stroke-linejoin:round;">
<circle cx="29809.6" cy="10255.2" r="247.869" /> 
</g>
<g style="fill:#0B00C2; fill-opacity:1.0; 
stroke:#0B00C2; stroke-width:0.393701; stroke-opacity:1; 
stroke-linecap:round; stroke-linejoin:round;">
<path style="fill:#0B00C2; fill-opacity:1.0; 
stroke:#0B00C2; stroke-width:0.393701; stroke-opacity:1; 
stroke-linecap:round; stroke-linejoin:round;fill-rule:evenodd;"
d="M 12666,19162
12666,18666
12894,18666
12894,19162
Z" /> 
<g >
</g>
<g >
</g>
<g >
</g>
<g >
</g>
<g >
</g>
<g >
</g>
<g >
</g>
<g >
</g>
<g >
</g>
<g style="fill:#008400; fill-opacity:1.0; 
stroke:#008400; stroke-width:0.393701; stroke-opacity:1; 
stroke-linecap:round; stroke-linejoin:round;">
</g>
<g style="fill:#008400; fill-opacity:1.0; 
stroke:#008400; stroke-width:0; stroke-opacity:1; 
stroke-linecap:round; stroke-linejoin:round;">
<path style="fill:#008400; fill-opacity:1.0; 
stroke:#008400; stroke-width:0; stroke-opacity:1; 
stroke-linecap:round; stroke-linejoin:round;fill-rule:evenodd;"
d="M 17196,12562
17205,12564
17214,12566
17223,12569
17231,12573
17239,12578
17246,12583
17253,12589
17259,12596
17264,12603
17269,12611
17273,12619
17276,12628
17278,12637
17280,12646
17280,12655
17280,12842
17280,12851
17278,12860
17276,12869
17273,12878
17269,12886
17264,12894
17259,12902
17253,12908
17246,12915
17239,12920
17231,12925
17223,12929
17214,12932
17205,12934
17196,12935
17187,12936
16960,12936
16951,12935
16942,12934
16933,12932
16925,12929
16916,12925
16908,12920
16901,12915
16894,12908
16888,12902
16883,12894
16878,12886
16874,12878
16871,12869
16869,12860
16867,12851
16867,12842
16867,12655
16867,12646
16869,12637
16871,12628
16874,12619
16878,12611
16883,12603
16888,12596
16894,12589
16901,12583
16908,12578
16916,12573
16925,12569
16933,12566
16942,12564
16951,12562
16960,12562
17187,12562
17196,12562
Z" /> 
<path style="fill:#008400; fill-opacity:1.0; 
stroke:#008400; stroke-width:0; stroke-opacity:1; 
stroke-linecap:round; stroke-linejoin:round;fill-rule:evenodd;"
d="M 16507,12562
16516,12564
16525,12566
16534,12569
16542,12573
16550,12578
16557,12583
16564,12589
16570,12596
16576,12603
16580,12611
16584,12619
16587,12628
16589,12637
16591,12646
16591,12655
16591,12842
16591,12851
16589,12860
16587,12869
16584,12878
16580,12886
16576,12894
16570,12902
16564,12908
16557,12915
16550,12920
16542,12925
16534,12929
16525,12932
16516,12934
16507,12935
16498,12936
16271,12936
16262,12935
16253,12934
16244,12932
16236,12929
16227,12925
16219,12920
16212,12915
16205,12908
16199,12902
16194,12894
16189,12886
16185,12878
16182,12869
16180,12860
16178,12851
16178,12842
16178,12655
16178,12646
16180,12637
16182,12628
16185,12619
16189,12611
16194,12603
16199,12596
16205,12589
16212,12583
16219,12578
16227,12573
16236,12569
16244,12566
16253,12564
16262,12562
16271,12562
16498,12562
16507,12562
Z" /> 
</g>
<g >
</g>
<g style="fill:#008400; fill-opacity:1.0; 
stroke:#008400; stroke-width:0; stroke-opacity:1; 
stroke-linecap:round; stroke-linejoin:round;">
<path style="fill:#008400; fill-opacity:1.0; 
stroke:#008400; stroke-width:0; stroke-opacity:1; 
stroke-linecap:round; stroke-linejoin:round;fill-rule:evenodd;"
d="M 16601,14680
16610,14682
16619,14684
16628,14687
16636,14691
16644,14696
16652,14701
16658,14707
16665,14714
16670,14721
16675,14729
16679,14738
16682,14746
16684,14755
16685,14764
16686,14773
16686,14960
16685,14970
16684,14979
16682,14988
16679,14996
16675,15004
16670,15012
16665,15020
16658,15026
16652,15033
16644,15038
16636,15043
16628,15047
16619,15050
16610,15052
16601,15053
16592,15054
16366,15054
16357,15053
16348,15052
16339,15050
16330,15047
16322,15043
16314,15038
16307,15033
16300,15026
16294,15020
16288,15012
16283,15004
16279,14996
16276,14988
16274,14979
16273,14970
16272,14960
16272,14773
16273,14764
16274,14755
16276,14746
16279,14738
16283,14729
16288,14721
16294,14714
16300,14707
16307,14701
16314,14696
16322,14691
16330,14687
16339,14684
16348,14682
16357,14680
16366,14680
16592,14680
16601,14680
Z" /> 
<path style="fill:#008400; fill-opacity:1.0; 
stroke:#008400; stroke-width:0; stroke-opacity:1; 
stroke-linecap:round; stroke-linejoin:round;fill-rule:evenodd;"
d="M 17290,14680
17299,14682
17308,14684
17317,14687
17325,14691
17333,14696
17341,14701
17347,14707
17354,14714
17359,14721
17364,14729
17368,14738
17371,14746
17373,14755
17374,14764
17375,14773
17375,14960
17374,14970
17373,14979
17371,14988
17368,14996
17364,15004
17359,15012
17354,15020
17347,15026
17341,15033
17333,15038
17325,15043
17317,15047
17308,15050
17299,15052
17290,15053
17281,15054
17055,15054
17046,15053
17037,15052
17028,15050
17019,15047
17011,15043
17003,15038
16996,15033
16989,15026
16983,15020
16977,15012
16972,15004
16968,14996
16965,14988
16963,14979
16962,14970
16961,14960
16961,14773
16962,14764
16963,14755
16965,14746
16968,14738
16972,14729
16977,14721
16983,14714
16989,14707
16996,14701
17003,14696
17011,14691
17019,14687
17028,14684
17037,14682
17046,14680
17055,14680
17281,14680
17290,14680
Z" /> 
</g>
<g >
</g>
<g style="fill:#008400; fill-opacity:1.0; 
stroke:#008400; stroke-width:0; stroke-opacity:1; 
stroke-linecap:round; stroke-linejoin:round;">
</g>
<g style="fill:#008400; fill-opacity:1.0; 
stroke:#008400; stroke-width:590.551; stroke-opacity:1; 
stroke-linecap:round; stroke-linejoin:round;">
</g>
<g style="fill:#008400; fill-opacity:0.0; 
stroke:#008400; stroke-width:590.551; stroke-opacity:1; 
stroke-linecap:round; stroke-linejoin:round;">
<path d="M29639 16257
L28654 16257
" />
</g>
<g style="fill:#008400; fill-opacity:0.0; 
stroke:#008400; stroke-width:0; stroke-opacity:1; 
stroke-linecap:round; stroke-linejoin:round;">
</g>
<g style="fill:#008400; fill-opacity:1.0; 
stroke:#008400; stroke-width:0; stroke-opacity:1; 
stroke-linecap:round; stroke-linejoin:round;">
<path style="fill:#008400; fill-opacity:1.0; 
stroke:#008400; stroke-width:0; stroke-opacity:1; 
stroke-linecap:round; stroke-linejoin:round;fill-rule:evenodd;"
d="M 27851,17552
26473,17552
26473,16961
27851,16961
27851,17552
Z" /> 
</g>
<g style="fill:#008400; fill-opacity:1.0; 
stroke:#008400; stroke-width:590.551; stroke-opacity:1; 
stroke-linecap:round; stroke-linejoin:round;">
</g>
<g style="fill:#008400; fill-opacity:0.0; 
stroke:#008400; stroke-width:590.551; stroke-opacity:1; 
stroke-linecap:round; stroke-linejoin:round;">
<path d="M26631 15257
L27615 15257
" />
</g>
<g >
</g>
<g >
</g>
<g >
</g>
<g >
</g>
<g >
</g>
<g >
</g>
<g >
</g>
<g >
</g>
<g >
</g>
<g >
</g>
<g style="fill:#008400; fill-opacity:0.0; 
stroke:#008400; stroke-width:590.551; stroke-opacity:1; 
stroke-linecap:round; stroke-linejoin:round;">
<path d="M10379 13887
L11363 13887
" />
</g>
<g style="fill:#008400; fill-opacity:0.0; 
stroke:#008400; stroke-width:0; stroke-opacity:1; 
stroke-linecap:round; stroke-linejoin:round;">
</g>
<g style="fill:#008400; fill-opacity:1.0; 
stroke:#008400; stroke-width:0; stroke-opacity:1; 
stroke-linecap:round; stroke-linejoin:round;">
<path style="fill:#008400; fill-opacity:1.0; 
stroke:#008400; stroke-width:0; stroke-opacity:1; 
stroke-linecap:round; stroke-linejoin:round;fill-rule:evenodd;"
d="M 12166,12591
13544,12591
13544,13182
12166,13182
12166,12591
Z" /> 
</g>
<g style="fill:#008400; fill-opacity:1.0; 
stroke:#008400; stroke-width:590.551; stroke-opacity:1; 
stroke-linecap:round; stroke-linejoin:round;">
</g>
<g style="fill:#008400; fill-opacity:0.0; 
stroke:#008400; stroke-width:590.551; stroke-opacity:1; 
stroke-linecap:round; stroke-linejoin:round;">
<path d="M13387 14887
L12402 14887
" />
</g>
<g >
</g>
<g >
</g>
<g >
</g>
<g >
</g>
<g >
</g>
<g >
</g>
<g >
</g>
<g >
</g>
<g >
</g>
<g >
</g>
<g >
</g>
<g >
</g>
<g >
</g>
<g >
</g>
<g >
</g>
<g >
</g>
<g >
</g>
<g >
</g>
<g >
</g>
<g >
</g>
<g >
</g>
<g >
</g>
<g >
</g>
<g >
</g>
<g >
</g>
<g >
</g>
<g >
</g>
<g >
</g>
<g >
</g>
<g >
</g>
<g >
</g>
<g style="fill:#008400; fill-opacity:0.0; 
stroke:#008400; stroke-width:590.551; stroke-opacity:1; 
stroke-linecap:round; stroke-linejoin:round;">
</g>
<g style="fill:#008400; fill-opacity:0.0; 
stroke:#008400; stroke-width:0; stroke-opacity:1; 
stroke-linecap:round; stroke-linejoin:round;">
</g>
<g style="fill:#008400; fill-opacity:1.0; 
stroke:#008400; stroke-width:0; stroke-opacity:1; 
stroke-linecap:round; stroke-linejoin:round;">
<path style="fill:#008400; fill-opacity:1.0; 
stroke:#008400; stroke-width:0; stroke-opacity:1; 
stroke-linecap:round; stroke-linejoin:round;fill-rule:evenodd;"
d="M 15928,8287
15937,8288
15946,8290
15955,8293
15963,8297
15971,8302
15978,8307
15985,8314
15991,8320
15997,8328
16001,8336
16005,8344
16009,8353
16011,8361
16012,8370
16013,8380
16013,8567
16012,8576
16011,8585
16009,8594
16005,8602
16001,8611
15997,8619
15991,8626
15985,8633
15978,8639
15971,8644
15963,8649
15955,8653
15946,8656
15937,8658
15928,8660
15919,8660
15693,8660
15683,8660
15674,8658
15666,8656
15657,8653
15649,8649
15641,8644
15633,8639
15627,8633
15620,8626
15615,8619
15610,8611
15606,8602
15603,8594
15601,8585
15600,8576
15599,8567
15599,8380
15600,8370
15601,8361
15603,8353
15606,8344
15610,8336
15615,8328
15620,8320
15627,8314
15633,8307
15641,8302
15649,8297
15657,8293
15666,8290
15674,8288
15683,8287
15693,8286
15919,8286
15928,8287
Z" /> 
<path style="fill:#008400; fill-opacity:1.0; 
stroke:#008400; stroke-width:0; stroke-opacity:1; 
stroke-linecap:round; stroke-linejoin:round;fill-rule:evenodd;"
d="M 16617,8287
16626,8288
16635,8290
16644,8293
16652,8297
16660,8302
16667,8307
16674,8314
16680,8320
16686,8328
16690,8336
16694,8344
16697,8353
16700,8361
16701,8370
16702,8380
16702,8567
16701,8576
16700,8585
16697,8594
16694,8602
16690,8611
16686,8619
16680,8626
16674,8633
16667,8639
16660,8644
16652,8649
16644,8653
16635,8656
16626,8658
16617,8660
16608,8660
16382,8660
16372,8660
16363,8658
16354,8656
16346,8653
16338,8649
16330,8644
16322,8639
16316,8633
16309,8626
16304,8619
16299,8611
16295,8602
16292,8594
16290,8585
16289,8576
16288,8567
16288,8380
16289,8370
16290,8361
16292,8353
16295,8344
16299,8336
16304,8328
16309,8320
16316,8314
16322,8307
16330,8302
16338,8297
16346,8293
16354,8290
16363,8288
16372,8287
16382,8286
16608,8286
16617,8287
Z" /> 
</g>
<g >
</g>
<g style="fill:#008400; fill-opacity:1.0; 
stroke:#008400; stroke-width:0; stroke-opacity:1; 
stroke-linecap:round; stroke-linejoin:round;">
<path style="fill:#008400; fill-opacity:1.0; 
stroke:#008400; stroke-width:0; stroke-opacity:1; 
stroke-linecap:round; stroke-linejoin:round;fill-rule:evenodd;"
d="M 21544,13178
21426,13178
21426,12627
21544,12627
21544,13178
Z" /> 
<path style="fill:#008400; fill-opacity:1.0; 
stroke:#008400; stroke-width:0; stroke-opacity:1; 
stroke-linecap:round; stroke-linejoin:round;fill-rule:evenodd;"
d="M 21347,13178
21229,13178
21229,12627
21347,12627
21347,13178
Z" /> 
<path style="fill:#008400; fill-opacity:1.0; 
stroke:#008400; stroke-width:0; stroke-opacity:1; 
stroke-linecap:round; stroke-linejoin:round;fill-rule:evenodd;"
d="M 21150,13178
21032,13178
21032,12627
21150,12627
21150,13178
Z" /> 
<path style="fill:#008400; fill-opacity:1.0; 
stroke:#008400; stroke-width:0; stroke-opacity:1; 
stroke-linecap:round; stroke-linejoin:round;fill-rule:evenodd;"
d="M 20953,13178
20835,13178
20835,12627
20953,12627
20953,13178
Z" /> 
<path style="fill:#008400; fill-opacity:1.0; 
stroke:#008400; stroke-width:0; stroke-opacity:1; 
stroke-linecap:round; stroke-linejoin:round;fill-rule:evenodd;"
d="M 20757,13178
20639,13178
20639,12627
20757,12627
20757,13178
Z" /> 
<path style="fill:#008400; fill-opacity:1.0; 
stroke:#008400; stroke-width:0; stroke-opacity:1; 
stroke-linecap:round; stroke-linejoin:round;fill-rule:evenodd;"
d="M 20757,14910
20639,14910
20639,14359
20757,14359
20757,14910
Z" /> 
<path style="fill:#008400; fill-opacity:1.0; 
stroke:#008400; stroke-width:0; stroke-opacity:1; 
stroke-linecap:round; stroke-linejoin:round;fill-rule:evenodd;"
d="M 20953,14910
20835,14910
20835,14359
20953,14359
20953,14910
Z" /> 
<path style="fill:#008400; fill-opacity:1.0; 
stroke:#008400; stroke-width:0; stroke-opacity:1; 
stroke-linecap:round; stroke-linejoin:round;fill-rule:evenodd;"
d="M 21150,14910
21032,14910
21032,14359
21150,14359
21150,14910
Z" /> 
<path style="fill:#008400; fill-opacity:1.0; 
stroke:#008400; stroke-width:0; stroke-opacity:1; 
stroke-linecap:round; stroke-linejoin:round;fill-rule:evenodd;"
d="M 21347,14910
21229,14910
21229,14359
21347,14359
21347,14910
Z" /> 
<path style="fill:#008400; fill-opacity:1.0; 
stroke:#008400; stroke-width:0; stroke-opacity:1; 
stroke-linecap:round; stroke-linejoin:round;fill-rule:evenodd;"
d="M 21544,14910
21426,14910
21426,14359
21544,14359
21544,14910
Z" /> 
</g>
<g >
</g>
<g style="fill:#008400; fill-opacity:1.0; 
stroke:#008400; stroke-width:0; stroke-opacity:1; 
stroke-linecap:round; stroke-linejoin:round;">
<path style="fill:#008400; fill-opacity:1.0; 
stroke:#008400; stroke-width:0; stroke-opacity:1; 
stroke-linecap:round; stroke-linejoin:round;fill-rule:evenodd;"
d="M 15967,15651
15977,15652
15986,15655
15995,15658
16004,15662
16012,15667
16020,15673
16027,15679
16033,15686
16039,15694
16044,15702
16048,15711
16052,15720
16054,15730
16055,15739
16056,15749
16056,16005
16055,16014
16054,16024
16052,16033
16048,16042
16044,16051
16039,16059
16033,16067
16027,16074
16020,16081
16012,16086
16004,16091
15995,16096
15986,16099
15977,16101
15967,16103
15957,16103
15603,16103
15593,16103
15584,16101
15575,16099
15565,16096
15557,16091
15548,16086
15541,16081
15533,16074
15527,16067
15521,16059
15516,16051
15512,16042
15509,16033
15507,16024
15505,16014
15505,16005
15505,15749
15505,15739
15507,15730
15509,15720
15512,15711
15516,15702
15521,15694
15527,15686
15533,15679
15541,15673
15548,15667
15557,15662
15565,15658
15575,15655
15584,15652
15593,15651
15603,15650
15957,15650
15967,15651
Z" /> 
<path style="fill:#008400; fill-opacity:1.0; 
stroke:#008400; stroke-width:0; stroke-opacity:1; 
stroke-linecap:round; stroke-linejoin:round;fill-rule:evenodd;"
d="M 15967,14844
15977,14845
15986,14847
15995,14851
16004,14855
16012,14860
16020,14866
16027,14872
16033,14879
16039,14887
16044,14895
16048,14904
16052,14913
16054,14922
16055,14932
16056,14942
16056,15198
16055,15207
16054,15217
16052,15226
16048,15235
16044,15244
16039,15252
16033,15260
16027,15267
16020,15274
16012,15279
16004,15284
15995,15289
15986,15292
15977,15294
15967,15296
15957,15296
15603,15296
15593,15296
15584,15294
15575,15292
15565,15289
15557,15284
15548,15279
15541,15274
15533,15267
15527,15260
15521,15252
15516,15244
15512,15235
15509,15226
15507,15217
15505,15207
15505,15198
15505,14942
15505,14932
15507,14922
15509,14913
15512,14904
15516,14895
15521,14887
15527,14879
15533,14872
15541,14866
15548,14860
15557,14855
15565,14851
15575,14847
15584,14845
15593,14844
15603,14843
15957,14843
15967,14844
Z" /> 
</g>
<g >
</g>
<g >
</g>
<g style="fill:#008400; fill-opacity:1.0; 
stroke:#008400; stroke-width:0; stroke-opacity:1; 
stroke-linecap:round; stroke-linejoin:round;">
<path style="fill:#008400; fill-opacity:1.0; 
stroke:#008400; stroke-width:0; stroke-opacity:1; 
stroke-linecap:round; stroke-linejoin:round;fill-rule:evenodd;"
d="M 16783,19249
16792,19250
16800,19252
16808,19255
16815,19259
16823,19263
16829,19268
16836,19274
16841,19280
16846,19287
16851,19294
16854,19302
16857,19310
16859,19318
16861,19326
16861,19335
16861,19507
16861,19516
16859,19524
16857,19532
16854,19540
16851,19548
16846,19555
16841,19562
16836,19568
16829,19574
16823,19579
16815,19583
16808,19587
16800,19590
16792,19592
16783,19593
16775,19593
16573,19593
16565,19593
16556,19592
16548,19590
16540,19587
16532,19583
16525,19579
16518,19574
16512,19568
16506,19562
16501,19555
16497,19548
16493,19540
16491,19532
16489,19524
16487,19516
16487,19507
16487,19335
16487,19326
16489,19318
16491,19310
16493,19302
16497,19294
16501,19287
16506,19280
16512,19274
16518,19268
16525,19263
16532,19259
16540,19255
16548,19252
16556,19250
16565,19249
16573,19249
16775,19249
16783,19249
Z" /> 
<path style="fill:#008400; fill-opacity:1.0; 
stroke:#008400; stroke-width:0; stroke-opacity:1; 
stroke-linecap:round; stroke-linejoin:round;fill-rule:evenodd;"
d="M 16783,18629
16792,18630
16800,18632
16808,18635
16815,18639
16823,18643
16829,18648
16836,18654
16841,18660
16846,18667
16851,18674
16854,18682
16857,18690
16859,18698
16861,18706
16861,18715
16861,18887
16861,18895
16859,18904
16857,18912
16854,18920
16851,18928
16846,18935
16841,18942
16836,18948
16829,18954
16823,18959
16815,18963
16808,18967
16800,18969
16792,18972
16783,18973
16775,18973
16573,18973
16565,18973
16556,18972
16548,18969
16540,18967
16532,18963
16525,18959
16518,18954
16512,18948
16506,18942
16501,18935
16497,18928
16493,18920
16491,18912
16489,18904
16487,18895
16487,18887
16487,18715
16487,18706
16489,18698
16491,18690
16493,18682
16497,18674
16501,18667
16506,18660
16512,18654
16518,18648
16525,18643
16532,18639
16540,18635
16548,18632
16556,18630
16565,18629
16573,18629
16775,18629
16783,18629
Z" /> 
</g>
<g >
</g>
<g >
</g>
<g >
</g>
<g >
</g>
<g >
</g>
<g style="fill:#008400; fill-opacity:1.0; 
stroke:#008400; stroke-width:0; stroke-opacity:1; 
stroke-linecap:round; stroke-linejoin:round;">
<path style="fill:#008400; fill-opacity:1.0; 
stroke:#008400; stroke-width:0; stroke-opacity:1; 
stroke-linecap:round; stroke-linejoin:round;fill-rule:evenodd;"
d="M 24850,17641
24859,17642
24867,17644
24875,17647
24882,17651
24890,17655
24896,17660
24903,17666
24908,17672
24913,17679
24918,17686
24921,17694
24924,17702
24926,17710
24927,17718
24928,17727
24928,17928
24927,17937
24926,17945
24924,17953
24921,17961
24918,17969
24913,17976
24908,17983
24903,17989
24896,17995
24890,18000
24882,18004
24875,18008
24867,18011
24859,18013
24850,18014
24842,18014
24670,18014
24661,18014
24653,18013
24645,18011
24637,18008
24629,18004
24622,18000
24615,17995
24609,17989
24603,17983
24598,17976
24594,17969
24590,17961
24587,17953
24585,17945
24584,17937
24583,17928
24583,17727
24584,17718
24585,17710
24587,17702
24590,17694
24594,17686
24598,17679
24603,17672
24609,17666
24615,17660
24622,17655
24629,17651
24637,17647
24645,17644
24653,17642
24661,17641
24670,17640
24842,17640
24850,17641
Z" /> 
<path style="fill:#008400; fill-opacity:1.0; 
stroke:#008400; stroke-width:0; stroke-opacity:1; 
stroke-linecap:round; stroke-linejoin:round;fill-rule:evenodd;"
d="M 24230,17641
24238,17642
24247,17644
24255,17647
24262,17651
24270,17655
24276,17660
24283,17666
24288,17672
24293,17679
24298,17686
24301,17694
24304,17702
24306,17710
24307,17718
24308,17727
24308,17928
24307,17937
24306,17945
24304,17953
24301,17961
24298,17969
24293,17976
24288,17983
24283,17989
24276,17995
24270,18000
24262,18004
24255,18008
24247,18011
24238,18013
24230,18014
24222,18014
24049,18014
24041,18014
24033,18013
24024,18011
24016,18008
24009,18004
24002,18000
23995,17995
23989,17989
23983,17983
23978,17976
23973,17969
23970,17961
23967,17953
23965,17945
23964,17937
23963,17928
23963,17727
23964,17718
23965,17710
23967,17702
23970,17694
23973,17686
23978,17679
23983,17672
23989,17666
23995,17660
24002,17655
24009,17651
24016,17647
24024,17644
24033,17642
24041,17641
24049,17640
24222,17640
24230,17641
Z" /> 
</g>
<g >
</g>
<g style="fill:#008400; fill-opacity:1.0; 
stroke:#008400; stroke-width:0; stroke-opacity:1; 
stroke-linecap:round; stroke-linejoin:round;">
<path style="fill:#008400; fill-opacity:1.0; 
stroke:#008400; stroke-width:0; stroke-opacity:1; 
stroke-linecap:round; stroke-linejoin:round;fill-rule:evenodd;"
d="M 26789,14353
26798,14355
26806,14357
26814,14360
26821,14363
26829,14368
26835,14373
26842,14378
26847,14385
26852,14391
26857,14399
26860,14406
26863,14414
26865,14422
26866,14431
26867,14439
26867,14641
26866,14649
26865,14658
26863,14666
26860,14674
26857,14682
26852,14689
26847,14696
26842,14702
26835,14708
26829,14713
26821,14717
26814,14721
26806,14723
26798,14725
26789,14727
26781,14727
26608,14727
26600,14727
26592,14725
26583,14723
26576,14721
26568,14717
26561,14713
26554,14708
26548,14702
26542,14696
26537,14689
26533,14682
26529,14674
26526,14666
26524,14658
26523,14649
26522,14641
26522,14439
26523,14431
26524,14422
26526,14414
26529,14406
26533,14399
26537,14391
26542,14385
26548,14378
26554,14373
26561,14368
26568,14363
26576,14360
26583,14357
26592,14355
26600,14353
26608,14353
26781,14353
26789,14353
Z" /> 
<path style="fill:#008400; fill-opacity:1.0; 
stroke:#008400; stroke-width:0; stroke-opacity:1; 
stroke-linecap:round; stroke-linejoin:round;fill-rule:evenodd;"
d="M 27409,14353
27418,14355
27426,14357
27434,14360
27441,14363
27449,14368
27455,14373
27462,14378
27467,14385
27472,14391
27477,14399
27480,14406
27483,14414
27485,14422
27487,14431
27487,14439
27487,14641
27487,14649
27485,14658
27483,14666
27480,14674
27477,14682
27472,14689
27467,14696
27462,14702
27455,14708
27449,14713
27441,14717
27434,14721
27426,14723
27418,14725
27409,14727
27401,14727
27229,14727
27220,14727
27212,14725
27204,14723
27196,14721
27188,14717
27181,14713
27174,14708
27168,14702
27162,14696
27157,14689
27153,14682
27149,14674
27146,14666
27144,14658
27143,14649
27142,14641
27142,14439
27143,14431
27144,14422
27146,14414
27149,14406
27153,14399
27157,14391
27162,14385
27168,14378
27174,14373
27181,14368
27188,14363
27196,14360
27204,14357
27212,14355
27220,14353
27229,14353
27401,14353
27409,14353
Z" /> 
</g>
<g >
</g>
<g style="fill:#008400; fill-opacity:1.0; 
stroke:#008400; stroke-width:0; stroke-opacity:1; 
stroke-linecap:round; stroke-linejoin:round;">
<path style="fill:#008400; fill-opacity:1.0; 
stroke:#008400; stroke-width:0; stroke-opacity:1; 
stroke-linecap:round; stroke-linejoin:round;fill-rule:evenodd;"
d="M 21991,15353
21991,15589
21381,15589
21381,15353
21991,15353
Z" /> 
<path style="fill:#008400; fill-opacity:1.0; 
stroke:#008400; stroke-width:0; stroke-opacity:1; 
stroke-linecap:round; stroke-linejoin:round;fill-rule:evenodd;"
d="M 21991,15853
21991,16089
21381,16089
21381,15853
21991,15853
Z" /> 
<path style="fill:#008400; fill-opacity:1.0; 
stroke:#008400; stroke-width:0; stroke-opacity:1; 
stroke-linecap:round; stroke-linejoin:round;fill-rule:evenodd;"
d="M 21991,16353
21991,16589
21381,16589
21381,16353
21991,16353
Z" /> 
<path style="fill:#008400; fill-opacity:1.0; 
stroke:#008400; stroke-width:0; stroke-opacity:1; 
stroke-linecap:round; stroke-linejoin:round;fill-rule:evenodd;"
d="M 21991,16853
21991,17089
21381,17089
21381,16853
21991,16853
Z" /> 
<path style="fill:#008400; fill-opacity:1.0; 
stroke:#008400; stroke-width:0; stroke-opacity:1; 
stroke-linecap:round; stroke-linejoin:round;fill-rule:evenodd;"
d="M 24117,16853
24117,17089
23507,17089
23507,16853
24117,16853
Z" /> 
<path style="fill:#008400; fill-opacity:1.0; 
stroke:#008400; stroke-width:0; stroke-opacity:1; 
stroke-linecap:round; stroke-linejoin:round;fill-rule:evenodd;"
d="M 24117,16353
24117,16589
23507,16589
23507,16353
24117,16353
Z" /> 
<path style="fill:#008400; fill-opacity:1.0; 
stroke:#008400; stroke-width:0; stroke-opacity:1; 
stroke-linecap:round; stroke-linejoin:round;fill-rule:evenodd;"
d="M 24117,15853
24117,16089
23507,16089
23507,15853
24117,15853
Z" /> 
<path style="fill:#008400; fill-opacity:1.0; 
stroke:#008400; stroke-width:0; stroke-opacity:1; 
stroke-linecap:round; stroke-linejoin:round;fill-rule:evenodd;"
d="M 24117,15353
24117,15589
23507,15589
23507,15353
24117,15353
Z" /> 
</g>
<g >
</g>
<g >
</g>
<g >
</g>
<g >
</g>
<g >
</g>
<g >
</g>
<g >
</g>
<g >
</g>
<g >
</g>
<g >
</g>
<g >
</g>
<g >
</g>
<g >
</g>
<g >
</g>
<g style="fill:#008400; fill-opacity:1.0; 
stroke:#008400; stroke-width:0; stroke-opacity:1; 
stroke-linecap:round; stroke-linejoin:round;">
<path style="fill:#008400; fill-opacity:1.0; 
stroke:#008400; stroke-width:0; stroke-opacity:1; 
stroke-linecap:round; stroke-linejoin:round;fill-rule:evenodd;"
d="M 12215,19272
12215,19154
12555,19154
12555,19272
12215,19272
Z" /> 
<path style="fill:#008400; fill-opacity:1.0; 
stroke:#008400; stroke-width:0; stroke-opacity:1; 
stroke-linecap:round; stroke-linejoin:round;fill-rule:evenodd;"
d="M 12201,19076
12201,18957
12541,18957
12541,19076
12201,19076
Z" /> 
<path style="fill:#008400; fill-opacity:1.0; 
stroke:#008400; stroke-width:0; stroke-opacity:1; 
stroke-linecap:round; stroke-linejoin:round;fill-rule:evenodd;"
d="M 12201,18878
12201,18761
12541,18761
12541,18878
12201,18878
Z" /> 
<path style="fill:#008400; fill-opacity:1.0; 
stroke:#008400; stroke-width:0; stroke-opacity:1; 
stroke-linecap:round; stroke-linejoin:round;fill-rule:evenodd;"
d="M 12215,18682
12215,18564
12555,18564
12555,18682
12215,18682
Z" /> 
<path style="fill:#008400; fill-opacity:1.0; 
stroke:#008400; stroke-width:0; stroke-opacity:1; 
stroke-linecap:round; stroke-linejoin:round;fill-rule:evenodd;"
d="M 13005,18682
13005,18564
13345,18564
13345,18682
13005,18682
Z" /> 
<path style="fill:#008400; fill-opacity:1.0; 
stroke:#008400; stroke-width:0; stroke-opacity:1; 
stroke-linecap:round; stroke-linejoin:round;fill-rule:evenodd;"
d="M 13020,18878
13020,18761
13360,18761
13360,18878
13020,18878
Z" /> 
<path style="fill:#008400; fill-opacity:1.0; 
stroke:#008400; stroke-width:0; stroke-opacity:1; 
stroke-linecap:round; stroke-linejoin:round;fill-rule:evenodd;"
d="M 13020,19075
13020,18958
13360,18958
13360,19075
13020,19075
Z" /> 
<path style="fill:#008400; fill-opacity:1.0; 
stroke:#008400; stroke-width:0; stroke-opacity:1; 
stroke-linecap:round; stroke-linejoin:round;fill-rule:evenodd;"
d="M 13005,19272
13005,19154
13345,19154
13345,19272
13005,19272
Z" /> 
</g>
<g >
</g>
<g style="fill:#008400; fill-opacity:1.0; 
stroke:#008400; stroke-width:0; stroke-opacity:1; 
stroke-linecap:round; stroke-linejoin:round;">
<path style="fill:#008400; fill-opacity:1.0; 
stroke:#008400; stroke-width:0; stroke-opacity:1; 
stroke-linecap:round; stroke-linejoin:round;fill-rule:evenodd;"
d="M 13163,21692
13172,21693
13180,21695
13188,21698
13195,21702
13203,21706
13209,21711
13216,21717
13221,21723
13226,21730
13231,21737
13234,21745
13237,21753
13239,21761
13240,21769
13241,21778
13241,21980
13240,21988
13239,21996
13237,22005
13234,22013
13231,22020
13226,22027
13221,22034
13216,22040
13209,22046
13203,22051
13195,22056
13188,22059
13180,22062
13172,22064
13163,22065
13155,22066
12983,22066
12974,22065
12966,22064
12958,22062
12950,22059
12942,22056
12935,22051
12928,22046
12922,22040
12916,22034
12911,22027
12907,22020
12903,22013
12900,22005
12898,21996
12897,21988
12896,21980
12896,21778
12897,21769
12898,21761
12900,21753
12903,21745
12907,21737
12911,21730
12916,21723
12922,21717
12928,21711
12935,21706
12942,21702
12950,21698
12958,21695
12966,21693
12974,21692
12983,21692
13155,21692
13163,21692
Z" /> 
<path style="fill:#008400; fill-opacity:1.0; 
stroke:#008400; stroke-width:0; stroke-opacity:1; 
stroke-linecap:round; stroke-linejoin:round;fill-rule:evenodd;"
d="M 13783,21692
13792,21693
13800,21695
13808,21698
13815,21702
13823,21706
13829,21711
13836,21717
13841,21723
13846,21730
13851,21737
13854,21745
13857,21753
13859,21761
13861,21769
13861,21778
13861,21980
13861,21988
13859,21996
13857,22005
13854,22013
13851,22020
13846,22027
13841,22034
13836,22040
13829,22046
13823,22051
13815,22056
13808,22059
13800,22062
13792,22064
13783,22065
13775,22066
13603,22066
13594,22065
13586,22064
13578,22062
13570,22059
13562,22056
13555,22051
13548,22046
13542,22040
13536,22034
13531,22027
13527,22020
13523,22013
13520,22005
13518,21996
13517,21988
13516,21980
13516,21778
13517,21769
13518,21761
13520,21753
13523,21745
13527,21737
13531,21730
13536,21723
13542,21717
13548,21711
13555,21706
13562,21702
13570,21698
13578,21695
13586,21693
13594,21692
13603,21692
13775,21692
13783,21692
Z" /> 
</g>
<g >
</g>
<g >
</g>
<g style="fill:#008400; fill-opacity:1.0; 
stroke:#008400; stroke-width:0; stroke-opacity:1; 
stroke-linecap:round; stroke-linejoin:round;">
<path style="fill:#008400; fill-opacity:1.0; 
stroke:#008400; stroke-width:0; stroke-opacity:1; 
stroke-linecap:round; stroke-linejoin:round;fill-rule:evenodd;"
d="M 11096,19046
11105,19048
11113,19050
11121,19053
11128,19056
11136,19061
11142,19066
11149,19071
11154,19077
11159,19084
11164,19092
11167,19099
11170,19107
11172,19115
11174,19124
11174,19132
11174,19334
11174,19342
11172,19351
11170,19359
11167,19367
11164,19374
11159,19382
11154,19389
11149,19395
11142,19400
11136,19405
11128,19410
11121,19413
11113,19416
11105,19418
11096,19420
11088,19420
10916,19420
10907,19420
10899,19418
10891,19416
10883,19413
10875,19410
10868,19405
10861,19400
10855,19395
10849,19389
10844,19382
10840,19374
10836,19367
10833,19359
10831,19351
10830,19342
10829,19334
10829,19132
10830,19124
10831,19115
10833,19107
10836,19099
10840,19092
10844,19084
10849,19077
10855,19071
10861,19066
10868,19061
10875,19056
10883,19053
10891,19050
10899,19048
10907,19046
10916,19046
11088,19046
11096,19046
Z" /> 
<path style="fill:#008400; fill-opacity:1.0; 
stroke:#008400; stroke-width:0; stroke-opacity:1; 
stroke-linecap:round; stroke-linejoin:round;fill-rule:evenodd;"
d="M 11716,19046
11725,19048
11733,19050
11741,19053
11749,19056
11756,19061
11763,19066
11769,19071
11774,19077
11780,19084
11784,19092
11787,19099
11790,19107
11792,19115
11794,19124
11794,19132
11794,19334
11794,19342
11792,19351
11790,19359
11787,19367
11784,19374
11780,19382
11774,19389
11769,19395
11763,19400
11756,19405
11749,19410
11741,19413
11733,19416
11725,19418
11716,19420
11708,19420
11536,19420
11527,19420
11519,19418
11511,19416
11503,19413
11495,19410
11488,19405
11481,19400
11475,19395
11469,19389
11464,19382
11460,19374
11456,19367
11453,19359
11451,19351
11450,19342
11450,19334
11450,19132
11450,19124
11451,19115
11453,19107
11456,19099
11460,19092
11464,19084
11469,19077
11475,19071
11481,19066
11488,19061
11495,19056
11503,19053
11511,19050
11519,19048
11527,19046
11536,19046
11708,19046
11716,19046
Z" /> 
</g>
<g >
</g>
<g style="fill:#008400; fill-opacity:1.0; 
stroke:#008400; stroke-width:0; stroke-opacity:1; 
stroke-linecap:round; stroke-linejoin:round;">
<path style="fill:#008400; fill-opacity:1.0; 
stroke:#008400; stroke-width:0; stroke-opacity:1; 
stroke-linecap:round; stroke-linejoin:round;fill-rule:evenodd;"
d="M 13353,24049
13361,24050
13370,24053
13378,24055
13385,24059
13392,24063
13399,24068
13405,24074
13527,24196
13533,24202
13538,24209
13542,24216
13546,24224
13549,24232
13551,24240
13552,24248
13552,24257
13552,24265
13551,24274
13549,24282
13546,24290
13542,24297
13538,24305
13533,24311
13527,24318
13385,24460
13378,24466
13372,24471
13364,24475
13357,24479
13349,24482
13340,24484
13332,24485
13324,24486
13315,24485
13307,24484
13299,24482
13291,24479
13283,24475
13276,24471
13269,24466
13263,24460
13141,24339
13135,24332
13130,24325
13126,24318
13122,24311
13119,24303
13117,24294
13116,24286
13116,24278
13116,24269
13117,24261
13119,24253
13122,24245
13126,24237
13130,24230
13135,24223
13141,24217
13284,24074
13290,24068
13297,24063
13304,24059
13312,24055
13320,24053
13328,24050
13336,24049
13345,24049
13353,24049
Z" /> 
<path style="fill:#008400; fill-opacity:1.0; 
stroke:#008400; stroke-width:0; stroke-opacity:1; 
stroke-linecap:round; stroke-linejoin:round;fill-rule:evenodd;"
d="M 12915,23611
12923,23612
12931,23614
12939,23617
12947,23621
12954,23625
12961,23630
12967,23636
13089,23757
13094,23764
13100,23770
13104,23778
13107,23785
13110,23793
13112,23801
13114,23810
13114,23818
13114,23827
13112,23835
13110,23843
13107,23851
13104,23859
13100,23866
13094,23873
13089,23879
12946,24022
12940,24028
12933,24033
12926,24037
12918,24041
12910,24043
12902,24045
12894,24047
12885,24047
12877,24047
12868,24045
12860,24043
12852,24041
12845,24037
12837,24033
12831,24028
12824,24022
12703,23900
12697,23894
12692,23887
12687,23880
12684,23872
12681,23864
12679,23856
12678,23848
12677,23839
12678,23831
12679,23822
12681,23814
12684,23806
12687,23799
12692,23791
12697,23785
12703,23778
12845,23636
12851,23630
12858,23625
12866,23621
12873,23617
12881,23614
12889,23612
12898,23611
12906,23610
12915,23611
Z" /> 
</g>
<g >
</g>
<g style="fill:#008400; fill-opacity:1.0; 
stroke:#008400; stroke-width:0; stroke-opacity:1; 
stroke-linecap:round; stroke-linejoin:round;">
<path style="fill:#008400; fill-opacity:1.0; 
stroke:#008400; stroke-width:0; stroke-opacity:1; 
stroke-linecap:round; stroke-linejoin:round;fill-rule:evenodd;"
d="M 10518,19629
10526,19630
10534,19632
10542,19635
10550,19639
10557,19643
10564,19648
10570,19654
10576,19660
10581,19667
10585,19674
10589,19682
10591,19690
10594,19698
10595,19706
10595,19715
10595,19917
10595,19925
10594,19933
10591,19942
10589,19950
10585,19957
10581,19964
10576,19971
10570,19977
10564,19983
10557,19988
10550,19993
10542,19996
10534,19999
10526,20001
10518,20002
10509,20003
10337,20003
10328,20002
10320,20001
10312,19999
10304,19996
10296,19993
10289,19988
10282,19983
10276,19977
10270,19971
10265,19964
10261,19957
10257,19950
10254,19942
10252,19933
10251,19925
10251,19917
10251,19715
10251,19706
10252,19698
10254,19690
10257,19682
10261,19674
10265,19667
10270,19660
10276,19654
10282,19648
10289,19643
10296,19639
10304,19635
10312,19632
10320,19630
10328,19629
10337,19629
10509,19629
10518,19629
Z" /> 
<path style="fill:#008400; fill-opacity:1.0; 
stroke:#008400; stroke-width:0; stroke-opacity:1; 
stroke-linecap:round; stroke-linejoin:round;fill-rule:evenodd;"
d="M 11138,19629
11146,19630
11154,19632
11162,19635
11170,19639
11177,19643
11184,19648
11190,19654
11196,19660
11201,19667
11205,19674
11209,19682
11212,19690
11214,19698
11215,19706
11215,19715
11215,19917
11215,19925
11214,19933
11212,19942
11209,19950
11205,19957
11201,19964
11196,19971
11190,19977
11184,19983
11177,19988
11170,19993
11162,19996
11154,19999
11146,20001
11138,20002
11129,20003
10957,20003
10948,20002
10940,20001
10932,19999
10924,19996
10916,19993
10909,19988
10902,19983
10896,19977
10890,19971
10885,19964
10881,19957
10877,19950
10875,19942
10872,19933
10871,19925
10871,19917
10871,19715
10871,19706
10872,19698
10875,19690
10877,19682
10881,19674
10885,19667
10890,19660
10896,19654
10902,19648
10909,19643
10916,19639
10924,19635
10932,19632
10940,19630
10948,19629
10957,19629
11129,19629
11138,19629
Z" /> 
</g>
<g >
</g>
<g style="fill:#008400; fill-opacity:1.0; 
stroke:#008400; stroke-width:0; stroke-opacity:1; 
stroke-linecap:round; stroke-linejoin:round;">
<path style="fill:#008400; fill-opacity:1.0; 
stroke:#008400; stroke-width:0; stroke-opacity:1; 
stroke-linecap:round; stroke-linejoin:round;fill-rule:evenodd;"
d="M 12251,20443
12260,20444
12269,20446
12278,20449
12286,20453
12294,20457
12302,20462
12309,20468
12315,20475
12321,20482
12326,20490
12439,20686
12443,20694
12446,20703
12449,20711
12450,20720
12451,20730
12451,20739
12450,20748
12448,20757
12445,20766
12442,20774
12437,20782
12432,20790
12426,20797
12419,20803
12412,20809
12405,20814
12243,20907
12234,20911
12226,20915
12217,20917
12208,20919
12199,20920
12190,20919
12181,20918
12172,20916
12163,20914
12154,20910
12146,20906
12139,20900
12132,20894
12126,20888
12120,20881
12115,20873
12002,20677
11997,20669
11994,20660
11992,20651
11990,20642
11989,20633
11989,20624
11990,20615
11992,20606
11995,20597
11999,20589
12003,20581
12008,20573
12014,20566
12021,20560
12028,20554
12036,20549
12198,20456
12206,20451
12215,20448
12223,20445
12232,20444
12242,20443
12251,20443
Z" /> 
<path style="fill:#008400; fill-opacity:1.0; 
stroke:#008400; stroke-width:0; stroke-opacity:1; 
stroke-linecap:round; stroke-linejoin:round;fill-rule:evenodd;"
d="M 11906,19847
11915,19848
11924,19850
11933,19852
11941,19856
11949,19860
11957,19866
11964,19872
11970,19878
11976,19885
11981,19893
12094,20089
12098,20097
12102,20106
12104,20115
12106,20124
12107,20133
12107,20142
12106,20151
12104,20160
12101,20169
12097,20177
12093,20185
12087,20193
12082,20200
12075,20206
12068,20212
12060,20217
11898,20310
11890,20315
11881,20318
11873,20321
11864,20322
11854,20323
11845,20323
11836,20322
11827,20320
11818,20317
11810,20313
11802,20309
11794,20304
11787,20298
11781,20291
11775,20284
11770,20276
11657,20080
11653,20072
11650,20063
11647,20055
11645,20046
11645,20036
11645,20027
11646,20018
11648,20009
11651,20000
11654,19992
11659,19984
11664,19976
11670,19969
11676,19963
11684,19957
11691,19952
11853,19859
11862,19855
11870,19851
11879,19849
11888,19847
11897,19846
11906,19847
Z" /> 
</g>
<g >
</g>
<g style="fill:#008400; fill-opacity:1.0; 
stroke:#008400; stroke-width:0; stroke-opacity:1; 
stroke-linecap:round; stroke-linejoin:round;">
<path style="fill:#008400; fill-opacity:1.0; 
stroke:#008400; stroke-width:0; stroke-opacity:1; 
stroke-linecap:round; stroke-linejoin:round;fill-rule:evenodd;"
d="M 11836,17214
11845,17215
11854,17217
11862,17220
11871,17224
11878,17229
11886,17235
11893,17241
11899,17248
11904,17255
11909,17263
11913,17271
11916,17280
11918,17289
11920,17298
11920,17307
11920,17533
11920,17542
11918,17551
11916,17560
11913,17569
11909,17577
11904,17585
11899,17593
11893,17599
11886,17605
11878,17611
11871,17616
11862,17620
11854,17623
11845,17625
11836,17626
11827,17627
11639,17627
11630,17626
11621,17625
11612,17623
11604,17620
11595,17616
11588,17611
11580,17605
11573,17599
11567,17593
11562,17585
11557,17577
11553,17569
11550,17560
11548,17551
11546,17542
11546,17533
11546,17307
11546,17298
11548,17289
11550,17280
11553,17271
11557,17263
11562,17255
11567,17248
11573,17241
11580,17235
11588,17229
11595,17224
11604,17220
11612,17217
11621,17215
11630,17214
11639,17213
11827,17213
11836,17214
Z" /> 
<path style="fill:#008400; fill-opacity:1.0; 
stroke:#008400; stroke-width:0; stroke-opacity:1; 
stroke-linecap:round; stroke-linejoin:round;fill-rule:evenodd;"
d="M 11836,17903
11845,17904
11854,17906
11862,17909
11871,17913
11878,17918
11886,17924
11893,17930
11899,17936
11904,17944
11909,17952
11913,17960
11916,17969
11918,17978
11920,17987
11920,17996
11920,18222
11920,18231
11918,18240
11916,18249
11913,18258
11909,18266
11904,18274
11899,18281
11893,18288
11886,18294
11878,18300
11871,18305
11862,18309
11854,18312
11845,18314
11836,18315
11827,18316
11639,18316
11630,18315
11621,18314
11612,18312
11604,18309
11595,18305
11588,18300
11580,18294
11573,18288
11567,18281
11562,18274
11557,18266
11553,18258
11550,18249
11548,18240
11546,18231
11546,18222
11546,17996
11546,17987
11548,17978
11550,17969
11553,17960
11557,17952
11562,17944
11567,17936
11573,17930
11580,17924
11588,17918
11595,17913
11604,17909
11612,17906
11621,17904
11630,17903
11639,17902
11827,17902
11836,17903
Z" /> 
</g>
<g >
</g>
<g >
</g>
<g style="fill:#008400; fill-opacity:1.0; 
stroke:#008400; stroke-width:0; stroke-opacity:1; 
stroke-linecap:round; stroke-linejoin:round;">
<path style="fill:#008400; fill-opacity:1.0; 
stroke:#008400; stroke-width:0; stroke-opacity:1; 
stroke-linecap:round; stroke-linejoin:round;fill-rule:evenodd;"
d="M 17428,13375
17428,13552
16857,13552
16857,13375
17428,13375
Z" /> 
<path style="fill:#008400; fill-opacity:1.0; 
stroke:#008400; stroke-width:0; stroke-opacity:1; 
stroke-linecap:round; stroke-linejoin:round;fill-rule:evenodd;"
d="M 17428,13631
17428,13808
16857,13808
16857,13631
17428,13631
Z" /> 
<path style="fill:#008400; fill-opacity:1.0; 
stroke:#008400; stroke-width:0; stroke-opacity:1; 
stroke-linecap:round; stroke-linejoin:round;fill-rule:evenodd;"
d="M 17428,13887
17428,14064
16857,14064
16857,13887
17428,13887
Z" /> 
<path style="fill:#008400; fill-opacity:1.0; 
stroke:#008400; stroke-width:0; stroke-opacity:1; 
stroke-linecap:round; stroke-linejoin:round;fill-rule:evenodd;"
d="M 17428,14142
17428,14320
16857,14320
16857,14142
17428,14142
Z" /> 
<path style="fill:#008400; fill-opacity:1.0; 
stroke:#008400; stroke-width:0; stroke-opacity:1; 
stroke-linecap:round; stroke-linejoin:round;fill-rule:evenodd;"
d="M 15696,14142
15696,14320
15125,14320
15125,14142
15696,14142
Z" /> 
<path style="fill:#008400; fill-opacity:1.0; 
stroke:#008400; stroke-width:0; stroke-opacity:1; 
stroke-linecap:round; stroke-linejoin:round;fill-rule:evenodd;"
d="M 15696,13887
15696,14064
15125,14064
15125,13887
15696,13887
Z" /> 
<path style="fill:#008400; fill-opacity:1.0; 
stroke:#008400; stroke-width:0; stroke-opacity:1; 
stroke-linecap:round; stroke-linejoin:round;fill-rule:evenodd;"
d="M 15696,13631
15696,13808
15125,13808
15125,13631
15696,13631
Z" /> 
<path style="fill:#008400; fill-opacity:1.0; 
stroke:#008400; stroke-width:0; stroke-opacity:1; 
stroke-linecap:round; stroke-linejoin:round;fill-rule:evenodd;"
d="M 15696,13375
15696,13552
15125,13552
15125,13375
15696,13375
Z" /> 
</g>
<g >
</g>
<g style="fill:#008400; fill-opacity:1.0; 
stroke:#008400; stroke-width:0; stroke-opacity:1; 
stroke-linecap:round; stroke-linejoin:round;">
<path style="fill:#008400; fill-opacity:1.0; 
stroke:#008400; stroke-width:0; stroke-opacity:1; 
stroke-linecap:round; stroke-linejoin:round;fill-rule:evenodd;"
d="M 13826,15910
13826,16087
13255,16087
13255,15910
13826,15910
Z" /> 
<path style="fill:#008400; fill-opacity:1.0; 
stroke:#008400; stroke-width:0; stroke-opacity:1; 
stroke-linecap:round; stroke-linejoin:round;fill-rule:evenodd;"
d="M 13826,16166
13826,16343
13255,16343
13255,16166
13826,16166
Z" /> 
<path style="fill:#008400; fill-opacity:1.0; 
stroke:#008400; stroke-width:0; stroke-opacity:1; 
stroke-linecap:round; stroke-linejoin:round;fill-rule:evenodd;"
d="M 13826,16422
13826,16599
13255,16599
13255,16422
13826,16422
Z" /> 
<path style="fill:#008400; fill-opacity:1.0; 
stroke:#008400; stroke-width:0; stroke-opacity:1; 
stroke-linecap:round; stroke-linejoin:round;fill-rule:evenodd;"
d="M 13826,16678
13826,16855
13255,16855
13255,16678
13826,16678
Z" /> 
<path style="fill:#008400; fill-opacity:1.0; 
stroke:#008400; stroke-width:0; stroke-opacity:1; 
stroke-linecap:round; stroke-linejoin:round;fill-rule:evenodd;"
d="M 12093,16678
12093,16855
11522,16855
11522,16678
12093,16678
Z" /> 
<path style="fill:#008400; fill-opacity:1.0; 
stroke:#008400; stroke-width:0; stroke-opacity:1; 
stroke-linecap:round; stroke-linejoin:round;fill-rule:evenodd;"
d="M 12093,16422
12093,16599
11522,16599
11522,16422
12093,16422
Z" /> 
<path style="fill:#008400; fill-opacity:1.0; 
stroke:#008400; stroke-width:0; stroke-opacity:1; 
stroke-linecap:round; stroke-linejoin:round;fill-rule:evenodd;"
d="M 12093,16166
12093,16343
11522,16343
11522,16166
12093,16166
Z" /> 
<path style="fill:#008400; fill-opacity:1.0; 
stroke:#008400; stroke-width:0; stroke-opacity:1; 
stroke-linecap:round; stroke-linejoin:round;fill-rule:evenodd;"
d="M 12093,15910
12093,16087
11522,16087
11522,15910
12093,15910
Z" /> 
</g>
<g >
</g>
<g style="fill:#008400; fill-opacity:1.0; 
stroke:#008400; stroke-width:0; stroke-opacity:1; 
stroke-linecap:round; stroke-linejoin:round;">
<path style="fill:#008400; fill-opacity:1.0; 
stroke:#008400; stroke-width:0; stroke-opacity:1; 
stroke-linecap:round; stroke-linejoin:round;fill-rule:evenodd;"
d="M 10757,15505
10766,15506
10775,15509
10784,15512
10792,15516
10800,15520
10807,15526
10814,15532
10820,15539
10826,15546
10830,15554
10834,15562
10837,15571
10840,15580
10841,15589
10841,15598
10841,15825
10841,15834
10840,15843
10837,15852
10834,15860
10830,15869
10826,15876
10820,15884
10814,15891
10807,15897
10800,15902
10792,15907
10784,15911
10775,15914
10766,15916
10757,15918
10748,15918
10561,15918
10552,15918
10543,15916
10534,15914
10525,15911
10517,15907
10509,15902
10502,15897
10495,15891
10489,15884
10483,15876
10478,15869
10475,15860
10471,15852
10469,15843
10468,15834
10467,15825
10467,15598
10468,15589
10469,15580
10471,15571
10475,15562
10478,15554
10483,15546
10489,15539
10495,15532
10502,15526
10509,15520
10517,15516
10525,15512
10534,15509
10543,15506
10552,15505
10561,15505
10748,15505
10757,15505
Z" /> 
<path style="fill:#008400; fill-opacity:1.0; 
stroke:#008400; stroke-width:0; stroke-opacity:1; 
stroke-linecap:round; stroke-linejoin:round;fill-rule:evenodd;"
d="M 10757,14816
10766,14817
10775,14820
10784,14823
10792,14827
10800,14831
10807,14837
10814,14843
10820,14850
10826,14857
10830,14865
10834,14873
10837,14882
10840,14891
10841,14900
10841,14909
10841,15136
10841,15145
10840,15154
10837,15163
10834,15171
10830,15180
10826,15188
10820,15195
10814,15202
10807,15208
10800,15213
10792,15218
10784,15222
10775,15225
10766,15227
10757,15229
10748,15229
10561,15229
10552,15229
10543,15227
10534,15225
10525,15222
10517,15218
10509,15213
10502,15208
10495,15202
10489,15195
10483,15188
10478,15180
10475,15171
10471,15163
10469,15154
10468,15145
10467,15136
10467,14909
10468,14900
10469,14891
10471,14882
10475,14873
10478,14865
10483,14857
10489,14850
10495,14843
10502,14837
10509,14831
10517,14827
10525,14823
10534,14820
10543,14817
10552,14816
10561,14816
10748,14816
10757,14816
Z" /> 
</g>
<g >
</g>
<g style="fill:#008400; fill-opacity:1.0; 
stroke:#008400; stroke-width:0; stroke-opacity:1; 
stroke-linecap:round; stroke-linejoin:round;">
<path style="fill:#008400; fill-opacity:1.0; 
stroke:#008400; stroke-width:0; stroke-opacity:1; 
stroke-linecap:round; stroke-linejoin:round;fill-rule:evenodd;"
d="M 27796,13209
27796,13091
28347,13091
28347,13209
27796,13209
Z" /> 
<path style="fill:#008400; fill-opacity:1.0; 
stroke:#008400; stroke-width:0; stroke-opacity:1; 
stroke-linecap:round; stroke-linejoin:round;fill-rule:evenodd;"
d="M 27796,13013
27796,12894
28347,12894
28347,13013
27796,13013
Z" /> 
<path style="fill:#008400; fill-opacity:1.0; 
stroke:#008400; stroke-width:0; stroke-opacity:1; 
stroke-linecap:round; stroke-linejoin:round;fill-rule:evenodd;"
d="M 27796,12816
27796,12698
28347,12698
28347,12816
27796,12816
Z" /> 
<path style="fill:#008400; fill-opacity:1.0; 
stroke:#008400; stroke-width:0; stroke-opacity:1; 
stroke-linecap:round; stroke-linejoin:round;fill-rule:evenodd;"
d="M 27796,12619
27796,12501
28347,12501
28347,12619
27796,12619
Z" /> 
<path style="fill:#008400; fill-opacity:1.0; 
stroke:#008400; stroke-width:0; stroke-opacity:1; 
stroke-linecap:round; stroke-linejoin:round;fill-rule:evenodd;"
d="M 27796,12422
27796,12304
28347,12304
28347,12422
27796,12422
Z" /> 
<path style="fill:#008400; fill-opacity:1.0; 
stroke:#008400; stroke-width:0; stroke-opacity:1; 
stroke-linecap:round; stroke-linejoin:round;fill-rule:evenodd;"
d="M 26064,12422
26064,12304
26615,12304
26615,12422
26064,12422
Z" /> 
<path style="fill:#008400; fill-opacity:1.0; 
stroke:#008400; stroke-width:0; stroke-opacity:1; 
stroke-linecap:round; stroke-linejoin:round;fill-rule:evenodd;"
d="M 26064,12619
26064,12501
26615,12501
26615,12619
26064,12619
Z" /> 
<path style="fill:#008400; fill-opacity:1.0; 
stroke:#008400; stroke-width:0; stroke-opacity:1; 
stroke-linecap:round; stroke-linejoin:round;fill-rule:evenodd;"
d="M 26064,12816
26064,12698
26615,12698
26615,12816
26064,12816
Z" /> 
<path style="fill:#008400; fill-opacity:1.0; 
stroke:#008400; stroke-width:0; stroke-opacity:1; 
stroke-linecap:round; stroke-linejoin:round;fill-rule:evenodd;"
d="M 26064,13013
26064,12894
26615,12894
26615,13013
26064,13013
Z" /> 
<path style="fill:#008400; fill-opacity:1.0; 
stroke:#008400; stroke-width:0; stroke-opacity:1; 
stroke-linecap:round; stroke-linejoin:round;fill-rule:evenodd;"
d="M 26064,13209
26064,13091
26615,13091
26615,13209
26064,13209
Z" /> 
</g>
<g >
</g>
<g style="fill:#008400; fill-opacity:1.0; 
stroke:#008400; stroke-width:0; stroke-opacity:1; 
stroke-linecap:round; stroke-linejoin:round;">
<path style="fill:#008400; fill-opacity:1.0; 
stroke:#008400; stroke-width:0; stroke-opacity:1; 
stroke-linecap:round; stroke-linejoin:round;fill-rule:evenodd;"
d="M 23944,12499
23707,12499
23707,11889
23944,11889
23944,12499
Z" /> 
<path style="fill:#008400; fill-opacity:1.0; 
stroke:#008400; stroke-width:0; stroke-opacity:1; 
stroke-linecap:round; stroke-linejoin:round;fill-rule:evenodd;"
d="M 23444,12499
23207,12499
23207,11889
23444,11889
23444,12499
Z" /> 
<path style="fill:#008400; fill-opacity:1.0; 
stroke:#008400; stroke-width:0; stroke-opacity:1; 
stroke-linecap:round; stroke-linejoin:round;fill-rule:evenodd;"
d="M 22944,12499
22707,12499
22707,11889
22944,11889
22944,12499
Z" /> 
<path style="fill:#008400; fill-opacity:1.0; 
stroke:#008400; stroke-width:0; stroke-opacity:1; 
stroke-linecap:round; stroke-linejoin:round;fill-rule:evenodd;"
d="M 22444,12499
22207,12499
22207,11889
22444,11889
22444,12499
Z" /> 
<path style="fill:#008400; fill-opacity:1.0; 
stroke:#008400; stroke-width:0; stroke-opacity:1; 
stroke-linecap:round; stroke-linejoin:round;fill-rule:evenodd;"
d="M 22444,14625
22207,14625
22207,14014
22444,14014
22444,14625
Z" /> 
<path style="fill:#008400; fill-opacity:1.0; 
stroke:#008400; stroke-width:0; stroke-opacity:1; 
stroke-linecap:round; stroke-linejoin:round;fill-rule:evenodd;"
d="M 22944,14625
22707,14625
22707,14014
22944,14014
22944,14625
Z" /> 
<path style="fill:#008400; fill-opacity:1.0; 
stroke:#008400; stroke-width:0; stroke-opacity:1; 
stroke-linecap:round; stroke-linejoin:round;fill-rule:evenodd;"
d="M 23444,14625
23207,14625
23207,14014
23444,14014
23444,14625
Z" /> 
<path style="fill:#008400; fill-opacity:1.0; 
stroke:#008400; stroke-width:0; stroke-opacity:1; 
stroke-linecap:round; stroke-linejoin:round;fill-rule:evenodd;"
d="M 23944,14625
23707,14625
23707,14014
23944,14014
23944,14625
Z" /> 
</g>
<g >
</g>
<g style="fill:#008400; fill-opacity:1.0; 
stroke:#008400; stroke-width:0; stroke-opacity:1; 
stroke-linecap:round; stroke-linejoin:round;">
<path style="fill:#008400; fill-opacity:1.0; 
stroke:#008400; stroke-width:0; stroke-opacity:1; 
stroke-linecap:round; stroke-linejoin:round;fill-rule:evenodd;"
d="M 14557,16349
14789,16390
14683,16991
14451,16950
14557,16349
Z" /> 
<path style="fill:#008400; fill-opacity:1.0; 
stroke:#008400; stroke-width:0; stroke-opacity:1; 
stroke-linecap:round; stroke-linejoin:round;fill-rule:evenodd;"
d="M 15049,16436
15282,16477
15176,17078
14943,17037
15049,16436
Z" /> 
<path style="fill:#008400; fill-opacity:1.0; 
stroke:#008400; stroke-width:0; stroke-opacity:1; 
stroke-linecap:round; stroke-linejoin:round;fill-rule:evenodd;"
d="M 15541,16523
15774,16564
15668,17165
15435,17124
15541,16523
Z" /> 
<path style="fill:#008400; fill-opacity:1.0; 
stroke:#008400; stroke-width:0; stroke-opacity:1; 
stroke-linecap:round; stroke-linejoin:round;fill-rule:evenodd;"
d="M 16034,16610
16266,16651
16160,17252
15928,17211
16034,16610
Z" /> 
<path style="fill:#008400; fill-opacity:1.0; 
stroke:#008400; stroke-width:0; stroke-opacity:1; 
stroke-linecap:round; stroke-linejoin:round;fill-rule:evenodd;"
d="M 15665,18703
15897,18744
15791,19345
15559,19304
15665,18703
Z" /> 
<path style="fill:#008400; fill-opacity:1.0; 
stroke:#008400; stroke-width:0; stroke-opacity:1; 
stroke-linecap:round; stroke-linejoin:round;fill-rule:evenodd;"
d="M 15172,18616
15405,18657
15299,19258
15066,19217
15172,18616
Z" /> 
<path style="fill:#008400; fill-opacity:1.0; 
stroke:#008400; stroke-width:0; stroke-opacity:1; 
stroke-linecap:round; stroke-linejoin:round;fill-rule:evenodd;"
d="M 14680,18530
14912,18571
14806,19172
14574,19131
14680,18530
Z" /> 
<path style="fill:#008400; fill-opacity:1.0; 
stroke:#008400; stroke-width:0; stroke-opacity:1; 
stroke-linecap:round; stroke-linejoin:round;fill-rule:evenodd;"
d="M 14187,18443
14420,18484
14314,19085
14081,19044
14187,18443
Z" /> 
</g>
<g >
</g>
<g style="fill:#008400; fill-opacity:1.0; 
stroke:#008400; stroke-width:0; stroke-opacity:1; 
stroke-linecap:round; stroke-linejoin:round;">
<path style="fill:#008400; fill-opacity:1.0; 
stroke:#008400; stroke-width:0; stroke-opacity:1; 
stroke-linecap:round; stroke-linejoin:round;fill-rule:evenodd;"
d="M 19914,24284
20229,24284
20229,24639
19914,24639
19914,24284
Z" /> 
<path style="fill:#008400; fill-opacity:1.0; 
stroke:#008400; stroke-width:0; stroke-opacity:1; 
stroke-linecap:round; stroke-linejoin:round;fill-rule:evenodd;"
d="M 20288,23497
20603,23497
20603,23851
20288,23851
20288,23497
Z" /> 
<path style="fill:#008400; fill-opacity:1.0; 
stroke:#008400; stroke-width:0; stroke-opacity:1; 
stroke-linecap:round; stroke-linejoin:round;fill-rule:evenodd;"
d="M 19540,23497
19855,23497
19855,23851
19540,23851
19540,23497
Z" /> 
</g>
<g >
</g>
<g style="fill:#008400; fill-opacity:1.0; 
stroke:#008400; stroke-width:0; stroke-opacity:1; 
stroke-linecap:round; stroke-linejoin:round;">
<path style="fill:#008400; fill-opacity:1.0; 
stroke:#008400; stroke-width:0; stroke-opacity:1; 
stroke-linecap:round; stroke-linejoin:round;fill-rule:evenodd;"
d="M 8866,24399
8874,24400
8883,24402
8890,24405
8898,24409
8905,24413
8912,24418
8918,24424
8924,24430
8929,24437
8933,24444
8937,24452
8940,24459
8942,24468
8943,24476
8944,24484
8944,24657
8943,24665
8942,24674
8940,24682
8937,24690
8933,24697
8929,24705
8924,24711
8918,24718
8912,24723
8905,24728
8898,24733
8890,24736
8883,24739
8874,24741
8866,24742
8858,24743
8656,24743
8647,24742
8639,24741
8631,24739
8623,24736
8615,24733
8608,24728
8601,24723
8595,24718
8589,24711
8584,24705
8580,24697
8576,24690
8573,24682
8571,24674
8570,24665
8570,24657
8570,24484
8570,24476
8571,24468
8573,24459
8576,24452
8580,24444
8584,24437
8589,24430
8595,24424
8601,24418
8608,24413
8615,24409
8623,24405
8631,24402
8639,24400
8647,24399
8656,24398
8858,24398
8866,24399
Z" /> 
<path style="fill:#008400; fill-opacity:1.0; 
stroke:#008400; stroke-width:0; stroke-opacity:1; 
stroke-linecap:round; stroke-linejoin:round;fill-rule:evenodd;"
d="M 8866,23779
8874,23780
8883,23782
8890,23785
8898,23788
8905,23793
8912,23798
8918,23804
8924,23810
8929,23817
8933,23824
8937,23831
8940,23839
8942,23848
8943,23856
8944,23864
8944,24037
8943,24045
8942,24053
8940,24062
8937,24070
8933,24077
8929,24084
8924,24091
8918,24098
8912,24103
8905,24108
8898,24113
8890,24116
8883,24119
8874,24121
8866,24122
8858,24123
8656,24123
8647,24122
8639,24121
8631,24119
8623,24116
8615,24113
8608,24108
8601,24103
8595,24098
8589,24091
8584,24084
8580,24077
8576,24070
8573,24062
8571,24053
8570,24045
8570,24037
8570,23864
8570,23856
8571,23848
8573,23839
8576,23831
8580,23824
8584,23817
8589,23810
8595,23804
8601,23798
8608,23793
8615,23788
8623,23785
8631,23782
8639,23780
8647,23779
8656,23778
8858,23778
8866,23779
Z" /> 
</g>
<g >
</g>
<g style="fill:#008400; fill-opacity:1.0; 
stroke:#008400; stroke-width:0; stroke-opacity:1; 
stroke-linecap:round; stroke-linejoin:round;">
<path style="fill:#008400; fill-opacity:1.0; 
stroke:#008400; stroke-width:0; stroke-opacity:1; 
stroke-linecap:round; stroke-linejoin:round;fill-rule:evenodd;"
d="M 18622,24263
18630,24264
18638,24266
18646,24269
18654,24273
18661,24277
18668,24282
18674,24288
18680,24294
18685,24301
18689,24308
18693,24316
18696,24324
18698,24332
18699,24340
18700,24349
18700,24550
18699,24559
18698,24567
18696,24575
18693,24583
18689,24591
18685,24598
18680,24605
18674,24611
18668,24617
18661,24622
18654,24626
18646,24630
18638,24633
18630,24635
18622,24636
18613,24637
18441,24637
18433,24636
18424,24635
18416,24633
18408,24630
18401,24626
18393,24622
18387,24617
18380,24611
18375,24605
18370,24598
18365,24591
18362,24583
18359,24575
18357,24567
18355,24559
18355,24550
18355,24349
18355,24340
18357,24332
18359,24324
18362,24316
18365,24308
18370,24301
18375,24294
18380,24288
18387,24282
18393,24277
18401,24273
18408,24269
18416,24266
18424,24264
18433,24263
18441,24263
18613,24263
18622,24263
Z" /> 
<path style="fill:#008400; fill-opacity:1.0; 
stroke:#008400; stroke-width:0; stroke-opacity:1; 
stroke-linecap:round; stroke-linejoin:round;fill-rule:evenodd;"
d="M 18002,24263
18010,24264
18018,24266
18026,24269
18034,24273
18041,24277
18048,24282
18054,24288
18060,24294
18065,24301
18069,24308
18073,24316
18076,24324
18078,24332
18079,24340
18079,24349
18079,24550
18079,24559
18078,24567
18076,24575
18073,24583
18069,24591
18065,24598
18060,24605
18054,24611
18048,24617
18041,24622
18034,24626
18026,24630
18018,24633
18010,24635
18002,24636
17993,24637
17821,24637
17813,24636
17804,24635
17796,24633
17788,24630
17780,24626
17773,24622
17766,24617
17760,24611
17755,24605
17749,24598
17745,24591
17742,24583
17739,24575
17737,24567
17735,24559
17735,24550
17735,24349
17735,24340
17737,24332
17739,24324
17742,24316
17745,24308
17749,24301
17755,24294
17760,24288
17766,24282
17773,24277
17780,24273
17788,24269
17796,24266
17804,24264
17813,24263
17821,24263
17993,24263
18002,24263
Z" /> 
</g>
<g >
</g>
<g style="fill:#008400; fill-opacity:1.0; 
stroke:#008400; stroke-width:0; stroke-opacity:1; 
stroke-linecap:round; stroke-linejoin:round;">
<path style="fill:#008400; fill-opacity:1.0; 
stroke:#008400; stroke-width:0; stroke-opacity:1; 
stroke-linecap:round; stroke-linejoin:round;fill-rule:evenodd;"
d="M 19161,21554
19170,21556
19178,21558
19186,21560
19193,21564
19201,21568
19207,21573
19214,21579
19219,21585
19224,21592
19229,21599
19232,21607
19235,21615
19237,21623
19238,21632
19239,21640
19239,21842
19238,21850
19237,21859
19235,21867
19232,21875
19229,21882
19224,21890
19219,21896
19214,21903
19207,21908
19201,21913
19193,21918
19186,21921
19178,21924
19170,21926
19161,21927
19153,21928
18981,21928
18972,21927
18964,21926
18956,21924
18948,21921
18940,21918
18933,21913
18926,21908
18920,21903
18914,21896
18909,21890
18905,21882
18901,21875
18898,21867
18896,21859
18895,21850
18894,21842
18894,21640
18895,21632
18896,21623
18898,21615
18901,21607
18905,21599
18909,21592
18914,21585
18920,21579
18926,21573
18933,21568
18940,21564
18948,21560
18956,21558
18964,21556
18972,21554
18981,21554
19153,21554
19161,21554
Z" /> 
<path style="fill:#008400; fill-opacity:1.0; 
stroke:#008400; stroke-width:0; stroke-opacity:1; 
stroke-linecap:round; stroke-linejoin:round;fill-rule:evenodd;"
d="M 18541,21554
18550,21556
18558,21558
18566,21560
18573,21564
18581,21568
18587,21573
18594,21579
18599,21585
18604,21592
18609,21599
18612,21607
18615,21615
18617,21623
18618,21632
18619,21640
18619,21842
18618,21850
18617,21859
18615,21867
18612,21875
18609,21882
18604,21890
18599,21896
18594,21903
18587,21908
18581,21913
18573,21918
18566,21921
18558,21924
18550,21926
18541,21927
18533,21928
18360,21928
18352,21927
18344,21926
18335,21924
18328,21921
18320,21918
18313,21913
18306,21908
18300,21903
18294,21896
18289,21890
18285,21882
18281,21875
18278,21867
18276,21859
18275,21850
18274,21842
18274,21640
18275,21632
18276,21623
18278,21615
18281,21607
18285,21599
18289,21592
18294,21585
18300,21579
18306,21573
18313,21568
18320,21564
18328,21560
18335,21558
18344,21556
18352,21554
18360,21554
18533,21554
18541,21554
Z" /> 
</g>
<g >
</g>
<g style="fill:#008400; fill-opacity:1.0; 
stroke:#008400; stroke-width:0; stroke-opacity:1; 
stroke-linecap:round; stroke-linejoin:round;">
<path style="fill:#008400; fill-opacity:1.0; 
stroke:#008400; stroke-width:0; stroke-opacity:1; 
stroke-linecap:round; stroke-linejoin:round;fill-rule:evenodd;"
d="M 16480,25391
16488,25392
16497,25394
16505,25397
16512,25401
16519,25405
16526,25410
16533,25416
16538,25422
16543,25429
16548,25436
16551,25444
16554,25452
16556,25460
16557,25468
16558,25477
16558,25649
16557,25657
16556,25666
16554,25674
16551,25682
16548,25689
16543,25697
16538,25703
16533,25710
16526,25715
16519,25720
16512,25725
16505,25728
16497,25731
16488,25733
16480,25735
16472,25735
16270,25735
16261,25735
16253,25733
16245,25731
16237,25728
16229,25725
16222,25720
16215,25715
16209,25710
16203,25703
16198,25697
16194,25689
16190,25682
16187,25674
16185,25666
16184,25657
16184,25649
16184,25477
16184,25468
16185,25460
16187,25452
16190,25444
16194,25436
16198,25429
16203,25422
16209,25416
16215,25410
16222,25405
16229,25401
16237,25397
16245,25394
16253,25392
16261,25391
16270,25390
16472,25390
16480,25391
Z" /> 
<path style="fill:#008400; fill-opacity:1.0; 
stroke:#008400; stroke-width:0; stroke-opacity:1; 
stroke-linecap:round; stroke-linejoin:round;fill-rule:evenodd;"
d="M 16480,24771
16488,24772
16497,24774
16505,24777
16512,24781
16519,24785
16526,24790
16533,24796
16538,24802
16543,24809
16548,24816
16551,24824
16554,24832
16556,24840
16557,24848
16558,24857
16558,25029
16557,25037
16556,25046
16554,25054
16551,25062
16548,25069
16543,25077
16538,25083
16533,25090
16526,25095
16519,25100
16512,25105
16505,25108
16497,25111
16488,25113
16480,25114
16472,25115
16270,25115
16261,25114
16253,25113
16245,25111
16237,25108
16229,25105
16222,25100
16215,25095
16209,25090
16203,25083
16198,25077
16194,25069
16190,25062
16187,25054
16185,25046
16184,25037
16184,25029
16184,24857
16184,24848
16185,24840
16187,24832
16190,24824
16194,24816
16198,24809
16203,24802
16209,24796
16215,24790
16222,24785
16229,24781
16237,24777
16245,24774
16253,24772
16261,24771
16270,24770
16472,24770
16480,24771
Z" /> 
</g>
<g >
</g>
<g >
</g>
<g style="fill:#008400; fill-opacity:1.0; 
stroke:#008400; stroke-width:0; stroke-opacity:1; 
stroke-linecap:round; stroke-linejoin:round;">
<path style="fill:#008400; fill-opacity:1.0; 
stroke:#008400; stroke-width:0; stroke-opacity:1; 
stroke-linecap:round; stroke-linejoin:round;fill-rule:evenodd;"
d="M 10472,16941
10481,16942
10491,16945
10500,16948
10508,16952
10517,16957
10524,16963
10532,16969
10538,16977
10544,16984
10549,16993
10553,17001
10556,17010
10559,17020
10560,17029
10560,17039
10560,17295
10560,17305
10559,17314
10556,17323
10553,17333
10549,17341
10544,17350
10538,17357
10532,17365
10524,17371
10517,17377
10508,17382
10500,17386
10491,17389
10481,17391
10472,17393
10462,17393
10108,17393
10098,17393
10088,17391
10079,17389
10070,17386
10061,17382
10053,17377
10045,17371
10038,17365
10032,17357
10026,17350
10021,17341
10017,17333
10013,17323
10011,17314
10010,17305
10009,17295
10009,17039
10010,17029
10011,17020
10013,17010
10017,17001
10021,16993
10026,16984
10032,16977
10038,16969
10045,16963
10053,16957
10061,16952
10070,16948
10079,16945
10088,16942
10098,16941
10108,16941
10462,16941
10472,16941
Z" /> 
<path style="fill:#008400; fill-opacity:1.0; 
stroke:#008400; stroke-width:0; stroke-opacity:1; 
stroke-linecap:round; stroke-linejoin:round;fill-rule:evenodd;"
d="M 10472,16134
10481,16135
10491,16138
10500,16141
10508,16145
10517,16150
10524,16156
10532,16162
10538,16169
10544,16177
10549,16186
10553,16194
10556,16203
10559,16213
10560,16222
10560,16232
10560,16488
10560,16497
10559,16507
10556,16516
10553,16525
10549,16534
10544,16543
10538,16550
10532,16557
10524,16564
10517,16570
10508,16575
10500,16579
10491,16582
10481,16584
10472,16586
10462,16586
10108,16586
10098,16586
10088,16584
10079,16582
10070,16579
10061,16575
10053,16570
10045,16564
10038,16557
10032,16550
10026,16543
10021,16534
10017,16525
10013,16516
10011,16507
10010,16497
10009,16488
10009,16232
10010,16222
10011,16213
10013,16203
10017,16194
10021,16186
10026,16177
10032,16169
10038,16162
10045,16156
10053,16150
10061,16145
10070,16141
10079,16138
10088,16135
10098,16134
10108,16133
10462,16133
10472,16134
Z" /> 
</g>
<g >
</g>
<g style="fill:#008400; fill-opacity:1.0; 
stroke:#008400; stroke-width:0; stroke-opacity:1; 
stroke-linecap:round; stroke-linejoin:round;">
<path style="fill:#008400; fill-opacity:1.0; 
stroke:#008400; stroke-width:0; stroke-opacity:1; 
stroke-linecap:round; stroke-linejoin:round;fill-rule:evenodd;"
d="M 11223,16922
11233,16924
11242,16926
11251,16929
11260,16934
11268,16939
11276,16944
11283,16951
11289,16958
11295,16966
11300,16974
11304,16983
11308,16992
11310,17001
11311,17011
11312,17020
11312,17276
11311,17286
11310,17296
11308,17305
11304,17314
11300,17323
11295,17331
11289,17339
11283,17346
11276,17352
11268,17358
11260,17363
11251,17367
11242,17370
11233,17373
11223,17374
11213,17375
10859,17375
10849,17374
10840,17373
10830,17370
10821,17367
10813,17363
10804,17358
10797,17352
10789,17346
10783,17339
10777,17331
10772,17323
10768,17314
10765,17305
10762,17296
10761,17286
10761,17276
10761,17020
10761,17011
10762,17001
10765,16992
10768,16983
10772,16974
10777,16966
10783,16958
10789,16951
10797,16944
10804,16939
10813,16934
10821,16929
10830,16926
10840,16924
10849,16922
10859,16922
11213,16922
11223,16922
Z" /> 
<path style="fill:#008400; fill-opacity:1.0; 
stroke:#008400; stroke-width:0; stroke-opacity:1; 
stroke-linecap:round; stroke-linejoin:round;fill-rule:evenodd;"
d="M 11223,16115
11233,16117
11242,16119
11251,16122
11260,16127
11268,16131
11276,16137
11283,16144
11289,16151
11295,16159
11300,16167
11304,16176
11308,16185
11310,16194
11311,16204
11312,16213
11312,16469
11311,16479
11310,16488
11308,16498
11304,16507
11300,16516
11295,16524
11289,16532
11283,16539
11276,16545
11268,16551
11260,16556
11251,16560
11242,16563
11233,16566
11223,16567
11213,16568
10859,16568
10849,16567
10840,16566
10830,16563
10821,16560
10813,16556
10804,16551
10797,16545
10789,16539
10783,16532
10777,16524
10772,16516
10768,16507
10765,16498
10762,16488
10761,16479
10761,16469
10761,16213
10761,16204
10762,16194
10765,16185
10768,16176
10772,16167
10777,16159
10783,16151
10789,16144
10797,16137
10804,16131
10813,16127
10821,16122
10830,16119
10840,16117
10849,16115
10859,16115
11213,16115
11223,16115
Z" /> 
</g>
<g >
</g>
<g style="fill:#008400; fill-opacity:1.0; 
stroke:#008400; stroke-width:0; stroke-opacity:1; 
stroke-linecap:round; stroke-linejoin:round;">
<path style="fill:#008400; fill-opacity:1.0; 
stroke:#008400; stroke-width:0; stroke-opacity:1; 
stroke-linecap:round; stroke-linejoin:round;fill-rule:evenodd;"
d="M 13167,17692
13175,17693
13184,17695
13192,17698
13199,17702
13207,17706
13213,17711
13220,17717
13225,17723
13230,17730
13235,17737
13238,17745
13241,17753
13243,17761
13244,17769
13245,17778
13245,17980
13244,17988
13243,17996
13241,18005
13238,18013
13235,18020
13230,18027
13225,18034
13220,18040
13213,18046
13207,18051
13199,18056
13192,18059
13184,18062
13175,18064
13167,18065
13159,18066
12986,18066
12978,18065
12970,18064
12961,18062
12953,18059
12946,18056
12939,18051
12932,18046
12926,18040
12920,18034
12915,18027
12910,18020
12907,18013
12904,18005
12902,17996
12901,17988
12900,17980
12900,17778
12901,17769
12902,17761
12904,17753
12907,17745
12910,17737
12915,17730
12920,17723
12926,17717
12932,17711
12939,17706
12946,17702
12953,17698
12961,17695
12970,17693
12978,17692
12986,17692
13159,17692
13167,17692
Z" /> 
<path style="fill:#008400; fill-opacity:1.0; 
stroke:#008400; stroke-width:0; stroke-opacity:1; 
stroke-linecap:round; stroke-linejoin:round;fill-rule:evenodd;"
d="M 13787,17692
13796,17693
13804,17695
13812,17698
13819,17702
13827,17706
13833,17711
13840,17717
13845,17723
13850,17730
13855,17737
13858,17745
13861,17753
13863,17761
13864,17769
13865,17778
13865,17980
13864,17988
13863,17996
13861,18005
13858,18013
13855,18020
13850,18027
13845,18034
13840,18040
13833,18046
13827,18051
13819,18056
13812,18059
13804,18062
13796,18064
13787,18065
13779,18066
13607,18066
13598,18065
13590,18064
13582,18062
13574,18059
13566,18056
13559,18051
13552,18046
13546,18040
13540,18034
13535,18027
13531,18020
13527,18013
13524,18005
13522,17996
13521,17988
13520,17980
13520,17778
13521,17769
13522,17761
13524,17753
13527,17745
13531,17737
13535,17730
13540,17723
13546,17717
13552,17711
13559,17706
13566,17702
13574,17698
13582,17695
13590,17693
13598,17692
13607,17692
13779,17692
13787,17692
Z" /> 
</g>
<g >
</g>
<g style="fill:#008400; fill-opacity:1.0; 
stroke:#008400; stroke-width:0; stroke-opacity:1; 
stroke-linecap:round; stroke-linejoin:round;">
<path style="fill:#008400; fill-opacity:1.0; 
stroke:#008400; stroke-width:0; stroke-opacity:1; 
stroke-linecap:round; stroke-linejoin:round;fill-rule:evenodd;"
d="M 18040,22127
18355,22127
18355,22875
18040,22875
18040,22127
Z" /> 
<path style="fill:#008400; fill-opacity:1.0; 
stroke:#008400; stroke-width:0; stroke-opacity:1; 
stroke-linecap:round; stroke-linejoin:round;fill-rule:evenodd;"
d="M 18788,22127
19103,22127
19103,22875
18788,22875
18788,22127
Z" /> 
<path style="fill:#008400; fill-opacity:1.0; 
stroke:#008400; stroke-width:0; stroke-opacity:1; 
stroke-linecap:round; stroke-linejoin:round;fill-rule:evenodd;"
d="M 18414,23308
18729,23308
18729,24056
18414,24056
18414,23308
Z" /> 
</g>
<g >
</g>
<g style="fill:#008400; fill-opacity:1.0; 
stroke:#008400; stroke-width:0; stroke-opacity:1; 
stroke-linecap:round; stroke-linejoin:round;">
<path style="fill:#008400; fill-opacity:1.0; 
stroke:#008400; stroke-width:0; stroke-opacity:1; 
stroke-linecap:round; stroke-linejoin:round;fill-rule:evenodd;"
d="M 18296,19190
18611,19190
18611,19938
18296,19938
18296,19190
Z" /> 
<path style="fill:#008400; fill-opacity:1.0; 
stroke:#008400; stroke-width:0; stroke-opacity:1; 
stroke-linecap:round; stroke-linejoin:round;fill-rule:evenodd;"
d="M 19044,19190
19359,19190
19359,19938
19044,19938
19044,19190
Z" /> 
<path style="fill:#008400; fill-opacity:1.0; 
stroke:#008400; stroke-width:0; stroke-opacity:1; 
stroke-linecap:round; stroke-linejoin:round;fill-rule:evenodd;"
d="M 18670,20371
18985,20371
18985,21119
18670,21119
18670,20371
Z" /> 
</g>
<g >
</g>
<g style="fill:#008400; fill-opacity:1.0; 
stroke:#008400; stroke-width:0; stroke-opacity:1; 
stroke-linecap:round; stroke-linejoin:round;">
<path style="fill:#008400; fill-opacity:1.0; 
stroke:#008400; stroke-width:0; stroke-opacity:1; 
stroke-linecap:round; stroke-linejoin:round;fill-rule:evenodd;"
d="M 26473,7390
26473,7705
25725,7705
25725,7390
26473,7390
Z" /> 
<path style="fill:#008400; fill-opacity:1.0; 
stroke:#008400; stroke-width:0; stroke-opacity:1; 
stroke-linecap:round; stroke-linejoin:round;fill-rule:evenodd;"
d="M 26473,8139
26473,8453
25725,8453
25725,8139
26473,8139
Z" /> 
<path style="fill:#008400; fill-opacity:1.0; 
stroke:#008400; stroke-width:0; stroke-opacity:1; 
stroke-linecap:round; stroke-linejoin:round;fill-rule:evenodd;"
d="M 25292,7764
25292,8079
24544,8079
24544,7764
25292,7764
Z" /> 
</g>
<g >
</g>
<g style="fill:#008400; fill-opacity:1.0; 
stroke:#008400; stroke-width:0; stroke-opacity:1; 
stroke-linecap:round; stroke-linejoin:round;">
<path style="fill:#008400; fill-opacity:1.0; 
stroke:#008400; stroke-width:0; stroke-opacity:1; 
stroke-linecap:round; stroke-linejoin:round;fill-rule:evenodd;"
d="M 19619,21076
19619,20761
20367,20761
20367,21076
19619,21076
Z" /> 
<path style="fill:#008400; fill-opacity:1.0; 
stroke:#008400; stroke-width:0; stroke-opacity:1; 
stroke-linecap:round; stroke-linejoin:round;fill-rule:evenodd;"
d="M 19619,20327
19619,20013
20367,20013
20367,20327
19619,20327
Z" /> 
<path style="fill:#008400; fill-opacity:1.0; 
stroke:#008400; stroke-width:0; stroke-opacity:1; 
stroke-linecap:round; stroke-linejoin:round;fill-rule:evenodd;"
d="M 20800,20702
20800,20387
21548,20387
21548,20702
20800,20702
Z" /> 
</g>
<g >
</g>
<g >
</g>
<g style="fill:#008400; fill-opacity:1.0; 
stroke:#008400; stroke-width:0; stroke-opacity:1; 
stroke-linecap:round; stroke-linejoin:round;">
<path style="fill:#008400; fill-opacity:1.0; 
stroke:#008400; stroke-width:0; stroke-opacity:1; 
stroke-linecap:round; stroke-linejoin:round;fill-rule:evenodd;"
d="M 25371,13820
25056,13820
25056,13072
25371,13072
25371,13820
Z" /> 
<path style="fill:#008400; fill-opacity:1.0; 
stroke:#008400; stroke-width:0; stroke-opacity:1; 
stroke-linecap:round; stroke-linejoin:round;fill-rule:evenodd;"
d="M 24623,13820
24308,13820
24308,13072
24623,13072
24623,13820
Z" /> 
<path style="fill:#008400; fill-opacity:1.0; 
stroke:#008400; stroke-width:0; stroke-opacity:1; 
stroke-linecap:round; stroke-linejoin:round;fill-rule:evenodd;"
d="M 24997,12639
24682,12639
24682,11890
24997,11890
24997,12639
Z" /> 
</g>
<g >
</g>
<g style="fill:#008400; fill-opacity:1.0; 
stroke:#008400; stroke-width:0; stroke-opacity:1; 
stroke-linecap:round; stroke-linejoin:round;">
<path style="fill:#008400; fill-opacity:1.0; 
stroke:#008400; stroke-width:0; stroke-opacity:1; 
stroke-linecap:round; stroke-linejoin:round;fill-rule:evenodd;"
d="M 16327,21320
16642,21320
16642,22068
16327,22068
16327,21320
Z" /> 
<path style="fill:#008400; fill-opacity:1.0; 
stroke:#008400; stroke-width:0; stroke-opacity:1; 
stroke-linecap:round; stroke-linejoin:round;fill-rule:evenodd;"
d="M 16702,20139
17016,20139
17016,20887
16702,20887
16702,20139
Z" /> 
<path style="fill:#008400; fill-opacity:1.0; 
stroke:#008400; stroke-width:0; stroke-opacity:1; 
stroke-linecap:round; stroke-linejoin:round;fill-rule:evenodd;"
d="M 15953,20139
16268,20139
16268,20887
15953,20887
15953,20139
Z" /> 
</g>
<g >
</g>
<g >
</g>
<g >
</g>
<g >
</g>
<g >
</g>
<g >
</g>
<g >
</g>
<g style="fill:#008400; fill-opacity:1.0; 
stroke:#008400; stroke-width:0; stroke-opacity:1; 
stroke-linecap:round; stroke-linejoin:round;">
<path style="fill:#008400; fill-opacity:1.0; 
stroke:#008400; stroke-width:0; stroke-opacity:1; 
stroke-linecap:round; stroke-linejoin:round;fill-rule:evenodd;"
d="M 13948,12444
13957,12445
13966,12448
13974,12451
13983,12455
13991,12459
13998,12465
14005,12471
14011,12478
14016,12485
14021,12493
14025,12501
14028,12510
14030,12519
14032,12528
14032,12537
14032,12724
14032,12733
14030,12742
14028,12751
14025,12760
14021,12768
14016,12776
14011,12783
14005,12790
13998,12796
13991,12802
13983,12807
13974,12811
13966,12814
13957,12816
13948,12817
13939,12818
13712,12818
13703,12817
13694,12816
13685,12814
13677,12811
13668,12807
13660,12802
13653,12796
13646,12790
13640,12783
13635,12776
13630,12768
13626,12760
13623,12751
13621,12742
13619,12733
13619,12724
13619,12537
13619,12528
13621,12519
13623,12510
13626,12501
13630,12493
13635,12485
13640,12478
13646,12471
13653,12465
13660,12459
13668,12455
13677,12451
13685,12448
13694,12445
13703,12444
13712,12444
13939,12444
13948,12444
Z" /> 
<path style="fill:#008400; fill-opacity:1.0; 
stroke:#008400; stroke-width:0; stroke-opacity:1; 
stroke-linecap:round; stroke-linejoin:round;fill-rule:evenodd;"
d="M 14637,12444
14646,12445
14655,12448
14663,12451
14672,12455
14680,12459
14687,12465
14694,12471
14700,12478
14705,12485
14710,12493
14714,12501
14717,12510
14719,12519
14721,12528
14721,12537
14721,12724
14721,12733
14719,12742
14717,12751
14714,12760
14710,12768
14705,12776
14700,12783
14694,12790
14687,12796
14680,12802
14672,12807
14663,12811
14655,12814
14646,12816
14637,12817
14628,12818
14401,12818
14392,12817
14383,12816
14374,12814
14366,12811
14357,12807
14349,12802
14342,12796
14335,12790
14329,12783
14324,12776
14319,12768
14315,12760
14312,12751
14310,12742
14308,12733
14308,12724
14308,12537
14308,12528
14310,12519
14312,12510
14315,12501
14319,12493
14324,12485
14329,12478
14335,12471
14342,12465
14349,12459
14357,12455
14366,12451
14374,12448
14383,12445
14392,12444
14401,12444
14628,12444
14637,12444
Z" /> 
</g>
<g >
</g>
<g style="fill:#008400; fill-opacity:1.0; 
stroke:#008400; stroke-width:0; stroke-opacity:1; 
stroke-linecap:round; stroke-linejoin:round;">
<path style="fill:#008400; fill-opacity:1.0; 
stroke:#008400; stroke-width:0; stroke-opacity:1; 
stroke-linecap:round; stroke-linejoin:round;fill-rule:evenodd;"
d="M 14401,15070
14410,15071
14419,15074
14427,15077
14436,15081
14443,15085
14451,15091
14458,15097
14464,15104
14469,15111
14474,15119
14478,15127
14481,15136
14483,15145
14485,15154
14485,15163
14485,15350
14485,15359
14483,15368
14481,15377
14478,15386
14474,15394
14469,15402
14464,15409
14458,15416
14451,15422
14443,15428
14436,15433
14427,15437
14419,15440
14410,15442
14401,15443
14391,15444
14165,15444
14156,15443
14147,15442
14138,15440
14129,15437
14121,15433
14113,15428
14106,15422
14099,15416
14093,15409
14087,15402
14083,15394
14079,15386
14076,15377
14073,15368
14072,15359
14072,15350
14072,15163
14072,15154
14073,15145
14076,15136
14079,15127
14083,15119
14087,15111
14093,15104
14099,15097
14106,15091
14113,15085
14121,15081
14129,15077
14138,15074
14147,15071
14156,15070
14165,15070
14391,15070
14401,15070
Z" /> 
<path style="fill:#008400; fill-opacity:1.0; 
stroke:#008400; stroke-width:0; stroke-opacity:1; 
stroke-linecap:round; stroke-linejoin:round;fill-rule:evenodd;"
d="M 15090,15070
15099,15071
15108,15074
15116,15077
15125,15081
15132,15085
15140,15091
15147,15097
15153,15104
15158,15111
15163,15119
15167,15127
15170,15136
15172,15145
15173,15154
15174,15163
15174,15350
15173,15359
15172,15368
15170,15377
15167,15386
15163,15394
15158,15402
15153,15409
15147,15416
15140,15422
15132,15428
15125,15433
15116,15437
15108,15440
15099,15442
15090,15443
15080,15444
14854,15444
14845,15443
14836,15442
14827,15440
14818,15437
14810,15433
14802,15428
14795,15422
14788,15416
14782,15409
14776,15402
14772,15394
14768,15386
14765,15377
14762,15368
14761,15359
14761,15350
14761,15163
14761,15154
14762,15145
14765,15136
14768,15127
14772,15119
14776,15111
14782,15104
14788,15097
14795,15091
14802,15085
14810,15081
14818,15077
14827,15074
14836,15071
14845,15070
14854,15070
15080,15070
15090,15070
Z" /> 
</g>
<g >
</g>
<g style="fill:#008400; fill-opacity:1.0; 
stroke:#008400; stroke-width:0; stroke-opacity:1; 
stroke-linecap:round; stroke-linejoin:round;">
<path style="fill:#008400; fill-opacity:1.0; 
stroke:#008400; stroke-width:0; stroke-opacity:1; 
stroke-linecap:round; stroke-linejoin:round;fill-rule:evenodd;"
d="M 19999,22917
20008,22918
20017,22920
20026,22923
20034,22927
20042,22932
20049,22937
20056,22943
20062,22950
20068,22958
20072,22965
20076,22974
20079,22982
20082,22991
20083,23000
20083,23010
20083,23197
20083,23206
20082,23215
20079,23224
20076,23232
20072,23241
20068,23249
20062,23256
20056,23263
20049,23269
20042,23274
20034,23279
20026,23283
20017,23286
20008,23288
19999,23290
19990,23290
19764,23290
19754,23290
19745,23288
19736,23286
19728,23283
19719,23279
19712,23274
19704,23269
19697,23263
19691,23256
19686,23249
19681,23241
19677,23232
19674,23224
19672,23215
19670,23206
19670,23197
19670,23010
19670,23000
19672,22991
19674,22982
19677,22974
19681,22965
19686,22958
19691,22950
19697,22943
19704,22937
19712,22932
19719,22927
19728,22923
19736,22920
19745,22918
19754,22917
19764,22916
19990,22916
19999,22917
Z" /> 
<path style="fill:#008400; fill-opacity:1.0; 
stroke:#008400; stroke-width:0; stroke-opacity:1; 
stroke-linecap:round; stroke-linejoin:round;fill-rule:evenodd;"
d="M 20688,22917
20697,22918
20706,22920
20715,22923
20723,22927
20731,22932
20738,22937
20745,22943
20751,22950
20757,22958
20761,22965
20765,22974
20768,22982
20771,22991
20772,23000
20772,23010
20772,23197
20772,23206
20771,23215
20768,23224
20765,23232
20761,23241
20757,23249
20751,23256
20745,23263
20738,23269
20731,23274
20723,23279
20715,23283
20706,23286
20697,23288
20688,23290
20679,23290
20452,23290
20443,23290
20434,23288
20425,23286
20417,23283
20408,23279
20401,23274
20393,23269
20386,23263
20380,23256
20375,23249
20370,23241
20366,23232
20363,23224
20361,23215
20359,23206
20359,23197
20359,23010
20359,23000
20361,22991
20363,22982
20366,22974
20370,22965
20375,22958
20380,22950
20386,22943
20393,22937
20401,22932
20408,22927
20417,22923
20425,22920
20434,22918
20443,22917
20452,22916
20679,22916
20688,22917
Z" /> 
</g>
<g >
</g>
<g >
</g>
<g >
</g>
<g >
</g>
<g >
</g>
<g >
</g>
<g >
</g>
<g >
</g>
<g >
</g>
<g >
</g>
<g >
</g>
<g >
</g>
<g >
</g>
<g >
</g>
<g >
</g>
<g >
</g>
<g >
</g>
<g >
</g>
<g >
</g>
<g >
</g>
<g >
</g>
<g >
</g>
<g >
</g>
<g >
</g>
<g >
</g>
<g >
</g>
<g >
</g>
<g >
</g>
<g >
</g>
<g >
</g>
<g >
</g>
<g >
</g>
<g >
</g>
<g >
</g>
<g >
</g>
<g >
</g>
<g >
</g>
<g >
</g>
<g >
</g>
<g >
</g>
<g >
</g>
<g >
</g>
<g >
</g>
<g >
</g>
<g >
</g>
<g >
</g>
<g >
</g>
<g >
</g>
<g >
</g>
<g >
</g>
<g >
</g>
<g >
</g>
<g >
</g>
<g >
</g>
<g >
</g>
<g >
</g>
</g>
<g style="fill:#000000; fill-opacity:1.0; 
stroke:#000000; stroke-width:0; stroke-opacity:1; 
stroke-linecap:round; stroke-linejoin:round;">
</g>
<g style="fill:#C2C200; fill-opacity:1.0; 
stroke:#C2C200; stroke-width:0; stroke-opacity:1; 
stroke-linecap:round; stroke-linejoin:round;">
</g>
<g style="fill:#C2C200; fill-opacity:0.0; 
stroke:#C2C200; stroke-width:0.393701; stroke-opacity:1; 
stroke-linecap:round; stroke-linejoin:round;">
<path d="M33367.4 11617 A393.701 393.701 0.0 0 0 34154.8 11617 " />
<path d="M34154.8 24517 A393.701 393.701 0.0 0 0 33367.4 24517 " />
</g>
<g style="fill:#C2C200; fill-opacity:0.0; 
stroke:#C2C200; stroke-width:59.0551; stroke-opacity:1; 
stroke-linecap:round; stroke-linejoin:round;">
<path d="M33282 24602
L33367 24516
" />
<path d="M33292 11540
L33367 11616
" />
<path d="M5934 16737
L5934 26516
" />
<path d="M5934 5516
L5934 6849
" />
<path d="M5934 6849
L5934 16737
" />
<path d="M5934 26516
L32367 26516
" />
<path d="M33292 11540
L32367 10616
" />
<path d="M32367 6116
L31767 5516
" />
<path d="M32367 25516
L33282 24602
" />
<path d="M32367 26516
L32367 25516
" />
<path d="M32367 10616
L32367 6116
" />
<path d="M31767 5516
L5934 5516
" />
</g>
<g style="fill:#C2C200; fill-opacity:0.0; 
stroke:#C2C200; stroke-width:0.393701; stroke-opacity:1; 
stroke-linecap:round; stroke-linejoin:round;">
<path d="M42618.5 5335.84 A908.798 908.798 0.0 0 0 43283.2 5380.82 " />
<path d="M43283 5380.76 A908.735 908.735 0.0 0 0 43327.9 6045.34 " />
<path d="M43283.1 26471.9 A908.735 908.735 0.0 0 0 42618.5 26516.9 " />
<path d="M43328 25807.5 A908.798 908.798 0.0 0 0 43283 26472.1 " />
<path d="M34864.2 26516.9 A908.798 908.798 0.0 0 0 34199.6 26472 " />
<path d="M34199.8 26472 A908.735 908.735 0.0 0 0 34154.8 25807.4 " />
<path d="M43327 25807
L43327 10977
" />
<path d="M34154 6045
L34154 11617
" />
<path d="M34154 24516
L34154 25807
" />
<path d="M42618 26516
L34864 26516
" />
<path d="M34864 5335
L42618 5335
" />
<path d="M41387 9009
L43327 9009
" />
<path d="M41387 10977
L43327 10977
" />
<path d="M41387 10977
L41387 9009
" />
<path d="M43327 9009
L43327 6045
" />
<path d="M34154.8 6045.29 A908.798 908.798 0.0 0 0 34199.7 5380.66 " />
<path d="M34199.7 5380.87 A908.735 908.735 0.0 0 0 34864.3 5335.89 " />
<g >
</g>
<g >
</g>
<g >
</g>
<g >
</g>
<g >
</g>
<g >
</g>
<g >
</g>
<g >
</g>
<g >
</g>
<g >
</g>
<g >
</g>
<g >
</g>
<g >
</g>
<g >
</g>
<g >
</g>
<g >
</g>
<g >
</g>
<g >
</g>
<g >
</g>
<g >
</g>
<g >
</g>
<g >
</g>
<g >
</g>
<g >
</g>
<g >
</g>
<g >
</g>
<g >
</g>
<g >
</g>
<g >
</g>
<g >
</g>
<g >
</g>
<g >
</g>
<g >
</g>
<g >
</g>
<g >
</g>
<g >
</g>
<g >
</g>
<g >
</g>
<g >
</g>
<g >
</g>
<g >
</g>
<g >
</g>
<g >
</g>
<g >
</g>
<g >
</g>
<g >
</g>
<g >
</g>
<g >
</g>
<g >
</g>
<g >
</g>
<g >
</g>
<g >
</g>
<g >
</g>
<g >
</g>
<g >
</g>
<g >
</g>
<g >
</g>
<g >
</g>
<g >
</g>
<g >
</g>
<g >
</g>
<g >
</g>
<g >
</g>
<g >
</g>
<g >
</g>
<g >
</g>
<g >
</g>
<g >
</g>
<g >
</g>
<g >
</g>
<g >
</g>
<g >
</g>
<g >
</g>
<g >
</g>
<g >
</g>
<g >
</g>
<g >
</g>
<g >
</g>
<g >
</g>
<g >
</g>
<g >
</g>
<g >
</g>
<g >
</g>
<g >
</g>
<g >
</g>
<g >
</g>
<g >
</g>
<g >
</g>
<g >
</g>
<g >
</g>
<g >
</g>
<g >
</g>
<g >
</g>
<g >
</g>
<g >
</g>
<g >
</g>
<g >
</g>
<g >
</g>
<g >
</g>
<g >
</g>
<g >
</g>
<g >
</g>
<g >
</g>
<g >
</g>
<g >
</g>
<g >
</g>
<g >
</g>
<g >
</g>
<g >
</g>
<g >
</g>
<g >
</g>
<g >
</g>
<g >
</g>
<g >
</g>
<g >
</g>
<g >
</g>
<g >
</g>
<g >
</g>
<g >
</g>
<g >
</g>
<g >
</g>
<g >
</g>
<g >
</g>
<g >
</g>
<g >
</g>
<g >
</g>
<g >
</g>
<g >
</g>
<g >
</g>
<g >
</g>
<g >
</g>
<g >
</g>
<g >
</g>
<g >
</g>
<g >
</g>
<g >
</g>
<g >
</g>
<g >
</g>
<g >
</g>
<g >
</g>
<g >
</g>
<g >
</g>
<g >
</g>
<g >
</g>
<g >
</g>
<g >
</g>
<g >
</g>
<g >
</g>
<g >
</g>
<g >
</g>
<g >
</g>
<g >
</g>
<g >
</g>
<g >
</g>
<g >
</g>
<g >
</g>
<g >
</g>
<g >
</g>
<g >
</g>
<g >
</g>
<g >
</g>
<g >
</g>
<g >
</g>
<g >
</g>
<g >
</g>
<g >
</g>
<g >
</g>
<g >
</g>
<g >
</g>
<g >
</g>
</g> 
</svg>
